%TF.GenerationSoftware,KiCad,Pcbnew,(5.1.8-0-10_14)*%
%TF.CreationDate,2021-03-11T12:17:28+11:00*%
%TF.ProjectId,Open-JIP(KiCad)_T3.6_OD,4f70656e-2d4a-4495-9028-4b6943616429,rev?*%
%TF.SameCoordinates,Original*%
%TF.FileFunction,Legend,Top*%
%TF.FilePolarity,Positive*%
%FSLAX46Y46*%
G04 Gerber Fmt 4.6, Leading zero omitted, Abs format (unit mm)*
G04 Created by KiCad (PCBNEW (5.1.8-0-10_14)) date 2021-03-11 12:17:28*
%MOMM*%
%LPD*%
G01*
G04 APERTURE LIST*
%ADD10C,0.010000*%
%ADD11C,0.200000*%
%ADD12C,0.120000*%
%ADD13C,0.203200*%
%ADD14C,0.150000*%
G04 APERTURE END LIST*
D10*
%TO.C,REF\u002A\u002A*%
G36*
X65003910Y-123342348D02*
G01*
X65082454Y-123342778D01*
X65139298Y-123343942D01*
X65178105Y-123346207D01*
X65202538Y-123349940D01*
X65216262Y-123355506D01*
X65222940Y-123363273D01*
X65226236Y-123373605D01*
X65226556Y-123374943D01*
X65231562Y-123399079D01*
X65240829Y-123446701D01*
X65253392Y-123512741D01*
X65268287Y-123592128D01*
X65284551Y-123679796D01*
X65285119Y-123682875D01*
X65301410Y-123768789D01*
X65316652Y-123844696D01*
X65329861Y-123906045D01*
X65340054Y-123948282D01*
X65346248Y-123966855D01*
X65346543Y-123967184D01*
X65364788Y-123976253D01*
X65402405Y-123991367D01*
X65451271Y-124009262D01*
X65451543Y-124009358D01*
X65513093Y-124032493D01*
X65585657Y-124061965D01*
X65654057Y-124091597D01*
X65657294Y-124093062D01*
X65768702Y-124143626D01*
X66015399Y-123975160D01*
X66091077Y-123923803D01*
X66159631Y-123877889D01*
X66217088Y-123840030D01*
X66259476Y-123812837D01*
X66282825Y-123798921D01*
X66285042Y-123797889D01*
X66302010Y-123802484D01*
X66333701Y-123824655D01*
X66381352Y-123865447D01*
X66446198Y-123925905D01*
X66512397Y-123990227D01*
X66576214Y-124053612D01*
X66633329Y-124111451D01*
X66680305Y-124160175D01*
X66713703Y-124196210D01*
X66730085Y-124215984D01*
X66730694Y-124217002D01*
X66732505Y-124230572D01*
X66725683Y-124252733D01*
X66708540Y-124286478D01*
X66679393Y-124334800D01*
X66636555Y-124400692D01*
X66579448Y-124485517D01*
X66528766Y-124560177D01*
X66483461Y-124627140D01*
X66446150Y-124682516D01*
X66419452Y-124722420D01*
X66405985Y-124742962D01*
X66405137Y-124744356D01*
X66406781Y-124764038D01*
X66419245Y-124802293D01*
X66440048Y-124851889D01*
X66447462Y-124867728D01*
X66479814Y-124938290D01*
X66514328Y-125018353D01*
X66542365Y-125087629D01*
X66562568Y-125139045D01*
X66578615Y-125178119D01*
X66587888Y-125198541D01*
X66589041Y-125200114D01*
X66606096Y-125202721D01*
X66646298Y-125209863D01*
X66704302Y-125220523D01*
X66774763Y-125233685D01*
X66852335Y-125248333D01*
X66931672Y-125263449D01*
X67007431Y-125278018D01*
X67074264Y-125291022D01*
X67126828Y-125301445D01*
X67159776Y-125308270D01*
X67167857Y-125310199D01*
X67176205Y-125314962D01*
X67182506Y-125325718D01*
X67187045Y-125346098D01*
X67190104Y-125379734D01*
X67191967Y-125430255D01*
X67192918Y-125501292D01*
X67193240Y-125596476D01*
X67193257Y-125635492D01*
X67193257Y-125952799D01*
X67117057Y-125967839D01*
X67074663Y-125975995D01*
X67011400Y-125987899D01*
X66934962Y-126002116D01*
X66853043Y-126017210D01*
X66830400Y-126021355D01*
X66754806Y-126036053D01*
X66688953Y-126050505D01*
X66638366Y-126063375D01*
X66608574Y-126073322D01*
X66603612Y-126076287D01*
X66591426Y-126097283D01*
X66573953Y-126137967D01*
X66554577Y-126190322D01*
X66550734Y-126201600D01*
X66525339Y-126271523D01*
X66493817Y-126350418D01*
X66462969Y-126421266D01*
X66462817Y-126421595D01*
X66411447Y-126532733D01*
X66580399Y-126781253D01*
X66749352Y-127029772D01*
X66532429Y-127247058D01*
X66466819Y-127311726D01*
X66406979Y-127368733D01*
X66356267Y-127415033D01*
X66318046Y-127447584D01*
X66295675Y-127463343D01*
X66292466Y-127464343D01*
X66273626Y-127456469D01*
X66235180Y-127434578D01*
X66181330Y-127401267D01*
X66116276Y-127359131D01*
X66045940Y-127311943D01*
X65974555Y-127263810D01*
X65910908Y-127221928D01*
X65859041Y-127188871D01*
X65822995Y-127167218D01*
X65806867Y-127159543D01*
X65787189Y-127166037D01*
X65749875Y-127183150D01*
X65702621Y-127207326D01*
X65697612Y-127210013D01*
X65633977Y-127241927D01*
X65590341Y-127257579D01*
X65563202Y-127257745D01*
X65549057Y-127243204D01*
X65548975Y-127243000D01*
X65541905Y-127225779D01*
X65525042Y-127184899D01*
X65499695Y-127123525D01*
X65467171Y-127044819D01*
X65428778Y-126951947D01*
X65385822Y-126848072D01*
X65344222Y-126747502D01*
X65298504Y-126636516D01*
X65256526Y-126533703D01*
X65219548Y-126442215D01*
X65188827Y-126365201D01*
X65165622Y-126305815D01*
X65151190Y-126267209D01*
X65146743Y-126252800D01*
X65157896Y-126236272D01*
X65187069Y-126209930D01*
X65225971Y-126180887D01*
X65336757Y-126089039D01*
X65423351Y-125983759D01*
X65484716Y-125867266D01*
X65519815Y-125741776D01*
X65527608Y-125609507D01*
X65521943Y-125548457D01*
X65491078Y-125421795D01*
X65437920Y-125309941D01*
X65365767Y-125214001D01*
X65277917Y-125135076D01*
X65177665Y-125074270D01*
X65068310Y-125032687D01*
X64953147Y-125011428D01*
X64835475Y-125011599D01*
X64718590Y-125034301D01*
X64605789Y-125080638D01*
X64500369Y-125151713D01*
X64456368Y-125191911D01*
X64371979Y-125295129D01*
X64313222Y-125407925D01*
X64279704Y-125527010D01*
X64271035Y-125649095D01*
X64286823Y-125770893D01*
X64326678Y-125889116D01*
X64390207Y-126000475D01*
X64477021Y-126101684D01*
X64574029Y-126180887D01*
X64614437Y-126211162D01*
X64642982Y-126237219D01*
X64653257Y-126252825D01*
X64647877Y-126269843D01*
X64632575Y-126310500D01*
X64608612Y-126371642D01*
X64577244Y-126450119D01*
X64539732Y-126542780D01*
X64497333Y-126646472D01*
X64455663Y-126747526D01*
X64409690Y-126858607D01*
X64367107Y-126961541D01*
X64329221Y-127053165D01*
X64297340Y-127130316D01*
X64272771Y-127189831D01*
X64256820Y-127228544D01*
X64250910Y-127243000D01*
X64236948Y-127257685D01*
X64209940Y-127257642D01*
X64166413Y-127242099D01*
X64102890Y-127210284D01*
X64102388Y-127210013D01*
X64054560Y-127185323D01*
X64015897Y-127167338D01*
X63994095Y-127159614D01*
X63993133Y-127159543D01*
X63976721Y-127167378D01*
X63940487Y-127189165D01*
X63888474Y-127222328D01*
X63824725Y-127264291D01*
X63754060Y-127311943D01*
X63682116Y-127360191D01*
X63617274Y-127402151D01*
X63563735Y-127435227D01*
X63525697Y-127456821D01*
X63507533Y-127464343D01*
X63490808Y-127454457D01*
X63457180Y-127426826D01*
X63410010Y-127384495D01*
X63352658Y-127330505D01*
X63288484Y-127267899D01*
X63267497Y-127246983D01*
X63050499Y-127029623D01*
X63215668Y-126787220D01*
X63265864Y-126712781D01*
X63309919Y-126645972D01*
X63345362Y-126590665D01*
X63369719Y-126550729D01*
X63380522Y-126530036D01*
X63380838Y-126528563D01*
X63375143Y-126509058D01*
X63359826Y-126469822D01*
X63337537Y-126417430D01*
X63321893Y-126382355D01*
X63292641Y-126315201D01*
X63265094Y-126247358D01*
X63243737Y-126190034D01*
X63237935Y-126172572D01*
X63221452Y-126125938D01*
X63205340Y-126089905D01*
X63196490Y-126076287D01*
X63176960Y-126067952D01*
X63134334Y-126056137D01*
X63074145Y-126042181D01*
X63001922Y-126027422D01*
X62969600Y-126021355D01*
X62887522Y-126006273D01*
X62808795Y-125991669D01*
X62741109Y-125978980D01*
X62692160Y-125969642D01*
X62682943Y-125967839D01*
X62606743Y-125952799D01*
X62606743Y-125635492D01*
X62606914Y-125531154D01*
X62607616Y-125452213D01*
X62609134Y-125395038D01*
X62611749Y-125355999D01*
X62615746Y-125331465D01*
X62621409Y-125317805D01*
X62629020Y-125311389D01*
X62632143Y-125310199D01*
X62650978Y-125305980D01*
X62692588Y-125297562D01*
X62751630Y-125285961D01*
X62822757Y-125272195D01*
X62900625Y-125257280D01*
X62979887Y-125242232D01*
X63055198Y-125228069D01*
X63121213Y-125215806D01*
X63172587Y-125206461D01*
X63203975Y-125201050D01*
X63210959Y-125200114D01*
X63217285Y-125187596D01*
X63231290Y-125154246D01*
X63250355Y-125106377D01*
X63257634Y-125087629D01*
X63286996Y-125015195D01*
X63321571Y-124935170D01*
X63352537Y-124867728D01*
X63375323Y-124816159D01*
X63390482Y-124773785D01*
X63395542Y-124747834D01*
X63394736Y-124744356D01*
X63384041Y-124727936D01*
X63359620Y-124691417D01*
X63324095Y-124638687D01*
X63280087Y-124573635D01*
X63230217Y-124500151D01*
X63220356Y-124485645D01*
X63162492Y-124399704D01*
X63119956Y-124334261D01*
X63091054Y-124286304D01*
X63074090Y-124252820D01*
X63067367Y-124230795D01*
X63069190Y-124217217D01*
X63069236Y-124217131D01*
X63083586Y-124199297D01*
X63115323Y-124164817D01*
X63161010Y-124117268D01*
X63217204Y-124060222D01*
X63280468Y-123997255D01*
X63287602Y-123990227D01*
X63367330Y-123913020D01*
X63428857Y-123856330D01*
X63473421Y-123819110D01*
X63502257Y-123800315D01*
X63514958Y-123797889D01*
X63533494Y-123808471D01*
X63571961Y-123832916D01*
X63626386Y-123868612D01*
X63692798Y-123912947D01*
X63767225Y-123963311D01*
X63784601Y-123975160D01*
X64031297Y-124143626D01*
X64142706Y-124093062D01*
X64210457Y-124063595D01*
X64283183Y-124033959D01*
X64345703Y-124010330D01*
X64348457Y-124009358D01*
X64397360Y-123991457D01*
X64435057Y-123976320D01*
X64453425Y-123967210D01*
X64453456Y-123967184D01*
X64459285Y-123950717D01*
X64469192Y-123910219D01*
X64482195Y-123850242D01*
X64497309Y-123775340D01*
X64513552Y-123690064D01*
X64514881Y-123682875D01*
X64531175Y-123595014D01*
X64546133Y-123515260D01*
X64558791Y-123448681D01*
X64568186Y-123400347D01*
X64573354Y-123375325D01*
X64573444Y-123374943D01*
X64576589Y-123364299D01*
X64582704Y-123356262D01*
X64595453Y-123350467D01*
X64618500Y-123346547D01*
X64655509Y-123344135D01*
X64710144Y-123342865D01*
X64786067Y-123342371D01*
X64886944Y-123342286D01*
X64900000Y-123342286D01*
X65003910Y-123342348D01*
G37*
X65003910Y-123342348D02*
X65082454Y-123342778D01*
X65139298Y-123343942D01*
X65178105Y-123346207D01*
X65202538Y-123349940D01*
X65216262Y-123355506D01*
X65222940Y-123363273D01*
X65226236Y-123373605D01*
X65226556Y-123374943D01*
X65231562Y-123399079D01*
X65240829Y-123446701D01*
X65253392Y-123512741D01*
X65268287Y-123592128D01*
X65284551Y-123679796D01*
X65285119Y-123682875D01*
X65301410Y-123768789D01*
X65316652Y-123844696D01*
X65329861Y-123906045D01*
X65340054Y-123948282D01*
X65346248Y-123966855D01*
X65346543Y-123967184D01*
X65364788Y-123976253D01*
X65402405Y-123991367D01*
X65451271Y-124009262D01*
X65451543Y-124009358D01*
X65513093Y-124032493D01*
X65585657Y-124061965D01*
X65654057Y-124091597D01*
X65657294Y-124093062D01*
X65768702Y-124143626D01*
X66015399Y-123975160D01*
X66091077Y-123923803D01*
X66159631Y-123877889D01*
X66217088Y-123840030D01*
X66259476Y-123812837D01*
X66282825Y-123798921D01*
X66285042Y-123797889D01*
X66302010Y-123802484D01*
X66333701Y-123824655D01*
X66381352Y-123865447D01*
X66446198Y-123925905D01*
X66512397Y-123990227D01*
X66576214Y-124053612D01*
X66633329Y-124111451D01*
X66680305Y-124160175D01*
X66713703Y-124196210D01*
X66730085Y-124215984D01*
X66730694Y-124217002D01*
X66732505Y-124230572D01*
X66725683Y-124252733D01*
X66708540Y-124286478D01*
X66679393Y-124334800D01*
X66636555Y-124400692D01*
X66579448Y-124485517D01*
X66528766Y-124560177D01*
X66483461Y-124627140D01*
X66446150Y-124682516D01*
X66419452Y-124722420D01*
X66405985Y-124742962D01*
X66405137Y-124744356D01*
X66406781Y-124764038D01*
X66419245Y-124802293D01*
X66440048Y-124851889D01*
X66447462Y-124867728D01*
X66479814Y-124938290D01*
X66514328Y-125018353D01*
X66542365Y-125087629D01*
X66562568Y-125139045D01*
X66578615Y-125178119D01*
X66587888Y-125198541D01*
X66589041Y-125200114D01*
X66606096Y-125202721D01*
X66646298Y-125209863D01*
X66704302Y-125220523D01*
X66774763Y-125233685D01*
X66852335Y-125248333D01*
X66931672Y-125263449D01*
X67007431Y-125278018D01*
X67074264Y-125291022D01*
X67126828Y-125301445D01*
X67159776Y-125308270D01*
X67167857Y-125310199D01*
X67176205Y-125314962D01*
X67182506Y-125325718D01*
X67187045Y-125346098D01*
X67190104Y-125379734D01*
X67191967Y-125430255D01*
X67192918Y-125501292D01*
X67193240Y-125596476D01*
X67193257Y-125635492D01*
X67193257Y-125952799D01*
X67117057Y-125967839D01*
X67074663Y-125975995D01*
X67011400Y-125987899D01*
X66934962Y-126002116D01*
X66853043Y-126017210D01*
X66830400Y-126021355D01*
X66754806Y-126036053D01*
X66688953Y-126050505D01*
X66638366Y-126063375D01*
X66608574Y-126073322D01*
X66603612Y-126076287D01*
X66591426Y-126097283D01*
X66573953Y-126137967D01*
X66554577Y-126190322D01*
X66550734Y-126201600D01*
X66525339Y-126271523D01*
X66493817Y-126350418D01*
X66462969Y-126421266D01*
X66462817Y-126421595D01*
X66411447Y-126532733D01*
X66580399Y-126781253D01*
X66749352Y-127029772D01*
X66532429Y-127247058D01*
X66466819Y-127311726D01*
X66406979Y-127368733D01*
X66356267Y-127415033D01*
X66318046Y-127447584D01*
X66295675Y-127463343D01*
X66292466Y-127464343D01*
X66273626Y-127456469D01*
X66235180Y-127434578D01*
X66181330Y-127401267D01*
X66116276Y-127359131D01*
X66045940Y-127311943D01*
X65974555Y-127263810D01*
X65910908Y-127221928D01*
X65859041Y-127188871D01*
X65822995Y-127167218D01*
X65806867Y-127159543D01*
X65787189Y-127166037D01*
X65749875Y-127183150D01*
X65702621Y-127207326D01*
X65697612Y-127210013D01*
X65633977Y-127241927D01*
X65590341Y-127257579D01*
X65563202Y-127257745D01*
X65549057Y-127243204D01*
X65548975Y-127243000D01*
X65541905Y-127225779D01*
X65525042Y-127184899D01*
X65499695Y-127123525D01*
X65467171Y-127044819D01*
X65428778Y-126951947D01*
X65385822Y-126848072D01*
X65344222Y-126747502D01*
X65298504Y-126636516D01*
X65256526Y-126533703D01*
X65219548Y-126442215D01*
X65188827Y-126365201D01*
X65165622Y-126305815D01*
X65151190Y-126267209D01*
X65146743Y-126252800D01*
X65157896Y-126236272D01*
X65187069Y-126209930D01*
X65225971Y-126180887D01*
X65336757Y-126089039D01*
X65423351Y-125983759D01*
X65484716Y-125867266D01*
X65519815Y-125741776D01*
X65527608Y-125609507D01*
X65521943Y-125548457D01*
X65491078Y-125421795D01*
X65437920Y-125309941D01*
X65365767Y-125214001D01*
X65277917Y-125135076D01*
X65177665Y-125074270D01*
X65068310Y-125032687D01*
X64953147Y-125011428D01*
X64835475Y-125011599D01*
X64718590Y-125034301D01*
X64605789Y-125080638D01*
X64500369Y-125151713D01*
X64456368Y-125191911D01*
X64371979Y-125295129D01*
X64313222Y-125407925D01*
X64279704Y-125527010D01*
X64271035Y-125649095D01*
X64286823Y-125770893D01*
X64326678Y-125889116D01*
X64390207Y-126000475D01*
X64477021Y-126101684D01*
X64574029Y-126180887D01*
X64614437Y-126211162D01*
X64642982Y-126237219D01*
X64653257Y-126252825D01*
X64647877Y-126269843D01*
X64632575Y-126310500D01*
X64608612Y-126371642D01*
X64577244Y-126450119D01*
X64539732Y-126542780D01*
X64497333Y-126646472D01*
X64455663Y-126747526D01*
X64409690Y-126858607D01*
X64367107Y-126961541D01*
X64329221Y-127053165D01*
X64297340Y-127130316D01*
X64272771Y-127189831D01*
X64256820Y-127228544D01*
X64250910Y-127243000D01*
X64236948Y-127257685D01*
X64209940Y-127257642D01*
X64166413Y-127242099D01*
X64102890Y-127210284D01*
X64102388Y-127210013D01*
X64054560Y-127185323D01*
X64015897Y-127167338D01*
X63994095Y-127159614D01*
X63993133Y-127159543D01*
X63976721Y-127167378D01*
X63940487Y-127189165D01*
X63888474Y-127222328D01*
X63824725Y-127264291D01*
X63754060Y-127311943D01*
X63682116Y-127360191D01*
X63617274Y-127402151D01*
X63563735Y-127435227D01*
X63525697Y-127456821D01*
X63507533Y-127464343D01*
X63490808Y-127454457D01*
X63457180Y-127426826D01*
X63410010Y-127384495D01*
X63352658Y-127330505D01*
X63288484Y-127267899D01*
X63267497Y-127246983D01*
X63050499Y-127029623D01*
X63215668Y-126787220D01*
X63265864Y-126712781D01*
X63309919Y-126645972D01*
X63345362Y-126590665D01*
X63369719Y-126550729D01*
X63380522Y-126530036D01*
X63380838Y-126528563D01*
X63375143Y-126509058D01*
X63359826Y-126469822D01*
X63337537Y-126417430D01*
X63321893Y-126382355D01*
X63292641Y-126315201D01*
X63265094Y-126247358D01*
X63243737Y-126190034D01*
X63237935Y-126172572D01*
X63221452Y-126125938D01*
X63205340Y-126089905D01*
X63196490Y-126076287D01*
X63176960Y-126067952D01*
X63134334Y-126056137D01*
X63074145Y-126042181D01*
X63001922Y-126027422D01*
X62969600Y-126021355D01*
X62887522Y-126006273D01*
X62808795Y-125991669D01*
X62741109Y-125978980D01*
X62692160Y-125969642D01*
X62682943Y-125967839D01*
X62606743Y-125952799D01*
X62606743Y-125635492D01*
X62606914Y-125531154D01*
X62607616Y-125452213D01*
X62609134Y-125395038D01*
X62611749Y-125355999D01*
X62615746Y-125331465D01*
X62621409Y-125317805D01*
X62629020Y-125311389D01*
X62632143Y-125310199D01*
X62650978Y-125305980D01*
X62692588Y-125297562D01*
X62751630Y-125285961D01*
X62822757Y-125272195D01*
X62900625Y-125257280D01*
X62979887Y-125242232D01*
X63055198Y-125228069D01*
X63121213Y-125215806D01*
X63172587Y-125206461D01*
X63203975Y-125201050D01*
X63210959Y-125200114D01*
X63217285Y-125187596D01*
X63231290Y-125154246D01*
X63250355Y-125106377D01*
X63257634Y-125087629D01*
X63286996Y-125015195D01*
X63321571Y-124935170D01*
X63352537Y-124867728D01*
X63375323Y-124816159D01*
X63390482Y-124773785D01*
X63395542Y-124747834D01*
X63394736Y-124744356D01*
X63384041Y-124727936D01*
X63359620Y-124691417D01*
X63324095Y-124638687D01*
X63280087Y-124573635D01*
X63230217Y-124500151D01*
X63220356Y-124485645D01*
X63162492Y-124399704D01*
X63119956Y-124334261D01*
X63091054Y-124286304D01*
X63074090Y-124252820D01*
X63067367Y-124230795D01*
X63069190Y-124217217D01*
X63069236Y-124217131D01*
X63083586Y-124199297D01*
X63115323Y-124164817D01*
X63161010Y-124117268D01*
X63217204Y-124060222D01*
X63280468Y-123997255D01*
X63287602Y-123990227D01*
X63367330Y-123913020D01*
X63428857Y-123856330D01*
X63473421Y-123819110D01*
X63502257Y-123800315D01*
X63514958Y-123797889D01*
X63533494Y-123808471D01*
X63571961Y-123832916D01*
X63626386Y-123868612D01*
X63692798Y-123912947D01*
X63767225Y-123963311D01*
X63784601Y-123975160D01*
X64031297Y-124143626D01*
X64142706Y-124093062D01*
X64210457Y-124063595D01*
X64283183Y-124033959D01*
X64345703Y-124010330D01*
X64348457Y-124009358D01*
X64397360Y-123991457D01*
X64435057Y-123976320D01*
X64453425Y-123967210D01*
X64453456Y-123967184D01*
X64459285Y-123950717D01*
X64469192Y-123910219D01*
X64482195Y-123850242D01*
X64497309Y-123775340D01*
X64513552Y-123690064D01*
X64514881Y-123682875D01*
X64531175Y-123595014D01*
X64546133Y-123515260D01*
X64558791Y-123448681D01*
X64568186Y-123400347D01*
X64573354Y-123375325D01*
X64573444Y-123374943D01*
X64576589Y-123364299D01*
X64582704Y-123356262D01*
X64595453Y-123350467D01*
X64618500Y-123346547D01*
X64655509Y-123344135D01*
X64710144Y-123342865D01*
X64786067Y-123342371D01*
X64886944Y-123342286D01*
X64900000Y-123342286D01*
X65003910Y-123342348D01*
G36*
X68053595Y-128066966D02*
G01*
X68111021Y-128104497D01*
X68138719Y-128138096D01*
X68160662Y-128199064D01*
X68162405Y-128247308D01*
X68158457Y-128311816D01*
X68009686Y-128376934D01*
X67937349Y-128410202D01*
X67890084Y-128436964D01*
X67865507Y-128460144D01*
X67861237Y-128482667D01*
X67874889Y-128507455D01*
X67889943Y-128523886D01*
X67933746Y-128550235D01*
X67981389Y-128552081D01*
X68025145Y-128531546D01*
X68057289Y-128490752D01*
X68063038Y-128476347D01*
X68090576Y-128431356D01*
X68122258Y-128412182D01*
X68165714Y-128395779D01*
X68165714Y-128457966D01*
X68161872Y-128500283D01*
X68146823Y-128535969D01*
X68115280Y-128576943D01*
X68110592Y-128582267D01*
X68075506Y-128618720D01*
X68045347Y-128638283D01*
X68007615Y-128647283D01*
X67976335Y-128650230D01*
X67920385Y-128650965D01*
X67880555Y-128641660D01*
X67855708Y-128627846D01*
X67816656Y-128597467D01*
X67789625Y-128564613D01*
X67772517Y-128523294D01*
X67763238Y-128467521D01*
X67759693Y-128391305D01*
X67759410Y-128352622D01*
X67760372Y-128306247D01*
X67848007Y-128306247D01*
X67849023Y-128331126D01*
X67851556Y-128335200D01*
X67868274Y-128329665D01*
X67904249Y-128315017D01*
X67952331Y-128294190D01*
X67962386Y-128289714D01*
X68023152Y-128258814D01*
X68056632Y-128231657D01*
X68063990Y-128206220D01*
X68046391Y-128180481D01*
X68031856Y-128169109D01*
X67979410Y-128146364D01*
X67930322Y-128150122D01*
X67889227Y-128177884D01*
X67860758Y-128227152D01*
X67851631Y-128266257D01*
X67848007Y-128306247D01*
X67760372Y-128306247D01*
X67761285Y-128262249D01*
X67768196Y-128195384D01*
X67781884Y-128146695D01*
X67804096Y-128110849D01*
X67836574Y-128082513D01*
X67850733Y-128073355D01*
X67915053Y-128049507D01*
X67985473Y-128048006D01*
X68053595Y-128066966D01*
G37*
X68053595Y-128066966D02*
X68111021Y-128104497D01*
X68138719Y-128138096D01*
X68160662Y-128199064D01*
X68162405Y-128247308D01*
X68158457Y-128311816D01*
X68009686Y-128376934D01*
X67937349Y-128410202D01*
X67890084Y-128436964D01*
X67865507Y-128460144D01*
X67861237Y-128482667D01*
X67874889Y-128507455D01*
X67889943Y-128523886D01*
X67933746Y-128550235D01*
X67981389Y-128552081D01*
X68025145Y-128531546D01*
X68057289Y-128490752D01*
X68063038Y-128476347D01*
X68090576Y-128431356D01*
X68122258Y-128412182D01*
X68165714Y-128395779D01*
X68165714Y-128457966D01*
X68161872Y-128500283D01*
X68146823Y-128535969D01*
X68115280Y-128576943D01*
X68110592Y-128582267D01*
X68075506Y-128618720D01*
X68045347Y-128638283D01*
X68007615Y-128647283D01*
X67976335Y-128650230D01*
X67920385Y-128650965D01*
X67880555Y-128641660D01*
X67855708Y-128627846D01*
X67816656Y-128597467D01*
X67789625Y-128564613D01*
X67772517Y-128523294D01*
X67763238Y-128467521D01*
X67759693Y-128391305D01*
X67759410Y-128352622D01*
X67760372Y-128306247D01*
X67848007Y-128306247D01*
X67849023Y-128331126D01*
X67851556Y-128335200D01*
X67868274Y-128329665D01*
X67904249Y-128315017D01*
X67952331Y-128294190D01*
X67962386Y-128289714D01*
X68023152Y-128258814D01*
X68056632Y-128231657D01*
X68063990Y-128206220D01*
X68046391Y-128180481D01*
X68031856Y-128169109D01*
X67979410Y-128146364D01*
X67930322Y-128150122D01*
X67889227Y-128177884D01*
X67860758Y-128227152D01*
X67851631Y-128266257D01*
X67848007Y-128306247D01*
X67760372Y-128306247D01*
X67761285Y-128262249D01*
X67768196Y-128195384D01*
X67781884Y-128146695D01*
X67804096Y-128110849D01*
X67836574Y-128082513D01*
X67850733Y-128073355D01*
X67915053Y-128049507D01*
X67985473Y-128048006D01*
X68053595Y-128066966D01*
G36*
X67552600Y-128058752D02*
G01*
X67569948Y-128066334D01*
X67611356Y-128099128D01*
X67646765Y-128146547D01*
X67668664Y-128197151D01*
X67672229Y-128222098D01*
X67660279Y-128256927D01*
X67634067Y-128275357D01*
X67605964Y-128286516D01*
X67593095Y-128288572D01*
X67586829Y-128273649D01*
X67574456Y-128241175D01*
X67569028Y-128226502D01*
X67538590Y-128175744D01*
X67494520Y-128150427D01*
X67438010Y-128151206D01*
X67433825Y-128152203D01*
X67403655Y-128166507D01*
X67381476Y-128194393D01*
X67366327Y-128239287D01*
X67357250Y-128304615D01*
X67353286Y-128393804D01*
X67352914Y-128441261D01*
X67352730Y-128516071D01*
X67351522Y-128567069D01*
X67348309Y-128599471D01*
X67342109Y-128618495D01*
X67331940Y-128629356D01*
X67316819Y-128637272D01*
X67315946Y-128637670D01*
X67286828Y-128649981D01*
X67272403Y-128654514D01*
X67270186Y-128640809D01*
X67268289Y-128602925D01*
X67266847Y-128545715D01*
X67265998Y-128474027D01*
X67265829Y-128421565D01*
X67266692Y-128320047D01*
X67270070Y-128243032D01*
X67277142Y-128186023D01*
X67289088Y-128144526D01*
X67307090Y-128114043D01*
X67332327Y-128090080D01*
X67357247Y-128073355D01*
X67417171Y-128051097D01*
X67486911Y-128046076D01*
X67552600Y-128058752D01*
G37*
X67552600Y-128058752D02*
X67569948Y-128066334D01*
X67611356Y-128099128D01*
X67646765Y-128146547D01*
X67668664Y-128197151D01*
X67672229Y-128222098D01*
X67660279Y-128256927D01*
X67634067Y-128275357D01*
X67605964Y-128286516D01*
X67593095Y-128288572D01*
X67586829Y-128273649D01*
X67574456Y-128241175D01*
X67569028Y-128226502D01*
X67538590Y-128175744D01*
X67494520Y-128150427D01*
X67438010Y-128151206D01*
X67433825Y-128152203D01*
X67403655Y-128166507D01*
X67381476Y-128194393D01*
X67366327Y-128239287D01*
X67357250Y-128304615D01*
X67353286Y-128393804D01*
X67352914Y-128441261D01*
X67352730Y-128516071D01*
X67351522Y-128567069D01*
X67348309Y-128599471D01*
X67342109Y-128618495D01*
X67331940Y-128629356D01*
X67316819Y-128637272D01*
X67315946Y-128637670D01*
X67286828Y-128649981D01*
X67272403Y-128654514D01*
X67270186Y-128640809D01*
X67268289Y-128602925D01*
X67266847Y-128545715D01*
X67265998Y-128474027D01*
X67265829Y-128421565D01*
X67266692Y-128320047D01*
X67270070Y-128243032D01*
X67277142Y-128186023D01*
X67289088Y-128144526D01*
X67307090Y-128114043D01*
X67332327Y-128090080D01*
X67357247Y-128073355D01*
X67417171Y-128051097D01*
X67486911Y-128046076D01*
X67552600Y-128058752D01*
G36*
X67044876Y-128056335D02*
G01*
X67086667Y-128075344D01*
X67119469Y-128098378D01*
X67143503Y-128124133D01*
X67160097Y-128157358D01*
X67170577Y-128202800D01*
X67176271Y-128265207D01*
X67178507Y-128349327D01*
X67178743Y-128404721D01*
X67178743Y-128620826D01*
X67141774Y-128637670D01*
X67112656Y-128649981D01*
X67098231Y-128654514D01*
X67095472Y-128641025D01*
X67093282Y-128604653D01*
X67091942Y-128551542D01*
X67091657Y-128509372D01*
X67090434Y-128448447D01*
X67087136Y-128400115D01*
X67082321Y-128370518D01*
X67078496Y-128364229D01*
X67052783Y-128370652D01*
X67012418Y-128387125D01*
X66965679Y-128409458D01*
X66920845Y-128433457D01*
X66886193Y-128454930D01*
X66870002Y-128469685D01*
X66869938Y-128469845D01*
X66871330Y-128497152D01*
X66883818Y-128523219D01*
X66905743Y-128544392D01*
X66937743Y-128551474D01*
X66965092Y-128550649D01*
X67003826Y-128550042D01*
X67024158Y-128559116D01*
X67036369Y-128583092D01*
X67037909Y-128587613D01*
X67043203Y-128621806D01*
X67029047Y-128642568D01*
X66992148Y-128652462D01*
X66952289Y-128654292D01*
X66880562Y-128640727D01*
X66843432Y-128621355D01*
X66797576Y-128575845D01*
X66773256Y-128519983D01*
X66771073Y-128460957D01*
X66791629Y-128405953D01*
X66822549Y-128371486D01*
X66853420Y-128352189D01*
X66901942Y-128327759D01*
X66958485Y-128302985D01*
X66967910Y-128299199D01*
X67030019Y-128271791D01*
X67065822Y-128247634D01*
X67077337Y-128223619D01*
X67066580Y-128196635D01*
X67048114Y-128175543D01*
X67004469Y-128149572D01*
X66956446Y-128147624D01*
X66912406Y-128167637D01*
X66880709Y-128207551D01*
X66876549Y-128217848D01*
X66852327Y-128255724D01*
X66816965Y-128283842D01*
X66772343Y-128306917D01*
X66772343Y-128241485D01*
X66774969Y-128201506D01*
X66786230Y-128169997D01*
X66811199Y-128136378D01*
X66835169Y-128110484D01*
X66872441Y-128073817D01*
X66901401Y-128054121D01*
X66932505Y-128046220D01*
X66967713Y-128044914D01*
X67044876Y-128056335D01*
G37*
X67044876Y-128056335D02*
X67086667Y-128075344D01*
X67119469Y-128098378D01*
X67143503Y-128124133D01*
X67160097Y-128157358D01*
X67170577Y-128202800D01*
X67176271Y-128265207D01*
X67178507Y-128349327D01*
X67178743Y-128404721D01*
X67178743Y-128620826D01*
X67141774Y-128637670D01*
X67112656Y-128649981D01*
X67098231Y-128654514D01*
X67095472Y-128641025D01*
X67093282Y-128604653D01*
X67091942Y-128551542D01*
X67091657Y-128509372D01*
X67090434Y-128448447D01*
X67087136Y-128400115D01*
X67082321Y-128370518D01*
X67078496Y-128364229D01*
X67052783Y-128370652D01*
X67012418Y-128387125D01*
X66965679Y-128409458D01*
X66920845Y-128433457D01*
X66886193Y-128454930D01*
X66870002Y-128469685D01*
X66869938Y-128469845D01*
X66871330Y-128497152D01*
X66883818Y-128523219D01*
X66905743Y-128544392D01*
X66937743Y-128551474D01*
X66965092Y-128550649D01*
X67003826Y-128550042D01*
X67024158Y-128559116D01*
X67036369Y-128583092D01*
X67037909Y-128587613D01*
X67043203Y-128621806D01*
X67029047Y-128642568D01*
X66992148Y-128652462D01*
X66952289Y-128654292D01*
X66880562Y-128640727D01*
X66843432Y-128621355D01*
X66797576Y-128575845D01*
X66773256Y-128519983D01*
X66771073Y-128460957D01*
X66791629Y-128405953D01*
X66822549Y-128371486D01*
X66853420Y-128352189D01*
X66901942Y-128327759D01*
X66958485Y-128302985D01*
X66967910Y-128299199D01*
X67030019Y-128271791D01*
X67065822Y-128247634D01*
X67077337Y-128223619D01*
X67066580Y-128196635D01*
X67048114Y-128175543D01*
X67004469Y-128149572D01*
X66956446Y-128147624D01*
X66912406Y-128167637D01*
X66880709Y-128207551D01*
X66876549Y-128217848D01*
X66852327Y-128255724D01*
X66816965Y-128283842D01*
X66772343Y-128306917D01*
X66772343Y-128241485D01*
X66774969Y-128201506D01*
X66786230Y-128169997D01*
X66811199Y-128136378D01*
X66835169Y-128110484D01*
X66872441Y-128073817D01*
X66901401Y-128054121D01*
X66932505Y-128046220D01*
X66967713Y-128044914D01*
X67044876Y-128056335D01*
G36*
X66679833Y-128058663D02*
G01*
X66682048Y-128096850D01*
X66683784Y-128154886D01*
X66684899Y-128228180D01*
X66685257Y-128305055D01*
X66685257Y-128565196D01*
X66639326Y-128611127D01*
X66607675Y-128639429D01*
X66579890Y-128650893D01*
X66541915Y-128650168D01*
X66526840Y-128648321D01*
X66479726Y-128642948D01*
X66440756Y-128639869D01*
X66431257Y-128639585D01*
X66399233Y-128641445D01*
X66353432Y-128646114D01*
X66335674Y-128648321D01*
X66292057Y-128651735D01*
X66262745Y-128644320D01*
X66233680Y-128621427D01*
X66223188Y-128611127D01*
X66177257Y-128565196D01*
X66177257Y-128078602D01*
X66214226Y-128061758D01*
X66246059Y-128049282D01*
X66264683Y-128044914D01*
X66269458Y-128058718D01*
X66273921Y-128097286D01*
X66277775Y-128156356D01*
X66280722Y-128231663D01*
X66282143Y-128295286D01*
X66286114Y-128545657D01*
X66320759Y-128550556D01*
X66352268Y-128547131D01*
X66367708Y-128536041D01*
X66372023Y-128515308D01*
X66375708Y-128471145D01*
X66378469Y-128409146D01*
X66380012Y-128334909D01*
X66380235Y-128296706D01*
X66380457Y-128076783D01*
X66426166Y-128060849D01*
X66458518Y-128050015D01*
X66476115Y-128044962D01*
X66476623Y-128044914D01*
X66478388Y-128058648D01*
X66480329Y-128096730D01*
X66482282Y-128154482D01*
X66484084Y-128227227D01*
X66485343Y-128295286D01*
X66489314Y-128545657D01*
X66576400Y-128545657D01*
X66580396Y-128317240D01*
X66584392Y-128088822D01*
X66626847Y-128066868D01*
X66658192Y-128051793D01*
X66676744Y-128044951D01*
X66677279Y-128044914D01*
X66679833Y-128058663D01*
G37*
X66679833Y-128058663D02*
X66682048Y-128096850D01*
X66683784Y-128154886D01*
X66684899Y-128228180D01*
X66685257Y-128305055D01*
X66685257Y-128565196D01*
X66639326Y-128611127D01*
X66607675Y-128639429D01*
X66579890Y-128650893D01*
X66541915Y-128650168D01*
X66526840Y-128648321D01*
X66479726Y-128642948D01*
X66440756Y-128639869D01*
X66431257Y-128639585D01*
X66399233Y-128641445D01*
X66353432Y-128646114D01*
X66335674Y-128648321D01*
X66292057Y-128651735D01*
X66262745Y-128644320D01*
X66233680Y-128621427D01*
X66223188Y-128611127D01*
X66177257Y-128565196D01*
X66177257Y-128078602D01*
X66214226Y-128061758D01*
X66246059Y-128049282D01*
X66264683Y-128044914D01*
X66269458Y-128058718D01*
X66273921Y-128097286D01*
X66277775Y-128156356D01*
X66280722Y-128231663D01*
X66282143Y-128295286D01*
X66286114Y-128545657D01*
X66320759Y-128550556D01*
X66352268Y-128547131D01*
X66367708Y-128536041D01*
X66372023Y-128515308D01*
X66375708Y-128471145D01*
X66378469Y-128409146D01*
X66380012Y-128334909D01*
X66380235Y-128296706D01*
X66380457Y-128076783D01*
X66426166Y-128060849D01*
X66458518Y-128050015D01*
X66476115Y-128044962D01*
X66476623Y-128044914D01*
X66478388Y-128058648D01*
X66480329Y-128096730D01*
X66482282Y-128154482D01*
X66484084Y-128227227D01*
X66485343Y-128295286D01*
X66489314Y-128545657D01*
X66576400Y-128545657D01*
X66580396Y-128317240D01*
X66584392Y-128088822D01*
X66626847Y-128066868D01*
X66658192Y-128051793D01*
X66676744Y-128044951D01*
X66677279Y-128044914D01*
X66679833Y-128058663D01*
G36*
X66090117Y-128165358D02*
G01*
X66089933Y-128273837D01*
X66089219Y-128357287D01*
X66087675Y-128419704D01*
X66085001Y-128465085D01*
X66080894Y-128497429D01*
X66075055Y-128520733D01*
X66067182Y-128538995D01*
X66061221Y-128549418D01*
X66011855Y-128605945D01*
X65949264Y-128641377D01*
X65880013Y-128654090D01*
X65810668Y-128642463D01*
X65769375Y-128621568D01*
X65726025Y-128585422D01*
X65696481Y-128541276D01*
X65678655Y-128483462D01*
X65670463Y-128406313D01*
X65669302Y-128349714D01*
X65669458Y-128345647D01*
X65770857Y-128345647D01*
X65771476Y-128410550D01*
X65774314Y-128453514D01*
X65780840Y-128481622D01*
X65792523Y-128501953D01*
X65806483Y-128517288D01*
X65853365Y-128546890D01*
X65903701Y-128549419D01*
X65951276Y-128524705D01*
X65954979Y-128521356D01*
X65970783Y-128503935D01*
X65980693Y-128483209D01*
X65986058Y-128452362D01*
X65988228Y-128404577D01*
X65988571Y-128351748D01*
X65987827Y-128285381D01*
X65984748Y-128241106D01*
X65978061Y-128212009D01*
X65966496Y-128191173D01*
X65957013Y-128180107D01*
X65912960Y-128152198D01*
X65862224Y-128148843D01*
X65813796Y-128170159D01*
X65804450Y-128178073D01*
X65788540Y-128195647D01*
X65778610Y-128216587D01*
X65773278Y-128247782D01*
X65771163Y-128296122D01*
X65770857Y-128345647D01*
X65669458Y-128345647D01*
X65672810Y-128258568D01*
X65684726Y-128190086D01*
X65707135Y-128138600D01*
X65742124Y-128098443D01*
X65769375Y-128077861D01*
X65818907Y-128055625D01*
X65876316Y-128045304D01*
X65929682Y-128048067D01*
X65959543Y-128059212D01*
X65971261Y-128062383D01*
X65979037Y-128050557D01*
X65984465Y-128018866D01*
X65988571Y-127970593D01*
X65993067Y-127916829D01*
X65999313Y-127884482D01*
X66010676Y-127865985D01*
X66030528Y-127853770D01*
X66043000Y-127848362D01*
X66090171Y-127828601D01*
X66090117Y-128165358D01*
G37*
X66090117Y-128165358D02*
X66089933Y-128273837D01*
X66089219Y-128357287D01*
X66087675Y-128419704D01*
X66085001Y-128465085D01*
X66080894Y-128497429D01*
X66075055Y-128520733D01*
X66067182Y-128538995D01*
X66061221Y-128549418D01*
X66011855Y-128605945D01*
X65949264Y-128641377D01*
X65880013Y-128654090D01*
X65810668Y-128642463D01*
X65769375Y-128621568D01*
X65726025Y-128585422D01*
X65696481Y-128541276D01*
X65678655Y-128483462D01*
X65670463Y-128406313D01*
X65669302Y-128349714D01*
X65669458Y-128345647D01*
X65770857Y-128345647D01*
X65771476Y-128410550D01*
X65774314Y-128453514D01*
X65780840Y-128481622D01*
X65792523Y-128501953D01*
X65806483Y-128517288D01*
X65853365Y-128546890D01*
X65903701Y-128549419D01*
X65951276Y-128524705D01*
X65954979Y-128521356D01*
X65970783Y-128503935D01*
X65980693Y-128483209D01*
X65986058Y-128452362D01*
X65988228Y-128404577D01*
X65988571Y-128351748D01*
X65987827Y-128285381D01*
X65984748Y-128241106D01*
X65978061Y-128212009D01*
X65966496Y-128191173D01*
X65957013Y-128180107D01*
X65912960Y-128152198D01*
X65862224Y-128148843D01*
X65813796Y-128170159D01*
X65804450Y-128178073D01*
X65788540Y-128195647D01*
X65778610Y-128216587D01*
X65773278Y-128247782D01*
X65771163Y-128296122D01*
X65770857Y-128345647D01*
X65669458Y-128345647D01*
X65672810Y-128258568D01*
X65684726Y-128190086D01*
X65707135Y-128138600D01*
X65742124Y-128098443D01*
X65769375Y-128077861D01*
X65818907Y-128055625D01*
X65876316Y-128045304D01*
X65929682Y-128048067D01*
X65959543Y-128059212D01*
X65971261Y-128062383D01*
X65979037Y-128050557D01*
X65984465Y-128018866D01*
X65988571Y-127970593D01*
X65993067Y-127916829D01*
X65999313Y-127884482D01*
X66010676Y-127865985D01*
X66030528Y-127853770D01*
X66043000Y-127848362D01*
X66090171Y-127828601D01*
X66090117Y-128165358D01*
G36*
X65429926Y-128049755D02*
G01*
X65495858Y-128074084D01*
X65549273Y-128117117D01*
X65570164Y-128147409D01*
X65592939Y-128202994D01*
X65592466Y-128243186D01*
X65568562Y-128270217D01*
X65559717Y-128274813D01*
X65521530Y-128289144D01*
X65502028Y-128285472D01*
X65495422Y-128261407D01*
X65495086Y-128248114D01*
X65482992Y-128199210D01*
X65451471Y-128164999D01*
X65407659Y-128148476D01*
X65358695Y-128152634D01*
X65318894Y-128174227D01*
X65305450Y-128186544D01*
X65295921Y-128201487D01*
X65289485Y-128224075D01*
X65285317Y-128259328D01*
X65282597Y-128312266D01*
X65280502Y-128387907D01*
X65279960Y-128411857D01*
X65277981Y-128493790D01*
X65275731Y-128551455D01*
X65272357Y-128589608D01*
X65267006Y-128613004D01*
X65258824Y-128626398D01*
X65246959Y-128634545D01*
X65239362Y-128638144D01*
X65207102Y-128650452D01*
X65188111Y-128654514D01*
X65181836Y-128640948D01*
X65178006Y-128599934D01*
X65176600Y-128530999D01*
X65177598Y-128433669D01*
X65177908Y-128418657D01*
X65180101Y-128329859D01*
X65182693Y-128265019D01*
X65186382Y-128219067D01*
X65191864Y-128186935D01*
X65199835Y-128163553D01*
X65210993Y-128143852D01*
X65216830Y-128135410D01*
X65250296Y-128098057D01*
X65287727Y-128069003D01*
X65292309Y-128066467D01*
X65359426Y-128046443D01*
X65429926Y-128049755D01*
G37*
X65429926Y-128049755D02*
X65495858Y-128074084D01*
X65549273Y-128117117D01*
X65570164Y-128147409D01*
X65592939Y-128202994D01*
X65592466Y-128243186D01*
X65568562Y-128270217D01*
X65559717Y-128274813D01*
X65521530Y-128289144D01*
X65502028Y-128285472D01*
X65495422Y-128261407D01*
X65495086Y-128248114D01*
X65482992Y-128199210D01*
X65451471Y-128164999D01*
X65407659Y-128148476D01*
X65358695Y-128152634D01*
X65318894Y-128174227D01*
X65305450Y-128186544D01*
X65295921Y-128201487D01*
X65289485Y-128224075D01*
X65285317Y-128259328D01*
X65282597Y-128312266D01*
X65280502Y-128387907D01*
X65279960Y-128411857D01*
X65277981Y-128493790D01*
X65275731Y-128551455D01*
X65272357Y-128589608D01*
X65267006Y-128613004D01*
X65258824Y-128626398D01*
X65246959Y-128634545D01*
X65239362Y-128638144D01*
X65207102Y-128650452D01*
X65188111Y-128654514D01*
X65181836Y-128640948D01*
X65178006Y-128599934D01*
X65176600Y-128530999D01*
X65177598Y-128433669D01*
X65177908Y-128418657D01*
X65180101Y-128329859D01*
X65182693Y-128265019D01*
X65186382Y-128219067D01*
X65191864Y-128186935D01*
X65199835Y-128163553D01*
X65210993Y-128143852D01*
X65216830Y-128135410D01*
X65250296Y-128098057D01*
X65287727Y-128069003D01*
X65292309Y-128066467D01*
X65359426Y-128046443D01*
X65429926Y-128049755D01*
G36*
X64939744Y-128050968D02*
G01*
X64996616Y-128072087D01*
X64997267Y-128072493D01*
X65032440Y-128098380D01*
X65058407Y-128128633D01*
X65076670Y-128168058D01*
X65088732Y-128221462D01*
X65096096Y-128293651D01*
X65100264Y-128389432D01*
X65100629Y-128403078D01*
X65105876Y-128608842D01*
X65061716Y-128631678D01*
X65029763Y-128647110D01*
X65010470Y-128654423D01*
X65009578Y-128654514D01*
X65006239Y-128641022D01*
X65003587Y-128604626D01*
X65001956Y-128551452D01*
X65001600Y-128508393D01*
X65001592Y-128438641D01*
X64998403Y-128394837D01*
X64987288Y-128373944D01*
X64963501Y-128372925D01*
X64922296Y-128388741D01*
X64860086Y-128417815D01*
X64814341Y-128441963D01*
X64790813Y-128462913D01*
X64783896Y-128485747D01*
X64783886Y-128486877D01*
X64795299Y-128526212D01*
X64829092Y-128547462D01*
X64880809Y-128550539D01*
X64918061Y-128550006D01*
X64937703Y-128560735D01*
X64949952Y-128586505D01*
X64957002Y-128619337D01*
X64946842Y-128637966D01*
X64943017Y-128640632D01*
X64907001Y-128651340D01*
X64856566Y-128652856D01*
X64804626Y-128645759D01*
X64767822Y-128632788D01*
X64716938Y-128589585D01*
X64688014Y-128529446D01*
X64682286Y-128482462D01*
X64686657Y-128440082D01*
X64702475Y-128405488D01*
X64733797Y-128374763D01*
X64784678Y-128343990D01*
X64859176Y-128309252D01*
X64863714Y-128307288D01*
X64930821Y-128276287D01*
X64972232Y-128250862D01*
X64989981Y-128228014D01*
X64986107Y-128204745D01*
X64962643Y-128178056D01*
X64955627Y-128171914D01*
X64908630Y-128148100D01*
X64859933Y-128149103D01*
X64817522Y-128172451D01*
X64789384Y-128215675D01*
X64786769Y-128224160D01*
X64761308Y-128265308D01*
X64729001Y-128285128D01*
X64682286Y-128304770D01*
X64682286Y-128253950D01*
X64696496Y-128180082D01*
X64738675Y-128112327D01*
X64760624Y-128089661D01*
X64810517Y-128060569D01*
X64873967Y-128047400D01*
X64939744Y-128050968D01*
G37*
X64939744Y-128050968D02*
X64996616Y-128072087D01*
X64997267Y-128072493D01*
X65032440Y-128098380D01*
X65058407Y-128128633D01*
X65076670Y-128168058D01*
X65088732Y-128221462D01*
X65096096Y-128293651D01*
X65100264Y-128389432D01*
X65100629Y-128403078D01*
X65105876Y-128608842D01*
X65061716Y-128631678D01*
X65029763Y-128647110D01*
X65010470Y-128654423D01*
X65009578Y-128654514D01*
X65006239Y-128641022D01*
X65003587Y-128604626D01*
X65001956Y-128551452D01*
X65001600Y-128508393D01*
X65001592Y-128438641D01*
X64998403Y-128394837D01*
X64987288Y-128373944D01*
X64963501Y-128372925D01*
X64922296Y-128388741D01*
X64860086Y-128417815D01*
X64814341Y-128441963D01*
X64790813Y-128462913D01*
X64783896Y-128485747D01*
X64783886Y-128486877D01*
X64795299Y-128526212D01*
X64829092Y-128547462D01*
X64880809Y-128550539D01*
X64918061Y-128550006D01*
X64937703Y-128560735D01*
X64949952Y-128586505D01*
X64957002Y-128619337D01*
X64946842Y-128637966D01*
X64943017Y-128640632D01*
X64907001Y-128651340D01*
X64856566Y-128652856D01*
X64804626Y-128645759D01*
X64767822Y-128632788D01*
X64716938Y-128589585D01*
X64688014Y-128529446D01*
X64682286Y-128482462D01*
X64686657Y-128440082D01*
X64702475Y-128405488D01*
X64733797Y-128374763D01*
X64784678Y-128343990D01*
X64859176Y-128309252D01*
X64863714Y-128307288D01*
X64930821Y-128276287D01*
X64972232Y-128250862D01*
X64989981Y-128228014D01*
X64986107Y-128204745D01*
X64962643Y-128178056D01*
X64955627Y-128171914D01*
X64908630Y-128148100D01*
X64859933Y-128149103D01*
X64817522Y-128172451D01*
X64789384Y-128215675D01*
X64786769Y-128224160D01*
X64761308Y-128265308D01*
X64729001Y-128285128D01*
X64682286Y-128304770D01*
X64682286Y-128253950D01*
X64696496Y-128180082D01*
X64738675Y-128112327D01*
X64760624Y-128089661D01*
X64810517Y-128060569D01*
X64873967Y-128047400D01*
X64939744Y-128050968D01*
G36*
X64275886Y-127951289D02*
G01*
X64280139Y-128010613D01*
X64285025Y-128045572D01*
X64291795Y-128060820D01*
X64301702Y-128061015D01*
X64304914Y-128059195D01*
X64347644Y-128046015D01*
X64403227Y-128046785D01*
X64459737Y-128060333D01*
X64495082Y-128077861D01*
X64531321Y-128105861D01*
X64557813Y-128137549D01*
X64575999Y-128177813D01*
X64587322Y-128231543D01*
X64593222Y-128303626D01*
X64595143Y-128398951D01*
X64595177Y-128417237D01*
X64595200Y-128622646D01*
X64549491Y-128638580D01*
X64517027Y-128649420D01*
X64499215Y-128654468D01*
X64498691Y-128654514D01*
X64496937Y-128640828D01*
X64495444Y-128603076D01*
X64494326Y-128546224D01*
X64493697Y-128475234D01*
X64493600Y-128432073D01*
X64493398Y-128346973D01*
X64492358Y-128285981D01*
X64489831Y-128244177D01*
X64485164Y-128216642D01*
X64477707Y-128198456D01*
X64466811Y-128184698D01*
X64460007Y-128178073D01*
X64413272Y-128151375D01*
X64362272Y-128149375D01*
X64316001Y-128171955D01*
X64307444Y-128180107D01*
X64294893Y-128195436D01*
X64286188Y-128213618D01*
X64280631Y-128239909D01*
X64277526Y-128279562D01*
X64276176Y-128337832D01*
X64275886Y-128418173D01*
X64275886Y-128622646D01*
X64230177Y-128638580D01*
X64197713Y-128649420D01*
X64179901Y-128654468D01*
X64179377Y-128654514D01*
X64178037Y-128640623D01*
X64176828Y-128601439D01*
X64175801Y-128540700D01*
X64175002Y-128462141D01*
X64174481Y-128369498D01*
X64174286Y-128266509D01*
X64174286Y-127869342D01*
X64221457Y-127849444D01*
X64268629Y-127829547D01*
X64275886Y-127951289D01*
G37*
X64275886Y-127951289D02*
X64280139Y-128010613D01*
X64285025Y-128045572D01*
X64291795Y-128060820D01*
X64301702Y-128061015D01*
X64304914Y-128059195D01*
X64347644Y-128046015D01*
X64403227Y-128046785D01*
X64459737Y-128060333D01*
X64495082Y-128077861D01*
X64531321Y-128105861D01*
X64557813Y-128137549D01*
X64575999Y-128177813D01*
X64587322Y-128231543D01*
X64593222Y-128303626D01*
X64595143Y-128398951D01*
X64595177Y-128417237D01*
X64595200Y-128622646D01*
X64549491Y-128638580D01*
X64517027Y-128649420D01*
X64499215Y-128654468D01*
X64498691Y-128654514D01*
X64496937Y-128640828D01*
X64495444Y-128603076D01*
X64494326Y-128546224D01*
X64493697Y-128475234D01*
X64493600Y-128432073D01*
X64493398Y-128346973D01*
X64492358Y-128285981D01*
X64489831Y-128244177D01*
X64485164Y-128216642D01*
X64477707Y-128198456D01*
X64466811Y-128184698D01*
X64460007Y-128178073D01*
X64413272Y-128151375D01*
X64362272Y-128149375D01*
X64316001Y-128171955D01*
X64307444Y-128180107D01*
X64294893Y-128195436D01*
X64286188Y-128213618D01*
X64280631Y-128239909D01*
X64277526Y-128279562D01*
X64276176Y-128337832D01*
X64275886Y-128418173D01*
X64275886Y-128622646D01*
X64230177Y-128638580D01*
X64197713Y-128649420D01*
X64179901Y-128654468D01*
X64179377Y-128654514D01*
X64178037Y-128640623D01*
X64176828Y-128601439D01*
X64175801Y-128540700D01*
X64175002Y-128462141D01*
X64174481Y-128369498D01*
X64174286Y-128266509D01*
X64174286Y-127869342D01*
X64221457Y-127849444D01*
X64268629Y-127829547D01*
X64275886Y-127951289D01*
G36*
X63068303Y-128031239D02*
G01*
X63125527Y-128069735D01*
X63169749Y-128125335D01*
X63196167Y-128196086D01*
X63201510Y-128248162D01*
X63200903Y-128269893D01*
X63195822Y-128286531D01*
X63181855Y-128301437D01*
X63154589Y-128317973D01*
X63109612Y-128339498D01*
X63042511Y-128369374D01*
X63042171Y-128369524D01*
X62980407Y-128397813D01*
X62929759Y-128422933D01*
X62895404Y-128442179D01*
X62882518Y-128452848D01*
X62882514Y-128452934D01*
X62893872Y-128476166D01*
X62920431Y-128501774D01*
X62950923Y-128520221D01*
X62966370Y-128523886D01*
X63008515Y-128511212D01*
X63044808Y-128479471D01*
X63062517Y-128444572D01*
X63079552Y-128418845D01*
X63112922Y-128389546D01*
X63152149Y-128364235D01*
X63186756Y-128350471D01*
X63193993Y-128349714D01*
X63202139Y-128362160D01*
X63202630Y-128393972D01*
X63196643Y-128436866D01*
X63185357Y-128482558D01*
X63169950Y-128522761D01*
X63169171Y-128524322D01*
X63122804Y-128589062D01*
X63062711Y-128633097D01*
X62994465Y-128654711D01*
X62923638Y-128652185D01*
X62855804Y-128623804D01*
X62852788Y-128621808D01*
X62799427Y-128573448D01*
X62764340Y-128510352D01*
X62744922Y-128427387D01*
X62742316Y-128404078D01*
X62737701Y-128294055D01*
X62743233Y-128242748D01*
X62882514Y-128242748D01*
X62884324Y-128274753D01*
X62894222Y-128284093D01*
X62918898Y-128277105D01*
X62957795Y-128260587D01*
X63001275Y-128239881D01*
X63002356Y-128239333D01*
X63039209Y-128219949D01*
X63054000Y-128207013D01*
X63050353Y-128193451D01*
X63034995Y-128175632D01*
X62995923Y-128149845D01*
X62953846Y-128147950D01*
X62916103Y-128166717D01*
X62890034Y-128202915D01*
X62882514Y-128242748D01*
X62743233Y-128242748D01*
X62747194Y-128206027D01*
X62771550Y-128136212D01*
X62805456Y-128087302D01*
X62866653Y-128037878D01*
X62934063Y-128013359D01*
X63002880Y-128011797D01*
X63068303Y-128031239D01*
G37*
X63068303Y-128031239D02*
X63125527Y-128069735D01*
X63169749Y-128125335D01*
X63196167Y-128196086D01*
X63201510Y-128248162D01*
X63200903Y-128269893D01*
X63195822Y-128286531D01*
X63181855Y-128301437D01*
X63154589Y-128317973D01*
X63109612Y-128339498D01*
X63042511Y-128369374D01*
X63042171Y-128369524D01*
X62980407Y-128397813D01*
X62929759Y-128422933D01*
X62895404Y-128442179D01*
X62882518Y-128452848D01*
X62882514Y-128452934D01*
X62893872Y-128476166D01*
X62920431Y-128501774D01*
X62950923Y-128520221D01*
X62966370Y-128523886D01*
X63008515Y-128511212D01*
X63044808Y-128479471D01*
X63062517Y-128444572D01*
X63079552Y-128418845D01*
X63112922Y-128389546D01*
X63152149Y-128364235D01*
X63186756Y-128350471D01*
X63193993Y-128349714D01*
X63202139Y-128362160D01*
X63202630Y-128393972D01*
X63196643Y-128436866D01*
X63185357Y-128482558D01*
X63169950Y-128522761D01*
X63169171Y-128524322D01*
X63122804Y-128589062D01*
X63062711Y-128633097D01*
X62994465Y-128654711D01*
X62923638Y-128652185D01*
X62855804Y-128623804D01*
X62852788Y-128621808D01*
X62799427Y-128573448D01*
X62764340Y-128510352D01*
X62744922Y-128427387D01*
X62742316Y-128404078D01*
X62737701Y-128294055D01*
X62743233Y-128242748D01*
X62882514Y-128242748D01*
X62884324Y-128274753D01*
X62894222Y-128284093D01*
X62918898Y-128277105D01*
X62957795Y-128260587D01*
X63001275Y-128239881D01*
X63002356Y-128239333D01*
X63039209Y-128219949D01*
X63054000Y-128207013D01*
X63050353Y-128193451D01*
X63034995Y-128175632D01*
X62995923Y-128149845D01*
X62953846Y-128147950D01*
X62916103Y-128166717D01*
X62890034Y-128202915D01*
X62882514Y-128242748D01*
X62743233Y-128242748D01*
X62747194Y-128206027D01*
X62771550Y-128136212D01*
X62805456Y-128087302D01*
X62866653Y-128037878D01*
X62934063Y-128013359D01*
X63002880Y-128011797D01*
X63068303Y-128031239D01*
G36*
X61941115Y-128021962D02*
G01*
X62009145Y-128057733D01*
X62059351Y-128115301D01*
X62077185Y-128152312D01*
X62091063Y-128207882D01*
X62098167Y-128278096D01*
X62098840Y-128354727D01*
X62093427Y-128429552D01*
X62082270Y-128494342D01*
X62065714Y-128540873D01*
X62060626Y-128548887D01*
X62000355Y-128608707D01*
X61928769Y-128644535D01*
X61851092Y-128655020D01*
X61772548Y-128638810D01*
X61750689Y-128629092D01*
X61708122Y-128599143D01*
X61670763Y-128559433D01*
X61667232Y-128554397D01*
X61652881Y-128530124D01*
X61643394Y-128504178D01*
X61637790Y-128470022D01*
X61635086Y-128421119D01*
X61634299Y-128350935D01*
X61634286Y-128335200D01*
X61634322Y-128330192D01*
X61779429Y-128330192D01*
X61780273Y-128396430D01*
X61783596Y-128440386D01*
X61790583Y-128468779D01*
X61802416Y-128488325D01*
X61808457Y-128494857D01*
X61843186Y-128519680D01*
X61876903Y-128518548D01*
X61910995Y-128497016D01*
X61931329Y-128474029D01*
X61943371Y-128440478D01*
X61950134Y-128387569D01*
X61950598Y-128381399D01*
X61951752Y-128285513D01*
X61939688Y-128214299D01*
X61914570Y-128168194D01*
X61876560Y-128147635D01*
X61862992Y-128146514D01*
X61827364Y-128152152D01*
X61802994Y-128171686D01*
X61788093Y-128209042D01*
X61780875Y-128268150D01*
X61779429Y-128330192D01*
X61634322Y-128330192D01*
X61634826Y-128260413D01*
X61637096Y-128208159D01*
X61642068Y-128171949D01*
X61650713Y-128145299D01*
X61664005Y-128121722D01*
X61666943Y-128117338D01*
X61716313Y-128058249D01*
X61770109Y-128023947D01*
X61835602Y-128010331D01*
X61857842Y-128009665D01*
X61941115Y-128021962D01*
G37*
X61941115Y-128021962D02*
X62009145Y-128057733D01*
X62059351Y-128115301D01*
X62077185Y-128152312D01*
X62091063Y-128207882D01*
X62098167Y-128278096D01*
X62098840Y-128354727D01*
X62093427Y-128429552D01*
X62082270Y-128494342D01*
X62065714Y-128540873D01*
X62060626Y-128548887D01*
X62000355Y-128608707D01*
X61928769Y-128644535D01*
X61851092Y-128655020D01*
X61772548Y-128638810D01*
X61750689Y-128629092D01*
X61708122Y-128599143D01*
X61670763Y-128559433D01*
X61667232Y-128554397D01*
X61652881Y-128530124D01*
X61643394Y-128504178D01*
X61637790Y-128470022D01*
X61635086Y-128421119D01*
X61634299Y-128350935D01*
X61634286Y-128335200D01*
X61634322Y-128330192D01*
X61779429Y-128330192D01*
X61780273Y-128396430D01*
X61783596Y-128440386D01*
X61790583Y-128468779D01*
X61802416Y-128488325D01*
X61808457Y-128494857D01*
X61843186Y-128519680D01*
X61876903Y-128518548D01*
X61910995Y-128497016D01*
X61931329Y-128474029D01*
X61943371Y-128440478D01*
X61950134Y-128387569D01*
X61950598Y-128381399D01*
X61951752Y-128285513D01*
X61939688Y-128214299D01*
X61914570Y-128168194D01*
X61876560Y-128147635D01*
X61862992Y-128146514D01*
X61827364Y-128152152D01*
X61802994Y-128171686D01*
X61788093Y-128209042D01*
X61780875Y-128268150D01*
X61779429Y-128330192D01*
X61634322Y-128330192D01*
X61634826Y-128260413D01*
X61637096Y-128208159D01*
X61642068Y-128171949D01*
X61650713Y-128145299D01*
X61664005Y-128121722D01*
X61666943Y-128117338D01*
X61716313Y-128058249D01*
X61770109Y-128023947D01*
X61835602Y-128010331D01*
X61857842Y-128009665D01*
X61941115Y-128021962D01*
G36*
X63616093Y-128027780D02*
G01*
X63662672Y-128054723D01*
X63695057Y-128081466D01*
X63718742Y-128109484D01*
X63735059Y-128143748D01*
X63745339Y-128189227D01*
X63750914Y-128250892D01*
X63753116Y-128333711D01*
X63753371Y-128393246D01*
X63753371Y-128612391D01*
X63691686Y-128640044D01*
X63630000Y-128667697D01*
X63622743Y-128427670D01*
X63619744Y-128338028D01*
X63616598Y-128272962D01*
X63612701Y-128228026D01*
X63607447Y-128198770D01*
X63600231Y-128180748D01*
X63590450Y-128169511D01*
X63587312Y-128167079D01*
X63539761Y-128148083D01*
X63491697Y-128155600D01*
X63463086Y-128175543D01*
X63451447Y-128189675D01*
X63443391Y-128208220D01*
X63438271Y-128236334D01*
X63435441Y-128279173D01*
X63434256Y-128341895D01*
X63434057Y-128407261D01*
X63434018Y-128489268D01*
X63432614Y-128547316D01*
X63427914Y-128586465D01*
X63417987Y-128611780D01*
X63400903Y-128628323D01*
X63374732Y-128641156D01*
X63339775Y-128654491D01*
X63301596Y-128669007D01*
X63306141Y-128411389D01*
X63307971Y-128318519D01*
X63310112Y-128249889D01*
X63313181Y-128200711D01*
X63317794Y-128166198D01*
X63324568Y-128141562D01*
X63334119Y-128122016D01*
X63345634Y-128104770D01*
X63401190Y-128049680D01*
X63468980Y-128017822D01*
X63542713Y-128010191D01*
X63616093Y-128027780D01*
G37*
X63616093Y-128027780D02*
X63662672Y-128054723D01*
X63695057Y-128081466D01*
X63718742Y-128109484D01*
X63735059Y-128143748D01*
X63745339Y-128189227D01*
X63750914Y-128250892D01*
X63753116Y-128333711D01*
X63753371Y-128393246D01*
X63753371Y-128612391D01*
X63691686Y-128640044D01*
X63630000Y-128667697D01*
X63622743Y-128427670D01*
X63619744Y-128338028D01*
X63616598Y-128272962D01*
X63612701Y-128228026D01*
X63607447Y-128198770D01*
X63600231Y-128180748D01*
X63590450Y-128169511D01*
X63587312Y-128167079D01*
X63539761Y-128148083D01*
X63491697Y-128155600D01*
X63463086Y-128175543D01*
X63451447Y-128189675D01*
X63443391Y-128208220D01*
X63438271Y-128236334D01*
X63435441Y-128279173D01*
X63434256Y-128341895D01*
X63434057Y-128407261D01*
X63434018Y-128489268D01*
X63432614Y-128547316D01*
X63427914Y-128586465D01*
X63417987Y-128611780D01*
X63400903Y-128628323D01*
X63374732Y-128641156D01*
X63339775Y-128654491D01*
X63301596Y-128669007D01*
X63306141Y-128411389D01*
X63307971Y-128318519D01*
X63310112Y-128249889D01*
X63313181Y-128200711D01*
X63317794Y-128166198D01*
X63324568Y-128141562D01*
X63334119Y-128122016D01*
X63345634Y-128104770D01*
X63401190Y-128049680D01*
X63468980Y-128017822D01*
X63542713Y-128010191D01*
X63616093Y-128027780D01*
G36*
X62499744Y-128019918D02*
G01*
X62555201Y-128047568D01*
X62604148Y-128098480D01*
X62617629Y-128117338D01*
X62632314Y-128142015D01*
X62641842Y-128168816D01*
X62647293Y-128204587D01*
X62649747Y-128256169D01*
X62650286Y-128324267D01*
X62647852Y-128417588D01*
X62639394Y-128487657D01*
X62623174Y-128539931D01*
X62597454Y-128579869D01*
X62560497Y-128612929D01*
X62557782Y-128614886D01*
X62521360Y-128634908D01*
X62477502Y-128644815D01*
X62421724Y-128647257D01*
X62331048Y-128647257D01*
X62331010Y-128735283D01*
X62330166Y-128784308D01*
X62325024Y-128813065D01*
X62311587Y-128830311D01*
X62285858Y-128844808D01*
X62279679Y-128847769D01*
X62250764Y-128861648D01*
X62228376Y-128870414D01*
X62211729Y-128871171D01*
X62200036Y-128861023D01*
X62192510Y-128837073D01*
X62188366Y-128796426D01*
X62186815Y-128736186D01*
X62187071Y-128653455D01*
X62188349Y-128545339D01*
X62188748Y-128513000D01*
X62190185Y-128401524D01*
X62191472Y-128328603D01*
X62330971Y-128328603D01*
X62331755Y-128390499D01*
X62335240Y-128430997D01*
X62343124Y-128457708D01*
X62357105Y-128478244D01*
X62366597Y-128488260D01*
X62405404Y-128517567D01*
X62439763Y-128519952D01*
X62475216Y-128495750D01*
X62476114Y-128494857D01*
X62490539Y-128476153D01*
X62499313Y-128450732D01*
X62503739Y-128411584D01*
X62505118Y-128351697D01*
X62505143Y-128338430D01*
X62501812Y-128255901D01*
X62490969Y-128198691D01*
X62471340Y-128163766D01*
X62441650Y-128148094D01*
X62424491Y-128146514D01*
X62383766Y-128153926D01*
X62355832Y-128178330D01*
X62339017Y-128222980D01*
X62331650Y-128291130D01*
X62330971Y-128328603D01*
X62191472Y-128328603D01*
X62191708Y-128315245D01*
X62193677Y-128250333D01*
X62196450Y-128202958D01*
X62200388Y-128169290D01*
X62205849Y-128145498D01*
X62213192Y-128127753D01*
X62222777Y-128112224D01*
X62226887Y-128106381D01*
X62281405Y-128051185D01*
X62350336Y-128019890D01*
X62430072Y-128011165D01*
X62499744Y-128019918D01*
G37*
X62499744Y-128019918D02*
X62555201Y-128047568D01*
X62604148Y-128098480D01*
X62617629Y-128117338D01*
X62632314Y-128142015D01*
X62641842Y-128168816D01*
X62647293Y-128204587D01*
X62649747Y-128256169D01*
X62650286Y-128324267D01*
X62647852Y-128417588D01*
X62639394Y-128487657D01*
X62623174Y-128539931D01*
X62597454Y-128579869D01*
X62560497Y-128612929D01*
X62557782Y-128614886D01*
X62521360Y-128634908D01*
X62477502Y-128644815D01*
X62421724Y-128647257D01*
X62331048Y-128647257D01*
X62331010Y-128735283D01*
X62330166Y-128784308D01*
X62325024Y-128813065D01*
X62311587Y-128830311D01*
X62285858Y-128844808D01*
X62279679Y-128847769D01*
X62250764Y-128861648D01*
X62228376Y-128870414D01*
X62211729Y-128871171D01*
X62200036Y-128861023D01*
X62192510Y-128837073D01*
X62188366Y-128796426D01*
X62186815Y-128736186D01*
X62187071Y-128653455D01*
X62188349Y-128545339D01*
X62188748Y-128513000D01*
X62190185Y-128401524D01*
X62191472Y-128328603D01*
X62330971Y-128328603D01*
X62331755Y-128390499D01*
X62335240Y-128430997D01*
X62343124Y-128457708D01*
X62357105Y-128478244D01*
X62366597Y-128488260D01*
X62405404Y-128517567D01*
X62439763Y-128519952D01*
X62475216Y-128495750D01*
X62476114Y-128494857D01*
X62490539Y-128476153D01*
X62499313Y-128450732D01*
X62503739Y-128411584D01*
X62505118Y-128351697D01*
X62505143Y-128338430D01*
X62501812Y-128255901D01*
X62490969Y-128198691D01*
X62471340Y-128163766D01*
X62441650Y-128148094D01*
X62424491Y-128146514D01*
X62383766Y-128153926D01*
X62355832Y-128178330D01*
X62339017Y-128222980D01*
X62331650Y-128291130D01*
X62330971Y-128328603D01*
X62191472Y-128328603D01*
X62191708Y-128315245D01*
X62193677Y-128250333D01*
X62196450Y-128202958D01*
X62200388Y-128169290D01*
X62205849Y-128145498D01*
X62213192Y-128127753D01*
X62222777Y-128112224D01*
X62226887Y-128106381D01*
X62281405Y-128051185D01*
X62350336Y-128019890D01*
X62430072Y-128011165D01*
X62499744Y-128019918D01*
D11*
%TO.C,J1*%
X73337000Y-122895000D02*
G75*
G03*
X73337000Y-122895000I-240000J0D01*
G01*
X70075000Y-114625000D02*
X80025000Y-114625000D01*
D12*
%TO.C,5V*%
X74500000Y-127900000D02*
G75*
G03*
X74500000Y-127900000I-950000J0D01*
G01*
%TO.C,GND*%
X77450000Y-127900000D02*
G75*
G03*
X77450000Y-127900000I-950000J0D01*
G01*
%TO.C,R4*%
X70610000Y-125502064D02*
X70610000Y-125047936D01*
X69140000Y-125502064D02*
X69140000Y-125047936D01*
%TO.C,R1*%
X80627064Y-127790000D02*
X80172936Y-127790000D01*
X80627064Y-129260000D02*
X80172936Y-129260000D01*
D13*
%TO.C,Q1*%
X81213600Y-124539600D02*
X81872400Y-124539600D01*
X81872400Y-124539600D02*
X81872400Y-125352400D01*
X79027600Y-124539600D02*
X79686400Y-124539600D01*
X79027600Y-125352400D02*
X79027600Y-124539600D01*
%TO.C,J1*%
D14*
X81266666Y-114752380D02*
X81266666Y-115466666D01*
X81219047Y-115609523D01*
X81123809Y-115704761D01*
X80980952Y-115752380D01*
X80885714Y-115752380D01*
X82266666Y-115752380D02*
X81695238Y-115752380D01*
X81980952Y-115752380D02*
X81980952Y-114752380D01*
X81885714Y-114895238D01*
X81790476Y-114990476D01*
X81695238Y-115038095D01*
%TO.C,5V*%
X73359523Y-125704380D02*
X72883333Y-125704380D01*
X72835714Y-126180571D01*
X72883333Y-126132952D01*
X72978571Y-126085333D01*
X73216666Y-126085333D01*
X73311904Y-126132952D01*
X73359523Y-126180571D01*
X73407142Y-126275809D01*
X73407142Y-126513904D01*
X73359523Y-126609142D01*
X73311904Y-126656761D01*
X73216666Y-126704380D01*
X72978571Y-126704380D01*
X72883333Y-126656761D01*
X72835714Y-126609142D01*
X73692857Y-125704380D02*
X74026190Y-126704380D01*
X74359523Y-125704380D01*
%TO.C,GND*%
X75738095Y-125752000D02*
X75642857Y-125704380D01*
X75500000Y-125704380D01*
X75357142Y-125752000D01*
X75261904Y-125847238D01*
X75214285Y-125942476D01*
X75166666Y-126132952D01*
X75166666Y-126275809D01*
X75214285Y-126466285D01*
X75261904Y-126561523D01*
X75357142Y-126656761D01*
X75500000Y-126704380D01*
X75595238Y-126704380D01*
X75738095Y-126656761D01*
X75785714Y-126609142D01*
X75785714Y-126275809D01*
X75595238Y-126275809D01*
X76214285Y-126704380D02*
X76214285Y-125704380D01*
X76785714Y-126704380D01*
X76785714Y-125704380D01*
X77261904Y-126704380D02*
X77261904Y-125704380D01*
X77500000Y-125704380D01*
X77642857Y-125752000D01*
X77738095Y-125847238D01*
X77785714Y-125942476D01*
X77833333Y-126132952D01*
X77833333Y-126275809D01*
X77785714Y-126466285D01*
X77738095Y-126561523D01*
X77642857Y-126656761D01*
X77500000Y-126704380D01*
X77261904Y-126704380D01*
%TO.C,R4*%
X69733333Y-128402380D02*
X69400000Y-127926190D01*
X69161904Y-128402380D02*
X69161904Y-127402380D01*
X69542857Y-127402380D01*
X69638095Y-127450000D01*
X69685714Y-127497619D01*
X69733333Y-127592857D01*
X69733333Y-127735714D01*
X69685714Y-127830952D01*
X69638095Y-127878571D01*
X69542857Y-127926190D01*
X69161904Y-127926190D01*
X70590476Y-127735714D02*
X70590476Y-128402380D01*
X70352380Y-127354761D02*
X70114285Y-128069047D01*
X70733333Y-128069047D01*
%TO.C,R1*%
X83208333Y-129077380D02*
X82875000Y-128601190D01*
X82636904Y-129077380D02*
X82636904Y-128077380D01*
X83017857Y-128077380D01*
X83113095Y-128125000D01*
X83160714Y-128172619D01*
X83208333Y-128267857D01*
X83208333Y-128410714D01*
X83160714Y-128505952D01*
X83113095Y-128553571D01*
X83017857Y-128601190D01*
X82636904Y-128601190D01*
X84160714Y-129077380D02*
X83589285Y-129077380D01*
X83875000Y-129077380D02*
X83875000Y-128077380D01*
X83779761Y-128220238D01*
X83684523Y-128315476D01*
X83589285Y-128363095D01*
%TO.C,Q1*%
X82354761Y-124272619D02*
X82259523Y-124225000D01*
X82164285Y-124129761D01*
X82021428Y-123986904D01*
X81926190Y-123939285D01*
X81830952Y-123939285D01*
X81878571Y-124177380D02*
X81783333Y-124129761D01*
X81688095Y-124034523D01*
X81640476Y-123844047D01*
X81640476Y-123510714D01*
X81688095Y-123320238D01*
X81783333Y-123225000D01*
X81878571Y-123177380D01*
X82069047Y-123177380D01*
X82164285Y-123225000D01*
X82259523Y-123320238D01*
X82307142Y-123510714D01*
X82307142Y-123844047D01*
X82259523Y-124034523D01*
X82164285Y-124129761D01*
X82069047Y-124177380D01*
X81878571Y-124177380D01*
X83259523Y-124177380D02*
X82688095Y-124177380D01*
X82973809Y-124177380D02*
X82973809Y-123177380D01*
X82878571Y-123320238D01*
X82783333Y-123415476D01*
X82688095Y-123463095D01*
%TD*%
M02*
