%TF.GenerationSoftware,KiCad,Pcbnew,(5.1.8-0-10_14)*%
%TF.CreationDate,2021-03-11T12:17:28+11:00*%
%TF.ProjectId,Open-JIP(KiCad)_T3.6_OD,4f70656e-2d4a-4495-9028-4b6943616429,rev?*%
%TF.SameCoordinates,Original*%
%TF.FileFunction,Paste,Top*%
%TF.FilePolarity,Positive*%
%FSLAX46Y46*%
G04 Gerber Fmt 4.6, Leading zero omitted, Abs format (unit mm)*
G04 Created by KiCad (PCBNEW (5.1.8-0-10_14)) date 2021-03-11 12:17:28*
%MOMM*%
%LPD*%
G01*
G04 APERTURE LIST*
%ADD10R,1.600000X3.000000*%
%ADD11R,1.000000X5.500000*%
%ADD12R,1.000000X1.400000*%
G04 APERTURE END LIST*
D10*
%TO.C,J1*%
X70650000Y-117125000D03*
X79450000Y-117125000D03*
D11*
X77050000Y-119375000D03*
X75050000Y-119375000D03*
X73050000Y-119375000D03*
%TD*%
%TO.C,R4*%
G36*
G01*
X70325001Y-124875000D02*
X69424999Y-124875000D01*
G75*
G02*
X69175000Y-124625001I0J249999D01*
G01*
X69175000Y-123924999D01*
G75*
G02*
X69424999Y-123675000I249999J0D01*
G01*
X70325001Y-123675000D01*
G75*
G02*
X70575000Y-123924999I0J-249999D01*
G01*
X70575000Y-124625001D01*
G75*
G02*
X70325001Y-124875000I-249999J0D01*
G01*
G37*
G36*
G01*
X70325001Y-126875000D02*
X69424999Y-126875000D01*
G75*
G02*
X69175000Y-126625001I0J249999D01*
G01*
X69175000Y-125924999D01*
G75*
G02*
X69424999Y-125675000I249999J0D01*
G01*
X70325001Y-125675000D01*
G75*
G02*
X70575000Y-125924999I0J-249999D01*
G01*
X70575000Y-126625001D01*
G75*
G02*
X70325001Y-126875000I-249999J0D01*
G01*
G37*
%TD*%
%TO.C,R1*%
G36*
G01*
X80000000Y-128074999D02*
X80000000Y-128975001D01*
G75*
G02*
X79750001Y-129225000I-249999J0D01*
G01*
X79049999Y-129225000D01*
G75*
G02*
X78800000Y-128975001I0J249999D01*
G01*
X78800000Y-128074999D01*
G75*
G02*
X79049999Y-127825000I249999J0D01*
G01*
X79750001Y-127825000D01*
G75*
G02*
X80000000Y-128074999I0J-249999D01*
G01*
G37*
G36*
G01*
X82000000Y-128074999D02*
X82000000Y-128975001D01*
G75*
G02*
X81750001Y-129225000I-249999J0D01*
G01*
X81049999Y-129225000D01*
G75*
G02*
X80800000Y-128975001I0J249999D01*
G01*
X80800000Y-128074999D01*
G75*
G02*
X81049999Y-127825000I249999J0D01*
G01*
X81750001Y-127825000D01*
G75*
G02*
X82000000Y-128074999I0J-249999D01*
G01*
G37*
%TD*%
D12*
%TO.C,Q1*%
X79500000Y-126300000D03*
X81400000Y-126300000D03*
X80450000Y-124100000D03*
%TD*%
M02*
