%TF.GenerationSoftware,KiCad,Pcbnew,(5.1.8-0-10_14)*%
%TF.CreationDate,2021-03-11T12:17:28+11:00*%
%TF.ProjectId,Open-JIP(KiCad)_T3.6_OD,4f70656e-2d4a-4495-9028-4b6943616429,rev?*%
%TF.SameCoordinates,Original*%
%TF.FileFunction,Copper,L1,Top*%
%TF.FilePolarity,Positive*%
%FSLAX46Y46*%
G04 Gerber Fmt 4.6, Leading zero omitted, Abs format (unit mm)*
G04 Created by KiCad (PCBNEW (5.1.8-0-10_14)) date 2021-03-11 12:17:28*
%MOMM*%
%LPD*%
G01*
G04 APERTURE LIST*
%TA.AperFunction,ComponentPad*%
%ADD10C,6.400000*%
%TD*%
%TA.AperFunction,ComponentPad*%
%ADD11C,0.800000*%
%TD*%
%TA.AperFunction,SMDPad,CuDef*%
%ADD12R,1.600000X3.000000*%
%TD*%
%TA.AperFunction,SMDPad,CuDef*%
%ADD13R,1.000000X5.500000*%
%TD*%
%TA.AperFunction,SMDPad,CuDef*%
%ADD14C,1.500000*%
%TD*%
%TA.AperFunction,SMDPad,CuDef*%
%ADD15R,1.000000X1.400000*%
%TD*%
%TA.AperFunction,ViaPad*%
%ADD16C,0.800000*%
%TD*%
%TA.AperFunction,Conductor*%
%ADD17C,0.250000*%
%TD*%
%TA.AperFunction,Conductor*%
%ADD18C,0.254000*%
%TD*%
%TA.AperFunction,Conductor*%
%ADD19C,0.100000*%
%TD*%
G04 APERTURE END LIST*
D10*
%TO.P,REF\u002A\u002A,1*%
%TO.N,N/C*%
X65000000Y-119000000D03*
D11*
X67400000Y-119000000D03*
X66697056Y-120697056D03*
X65000000Y-121400000D03*
X63302944Y-120697056D03*
X62600000Y-119000000D03*
X63302944Y-117302944D03*
X65000000Y-116600000D03*
X66697056Y-117302944D03*
%TD*%
%TO.P,REF\u002A\u002A,1*%
%TO.N,N/C*%
X86697056Y-117302944D03*
X85000000Y-116600000D03*
X83302944Y-117302944D03*
X82600000Y-119000000D03*
X83302944Y-120697056D03*
X85000000Y-121400000D03*
X86697056Y-120697056D03*
X87400000Y-119000000D03*
D10*
X85000000Y-119000000D03*
%TD*%
D12*
%TO.P,J1,5*%
%TO.N,N/C*%
X70650000Y-117125000D03*
%TO.P,J1,4*%
X79450000Y-117125000D03*
D13*
%TO.P,J1,3*%
%TO.N,ODEmitter1*%
X77050000Y-119375000D03*
%TO.P,J1,2*%
%TO.N,+5VA*%
X75050000Y-119375000D03*
%TO.P,J1,1*%
%TO.N,GND1*%
X73050000Y-119375000D03*
%TD*%
D14*
%TO.P,5V,1*%
%TO.N,+5VA*%
X73550000Y-127900000D03*
%TD*%
%TO.P,GND,1*%
%TO.N,GND1*%
X76500000Y-127900000D03*
%TD*%
%TO.P,R4,2*%
%TO.N,+5VA*%
%TA.AperFunction,SMDPad,CuDef*%
G36*
G01*
X70325001Y-124875000D02*
X69424999Y-124875000D01*
G75*
G02*
X69175000Y-124625001I0J249999D01*
G01*
X69175000Y-123924999D01*
G75*
G02*
X69424999Y-123675000I249999J0D01*
G01*
X70325001Y-123675000D01*
G75*
G02*
X70575000Y-123924999I0J-249999D01*
G01*
X70575000Y-124625001D01*
G75*
G02*
X70325001Y-124875000I-249999J0D01*
G01*
G37*
%TD.AperFunction*%
%TO.P,R4,1*%
%TO.N,Net-(D1-Pad2)*%
%TA.AperFunction,SMDPad,CuDef*%
G36*
G01*
X70325001Y-126875000D02*
X69424999Y-126875000D01*
G75*
G02*
X69175000Y-126625001I0J249999D01*
G01*
X69175000Y-125924999D01*
G75*
G02*
X69424999Y-125675000I249999J0D01*
G01*
X70325001Y-125675000D01*
G75*
G02*
X70575000Y-125924999I0J-249999D01*
G01*
X70575000Y-126625001D01*
G75*
G02*
X70325001Y-126875000I-249999J0D01*
G01*
G37*
%TD.AperFunction*%
%TD*%
%TO.P,R1,2*%
%TO.N,ODEmitter1*%
%TA.AperFunction,SMDPad,CuDef*%
G36*
G01*
X80000000Y-128074999D02*
X80000000Y-128975001D01*
G75*
G02*
X79750001Y-129225000I-249999J0D01*
G01*
X79049999Y-129225000D01*
G75*
G02*
X78800000Y-128975001I0J249999D01*
G01*
X78800000Y-128074999D01*
G75*
G02*
X79049999Y-127825000I249999J0D01*
G01*
X79750001Y-127825000D01*
G75*
G02*
X80000000Y-128074999I0J-249999D01*
G01*
G37*
%TD.AperFunction*%
%TO.P,R1,1*%
%TO.N,GND1*%
%TA.AperFunction,SMDPad,CuDef*%
G36*
G01*
X82000000Y-128074999D02*
X82000000Y-128975001D01*
G75*
G02*
X81750001Y-129225000I-249999J0D01*
G01*
X81049999Y-129225000D01*
G75*
G02*
X80800000Y-128975001I0J249999D01*
G01*
X80800000Y-128074999D01*
G75*
G02*
X81049999Y-127825000I249999J0D01*
G01*
X81750001Y-127825000D01*
G75*
G02*
X82000000Y-128074999I0J-249999D01*
G01*
G37*
%TD.AperFunction*%
%TD*%
D15*
%TO.P,Q1,1*%
%TO.N,ODEmitter1*%
X79500000Y-126300000D03*
%TO.P,Q1,2*%
%TO.N,GND1*%
X81400000Y-126300000D03*
%TO.P,Q1,3*%
%TO.N,Net-(D1-Pad1)*%
X80450000Y-124100000D03*
%TD*%
D16*
%TO.N,GND1*%
X71800000Y-123400000D03*
X76200000Y-123200000D03*
%TO.N,Net-(D1-Pad2)*%
X71750000Y-125325000D03*
%TO.N,Net-(D1-Pad1)*%
X78225000Y-124175000D03*
%TD*%
D17*
%TO.N,+5VA*%
X73150000Y-124275000D02*
X69875000Y-124275000D01*
X75050000Y-119375000D02*
X75050000Y-122375000D01*
X74100000Y-127350000D02*
X73550000Y-127900000D01*
X75050000Y-122375000D02*
X74100000Y-123325000D01*
X74100000Y-123325000D02*
X74100000Y-127350000D01*
X74100000Y-123325000D02*
X73150000Y-124275000D01*
%TO.N,Net-(D1-Pad2)*%
X69875000Y-126275000D02*
X70800000Y-126275000D01*
X70800000Y-126275000D02*
X71750000Y-125325000D01*
%TO.N,Net-(D1-Pad1)*%
X80375000Y-124175000D02*
X80450000Y-124100000D01*
X78225000Y-124175000D02*
X80375000Y-124175000D01*
%TO.N,ODEmitter1*%
X79500000Y-128425000D02*
X79400000Y-128525000D01*
X79500000Y-126300000D02*
X79500000Y-128425000D01*
X77050000Y-124600000D02*
X77050000Y-119375000D01*
X78750000Y-126300000D02*
X77050000Y-124600000D01*
X79500000Y-126300000D02*
X78750000Y-126300000D01*
%TD*%
D18*
%TO.N,GND1*%
X88990001Y-129190000D02*
X82637812Y-129190000D01*
X82635000Y-128810750D01*
X82476250Y-128652000D01*
X81527000Y-128652000D01*
X81527000Y-128672000D01*
X81273000Y-128672000D01*
X81273000Y-128652000D01*
X81253000Y-128652000D01*
X81253000Y-128398000D01*
X81273000Y-128398000D01*
X81273000Y-126427000D01*
X81527000Y-126427000D01*
X81527000Y-128398000D01*
X82476250Y-128398000D01*
X82635000Y-128239250D01*
X82638072Y-127825000D01*
X82625812Y-127700518D01*
X82589502Y-127580820D01*
X82530537Y-127470506D01*
X82451185Y-127373815D01*
X82429372Y-127355914D01*
X82430537Y-127354494D01*
X82489502Y-127244180D01*
X82525812Y-127124482D01*
X82538072Y-127000000D01*
X82535000Y-126585750D01*
X82376250Y-126427000D01*
X81527000Y-126427000D01*
X81273000Y-126427000D01*
X81253000Y-126427000D01*
X81253000Y-126173000D01*
X81273000Y-126173000D01*
X81273000Y-126153000D01*
X81527000Y-126153000D01*
X81527000Y-126173000D01*
X82376250Y-126173000D01*
X82535000Y-126014250D01*
X82538072Y-125600000D01*
X82525812Y-125475518D01*
X82489502Y-125355820D01*
X82430537Y-125245506D01*
X82351185Y-125148815D01*
X82254494Y-125069463D01*
X82144180Y-125010498D01*
X82024482Y-124974188D01*
X81900000Y-124961928D01*
X81685750Y-124965000D01*
X81527002Y-125123748D01*
X81527002Y-125067565D01*
X81539502Y-125044180D01*
X81575812Y-124924482D01*
X81588072Y-124800000D01*
X81588072Y-123400000D01*
X81575812Y-123275518D01*
X81539502Y-123155820D01*
X81480537Y-123045506D01*
X81401185Y-122948815D01*
X81304494Y-122869463D01*
X81194180Y-122810498D01*
X81074482Y-122774188D01*
X80950000Y-122761928D01*
X79950000Y-122761928D01*
X79825518Y-122774188D01*
X79705820Y-122810498D01*
X79595506Y-122869463D01*
X79498815Y-122948815D01*
X79419463Y-123045506D01*
X79360498Y-123155820D01*
X79324188Y-123275518D01*
X79311928Y-123400000D01*
X79311928Y-123415000D01*
X78928711Y-123415000D01*
X78884774Y-123371063D01*
X78715256Y-123257795D01*
X78526898Y-123179774D01*
X78326939Y-123140000D01*
X78123061Y-123140000D01*
X77923102Y-123179774D01*
X77810000Y-123226623D01*
X77810000Y-122706046D01*
X77904494Y-122655537D01*
X78001185Y-122576185D01*
X78080537Y-122479494D01*
X78139502Y-122369180D01*
X78175812Y-122249482D01*
X78188072Y-122125000D01*
X78188072Y-119063095D01*
X78198815Y-119076185D01*
X78295506Y-119155537D01*
X78405820Y-119214502D01*
X78525518Y-119250812D01*
X78650000Y-119263072D01*
X80250000Y-119263072D01*
X80374482Y-119250812D01*
X80494180Y-119214502D01*
X80604494Y-119155537D01*
X80701185Y-119076185D01*
X80780537Y-118979494D01*
X80839502Y-118869180D01*
X80875812Y-118749482D01*
X80888072Y-118625000D01*
X80888072Y-118622285D01*
X81165000Y-118622285D01*
X81165000Y-119377715D01*
X81312377Y-120118628D01*
X81601467Y-120816554D01*
X82021161Y-121444670D01*
X82555330Y-121978839D01*
X83183446Y-122398533D01*
X83881372Y-122687623D01*
X84622285Y-122835000D01*
X85377715Y-122835000D01*
X86118628Y-122687623D01*
X86816554Y-122398533D01*
X87444670Y-121978839D01*
X87978839Y-121444670D01*
X88398533Y-120816554D01*
X88687623Y-120118628D01*
X88835000Y-119377715D01*
X88835000Y-118622285D01*
X88687623Y-117881372D01*
X88398533Y-117183446D01*
X87978839Y-116555330D01*
X87444670Y-116021161D01*
X86816554Y-115601467D01*
X86118628Y-115312377D01*
X85377715Y-115165000D01*
X84622285Y-115165000D01*
X83881372Y-115312377D01*
X83183446Y-115601467D01*
X82555330Y-116021161D01*
X82021161Y-116555330D01*
X81601467Y-117183446D01*
X81312377Y-117881372D01*
X81165000Y-118622285D01*
X80888072Y-118622285D01*
X80888072Y-115625000D01*
X80875812Y-115500518D01*
X80839502Y-115380820D01*
X80780537Y-115270506D01*
X80701185Y-115173815D01*
X80604494Y-115094463D01*
X80494180Y-115035498D01*
X80374482Y-114999188D01*
X80250000Y-114986928D01*
X78650000Y-114986928D01*
X78525518Y-114999188D01*
X78405820Y-115035498D01*
X78295506Y-115094463D01*
X78198815Y-115173815D01*
X78119463Y-115270506D01*
X78060498Y-115380820D01*
X78024188Y-115500518D01*
X78011928Y-115625000D01*
X78011928Y-116186905D01*
X78001185Y-116173815D01*
X77904494Y-116094463D01*
X77794180Y-116035498D01*
X77674482Y-115999188D01*
X77550000Y-115986928D01*
X76550000Y-115986928D01*
X76425518Y-115999188D01*
X76305820Y-116035498D01*
X76195506Y-116094463D01*
X76098815Y-116173815D01*
X76050000Y-116233296D01*
X76001185Y-116173815D01*
X75904494Y-116094463D01*
X75794180Y-116035498D01*
X75674482Y-115999188D01*
X75550000Y-115986928D01*
X74550000Y-115986928D01*
X74425518Y-115999188D01*
X74305820Y-116035498D01*
X74195506Y-116094463D01*
X74098815Y-116173815D01*
X74050000Y-116233296D01*
X74001185Y-116173815D01*
X73904494Y-116094463D01*
X73794180Y-116035498D01*
X73674482Y-115999188D01*
X73550000Y-115986928D01*
X73335750Y-115990000D01*
X73177000Y-116148750D01*
X73177000Y-119248000D01*
X73197000Y-119248000D01*
X73197000Y-119502000D01*
X73177000Y-119502000D01*
X73177000Y-122601250D01*
X73335750Y-122760000D01*
X73550000Y-122763072D01*
X73591183Y-122759016D01*
X73589002Y-122761196D01*
X73559999Y-122784999D01*
X73536202Y-122813996D01*
X72835199Y-123515000D01*
X71107976Y-123515000D01*
X71063405Y-123431613D01*
X70952962Y-123297038D01*
X70818387Y-123186595D01*
X70664851Y-123104528D01*
X70498255Y-123053992D01*
X70325001Y-123036928D01*
X69424999Y-123036928D01*
X69251745Y-123053992D01*
X69085149Y-123104528D01*
X68931613Y-123186595D01*
X68797038Y-123297038D01*
X68686595Y-123431613D01*
X68604528Y-123585149D01*
X68553992Y-123751745D01*
X68536928Y-123924999D01*
X68536928Y-124625001D01*
X68553992Y-124798255D01*
X68604528Y-124964851D01*
X68686595Y-125118387D01*
X68797038Y-125252962D01*
X68823891Y-125275000D01*
X68797038Y-125297038D01*
X68686595Y-125431613D01*
X68604528Y-125585149D01*
X68553992Y-125751745D01*
X68536928Y-125924999D01*
X68536928Y-126625001D01*
X68553992Y-126798255D01*
X68604528Y-126964851D01*
X68686595Y-127118387D01*
X68797038Y-127252962D01*
X68931613Y-127363405D01*
X69085149Y-127445472D01*
X69251745Y-127496008D01*
X69424999Y-127513072D01*
X70325001Y-127513072D01*
X70498255Y-127496008D01*
X70664851Y-127445472D01*
X70818387Y-127363405D01*
X70952962Y-127252962D01*
X71063405Y-127118387D01*
X71145472Y-126964851D01*
X71150090Y-126949628D01*
X71224276Y-126909974D01*
X71340001Y-126815001D01*
X71363804Y-126785998D01*
X71789801Y-126360000D01*
X71851939Y-126360000D01*
X72051898Y-126320226D01*
X72240256Y-126242205D01*
X72409774Y-126128937D01*
X72553937Y-125984774D01*
X72667205Y-125815256D01*
X72745226Y-125626898D01*
X72785000Y-125426939D01*
X72785000Y-125223061D01*
X72747593Y-125035000D01*
X73112678Y-125035000D01*
X73150000Y-125038676D01*
X73187322Y-125035000D01*
X73187333Y-125035000D01*
X73298986Y-125024003D01*
X73340000Y-125011562D01*
X73340001Y-126529638D01*
X73146011Y-126568225D01*
X72893957Y-126672629D01*
X72667114Y-126824201D01*
X72474201Y-127017114D01*
X72322629Y-127243957D01*
X72218225Y-127496011D01*
X72165000Y-127763589D01*
X72165000Y-128036411D01*
X72218225Y-128303989D01*
X72322629Y-128556043D01*
X72474201Y-128782886D01*
X72667114Y-128975799D01*
X72893957Y-129127371D01*
X73045157Y-129190000D01*
X60960000Y-129190000D01*
X60960000Y-118622285D01*
X61165000Y-118622285D01*
X61165000Y-119377715D01*
X61312377Y-120118628D01*
X61601467Y-120816554D01*
X62021161Y-121444670D01*
X62555330Y-121978839D01*
X63183446Y-122398533D01*
X63881372Y-122687623D01*
X64622285Y-122835000D01*
X65377715Y-122835000D01*
X66118628Y-122687623D01*
X66816554Y-122398533D01*
X67225924Y-122125000D01*
X71911928Y-122125000D01*
X71924188Y-122249482D01*
X71960498Y-122369180D01*
X72019463Y-122479494D01*
X72098815Y-122576185D01*
X72195506Y-122655537D01*
X72305820Y-122714502D01*
X72425518Y-122750812D01*
X72550000Y-122763072D01*
X72764250Y-122760000D01*
X72923000Y-122601250D01*
X72923000Y-119502000D01*
X72073750Y-119502000D01*
X71915000Y-119660750D01*
X71911928Y-122125000D01*
X67225924Y-122125000D01*
X67444670Y-121978839D01*
X67978839Y-121444670D01*
X68398533Y-120816554D01*
X68687623Y-120118628D01*
X68835000Y-119377715D01*
X68835000Y-118622285D01*
X68687623Y-117881372D01*
X68398533Y-117183446D01*
X67978839Y-116555330D01*
X67444670Y-116021161D01*
X66851774Y-115625000D01*
X69211928Y-115625000D01*
X69211928Y-118625000D01*
X69224188Y-118749482D01*
X69260498Y-118869180D01*
X69319463Y-118979494D01*
X69398815Y-119076185D01*
X69495506Y-119155537D01*
X69605820Y-119214502D01*
X69725518Y-119250812D01*
X69850000Y-119263072D01*
X71450000Y-119263072D01*
X71574482Y-119250812D01*
X71694180Y-119214502D01*
X71804494Y-119155537D01*
X71901185Y-119076185D01*
X71914963Y-119059397D01*
X71915000Y-119089250D01*
X72073750Y-119248000D01*
X72923000Y-119248000D01*
X72923000Y-116148750D01*
X72764250Y-115990000D01*
X72550000Y-115986928D01*
X72425518Y-115999188D01*
X72305820Y-116035498D01*
X72195506Y-116094463D01*
X72098815Y-116173815D01*
X72088072Y-116186905D01*
X72088072Y-115625000D01*
X72075812Y-115500518D01*
X72039502Y-115380820D01*
X71980537Y-115270506D01*
X71901185Y-115173815D01*
X71804494Y-115094463D01*
X71694180Y-115035498D01*
X71574482Y-114999188D01*
X71450000Y-114986928D01*
X69850000Y-114986928D01*
X69725518Y-114999188D01*
X69605820Y-115035498D01*
X69495506Y-115094463D01*
X69398815Y-115173815D01*
X69319463Y-115270506D01*
X69260498Y-115380820D01*
X69224188Y-115500518D01*
X69211928Y-115625000D01*
X66851774Y-115625000D01*
X66816554Y-115601467D01*
X66118628Y-115312377D01*
X65377715Y-115165000D01*
X64622285Y-115165000D01*
X63881372Y-115312377D01*
X63183446Y-115601467D01*
X62555330Y-116021161D01*
X62021161Y-116555330D01*
X61601467Y-117183446D01*
X61312377Y-117881372D01*
X61165000Y-118622285D01*
X60960000Y-118622285D01*
X60960000Y-114735000D01*
X88990000Y-114735000D01*
X88990001Y-129190000D01*
%TA.AperFunction,Conductor*%
D19*
G36*
X88990001Y-129190000D02*
G01*
X82637812Y-129190000D01*
X82635000Y-128810750D01*
X82476250Y-128652000D01*
X81527000Y-128652000D01*
X81527000Y-128672000D01*
X81273000Y-128672000D01*
X81273000Y-128652000D01*
X81253000Y-128652000D01*
X81253000Y-128398000D01*
X81273000Y-128398000D01*
X81273000Y-126427000D01*
X81527000Y-126427000D01*
X81527000Y-128398000D01*
X82476250Y-128398000D01*
X82635000Y-128239250D01*
X82638072Y-127825000D01*
X82625812Y-127700518D01*
X82589502Y-127580820D01*
X82530537Y-127470506D01*
X82451185Y-127373815D01*
X82429372Y-127355914D01*
X82430537Y-127354494D01*
X82489502Y-127244180D01*
X82525812Y-127124482D01*
X82538072Y-127000000D01*
X82535000Y-126585750D01*
X82376250Y-126427000D01*
X81527000Y-126427000D01*
X81273000Y-126427000D01*
X81253000Y-126427000D01*
X81253000Y-126173000D01*
X81273000Y-126173000D01*
X81273000Y-126153000D01*
X81527000Y-126153000D01*
X81527000Y-126173000D01*
X82376250Y-126173000D01*
X82535000Y-126014250D01*
X82538072Y-125600000D01*
X82525812Y-125475518D01*
X82489502Y-125355820D01*
X82430537Y-125245506D01*
X82351185Y-125148815D01*
X82254494Y-125069463D01*
X82144180Y-125010498D01*
X82024482Y-124974188D01*
X81900000Y-124961928D01*
X81685750Y-124965000D01*
X81527002Y-125123748D01*
X81527002Y-125067565D01*
X81539502Y-125044180D01*
X81575812Y-124924482D01*
X81588072Y-124800000D01*
X81588072Y-123400000D01*
X81575812Y-123275518D01*
X81539502Y-123155820D01*
X81480537Y-123045506D01*
X81401185Y-122948815D01*
X81304494Y-122869463D01*
X81194180Y-122810498D01*
X81074482Y-122774188D01*
X80950000Y-122761928D01*
X79950000Y-122761928D01*
X79825518Y-122774188D01*
X79705820Y-122810498D01*
X79595506Y-122869463D01*
X79498815Y-122948815D01*
X79419463Y-123045506D01*
X79360498Y-123155820D01*
X79324188Y-123275518D01*
X79311928Y-123400000D01*
X79311928Y-123415000D01*
X78928711Y-123415000D01*
X78884774Y-123371063D01*
X78715256Y-123257795D01*
X78526898Y-123179774D01*
X78326939Y-123140000D01*
X78123061Y-123140000D01*
X77923102Y-123179774D01*
X77810000Y-123226623D01*
X77810000Y-122706046D01*
X77904494Y-122655537D01*
X78001185Y-122576185D01*
X78080537Y-122479494D01*
X78139502Y-122369180D01*
X78175812Y-122249482D01*
X78188072Y-122125000D01*
X78188072Y-119063095D01*
X78198815Y-119076185D01*
X78295506Y-119155537D01*
X78405820Y-119214502D01*
X78525518Y-119250812D01*
X78650000Y-119263072D01*
X80250000Y-119263072D01*
X80374482Y-119250812D01*
X80494180Y-119214502D01*
X80604494Y-119155537D01*
X80701185Y-119076185D01*
X80780537Y-118979494D01*
X80839502Y-118869180D01*
X80875812Y-118749482D01*
X80888072Y-118625000D01*
X80888072Y-118622285D01*
X81165000Y-118622285D01*
X81165000Y-119377715D01*
X81312377Y-120118628D01*
X81601467Y-120816554D01*
X82021161Y-121444670D01*
X82555330Y-121978839D01*
X83183446Y-122398533D01*
X83881372Y-122687623D01*
X84622285Y-122835000D01*
X85377715Y-122835000D01*
X86118628Y-122687623D01*
X86816554Y-122398533D01*
X87444670Y-121978839D01*
X87978839Y-121444670D01*
X88398533Y-120816554D01*
X88687623Y-120118628D01*
X88835000Y-119377715D01*
X88835000Y-118622285D01*
X88687623Y-117881372D01*
X88398533Y-117183446D01*
X87978839Y-116555330D01*
X87444670Y-116021161D01*
X86816554Y-115601467D01*
X86118628Y-115312377D01*
X85377715Y-115165000D01*
X84622285Y-115165000D01*
X83881372Y-115312377D01*
X83183446Y-115601467D01*
X82555330Y-116021161D01*
X82021161Y-116555330D01*
X81601467Y-117183446D01*
X81312377Y-117881372D01*
X81165000Y-118622285D01*
X80888072Y-118622285D01*
X80888072Y-115625000D01*
X80875812Y-115500518D01*
X80839502Y-115380820D01*
X80780537Y-115270506D01*
X80701185Y-115173815D01*
X80604494Y-115094463D01*
X80494180Y-115035498D01*
X80374482Y-114999188D01*
X80250000Y-114986928D01*
X78650000Y-114986928D01*
X78525518Y-114999188D01*
X78405820Y-115035498D01*
X78295506Y-115094463D01*
X78198815Y-115173815D01*
X78119463Y-115270506D01*
X78060498Y-115380820D01*
X78024188Y-115500518D01*
X78011928Y-115625000D01*
X78011928Y-116186905D01*
X78001185Y-116173815D01*
X77904494Y-116094463D01*
X77794180Y-116035498D01*
X77674482Y-115999188D01*
X77550000Y-115986928D01*
X76550000Y-115986928D01*
X76425518Y-115999188D01*
X76305820Y-116035498D01*
X76195506Y-116094463D01*
X76098815Y-116173815D01*
X76050000Y-116233296D01*
X76001185Y-116173815D01*
X75904494Y-116094463D01*
X75794180Y-116035498D01*
X75674482Y-115999188D01*
X75550000Y-115986928D01*
X74550000Y-115986928D01*
X74425518Y-115999188D01*
X74305820Y-116035498D01*
X74195506Y-116094463D01*
X74098815Y-116173815D01*
X74050000Y-116233296D01*
X74001185Y-116173815D01*
X73904494Y-116094463D01*
X73794180Y-116035498D01*
X73674482Y-115999188D01*
X73550000Y-115986928D01*
X73335750Y-115990000D01*
X73177000Y-116148750D01*
X73177000Y-119248000D01*
X73197000Y-119248000D01*
X73197000Y-119502000D01*
X73177000Y-119502000D01*
X73177000Y-122601250D01*
X73335750Y-122760000D01*
X73550000Y-122763072D01*
X73591183Y-122759016D01*
X73589002Y-122761196D01*
X73559999Y-122784999D01*
X73536202Y-122813996D01*
X72835199Y-123515000D01*
X71107976Y-123515000D01*
X71063405Y-123431613D01*
X70952962Y-123297038D01*
X70818387Y-123186595D01*
X70664851Y-123104528D01*
X70498255Y-123053992D01*
X70325001Y-123036928D01*
X69424999Y-123036928D01*
X69251745Y-123053992D01*
X69085149Y-123104528D01*
X68931613Y-123186595D01*
X68797038Y-123297038D01*
X68686595Y-123431613D01*
X68604528Y-123585149D01*
X68553992Y-123751745D01*
X68536928Y-123924999D01*
X68536928Y-124625001D01*
X68553992Y-124798255D01*
X68604528Y-124964851D01*
X68686595Y-125118387D01*
X68797038Y-125252962D01*
X68823891Y-125275000D01*
X68797038Y-125297038D01*
X68686595Y-125431613D01*
X68604528Y-125585149D01*
X68553992Y-125751745D01*
X68536928Y-125924999D01*
X68536928Y-126625001D01*
X68553992Y-126798255D01*
X68604528Y-126964851D01*
X68686595Y-127118387D01*
X68797038Y-127252962D01*
X68931613Y-127363405D01*
X69085149Y-127445472D01*
X69251745Y-127496008D01*
X69424999Y-127513072D01*
X70325001Y-127513072D01*
X70498255Y-127496008D01*
X70664851Y-127445472D01*
X70818387Y-127363405D01*
X70952962Y-127252962D01*
X71063405Y-127118387D01*
X71145472Y-126964851D01*
X71150090Y-126949628D01*
X71224276Y-126909974D01*
X71340001Y-126815001D01*
X71363804Y-126785998D01*
X71789801Y-126360000D01*
X71851939Y-126360000D01*
X72051898Y-126320226D01*
X72240256Y-126242205D01*
X72409774Y-126128937D01*
X72553937Y-125984774D01*
X72667205Y-125815256D01*
X72745226Y-125626898D01*
X72785000Y-125426939D01*
X72785000Y-125223061D01*
X72747593Y-125035000D01*
X73112678Y-125035000D01*
X73150000Y-125038676D01*
X73187322Y-125035000D01*
X73187333Y-125035000D01*
X73298986Y-125024003D01*
X73340000Y-125011562D01*
X73340001Y-126529638D01*
X73146011Y-126568225D01*
X72893957Y-126672629D01*
X72667114Y-126824201D01*
X72474201Y-127017114D01*
X72322629Y-127243957D01*
X72218225Y-127496011D01*
X72165000Y-127763589D01*
X72165000Y-128036411D01*
X72218225Y-128303989D01*
X72322629Y-128556043D01*
X72474201Y-128782886D01*
X72667114Y-128975799D01*
X72893957Y-129127371D01*
X73045157Y-129190000D01*
X60960000Y-129190000D01*
X60960000Y-118622285D01*
X61165000Y-118622285D01*
X61165000Y-119377715D01*
X61312377Y-120118628D01*
X61601467Y-120816554D01*
X62021161Y-121444670D01*
X62555330Y-121978839D01*
X63183446Y-122398533D01*
X63881372Y-122687623D01*
X64622285Y-122835000D01*
X65377715Y-122835000D01*
X66118628Y-122687623D01*
X66816554Y-122398533D01*
X67225924Y-122125000D01*
X71911928Y-122125000D01*
X71924188Y-122249482D01*
X71960498Y-122369180D01*
X72019463Y-122479494D01*
X72098815Y-122576185D01*
X72195506Y-122655537D01*
X72305820Y-122714502D01*
X72425518Y-122750812D01*
X72550000Y-122763072D01*
X72764250Y-122760000D01*
X72923000Y-122601250D01*
X72923000Y-119502000D01*
X72073750Y-119502000D01*
X71915000Y-119660750D01*
X71911928Y-122125000D01*
X67225924Y-122125000D01*
X67444670Y-121978839D01*
X67978839Y-121444670D01*
X68398533Y-120816554D01*
X68687623Y-120118628D01*
X68835000Y-119377715D01*
X68835000Y-118622285D01*
X68687623Y-117881372D01*
X68398533Y-117183446D01*
X67978839Y-116555330D01*
X67444670Y-116021161D01*
X66851774Y-115625000D01*
X69211928Y-115625000D01*
X69211928Y-118625000D01*
X69224188Y-118749482D01*
X69260498Y-118869180D01*
X69319463Y-118979494D01*
X69398815Y-119076185D01*
X69495506Y-119155537D01*
X69605820Y-119214502D01*
X69725518Y-119250812D01*
X69850000Y-119263072D01*
X71450000Y-119263072D01*
X71574482Y-119250812D01*
X71694180Y-119214502D01*
X71804494Y-119155537D01*
X71901185Y-119076185D01*
X71914963Y-119059397D01*
X71915000Y-119089250D01*
X72073750Y-119248000D01*
X72923000Y-119248000D01*
X72923000Y-116148750D01*
X72764250Y-115990000D01*
X72550000Y-115986928D01*
X72425518Y-115999188D01*
X72305820Y-116035498D01*
X72195506Y-116094463D01*
X72098815Y-116173815D01*
X72088072Y-116186905D01*
X72088072Y-115625000D01*
X72075812Y-115500518D01*
X72039502Y-115380820D01*
X71980537Y-115270506D01*
X71901185Y-115173815D01*
X71804494Y-115094463D01*
X71694180Y-115035498D01*
X71574482Y-114999188D01*
X71450000Y-114986928D01*
X69850000Y-114986928D01*
X69725518Y-114999188D01*
X69605820Y-115035498D01*
X69495506Y-115094463D01*
X69398815Y-115173815D01*
X69319463Y-115270506D01*
X69260498Y-115380820D01*
X69224188Y-115500518D01*
X69211928Y-115625000D01*
X66851774Y-115625000D01*
X66816554Y-115601467D01*
X66118628Y-115312377D01*
X65377715Y-115165000D01*
X64622285Y-115165000D01*
X63881372Y-115312377D01*
X63183446Y-115601467D01*
X62555330Y-116021161D01*
X62021161Y-116555330D01*
X61601467Y-117183446D01*
X61312377Y-117881372D01*
X61165000Y-118622285D01*
X60960000Y-118622285D01*
X60960000Y-114735000D01*
X88990000Y-114735000D01*
X88990001Y-129190000D01*
G37*
%TD.AperFunction*%
D18*
X76098815Y-122576185D02*
X76195506Y-122655537D01*
X76290000Y-122706046D01*
X76290000Y-124562677D01*
X76286324Y-124600000D01*
X76290000Y-124637322D01*
X76290000Y-124637332D01*
X76300997Y-124748985D01*
X76340905Y-124880546D01*
X76344454Y-124892246D01*
X76415026Y-125024276D01*
X76426844Y-125038676D01*
X76509999Y-125140001D01*
X76539003Y-125163804D01*
X78186201Y-126811003D01*
X78209999Y-126840001D01*
X78238997Y-126863799D01*
X78325723Y-126934974D01*
X78340752Y-126943007D01*
X78361928Y-126954326D01*
X78361928Y-127000000D01*
X78374188Y-127124482D01*
X78410498Y-127244180D01*
X78469463Y-127354494D01*
X78495759Y-127386536D01*
X78422038Y-127447038D01*
X78311595Y-127581613D01*
X78229528Y-127735149D01*
X78178992Y-127901745D01*
X78161928Y-128074999D01*
X78161928Y-128975001D01*
X78178992Y-129148255D01*
X78191655Y-129190000D01*
X77005475Y-129190000D01*
X77098832Y-129156277D01*
X77211863Y-129095860D01*
X77277388Y-128856993D01*
X76500000Y-128079605D01*
X75722612Y-128856993D01*
X75788137Y-129095860D01*
X75988746Y-129190000D01*
X74054843Y-129190000D01*
X74206043Y-129127371D01*
X74432886Y-128975799D01*
X74625799Y-128782886D01*
X74777371Y-128556043D01*
X74881775Y-128303989D01*
X74935000Y-128036411D01*
X74935000Y-127972492D01*
X75110188Y-127972492D01*
X75151035Y-128242238D01*
X75243723Y-128498832D01*
X75304140Y-128611863D01*
X75543007Y-128677388D01*
X76320395Y-127900000D01*
X76679605Y-127900000D01*
X77456993Y-128677388D01*
X77695860Y-128611863D01*
X77811760Y-128364884D01*
X77877250Y-128100040D01*
X77889812Y-127827508D01*
X77848965Y-127557762D01*
X77756277Y-127301168D01*
X77695860Y-127188137D01*
X77456993Y-127122612D01*
X76679605Y-127900000D01*
X76320395Y-127900000D01*
X75543007Y-127122612D01*
X75304140Y-127188137D01*
X75188240Y-127435116D01*
X75122750Y-127699960D01*
X75110188Y-127972492D01*
X74935000Y-127972492D01*
X74935000Y-127763589D01*
X74881775Y-127496011D01*
X74855535Y-127432663D01*
X74860000Y-127387333D01*
X74860000Y-127387324D01*
X74863676Y-127350001D01*
X74860000Y-127312678D01*
X74860000Y-126943007D01*
X75722612Y-126943007D01*
X76500000Y-127720395D01*
X77277388Y-126943007D01*
X77211863Y-126704140D01*
X76964884Y-126588240D01*
X76700040Y-126522750D01*
X76427508Y-126510188D01*
X76157762Y-126551035D01*
X75901168Y-126643723D01*
X75788137Y-126704140D01*
X75722612Y-126943007D01*
X74860000Y-126943007D01*
X74860000Y-123639801D01*
X75561003Y-122938799D01*
X75590001Y-122915001D01*
X75627373Y-122869463D01*
X75684974Y-122799277D01*
X75717923Y-122737634D01*
X75794180Y-122714502D01*
X75904494Y-122655537D01*
X76001185Y-122576185D01*
X76050000Y-122516704D01*
X76098815Y-122576185D01*
%TA.AperFunction,Conductor*%
D19*
G36*
X76098815Y-122576185D02*
G01*
X76195506Y-122655537D01*
X76290000Y-122706046D01*
X76290000Y-124562677D01*
X76286324Y-124600000D01*
X76290000Y-124637322D01*
X76290000Y-124637332D01*
X76300997Y-124748985D01*
X76340905Y-124880546D01*
X76344454Y-124892246D01*
X76415026Y-125024276D01*
X76426844Y-125038676D01*
X76509999Y-125140001D01*
X76539003Y-125163804D01*
X78186201Y-126811003D01*
X78209999Y-126840001D01*
X78238997Y-126863799D01*
X78325723Y-126934974D01*
X78340752Y-126943007D01*
X78361928Y-126954326D01*
X78361928Y-127000000D01*
X78374188Y-127124482D01*
X78410498Y-127244180D01*
X78469463Y-127354494D01*
X78495759Y-127386536D01*
X78422038Y-127447038D01*
X78311595Y-127581613D01*
X78229528Y-127735149D01*
X78178992Y-127901745D01*
X78161928Y-128074999D01*
X78161928Y-128975001D01*
X78178992Y-129148255D01*
X78191655Y-129190000D01*
X77005475Y-129190000D01*
X77098832Y-129156277D01*
X77211863Y-129095860D01*
X77277388Y-128856993D01*
X76500000Y-128079605D01*
X75722612Y-128856993D01*
X75788137Y-129095860D01*
X75988746Y-129190000D01*
X74054843Y-129190000D01*
X74206043Y-129127371D01*
X74432886Y-128975799D01*
X74625799Y-128782886D01*
X74777371Y-128556043D01*
X74881775Y-128303989D01*
X74935000Y-128036411D01*
X74935000Y-127972492D01*
X75110188Y-127972492D01*
X75151035Y-128242238D01*
X75243723Y-128498832D01*
X75304140Y-128611863D01*
X75543007Y-128677388D01*
X76320395Y-127900000D01*
X76679605Y-127900000D01*
X77456993Y-128677388D01*
X77695860Y-128611863D01*
X77811760Y-128364884D01*
X77877250Y-128100040D01*
X77889812Y-127827508D01*
X77848965Y-127557762D01*
X77756277Y-127301168D01*
X77695860Y-127188137D01*
X77456993Y-127122612D01*
X76679605Y-127900000D01*
X76320395Y-127900000D01*
X75543007Y-127122612D01*
X75304140Y-127188137D01*
X75188240Y-127435116D01*
X75122750Y-127699960D01*
X75110188Y-127972492D01*
X74935000Y-127972492D01*
X74935000Y-127763589D01*
X74881775Y-127496011D01*
X74855535Y-127432663D01*
X74860000Y-127387333D01*
X74860000Y-127387324D01*
X74863676Y-127350001D01*
X74860000Y-127312678D01*
X74860000Y-126943007D01*
X75722612Y-126943007D01*
X76500000Y-127720395D01*
X77277388Y-126943007D01*
X77211863Y-126704140D01*
X76964884Y-126588240D01*
X76700040Y-126522750D01*
X76427508Y-126510188D01*
X76157762Y-126551035D01*
X75901168Y-126643723D01*
X75788137Y-126704140D01*
X75722612Y-126943007D01*
X74860000Y-126943007D01*
X74860000Y-123639801D01*
X75561003Y-122938799D01*
X75590001Y-122915001D01*
X75627373Y-122869463D01*
X75684974Y-122799277D01*
X75717923Y-122737634D01*
X75794180Y-122714502D01*
X75904494Y-122655537D01*
X76001185Y-122576185D01*
X76050000Y-122516704D01*
X76098815Y-122576185D01*
G37*
%TD.AperFunction*%
%TD*%
M02*
