M48
; DRILL file {KiCad (5.1.8-0-10_14)} date Thursday, March 11, 2021 at 12:17:26 PM
; FORMAT={-:-/ absolute / inch / decimal}
; #@! TF.CreationDate,2021-03-11T12:17:26+11:00
; #@! TF.GenerationSoftware,Kicad,Pcbnew,(5.1.8-0-10_14)
; #@! TF.FileFunction,Plated,1,2,PTH
FMAT,2
INCH
T1C0.0157
T2C0.0197
T3C0.1260
%
G90
G05
T1
X2.8248Y-4.9341
X2.8268Y-4.8583
X3.0Y-4.8504
X3.0797Y-4.8888
T2
X3.252Y-4.685
X3.2796Y-4.6182
X3.2796Y-4.7519
X3.3465Y-4.5906
X3.3465Y-4.7795
X3.4133Y-4.6182
X3.4133Y-4.7519
X3.4409Y-4.685
X2.4646Y-4.685
X2.4922Y-4.6182
X2.4922Y-4.7519
X2.5591Y-4.5906
X2.5591Y-4.7795
X2.6259Y-4.6182
X2.6259Y-4.7519
X2.6535Y-4.685
T3
X3.3465Y-4.685
X2.5591Y-4.685
T0
M30
