M48
; DRILL file {KiCad (5.1.8-0-10_14)} date Sunday, December 27, 2020 at 09:31:55 AM
; FORMAT={-:-/ absolute / inch / decimal}
; #@! TF.CreationDate,2020-12-27T09:31:55+11:00
; #@! TF.GenerationSoftware,Kicad,Pcbnew,(5.1.8-0-10_14)
; #@! TF.FileFunction,Plated,1,2,PTH
FMAT,2
INCH
T1C0.0157
T2C0.0299
T3C0.0394
T4C0.0433
T5C0.0450
T6C0.0520
T7C0.1260
%
G90
G05
T1
X5.83Y-3.32
X5.84Y-3.13
X6.01Y-4.02
X6.09Y-3.09
X6.1Y-3.62
X6.14Y-3.28
X6.17Y-3.1794
X6.1811Y-3.2972
X6.22Y-3.65
X6.22Y-3.98
X6.23Y-3.17
X6.2301Y-3.8599
X6.24Y-3.92
X6.28Y-3.29
X6.36Y-3.1
X6.36Y-3.28
X6.4Y-3.47
X6.4Y-3.63
X6.4Y-3.93
X6.43Y-3.78
X6.44Y-4.03
X6.47Y-3.47
X6.51Y-4.03
X6.56Y-3.63
X6.57Y-3.0
X6.57Y-3.41
X6.59Y-3.32
X6.6Y-3.04
X6.6Y-3.08
X6.6Y-3.15
X6.62Y-4.0
X6.63Y-3.23
X6.64Y-3.41
X6.65Y-3.04
X6.65Y-3.08
X6.65Y-3.12
X6.65Y-3.19
X6.65Y-3.31
X6.66Y-3.69
X6.7Y-3.04
X6.72Y-3.41
X6.74Y-3.69
X6.76Y-3.74
X6.8Y-3.41
X6.82Y-3.69
X6.82Y-3.74
X6.83Y-3.06
X6.84Y-3.0
X6.88Y-3.19
X6.88Y-3.41
X6.9Y-3.06
X6.9Y-3.69
X6.9Y-3.74
X7.24Y-3.66
X7.24Y-3.71
X7.28Y-3.47
X7.3Y-3.43
X7.3Y-3.66
X7.3Y-3.71
X7.35Y-3.42
X7.3581Y-3.4819
X7.36Y-3.66
X7.36Y-3.71
X7.4Y-3.43
X7.41Y-3.47
X7.41Y-3.66
X7.41Y-3.71
T3
X5.7965Y-3.2283
X5.8965Y-3.2283
T4
X5.1581Y-2.9388
X5.1581Y-3.5388
X5.2581Y-2.9388
X5.2581Y-3.5388
X5.3581Y-2.9388
X5.3581Y-3.5388
X5.4581Y-2.9388
X5.4581Y-3.5388
X5.5581Y-2.9388
X5.5581Y-3.5388
X5.6581Y-2.9388
X5.6581Y-3.5388
X5.7581Y-2.9388
X5.7581Y-3.5388
X5.8581Y-2.9388
X5.8581Y-3.5388
X5.9581Y-2.9388
X5.9581Y-3.5388
X6.0581Y-2.9388
X6.0581Y-3.5388
X6.1581Y-2.9388
X6.1581Y-3.5388
X6.2581Y-2.9388
X6.2581Y-3.5388
X6.3581Y-2.9388
X6.3581Y-3.5388
X6.4581Y-2.9388
X6.4581Y-3.5388
X6.5581Y-2.9388
X6.5581Y-3.5388
X6.6581Y-2.9388
X6.6581Y-3.5388
X6.7581Y-2.9388
X6.7581Y-3.5388
X6.8581Y-2.9388
X6.8581Y-3.5388
X6.9581Y-2.9388
X6.9581Y-3.5388
X7.0581Y-2.9388
X7.0581Y-3.5388
X7.1581Y-2.9388
X7.1581Y-3.5388
X7.2581Y-2.9388
X7.2581Y-3.5388
X7.3581Y-2.9388
X7.3581Y-3.5388
X7.4581Y-2.9388
X7.4581Y-3.5388
T5
X5.7618Y-3.7185
X5.7618Y-3.8185
X5.7618Y-3.9185
T6
X5.3661Y-3.7717
X5.3661Y-3.9685
X6.25Y-4.15
X6.35Y-4.15
X6.45Y-4.15
T7
X5.33Y-3.2283
X7.28Y-3.2283
T2
G00X7.0245Y-3.9951
M15
G01X7.0245Y-3.9049
M16
G05
G00X7.0849Y-3.7669
M15
G01X7.1751Y-3.7669
M16
G05
G00X7.258Y-3.9951
M15
G01X7.258Y-3.9049
M16
G05
T0
M30
