%TF.GenerationSoftware,KiCad,Pcbnew,(5.1.8-0-10_14)*%
%TF.CreationDate,2020-12-27T09:31:58+11:00*%
%TF.ProjectId,Open-JIP(KiCad)_T3.6,4f70656e-2d4a-4495-9028-4b6943616429,rev?*%
%TF.SameCoordinates,Original*%
%TF.FileFunction,Soldermask,Top*%
%TF.FilePolarity,Negative*%
%FSLAX46Y46*%
G04 Gerber Fmt 4.6, Leading zero omitted, Abs format (unit mm)*
G04 Created by KiCad (PCBNEW (5.1.8-0-10_14)) date 2020-12-27 09:31:58*
%MOMM*%
%LPD*%
G01*
G04 APERTURE LIST*
%ADD10C,1.000000*%
%ADD11C,5.700000*%
%ADD12C,1.600000*%
%ADD13R,1.600000X1.600000*%
%ADD14O,1.900000X3.800000*%
%ADD15O,3.800000X1.900000*%
%ADD16R,1.651000X1.651000*%
%ADD17C,1.651000*%
%ADD18R,3.960000X1.980000*%
%ADD19O,3.960000X1.980000*%
%ADD20R,1.701800X0.533400*%
%ADD21R,0.533400X1.701800*%
%ADD22R,1.980000X1.980000*%
%ADD23C,1.980000*%
%ADD24R,1.210000X0.590000*%
G04 APERTURE END LIST*
D10*
%TO.C,D1*%
X147730000Y-82000000D02*
G75*
G03*
X147730000Y-82000000I-500000J0D01*
G01*
X150270000Y-82000000D02*
G75*
G03*
X150270000Y-82000000I-500000J0D01*
G01*
%TD*%
D11*
%TO.C,REF\u002A\u002A*%
X184912000Y-82000000D03*
%TD*%
D12*
%TO.C,U5*%
X148795001Y-74645001D03*
X146255001Y-74645001D03*
X143715001Y-74645001D03*
X141175001Y-74645001D03*
X151335001Y-74645001D03*
X153875001Y-74645001D03*
X156415001Y-74645001D03*
X138635001Y-74645001D03*
X136095001Y-74645001D03*
X133555001Y-74645001D03*
X131015001Y-74645001D03*
X131015001Y-89885001D03*
X133555001Y-89885001D03*
X136095001Y-89885001D03*
X138635001Y-89885001D03*
X141175001Y-89885001D03*
X143715001Y-89885001D03*
X146255001Y-89885001D03*
X148795001Y-89885001D03*
X158955001Y-74645001D03*
X161495001Y-74645001D03*
X164035001Y-74645001D03*
X166575001Y-74645001D03*
X169115001Y-74645001D03*
X171655001Y-74645001D03*
X174195001Y-74645001D03*
X176735001Y-74645001D03*
X179275001Y-74645001D03*
X181815001Y-74645001D03*
X184355001Y-74645001D03*
X186895001Y-74645001D03*
D13*
X189435001Y-74645001D03*
D12*
X151335001Y-89885001D03*
X153875001Y-89885001D03*
X156415001Y-89885001D03*
X158955001Y-89885001D03*
X161495001Y-89885001D03*
X164035001Y-89885001D03*
X166575001Y-89885001D03*
X169115001Y-89885001D03*
X171655001Y-89885001D03*
X174195001Y-89885001D03*
X176735001Y-89885001D03*
X179275001Y-89885001D03*
X181815001Y-89885001D03*
X184355001Y-89885001D03*
X186895001Y-89885001D03*
X189435001Y-89885001D03*
%TD*%
D11*
%TO.C,REF\u002A\u002A*%
X135382000Y-82000000D03*
%TD*%
D14*
%TO.C,J1*%
X178422000Y-100330000D03*
X184352000Y-100330000D03*
D15*
X181102000Y-95680000D03*
%TD*%
%TO.C,R13*%
G36*
G01*
X173606000Y-98355999D02*
X173606000Y-99256001D01*
G75*
G02*
X173356001Y-99506000I-249999J0D01*
G01*
X172655999Y-99506000D01*
G75*
G02*
X172406000Y-99256001I0J249999D01*
G01*
X172406000Y-98355999D01*
G75*
G02*
X172655999Y-98106000I249999J0D01*
G01*
X173356001Y-98106000D01*
G75*
G02*
X173606000Y-98355999I0J-249999D01*
G01*
G37*
G36*
G01*
X175606000Y-98355999D02*
X175606000Y-99256001D01*
G75*
G02*
X175356001Y-99506000I-249999J0D01*
G01*
X174655999Y-99506000D01*
G75*
G02*
X174406000Y-99256001I0J249999D01*
G01*
X174406000Y-98355999D01*
G75*
G02*
X174655999Y-98106000I249999J0D01*
G01*
X175356001Y-98106000D01*
G75*
G02*
X175606000Y-98355999I0J-249999D01*
G01*
G37*
%TD*%
%TO.C,D3*%
G36*
G01*
X169859000Y-99256001D02*
X169859000Y-98355999D01*
G75*
G02*
X170108999Y-98106000I249999J0D01*
G01*
X170759001Y-98106000D01*
G75*
G02*
X171009000Y-98355999I0J-249999D01*
G01*
X171009000Y-99256001D01*
G75*
G02*
X170759001Y-99506000I-249999J0D01*
G01*
X170108999Y-99506000D01*
G75*
G02*
X169859000Y-99256001I0J249999D01*
G01*
G37*
G36*
G01*
X167809000Y-99256001D02*
X167809000Y-98355999D01*
G75*
G02*
X168058999Y-98106000I249999J0D01*
G01*
X168709001Y-98106000D01*
G75*
G02*
X168959000Y-98355999I0J-249999D01*
G01*
X168959000Y-99256001D01*
G75*
G02*
X168709001Y-99506000I-249999J0D01*
G01*
X168058999Y-99506000D01*
G75*
G02*
X167809000Y-99256001I0J249999D01*
G01*
G37*
%TD*%
%TO.C,C1*%
G36*
G01*
X152066500Y-87089000D02*
X152066500Y-86139000D01*
G75*
G02*
X152316500Y-85889000I250000J0D01*
G01*
X152991500Y-85889000D01*
G75*
G02*
X153241500Y-86139000I0J-250000D01*
G01*
X153241500Y-87089000D01*
G75*
G02*
X152991500Y-87339000I-250000J0D01*
G01*
X152316500Y-87339000D01*
G75*
G02*
X152066500Y-87089000I0J250000D01*
G01*
G37*
G36*
G01*
X149991500Y-87089000D02*
X149991500Y-86139000D01*
G75*
G02*
X150241500Y-85889000I250000J0D01*
G01*
X150916500Y-85889000D01*
G75*
G02*
X151166500Y-86139000I0J-250000D01*
G01*
X151166500Y-87089000D01*
G75*
G02*
X150916500Y-87339000I-250000J0D01*
G01*
X150241500Y-87339000D01*
G75*
G02*
X149991500Y-87089000I0J250000D01*
G01*
G37*
%TD*%
%TO.C,C2*%
G36*
G01*
X170655000Y-107035000D02*
X169705000Y-107035000D01*
G75*
G02*
X169455000Y-106785000I0J250000D01*
G01*
X169455000Y-106110000D01*
G75*
G02*
X169705000Y-105860000I250000J0D01*
G01*
X170655000Y-105860000D01*
G75*
G02*
X170905000Y-106110000I0J-250000D01*
G01*
X170905000Y-106785000D01*
G75*
G02*
X170655000Y-107035000I-250000J0D01*
G01*
G37*
G36*
G01*
X170655000Y-104960000D02*
X169705000Y-104960000D01*
G75*
G02*
X169455000Y-104710000I0J250000D01*
G01*
X169455000Y-104035000D01*
G75*
G02*
X169705000Y-103785000I250000J0D01*
G01*
X170655000Y-103785000D01*
G75*
G02*
X170905000Y-104035000I0J-250000D01*
G01*
X170905000Y-104710000D01*
G75*
G02*
X170655000Y-104960000I-250000J0D01*
G01*
G37*
%TD*%
%TO.C,C3*%
G36*
G01*
X162612500Y-77475000D02*
X162612500Y-76525000D01*
G75*
G02*
X162862500Y-76275000I250000J0D01*
G01*
X163537500Y-76275000D01*
G75*
G02*
X163787500Y-76525000I0J-250000D01*
G01*
X163787500Y-77475000D01*
G75*
G02*
X163537500Y-77725000I-250000J0D01*
G01*
X162862500Y-77725000D01*
G75*
G02*
X162612500Y-77475000I0J250000D01*
G01*
G37*
G36*
G01*
X164687500Y-77475000D02*
X164687500Y-76525000D01*
G75*
G02*
X164937500Y-76275000I250000J0D01*
G01*
X165612500Y-76275000D01*
G75*
G02*
X165862500Y-76525000I0J-250000D01*
G01*
X165862500Y-77475000D01*
G75*
G02*
X165612500Y-77725000I-250000J0D01*
G01*
X164937500Y-77725000D01*
G75*
G02*
X164687500Y-77475000I0J250000D01*
G01*
G37*
%TD*%
%TO.C,C4*%
G36*
G01*
X152687000Y-105606000D02*
X153637000Y-105606000D01*
G75*
G02*
X153887000Y-105856000I0J-250000D01*
G01*
X153887000Y-106531000D01*
G75*
G02*
X153637000Y-106781000I-250000J0D01*
G01*
X152687000Y-106781000D01*
G75*
G02*
X152437000Y-106531000I0J250000D01*
G01*
X152437000Y-105856000D01*
G75*
G02*
X152687000Y-105606000I250000J0D01*
G01*
G37*
G36*
G01*
X152687000Y-103531000D02*
X153637000Y-103531000D01*
G75*
G02*
X153887000Y-103781000I0J-250000D01*
G01*
X153887000Y-104456000D01*
G75*
G02*
X153637000Y-104706000I-250000J0D01*
G01*
X152687000Y-104706000D01*
G75*
G02*
X152437000Y-104456000I0J250000D01*
G01*
X152437000Y-103781000D01*
G75*
G02*
X152687000Y-103531000I250000J0D01*
G01*
G37*
%TD*%
%TO.C,C5*%
G36*
G01*
X156525000Y-85887500D02*
X155575000Y-85887500D01*
G75*
G02*
X155325000Y-85637500I0J250000D01*
G01*
X155325000Y-84962500D01*
G75*
G02*
X155575000Y-84712500I250000J0D01*
G01*
X156525000Y-84712500D01*
G75*
G02*
X156775000Y-84962500I0J-250000D01*
G01*
X156775000Y-85637500D01*
G75*
G02*
X156525000Y-85887500I-250000J0D01*
G01*
G37*
G36*
G01*
X156525000Y-87962500D02*
X155575000Y-87962500D01*
G75*
G02*
X155325000Y-87712500I0J250000D01*
G01*
X155325000Y-87037500D01*
G75*
G02*
X155575000Y-86787500I250000J0D01*
G01*
X156525000Y-86787500D01*
G75*
G02*
X156775000Y-87037500I0J-250000D01*
G01*
X156775000Y-87712500D01*
G75*
G02*
X156525000Y-87962500I-250000J0D01*
G01*
G37*
%TD*%
%TO.C,C6*%
G36*
G01*
X159380500Y-76995000D02*
X159380500Y-77945000D01*
G75*
G02*
X159130500Y-78195000I-250000J0D01*
G01*
X158455500Y-78195000D01*
G75*
G02*
X158205500Y-77945000I0J250000D01*
G01*
X158205500Y-76995000D01*
G75*
G02*
X158455500Y-76745000I250000J0D01*
G01*
X159130500Y-76745000D01*
G75*
G02*
X159380500Y-76995000I0J-250000D01*
G01*
G37*
G36*
G01*
X157305500Y-76995000D02*
X157305500Y-77945000D01*
G75*
G02*
X157055500Y-78195000I-250000J0D01*
G01*
X156380500Y-78195000D01*
G75*
G02*
X156130500Y-77945000I0J250000D01*
G01*
X156130500Y-76995000D01*
G75*
G02*
X156380500Y-76745000I250000J0D01*
G01*
X157055500Y-76745000D01*
G75*
G02*
X157305500Y-76995000I0J-250000D01*
G01*
G37*
%TD*%
%TO.C,C7*%
G36*
G01*
X143950000Y-105950000D02*
X143950000Y-104850000D01*
G75*
G02*
X144200000Y-104600000I250000J0D01*
G01*
X146300000Y-104600000D01*
G75*
G02*
X146550000Y-104850000I0J-250000D01*
G01*
X146550000Y-105950000D01*
G75*
G02*
X146300000Y-106200000I-250000J0D01*
G01*
X144200000Y-106200000D01*
G75*
G02*
X143950000Y-105950000I0J250000D01*
G01*
G37*
G36*
G01*
X147550000Y-105950000D02*
X147550000Y-104850000D01*
G75*
G02*
X147800000Y-104600000I250000J0D01*
G01*
X149900000Y-104600000D01*
G75*
G02*
X150150000Y-104850000I0J-250000D01*
G01*
X150150000Y-105950000D01*
G75*
G02*
X149900000Y-106200000I-250000J0D01*
G01*
X147800000Y-106200000D01*
G75*
G02*
X147550000Y-105950000I0J250000D01*
G01*
G37*
%TD*%
D16*
%TO.C,CR1*%
X146350000Y-94450000D03*
D17*
X146350000Y-96990000D03*
X146350000Y-99530000D03*
%TD*%
%TO.C,D2*%
G36*
G01*
X167809000Y-97036001D02*
X167809000Y-96135999D01*
G75*
G02*
X168058999Y-95886000I249999J0D01*
G01*
X168709001Y-95886000D01*
G75*
G02*
X168959000Y-96135999I0J-249999D01*
G01*
X168959000Y-97036001D01*
G75*
G02*
X168709001Y-97286000I-249999J0D01*
G01*
X168058999Y-97286000D01*
G75*
G02*
X167809000Y-97036001I0J249999D01*
G01*
G37*
G36*
G01*
X169859000Y-97036001D02*
X169859000Y-96135999D01*
G75*
G02*
X170108999Y-95886000I249999J0D01*
G01*
X170759001Y-95886000D01*
G75*
G02*
X171009000Y-96135999I0J-249999D01*
G01*
X171009000Y-97036001D01*
G75*
G02*
X170759001Y-97286000I-249999J0D01*
G01*
X170108999Y-97286000D01*
G75*
G02*
X169859000Y-97036001I0J249999D01*
G01*
G37*
%TD*%
D18*
%TO.C,J2*%
X136300000Y-95800000D03*
D19*
X136300000Y-100800000D03*
%TD*%
%TO.C,R1*%
G36*
G01*
X160470001Y-82356000D02*
X159569999Y-82356000D01*
G75*
G02*
X159320000Y-82106001I0J249999D01*
G01*
X159320000Y-81405999D01*
G75*
G02*
X159569999Y-81156000I249999J0D01*
G01*
X160470001Y-81156000D01*
G75*
G02*
X160720000Y-81405999I0J-249999D01*
G01*
X160720000Y-82106001D01*
G75*
G02*
X160470001Y-82356000I-249999J0D01*
G01*
G37*
G36*
G01*
X160470001Y-80356000D02*
X159569999Y-80356000D01*
G75*
G02*
X159320000Y-80106001I0J249999D01*
G01*
X159320000Y-79405999D01*
G75*
G02*
X159569999Y-79156000I249999J0D01*
G01*
X160470001Y-79156000D01*
G75*
G02*
X160720000Y-79405999I0J-249999D01*
G01*
X160720000Y-80106001D01*
G75*
G02*
X160470001Y-80356000I-249999J0D01*
G01*
G37*
%TD*%
%TO.C,R2*%
G36*
G01*
X158750001Y-85900000D02*
X157849999Y-85900000D01*
G75*
G02*
X157600000Y-85650001I0J249999D01*
G01*
X157600000Y-84949999D01*
G75*
G02*
X157849999Y-84700000I249999J0D01*
G01*
X158750001Y-84700000D01*
G75*
G02*
X159000000Y-84949999I0J-249999D01*
G01*
X159000000Y-85650001D01*
G75*
G02*
X158750001Y-85900000I-249999J0D01*
G01*
G37*
G36*
G01*
X158750001Y-87900000D02*
X157849999Y-87900000D01*
G75*
G02*
X157600000Y-87650001I0J249999D01*
G01*
X157600000Y-86949999D01*
G75*
G02*
X157849999Y-86700000I249999J0D01*
G01*
X158750001Y-86700000D01*
G75*
G02*
X159000000Y-86949999I0J-249999D01*
G01*
X159000000Y-87650001D01*
G75*
G02*
X158750001Y-87900000I-249999J0D01*
G01*
G37*
%TD*%
%TO.C,R3*%
G36*
G01*
X162650000Y-85800001D02*
X162650000Y-84899999D01*
G75*
G02*
X162899999Y-84650000I249999J0D01*
G01*
X163600001Y-84650000D01*
G75*
G02*
X163850000Y-84899999I0J-249999D01*
G01*
X163850000Y-85800001D01*
G75*
G02*
X163600001Y-86050000I-249999J0D01*
G01*
X162899999Y-86050000D01*
G75*
G02*
X162650000Y-85800001I0J249999D01*
G01*
G37*
G36*
G01*
X164650000Y-85800001D02*
X164650000Y-84899999D01*
G75*
G02*
X164899999Y-84650000I249999J0D01*
G01*
X165600001Y-84650000D01*
G75*
G02*
X165850000Y-84899999I0J-249999D01*
G01*
X165850000Y-85800001D01*
G75*
G02*
X165600001Y-86050000I-249999J0D01*
G01*
X164899999Y-86050000D01*
G75*
G02*
X164650000Y-85800001I0J249999D01*
G01*
G37*
%TD*%
%TO.C,R4*%
G36*
G01*
X153600000Y-100750001D02*
X153600000Y-99849999D01*
G75*
G02*
X153849999Y-99600000I249999J0D01*
G01*
X154550001Y-99600000D01*
G75*
G02*
X154800000Y-99849999I0J-249999D01*
G01*
X154800000Y-100750001D01*
G75*
G02*
X154550001Y-101000000I-249999J0D01*
G01*
X153849999Y-101000000D01*
G75*
G02*
X153600000Y-100750001I0J249999D01*
G01*
G37*
G36*
G01*
X151600000Y-100750001D02*
X151600000Y-99849999D01*
G75*
G02*
X151849999Y-99600000I249999J0D01*
G01*
X152550001Y-99600000D01*
G75*
G02*
X152800000Y-99849999I0J-249999D01*
G01*
X152800000Y-100750001D01*
G75*
G02*
X152550001Y-101000000I-249999J0D01*
G01*
X151849999Y-101000000D01*
G75*
G02*
X151600000Y-100750001I0J249999D01*
G01*
G37*
%TD*%
%TO.C,R5*%
G36*
G01*
X164650000Y-83700001D02*
X164650000Y-82799999D01*
G75*
G02*
X164899999Y-82550000I249999J0D01*
G01*
X165600001Y-82550000D01*
G75*
G02*
X165850000Y-82799999I0J-249999D01*
G01*
X165850000Y-83700001D01*
G75*
G02*
X165600001Y-83950000I-249999J0D01*
G01*
X164899999Y-83950000D01*
G75*
G02*
X164650000Y-83700001I0J249999D01*
G01*
G37*
G36*
G01*
X162650000Y-83700001D02*
X162650000Y-82799999D01*
G75*
G02*
X162899999Y-82550000I249999J0D01*
G01*
X163600001Y-82550000D01*
G75*
G02*
X163850000Y-82799999I0J-249999D01*
G01*
X163850000Y-83700001D01*
G75*
G02*
X163600001Y-83950000I-249999J0D01*
G01*
X162899999Y-83950000D01*
G75*
G02*
X162650000Y-83700001I0J249999D01*
G01*
G37*
%TD*%
%TO.C,R6*%
G36*
G01*
X151600000Y-98650001D02*
X151600000Y-97749999D01*
G75*
G02*
X151849999Y-97500000I249999J0D01*
G01*
X152550001Y-97500000D01*
G75*
G02*
X152800000Y-97749999I0J-249999D01*
G01*
X152800000Y-98650001D01*
G75*
G02*
X152550001Y-98900000I-249999J0D01*
G01*
X151849999Y-98900000D01*
G75*
G02*
X151600000Y-98650001I0J249999D01*
G01*
G37*
G36*
G01*
X153600000Y-98650001D02*
X153600000Y-97749999D01*
G75*
G02*
X153849999Y-97500000I249999J0D01*
G01*
X154550001Y-97500000D01*
G75*
G02*
X154800000Y-97749999I0J-249999D01*
G01*
X154800000Y-98650001D01*
G75*
G02*
X154550001Y-98900000I-249999J0D01*
G01*
X153849999Y-98900000D01*
G75*
G02*
X153600000Y-98650001I0J249999D01*
G01*
G37*
%TD*%
%TO.C,R7*%
G36*
G01*
X160950001Y-87900000D02*
X160049999Y-87900000D01*
G75*
G02*
X159800000Y-87650001I0J249999D01*
G01*
X159800000Y-86949999D01*
G75*
G02*
X160049999Y-86700000I249999J0D01*
G01*
X160950001Y-86700000D01*
G75*
G02*
X161200000Y-86949999I0J-249999D01*
G01*
X161200000Y-87650001D01*
G75*
G02*
X160950001Y-87900000I-249999J0D01*
G01*
G37*
G36*
G01*
X160950001Y-85900000D02*
X160049999Y-85900000D01*
G75*
G02*
X159800000Y-85650001I0J249999D01*
G01*
X159800000Y-84949999D01*
G75*
G02*
X160049999Y-84700000I249999J0D01*
G01*
X160950001Y-84700000D01*
G75*
G02*
X161200000Y-84949999I0J-249999D01*
G01*
X161200000Y-85650001D01*
G75*
G02*
X160950001Y-85900000I-249999J0D01*
G01*
G37*
%TD*%
%TO.C,R8*%
G36*
G01*
X162650000Y-81600001D02*
X162650000Y-80699999D01*
G75*
G02*
X162899999Y-80450000I249999J0D01*
G01*
X163600001Y-80450000D01*
G75*
G02*
X163850000Y-80699999I0J-249999D01*
G01*
X163850000Y-81600001D01*
G75*
G02*
X163600001Y-81850000I-249999J0D01*
G01*
X162899999Y-81850000D01*
G75*
G02*
X162650000Y-81600001I0J249999D01*
G01*
G37*
G36*
G01*
X164650000Y-81600001D02*
X164650000Y-80699999D01*
G75*
G02*
X164899999Y-80450000I249999J0D01*
G01*
X165600001Y-80450000D01*
G75*
G02*
X165850000Y-80699999I0J-249999D01*
G01*
X165850000Y-81600001D01*
G75*
G02*
X165600001Y-81850000I-249999J0D01*
G01*
X164899999Y-81850000D01*
G75*
G02*
X164650000Y-81600001I0J249999D01*
G01*
G37*
%TD*%
%TO.C,R9*%
G36*
G01*
X151600000Y-96550001D02*
X151600000Y-95649999D01*
G75*
G02*
X151849999Y-95400000I249999J0D01*
G01*
X152550001Y-95400000D01*
G75*
G02*
X152800000Y-95649999I0J-249999D01*
G01*
X152800000Y-96550001D01*
G75*
G02*
X152550001Y-96800000I-249999J0D01*
G01*
X151849999Y-96800000D01*
G75*
G02*
X151600000Y-96550001I0J249999D01*
G01*
G37*
G36*
G01*
X153600000Y-96550001D02*
X153600000Y-95649999D01*
G75*
G02*
X153849999Y-95400000I249999J0D01*
G01*
X154550001Y-95400000D01*
G75*
G02*
X154800000Y-95649999I0J-249999D01*
G01*
X154800000Y-96550001D01*
G75*
G02*
X154550001Y-96800000I-249999J0D01*
G01*
X153849999Y-96800000D01*
G75*
G02*
X153600000Y-96550001I0J249999D01*
G01*
G37*
%TD*%
%TO.C,R10*%
G36*
G01*
X164650000Y-79550001D02*
X164650000Y-78649999D01*
G75*
G02*
X164899999Y-78400000I249999J0D01*
G01*
X165600001Y-78400000D01*
G75*
G02*
X165850000Y-78649999I0J-249999D01*
G01*
X165850000Y-79550001D01*
G75*
G02*
X165600001Y-79800000I-249999J0D01*
G01*
X164899999Y-79800000D01*
G75*
G02*
X164650000Y-79550001I0J249999D01*
G01*
G37*
G36*
G01*
X162650000Y-79550001D02*
X162650000Y-78649999D01*
G75*
G02*
X162899999Y-78400000I249999J0D01*
G01*
X163600001Y-78400000D01*
G75*
G02*
X163850000Y-78649999I0J-249999D01*
G01*
X163850000Y-79550001D01*
G75*
G02*
X163600001Y-79800000I-249999J0D01*
G01*
X162899999Y-79800000D01*
G75*
G02*
X162650000Y-79550001I0J249999D01*
G01*
G37*
%TD*%
%TO.C,R11*%
G36*
G01*
X153600000Y-94450001D02*
X153600000Y-93549999D01*
G75*
G02*
X153849999Y-93300000I249999J0D01*
G01*
X154550001Y-93300000D01*
G75*
G02*
X154800000Y-93549999I0J-249999D01*
G01*
X154800000Y-94450001D01*
G75*
G02*
X154550001Y-94700000I-249999J0D01*
G01*
X153849999Y-94700000D01*
G75*
G02*
X153600000Y-94450001I0J249999D01*
G01*
G37*
G36*
G01*
X151600000Y-94450001D02*
X151600000Y-93549999D01*
G75*
G02*
X151849999Y-93300000I249999J0D01*
G01*
X152550001Y-93300000D01*
G75*
G02*
X152800000Y-93549999I0J-249999D01*
G01*
X152800000Y-94450001D01*
G75*
G02*
X152550001Y-94700000I-249999J0D01*
G01*
X151849999Y-94700000D01*
G75*
G02*
X151600000Y-94450001I0J249999D01*
G01*
G37*
%TD*%
%TO.C,R12*%
G36*
G01*
X173606000Y-96135999D02*
X173606000Y-97036001D01*
G75*
G02*
X173356001Y-97286000I-249999J0D01*
G01*
X172655999Y-97286000D01*
G75*
G02*
X172406000Y-97036001I0J249999D01*
G01*
X172406000Y-96135999D01*
G75*
G02*
X172655999Y-95886000I249999J0D01*
G01*
X173356001Y-95886000D01*
G75*
G02*
X173606000Y-96135999I0J-249999D01*
G01*
G37*
G36*
G01*
X175606000Y-96135999D02*
X175606000Y-97036001D01*
G75*
G02*
X175356001Y-97286000I-249999J0D01*
G01*
X174655999Y-97286000D01*
G75*
G02*
X174406000Y-97036001I0J249999D01*
G01*
X174406000Y-96135999D01*
G75*
G02*
X174655999Y-95886000I249999J0D01*
G01*
X175356001Y-95886000D01*
G75*
G02*
X175606000Y-96135999I0J-249999D01*
G01*
G37*
%TD*%
D20*
%TO.C,U1*%
X160559200Y-93740000D03*
X160559200Y-95010000D03*
X160559200Y-96280000D03*
X160559200Y-97550000D03*
X160559200Y-98820000D03*
X160559200Y-100090000D03*
X160559200Y-101360000D03*
X165740800Y-101360000D03*
X165740800Y-100090000D03*
X165740800Y-98820000D03*
X165740800Y-97550000D03*
X165740800Y-96280000D03*
X165740800Y-95010000D03*
X165740800Y-93740000D03*
%TD*%
D21*
%TO.C,U2*%
X177800000Y-84632800D03*
X176530000Y-84632800D03*
X175260000Y-84632800D03*
X173990000Y-84632800D03*
X172720000Y-84632800D03*
X171450000Y-84632800D03*
X170180000Y-84632800D03*
X170180000Y-79451200D03*
X171450000Y-79451200D03*
X172720000Y-79451200D03*
X173990000Y-79451200D03*
X175260000Y-79451200D03*
X176530000Y-79451200D03*
X177800000Y-79451200D03*
%TD*%
D22*
%TO.C,U3*%
X163830000Y-105410000D03*
D23*
X161290000Y-105410000D03*
X158750000Y-105410000D03*
%TD*%
D24*
%TO.C,U4*%
X154178000Y-79756000D03*
X154178000Y-80706000D03*
X154178000Y-81656000D03*
X156688000Y-81656000D03*
X156688000Y-79756000D03*
%TD*%
M02*
