G04 #@! TF.GenerationSoftware,KiCad,Pcbnew,(5.1.8-0-10_14)*
G04 #@! TF.CreationDate,2020-11-22T12:24:40+11:00*
G04 #@! TF.ProjectId,Phenobottle v18,5068656e-6f62-46f7-9474-6c6520763138,rev?*
G04 #@! TF.SameCoordinates,Original*
G04 #@! TF.FileFunction,Soldermask,Bot*
G04 #@! TF.FilePolarity,Negative*
%FSLAX46Y46*%
G04 Gerber Fmt 4.6, Leading zero omitted, Abs format (unit mm)*
G04 Created by KiCad (PCBNEW (5.1.8-0-10_14)) date 2020-11-22 12:24:40*
%MOMM*%
%LPD*%
G01*
G04 APERTURE LIST*
%ADD10C,1.702000*%
%ADD11O,1.626000X3.150000*%
%ADD12C,1.952000*%
%ADD13C,1.982000*%
%ADD14C,2.102000*%
%ADD15C,2.122000*%
G04 APERTURE END LIST*
D10*
X131470000Y-77780000D03*
X128930000Y-77780000D03*
X126390000Y-77780000D03*
X123850000Y-77780000D03*
X134010000Y-77780000D03*
X136550000Y-77780000D03*
X139090000Y-77780000D03*
X121310000Y-77780000D03*
X118770000Y-77780000D03*
X116230000Y-77780000D03*
X113690000Y-77780000D03*
X126390000Y-80320000D03*
X126390000Y-82860000D03*
X126390000Y-85400000D03*
X126390000Y-87940000D03*
X126390000Y-90480000D03*
X113690000Y-93020000D03*
X116230000Y-93020000D03*
X118770000Y-93020000D03*
X121310000Y-93020000D03*
X123850000Y-93020000D03*
X126390000Y-93020000D03*
X128930000Y-93020000D03*
X131470000Y-93020000D03*
X141630000Y-77780000D03*
X144170000Y-77780000D03*
X146710000Y-77780000D03*
X149250000Y-77780000D03*
X151790000Y-77780000D03*
X154330000Y-77780000D03*
X156870000Y-77780000D03*
X159410000Y-77780000D03*
X161950000Y-77780000D03*
X164490000Y-77780000D03*
X167030000Y-77780000D03*
X169570000Y-77780000D03*
G36*
G01*
X172961000Y-76980000D02*
X172961000Y-78580000D01*
G75*
G02*
X172910000Y-78631000I-51000J0D01*
G01*
X171310000Y-78631000D01*
G75*
G02*
X171259000Y-78580000I0J51000D01*
G01*
X171259000Y-76980000D01*
G75*
G02*
X171310000Y-76929000I51000J0D01*
G01*
X172910000Y-76929000D01*
G75*
G02*
X172961000Y-76980000I0J-51000D01*
G01*
G37*
X134010000Y-93020000D03*
X136550000Y-93020000D03*
X139090000Y-93020000D03*
X141630000Y-93020000D03*
X144170000Y-93020000D03*
X146710000Y-93020000D03*
X149250000Y-93020000D03*
X151790000Y-93020000D03*
X154330000Y-93020000D03*
X156870000Y-93020000D03*
X159410000Y-93020000D03*
X161950000Y-93020000D03*
X164490000Y-93020000D03*
X167030000Y-93020000D03*
X169570000Y-93020000D03*
X172110000Y-93020000D03*
X169570000Y-90480000D03*
X164490000Y-90480000D03*
X161950000Y-90480000D03*
X159410000Y-90480000D03*
X165760000Y-80780000D03*
X163220000Y-80780000D03*
X160680000Y-80780000D03*
X158140000Y-80780000D03*
X155600000Y-80780000D03*
D11*
X149352000Y-107188000D03*
X151892000Y-107188000D03*
X154432000Y-107188000D03*
D12*
X149225000Y-103429000D03*
D13*
X151765000Y-103429000D03*
G36*
G01*
X155281000Y-102504000D02*
X155281000Y-104354000D01*
G75*
G02*
X155230000Y-104405000I-51000J0D01*
G01*
X153380000Y-104405000D01*
G75*
G02*
X153329000Y-104354000I0J51000D01*
G01*
X153329000Y-102504000D01*
G75*
G02*
X153380000Y-102453000I51000J0D01*
G01*
X155230000Y-102453000D01*
G75*
G02*
X155281000Y-102504000I0J-51000D01*
G01*
G37*
D14*
X132715000Y-85090000D03*
G36*
G01*
X133715000Y-88681000D02*
X131715000Y-88681000D01*
G75*
G02*
X131664000Y-88630000I0J51000D01*
G01*
X131664000Y-86630000D01*
G75*
G02*
X131715000Y-86579000I51000J0D01*
G01*
X133715000Y-86579000D01*
G75*
G02*
X133766000Y-86630000I0J-51000D01*
G01*
X133766000Y-88630000D01*
G75*
G02*
X133715000Y-88681000I-51000J0D01*
G01*
G37*
D15*
X116205000Y-101473000D03*
X116205000Y-104013000D03*
G36*
G01*
X164560000Y-103744000D02*
X166560000Y-103744000D01*
G75*
G02*
X166611000Y-103795000I0J-51000D01*
G01*
X166611000Y-108295000D01*
G75*
G02*
X166560000Y-108346000I-51000J0D01*
G01*
X164560000Y-108346000D01*
G75*
G02*
X164509000Y-108295000I0J51000D01*
G01*
X164509000Y-103795000D01*
G75*
G02*
X164560000Y-103744000I51000J0D01*
G01*
G37*
G36*
G01*
X158560000Y-103744000D02*
X160560000Y-103744000D01*
G75*
G02*
X160611000Y-103795000I0J-51000D01*
G01*
X160611000Y-108295000D01*
G75*
G02*
X160560000Y-108346000I-51000J0D01*
G01*
X158560000Y-108346000D01*
G75*
G02*
X158509000Y-108295000I0J51000D01*
G01*
X158509000Y-103795000D01*
G75*
G02*
X158560000Y-103744000I51000J0D01*
G01*
G37*
G36*
G01*
X160310000Y-100294000D02*
X164810000Y-100294000D01*
G75*
G02*
X164861000Y-100345000I0J-51000D01*
G01*
X164861000Y-102345000D01*
G75*
G02*
X164810000Y-102396000I-51000J0D01*
G01*
X160310000Y-102396000D01*
G75*
G02*
X160259000Y-102345000I0J51000D01*
G01*
X160259000Y-100345000D01*
G75*
G02*
X160310000Y-100294000I51000J0D01*
G01*
G37*
M02*
