%TF.GenerationSoftware,KiCad,Pcbnew,(5.1.8-0-10_14)*%
%TF.CreationDate,2021-01-27T14:23:45+11:00*%
%TF.ProjectId,Open-JIP(KiCad)_T3.6,4f70656e-2d4a-4495-9028-4b6943616429,rev?*%
%TF.SameCoordinates,Original*%
%TF.FileFunction,Copper,L2,Bot*%
%TF.FilePolarity,Positive*%
%FSLAX46Y46*%
G04 Gerber Fmt 4.6, Leading zero omitted, Abs format (unit mm)*
G04 Created by KiCad (PCBNEW (5.1.8-0-10_14)) date 2021-01-27 14:23:45*
%MOMM*%
%LPD*%
G01*
G04 APERTURE LIST*
%TA.AperFunction,ComponentPad*%
%ADD10C,5.700000*%
%TD*%
%TA.AperFunction,ComponentPad*%
%ADD11C,1.600000*%
%TD*%
%TA.AperFunction,ComponentPad*%
%ADD12R,1.600000X1.600000*%
%TD*%
%TA.AperFunction,ComponentPad*%
%ADD13O,1.900000X3.800000*%
%TD*%
%TA.AperFunction,ComponentPad*%
%ADD14O,3.800000X1.900000*%
%TD*%
%TA.AperFunction,ComponentPad*%
%ADD15R,1.651000X1.651000*%
%TD*%
%TA.AperFunction,ComponentPad*%
%ADD16C,1.651000*%
%TD*%
%TA.AperFunction,ComponentPad*%
%ADD17C,2.000000*%
%TD*%
%TA.AperFunction,ComponentPad*%
%ADD18R,1.980000X3.960000*%
%TD*%
%TA.AperFunction,ComponentPad*%
%ADD19O,1.980000X3.960000*%
%TD*%
%TA.AperFunction,ComponentPad*%
%ADD20R,1.980000X1.980000*%
%TD*%
%TA.AperFunction,ComponentPad*%
%ADD21C,1.980000*%
%TD*%
%TA.AperFunction,ViaPad*%
%ADD22C,0.800000*%
%TD*%
%TA.AperFunction,Conductor*%
%ADD23C,0.250000*%
%TD*%
%TA.AperFunction,Conductor*%
%ADD24C,0.600000*%
%TD*%
%TA.AperFunction,Conductor*%
%ADD25C,0.254000*%
%TD*%
%TA.AperFunction,Conductor*%
%ADD26C,0.100000*%
%TD*%
G04 APERTURE END LIST*
D10*
%TO.P,REF\u002A\u002A,1*%
%TO.N,N/C*%
X184912000Y-82000000D03*
%TD*%
D11*
%TO.P,U5,17*%
%TO.N,Net-(U5-Pad17)*%
X148795001Y-74645001D03*
%TO.P,U5,18*%
%TO.N,Net-(U5-Pad18)*%
X146255001Y-74645001D03*
%TO.P,U5,19*%
%TO.N,Net-(U5-Pad19)*%
X143715001Y-74645001D03*
%TO.P,U5,20*%
%TO.N,Net-(U5-Pad20)*%
X141175001Y-74645001D03*
%TO.P,U5,16*%
%TO.N,Net-(U5-Pad16)*%
X151335001Y-74645001D03*
%TO.P,U5,15*%
%TO.N,Net-(U5-Pad15)*%
X153875001Y-74645001D03*
%TO.P,U5,14*%
%TO.N,Net-(U5-Pad14)*%
X156415001Y-74645001D03*
%TO.P,U5,21*%
%TO.N,ActinicGain1*%
X138635001Y-74645001D03*
%TO.P,U5,22*%
%TO.N,Net-(U5-Pad22)*%
X136095001Y-74645001D03*
%TO.P,U5,23*%
%TO.N,Net-(U5-Pad23)*%
X133555001Y-74645001D03*
%TO.P,U5,24*%
%TO.N,Net-(U5-Pad24)*%
X131015001Y-74645001D03*
%TO.P,U5,30*%
%TO.N,Net-(U5-Pad30)*%
X131015001Y-89885001D03*
%TO.P,U5,31*%
%TO.N,Net-(U5-Pad31)*%
X133555001Y-89885001D03*
%TO.P,U5,32*%
%TO.N,Net-(U5-Pad32)*%
X136095001Y-89885001D03*
%TO.P,U5,33*%
%TO.N,ActinicGain3*%
X138635001Y-89885001D03*
%TO.P,U5,34*%
%TO.N,ActinicGain2*%
X141175001Y-89885001D03*
%TO.P,U5,35*%
%TO.N,Net-(U5-Pad35)*%
X143715001Y-89885001D03*
%TO.P,U5,36*%
%TO.N,Net-(U5-Pad36)*%
X146255001Y-89885001D03*
%TO.P,U5,37*%
%TO.N,Net-(U5-Pad37)*%
X148795001Y-89885001D03*
%TO.P,U5,13*%
%TO.N,Net-(U5-Pad13)*%
X158955001Y-74645001D03*
%TO.P,U5,12*%
%TO.N,ActinicGain4*%
X161495001Y-74645001D03*
%TO.P,U5,11*%
%TO.N,Net-(U5-Pad11)*%
X164035001Y-74645001D03*
%TO.P,U5,10*%
%TO.N,Net-(U5-Pad10)*%
X166575001Y-74645001D03*
%TO.P,U5,9*%
%TO.N,FluoroGain3*%
X169115001Y-74645001D03*
%TO.P,U5,8*%
%TO.N,FluoroGain2*%
X171655001Y-74645001D03*
%TO.P,U5,7*%
%TO.N,Net-(U5-Pad7)*%
X174195001Y-74645001D03*
%TO.P,U5,6*%
%TO.N,Net-(U5-Pad6)*%
X176735001Y-74645001D03*
%TO.P,U5,5*%
%TO.N,Net-(U5-Pad5)*%
X179275001Y-74645001D03*
%TO.P,U5,4*%
%TO.N,Net-(U5-Pad4)*%
X181815001Y-74645001D03*
%TO.P,U5,3*%
%TO.N,Net-(U5-Pad3)*%
X184355001Y-74645001D03*
%TO.P,U5,2*%
%TO.N,Net-(U5-Pad2)*%
X186895001Y-74645001D03*
D12*
%TO.P,U5,1*%
%TO.N,Net-(U5-Pad1)*%
X189435001Y-74645001D03*
D11*
%TO.P,U5,38*%
%TO.N,Net-(U5-Pad38)*%
X151335001Y-89885001D03*
%TO.P,U5,39*%
%TO.N,GND*%
X153875001Y-89885001D03*
%TO.P,U5,40*%
%TO.N,Net-(U5-Pad40)*%
X156415001Y-89885001D03*
%TO.P,U5,41*%
%TO.N,FluoroRead*%
X158955001Y-89885001D03*
%TO.P,U5,42*%
%TO.N,Net-(U5-Pad42)*%
X161495001Y-89885001D03*
%TO.P,U5,43*%
%TO.N,Net-(U5-Pad43)*%
X164035001Y-89885001D03*
%TO.P,U5,44*%
%TO.N,Net-(U5-Pad44)*%
X166575001Y-89885001D03*
%TO.P,U5,45*%
%TO.N,Net-(U5-Pad45)*%
X169115001Y-89885001D03*
%TO.P,U5,46*%
%TO.N,Net-(U5-Pad46)*%
X171655001Y-89885001D03*
%TO.P,U5,47*%
%TO.N,Net-(U5-Pad47)*%
X174195001Y-89885001D03*
%TO.P,U5,48*%
%TO.N,Net-(U5-Pad48)*%
X176735001Y-89885001D03*
%TO.P,U5,49*%
%TO.N,FluoroGain4*%
X179275001Y-89885001D03*
%TO.P,U5,50*%
%TO.N,FluoroGain1*%
X181815001Y-89885001D03*
%TO.P,U5,51*%
%TO.N,+3V3*%
X184355001Y-89885001D03*
%TO.P,U5,52*%
%TO.N,GNDA*%
X186895001Y-89885001D03*
%TO.P,U5,53*%
%TO.N,+5V*%
X189435001Y-89885001D03*
%TD*%
D10*
%TO.P,REF\u002A\u002A,1*%
%TO.N,N/C*%
X135382000Y-82000000D03*
%TD*%
D13*
%TO.P,J1,1*%
%TO.N,+15V*%
X178422000Y-100330000D03*
%TO.P,J1,2*%
%TO.N,GND*%
X184352000Y-100330000D03*
D14*
%TO.P,J1,3*%
X181102000Y-95680000D03*
%TD*%
D15*
%TO.P,CR1,1*%
%TO.N,/TrigOut*%
X146350000Y-94450000D03*
D16*
%TO.P,CR1,2*%
%TO.N,Net-(C7-Pad2)*%
X146350000Y-96990000D03*
%TO.P,CR1,3*%
%TO.N,GND*%
X146350000Y-99530000D03*
%TD*%
D17*
%TO.P,D1,1*%
%TO.N,GNDA*%
X147230000Y-82000000D03*
%TO.P,D1,2*%
%TO.N,/-IN*%
X149770000Y-82000000D03*
%TD*%
D18*
%TO.P,J2,1*%
%TO.N,Net-(C4-Pad2)*%
X134500000Y-99250000D03*
D19*
%TO.P,J2,2*%
%TO.N,Net-(C7-Pad2)*%
X139500000Y-99250000D03*
%TD*%
D20*
%TO.P,U3,1*%
%TO.N,+15V*%
X163830000Y-105410000D03*
D21*
%TO.P,U3,2*%
%TO.N,GND*%
X161290000Y-105410000D03*
%TO.P,U3,3*%
%TO.N,Net-(C4-Pad2)*%
X158750000Y-105410000D03*
%TD*%
D22*
%TO.N,*%
X168910000Y-78232000D03*
%TO.N,GNDA*%
X170180000Y-77216000D03*
X186895001Y-88440999D03*
X167386000Y-84328000D03*
X166878000Y-86614000D03*
X168656000Y-86614000D03*
X170688000Y-86614000D03*
X172720000Y-86614000D03*
X174752000Y-86614000D03*
X162560000Y-88138000D03*
X164338000Y-88138000D03*
X157000000Y-83750000D03*
X148082000Y-84328000D03*
X148336000Y-79502000D03*
X154686000Y-78486000D03*
X161544000Y-78740000D03*
X167640000Y-77216000D03*
X168910000Y-77216000D03*
X167640000Y-78232000D03*
X167640000Y-80010000D03*
X168402000Y-82042000D03*
X173736000Y-76200000D03*
X184912000Y-88138000D03*
X185420000Y-87122000D03*
X186690000Y-86868000D03*
X187960000Y-87122000D03*
X188214000Y-88138000D03*
X138750000Y-86750000D03*
X140750000Y-80500000D03*
X135000000Y-77250000D03*
X134250000Y-87000000D03*
X141500000Y-87000000D03*
X141000000Y-77500000D03*
X147500000Y-77500000D03*
X151250000Y-77500000D03*
X181250000Y-77500000D03*
X187000000Y-77500000D03*
X136500000Y-87000000D03*
X179250000Y-77500000D03*
X184500000Y-77500000D03*
X180250000Y-82000000D03*
X182000000Y-85750000D03*
%TO.N,GND*%
X162560000Y-99822000D03*
X154940000Y-91948000D03*
X168148000Y-101600000D03*
X169164000Y-93726000D03*
X171196000Y-93726000D03*
X173228000Y-93726000D03*
X175260000Y-93726000D03*
X152654000Y-102108000D03*
X157988000Y-92710000D03*
X165354000Y-102362000D03*
X171704000Y-94996000D03*
X175260000Y-94996000D03*
X173228000Y-94996000D03*
X183464000Y-92464000D03*
X183464000Y-93734000D03*
X182194000Y-93734000D03*
X180670000Y-93734000D03*
X179146000Y-93734000D03*
X163500000Y-96250000D03*
X133000000Y-92000000D03*
X136000000Y-92000000D03*
X138250000Y-92000000D03*
X156250000Y-100750000D03*
X158500000Y-97250000D03*
%TO.N,/Out*%
X159512000Y-83566000D03*
X156718150Y-80756505D03*
%TO.N,/-IN*%
X158242000Y-80518000D03*
X166878000Y-76200000D03*
X173482000Y-77724000D03*
X168910000Y-84074000D03*
X155956000Y-83312000D03*
%TO.N,+3V3*%
X161544000Y-83312000D03*
X166624000Y-92202000D03*
X162560000Y-92202000D03*
%TO.N,Net-(R6-Pad2)*%
X157988000Y-101092000D03*
X163576000Y-102362000D03*
%TO.N,Net-(R8-Pad2)*%
X174752000Y-81026000D03*
X168910000Y-81026000D03*
%TO.N,Net-(R10-Pad2)*%
X175260000Y-77724000D03*
X168910000Y-79248000D03*
%TO.N,ActinicGain2*%
X143250000Y-91750000D03*
X158000000Y-98500000D03*
%TO.N,ActinicGain3*%
X140250000Y-92000000D03*
X158000000Y-99750000D03*
%TO.N,ActinicGain4*%
X150250000Y-91500000D03*
X167500000Y-94250000D03*
%TO.N,ActinicGain1*%
X152000000Y-92250000D03*
X163250000Y-95000000D03*
%TD*%
D23*
%TO.N,/Out*%
X156718000Y-80772000D02*
X159512000Y-83566000D01*
%TO.N,/-IN*%
X158242000Y-80518000D02*
X162560000Y-76200000D01*
X162560000Y-76200000D02*
X166878000Y-76200000D01*
X171958000Y-76200000D02*
X166878000Y-76200000D01*
X173482000Y-77724000D02*
X171958000Y-76200000D01*
X166878000Y-82042000D02*
X166878000Y-76200000D01*
X168910000Y-84074000D02*
X166878000Y-82042000D01*
D24*
X149770000Y-82000000D02*
X151342000Y-82000000D01*
X151342000Y-82000000D02*
X152654000Y-83312000D01*
X152654000Y-83312000D02*
X155956000Y-83312000D01*
%TO.N,+3V3*%
X161544000Y-83312000D02*
X165862000Y-87630000D01*
X182100000Y-87630000D02*
X184355001Y-89885001D01*
X165862000Y-87630000D02*
X182100000Y-87630000D01*
X184355001Y-89885001D02*
X182038002Y-92202000D01*
X182038002Y-92202000D02*
X166624000Y-92202000D01*
X166624000Y-92202000D02*
X162560000Y-92202000D01*
%TO.N,Net-(R6-Pad2)*%
X157988000Y-101092000D02*
X159258000Y-102362000D01*
X159258000Y-102362000D02*
X163576000Y-102362000D01*
D23*
%TO.N,Net-(R8-Pad2)*%
X174752000Y-81026000D02*
X168910000Y-81026000D01*
%TO.N,Net-(R10-Pad2)*%
X175260000Y-77724000D02*
X173736000Y-79248000D01*
X173736000Y-79248000D02*
X168910000Y-79248000D01*
%TO.N,ActinicGain2*%
X143250000Y-91750000D02*
X148000000Y-91750000D01*
X148000000Y-91750000D02*
X151250000Y-95000000D01*
X151250000Y-95000000D02*
X154500000Y-95000000D01*
X154500000Y-95000000D02*
X158000000Y-98500000D01*
%TO.N,ActinicGain3*%
X143850501Y-95600501D02*
X153850501Y-95600501D01*
X140250000Y-92000000D02*
X143850501Y-95600501D01*
X153850501Y-95600501D02*
X158000000Y-99750000D01*
%TO.N,ActinicGain4*%
X166250000Y-93000000D02*
X167500000Y-94250000D01*
X162250000Y-93000000D02*
X166250000Y-93000000D01*
X161834999Y-92584999D02*
X162250000Y-93000000D01*
X161834999Y-92084999D02*
X161834999Y-92584999D01*
X160850001Y-91100001D02*
X161834999Y-92084999D01*
X150649999Y-91100001D02*
X160850001Y-91100001D01*
X150250000Y-91500000D02*
X150649999Y-91100001D01*
%TO.N,ActinicGain1*%
X154214999Y-92250000D02*
X156964999Y-95000000D01*
X152000000Y-92250000D02*
X154214999Y-92250000D01*
X156964999Y-95000000D02*
X163250000Y-95000000D01*
%TD*%
D25*
%TO.N,GND*%
X188320364Y-90799760D02*
X188520242Y-90999638D01*
X188755274Y-91156681D01*
X189016427Y-91264854D01*
X189293666Y-91320001D01*
X189357000Y-91320001D01*
X189357000Y-107519000D01*
X131191000Y-107519000D01*
X131191000Y-105249951D01*
X157125000Y-105249951D01*
X157125000Y-105570049D01*
X157187448Y-105883995D01*
X157309943Y-106179726D01*
X157487780Y-106445877D01*
X157714123Y-106672220D01*
X157980274Y-106850057D01*
X158276005Y-106972552D01*
X158589951Y-107035000D01*
X158910049Y-107035000D01*
X159223995Y-106972552D01*
X159519726Y-106850057D01*
X159785877Y-106672220D01*
X160012220Y-106445877D01*
X160088137Y-106332260D01*
X160161718Y-106358677D01*
X161110395Y-105410000D01*
X160161718Y-104461323D01*
X160088137Y-104487740D01*
X160012220Y-104374123D01*
X159919815Y-104281718D01*
X160341323Y-104281718D01*
X161290000Y-105230395D01*
X161304143Y-105216253D01*
X161483748Y-105395858D01*
X161469605Y-105410000D01*
X161483748Y-105424143D01*
X161304143Y-105603748D01*
X161290000Y-105589605D01*
X160341323Y-106538282D01*
X160435880Y-106801661D01*
X160723791Y-106941551D01*
X161033462Y-107022584D01*
X161352990Y-107041646D01*
X161670099Y-106998006D01*
X161972600Y-106893339D01*
X162144120Y-106801661D01*
X162227672Y-106568934D01*
X162250498Y-106644180D01*
X162309463Y-106754494D01*
X162388815Y-106851185D01*
X162485506Y-106930537D01*
X162595820Y-106989502D01*
X162715518Y-107025812D01*
X162840000Y-107038072D01*
X164820000Y-107038072D01*
X164944482Y-107025812D01*
X165064180Y-106989502D01*
X165174494Y-106930537D01*
X165271185Y-106851185D01*
X165350537Y-106754494D01*
X165409502Y-106644180D01*
X165445812Y-106524482D01*
X165458072Y-106400000D01*
X165458072Y-104420000D01*
X165445812Y-104295518D01*
X165409502Y-104175820D01*
X165350537Y-104065506D01*
X165271185Y-103968815D01*
X165174494Y-103889463D01*
X165064180Y-103830498D01*
X164944482Y-103794188D01*
X164820000Y-103781928D01*
X162840000Y-103781928D01*
X162715518Y-103794188D01*
X162595820Y-103830498D01*
X162485506Y-103889463D01*
X162388815Y-103968815D01*
X162309463Y-104065506D01*
X162250498Y-104175820D01*
X162227672Y-104251066D01*
X162144120Y-104018339D01*
X161856209Y-103878449D01*
X161546538Y-103797416D01*
X161227010Y-103778354D01*
X160909901Y-103821994D01*
X160607400Y-103926661D01*
X160435880Y-104018339D01*
X160341323Y-104281718D01*
X159919815Y-104281718D01*
X159785877Y-104147780D01*
X159519726Y-103969943D01*
X159223995Y-103847448D01*
X158910049Y-103785000D01*
X158589951Y-103785000D01*
X158276005Y-103847448D01*
X157980274Y-103969943D01*
X157714123Y-104147780D01*
X157487780Y-104374123D01*
X157309943Y-104640274D01*
X157187448Y-104936005D01*
X157125000Y-105249951D01*
X131191000Y-105249951D01*
X131191000Y-97270000D01*
X132871928Y-97270000D01*
X132871928Y-101230000D01*
X132884188Y-101354482D01*
X132920498Y-101474180D01*
X132979463Y-101584494D01*
X133058815Y-101681185D01*
X133155506Y-101760537D01*
X133265820Y-101819502D01*
X133385518Y-101855812D01*
X133510000Y-101868072D01*
X135490000Y-101868072D01*
X135614482Y-101855812D01*
X135734180Y-101819502D01*
X135844494Y-101760537D01*
X135941185Y-101681185D01*
X136020537Y-101584494D01*
X136079502Y-101474180D01*
X136115812Y-101354482D01*
X136128072Y-101230000D01*
X136128072Y-97270000D01*
X136115812Y-97145518D01*
X136079502Y-97025820D01*
X136020537Y-96915506D01*
X135941185Y-96818815D01*
X135844494Y-96739463D01*
X135734180Y-96680498D01*
X135614482Y-96644188D01*
X135490000Y-96631928D01*
X133510000Y-96631928D01*
X133385518Y-96644188D01*
X133265820Y-96680498D01*
X133155506Y-96739463D01*
X133058815Y-96818815D01*
X132979463Y-96915506D01*
X132920498Y-97025820D01*
X132884188Y-97145518D01*
X132871928Y-97270000D01*
X131191000Y-97270000D01*
X131191000Y-91313106D01*
X131433575Y-91264854D01*
X131694728Y-91156681D01*
X131929760Y-90999638D01*
X132129638Y-90799760D01*
X132285001Y-90567242D01*
X132440364Y-90799760D01*
X132640242Y-90999638D01*
X132875274Y-91156681D01*
X133136427Y-91264854D01*
X133413666Y-91320001D01*
X133696336Y-91320001D01*
X133973575Y-91264854D01*
X134234728Y-91156681D01*
X134469760Y-90999638D01*
X134669638Y-90799760D01*
X134825001Y-90567242D01*
X134980364Y-90799760D01*
X135180242Y-90999638D01*
X135415274Y-91156681D01*
X135676427Y-91264854D01*
X135953666Y-91320001D01*
X136236336Y-91320001D01*
X136513575Y-91264854D01*
X136774728Y-91156681D01*
X137009760Y-90999638D01*
X137209638Y-90799760D01*
X137365001Y-90567242D01*
X137520364Y-90799760D01*
X137720242Y-90999638D01*
X137955274Y-91156681D01*
X138216427Y-91264854D01*
X138493666Y-91320001D01*
X138776336Y-91320001D01*
X139053575Y-91264854D01*
X139314728Y-91156681D01*
X139549760Y-90999638D01*
X139749638Y-90799760D01*
X139905001Y-90567242D01*
X140060364Y-90799760D01*
X140225604Y-90965000D01*
X140148061Y-90965000D01*
X139948102Y-91004774D01*
X139759744Y-91082795D01*
X139590226Y-91196063D01*
X139446063Y-91340226D01*
X139332795Y-91509744D01*
X139254774Y-91698102D01*
X139215000Y-91898061D01*
X139215000Y-92101939D01*
X139254774Y-92301898D01*
X139332795Y-92490256D01*
X139446063Y-92659774D01*
X139590226Y-92803937D01*
X139759744Y-92917205D01*
X139948102Y-92995226D01*
X140148061Y-93035000D01*
X140210199Y-93035000D01*
X142290198Y-95115000D01*
X137750000Y-95115000D01*
X137626118Y-95127201D01*
X137506996Y-95163336D01*
X137397213Y-95222017D01*
X137300987Y-95300987D01*
X137222017Y-95397213D01*
X137163336Y-95506996D01*
X137127201Y-95626118D01*
X137115000Y-95750000D01*
X137115000Y-101750000D01*
X137127201Y-101873882D01*
X137163336Y-101993004D01*
X137222017Y-102102787D01*
X137300987Y-102199013D01*
X137397213Y-102277983D01*
X137506996Y-102336664D01*
X137626118Y-102372799D01*
X137750000Y-102385000D01*
X141250000Y-102385000D01*
X141373882Y-102372799D01*
X141493004Y-102336664D01*
X141602787Y-102277983D01*
X141699013Y-102199013D01*
X141777983Y-102102787D01*
X141836664Y-101993004D01*
X141872799Y-101873882D01*
X141885000Y-101750000D01*
X141885000Y-100540909D01*
X145518696Y-100540909D01*
X145593367Y-100787481D01*
X145853228Y-100910931D01*
X146132180Y-100981313D01*
X146419502Y-100995921D01*
X146704154Y-100954194D01*
X146975196Y-100857737D01*
X147106633Y-100787481D01*
X147181304Y-100540909D01*
X146350000Y-99709605D01*
X145518696Y-100540909D01*
X141885000Y-100540909D01*
X141885000Y-99135000D01*
X144943391Y-99135000D01*
X144898687Y-99312180D01*
X144884079Y-99599502D01*
X144925806Y-99884154D01*
X145022263Y-100155196D01*
X145092519Y-100286633D01*
X145339091Y-100361304D01*
X146170395Y-99530000D01*
X146156253Y-99515858D01*
X146335858Y-99336253D01*
X146350000Y-99350395D01*
X146364143Y-99336253D01*
X146543748Y-99515858D01*
X146529605Y-99530000D01*
X147360909Y-100361304D01*
X147607481Y-100286633D01*
X147730931Y-100026772D01*
X147801313Y-99747820D01*
X147815921Y-99460498D01*
X147774194Y-99175846D01*
X147759658Y-99135000D01*
X148250000Y-99135000D01*
X148373882Y-99122799D01*
X148493004Y-99086664D01*
X148602787Y-99027983D01*
X148699013Y-98949013D01*
X148777983Y-98852787D01*
X148836664Y-98743004D01*
X148872799Y-98623882D01*
X148885000Y-98500000D01*
X148885000Y-96360501D01*
X153535700Y-96360501D01*
X156965000Y-99789802D01*
X156965000Y-99851939D01*
X157004774Y-100051898D01*
X157082795Y-100240256D01*
X157196063Y-100409774D01*
X157201289Y-100415000D01*
X157184063Y-100432226D01*
X157070795Y-100601744D01*
X156992774Y-100790102D01*
X156953000Y-100990061D01*
X156953000Y-101193939D01*
X156992774Y-101393898D01*
X157070795Y-101582256D01*
X157184063Y-101751774D01*
X157328226Y-101895937D01*
X157497744Y-102009205D01*
X157643142Y-102069431D01*
X158564374Y-102990664D01*
X158593656Y-103026344D01*
X158736028Y-103143186D01*
X158898460Y-103230007D01*
X159021243Y-103267253D01*
X159074707Y-103283471D01*
X159257999Y-103301524D01*
X159303931Y-103297000D01*
X163128705Y-103297000D01*
X163274102Y-103357226D01*
X163474061Y-103397000D01*
X163677939Y-103397000D01*
X163877898Y-103357226D01*
X164066256Y-103279205D01*
X164235774Y-103165937D01*
X164379937Y-103021774D01*
X164493205Y-102852256D01*
X164571226Y-102663898D01*
X164611000Y-102463939D01*
X164611000Y-102260061D01*
X164571226Y-102060102D01*
X164493205Y-101871744D01*
X164379937Y-101702226D01*
X164235774Y-101558063D01*
X164066256Y-101444795D01*
X163877898Y-101366774D01*
X163677939Y-101327000D01*
X163474061Y-101327000D01*
X163274102Y-101366774D01*
X163128705Y-101427000D01*
X159645290Y-101427000D01*
X158965431Y-100747142D01*
X158905205Y-100601744D01*
X158791937Y-100432226D01*
X158786711Y-100427000D01*
X158803937Y-100409774D01*
X158917205Y-100240256D01*
X158995226Y-100051898D01*
X159035000Y-99851939D01*
X159035000Y-99648061D01*
X158995226Y-99448102D01*
X158934765Y-99302137D01*
X176837000Y-99302137D01*
X176837001Y-101357864D01*
X176859935Y-101590714D01*
X176950567Y-101889488D01*
X177097745Y-102164839D01*
X177295814Y-102406187D01*
X177537162Y-102604256D01*
X177812513Y-102751434D01*
X178111287Y-102842066D01*
X178422000Y-102872669D01*
X178732714Y-102842066D01*
X179031488Y-102751434D01*
X179306839Y-102604256D01*
X179548187Y-102406187D01*
X179746256Y-102164839D01*
X179893434Y-101889488D01*
X179984066Y-101590714D01*
X180007000Y-101357864D01*
X180007000Y-100457000D01*
X182767000Y-100457000D01*
X182767000Y-101407000D01*
X182822232Y-101713778D01*
X182936252Y-102003886D01*
X183104678Y-102266175D01*
X183321038Y-102490566D01*
X183577017Y-102668436D01*
X183862779Y-102792949D01*
X183979412Y-102820586D01*
X184225000Y-102700584D01*
X184225000Y-100457000D01*
X184479000Y-100457000D01*
X184479000Y-102700584D01*
X184724588Y-102820586D01*
X184841221Y-102792949D01*
X185126983Y-102668436D01*
X185382962Y-102490566D01*
X185599322Y-102266175D01*
X185767748Y-102003886D01*
X185881768Y-101713778D01*
X185937000Y-101407000D01*
X185937000Y-100457000D01*
X184479000Y-100457000D01*
X184225000Y-100457000D01*
X182767000Y-100457000D01*
X180007000Y-100457000D01*
X180007000Y-99302136D01*
X180002161Y-99253000D01*
X182767000Y-99253000D01*
X182767000Y-100203000D01*
X184225000Y-100203000D01*
X184225000Y-97959416D01*
X184479000Y-97959416D01*
X184479000Y-100203000D01*
X185937000Y-100203000D01*
X185937000Y-99253000D01*
X185881768Y-98946222D01*
X185767748Y-98656114D01*
X185599322Y-98393825D01*
X185382962Y-98169434D01*
X185126983Y-97991564D01*
X184841221Y-97867051D01*
X184724588Y-97839414D01*
X184479000Y-97959416D01*
X184225000Y-97959416D01*
X183979412Y-97839414D01*
X183862779Y-97867051D01*
X183577017Y-97991564D01*
X183321038Y-98169434D01*
X183104678Y-98393825D01*
X182936252Y-98656114D01*
X182822232Y-98946222D01*
X182767000Y-99253000D01*
X180002161Y-99253000D01*
X179984066Y-99069286D01*
X179893434Y-98770512D01*
X179746256Y-98495161D01*
X179548187Y-98253813D01*
X179306838Y-98055744D01*
X179031487Y-97908566D01*
X178732713Y-97817934D01*
X178422000Y-97787331D01*
X178111286Y-97817934D01*
X177812512Y-97908566D01*
X177537161Y-98055744D01*
X177295813Y-98253813D01*
X177097744Y-98495162D01*
X176950566Y-98770513D01*
X176859934Y-99069287D01*
X176837000Y-99302137D01*
X158934765Y-99302137D01*
X158917205Y-99259744D01*
X158827172Y-99125000D01*
X158917205Y-98990256D01*
X158995226Y-98801898D01*
X159035000Y-98601939D01*
X159035000Y-98398061D01*
X158995226Y-98198102D01*
X158917205Y-98009744D01*
X158803937Y-97840226D01*
X158659774Y-97696063D01*
X158490256Y-97582795D01*
X158301898Y-97504774D01*
X158101939Y-97465000D01*
X158039803Y-97465000D01*
X156627391Y-96052588D01*
X178611414Y-96052588D01*
X178639051Y-96169221D01*
X178763564Y-96454983D01*
X178941434Y-96710962D01*
X179165825Y-96927322D01*
X179428114Y-97095748D01*
X179718222Y-97209768D01*
X180025000Y-97265000D01*
X180975000Y-97265000D01*
X180975000Y-95807000D01*
X181229000Y-95807000D01*
X181229000Y-97265000D01*
X182179000Y-97265000D01*
X182485778Y-97209768D01*
X182775886Y-97095748D01*
X183038175Y-96927322D01*
X183262566Y-96710962D01*
X183440436Y-96454983D01*
X183564949Y-96169221D01*
X183592586Y-96052588D01*
X183472584Y-95807000D01*
X181229000Y-95807000D01*
X180975000Y-95807000D01*
X178731416Y-95807000D01*
X178611414Y-96052588D01*
X156627391Y-96052588D01*
X155063804Y-94489003D01*
X155040001Y-94459999D01*
X154924276Y-94365026D01*
X154792247Y-94294454D01*
X154648986Y-94250997D01*
X154537333Y-94240000D01*
X154537322Y-94240000D01*
X154500000Y-94236324D01*
X154462678Y-94240000D01*
X151564802Y-94240000D01*
X149706289Y-92381488D01*
X149759744Y-92417205D01*
X149948102Y-92495226D01*
X150148061Y-92535000D01*
X150351939Y-92535000D01*
X150551898Y-92495226D01*
X150740256Y-92417205D01*
X150909774Y-92303937D01*
X150965000Y-92248711D01*
X150965000Y-92351939D01*
X151004774Y-92551898D01*
X151082795Y-92740256D01*
X151196063Y-92909774D01*
X151340226Y-93053937D01*
X151509744Y-93167205D01*
X151698102Y-93245226D01*
X151898061Y-93285000D01*
X152101939Y-93285000D01*
X152301898Y-93245226D01*
X152490256Y-93167205D01*
X152659774Y-93053937D01*
X152703711Y-93010000D01*
X153900198Y-93010000D01*
X156401199Y-95511002D01*
X156424998Y-95540001D01*
X156540723Y-95634974D01*
X156672752Y-95705546D01*
X156816013Y-95749003D01*
X156927666Y-95760000D01*
X156927675Y-95760000D01*
X156964998Y-95763676D01*
X157002321Y-95760000D01*
X162546289Y-95760000D01*
X162590226Y-95803937D01*
X162759744Y-95917205D01*
X162948102Y-95995226D01*
X163148061Y-96035000D01*
X163351939Y-96035000D01*
X163551898Y-95995226D01*
X163740256Y-95917205D01*
X163909774Y-95803937D01*
X164053937Y-95659774D01*
X164167205Y-95490256D01*
X164242942Y-95307412D01*
X178611414Y-95307412D01*
X178731416Y-95553000D01*
X180975000Y-95553000D01*
X180975000Y-94095000D01*
X181229000Y-94095000D01*
X181229000Y-95553000D01*
X183472584Y-95553000D01*
X183592586Y-95307412D01*
X183564949Y-95190779D01*
X183440436Y-94905017D01*
X183262566Y-94649038D01*
X183038175Y-94432678D01*
X182775886Y-94264252D01*
X182485778Y-94150232D01*
X182179000Y-94095000D01*
X181229000Y-94095000D01*
X180975000Y-94095000D01*
X180025000Y-94095000D01*
X179718222Y-94150232D01*
X179428114Y-94264252D01*
X179165825Y-94432678D01*
X178941434Y-94649038D01*
X178763564Y-94905017D01*
X178639051Y-95190779D01*
X178611414Y-95307412D01*
X164242942Y-95307412D01*
X164245226Y-95301898D01*
X164285000Y-95101939D01*
X164285000Y-94898061D01*
X164245226Y-94698102D01*
X164167205Y-94509744D01*
X164053937Y-94340226D01*
X163909774Y-94196063D01*
X163740256Y-94082795D01*
X163551898Y-94004774D01*
X163351939Y-93965000D01*
X163148061Y-93965000D01*
X162948102Y-94004774D01*
X162759744Y-94082795D01*
X162590226Y-94196063D01*
X162546289Y-94240000D01*
X157279801Y-94240000D01*
X154899801Y-91860001D01*
X160535200Y-91860001D01*
X161074999Y-92399801D01*
X161074999Y-92547677D01*
X161071323Y-92584999D01*
X161074999Y-92622321D01*
X161074999Y-92622332D01*
X161085996Y-92733985D01*
X161129453Y-92877246D01*
X161200025Y-93009275D01*
X161294999Y-93125000D01*
X161323997Y-93148798D01*
X161686196Y-93510997D01*
X161709999Y-93540001D01*
X161825724Y-93634974D01*
X161957753Y-93705546D01*
X162101014Y-93749003D01*
X162212667Y-93760000D01*
X162212676Y-93760000D01*
X162249999Y-93763676D01*
X162287322Y-93760000D01*
X165935199Y-93760000D01*
X166465000Y-94289802D01*
X166465000Y-94351939D01*
X166504774Y-94551898D01*
X166582795Y-94740256D01*
X166696063Y-94909774D01*
X166840226Y-95053937D01*
X167009744Y-95167205D01*
X167198102Y-95245226D01*
X167398061Y-95285000D01*
X167601939Y-95285000D01*
X167801898Y-95245226D01*
X167990256Y-95167205D01*
X168159774Y-95053937D01*
X168303937Y-94909774D01*
X168417205Y-94740256D01*
X168495226Y-94551898D01*
X168535000Y-94351939D01*
X168535000Y-94148061D01*
X168495226Y-93948102D01*
X168417205Y-93759744D01*
X168303937Y-93590226D01*
X168159774Y-93446063D01*
X167990256Y-93332795D01*
X167801898Y-93254774D01*
X167601939Y-93215000D01*
X167539802Y-93215000D01*
X167461802Y-93137000D01*
X181992070Y-93137000D01*
X182038002Y-93141524D01*
X182083934Y-93137000D01*
X182221294Y-93123471D01*
X182397542Y-93070007D01*
X182559974Y-92983186D01*
X182702346Y-92866344D01*
X182731632Y-92830659D01*
X184242291Y-91320001D01*
X184496336Y-91320001D01*
X184773575Y-91264854D01*
X185034728Y-91156681D01*
X185269760Y-90999638D01*
X185469638Y-90799760D01*
X185625001Y-90567242D01*
X185780364Y-90799760D01*
X185980242Y-90999638D01*
X186215274Y-91156681D01*
X186476427Y-91264854D01*
X186753666Y-91320001D01*
X187036336Y-91320001D01*
X187313575Y-91264854D01*
X187574728Y-91156681D01*
X187809760Y-90999638D01*
X188009638Y-90799760D01*
X188165001Y-90567242D01*
X188320364Y-90799760D01*
%TA.AperFunction,Conductor*%
D26*
G36*
X188320364Y-90799760D02*
G01*
X188520242Y-90999638D01*
X188755274Y-91156681D01*
X189016427Y-91264854D01*
X189293666Y-91320001D01*
X189357000Y-91320001D01*
X189357000Y-107519000D01*
X131191000Y-107519000D01*
X131191000Y-105249951D01*
X157125000Y-105249951D01*
X157125000Y-105570049D01*
X157187448Y-105883995D01*
X157309943Y-106179726D01*
X157487780Y-106445877D01*
X157714123Y-106672220D01*
X157980274Y-106850057D01*
X158276005Y-106972552D01*
X158589951Y-107035000D01*
X158910049Y-107035000D01*
X159223995Y-106972552D01*
X159519726Y-106850057D01*
X159785877Y-106672220D01*
X160012220Y-106445877D01*
X160088137Y-106332260D01*
X160161718Y-106358677D01*
X161110395Y-105410000D01*
X160161718Y-104461323D01*
X160088137Y-104487740D01*
X160012220Y-104374123D01*
X159919815Y-104281718D01*
X160341323Y-104281718D01*
X161290000Y-105230395D01*
X161304143Y-105216253D01*
X161483748Y-105395858D01*
X161469605Y-105410000D01*
X161483748Y-105424143D01*
X161304143Y-105603748D01*
X161290000Y-105589605D01*
X160341323Y-106538282D01*
X160435880Y-106801661D01*
X160723791Y-106941551D01*
X161033462Y-107022584D01*
X161352990Y-107041646D01*
X161670099Y-106998006D01*
X161972600Y-106893339D01*
X162144120Y-106801661D01*
X162227672Y-106568934D01*
X162250498Y-106644180D01*
X162309463Y-106754494D01*
X162388815Y-106851185D01*
X162485506Y-106930537D01*
X162595820Y-106989502D01*
X162715518Y-107025812D01*
X162840000Y-107038072D01*
X164820000Y-107038072D01*
X164944482Y-107025812D01*
X165064180Y-106989502D01*
X165174494Y-106930537D01*
X165271185Y-106851185D01*
X165350537Y-106754494D01*
X165409502Y-106644180D01*
X165445812Y-106524482D01*
X165458072Y-106400000D01*
X165458072Y-104420000D01*
X165445812Y-104295518D01*
X165409502Y-104175820D01*
X165350537Y-104065506D01*
X165271185Y-103968815D01*
X165174494Y-103889463D01*
X165064180Y-103830498D01*
X164944482Y-103794188D01*
X164820000Y-103781928D01*
X162840000Y-103781928D01*
X162715518Y-103794188D01*
X162595820Y-103830498D01*
X162485506Y-103889463D01*
X162388815Y-103968815D01*
X162309463Y-104065506D01*
X162250498Y-104175820D01*
X162227672Y-104251066D01*
X162144120Y-104018339D01*
X161856209Y-103878449D01*
X161546538Y-103797416D01*
X161227010Y-103778354D01*
X160909901Y-103821994D01*
X160607400Y-103926661D01*
X160435880Y-104018339D01*
X160341323Y-104281718D01*
X159919815Y-104281718D01*
X159785877Y-104147780D01*
X159519726Y-103969943D01*
X159223995Y-103847448D01*
X158910049Y-103785000D01*
X158589951Y-103785000D01*
X158276005Y-103847448D01*
X157980274Y-103969943D01*
X157714123Y-104147780D01*
X157487780Y-104374123D01*
X157309943Y-104640274D01*
X157187448Y-104936005D01*
X157125000Y-105249951D01*
X131191000Y-105249951D01*
X131191000Y-97270000D01*
X132871928Y-97270000D01*
X132871928Y-101230000D01*
X132884188Y-101354482D01*
X132920498Y-101474180D01*
X132979463Y-101584494D01*
X133058815Y-101681185D01*
X133155506Y-101760537D01*
X133265820Y-101819502D01*
X133385518Y-101855812D01*
X133510000Y-101868072D01*
X135490000Y-101868072D01*
X135614482Y-101855812D01*
X135734180Y-101819502D01*
X135844494Y-101760537D01*
X135941185Y-101681185D01*
X136020537Y-101584494D01*
X136079502Y-101474180D01*
X136115812Y-101354482D01*
X136128072Y-101230000D01*
X136128072Y-97270000D01*
X136115812Y-97145518D01*
X136079502Y-97025820D01*
X136020537Y-96915506D01*
X135941185Y-96818815D01*
X135844494Y-96739463D01*
X135734180Y-96680498D01*
X135614482Y-96644188D01*
X135490000Y-96631928D01*
X133510000Y-96631928D01*
X133385518Y-96644188D01*
X133265820Y-96680498D01*
X133155506Y-96739463D01*
X133058815Y-96818815D01*
X132979463Y-96915506D01*
X132920498Y-97025820D01*
X132884188Y-97145518D01*
X132871928Y-97270000D01*
X131191000Y-97270000D01*
X131191000Y-91313106D01*
X131433575Y-91264854D01*
X131694728Y-91156681D01*
X131929760Y-90999638D01*
X132129638Y-90799760D01*
X132285001Y-90567242D01*
X132440364Y-90799760D01*
X132640242Y-90999638D01*
X132875274Y-91156681D01*
X133136427Y-91264854D01*
X133413666Y-91320001D01*
X133696336Y-91320001D01*
X133973575Y-91264854D01*
X134234728Y-91156681D01*
X134469760Y-90999638D01*
X134669638Y-90799760D01*
X134825001Y-90567242D01*
X134980364Y-90799760D01*
X135180242Y-90999638D01*
X135415274Y-91156681D01*
X135676427Y-91264854D01*
X135953666Y-91320001D01*
X136236336Y-91320001D01*
X136513575Y-91264854D01*
X136774728Y-91156681D01*
X137009760Y-90999638D01*
X137209638Y-90799760D01*
X137365001Y-90567242D01*
X137520364Y-90799760D01*
X137720242Y-90999638D01*
X137955274Y-91156681D01*
X138216427Y-91264854D01*
X138493666Y-91320001D01*
X138776336Y-91320001D01*
X139053575Y-91264854D01*
X139314728Y-91156681D01*
X139549760Y-90999638D01*
X139749638Y-90799760D01*
X139905001Y-90567242D01*
X140060364Y-90799760D01*
X140225604Y-90965000D01*
X140148061Y-90965000D01*
X139948102Y-91004774D01*
X139759744Y-91082795D01*
X139590226Y-91196063D01*
X139446063Y-91340226D01*
X139332795Y-91509744D01*
X139254774Y-91698102D01*
X139215000Y-91898061D01*
X139215000Y-92101939D01*
X139254774Y-92301898D01*
X139332795Y-92490256D01*
X139446063Y-92659774D01*
X139590226Y-92803937D01*
X139759744Y-92917205D01*
X139948102Y-92995226D01*
X140148061Y-93035000D01*
X140210199Y-93035000D01*
X142290198Y-95115000D01*
X137750000Y-95115000D01*
X137626118Y-95127201D01*
X137506996Y-95163336D01*
X137397213Y-95222017D01*
X137300987Y-95300987D01*
X137222017Y-95397213D01*
X137163336Y-95506996D01*
X137127201Y-95626118D01*
X137115000Y-95750000D01*
X137115000Y-101750000D01*
X137127201Y-101873882D01*
X137163336Y-101993004D01*
X137222017Y-102102787D01*
X137300987Y-102199013D01*
X137397213Y-102277983D01*
X137506996Y-102336664D01*
X137626118Y-102372799D01*
X137750000Y-102385000D01*
X141250000Y-102385000D01*
X141373882Y-102372799D01*
X141493004Y-102336664D01*
X141602787Y-102277983D01*
X141699013Y-102199013D01*
X141777983Y-102102787D01*
X141836664Y-101993004D01*
X141872799Y-101873882D01*
X141885000Y-101750000D01*
X141885000Y-100540909D01*
X145518696Y-100540909D01*
X145593367Y-100787481D01*
X145853228Y-100910931D01*
X146132180Y-100981313D01*
X146419502Y-100995921D01*
X146704154Y-100954194D01*
X146975196Y-100857737D01*
X147106633Y-100787481D01*
X147181304Y-100540909D01*
X146350000Y-99709605D01*
X145518696Y-100540909D01*
X141885000Y-100540909D01*
X141885000Y-99135000D01*
X144943391Y-99135000D01*
X144898687Y-99312180D01*
X144884079Y-99599502D01*
X144925806Y-99884154D01*
X145022263Y-100155196D01*
X145092519Y-100286633D01*
X145339091Y-100361304D01*
X146170395Y-99530000D01*
X146156253Y-99515858D01*
X146335858Y-99336253D01*
X146350000Y-99350395D01*
X146364143Y-99336253D01*
X146543748Y-99515858D01*
X146529605Y-99530000D01*
X147360909Y-100361304D01*
X147607481Y-100286633D01*
X147730931Y-100026772D01*
X147801313Y-99747820D01*
X147815921Y-99460498D01*
X147774194Y-99175846D01*
X147759658Y-99135000D01*
X148250000Y-99135000D01*
X148373882Y-99122799D01*
X148493004Y-99086664D01*
X148602787Y-99027983D01*
X148699013Y-98949013D01*
X148777983Y-98852787D01*
X148836664Y-98743004D01*
X148872799Y-98623882D01*
X148885000Y-98500000D01*
X148885000Y-96360501D01*
X153535700Y-96360501D01*
X156965000Y-99789802D01*
X156965000Y-99851939D01*
X157004774Y-100051898D01*
X157082795Y-100240256D01*
X157196063Y-100409774D01*
X157201289Y-100415000D01*
X157184063Y-100432226D01*
X157070795Y-100601744D01*
X156992774Y-100790102D01*
X156953000Y-100990061D01*
X156953000Y-101193939D01*
X156992774Y-101393898D01*
X157070795Y-101582256D01*
X157184063Y-101751774D01*
X157328226Y-101895937D01*
X157497744Y-102009205D01*
X157643142Y-102069431D01*
X158564374Y-102990664D01*
X158593656Y-103026344D01*
X158736028Y-103143186D01*
X158898460Y-103230007D01*
X159021243Y-103267253D01*
X159074707Y-103283471D01*
X159257999Y-103301524D01*
X159303931Y-103297000D01*
X163128705Y-103297000D01*
X163274102Y-103357226D01*
X163474061Y-103397000D01*
X163677939Y-103397000D01*
X163877898Y-103357226D01*
X164066256Y-103279205D01*
X164235774Y-103165937D01*
X164379937Y-103021774D01*
X164493205Y-102852256D01*
X164571226Y-102663898D01*
X164611000Y-102463939D01*
X164611000Y-102260061D01*
X164571226Y-102060102D01*
X164493205Y-101871744D01*
X164379937Y-101702226D01*
X164235774Y-101558063D01*
X164066256Y-101444795D01*
X163877898Y-101366774D01*
X163677939Y-101327000D01*
X163474061Y-101327000D01*
X163274102Y-101366774D01*
X163128705Y-101427000D01*
X159645290Y-101427000D01*
X158965431Y-100747142D01*
X158905205Y-100601744D01*
X158791937Y-100432226D01*
X158786711Y-100427000D01*
X158803937Y-100409774D01*
X158917205Y-100240256D01*
X158995226Y-100051898D01*
X159035000Y-99851939D01*
X159035000Y-99648061D01*
X158995226Y-99448102D01*
X158934765Y-99302137D01*
X176837000Y-99302137D01*
X176837001Y-101357864D01*
X176859935Y-101590714D01*
X176950567Y-101889488D01*
X177097745Y-102164839D01*
X177295814Y-102406187D01*
X177537162Y-102604256D01*
X177812513Y-102751434D01*
X178111287Y-102842066D01*
X178422000Y-102872669D01*
X178732714Y-102842066D01*
X179031488Y-102751434D01*
X179306839Y-102604256D01*
X179548187Y-102406187D01*
X179746256Y-102164839D01*
X179893434Y-101889488D01*
X179984066Y-101590714D01*
X180007000Y-101357864D01*
X180007000Y-100457000D01*
X182767000Y-100457000D01*
X182767000Y-101407000D01*
X182822232Y-101713778D01*
X182936252Y-102003886D01*
X183104678Y-102266175D01*
X183321038Y-102490566D01*
X183577017Y-102668436D01*
X183862779Y-102792949D01*
X183979412Y-102820586D01*
X184225000Y-102700584D01*
X184225000Y-100457000D01*
X184479000Y-100457000D01*
X184479000Y-102700584D01*
X184724588Y-102820586D01*
X184841221Y-102792949D01*
X185126983Y-102668436D01*
X185382962Y-102490566D01*
X185599322Y-102266175D01*
X185767748Y-102003886D01*
X185881768Y-101713778D01*
X185937000Y-101407000D01*
X185937000Y-100457000D01*
X184479000Y-100457000D01*
X184225000Y-100457000D01*
X182767000Y-100457000D01*
X180007000Y-100457000D01*
X180007000Y-99302136D01*
X180002161Y-99253000D01*
X182767000Y-99253000D01*
X182767000Y-100203000D01*
X184225000Y-100203000D01*
X184225000Y-97959416D01*
X184479000Y-97959416D01*
X184479000Y-100203000D01*
X185937000Y-100203000D01*
X185937000Y-99253000D01*
X185881768Y-98946222D01*
X185767748Y-98656114D01*
X185599322Y-98393825D01*
X185382962Y-98169434D01*
X185126983Y-97991564D01*
X184841221Y-97867051D01*
X184724588Y-97839414D01*
X184479000Y-97959416D01*
X184225000Y-97959416D01*
X183979412Y-97839414D01*
X183862779Y-97867051D01*
X183577017Y-97991564D01*
X183321038Y-98169434D01*
X183104678Y-98393825D01*
X182936252Y-98656114D01*
X182822232Y-98946222D01*
X182767000Y-99253000D01*
X180002161Y-99253000D01*
X179984066Y-99069286D01*
X179893434Y-98770512D01*
X179746256Y-98495161D01*
X179548187Y-98253813D01*
X179306838Y-98055744D01*
X179031487Y-97908566D01*
X178732713Y-97817934D01*
X178422000Y-97787331D01*
X178111286Y-97817934D01*
X177812512Y-97908566D01*
X177537161Y-98055744D01*
X177295813Y-98253813D01*
X177097744Y-98495162D01*
X176950566Y-98770513D01*
X176859934Y-99069287D01*
X176837000Y-99302137D01*
X158934765Y-99302137D01*
X158917205Y-99259744D01*
X158827172Y-99125000D01*
X158917205Y-98990256D01*
X158995226Y-98801898D01*
X159035000Y-98601939D01*
X159035000Y-98398061D01*
X158995226Y-98198102D01*
X158917205Y-98009744D01*
X158803937Y-97840226D01*
X158659774Y-97696063D01*
X158490256Y-97582795D01*
X158301898Y-97504774D01*
X158101939Y-97465000D01*
X158039803Y-97465000D01*
X156627391Y-96052588D01*
X178611414Y-96052588D01*
X178639051Y-96169221D01*
X178763564Y-96454983D01*
X178941434Y-96710962D01*
X179165825Y-96927322D01*
X179428114Y-97095748D01*
X179718222Y-97209768D01*
X180025000Y-97265000D01*
X180975000Y-97265000D01*
X180975000Y-95807000D01*
X181229000Y-95807000D01*
X181229000Y-97265000D01*
X182179000Y-97265000D01*
X182485778Y-97209768D01*
X182775886Y-97095748D01*
X183038175Y-96927322D01*
X183262566Y-96710962D01*
X183440436Y-96454983D01*
X183564949Y-96169221D01*
X183592586Y-96052588D01*
X183472584Y-95807000D01*
X181229000Y-95807000D01*
X180975000Y-95807000D01*
X178731416Y-95807000D01*
X178611414Y-96052588D01*
X156627391Y-96052588D01*
X155063804Y-94489003D01*
X155040001Y-94459999D01*
X154924276Y-94365026D01*
X154792247Y-94294454D01*
X154648986Y-94250997D01*
X154537333Y-94240000D01*
X154537322Y-94240000D01*
X154500000Y-94236324D01*
X154462678Y-94240000D01*
X151564802Y-94240000D01*
X149706289Y-92381488D01*
X149759744Y-92417205D01*
X149948102Y-92495226D01*
X150148061Y-92535000D01*
X150351939Y-92535000D01*
X150551898Y-92495226D01*
X150740256Y-92417205D01*
X150909774Y-92303937D01*
X150965000Y-92248711D01*
X150965000Y-92351939D01*
X151004774Y-92551898D01*
X151082795Y-92740256D01*
X151196063Y-92909774D01*
X151340226Y-93053937D01*
X151509744Y-93167205D01*
X151698102Y-93245226D01*
X151898061Y-93285000D01*
X152101939Y-93285000D01*
X152301898Y-93245226D01*
X152490256Y-93167205D01*
X152659774Y-93053937D01*
X152703711Y-93010000D01*
X153900198Y-93010000D01*
X156401199Y-95511002D01*
X156424998Y-95540001D01*
X156540723Y-95634974D01*
X156672752Y-95705546D01*
X156816013Y-95749003D01*
X156927666Y-95760000D01*
X156927675Y-95760000D01*
X156964998Y-95763676D01*
X157002321Y-95760000D01*
X162546289Y-95760000D01*
X162590226Y-95803937D01*
X162759744Y-95917205D01*
X162948102Y-95995226D01*
X163148061Y-96035000D01*
X163351939Y-96035000D01*
X163551898Y-95995226D01*
X163740256Y-95917205D01*
X163909774Y-95803937D01*
X164053937Y-95659774D01*
X164167205Y-95490256D01*
X164242942Y-95307412D01*
X178611414Y-95307412D01*
X178731416Y-95553000D01*
X180975000Y-95553000D01*
X180975000Y-94095000D01*
X181229000Y-94095000D01*
X181229000Y-95553000D01*
X183472584Y-95553000D01*
X183592586Y-95307412D01*
X183564949Y-95190779D01*
X183440436Y-94905017D01*
X183262566Y-94649038D01*
X183038175Y-94432678D01*
X182775886Y-94264252D01*
X182485778Y-94150232D01*
X182179000Y-94095000D01*
X181229000Y-94095000D01*
X180975000Y-94095000D01*
X180025000Y-94095000D01*
X179718222Y-94150232D01*
X179428114Y-94264252D01*
X179165825Y-94432678D01*
X178941434Y-94649038D01*
X178763564Y-94905017D01*
X178639051Y-95190779D01*
X178611414Y-95307412D01*
X164242942Y-95307412D01*
X164245226Y-95301898D01*
X164285000Y-95101939D01*
X164285000Y-94898061D01*
X164245226Y-94698102D01*
X164167205Y-94509744D01*
X164053937Y-94340226D01*
X163909774Y-94196063D01*
X163740256Y-94082795D01*
X163551898Y-94004774D01*
X163351939Y-93965000D01*
X163148061Y-93965000D01*
X162948102Y-94004774D01*
X162759744Y-94082795D01*
X162590226Y-94196063D01*
X162546289Y-94240000D01*
X157279801Y-94240000D01*
X154899801Y-91860001D01*
X160535200Y-91860001D01*
X161074999Y-92399801D01*
X161074999Y-92547677D01*
X161071323Y-92584999D01*
X161074999Y-92622321D01*
X161074999Y-92622332D01*
X161085996Y-92733985D01*
X161129453Y-92877246D01*
X161200025Y-93009275D01*
X161294999Y-93125000D01*
X161323997Y-93148798D01*
X161686196Y-93510997D01*
X161709999Y-93540001D01*
X161825724Y-93634974D01*
X161957753Y-93705546D01*
X162101014Y-93749003D01*
X162212667Y-93760000D01*
X162212676Y-93760000D01*
X162249999Y-93763676D01*
X162287322Y-93760000D01*
X165935199Y-93760000D01*
X166465000Y-94289802D01*
X166465000Y-94351939D01*
X166504774Y-94551898D01*
X166582795Y-94740256D01*
X166696063Y-94909774D01*
X166840226Y-95053937D01*
X167009744Y-95167205D01*
X167198102Y-95245226D01*
X167398061Y-95285000D01*
X167601939Y-95285000D01*
X167801898Y-95245226D01*
X167990256Y-95167205D01*
X168159774Y-95053937D01*
X168303937Y-94909774D01*
X168417205Y-94740256D01*
X168495226Y-94551898D01*
X168535000Y-94351939D01*
X168535000Y-94148061D01*
X168495226Y-93948102D01*
X168417205Y-93759744D01*
X168303937Y-93590226D01*
X168159774Y-93446063D01*
X167990256Y-93332795D01*
X167801898Y-93254774D01*
X167601939Y-93215000D01*
X167539802Y-93215000D01*
X167461802Y-93137000D01*
X181992070Y-93137000D01*
X182038002Y-93141524D01*
X182083934Y-93137000D01*
X182221294Y-93123471D01*
X182397542Y-93070007D01*
X182559974Y-92983186D01*
X182702346Y-92866344D01*
X182731632Y-92830659D01*
X184242291Y-91320001D01*
X184496336Y-91320001D01*
X184773575Y-91264854D01*
X185034728Y-91156681D01*
X185269760Y-90999638D01*
X185469638Y-90799760D01*
X185625001Y-90567242D01*
X185780364Y-90799760D01*
X185980242Y-90999638D01*
X186215274Y-91156681D01*
X186476427Y-91264854D01*
X186753666Y-91320001D01*
X187036336Y-91320001D01*
X187313575Y-91264854D01*
X187574728Y-91156681D01*
X187809760Y-90999638D01*
X188009638Y-90799760D01*
X188165001Y-90567242D01*
X188320364Y-90799760D01*
G37*
%TD.AperFunction*%
%TD*%
D25*
%TO.N,GNDA*%
X185780364Y-75559760D02*
X185980242Y-75759638D01*
X186215274Y-75916681D01*
X186476427Y-76024854D01*
X186753666Y-76080001D01*
X187036336Y-76080001D01*
X187313575Y-76024854D01*
X187574728Y-75916681D01*
X187809760Y-75759638D01*
X188008358Y-75561040D01*
X188009189Y-75569483D01*
X188045499Y-75689181D01*
X188104464Y-75799495D01*
X188183816Y-75896186D01*
X188280507Y-75975538D01*
X188390821Y-76034503D01*
X188510519Y-76070813D01*
X188635001Y-76083073D01*
X189357000Y-76083073D01*
X189357000Y-88450001D01*
X189293666Y-88450001D01*
X189016427Y-88505148D01*
X188755274Y-88613321D01*
X188520242Y-88770364D01*
X188320364Y-88970242D01*
X188164086Y-89204129D01*
X188131672Y-89143487D01*
X187887703Y-89071904D01*
X187170607Y-89789000D01*
X186619395Y-89789000D01*
X185902299Y-89071904D01*
X185658330Y-89143487D01*
X185627807Y-89207993D01*
X185626681Y-89205274D01*
X185469638Y-88970242D01*
X185391695Y-88892299D01*
X186081904Y-88892299D01*
X186895001Y-89705396D01*
X187708098Y-88892299D01*
X187636515Y-88648330D01*
X187381005Y-88527430D01*
X187106817Y-88458701D01*
X186824489Y-88444784D01*
X186544871Y-88486214D01*
X186278709Y-88581398D01*
X186153487Y-88648330D01*
X186081904Y-88892299D01*
X185391695Y-88892299D01*
X185269760Y-88770364D01*
X185034728Y-88613321D01*
X184773575Y-88505148D01*
X184496336Y-88450001D01*
X184242291Y-88450001D01*
X182793630Y-87001341D01*
X182764344Y-86965656D01*
X182621972Y-86848814D01*
X182459540Y-86761993D01*
X182283292Y-86708529D01*
X182145932Y-86695000D01*
X182100000Y-86690476D01*
X182054068Y-86695000D01*
X166249290Y-86695000D01*
X162521431Y-82967142D01*
X162461205Y-82821744D01*
X162347937Y-82652226D01*
X162203774Y-82508063D01*
X162034256Y-82394795D01*
X161845898Y-82316774D01*
X161645939Y-82277000D01*
X161442061Y-82277000D01*
X161242102Y-82316774D01*
X161053744Y-82394795D01*
X160884226Y-82508063D01*
X160740063Y-82652226D01*
X160626795Y-82821744D01*
X160548774Y-83010102D01*
X160509000Y-83210061D01*
X160509000Y-83273021D01*
X160507226Y-83264102D01*
X160429205Y-83075744D01*
X160315937Y-82906226D01*
X160171774Y-82762063D01*
X160002256Y-82648795D01*
X159813898Y-82570774D01*
X159613939Y-82531000D01*
X159551802Y-82531000D01*
X158535665Y-81514864D01*
X158543898Y-81513226D01*
X158732256Y-81435205D01*
X158901774Y-81321937D01*
X159045937Y-81177774D01*
X159159205Y-81008256D01*
X159237226Y-80819898D01*
X159277000Y-80619939D01*
X159277000Y-80557801D01*
X162874802Y-76960000D01*
X166118001Y-76960000D01*
X166118000Y-82004677D01*
X166114324Y-82042000D01*
X166118000Y-82079322D01*
X166118000Y-82079332D01*
X166128997Y-82190985D01*
X166155089Y-82277000D01*
X166172454Y-82334246D01*
X166243026Y-82466276D01*
X166251755Y-82476912D01*
X166337999Y-82582001D01*
X166367003Y-82605804D01*
X167875000Y-84113802D01*
X167875000Y-84175939D01*
X167914774Y-84375898D01*
X167992795Y-84564256D01*
X168106063Y-84733774D01*
X168250226Y-84877937D01*
X168419744Y-84991205D01*
X168608102Y-85069226D01*
X168808061Y-85109000D01*
X169011939Y-85109000D01*
X169211898Y-85069226D01*
X169400256Y-84991205D01*
X169569774Y-84877937D01*
X169713937Y-84733774D01*
X169827205Y-84564256D01*
X169905226Y-84375898D01*
X169945000Y-84175939D01*
X169945000Y-83972061D01*
X169905226Y-83772102D01*
X169827205Y-83583744D01*
X169713937Y-83414226D01*
X169569774Y-83270063D01*
X169400256Y-83156795D01*
X169211898Y-83078774D01*
X169011939Y-83039000D01*
X168949802Y-83039000D01*
X167638000Y-81727199D01*
X167638000Y-76960000D01*
X171643199Y-76960000D01*
X172447000Y-77763802D01*
X172447000Y-77825939D01*
X172486774Y-78025898D01*
X172564795Y-78214256D01*
X172678063Y-78383774D01*
X172782289Y-78488000D01*
X169914356Y-78488000D01*
X169945000Y-78333939D01*
X169945000Y-78130061D01*
X169905226Y-77930102D01*
X169827205Y-77741744D01*
X169713937Y-77572226D01*
X169569774Y-77428063D01*
X169400256Y-77314795D01*
X169211898Y-77236774D01*
X169011939Y-77197000D01*
X168808061Y-77197000D01*
X168608102Y-77236774D01*
X168419744Y-77314795D01*
X168250226Y-77428063D01*
X168106063Y-77572226D01*
X167992795Y-77741744D01*
X167914774Y-77930102D01*
X167875000Y-78130061D01*
X167875000Y-78333939D01*
X167914774Y-78533898D01*
X167992795Y-78722256D01*
X168004651Y-78740000D01*
X167992795Y-78757744D01*
X167914774Y-78946102D01*
X167875000Y-79146061D01*
X167875000Y-79349939D01*
X167914774Y-79549898D01*
X167992795Y-79738256D01*
X168106063Y-79907774D01*
X168250226Y-80051937D01*
X168377532Y-80137000D01*
X168250226Y-80222063D01*
X168106063Y-80366226D01*
X167992795Y-80535744D01*
X167914774Y-80724102D01*
X167875000Y-80924061D01*
X167875000Y-81127939D01*
X167914774Y-81327898D01*
X167992795Y-81516256D01*
X168106063Y-81685774D01*
X168250226Y-81829937D01*
X168419744Y-81943205D01*
X168608102Y-82021226D01*
X168808061Y-82061000D01*
X169011939Y-82061000D01*
X169211898Y-82021226D01*
X169400256Y-81943205D01*
X169569774Y-81829937D01*
X169613711Y-81786000D01*
X174048289Y-81786000D01*
X174092226Y-81829937D01*
X174261744Y-81943205D01*
X174450102Y-82021226D01*
X174650061Y-82061000D01*
X174853939Y-82061000D01*
X175053898Y-82021226D01*
X175242256Y-81943205D01*
X175411774Y-81829937D01*
X175555937Y-81685774D01*
X175575324Y-81656758D01*
X181427000Y-81656758D01*
X181427000Y-82343242D01*
X181560927Y-83016537D01*
X181823633Y-83650766D01*
X182205024Y-84221558D01*
X182690442Y-84706976D01*
X183261234Y-85088367D01*
X183895463Y-85351073D01*
X184568758Y-85485000D01*
X185255242Y-85485000D01*
X185928537Y-85351073D01*
X186562766Y-85088367D01*
X187133558Y-84706976D01*
X187618976Y-84221558D01*
X188000367Y-83650766D01*
X188263073Y-83016537D01*
X188397000Y-82343242D01*
X188397000Y-81656758D01*
X188263073Y-80983463D01*
X188000367Y-80349234D01*
X187618976Y-79778442D01*
X187133558Y-79293024D01*
X186562766Y-78911633D01*
X185928537Y-78648927D01*
X185255242Y-78515000D01*
X184568758Y-78515000D01*
X183895463Y-78648927D01*
X183261234Y-78911633D01*
X182690442Y-79293024D01*
X182205024Y-79778442D01*
X181823633Y-80349234D01*
X181560927Y-80983463D01*
X181427000Y-81656758D01*
X175575324Y-81656758D01*
X175669205Y-81516256D01*
X175747226Y-81327898D01*
X175787000Y-81127939D01*
X175787000Y-80924061D01*
X175747226Y-80724102D01*
X175669205Y-80535744D01*
X175555937Y-80366226D01*
X175411774Y-80222063D01*
X175242256Y-80108795D01*
X175053898Y-80030774D01*
X174853939Y-79991000D01*
X174650061Y-79991000D01*
X174450102Y-80030774D01*
X174261744Y-80108795D01*
X174092226Y-80222063D01*
X174048289Y-80266000D01*
X169613711Y-80266000D01*
X169569774Y-80222063D01*
X169442468Y-80137000D01*
X169569774Y-80051937D01*
X169613711Y-80008000D01*
X173698678Y-80008000D01*
X173736000Y-80011676D01*
X173773322Y-80008000D01*
X173773333Y-80008000D01*
X173884986Y-79997003D01*
X174028247Y-79953546D01*
X174160276Y-79882974D01*
X174276001Y-79788001D01*
X174299803Y-79758998D01*
X175299802Y-78759000D01*
X175361939Y-78759000D01*
X175561898Y-78719226D01*
X175750256Y-78641205D01*
X175919774Y-78527937D01*
X176063937Y-78383774D01*
X176177205Y-78214256D01*
X176255226Y-78025898D01*
X176295000Y-77825939D01*
X176295000Y-77622061D01*
X176255226Y-77422102D01*
X176177205Y-77233744D01*
X176063937Y-77064226D01*
X175919774Y-76920063D01*
X175750256Y-76806795D01*
X175561898Y-76728774D01*
X175361939Y-76689000D01*
X175158061Y-76689000D01*
X174958102Y-76728774D01*
X174769744Y-76806795D01*
X174600226Y-76920063D01*
X174456063Y-77064226D01*
X174371000Y-77191532D01*
X174285937Y-77064226D01*
X174141774Y-76920063D01*
X173972256Y-76806795D01*
X173783898Y-76728774D01*
X173583939Y-76689000D01*
X173521802Y-76689000D01*
X172581100Y-75748298D01*
X172769638Y-75559760D01*
X172925001Y-75327242D01*
X173080364Y-75559760D01*
X173280242Y-75759638D01*
X173515274Y-75916681D01*
X173776427Y-76024854D01*
X174053666Y-76080001D01*
X174336336Y-76080001D01*
X174613575Y-76024854D01*
X174874728Y-75916681D01*
X175109760Y-75759638D01*
X175309638Y-75559760D01*
X175465001Y-75327242D01*
X175620364Y-75559760D01*
X175820242Y-75759638D01*
X176055274Y-75916681D01*
X176316427Y-76024854D01*
X176593666Y-76080001D01*
X176876336Y-76080001D01*
X177153575Y-76024854D01*
X177414728Y-75916681D01*
X177649760Y-75759638D01*
X177849638Y-75559760D01*
X178005001Y-75327242D01*
X178160364Y-75559760D01*
X178360242Y-75759638D01*
X178595274Y-75916681D01*
X178856427Y-76024854D01*
X179133666Y-76080001D01*
X179416336Y-76080001D01*
X179693575Y-76024854D01*
X179954728Y-75916681D01*
X180189760Y-75759638D01*
X180389638Y-75559760D01*
X180545001Y-75327242D01*
X180700364Y-75559760D01*
X180900242Y-75759638D01*
X181135274Y-75916681D01*
X181396427Y-76024854D01*
X181673666Y-76080001D01*
X181956336Y-76080001D01*
X182233575Y-76024854D01*
X182494728Y-75916681D01*
X182729760Y-75759638D01*
X182929638Y-75559760D01*
X183085001Y-75327242D01*
X183240364Y-75559760D01*
X183440242Y-75759638D01*
X183675274Y-75916681D01*
X183936427Y-76024854D01*
X184213666Y-76080001D01*
X184496336Y-76080001D01*
X184773575Y-76024854D01*
X185034728Y-75916681D01*
X185269760Y-75759638D01*
X185469638Y-75559760D01*
X185625001Y-75327242D01*
X185780364Y-75559760D01*
%TA.AperFunction,Conductor*%
D26*
G36*
X185780364Y-75559760D02*
G01*
X185980242Y-75759638D01*
X186215274Y-75916681D01*
X186476427Y-76024854D01*
X186753666Y-76080001D01*
X187036336Y-76080001D01*
X187313575Y-76024854D01*
X187574728Y-75916681D01*
X187809760Y-75759638D01*
X188008358Y-75561040D01*
X188009189Y-75569483D01*
X188045499Y-75689181D01*
X188104464Y-75799495D01*
X188183816Y-75896186D01*
X188280507Y-75975538D01*
X188390821Y-76034503D01*
X188510519Y-76070813D01*
X188635001Y-76083073D01*
X189357000Y-76083073D01*
X189357000Y-88450001D01*
X189293666Y-88450001D01*
X189016427Y-88505148D01*
X188755274Y-88613321D01*
X188520242Y-88770364D01*
X188320364Y-88970242D01*
X188164086Y-89204129D01*
X188131672Y-89143487D01*
X187887703Y-89071904D01*
X187170607Y-89789000D01*
X186619395Y-89789000D01*
X185902299Y-89071904D01*
X185658330Y-89143487D01*
X185627807Y-89207993D01*
X185626681Y-89205274D01*
X185469638Y-88970242D01*
X185391695Y-88892299D01*
X186081904Y-88892299D01*
X186895001Y-89705396D01*
X187708098Y-88892299D01*
X187636515Y-88648330D01*
X187381005Y-88527430D01*
X187106817Y-88458701D01*
X186824489Y-88444784D01*
X186544871Y-88486214D01*
X186278709Y-88581398D01*
X186153487Y-88648330D01*
X186081904Y-88892299D01*
X185391695Y-88892299D01*
X185269760Y-88770364D01*
X185034728Y-88613321D01*
X184773575Y-88505148D01*
X184496336Y-88450001D01*
X184242291Y-88450001D01*
X182793630Y-87001341D01*
X182764344Y-86965656D01*
X182621972Y-86848814D01*
X182459540Y-86761993D01*
X182283292Y-86708529D01*
X182145932Y-86695000D01*
X182100000Y-86690476D01*
X182054068Y-86695000D01*
X166249290Y-86695000D01*
X162521431Y-82967142D01*
X162461205Y-82821744D01*
X162347937Y-82652226D01*
X162203774Y-82508063D01*
X162034256Y-82394795D01*
X161845898Y-82316774D01*
X161645939Y-82277000D01*
X161442061Y-82277000D01*
X161242102Y-82316774D01*
X161053744Y-82394795D01*
X160884226Y-82508063D01*
X160740063Y-82652226D01*
X160626795Y-82821744D01*
X160548774Y-83010102D01*
X160509000Y-83210061D01*
X160509000Y-83273021D01*
X160507226Y-83264102D01*
X160429205Y-83075744D01*
X160315937Y-82906226D01*
X160171774Y-82762063D01*
X160002256Y-82648795D01*
X159813898Y-82570774D01*
X159613939Y-82531000D01*
X159551802Y-82531000D01*
X158535665Y-81514864D01*
X158543898Y-81513226D01*
X158732256Y-81435205D01*
X158901774Y-81321937D01*
X159045937Y-81177774D01*
X159159205Y-81008256D01*
X159237226Y-80819898D01*
X159277000Y-80619939D01*
X159277000Y-80557801D01*
X162874802Y-76960000D01*
X166118001Y-76960000D01*
X166118000Y-82004677D01*
X166114324Y-82042000D01*
X166118000Y-82079322D01*
X166118000Y-82079332D01*
X166128997Y-82190985D01*
X166155089Y-82277000D01*
X166172454Y-82334246D01*
X166243026Y-82466276D01*
X166251755Y-82476912D01*
X166337999Y-82582001D01*
X166367003Y-82605804D01*
X167875000Y-84113802D01*
X167875000Y-84175939D01*
X167914774Y-84375898D01*
X167992795Y-84564256D01*
X168106063Y-84733774D01*
X168250226Y-84877937D01*
X168419744Y-84991205D01*
X168608102Y-85069226D01*
X168808061Y-85109000D01*
X169011939Y-85109000D01*
X169211898Y-85069226D01*
X169400256Y-84991205D01*
X169569774Y-84877937D01*
X169713937Y-84733774D01*
X169827205Y-84564256D01*
X169905226Y-84375898D01*
X169945000Y-84175939D01*
X169945000Y-83972061D01*
X169905226Y-83772102D01*
X169827205Y-83583744D01*
X169713937Y-83414226D01*
X169569774Y-83270063D01*
X169400256Y-83156795D01*
X169211898Y-83078774D01*
X169011939Y-83039000D01*
X168949802Y-83039000D01*
X167638000Y-81727199D01*
X167638000Y-76960000D01*
X171643199Y-76960000D01*
X172447000Y-77763802D01*
X172447000Y-77825939D01*
X172486774Y-78025898D01*
X172564795Y-78214256D01*
X172678063Y-78383774D01*
X172782289Y-78488000D01*
X169914356Y-78488000D01*
X169945000Y-78333939D01*
X169945000Y-78130061D01*
X169905226Y-77930102D01*
X169827205Y-77741744D01*
X169713937Y-77572226D01*
X169569774Y-77428063D01*
X169400256Y-77314795D01*
X169211898Y-77236774D01*
X169011939Y-77197000D01*
X168808061Y-77197000D01*
X168608102Y-77236774D01*
X168419744Y-77314795D01*
X168250226Y-77428063D01*
X168106063Y-77572226D01*
X167992795Y-77741744D01*
X167914774Y-77930102D01*
X167875000Y-78130061D01*
X167875000Y-78333939D01*
X167914774Y-78533898D01*
X167992795Y-78722256D01*
X168004651Y-78740000D01*
X167992795Y-78757744D01*
X167914774Y-78946102D01*
X167875000Y-79146061D01*
X167875000Y-79349939D01*
X167914774Y-79549898D01*
X167992795Y-79738256D01*
X168106063Y-79907774D01*
X168250226Y-80051937D01*
X168377532Y-80137000D01*
X168250226Y-80222063D01*
X168106063Y-80366226D01*
X167992795Y-80535744D01*
X167914774Y-80724102D01*
X167875000Y-80924061D01*
X167875000Y-81127939D01*
X167914774Y-81327898D01*
X167992795Y-81516256D01*
X168106063Y-81685774D01*
X168250226Y-81829937D01*
X168419744Y-81943205D01*
X168608102Y-82021226D01*
X168808061Y-82061000D01*
X169011939Y-82061000D01*
X169211898Y-82021226D01*
X169400256Y-81943205D01*
X169569774Y-81829937D01*
X169613711Y-81786000D01*
X174048289Y-81786000D01*
X174092226Y-81829937D01*
X174261744Y-81943205D01*
X174450102Y-82021226D01*
X174650061Y-82061000D01*
X174853939Y-82061000D01*
X175053898Y-82021226D01*
X175242256Y-81943205D01*
X175411774Y-81829937D01*
X175555937Y-81685774D01*
X175575324Y-81656758D01*
X181427000Y-81656758D01*
X181427000Y-82343242D01*
X181560927Y-83016537D01*
X181823633Y-83650766D01*
X182205024Y-84221558D01*
X182690442Y-84706976D01*
X183261234Y-85088367D01*
X183895463Y-85351073D01*
X184568758Y-85485000D01*
X185255242Y-85485000D01*
X185928537Y-85351073D01*
X186562766Y-85088367D01*
X187133558Y-84706976D01*
X187618976Y-84221558D01*
X188000367Y-83650766D01*
X188263073Y-83016537D01*
X188397000Y-82343242D01*
X188397000Y-81656758D01*
X188263073Y-80983463D01*
X188000367Y-80349234D01*
X187618976Y-79778442D01*
X187133558Y-79293024D01*
X186562766Y-78911633D01*
X185928537Y-78648927D01*
X185255242Y-78515000D01*
X184568758Y-78515000D01*
X183895463Y-78648927D01*
X183261234Y-78911633D01*
X182690442Y-79293024D01*
X182205024Y-79778442D01*
X181823633Y-80349234D01*
X181560927Y-80983463D01*
X181427000Y-81656758D01*
X175575324Y-81656758D01*
X175669205Y-81516256D01*
X175747226Y-81327898D01*
X175787000Y-81127939D01*
X175787000Y-80924061D01*
X175747226Y-80724102D01*
X175669205Y-80535744D01*
X175555937Y-80366226D01*
X175411774Y-80222063D01*
X175242256Y-80108795D01*
X175053898Y-80030774D01*
X174853939Y-79991000D01*
X174650061Y-79991000D01*
X174450102Y-80030774D01*
X174261744Y-80108795D01*
X174092226Y-80222063D01*
X174048289Y-80266000D01*
X169613711Y-80266000D01*
X169569774Y-80222063D01*
X169442468Y-80137000D01*
X169569774Y-80051937D01*
X169613711Y-80008000D01*
X173698678Y-80008000D01*
X173736000Y-80011676D01*
X173773322Y-80008000D01*
X173773333Y-80008000D01*
X173884986Y-79997003D01*
X174028247Y-79953546D01*
X174160276Y-79882974D01*
X174276001Y-79788001D01*
X174299803Y-79758998D01*
X175299802Y-78759000D01*
X175361939Y-78759000D01*
X175561898Y-78719226D01*
X175750256Y-78641205D01*
X175919774Y-78527937D01*
X176063937Y-78383774D01*
X176177205Y-78214256D01*
X176255226Y-78025898D01*
X176295000Y-77825939D01*
X176295000Y-77622061D01*
X176255226Y-77422102D01*
X176177205Y-77233744D01*
X176063937Y-77064226D01*
X175919774Y-76920063D01*
X175750256Y-76806795D01*
X175561898Y-76728774D01*
X175361939Y-76689000D01*
X175158061Y-76689000D01*
X174958102Y-76728774D01*
X174769744Y-76806795D01*
X174600226Y-76920063D01*
X174456063Y-77064226D01*
X174371000Y-77191532D01*
X174285937Y-77064226D01*
X174141774Y-76920063D01*
X173972256Y-76806795D01*
X173783898Y-76728774D01*
X173583939Y-76689000D01*
X173521802Y-76689000D01*
X172581100Y-75748298D01*
X172769638Y-75559760D01*
X172925001Y-75327242D01*
X173080364Y-75559760D01*
X173280242Y-75759638D01*
X173515274Y-75916681D01*
X173776427Y-76024854D01*
X174053666Y-76080001D01*
X174336336Y-76080001D01*
X174613575Y-76024854D01*
X174874728Y-75916681D01*
X175109760Y-75759638D01*
X175309638Y-75559760D01*
X175465001Y-75327242D01*
X175620364Y-75559760D01*
X175820242Y-75759638D01*
X176055274Y-75916681D01*
X176316427Y-76024854D01*
X176593666Y-76080001D01*
X176876336Y-76080001D01*
X177153575Y-76024854D01*
X177414728Y-75916681D01*
X177649760Y-75759638D01*
X177849638Y-75559760D01*
X178005001Y-75327242D01*
X178160364Y-75559760D01*
X178360242Y-75759638D01*
X178595274Y-75916681D01*
X178856427Y-76024854D01*
X179133666Y-76080001D01*
X179416336Y-76080001D01*
X179693575Y-76024854D01*
X179954728Y-75916681D01*
X180189760Y-75759638D01*
X180389638Y-75559760D01*
X180545001Y-75327242D01*
X180700364Y-75559760D01*
X180900242Y-75759638D01*
X181135274Y-75916681D01*
X181396427Y-76024854D01*
X181673666Y-76080001D01*
X181956336Y-76080001D01*
X182233575Y-76024854D01*
X182494728Y-75916681D01*
X182729760Y-75759638D01*
X182929638Y-75559760D01*
X183085001Y-75327242D01*
X183240364Y-75559760D01*
X183440242Y-75759638D01*
X183675274Y-75916681D01*
X183936427Y-76024854D01*
X184213666Y-76080001D01*
X184496336Y-76080001D01*
X184773575Y-76024854D01*
X185034728Y-75916681D01*
X185269760Y-75759638D01*
X185469638Y-75559760D01*
X185625001Y-75327242D01*
X185780364Y-75559760D01*
G37*
%TD.AperFunction*%
D25*
X160380364Y-75559760D02*
X160580242Y-75759638D01*
X160815274Y-75916681D01*
X161076427Y-76024854D01*
X161353666Y-76080001D01*
X161605197Y-76080001D01*
X158202199Y-79483000D01*
X158140061Y-79483000D01*
X157940102Y-79522774D01*
X157751744Y-79600795D01*
X157582226Y-79714063D01*
X157438063Y-79858226D01*
X157375920Y-79951229D01*
X157208406Y-79839300D01*
X157020048Y-79761279D01*
X156820089Y-79721505D01*
X156616211Y-79721505D01*
X156416252Y-79761279D01*
X156227894Y-79839300D01*
X156058376Y-79952568D01*
X155914213Y-80096731D01*
X155800945Y-80266249D01*
X155722924Y-80454607D01*
X155683150Y-80654566D01*
X155683150Y-80858444D01*
X155722924Y-81058403D01*
X155800945Y-81246761D01*
X155914213Y-81416279D01*
X156058376Y-81560442D01*
X156227894Y-81673710D01*
X156416252Y-81751731D01*
X156616211Y-81791505D01*
X156662704Y-81791505D01*
X158477000Y-83605802D01*
X158477000Y-83667939D01*
X158516774Y-83867898D01*
X158594795Y-84056256D01*
X158708063Y-84225774D01*
X158852226Y-84369937D01*
X159021744Y-84483205D01*
X159210102Y-84561226D01*
X159410061Y-84601000D01*
X159613939Y-84601000D01*
X159813898Y-84561226D01*
X160002256Y-84483205D01*
X160171774Y-84369937D01*
X160315937Y-84225774D01*
X160429205Y-84056256D01*
X160507226Y-83867898D01*
X160547000Y-83667939D01*
X160547000Y-83604979D01*
X160548774Y-83613898D01*
X160626795Y-83802256D01*
X160740063Y-83971774D01*
X160884226Y-84115937D01*
X161053744Y-84229205D01*
X161199142Y-84289431D01*
X165168374Y-88258664D01*
X165197656Y-88294344D01*
X165340028Y-88411186D01*
X165502460Y-88498007D01*
X165625243Y-88535253D01*
X165678707Y-88551471D01*
X165861999Y-88569524D01*
X165907931Y-88565000D01*
X166011931Y-88565000D01*
X165895274Y-88613321D01*
X165660242Y-88770364D01*
X165460364Y-88970242D01*
X165305001Y-89202760D01*
X165149638Y-88970242D01*
X164949760Y-88770364D01*
X164714728Y-88613321D01*
X164453575Y-88505148D01*
X164176336Y-88450001D01*
X163893666Y-88450001D01*
X163616427Y-88505148D01*
X163355274Y-88613321D01*
X163120242Y-88770364D01*
X162920364Y-88970242D01*
X162765001Y-89202760D01*
X162609638Y-88970242D01*
X162409760Y-88770364D01*
X162174728Y-88613321D01*
X161913575Y-88505148D01*
X161636336Y-88450001D01*
X161353666Y-88450001D01*
X161076427Y-88505148D01*
X160815274Y-88613321D01*
X160580242Y-88770364D01*
X160380364Y-88970242D01*
X160225001Y-89202760D01*
X160069638Y-88970242D01*
X159869760Y-88770364D01*
X159634728Y-88613321D01*
X159373575Y-88505148D01*
X159096336Y-88450001D01*
X158813666Y-88450001D01*
X158536427Y-88505148D01*
X158275274Y-88613321D01*
X158040242Y-88770364D01*
X157840364Y-88970242D01*
X157685001Y-89202760D01*
X157529638Y-88970242D01*
X157329760Y-88770364D01*
X157094728Y-88613321D01*
X156833575Y-88505148D01*
X156556336Y-88450001D01*
X156273666Y-88450001D01*
X155996427Y-88505148D01*
X155735274Y-88613321D01*
X155500242Y-88770364D01*
X155300364Y-88970242D01*
X155145001Y-89202760D01*
X154989638Y-88970242D01*
X154789760Y-88770364D01*
X154554728Y-88613321D01*
X154293575Y-88505148D01*
X154016336Y-88450001D01*
X153733666Y-88450001D01*
X153456427Y-88505148D01*
X153195274Y-88613321D01*
X152960242Y-88770364D01*
X152760364Y-88970242D01*
X152605001Y-89202760D01*
X152449638Y-88970242D01*
X152249760Y-88770364D01*
X152014728Y-88613321D01*
X151753575Y-88505148D01*
X151476336Y-88450001D01*
X151193666Y-88450001D01*
X150916427Y-88505148D01*
X150655274Y-88613321D01*
X150420242Y-88770364D01*
X150220364Y-88970242D01*
X150065001Y-89202760D01*
X149909638Y-88970242D01*
X149709760Y-88770364D01*
X149474728Y-88613321D01*
X149213575Y-88505148D01*
X148936336Y-88450001D01*
X148653666Y-88450001D01*
X148376427Y-88505148D01*
X148115274Y-88613321D01*
X147880242Y-88770364D01*
X147680364Y-88970242D01*
X147525001Y-89202760D01*
X147369638Y-88970242D01*
X147169760Y-88770364D01*
X146934728Y-88613321D01*
X146673575Y-88505148D01*
X146396336Y-88450001D01*
X146113666Y-88450001D01*
X145836427Y-88505148D01*
X145575274Y-88613321D01*
X145340242Y-88770364D01*
X145140364Y-88970242D01*
X144985001Y-89202760D01*
X144829638Y-88970242D01*
X144629760Y-88770364D01*
X144394728Y-88613321D01*
X144133575Y-88505148D01*
X143856336Y-88450001D01*
X143573666Y-88450001D01*
X143296427Y-88505148D01*
X143035274Y-88613321D01*
X142800242Y-88770364D01*
X142600364Y-88970242D01*
X142445001Y-89202760D01*
X142289638Y-88970242D01*
X142089760Y-88770364D01*
X141854728Y-88613321D01*
X141593575Y-88505148D01*
X141316336Y-88450001D01*
X141033666Y-88450001D01*
X140756427Y-88505148D01*
X140495274Y-88613321D01*
X140260242Y-88770364D01*
X140060364Y-88970242D01*
X139905001Y-89202760D01*
X139749638Y-88970242D01*
X139549760Y-88770364D01*
X139314728Y-88613321D01*
X139053575Y-88505148D01*
X138776336Y-88450001D01*
X138493666Y-88450001D01*
X138216427Y-88505148D01*
X137955274Y-88613321D01*
X137720242Y-88770364D01*
X137520364Y-88970242D01*
X137365001Y-89202760D01*
X137209638Y-88970242D01*
X137009760Y-88770364D01*
X136774728Y-88613321D01*
X136513575Y-88505148D01*
X136236336Y-88450001D01*
X135953666Y-88450001D01*
X135676427Y-88505148D01*
X135415274Y-88613321D01*
X135180242Y-88770364D01*
X134980364Y-88970242D01*
X134825001Y-89202760D01*
X134669638Y-88970242D01*
X134469760Y-88770364D01*
X134234728Y-88613321D01*
X133973575Y-88505148D01*
X133696336Y-88450001D01*
X133413666Y-88450001D01*
X133136427Y-88505148D01*
X132875274Y-88613321D01*
X132640242Y-88770364D01*
X132440364Y-88970242D01*
X132285001Y-89202760D01*
X132129638Y-88970242D01*
X131929760Y-88770364D01*
X131694728Y-88613321D01*
X131433575Y-88505148D01*
X131191000Y-88456896D01*
X131191000Y-81656758D01*
X131897000Y-81656758D01*
X131897000Y-82343242D01*
X132030927Y-83016537D01*
X132293633Y-83650766D01*
X132675024Y-84221558D01*
X133160442Y-84706976D01*
X133731234Y-85088367D01*
X134365463Y-85351073D01*
X135038758Y-85485000D01*
X135725242Y-85485000D01*
X136398537Y-85351073D01*
X137032766Y-85088367D01*
X137603558Y-84706976D01*
X138088976Y-84221558D01*
X138470367Y-83650766D01*
X138683832Y-83135413D01*
X146274192Y-83135413D01*
X146369956Y-83399814D01*
X146659571Y-83540704D01*
X146971108Y-83622384D01*
X147292595Y-83641718D01*
X147611675Y-83597961D01*
X147916088Y-83492795D01*
X148090044Y-83399814D01*
X148185808Y-83135413D01*
X147230000Y-82179605D01*
X146274192Y-83135413D01*
X138683832Y-83135413D01*
X138733073Y-83016537D01*
X138867000Y-82343242D01*
X138867000Y-82062595D01*
X145588282Y-82062595D01*
X145632039Y-82381675D01*
X145737205Y-82686088D01*
X145830186Y-82860044D01*
X146094587Y-82955808D01*
X147050395Y-82000000D01*
X147409605Y-82000000D01*
X148365413Y-82955808D01*
X148427280Y-82933400D01*
X148500013Y-83042252D01*
X148727748Y-83269987D01*
X148995537Y-83448918D01*
X149293088Y-83572168D01*
X149608967Y-83635000D01*
X149931033Y-83635000D01*
X150246912Y-83572168D01*
X150544463Y-83448918D01*
X150812252Y-83269987D01*
X151039987Y-83042252D01*
X151048789Y-83029079D01*
X151960374Y-83940664D01*
X151989656Y-83976344D01*
X152132028Y-84093186D01*
X152294460Y-84180007D01*
X152417243Y-84217253D01*
X152470707Y-84233471D01*
X152653999Y-84251524D01*
X152699931Y-84247000D01*
X155508705Y-84247000D01*
X155654102Y-84307226D01*
X155854061Y-84347000D01*
X156057939Y-84347000D01*
X156257898Y-84307226D01*
X156446256Y-84229205D01*
X156615774Y-84115937D01*
X156759937Y-83971774D01*
X156873205Y-83802256D01*
X156951226Y-83613898D01*
X156991000Y-83413939D01*
X156991000Y-83210061D01*
X156951226Y-83010102D01*
X156873205Y-82821744D01*
X156759937Y-82652226D01*
X156615774Y-82508063D01*
X156446256Y-82394795D01*
X156257898Y-82316774D01*
X156057939Y-82277000D01*
X155854061Y-82277000D01*
X155654102Y-82316774D01*
X155508705Y-82377000D01*
X153041290Y-82377000D01*
X152035630Y-81371341D01*
X152006344Y-81335656D01*
X151863972Y-81218814D01*
X151701540Y-81131993D01*
X151525292Y-81078529D01*
X151387932Y-81065000D01*
X151342000Y-81060476D01*
X151296068Y-81065000D01*
X151111651Y-81065000D01*
X151039987Y-80957748D01*
X150812252Y-80730013D01*
X150544463Y-80551082D01*
X150246912Y-80427832D01*
X149931033Y-80365000D01*
X149608967Y-80365000D01*
X149293088Y-80427832D01*
X148995537Y-80551082D01*
X148727748Y-80730013D01*
X148500013Y-80957748D01*
X148427280Y-81066600D01*
X148365413Y-81044192D01*
X147409605Y-82000000D01*
X147050395Y-82000000D01*
X146094587Y-81044192D01*
X145830186Y-81139956D01*
X145689296Y-81429571D01*
X145607616Y-81741108D01*
X145588282Y-82062595D01*
X138867000Y-82062595D01*
X138867000Y-81656758D01*
X138733073Y-80983463D01*
X138683833Y-80864587D01*
X146274192Y-80864587D01*
X147230000Y-81820395D01*
X148185808Y-80864587D01*
X148090044Y-80600186D01*
X147800429Y-80459296D01*
X147488892Y-80377616D01*
X147167405Y-80358282D01*
X146848325Y-80402039D01*
X146543912Y-80507205D01*
X146369956Y-80600186D01*
X146274192Y-80864587D01*
X138683833Y-80864587D01*
X138470367Y-80349234D01*
X138088976Y-79778442D01*
X137603558Y-79293024D01*
X137032766Y-78911633D01*
X136398537Y-78648927D01*
X135725242Y-78515000D01*
X135038758Y-78515000D01*
X134365463Y-78648927D01*
X133731234Y-78911633D01*
X133160442Y-79293024D01*
X132675024Y-79778442D01*
X132293633Y-80349234D01*
X132030927Y-80983463D01*
X131897000Y-81656758D01*
X131191000Y-81656758D01*
X131191000Y-76073106D01*
X131433575Y-76024854D01*
X131694728Y-75916681D01*
X131929760Y-75759638D01*
X132129638Y-75559760D01*
X132285001Y-75327242D01*
X132440364Y-75559760D01*
X132640242Y-75759638D01*
X132875274Y-75916681D01*
X133136427Y-76024854D01*
X133413666Y-76080001D01*
X133696336Y-76080001D01*
X133973575Y-76024854D01*
X134234728Y-75916681D01*
X134469760Y-75759638D01*
X134669638Y-75559760D01*
X134825001Y-75327242D01*
X134980364Y-75559760D01*
X135180242Y-75759638D01*
X135415274Y-75916681D01*
X135676427Y-76024854D01*
X135953666Y-76080001D01*
X136236336Y-76080001D01*
X136513575Y-76024854D01*
X136774728Y-75916681D01*
X137009760Y-75759638D01*
X137209638Y-75559760D01*
X137365001Y-75327242D01*
X137520364Y-75559760D01*
X137720242Y-75759638D01*
X137955274Y-75916681D01*
X138216427Y-76024854D01*
X138493666Y-76080001D01*
X138776336Y-76080001D01*
X139053575Y-76024854D01*
X139314728Y-75916681D01*
X139549760Y-75759638D01*
X139749638Y-75559760D01*
X139905001Y-75327242D01*
X140060364Y-75559760D01*
X140260242Y-75759638D01*
X140495274Y-75916681D01*
X140756427Y-76024854D01*
X141033666Y-76080001D01*
X141316336Y-76080001D01*
X141593575Y-76024854D01*
X141854728Y-75916681D01*
X142089760Y-75759638D01*
X142289638Y-75559760D01*
X142445001Y-75327242D01*
X142600364Y-75559760D01*
X142800242Y-75759638D01*
X143035274Y-75916681D01*
X143296427Y-76024854D01*
X143573666Y-76080001D01*
X143856336Y-76080001D01*
X144133575Y-76024854D01*
X144394728Y-75916681D01*
X144629760Y-75759638D01*
X144829638Y-75559760D01*
X144985001Y-75327242D01*
X145140364Y-75559760D01*
X145340242Y-75759638D01*
X145575274Y-75916681D01*
X145836427Y-76024854D01*
X146113666Y-76080001D01*
X146396336Y-76080001D01*
X146673575Y-76024854D01*
X146934728Y-75916681D01*
X147169760Y-75759638D01*
X147369638Y-75559760D01*
X147525001Y-75327242D01*
X147680364Y-75559760D01*
X147880242Y-75759638D01*
X148115274Y-75916681D01*
X148376427Y-76024854D01*
X148653666Y-76080001D01*
X148936336Y-76080001D01*
X149213575Y-76024854D01*
X149474728Y-75916681D01*
X149709760Y-75759638D01*
X149909638Y-75559760D01*
X150065001Y-75327242D01*
X150220364Y-75559760D01*
X150420242Y-75759638D01*
X150655274Y-75916681D01*
X150916427Y-76024854D01*
X151193666Y-76080001D01*
X151476336Y-76080001D01*
X151753575Y-76024854D01*
X152014728Y-75916681D01*
X152249760Y-75759638D01*
X152449638Y-75559760D01*
X152605001Y-75327242D01*
X152760364Y-75559760D01*
X152960242Y-75759638D01*
X153195274Y-75916681D01*
X153456427Y-76024854D01*
X153733666Y-76080001D01*
X154016336Y-76080001D01*
X154293575Y-76024854D01*
X154554728Y-75916681D01*
X154789760Y-75759638D01*
X154989638Y-75559760D01*
X155145001Y-75327242D01*
X155300364Y-75559760D01*
X155500242Y-75759638D01*
X155735274Y-75916681D01*
X155996427Y-76024854D01*
X156273666Y-76080001D01*
X156556336Y-76080001D01*
X156833575Y-76024854D01*
X157094728Y-75916681D01*
X157329760Y-75759638D01*
X157529638Y-75559760D01*
X157685001Y-75327242D01*
X157840364Y-75559760D01*
X158040242Y-75759638D01*
X158275274Y-75916681D01*
X158536427Y-76024854D01*
X158813666Y-76080001D01*
X159096336Y-76080001D01*
X159373575Y-76024854D01*
X159634728Y-75916681D01*
X159869760Y-75759638D01*
X160069638Y-75559760D01*
X160225001Y-75327242D01*
X160380364Y-75559760D01*
%TA.AperFunction,Conductor*%
D26*
G36*
X160380364Y-75559760D02*
G01*
X160580242Y-75759638D01*
X160815274Y-75916681D01*
X161076427Y-76024854D01*
X161353666Y-76080001D01*
X161605197Y-76080001D01*
X158202199Y-79483000D01*
X158140061Y-79483000D01*
X157940102Y-79522774D01*
X157751744Y-79600795D01*
X157582226Y-79714063D01*
X157438063Y-79858226D01*
X157375920Y-79951229D01*
X157208406Y-79839300D01*
X157020048Y-79761279D01*
X156820089Y-79721505D01*
X156616211Y-79721505D01*
X156416252Y-79761279D01*
X156227894Y-79839300D01*
X156058376Y-79952568D01*
X155914213Y-80096731D01*
X155800945Y-80266249D01*
X155722924Y-80454607D01*
X155683150Y-80654566D01*
X155683150Y-80858444D01*
X155722924Y-81058403D01*
X155800945Y-81246761D01*
X155914213Y-81416279D01*
X156058376Y-81560442D01*
X156227894Y-81673710D01*
X156416252Y-81751731D01*
X156616211Y-81791505D01*
X156662704Y-81791505D01*
X158477000Y-83605802D01*
X158477000Y-83667939D01*
X158516774Y-83867898D01*
X158594795Y-84056256D01*
X158708063Y-84225774D01*
X158852226Y-84369937D01*
X159021744Y-84483205D01*
X159210102Y-84561226D01*
X159410061Y-84601000D01*
X159613939Y-84601000D01*
X159813898Y-84561226D01*
X160002256Y-84483205D01*
X160171774Y-84369937D01*
X160315937Y-84225774D01*
X160429205Y-84056256D01*
X160507226Y-83867898D01*
X160547000Y-83667939D01*
X160547000Y-83604979D01*
X160548774Y-83613898D01*
X160626795Y-83802256D01*
X160740063Y-83971774D01*
X160884226Y-84115937D01*
X161053744Y-84229205D01*
X161199142Y-84289431D01*
X165168374Y-88258664D01*
X165197656Y-88294344D01*
X165340028Y-88411186D01*
X165502460Y-88498007D01*
X165625243Y-88535253D01*
X165678707Y-88551471D01*
X165861999Y-88569524D01*
X165907931Y-88565000D01*
X166011931Y-88565000D01*
X165895274Y-88613321D01*
X165660242Y-88770364D01*
X165460364Y-88970242D01*
X165305001Y-89202760D01*
X165149638Y-88970242D01*
X164949760Y-88770364D01*
X164714728Y-88613321D01*
X164453575Y-88505148D01*
X164176336Y-88450001D01*
X163893666Y-88450001D01*
X163616427Y-88505148D01*
X163355274Y-88613321D01*
X163120242Y-88770364D01*
X162920364Y-88970242D01*
X162765001Y-89202760D01*
X162609638Y-88970242D01*
X162409760Y-88770364D01*
X162174728Y-88613321D01*
X161913575Y-88505148D01*
X161636336Y-88450001D01*
X161353666Y-88450001D01*
X161076427Y-88505148D01*
X160815274Y-88613321D01*
X160580242Y-88770364D01*
X160380364Y-88970242D01*
X160225001Y-89202760D01*
X160069638Y-88970242D01*
X159869760Y-88770364D01*
X159634728Y-88613321D01*
X159373575Y-88505148D01*
X159096336Y-88450001D01*
X158813666Y-88450001D01*
X158536427Y-88505148D01*
X158275274Y-88613321D01*
X158040242Y-88770364D01*
X157840364Y-88970242D01*
X157685001Y-89202760D01*
X157529638Y-88970242D01*
X157329760Y-88770364D01*
X157094728Y-88613321D01*
X156833575Y-88505148D01*
X156556336Y-88450001D01*
X156273666Y-88450001D01*
X155996427Y-88505148D01*
X155735274Y-88613321D01*
X155500242Y-88770364D01*
X155300364Y-88970242D01*
X155145001Y-89202760D01*
X154989638Y-88970242D01*
X154789760Y-88770364D01*
X154554728Y-88613321D01*
X154293575Y-88505148D01*
X154016336Y-88450001D01*
X153733666Y-88450001D01*
X153456427Y-88505148D01*
X153195274Y-88613321D01*
X152960242Y-88770364D01*
X152760364Y-88970242D01*
X152605001Y-89202760D01*
X152449638Y-88970242D01*
X152249760Y-88770364D01*
X152014728Y-88613321D01*
X151753575Y-88505148D01*
X151476336Y-88450001D01*
X151193666Y-88450001D01*
X150916427Y-88505148D01*
X150655274Y-88613321D01*
X150420242Y-88770364D01*
X150220364Y-88970242D01*
X150065001Y-89202760D01*
X149909638Y-88970242D01*
X149709760Y-88770364D01*
X149474728Y-88613321D01*
X149213575Y-88505148D01*
X148936336Y-88450001D01*
X148653666Y-88450001D01*
X148376427Y-88505148D01*
X148115274Y-88613321D01*
X147880242Y-88770364D01*
X147680364Y-88970242D01*
X147525001Y-89202760D01*
X147369638Y-88970242D01*
X147169760Y-88770364D01*
X146934728Y-88613321D01*
X146673575Y-88505148D01*
X146396336Y-88450001D01*
X146113666Y-88450001D01*
X145836427Y-88505148D01*
X145575274Y-88613321D01*
X145340242Y-88770364D01*
X145140364Y-88970242D01*
X144985001Y-89202760D01*
X144829638Y-88970242D01*
X144629760Y-88770364D01*
X144394728Y-88613321D01*
X144133575Y-88505148D01*
X143856336Y-88450001D01*
X143573666Y-88450001D01*
X143296427Y-88505148D01*
X143035274Y-88613321D01*
X142800242Y-88770364D01*
X142600364Y-88970242D01*
X142445001Y-89202760D01*
X142289638Y-88970242D01*
X142089760Y-88770364D01*
X141854728Y-88613321D01*
X141593575Y-88505148D01*
X141316336Y-88450001D01*
X141033666Y-88450001D01*
X140756427Y-88505148D01*
X140495274Y-88613321D01*
X140260242Y-88770364D01*
X140060364Y-88970242D01*
X139905001Y-89202760D01*
X139749638Y-88970242D01*
X139549760Y-88770364D01*
X139314728Y-88613321D01*
X139053575Y-88505148D01*
X138776336Y-88450001D01*
X138493666Y-88450001D01*
X138216427Y-88505148D01*
X137955274Y-88613321D01*
X137720242Y-88770364D01*
X137520364Y-88970242D01*
X137365001Y-89202760D01*
X137209638Y-88970242D01*
X137009760Y-88770364D01*
X136774728Y-88613321D01*
X136513575Y-88505148D01*
X136236336Y-88450001D01*
X135953666Y-88450001D01*
X135676427Y-88505148D01*
X135415274Y-88613321D01*
X135180242Y-88770364D01*
X134980364Y-88970242D01*
X134825001Y-89202760D01*
X134669638Y-88970242D01*
X134469760Y-88770364D01*
X134234728Y-88613321D01*
X133973575Y-88505148D01*
X133696336Y-88450001D01*
X133413666Y-88450001D01*
X133136427Y-88505148D01*
X132875274Y-88613321D01*
X132640242Y-88770364D01*
X132440364Y-88970242D01*
X132285001Y-89202760D01*
X132129638Y-88970242D01*
X131929760Y-88770364D01*
X131694728Y-88613321D01*
X131433575Y-88505148D01*
X131191000Y-88456896D01*
X131191000Y-81656758D01*
X131897000Y-81656758D01*
X131897000Y-82343242D01*
X132030927Y-83016537D01*
X132293633Y-83650766D01*
X132675024Y-84221558D01*
X133160442Y-84706976D01*
X133731234Y-85088367D01*
X134365463Y-85351073D01*
X135038758Y-85485000D01*
X135725242Y-85485000D01*
X136398537Y-85351073D01*
X137032766Y-85088367D01*
X137603558Y-84706976D01*
X138088976Y-84221558D01*
X138470367Y-83650766D01*
X138683832Y-83135413D01*
X146274192Y-83135413D01*
X146369956Y-83399814D01*
X146659571Y-83540704D01*
X146971108Y-83622384D01*
X147292595Y-83641718D01*
X147611675Y-83597961D01*
X147916088Y-83492795D01*
X148090044Y-83399814D01*
X148185808Y-83135413D01*
X147230000Y-82179605D01*
X146274192Y-83135413D01*
X138683832Y-83135413D01*
X138733073Y-83016537D01*
X138867000Y-82343242D01*
X138867000Y-82062595D01*
X145588282Y-82062595D01*
X145632039Y-82381675D01*
X145737205Y-82686088D01*
X145830186Y-82860044D01*
X146094587Y-82955808D01*
X147050395Y-82000000D01*
X147409605Y-82000000D01*
X148365413Y-82955808D01*
X148427280Y-82933400D01*
X148500013Y-83042252D01*
X148727748Y-83269987D01*
X148995537Y-83448918D01*
X149293088Y-83572168D01*
X149608967Y-83635000D01*
X149931033Y-83635000D01*
X150246912Y-83572168D01*
X150544463Y-83448918D01*
X150812252Y-83269987D01*
X151039987Y-83042252D01*
X151048789Y-83029079D01*
X151960374Y-83940664D01*
X151989656Y-83976344D01*
X152132028Y-84093186D01*
X152294460Y-84180007D01*
X152417243Y-84217253D01*
X152470707Y-84233471D01*
X152653999Y-84251524D01*
X152699931Y-84247000D01*
X155508705Y-84247000D01*
X155654102Y-84307226D01*
X155854061Y-84347000D01*
X156057939Y-84347000D01*
X156257898Y-84307226D01*
X156446256Y-84229205D01*
X156615774Y-84115937D01*
X156759937Y-83971774D01*
X156873205Y-83802256D01*
X156951226Y-83613898D01*
X156991000Y-83413939D01*
X156991000Y-83210061D01*
X156951226Y-83010102D01*
X156873205Y-82821744D01*
X156759937Y-82652226D01*
X156615774Y-82508063D01*
X156446256Y-82394795D01*
X156257898Y-82316774D01*
X156057939Y-82277000D01*
X155854061Y-82277000D01*
X155654102Y-82316774D01*
X155508705Y-82377000D01*
X153041290Y-82377000D01*
X152035630Y-81371341D01*
X152006344Y-81335656D01*
X151863972Y-81218814D01*
X151701540Y-81131993D01*
X151525292Y-81078529D01*
X151387932Y-81065000D01*
X151342000Y-81060476D01*
X151296068Y-81065000D01*
X151111651Y-81065000D01*
X151039987Y-80957748D01*
X150812252Y-80730013D01*
X150544463Y-80551082D01*
X150246912Y-80427832D01*
X149931033Y-80365000D01*
X149608967Y-80365000D01*
X149293088Y-80427832D01*
X148995537Y-80551082D01*
X148727748Y-80730013D01*
X148500013Y-80957748D01*
X148427280Y-81066600D01*
X148365413Y-81044192D01*
X147409605Y-82000000D01*
X147050395Y-82000000D01*
X146094587Y-81044192D01*
X145830186Y-81139956D01*
X145689296Y-81429571D01*
X145607616Y-81741108D01*
X145588282Y-82062595D01*
X138867000Y-82062595D01*
X138867000Y-81656758D01*
X138733073Y-80983463D01*
X138683833Y-80864587D01*
X146274192Y-80864587D01*
X147230000Y-81820395D01*
X148185808Y-80864587D01*
X148090044Y-80600186D01*
X147800429Y-80459296D01*
X147488892Y-80377616D01*
X147167405Y-80358282D01*
X146848325Y-80402039D01*
X146543912Y-80507205D01*
X146369956Y-80600186D01*
X146274192Y-80864587D01*
X138683833Y-80864587D01*
X138470367Y-80349234D01*
X138088976Y-79778442D01*
X137603558Y-79293024D01*
X137032766Y-78911633D01*
X136398537Y-78648927D01*
X135725242Y-78515000D01*
X135038758Y-78515000D01*
X134365463Y-78648927D01*
X133731234Y-78911633D01*
X133160442Y-79293024D01*
X132675024Y-79778442D01*
X132293633Y-80349234D01*
X132030927Y-80983463D01*
X131897000Y-81656758D01*
X131191000Y-81656758D01*
X131191000Y-76073106D01*
X131433575Y-76024854D01*
X131694728Y-75916681D01*
X131929760Y-75759638D01*
X132129638Y-75559760D01*
X132285001Y-75327242D01*
X132440364Y-75559760D01*
X132640242Y-75759638D01*
X132875274Y-75916681D01*
X133136427Y-76024854D01*
X133413666Y-76080001D01*
X133696336Y-76080001D01*
X133973575Y-76024854D01*
X134234728Y-75916681D01*
X134469760Y-75759638D01*
X134669638Y-75559760D01*
X134825001Y-75327242D01*
X134980364Y-75559760D01*
X135180242Y-75759638D01*
X135415274Y-75916681D01*
X135676427Y-76024854D01*
X135953666Y-76080001D01*
X136236336Y-76080001D01*
X136513575Y-76024854D01*
X136774728Y-75916681D01*
X137009760Y-75759638D01*
X137209638Y-75559760D01*
X137365001Y-75327242D01*
X137520364Y-75559760D01*
X137720242Y-75759638D01*
X137955274Y-75916681D01*
X138216427Y-76024854D01*
X138493666Y-76080001D01*
X138776336Y-76080001D01*
X139053575Y-76024854D01*
X139314728Y-75916681D01*
X139549760Y-75759638D01*
X139749638Y-75559760D01*
X139905001Y-75327242D01*
X140060364Y-75559760D01*
X140260242Y-75759638D01*
X140495274Y-75916681D01*
X140756427Y-76024854D01*
X141033666Y-76080001D01*
X141316336Y-76080001D01*
X141593575Y-76024854D01*
X141854728Y-75916681D01*
X142089760Y-75759638D01*
X142289638Y-75559760D01*
X142445001Y-75327242D01*
X142600364Y-75559760D01*
X142800242Y-75759638D01*
X143035274Y-75916681D01*
X143296427Y-76024854D01*
X143573666Y-76080001D01*
X143856336Y-76080001D01*
X144133575Y-76024854D01*
X144394728Y-75916681D01*
X144629760Y-75759638D01*
X144829638Y-75559760D01*
X144985001Y-75327242D01*
X145140364Y-75559760D01*
X145340242Y-75759638D01*
X145575274Y-75916681D01*
X145836427Y-76024854D01*
X146113666Y-76080001D01*
X146396336Y-76080001D01*
X146673575Y-76024854D01*
X146934728Y-75916681D01*
X147169760Y-75759638D01*
X147369638Y-75559760D01*
X147525001Y-75327242D01*
X147680364Y-75559760D01*
X147880242Y-75759638D01*
X148115274Y-75916681D01*
X148376427Y-76024854D01*
X148653666Y-76080001D01*
X148936336Y-76080001D01*
X149213575Y-76024854D01*
X149474728Y-75916681D01*
X149709760Y-75759638D01*
X149909638Y-75559760D01*
X150065001Y-75327242D01*
X150220364Y-75559760D01*
X150420242Y-75759638D01*
X150655274Y-75916681D01*
X150916427Y-76024854D01*
X151193666Y-76080001D01*
X151476336Y-76080001D01*
X151753575Y-76024854D01*
X152014728Y-75916681D01*
X152249760Y-75759638D01*
X152449638Y-75559760D01*
X152605001Y-75327242D01*
X152760364Y-75559760D01*
X152960242Y-75759638D01*
X153195274Y-75916681D01*
X153456427Y-76024854D01*
X153733666Y-76080001D01*
X154016336Y-76080001D01*
X154293575Y-76024854D01*
X154554728Y-75916681D01*
X154789760Y-75759638D01*
X154989638Y-75559760D01*
X155145001Y-75327242D01*
X155300364Y-75559760D01*
X155500242Y-75759638D01*
X155735274Y-75916681D01*
X155996427Y-76024854D01*
X156273666Y-76080001D01*
X156556336Y-76080001D01*
X156833575Y-76024854D01*
X157094728Y-75916681D01*
X157329760Y-75759638D01*
X157529638Y-75559760D01*
X157685001Y-75327242D01*
X157840364Y-75559760D01*
X158040242Y-75759638D01*
X158275274Y-75916681D01*
X158536427Y-76024854D01*
X158813666Y-76080001D01*
X159096336Y-76080001D01*
X159373575Y-76024854D01*
X159634728Y-75916681D01*
X159869760Y-75759638D01*
X160069638Y-75559760D01*
X160225001Y-75327242D01*
X160380364Y-75559760D01*
G37*
%TD.AperFunction*%
%TD*%
D25*
%TO.N,Net-(C7-Pad2)*%
X143286702Y-96111504D02*
X143310500Y-96140502D01*
X143426225Y-96235475D01*
X143558254Y-96306047D01*
X143701515Y-96349504D01*
X143813168Y-96360501D01*
X143813177Y-96360501D01*
X143850500Y-96364177D01*
X143887823Y-96360501D01*
X145032123Y-96360501D01*
X144969069Y-96493228D01*
X144898687Y-96772180D01*
X144884079Y-97059502D01*
X144925806Y-97344154D01*
X145022263Y-97615196D01*
X145092519Y-97746633D01*
X145339091Y-97821304D01*
X146170395Y-96990000D01*
X146156253Y-96975858D01*
X146335858Y-96796253D01*
X146350000Y-96810395D01*
X146364143Y-96796253D01*
X146543748Y-96975858D01*
X146529605Y-96990000D01*
X147360909Y-97821304D01*
X147607481Y-97746633D01*
X147730931Y-97486772D01*
X147801313Y-97207820D01*
X147815921Y-96920498D01*
X147774194Y-96635846D01*
X147677737Y-96364804D01*
X147675437Y-96360501D01*
X148123000Y-96360501D01*
X148123000Y-98373000D01*
X147247259Y-98373000D01*
X147080395Y-98261506D01*
X147106633Y-98247481D01*
X147181304Y-98000909D01*
X146350000Y-97169605D01*
X145518696Y-98000909D01*
X145593367Y-98247481D01*
X145620969Y-98260594D01*
X145452741Y-98373000D01*
X141250000Y-98373000D01*
X141225224Y-98375440D01*
X141201399Y-98382667D01*
X141179443Y-98394403D01*
X141160197Y-98410197D01*
X141144403Y-98429443D01*
X141132667Y-98451399D01*
X141125440Y-98475224D01*
X141125000Y-98479692D01*
X141125000Y-98133000D01*
X141069000Y-97818418D01*
X140952704Y-97520806D01*
X140780581Y-97251601D01*
X140559246Y-97021148D01*
X140297205Y-96838304D01*
X140004528Y-96710095D01*
X139878865Y-96679782D01*
X139627000Y-96799260D01*
X139627000Y-99123000D01*
X139647000Y-99123000D01*
X139647000Y-99377000D01*
X139627000Y-99377000D01*
X139627000Y-99397000D01*
X139373000Y-99397000D01*
X139373000Y-99377000D01*
X139353000Y-99377000D01*
X139353000Y-99123000D01*
X139373000Y-99123000D01*
X139373000Y-96799260D01*
X139121135Y-96679782D01*
X138995472Y-96710095D01*
X138702795Y-96838304D01*
X138440754Y-97021148D01*
X138219419Y-97251601D01*
X138047296Y-97520806D01*
X137931000Y-97818418D01*
X137877000Y-98121765D01*
X137877000Y-95877000D01*
X143052198Y-95877000D01*
X143286702Y-96111504D01*
%TA.AperFunction,Conductor*%
D26*
G36*
X143286702Y-96111504D02*
G01*
X143310500Y-96140502D01*
X143426225Y-96235475D01*
X143558254Y-96306047D01*
X143701515Y-96349504D01*
X143813168Y-96360501D01*
X143813177Y-96360501D01*
X143850500Y-96364177D01*
X143887823Y-96360501D01*
X145032123Y-96360501D01*
X144969069Y-96493228D01*
X144898687Y-96772180D01*
X144884079Y-97059502D01*
X144925806Y-97344154D01*
X145022263Y-97615196D01*
X145092519Y-97746633D01*
X145339091Y-97821304D01*
X146170395Y-96990000D01*
X146156253Y-96975858D01*
X146335858Y-96796253D01*
X146350000Y-96810395D01*
X146364143Y-96796253D01*
X146543748Y-96975858D01*
X146529605Y-96990000D01*
X147360909Y-97821304D01*
X147607481Y-97746633D01*
X147730931Y-97486772D01*
X147801313Y-97207820D01*
X147815921Y-96920498D01*
X147774194Y-96635846D01*
X147677737Y-96364804D01*
X147675437Y-96360501D01*
X148123000Y-96360501D01*
X148123000Y-98373000D01*
X147247259Y-98373000D01*
X147080395Y-98261506D01*
X147106633Y-98247481D01*
X147181304Y-98000909D01*
X146350000Y-97169605D01*
X145518696Y-98000909D01*
X145593367Y-98247481D01*
X145620969Y-98260594D01*
X145452741Y-98373000D01*
X141250000Y-98373000D01*
X141225224Y-98375440D01*
X141201399Y-98382667D01*
X141179443Y-98394403D01*
X141160197Y-98410197D01*
X141144403Y-98429443D01*
X141132667Y-98451399D01*
X141125440Y-98475224D01*
X141125000Y-98479692D01*
X141125000Y-98133000D01*
X141069000Y-97818418D01*
X140952704Y-97520806D01*
X140780581Y-97251601D01*
X140559246Y-97021148D01*
X140297205Y-96838304D01*
X140004528Y-96710095D01*
X139878865Y-96679782D01*
X139627000Y-96799260D01*
X139627000Y-99123000D01*
X139647000Y-99123000D01*
X139647000Y-99377000D01*
X139627000Y-99377000D01*
X139627000Y-99397000D01*
X139373000Y-99397000D01*
X139373000Y-99377000D01*
X139353000Y-99377000D01*
X139353000Y-99123000D01*
X139373000Y-99123000D01*
X139373000Y-96799260D01*
X139121135Y-96679782D01*
X138995472Y-96710095D01*
X138702795Y-96838304D01*
X138440754Y-97021148D01*
X138219419Y-97251601D01*
X138047296Y-97520806D01*
X137931000Y-97818418D01*
X137877000Y-98121765D01*
X137877000Y-95877000D01*
X143052198Y-95877000D01*
X143286702Y-96111504D01*
G37*
%TD.AperFunction*%
%TD*%
M02*
