%TF.GenerationSoftware,KiCad,Pcbnew,(5.1.8-0-10_14)*%
%TF.CreationDate,2021-01-27T14:23:44+11:00*%
%TF.ProjectId,Open-JIP(KiCad)_T3.6,4f70656e-2d4a-4495-9028-4b6943616429,rev?*%
%TF.SameCoordinates,Original*%
%TF.FileFunction,Copper,L1,Top*%
%TF.FilePolarity,Positive*%
%FSLAX46Y46*%
G04 Gerber Fmt 4.6, Leading zero omitted, Abs format (unit mm)*
G04 Created by KiCad (PCBNEW (5.1.8-0-10_14)) date 2021-01-27 14:23:44*
%MOMM*%
%LPD*%
G01*
G04 APERTURE LIST*
%TA.AperFunction,EtchedComponent*%
%ADD10C,0.001000*%
%TD*%
%TA.AperFunction,ComponentPad*%
%ADD11C,5.700000*%
%TD*%
%TA.AperFunction,ComponentPad*%
%ADD12C,1.600000*%
%TD*%
%TA.AperFunction,ComponentPad*%
%ADD13R,1.600000X1.600000*%
%TD*%
%TA.AperFunction,ComponentPad*%
%ADD14O,1.900000X3.800000*%
%TD*%
%TA.AperFunction,ComponentPad*%
%ADD15O,3.800000X1.900000*%
%TD*%
%TA.AperFunction,ComponentPad*%
%ADD16R,1.651000X1.651000*%
%TD*%
%TA.AperFunction,ComponentPad*%
%ADD17C,1.651000*%
%TD*%
%TA.AperFunction,ComponentPad*%
%ADD18C,2.000000*%
%TD*%
%TA.AperFunction,ComponentPad*%
%ADD19R,1.980000X3.960000*%
%TD*%
%TA.AperFunction,ComponentPad*%
%ADD20O,1.980000X3.960000*%
%TD*%
%TA.AperFunction,SMDPad,CuDef*%
%ADD21R,1.701800X0.533400*%
%TD*%
%TA.AperFunction,SMDPad,CuDef*%
%ADD22R,0.533400X1.701800*%
%TD*%
%TA.AperFunction,ComponentPad*%
%ADD23R,1.980000X1.980000*%
%TD*%
%TA.AperFunction,ComponentPad*%
%ADD24C,1.980000*%
%TD*%
%TA.AperFunction,SMDPad,CuDef*%
%ADD25R,1.210000X0.590000*%
%TD*%
%TA.AperFunction,ViaPad*%
%ADD26C,0.800000*%
%TD*%
%TA.AperFunction,Conductor*%
%ADD27C,0.250000*%
%TD*%
%TA.AperFunction,Conductor*%
%ADD28C,0.600000*%
%TD*%
%TA.AperFunction,Conductor*%
%ADD29C,0.254000*%
%TD*%
%TA.AperFunction,Conductor*%
%ADD30C,0.100000*%
%TD*%
G04 APERTURE END LIST*
D10*
%TO.C,D1*%
G36*
X148770000Y-81940000D02*
G01*
X148770000Y-80210000D01*
X148825072Y-80161331D01*
X148869937Y-80123885D01*
X148915724Y-80087573D01*
X148962405Y-80052417D01*
X149009951Y-80018441D01*
X149058332Y-79985664D01*
X149107517Y-79954107D01*
X149157477Y-79923791D01*
X149208179Y-79894734D01*
X149259592Y-79866954D01*
X149311684Y-79840469D01*
X149364422Y-79815296D01*
X149417774Y-79791449D01*
X149471705Y-79768945D01*
X149526182Y-79747796D01*
X149581171Y-79728017D01*
X149636638Y-79709619D01*
X149692548Y-79692615D01*
X149748865Y-79677014D01*
X149805555Y-79662827D01*
X149862582Y-79650063D01*
X149919911Y-79638729D01*
X149977505Y-79628832D01*
X150035329Y-79620380D01*
X150093346Y-79613376D01*
X150151520Y-79607826D01*
X150209815Y-79603732D01*
X150268193Y-79601098D01*
X150326620Y-79599925D01*
X150370000Y-79600000D01*
X150395000Y-79600000D01*
X150527992Y-79605535D01*
X150652129Y-79617379D01*
X150775487Y-79635632D01*
X150897735Y-79660244D01*
X151018545Y-79691151D01*
X151137594Y-79728268D01*
X151254563Y-79771497D01*
X151369137Y-79820722D01*
X151481010Y-79875811D01*
X151589882Y-79936616D01*
X151695461Y-80002974D01*
X151797464Y-80074708D01*
X151895618Y-80151624D01*
X151989660Y-80233517D01*
X152079337Y-80320168D01*
X152164410Y-80411344D01*
X152244649Y-80506801D01*
X152319841Y-80606282D01*
X152389783Y-80709522D01*
X152454289Y-80816243D01*
X152513184Y-80926159D01*
X152566312Y-81038977D01*
X152613530Y-81154393D01*
X152654711Y-81272098D01*
X152689746Y-81391776D01*
X152718539Y-81513108D01*
X152741014Y-81635767D01*
X152757111Y-81759424D01*
X152766787Y-81883750D01*
X152770000Y-82000000D01*
X152766787Y-82116250D01*
X152757111Y-82240576D01*
X152741014Y-82364233D01*
X152718539Y-82486892D01*
X152689746Y-82608224D01*
X152654711Y-82727902D01*
X152613530Y-82845607D01*
X152566312Y-82961023D01*
X152513184Y-83073841D01*
X152454289Y-83183757D01*
X152389783Y-83290478D01*
X152319841Y-83393718D01*
X152244649Y-83493199D01*
X152164410Y-83588656D01*
X152079337Y-83679832D01*
X151989660Y-83766483D01*
X151895618Y-83848376D01*
X151797464Y-83925292D01*
X151695461Y-83997026D01*
X151589882Y-84063384D01*
X151481010Y-84124189D01*
X151369137Y-84179278D01*
X151254563Y-84228503D01*
X151137594Y-84271732D01*
X151018545Y-84308849D01*
X150897735Y-84339756D01*
X150775487Y-84364368D01*
X150652129Y-84382621D01*
X150527992Y-84394465D01*
X150395000Y-84400000D01*
X150295000Y-84400000D01*
X150370000Y-84400000D01*
X150326620Y-84400075D01*
X150268193Y-84398902D01*
X150209815Y-84396268D01*
X150151520Y-84392174D01*
X150093346Y-84386624D01*
X150035329Y-84379620D01*
X149977505Y-84371168D01*
X149919911Y-84361271D01*
X149862582Y-84349937D01*
X149805555Y-84337173D01*
X149748865Y-84322986D01*
X149692548Y-84307385D01*
X149636638Y-84290381D01*
X149581171Y-84271983D01*
X149526182Y-84252204D01*
X149471705Y-84231055D01*
X149417774Y-84208551D01*
X149364422Y-84184704D01*
X149311684Y-84159531D01*
X149259592Y-84133046D01*
X149208179Y-84105266D01*
X149157477Y-84076209D01*
X149107517Y-84045893D01*
X149058332Y-84014336D01*
X149009951Y-83981559D01*
X148962405Y-83947583D01*
X148915724Y-83912427D01*
X148869937Y-83876115D01*
X148825072Y-83838669D01*
X148770000Y-83790000D01*
X148770000Y-81940000D01*
G37*
X148770000Y-81940000D02*
X148770000Y-80210000D01*
X148825072Y-80161331D01*
X148869937Y-80123885D01*
X148915724Y-80087573D01*
X148962405Y-80052417D01*
X149009951Y-80018441D01*
X149058332Y-79985664D01*
X149107517Y-79954107D01*
X149157477Y-79923791D01*
X149208179Y-79894734D01*
X149259592Y-79866954D01*
X149311684Y-79840469D01*
X149364422Y-79815296D01*
X149417774Y-79791449D01*
X149471705Y-79768945D01*
X149526182Y-79747796D01*
X149581171Y-79728017D01*
X149636638Y-79709619D01*
X149692548Y-79692615D01*
X149748865Y-79677014D01*
X149805555Y-79662827D01*
X149862582Y-79650063D01*
X149919911Y-79638729D01*
X149977505Y-79628832D01*
X150035329Y-79620380D01*
X150093346Y-79613376D01*
X150151520Y-79607826D01*
X150209815Y-79603732D01*
X150268193Y-79601098D01*
X150326620Y-79599925D01*
X150370000Y-79600000D01*
X150395000Y-79600000D01*
X150527992Y-79605535D01*
X150652129Y-79617379D01*
X150775487Y-79635632D01*
X150897735Y-79660244D01*
X151018545Y-79691151D01*
X151137594Y-79728268D01*
X151254563Y-79771497D01*
X151369137Y-79820722D01*
X151481010Y-79875811D01*
X151589882Y-79936616D01*
X151695461Y-80002974D01*
X151797464Y-80074708D01*
X151895618Y-80151624D01*
X151989660Y-80233517D01*
X152079337Y-80320168D01*
X152164410Y-80411344D01*
X152244649Y-80506801D01*
X152319841Y-80606282D01*
X152389783Y-80709522D01*
X152454289Y-80816243D01*
X152513184Y-80926159D01*
X152566312Y-81038977D01*
X152613530Y-81154393D01*
X152654711Y-81272098D01*
X152689746Y-81391776D01*
X152718539Y-81513108D01*
X152741014Y-81635767D01*
X152757111Y-81759424D01*
X152766787Y-81883750D01*
X152770000Y-82000000D01*
X152766787Y-82116250D01*
X152757111Y-82240576D01*
X152741014Y-82364233D01*
X152718539Y-82486892D01*
X152689746Y-82608224D01*
X152654711Y-82727902D01*
X152613530Y-82845607D01*
X152566312Y-82961023D01*
X152513184Y-83073841D01*
X152454289Y-83183757D01*
X152389783Y-83290478D01*
X152319841Y-83393718D01*
X152244649Y-83493199D01*
X152164410Y-83588656D01*
X152079337Y-83679832D01*
X151989660Y-83766483D01*
X151895618Y-83848376D01*
X151797464Y-83925292D01*
X151695461Y-83997026D01*
X151589882Y-84063384D01*
X151481010Y-84124189D01*
X151369137Y-84179278D01*
X151254563Y-84228503D01*
X151137594Y-84271732D01*
X151018545Y-84308849D01*
X150897735Y-84339756D01*
X150775487Y-84364368D01*
X150652129Y-84382621D01*
X150527992Y-84394465D01*
X150395000Y-84400000D01*
X150295000Y-84400000D01*
X150370000Y-84400000D01*
X150326620Y-84400075D01*
X150268193Y-84398902D01*
X150209815Y-84396268D01*
X150151520Y-84392174D01*
X150093346Y-84386624D01*
X150035329Y-84379620D01*
X149977505Y-84371168D01*
X149919911Y-84361271D01*
X149862582Y-84349937D01*
X149805555Y-84337173D01*
X149748865Y-84322986D01*
X149692548Y-84307385D01*
X149636638Y-84290381D01*
X149581171Y-84271983D01*
X149526182Y-84252204D01*
X149471705Y-84231055D01*
X149417774Y-84208551D01*
X149364422Y-84184704D01*
X149311684Y-84159531D01*
X149259592Y-84133046D01*
X149208179Y-84105266D01*
X149157477Y-84076209D01*
X149107517Y-84045893D01*
X149058332Y-84014336D01*
X149009951Y-83981559D01*
X148962405Y-83947583D01*
X148915724Y-83912427D01*
X148869937Y-83876115D01*
X148825072Y-83838669D01*
X148770000Y-83790000D01*
X148770000Y-81940000D01*
%TD*%
D11*
%TO.P,REF\u002A\u002A,1*%
%TO.N,N/C*%
X184912000Y-82000000D03*
%TD*%
D12*
%TO.P,U5,17*%
%TO.N,Net-(U5-Pad17)*%
X148795001Y-74645001D03*
%TO.P,U5,18*%
%TO.N,Net-(U5-Pad18)*%
X146255001Y-74645001D03*
%TO.P,U5,19*%
%TO.N,Net-(U5-Pad19)*%
X143715001Y-74645001D03*
%TO.P,U5,20*%
%TO.N,Net-(U5-Pad20)*%
X141175001Y-74645001D03*
%TO.P,U5,16*%
%TO.N,Net-(U5-Pad16)*%
X151335001Y-74645001D03*
%TO.P,U5,15*%
%TO.N,Net-(U5-Pad15)*%
X153875001Y-74645001D03*
%TO.P,U5,14*%
%TO.N,Net-(U5-Pad14)*%
X156415001Y-74645001D03*
%TO.P,U5,21*%
%TO.N,ActinicGain1*%
X138635001Y-74645001D03*
%TO.P,U5,22*%
%TO.N,Net-(U5-Pad22)*%
X136095001Y-74645001D03*
%TO.P,U5,23*%
%TO.N,Net-(U5-Pad23)*%
X133555001Y-74645001D03*
%TO.P,U5,24*%
%TO.N,Net-(U5-Pad24)*%
X131015001Y-74645001D03*
%TO.P,U5,30*%
%TO.N,Net-(U5-Pad30)*%
X131015001Y-89885001D03*
%TO.P,U5,31*%
%TO.N,Net-(U5-Pad31)*%
X133555001Y-89885001D03*
%TO.P,U5,32*%
%TO.N,Net-(U5-Pad32)*%
X136095001Y-89885001D03*
%TO.P,U5,33*%
%TO.N,ActinicGain3*%
X138635001Y-89885001D03*
%TO.P,U5,34*%
%TO.N,ActinicGain2*%
X141175001Y-89885001D03*
%TO.P,U5,35*%
%TO.N,Net-(U5-Pad35)*%
X143715001Y-89885001D03*
%TO.P,U5,36*%
%TO.N,Net-(U5-Pad36)*%
X146255001Y-89885001D03*
%TO.P,U5,37*%
%TO.N,Net-(U5-Pad37)*%
X148795001Y-89885001D03*
%TO.P,U5,13*%
%TO.N,Net-(U5-Pad13)*%
X158955001Y-74645001D03*
%TO.P,U5,12*%
%TO.N,ActinicGain4*%
X161495001Y-74645001D03*
%TO.P,U5,11*%
%TO.N,Net-(U5-Pad11)*%
X164035001Y-74645001D03*
%TO.P,U5,10*%
%TO.N,Net-(U5-Pad10)*%
X166575001Y-74645001D03*
%TO.P,U5,9*%
%TO.N,FluoroGain3*%
X169115001Y-74645001D03*
%TO.P,U5,8*%
%TO.N,FluoroGain2*%
X171655001Y-74645001D03*
%TO.P,U5,7*%
%TO.N,Net-(U5-Pad7)*%
X174195001Y-74645001D03*
%TO.P,U5,6*%
%TO.N,Net-(U5-Pad6)*%
X176735001Y-74645001D03*
%TO.P,U5,5*%
%TO.N,Net-(U5-Pad5)*%
X179275001Y-74645001D03*
%TO.P,U5,4*%
%TO.N,Net-(U5-Pad4)*%
X181815001Y-74645001D03*
%TO.P,U5,3*%
%TO.N,Net-(U5-Pad3)*%
X184355001Y-74645001D03*
%TO.P,U5,2*%
%TO.N,Net-(U5-Pad2)*%
X186895001Y-74645001D03*
D13*
%TO.P,U5,1*%
%TO.N,Net-(U5-Pad1)*%
X189435001Y-74645001D03*
D12*
%TO.P,U5,38*%
%TO.N,Net-(U5-Pad38)*%
X151335001Y-89885001D03*
%TO.P,U5,39*%
%TO.N,GND*%
X153875001Y-89885001D03*
%TO.P,U5,40*%
%TO.N,Net-(U5-Pad40)*%
X156415001Y-89885001D03*
%TO.P,U5,41*%
%TO.N,FluoroRead*%
X158955001Y-89885001D03*
%TO.P,U5,42*%
%TO.N,Net-(U5-Pad42)*%
X161495001Y-89885001D03*
%TO.P,U5,43*%
%TO.N,Net-(U5-Pad43)*%
X164035001Y-89885001D03*
%TO.P,U5,44*%
%TO.N,Net-(U5-Pad44)*%
X166575001Y-89885001D03*
%TO.P,U5,45*%
%TO.N,Net-(U5-Pad45)*%
X169115001Y-89885001D03*
%TO.P,U5,46*%
%TO.N,Net-(U5-Pad46)*%
X171655001Y-89885001D03*
%TO.P,U5,47*%
%TO.N,Net-(U5-Pad47)*%
X174195001Y-89885001D03*
%TO.P,U5,48*%
%TO.N,Net-(U5-Pad48)*%
X176735001Y-89885001D03*
%TO.P,U5,49*%
%TO.N,FluoroGain4*%
X179275001Y-89885001D03*
%TO.P,U5,50*%
%TO.N,FluoroGain1*%
X181815001Y-89885001D03*
%TO.P,U5,51*%
%TO.N,+3V3*%
X184355001Y-89885001D03*
%TO.P,U5,52*%
%TO.N,GNDA*%
X186895001Y-89885001D03*
%TO.P,U5,53*%
%TO.N,+5V*%
X189435001Y-89885001D03*
%TD*%
D11*
%TO.P,REF\u002A\u002A,1*%
%TO.N,N/C*%
X135382000Y-82000000D03*
%TD*%
D14*
%TO.P,J1,1*%
%TO.N,+15V*%
X178422000Y-100330000D03*
%TO.P,J1,2*%
%TO.N,GND*%
X184352000Y-100330000D03*
D15*
%TO.P,J1,3*%
X181102000Y-95680000D03*
%TD*%
%TO.P,R13,2*%
%TO.N,Net-(D3-Pad2)*%
%TA.AperFunction,SMDPad,CuDef*%
G36*
G01*
X173606000Y-98355999D02*
X173606000Y-99256001D01*
G75*
G02*
X173356001Y-99506000I-249999J0D01*
G01*
X172655999Y-99506000D01*
G75*
G02*
X172406000Y-99256001I0J249999D01*
G01*
X172406000Y-98355999D01*
G75*
G02*
X172655999Y-98106000I249999J0D01*
G01*
X173356001Y-98106000D01*
G75*
G02*
X173606000Y-98355999I0J-249999D01*
G01*
G37*
%TD.AperFunction*%
%TO.P,R13,1*%
%TO.N,+15V*%
%TA.AperFunction,SMDPad,CuDef*%
G36*
G01*
X175606000Y-98355999D02*
X175606000Y-99256001D01*
G75*
G02*
X175356001Y-99506000I-249999J0D01*
G01*
X174655999Y-99506000D01*
G75*
G02*
X174406000Y-99256001I0J249999D01*
G01*
X174406000Y-98355999D01*
G75*
G02*
X174655999Y-98106000I249999J0D01*
G01*
X175356001Y-98106000D01*
G75*
G02*
X175606000Y-98355999I0J-249999D01*
G01*
G37*
%TD.AperFunction*%
%TD*%
%TO.P,D3,2*%
%TO.N,Net-(D3-Pad2)*%
%TA.AperFunction,SMDPad,CuDef*%
G36*
G01*
X169859000Y-99256001D02*
X169859000Y-98355999D01*
G75*
G02*
X170108999Y-98106000I249999J0D01*
G01*
X170759001Y-98106000D01*
G75*
G02*
X171009000Y-98355999I0J-249999D01*
G01*
X171009000Y-99256001D01*
G75*
G02*
X170759001Y-99506000I-249999J0D01*
G01*
X170108999Y-99506000D01*
G75*
G02*
X169859000Y-99256001I0J249999D01*
G01*
G37*
%TD.AperFunction*%
%TO.P,D3,1*%
%TO.N,GND*%
%TA.AperFunction,SMDPad,CuDef*%
G36*
G01*
X167809000Y-99256001D02*
X167809000Y-98355999D01*
G75*
G02*
X168058999Y-98106000I249999J0D01*
G01*
X168709001Y-98106000D01*
G75*
G02*
X168959000Y-98355999I0J-249999D01*
G01*
X168959000Y-99256001D01*
G75*
G02*
X168709001Y-99506000I-249999J0D01*
G01*
X168058999Y-99506000D01*
G75*
G02*
X167809000Y-99256001I0J249999D01*
G01*
G37*
%TD.AperFunction*%
%TD*%
%TO.P,C1,2*%
%TO.N,Net-(C1-Pad2)*%
%TA.AperFunction,SMDPad,CuDef*%
G36*
G01*
X152066500Y-87089000D02*
X152066500Y-86139000D01*
G75*
G02*
X152316500Y-85889000I250000J0D01*
G01*
X152991500Y-85889000D01*
G75*
G02*
X153241500Y-86139000I0J-250000D01*
G01*
X153241500Y-87089000D01*
G75*
G02*
X152991500Y-87339000I-250000J0D01*
G01*
X152316500Y-87339000D01*
G75*
G02*
X152066500Y-87089000I0J250000D01*
G01*
G37*
%TD.AperFunction*%
%TO.P,C1,1*%
%TO.N,GNDA*%
%TA.AperFunction,SMDPad,CuDef*%
G36*
G01*
X149991500Y-87089000D02*
X149991500Y-86139000D01*
G75*
G02*
X150241500Y-85889000I250000J0D01*
G01*
X150916500Y-85889000D01*
G75*
G02*
X151166500Y-86139000I0J-250000D01*
G01*
X151166500Y-87089000D01*
G75*
G02*
X150916500Y-87339000I-250000J0D01*
G01*
X150241500Y-87339000D01*
G75*
G02*
X149991500Y-87089000I0J250000D01*
G01*
G37*
%TD.AperFunction*%
%TD*%
%TO.P,C2,1*%
%TO.N,GND*%
%TA.AperFunction,SMDPad,CuDef*%
G36*
G01*
X170655000Y-107035000D02*
X169705000Y-107035000D01*
G75*
G02*
X169455000Y-106785000I0J250000D01*
G01*
X169455000Y-106110000D01*
G75*
G02*
X169705000Y-105860000I250000J0D01*
G01*
X170655000Y-105860000D01*
G75*
G02*
X170905000Y-106110000I0J-250000D01*
G01*
X170905000Y-106785000D01*
G75*
G02*
X170655000Y-107035000I-250000J0D01*
G01*
G37*
%TD.AperFunction*%
%TO.P,C2,2*%
%TO.N,+15V*%
%TA.AperFunction,SMDPad,CuDef*%
G36*
G01*
X170655000Y-104960000D02*
X169705000Y-104960000D01*
G75*
G02*
X169455000Y-104710000I0J250000D01*
G01*
X169455000Y-104035000D01*
G75*
G02*
X169705000Y-103785000I250000J0D01*
G01*
X170655000Y-103785000D01*
G75*
G02*
X170905000Y-104035000I0J-250000D01*
G01*
X170905000Y-104710000D01*
G75*
G02*
X170655000Y-104960000I-250000J0D01*
G01*
G37*
%TD.AperFunction*%
%TD*%
%TO.P,C3,1*%
%TO.N,/Out*%
%TA.AperFunction,SMDPad,CuDef*%
G36*
G01*
X162612500Y-77475000D02*
X162612500Y-76525000D01*
G75*
G02*
X162862500Y-76275000I250000J0D01*
G01*
X163537500Y-76275000D01*
G75*
G02*
X163787500Y-76525000I0J-250000D01*
G01*
X163787500Y-77475000D01*
G75*
G02*
X163537500Y-77725000I-250000J0D01*
G01*
X162862500Y-77725000D01*
G75*
G02*
X162612500Y-77475000I0J250000D01*
G01*
G37*
%TD.AperFunction*%
%TO.P,C3,2*%
%TO.N,/-IN*%
%TA.AperFunction,SMDPad,CuDef*%
G36*
G01*
X164687500Y-77475000D02*
X164687500Y-76525000D01*
G75*
G02*
X164937500Y-76275000I250000J0D01*
G01*
X165612500Y-76275000D01*
G75*
G02*
X165862500Y-76525000I0J-250000D01*
G01*
X165862500Y-77475000D01*
G75*
G02*
X165612500Y-77725000I-250000J0D01*
G01*
X164937500Y-77725000D01*
G75*
G02*
X164687500Y-77475000I0J250000D01*
G01*
G37*
%TD.AperFunction*%
%TD*%
%TO.P,C4,2*%
%TO.N,Net-(C4-Pad2)*%
%TA.AperFunction,SMDPad,CuDef*%
G36*
G01*
X152687000Y-105606000D02*
X153637000Y-105606000D01*
G75*
G02*
X153887000Y-105856000I0J-250000D01*
G01*
X153887000Y-106531000D01*
G75*
G02*
X153637000Y-106781000I-250000J0D01*
G01*
X152687000Y-106781000D01*
G75*
G02*
X152437000Y-106531000I0J250000D01*
G01*
X152437000Y-105856000D01*
G75*
G02*
X152687000Y-105606000I250000J0D01*
G01*
G37*
%TD.AperFunction*%
%TO.P,C4,1*%
%TO.N,GND*%
%TA.AperFunction,SMDPad,CuDef*%
G36*
G01*
X152687000Y-103531000D02*
X153637000Y-103531000D01*
G75*
G02*
X153887000Y-103781000I0J-250000D01*
G01*
X153887000Y-104456000D01*
G75*
G02*
X153637000Y-104706000I-250000J0D01*
G01*
X152687000Y-104706000D01*
G75*
G02*
X152437000Y-104456000I0J250000D01*
G01*
X152437000Y-103781000D01*
G75*
G02*
X152687000Y-103531000I250000J0D01*
G01*
G37*
%TD.AperFunction*%
%TD*%
%TO.P,C5,2*%
%TO.N,GNDA*%
%TA.AperFunction,SMDPad,CuDef*%
G36*
G01*
X156525000Y-85887500D02*
X155575000Y-85887500D01*
G75*
G02*
X155325000Y-85637500I0J250000D01*
G01*
X155325000Y-84962500D01*
G75*
G02*
X155575000Y-84712500I250000J0D01*
G01*
X156525000Y-84712500D01*
G75*
G02*
X156775000Y-84962500I0J-250000D01*
G01*
X156775000Y-85637500D01*
G75*
G02*
X156525000Y-85887500I-250000J0D01*
G01*
G37*
%TD.AperFunction*%
%TO.P,C5,1*%
%TA.AperFunction,SMDPad,CuDef*%
G36*
G01*
X156525000Y-87962500D02*
X155575000Y-87962500D01*
G75*
G02*
X155325000Y-87712500I0J250000D01*
G01*
X155325000Y-87037500D01*
G75*
G02*
X155575000Y-86787500I250000J0D01*
G01*
X156525000Y-86787500D01*
G75*
G02*
X156775000Y-87037500I0J-250000D01*
G01*
X156775000Y-87712500D01*
G75*
G02*
X156525000Y-87962500I-250000J0D01*
G01*
G37*
%TD.AperFunction*%
%TD*%
%TO.P,C6,1*%
%TO.N,GNDA*%
%TA.AperFunction,SMDPad,CuDef*%
G36*
G01*
X159380500Y-76995000D02*
X159380500Y-77945000D01*
G75*
G02*
X159130500Y-78195000I-250000J0D01*
G01*
X158455500Y-78195000D01*
G75*
G02*
X158205500Y-77945000I0J250000D01*
G01*
X158205500Y-76995000D01*
G75*
G02*
X158455500Y-76745000I250000J0D01*
G01*
X159130500Y-76745000D01*
G75*
G02*
X159380500Y-76995000I0J-250000D01*
G01*
G37*
%TD.AperFunction*%
%TO.P,C6,2*%
%TO.N,+3V3*%
%TA.AperFunction,SMDPad,CuDef*%
G36*
G01*
X157305500Y-76995000D02*
X157305500Y-77945000D01*
G75*
G02*
X157055500Y-78195000I-250000J0D01*
G01*
X156380500Y-78195000D01*
G75*
G02*
X156130500Y-77945000I0J250000D01*
G01*
X156130500Y-76995000D01*
G75*
G02*
X156380500Y-76745000I250000J0D01*
G01*
X157055500Y-76745000D01*
G75*
G02*
X157305500Y-76995000I0J-250000D01*
G01*
G37*
%TD.AperFunction*%
%TD*%
%TO.P,C7,1*%
%TO.N,Net-(C4-Pad2)*%
%TA.AperFunction,SMDPad,CuDef*%
G36*
G01*
X143950000Y-105950000D02*
X143950000Y-104850000D01*
G75*
G02*
X144200000Y-104600000I250000J0D01*
G01*
X146300000Y-104600000D01*
G75*
G02*
X146550000Y-104850000I0J-250000D01*
G01*
X146550000Y-105950000D01*
G75*
G02*
X146300000Y-106200000I-250000J0D01*
G01*
X144200000Y-106200000D01*
G75*
G02*
X143950000Y-105950000I0J250000D01*
G01*
G37*
%TD.AperFunction*%
%TO.P,C7,2*%
%TO.N,Net-(C7-Pad2)*%
%TA.AperFunction,SMDPad,CuDef*%
G36*
G01*
X147550000Y-105950000D02*
X147550000Y-104850000D01*
G75*
G02*
X147800000Y-104600000I250000J0D01*
G01*
X149900000Y-104600000D01*
G75*
G02*
X150150000Y-104850000I0J-250000D01*
G01*
X150150000Y-105950000D01*
G75*
G02*
X149900000Y-106200000I-250000J0D01*
G01*
X147800000Y-106200000D01*
G75*
G02*
X147550000Y-105950000I0J250000D01*
G01*
G37*
%TD.AperFunction*%
%TD*%
D16*
%TO.P,CR1,1*%
%TO.N,/TrigOut*%
X146350000Y-94450000D03*
D17*
%TO.P,CR1,2*%
%TO.N,Net-(C7-Pad2)*%
X146350000Y-96990000D03*
%TO.P,CR1,3*%
%TO.N,GND*%
X146350000Y-99530000D03*
%TD*%
D18*
%TO.P,D1,1*%
%TO.N,GNDA*%
X147230000Y-82000000D03*
%TO.P,D1,2*%
%TO.N,/-IN*%
X149770000Y-82000000D03*
%TD*%
%TO.P,D2,1*%
%TO.N,GND*%
%TA.AperFunction,SMDPad,CuDef*%
G36*
G01*
X167809000Y-97036001D02*
X167809000Y-96135999D01*
G75*
G02*
X168058999Y-95886000I249999J0D01*
G01*
X168709001Y-95886000D01*
G75*
G02*
X168959000Y-96135999I0J-249999D01*
G01*
X168959000Y-97036001D01*
G75*
G02*
X168709001Y-97286000I-249999J0D01*
G01*
X168058999Y-97286000D01*
G75*
G02*
X167809000Y-97036001I0J249999D01*
G01*
G37*
%TD.AperFunction*%
%TO.P,D2,2*%
%TO.N,Net-(D2-Pad2)*%
%TA.AperFunction,SMDPad,CuDef*%
G36*
G01*
X169859000Y-97036001D02*
X169859000Y-96135999D01*
G75*
G02*
X170108999Y-95886000I249999J0D01*
G01*
X170759001Y-95886000D01*
G75*
G02*
X171009000Y-96135999I0J-249999D01*
G01*
X171009000Y-97036001D01*
G75*
G02*
X170759001Y-97286000I-249999J0D01*
G01*
X170108999Y-97286000D01*
G75*
G02*
X169859000Y-97036001I0J249999D01*
G01*
G37*
%TD.AperFunction*%
%TD*%
D19*
%TO.P,J2,1*%
%TO.N,Net-(C4-Pad2)*%
X134500000Y-99250000D03*
D20*
%TO.P,J2,2*%
%TO.N,Net-(C7-Pad2)*%
X139500000Y-99250000D03*
%TD*%
%TO.P,R1,1*%
%TO.N,Net-(C1-Pad2)*%
%TA.AperFunction,SMDPad,CuDef*%
G36*
G01*
X160470001Y-82356000D02*
X159569999Y-82356000D01*
G75*
G02*
X159320000Y-82106001I0J249999D01*
G01*
X159320000Y-81405999D01*
G75*
G02*
X159569999Y-81156000I249999J0D01*
G01*
X160470001Y-81156000D01*
G75*
G02*
X160720000Y-81405999I0J-249999D01*
G01*
X160720000Y-82106001D01*
G75*
G02*
X160470001Y-82356000I-249999J0D01*
G01*
G37*
%TD.AperFunction*%
%TO.P,R1,2*%
%TO.N,+3V3*%
%TA.AperFunction,SMDPad,CuDef*%
G36*
G01*
X160470001Y-80356000D02*
X159569999Y-80356000D01*
G75*
G02*
X159320000Y-80106001I0J249999D01*
G01*
X159320000Y-79405999D01*
G75*
G02*
X159569999Y-79156000I249999J0D01*
G01*
X160470001Y-79156000D01*
G75*
G02*
X160720000Y-79405999I0J-249999D01*
G01*
X160720000Y-80106001D01*
G75*
G02*
X160470001Y-80356000I-249999J0D01*
G01*
G37*
%TD.AperFunction*%
%TD*%
%TO.P,R2,2*%
%TO.N,Net-(C1-Pad2)*%
%TA.AperFunction,SMDPad,CuDef*%
G36*
G01*
X158750001Y-85900000D02*
X157849999Y-85900000D01*
G75*
G02*
X157600000Y-85650001I0J249999D01*
G01*
X157600000Y-84949999D01*
G75*
G02*
X157849999Y-84700000I249999J0D01*
G01*
X158750001Y-84700000D01*
G75*
G02*
X159000000Y-84949999I0J-249999D01*
G01*
X159000000Y-85650001D01*
G75*
G02*
X158750001Y-85900000I-249999J0D01*
G01*
G37*
%TD.AperFunction*%
%TO.P,R2,1*%
%TO.N,GNDA*%
%TA.AperFunction,SMDPad,CuDef*%
G36*
G01*
X158750001Y-87900000D02*
X157849999Y-87900000D01*
G75*
G02*
X157600000Y-87650001I0J249999D01*
G01*
X157600000Y-86949999D01*
G75*
G02*
X157849999Y-86700000I249999J0D01*
G01*
X158750001Y-86700000D01*
G75*
G02*
X159000000Y-86949999I0J-249999D01*
G01*
X159000000Y-87650001D01*
G75*
G02*
X158750001Y-87900000I-249999J0D01*
G01*
G37*
%TD.AperFunction*%
%TD*%
%TO.P,R3,1*%
%TO.N,/Out*%
%TA.AperFunction,SMDPad,CuDef*%
G36*
G01*
X162650000Y-85800001D02*
X162650000Y-84899999D01*
G75*
G02*
X162899999Y-84650000I249999J0D01*
G01*
X163600001Y-84650000D01*
G75*
G02*
X163850000Y-84899999I0J-249999D01*
G01*
X163850000Y-85800001D01*
G75*
G02*
X163600001Y-86050000I-249999J0D01*
G01*
X162899999Y-86050000D01*
G75*
G02*
X162650000Y-85800001I0J249999D01*
G01*
G37*
%TD.AperFunction*%
%TO.P,R3,2*%
%TO.N,Net-(R3-Pad2)*%
%TA.AperFunction,SMDPad,CuDef*%
G36*
G01*
X164650000Y-85800001D02*
X164650000Y-84899999D01*
G75*
G02*
X164899999Y-84650000I249999J0D01*
G01*
X165600001Y-84650000D01*
G75*
G02*
X165850000Y-84899999I0J-249999D01*
G01*
X165850000Y-85800001D01*
G75*
G02*
X165600001Y-86050000I-249999J0D01*
G01*
X164899999Y-86050000D01*
G75*
G02*
X164650000Y-85800001I0J249999D01*
G01*
G37*
%TD.AperFunction*%
%TD*%
%TO.P,R4,2*%
%TO.N,Net-(R4-Pad2)*%
%TA.AperFunction,SMDPad,CuDef*%
G36*
G01*
X153600000Y-100750001D02*
X153600000Y-99849999D01*
G75*
G02*
X153849999Y-99600000I249999J0D01*
G01*
X154550001Y-99600000D01*
G75*
G02*
X154800000Y-99849999I0J-249999D01*
G01*
X154800000Y-100750001D01*
G75*
G02*
X154550001Y-101000000I-249999J0D01*
G01*
X153849999Y-101000000D01*
G75*
G02*
X153600000Y-100750001I0J249999D01*
G01*
G37*
%TD.AperFunction*%
%TO.P,R4,1*%
%TO.N,/TrigOut*%
%TA.AperFunction,SMDPad,CuDef*%
G36*
G01*
X151600000Y-100750001D02*
X151600000Y-99849999D01*
G75*
G02*
X151849999Y-99600000I249999J0D01*
G01*
X152550001Y-99600000D01*
G75*
G02*
X152800000Y-99849999I0J-249999D01*
G01*
X152800000Y-100750001D01*
G75*
G02*
X152550001Y-101000000I-249999J0D01*
G01*
X151849999Y-101000000D01*
G75*
G02*
X151600000Y-100750001I0J249999D01*
G01*
G37*
%TD.AperFunction*%
%TD*%
%TO.P,R5,2*%
%TO.N,Net-(R5-Pad2)*%
%TA.AperFunction,SMDPad,CuDef*%
G36*
G01*
X164650000Y-83700001D02*
X164650000Y-82799999D01*
G75*
G02*
X164899999Y-82550000I249999J0D01*
G01*
X165600001Y-82550000D01*
G75*
G02*
X165850000Y-82799999I0J-249999D01*
G01*
X165850000Y-83700001D01*
G75*
G02*
X165600001Y-83950000I-249999J0D01*
G01*
X164899999Y-83950000D01*
G75*
G02*
X164650000Y-83700001I0J249999D01*
G01*
G37*
%TD.AperFunction*%
%TO.P,R5,1*%
%TO.N,/Out*%
%TA.AperFunction,SMDPad,CuDef*%
G36*
G01*
X162650000Y-83700001D02*
X162650000Y-82799999D01*
G75*
G02*
X162899999Y-82550000I249999J0D01*
G01*
X163600001Y-82550000D01*
G75*
G02*
X163850000Y-82799999I0J-249999D01*
G01*
X163850000Y-83700001D01*
G75*
G02*
X163600001Y-83950000I-249999J0D01*
G01*
X162899999Y-83950000D01*
G75*
G02*
X162650000Y-83700001I0J249999D01*
G01*
G37*
%TD.AperFunction*%
%TD*%
%TO.P,R6,1*%
%TO.N,/TrigOut*%
%TA.AperFunction,SMDPad,CuDef*%
G36*
G01*
X151600000Y-98650001D02*
X151600000Y-97749999D01*
G75*
G02*
X151849999Y-97500000I249999J0D01*
G01*
X152550001Y-97500000D01*
G75*
G02*
X152800000Y-97749999I0J-249999D01*
G01*
X152800000Y-98650001D01*
G75*
G02*
X152550001Y-98900000I-249999J0D01*
G01*
X151849999Y-98900000D01*
G75*
G02*
X151600000Y-98650001I0J249999D01*
G01*
G37*
%TD.AperFunction*%
%TO.P,R6,2*%
%TO.N,Net-(R6-Pad2)*%
%TA.AperFunction,SMDPad,CuDef*%
G36*
G01*
X153600000Y-98650001D02*
X153600000Y-97749999D01*
G75*
G02*
X153849999Y-97500000I249999J0D01*
G01*
X154550001Y-97500000D01*
G75*
G02*
X154800000Y-97749999I0J-249999D01*
G01*
X154800000Y-98650001D01*
G75*
G02*
X154550001Y-98900000I-249999J0D01*
G01*
X153849999Y-98900000D01*
G75*
G02*
X153600000Y-98650001I0J249999D01*
G01*
G37*
%TD.AperFunction*%
%TD*%
%TO.P,R7,1*%
%TO.N,FluoroRead*%
%TA.AperFunction,SMDPad,CuDef*%
G36*
G01*
X160950001Y-87900000D02*
X160049999Y-87900000D01*
G75*
G02*
X159800000Y-87650001I0J249999D01*
G01*
X159800000Y-86949999D01*
G75*
G02*
X160049999Y-86700000I249999J0D01*
G01*
X160950001Y-86700000D01*
G75*
G02*
X161200000Y-86949999I0J-249999D01*
G01*
X161200000Y-87650001D01*
G75*
G02*
X160950001Y-87900000I-249999J0D01*
G01*
G37*
%TD.AperFunction*%
%TO.P,R7,2*%
%TO.N,/Out*%
%TA.AperFunction,SMDPad,CuDef*%
G36*
G01*
X160950001Y-85900000D02*
X160049999Y-85900000D01*
G75*
G02*
X159800000Y-85650001I0J249999D01*
G01*
X159800000Y-84949999D01*
G75*
G02*
X160049999Y-84700000I249999J0D01*
G01*
X160950001Y-84700000D01*
G75*
G02*
X161200000Y-84949999I0J-249999D01*
G01*
X161200000Y-85650001D01*
G75*
G02*
X160950001Y-85900000I-249999J0D01*
G01*
G37*
%TD.AperFunction*%
%TD*%
%TO.P,R8,1*%
%TO.N,/Out*%
%TA.AperFunction,SMDPad,CuDef*%
G36*
G01*
X162650000Y-81600001D02*
X162650000Y-80699999D01*
G75*
G02*
X162899999Y-80450000I249999J0D01*
G01*
X163600001Y-80450000D01*
G75*
G02*
X163850000Y-80699999I0J-249999D01*
G01*
X163850000Y-81600001D01*
G75*
G02*
X163600001Y-81850000I-249999J0D01*
G01*
X162899999Y-81850000D01*
G75*
G02*
X162650000Y-81600001I0J249999D01*
G01*
G37*
%TD.AperFunction*%
%TO.P,R8,2*%
%TO.N,Net-(R8-Pad2)*%
%TA.AperFunction,SMDPad,CuDef*%
G36*
G01*
X164650000Y-81600001D02*
X164650000Y-80699999D01*
G75*
G02*
X164899999Y-80450000I249999J0D01*
G01*
X165600001Y-80450000D01*
G75*
G02*
X165850000Y-80699999I0J-249999D01*
G01*
X165850000Y-81600001D01*
G75*
G02*
X165600001Y-81850000I-249999J0D01*
G01*
X164899999Y-81850000D01*
G75*
G02*
X164650000Y-81600001I0J249999D01*
G01*
G37*
%TD.AperFunction*%
%TD*%
%TO.P,R9,1*%
%TO.N,/TrigOut*%
%TA.AperFunction,SMDPad,CuDef*%
G36*
G01*
X151600000Y-96550001D02*
X151600000Y-95649999D01*
G75*
G02*
X151849999Y-95400000I249999J0D01*
G01*
X152550001Y-95400000D01*
G75*
G02*
X152800000Y-95649999I0J-249999D01*
G01*
X152800000Y-96550001D01*
G75*
G02*
X152550001Y-96800000I-249999J0D01*
G01*
X151849999Y-96800000D01*
G75*
G02*
X151600000Y-96550001I0J249999D01*
G01*
G37*
%TD.AperFunction*%
%TO.P,R9,2*%
%TO.N,Net-(R9-Pad2)*%
%TA.AperFunction,SMDPad,CuDef*%
G36*
G01*
X153600000Y-96550001D02*
X153600000Y-95649999D01*
G75*
G02*
X153849999Y-95400000I249999J0D01*
G01*
X154550001Y-95400000D01*
G75*
G02*
X154800000Y-95649999I0J-249999D01*
G01*
X154800000Y-96550001D01*
G75*
G02*
X154550001Y-96800000I-249999J0D01*
G01*
X153849999Y-96800000D01*
G75*
G02*
X153600000Y-96550001I0J249999D01*
G01*
G37*
%TD.AperFunction*%
%TD*%
%TO.P,R10,2*%
%TO.N,Net-(R10-Pad2)*%
%TA.AperFunction,SMDPad,CuDef*%
G36*
G01*
X164650000Y-79550001D02*
X164650000Y-78649999D01*
G75*
G02*
X164899999Y-78400000I249999J0D01*
G01*
X165600001Y-78400000D01*
G75*
G02*
X165850000Y-78649999I0J-249999D01*
G01*
X165850000Y-79550001D01*
G75*
G02*
X165600001Y-79800000I-249999J0D01*
G01*
X164899999Y-79800000D01*
G75*
G02*
X164650000Y-79550001I0J249999D01*
G01*
G37*
%TD.AperFunction*%
%TO.P,R10,1*%
%TO.N,/Out*%
%TA.AperFunction,SMDPad,CuDef*%
G36*
G01*
X162650000Y-79550001D02*
X162650000Y-78649999D01*
G75*
G02*
X162899999Y-78400000I249999J0D01*
G01*
X163600001Y-78400000D01*
G75*
G02*
X163850000Y-78649999I0J-249999D01*
G01*
X163850000Y-79550001D01*
G75*
G02*
X163600001Y-79800000I-249999J0D01*
G01*
X162899999Y-79800000D01*
G75*
G02*
X162650000Y-79550001I0J249999D01*
G01*
G37*
%TD.AperFunction*%
%TD*%
%TO.P,R11,2*%
%TO.N,Net-(R11-Pad2)*%
%TA.AperFunction,SMDPad,CuDef*%
G36*
G01*
X153600000Y-94450001D02*
X153600000Y-93549999D01*
G75*
G02*
X153849999Y-93300000I249999J0D01*
G01*
X154550001Y-93300000D01*
G75*
G02*
X154800000Y-93549999I0J-249999D01*
G01*
X154800000Y-94450001D01*
G75*
G02*
X154550001Y-94700000I-249999J0D01*
G01*
X153849999Y-94700000D01*
G75*
G02*
X153600000Y-94450001I0J249999D01*
G01*
G37*
%TD.AperFunction*%
%TO.P,R11,1*%
%TO.N,/TrigOut*%
%TA.AperFunction,SMDPad,CuDef*%
G36*
G01*
X151600000Y-94450001D02*
X151600000Y-93549999D01*
G75*
G02*
X151849999Y-93300000I249999J0D01*
G01*
X152550001Y-93300000D01*
G75*
G02*
X152800000Y-93549999I0J-249999D01*
G01*
X152800000Y-94450001D01*
G75*
G02*
X152550001Y-94700000I-249999J0D01*
G01*
X151849999Y-94700000D01*
G75*
G02*
X151600000Y-94450001I0J249999D01*
G01*
G37*
%TD.AperFunction*%
%TD*%
%TO.P,R12,2*%
%TO.N,Net-(D2-Pad2)*%
%TA.AperFunction,SMDPad,CuDef*%
G36*
G01*
X173606000Y-96135999D02*
X173606000Y-97036001D01*
G75*
G02*
X173356001Y-97286000I-249999J0D01*
G01*
X172655999Y-97286000D01*
G75*
G02*
X172406000Y-97036001I0J249999D01*
G01*
X172406000Y-96135999D01*
G75*
G02*
X172655999Y-95886000I249999J0D01*
G01*
X173356001Y-95886000D01*
G75*
G02*
X173606000Y-96135999I0J-249999D01*
G01*
G37*
%TD.AperFunction*%
%TO.P,R12,1*%
%TO.N,+5V*%
%TA.AperFunction,SMDPad,CuDef*%
G36*
G01*
X175606000Y-96135999D02*
X175606000Y-97036001D01*
G75*
G02*
X175356001Y-97286000I-249999J0D01*
G01*
X174655999Y-97286000D01*
G75*
G02*
X174406000Y-97036001I0J249999D01*
G01*
X174406000Y-96135999D01*
G75*
G02*
X174655999Y-95886000I249999J0D01*
G01*
X175356001Y-95886000D01*
G75*
G02*
X175606000Y-96135999I0J-249999D01*
G01*
G37*
%TD.AperFunction*%
%TD*%
D21*
%TO.P,U1,1*%
%TO.N,+3V3*%
X160559200Y-93740000D03*
%TO.P,U1,2*%
%TO.N,Net-(R11-Pad2)*%
X160559200Y-95010000D03*
%TO.P,U1,3*%
%TO.N,Net-(R9-Pad2)*%
X160559200Y-96280000D03*
%TO.P,U1,4*%
%TO.N,+3V3*%
X160559200Y-97550000D03*
%TO.P,U1,5*%
%TO.N,ActinicGain2*%
X160559200Y-98820000D03*
%TO.P,U1,6*%
%TO.N,ActinicGain3*%
X160559200Y-100090000D03*
%TO.P,U1,7*%
%TO.N,GND*%
X160559200Y-101360000D03*
%TO.P,U1,8*%
%TO.N,+3V3*%
X165740800Y-101360000D03*
%TO.P,U1,9*%
%TO.N,Net-(R6-Pad2)*%
X165740800Y-100090000D03*
%TO.P,U1,10*%
%TO.N,Net-(R4-Pad2)*%
X165740800Y-98820000D03*
%TO.P,U1,11*%
%TO.N,+3V3*%
X165740800Y-97550000D03*
%TO.P,U1,12*%
%TO.N,ActinicGain4*%
X165740800Y-96280000D03*
%TO.P,U1,13*%
%TO.N,ActinicGain1*%
X165740800Y-95010000D03*
%TO.P,U1,14*%
%TO.N,+3V3*%
X165740800Y-93740000D03*
%TD*%
D22*
%TO.P,U2,14*%
%TO.N,+3V3*%
X177800000Y-84632800D03*
%TO.P,U2,13*%
%TO.N,FluoroGain1*%
X176530000Y-84632800D03*
%TO.P,U2,12*%
%TO.N,FluoroGain4*%
X175260000Y-84632800D03*
%TO.P,U2,11*%
%TO.N,/-IN*%
X173990000Y-84632800D03*
%TO.P,U2,10*%
%TO.N,Net-(R3-Pad2)*%
X172720000Y-84632800D03*
%TO.P,U2,9*%
%TO.N,Net-(R5-Pad2)*%
X171450000Y-84632800D03*
%TO.P,U2,8*%
%TO.N,/-IN*%
X170180000Y-84632800D03*
%TO.P,U2,7*%
%TO.N,GNDA*%
X170180000Y-79451200D03*
%TO.P,U2,6*%
%TO.N,FluoroGain3*%
X171450000Y-79451200D03*
%TO.P,U2,5*%
%TO.N,FluoroGain2*%
X172720000Y-79451200D03*
%TO.P,U2,4*%
%TO.N,/-IN*%
X173990000Y-79451200D03*
%TO.P,U2,3*%
%TO.N,Net-(R8-Pad2)*%
X175260000Y-79451200D03*
%TO.P,U2,2*%
%TO.N,Net-(R10-Pad2)*%
X176530000Y-79451200D03*
%TO.P,U2,1*%
%TO.N,/-IN*%
X177800000Y-79451200D03*
%TD*%
D23*
%TO.P,U3,1*%
%TO.N,+15V*%
X163830000Y-105410000D03*
D24*
%TO.P,U3,2*%
%TO.N,GND*%
X161290000Y-105410000D03*
%TO.P,U3,3*%
%TO.N,Net-(C4-Pad2)*%
X158750000Y-105410000D03*
%TD*%
D25*
%TO.P,U4,1*%
%TO.N,/Out*%
X154178000Y-79756000D03*
%TO.P,U4,2*%
%TO.N,GNDA*%
X154178000Y-80706000D03*
%TO.P,U4,3*%
%TO.N,Net-(C1-Pad2)*%
X154178000Y-81656000D03*
%TO.P,U4,4*%
%TO.N,/-IN*%
X156688000Y-81656000D03*
%TO.P,U4,5*%
%TO.N,+3V3*%
X156688000Y-79756000D03*
%TD*%
D26*
%TO.N,*%
X168910000Y-78232000D03*
%TO.N,GNDA*%
X170180000Y-77216000D03*
X186895001Y-88440999D03*
X167386000Y-84328000D03*
X166878000Y-86614000D03*
X168656000Y-86614000D03*
X170688000Y-86614000D03*
X172720000Y-86614000D03*
X174752000Y-86614000D03*
X162560000Y-88138000D03*
X164338000Y-88138000D03*
X157000000Y-83750000D03*
X148082000Y-84328000D03*
X148336000Y-79502000D03*
X154686000Y-78486000D03*
X161544000Y-78740000D03*
X167640000Y-77216000D03*
X168910000Y-77216000D03*
X167640000Y-78232000D03*
X167640000Y-80010000D03*
X168402000Y-82042000D03*
X173736000Y-76200000D03*
X184912000Y-88138000D03*
X185420000Y-87122000D03*
X186690000Y-86868000D03*
X187960000Y-87122000D03*
X188214000Y-88138000D03*
X138750000Y-86750000D03*
X140750000Y-80500000D03*
X135000000Y-77250000D03*
X134250000Y-87000000D03*
X141500000Y-87000000D03*
X141000000Y-77500000D03*
X147500000Y-77500000D03*
X151250000Y-77500000D03*
X181250000Y-77500000D03*
X187000000Y-77500000D03*
X136500000Y-87000000D03*
X179250000Y-77500000D03*
X184500000Y-77500000D03*
X180250000Y-82000000D03*
X182000000Y-85750000D03*
%TO.N,GND*%
X162560000Y-99822000D03*
X154940000Y-91948000D03*
X168148000Y-101600000D03*
X169164000Y-93726000D03*
X171196000Y-93726000D03*
X173228000Y-93726000D03*
X175260000Y-93726000D03*
X152654000Y-102108000D03*
X157988000Y-92710000D03*
X165354000Y-102362000D03*
X171704000Y-94996000D03*
X175260000Y-94996000D03*
X173228000Y-94996000D03*
X183464000Y-92464000D03*
X183464000Y-93734000D03*
X182194000Y-93734000D03*
X180670000Y-93734000D03*
X179146000Y-93734000D03*
X163500000Y-96250000D03*
X133000000Y-92000000D03*
X136000000Y-92000000D03*
X138250000Y-92000000D03*
X156250000Y-100750000D03*
X158500000Y-97250000D03*
%TO.N,/Out*%
X159512000Y-83566000D03*
X156718150Y-80756505D03*
%TO.N,/-IN*%
X158242000Y-80518000D03*
X166878000Y-76200000D03*
X173482000Y-77724000D03*
X168910000Y-84074000D03*
X155956000Y-83312000D03*
%TO.N,+3V3*%
X161544000Y-83312000D03*
X166624000Y-92202000D03*
X162560000Y-92202000D03*
%TO.N,Net-(R6-Pad2)*%
X157988000Y-101092000D03*
X163576000Y-102362000D03*
%TO.N,Net-(R8-Pad2)*%
X174752000Y-81026000D03*
X168910000Y-81026000D03*
%TO.N,Net-(R10-Pad2)*%
X175260000Y-77724000D03*
X168910000Y-79248000D03*
%TO.N,ActinicGain2*%
X143250000Y-91750000D03*
X158000000Y-98500000D03*
%TO.N,ActinicGain3*%
X140250000Y-92000000D03*
X158000000Y-99750000D03*
%TO.N,ActinicGain4*%
X150250000Y-91500000D03*
X167500000Y-94250000D03*
%TO.N,ActinicGain1*%
X152000000Y-92250000D03*
X163250000Y-95000000D03*
%TD*%
D27*
%TO.N,Net-(C1-Pad2)*%
X154178000Y-85090000D02*
X152654000Y-86614000D01*
X154178000Y-81656000D02*
X154178000Y-85090000D01*
X158300000Y-83476000D02*
X160020000Y-81756000D01*
X158300000Y-85300000D02*
X158300000Y-83476000D01*
X154178000Y-85053690D02*
X155484310Y-86360000D01*
X154178000Y-81656000D02*
X154178000Y-85053690D01*
X157240000Y-86360000D02*
X158300000Y-85300000D01*
X155484310Y-86360000D02*
X157240000Y-86360000D01*
D28*
%TO.N,GNDA*%
X170180000Y-79451200D02*
X170180000Y-77216000D01*
X186895001Y-89885001D02*
X186895001Y-88440999D01*
X186895001Y-88440999D02*
X186895001Y-88440999D01*
D27*
X155108001Y-81100999D02*
X154713002Y-80706000D01*
X154713002Y-80706000D02*
X154178000Y-80706000D01*
X155108001Y-84358001D02*
X155108001Y-81100999D01*
X156050000Y-85300000D02*
X155108001Y-84358001D01*
X156050000Y-84700000D02*
X157000000Y-83750000D01*
X156050000Y-85300000D02*
X156050000Y-84700000D01*
D28*
%TO.N,GND*%
X162560000Y-100106802D02*
X162560000Y-99822000D01*
X161306802Y-101360000D02*
X162560000Y-100106802D01*
X160559200Y-101360000D02*
X161306802Y-101360000D01*
X153875001Y-89885001D02*
X154940000Y-90950000D01*
X154940000Y-90950000D02*
X154940000Y-91948000D01*
D27*
%TO.N,/Out*%
X159512000Y-84312000D02*
X160500000Y-85300000D01*
X159512000Y-83566000D02*
X159512000Y-84312000D01*
X163200000Y-85300000D02*
X163250000Y-85350000D01*
X160500000Y-85300000D02*
X163200000Y-85300000D01*
X163250000Y-77050000D02*
X163200000Y-77000000D01*
X163250000Y-85350000D02*
X163250000Y-77050000D01*
D28*
X154887998Y-79756000D02*
X155903998Y-80772000D01*
X154178000Y-79756000D02*
X154887998Y-79756000D01*
X156702655Y-80772000D02*
X156718150Y-80756505D01*
X155903998Y-80772000D02*
X156702655Y-80772000D01*
D27*
%TO.N,/-IN*%
X156688000Y-81656000D02*
X156378000Y-81656000D01*
X156688000Y-81656000D02*
X157104000Y-81656000D01*
X157104000Y-81656000D02*
X158242000Y-80518000D01*
X166878000Y-76200000D02*
X166878000Y-76708000D01*
X166586000Y-77000000D02*
X165275000Y-77000000D01*
X166878000Y-76708000D02*
X166586000Y-77000000D01*
X173990000Y-79451200D02*
X173990000Y-78232000D01*
X173990000Y-78232000D02*
X173482000Y-77724000D01*
X173990000Y-84632800D02*
X173990000Y-79451200D01*
X177800000Y-80238600D02*
X177800000Y-79451200D01*
X173990000Y-84048600D02*
X177800000Y-80238600D01*
X173990000Y-84632800D02*
X173990000Y-84048600D01*
X170180000Y-84632800D02*
X169468800Y-84632800D01*
X169468800Y-84632800D02*
X168910000Y-84074000D01*
X177800000Y-78350300D02*
X176411700Y-76962000D01*
X177800000Y-79451200D02*
X177800000Y-78350300D01*
X174244000Y-76962000D02*
X173482000Y-77724000D01*
X176411700Y-76962000D02*
X174244000Y-76962000D01*
D28*
X155956000Y-82388000D02*
X156688000Y-81656000D01*
X155956000Y-83312000D02*
X155956000Y-82388000D01*
D27*
%TO.N,+3V3*%
X156718000Y-79726000D02*
X156688000Y-79756000D01*
X156718000Y-77470000D02*
X156718000Y-79726000D01*
X156688000Y-79756000D02*
X160020000Y-79756000D01*
D28*
X184355001Y-89885001D02*
X182100000Y-87630000D01*
X180797200Y-87630000D02*
X177800000Y-84632800D01*
X182100000Y-87630000D02*
X180797200Y-87630000D01*
X160020000Y-79756000D02*
X161544000Y-81280000D01*
X161544000Y-81280000D02*
X161544000Y-83312000D01*
X166624000Y-92856800D02*
X165740800Y-93740000D01*
X166624000Y-92202000D02*
X166624000Y-92856800D01*
X162097200Y-92202000D02*
X160559200Y-93740000D01*
X162560000Y-92202000D02*
X162097200Y-92202000D01*
X160559200Y-97550000D02*
X161276000Y-97550000D01*
X161306802Y-93740000D02*
X160559200Y-93740000D01*
X161910101Y-96915899D02*
X161910101Y-94343299D01*
X161910101Y-94343299D02*
X161306802Y-93740000D01*
X161276000Y-97550000D02*
X161910101Y-96915899D01*
X162544202Y-97550000D02*
X165740800Y-97550000D01*
X161910101Y-96915899D02*
X162544202Y-97550000D01*
X165740800Y-101360000D02*
X167118000Y-101360000D01*
X167118000Y-101360000D02*
X167308990Y-101169010D01*
X167308990Y-97667290D02*
X167191700Y-97550000D01*
X167191700Y-97550000D02*
X165740800Y-97550000D01*
X167308990Y-101169010D02*
X167308990Y-97667290D01*
%TO.N,/TrigOut*%
X152200000Y-100300000D02*
X152200000Y-94000000D01*
X146800000Y-94000000D02*
X146350000Y-94450000D01*
X152200000Y-94000000D02*
X146800000Y-94000000D01*
D27*
%TO.N,Net-(D2-Pad2)*%
X170434000Y-96586000D02*
X173006000Y-96586000D01*
%TO.N,Net-(R3-Pad2)*%
X172720000Y-85733700D02*
X172720000Y-84632800D01*
X172644999Y-85808701D02*
X172720000Y-85733700D01*
X165708701Y-85808701D02*
X172644999Y-85808701D01*
X165250000Y-85350000D02*
X165708701Y-85808701D01*
D28*
%TO.N,Net-(R4-Pad2)*%
X164993198Y-98820000D02*
X162814000Y-100999198D01*
X165740800Y-98820000D02*
X164993198Y-98820000D01*
X162814000Y-101122802D02*
X161574802Y-102362000D01*
X162814000Y-100999198D02*
X162814000Y-101122802D01*
X156262000Y-102362000D02*
X154200000Y-100300000D01*
X161574802Y-102362000D02*
X156262000Y-102362000D01*
D27*
%TO.N,Net-(R5-Pad2)*%
X171450000Y-83531900D02*
X171450000Y-84632800D01*
X171168100Y-83250000D02*
X171450000Y-83531900D01*
X165250000Y-83250000D02*
X171168100Y-83250000D01*
D28*
%TO.N,Net-(R6-Pad2)*%
X154200000Y-98200000D02*
X155096000Y-98200000D01*
X155096000Y-98200000D02*
X157988000Y-101092000D01*
X164993198Y-100090000D02*
X165740800Y-100090000D01*
X163576000Y-101507198D02*
X164993198Y-100090000D01*
X163576000Y-102362000D02*
X163576000Y-101507198D01*
D27*
%TO.N,FluoroRead*%
X160500000Y-88340002D02*
X158955001Y-89885001D01*
X160500000Y-87300000D02*
X160500000Y-88340002D01*
%TO.N,Net-(R8-Pad2)*%
X175260000Y-79451200D02*
X175260000Y-80518000D01*
X175260000Y-80518000D02*
X174752000Y-81026000D01*
X165374000Y-81026000D02*
X165250000Y-81150000D01*
X168910000Y-81026000D02*
X165374000Y-81026000D01*
D28*
%TO.N,Net-(R9-Pad2)*%
X160559200Y-96280000D02*
X156478000Y-96280000D01*
X156298000Y-96100000D02*
X154200000Y-96100000D01*
X156478000Y-96280000D02*
X156298000Y-96100000D01*
D27*
%TO.N,Net-(R10-Pad2)*%
X176530000Y-78350300D02*
X175903700Y-77724000D01*
X176530000Y-79451200D02*
X176530000Y-78350300D01*
X175903700Y-77724000D02*
X175260000Y-77724000D01*
X165398000Y-79248000D02*
X165250000Y-79100000D01*
X168910000Y-79248000D02*
X165398000Y-79248000D01*
D28*
%TO.N,Net-(R11-Pad2)*%
X160559200Y-95010000D02*
X157494000Y-95010000D01*
X156484000Y-94000000D02*
X154200000Y-94000000D01*
X157494000Y-95010000D02*
X156484000Y-94000000D01*
D27*
%TO.N,+5V*%
X189435001Y-89885001D02*
X187626002Y-91694000D01*
X179898000Y-91694000D02*
X175006000Y-96586000D01*
X187626002Y-91694000D02*
X179898000Y-91694000D01*
%TO.N,ActinicGain2*%
X141175001Y-89885001D02*
X143040000Y-91750000D01*
X143040000Y-91750000D02*
X143250000Y-91750000D01*
X158320000Y-98820000D02*
X158000000Y-98500000D01*
X160559200Y-98820000D02*
X158320000Y-98820000D01*
%TO.N,ActinicGain3*%
X158340000Y-100090000D02*
X158000000Y-99750000D01*
X160559200Y-100090000D02*
X158340000Y-100090000D01*
X138635001Y-90385001D02*
X138635001Y-89885001D01*
X140250000Y-92000000D02*
X138635001Y-90385001D01*
%TO.N,ActinicGain4*%
X160370000Y-75770002D02*
X143979998Y-75770002D01*
X161495001Y-74645001D02*
X160370000Y-75770002D01*
X143979998Y-75770002D02*
X142750000Y-77000000D01*
X142750000Y-77000000D02*
X142750000Y-83500000D01*
X147670000Y-88420000D02*
X147670000Y-90670000D01*
X142750000Y-83500000D02*
X147670000Y-88420000D01*
X147670000Y-90670000D02*
X148500000Y-91500000D01*
X148500000Y-91500000D02*
X150250000Y-91500000D01*
X166841700Y-96280000D02*
X165740800Y-96280000D01*
X167500000Y-95621700D02*
X166841700Y-96280000D01*
X167500000Y-94250000D02*
X167500000Y-95621700D01*
%TO.N,ActinicGain1*%
X138635001Y-74645001D02*
X138635001Y-81885001D01*
X138635001Y-81885001D02*
X145000000Y-88250000D01*
X145000000Y-90295002D02*
X146954998Y-92250000D01*
X145000000Y-88250000D02*
X145000000Y-90295002D01*
X146954998Y-92250000D02*
X152000000Y-92250000D01*
X165730800Y-95000000D02*
X165740800Y-95010000D01*
X163250000Y-95000000D02*
X165730800Y-95000000D01*
%TO.N,FluoroGain1*%
X181198001Y-89885001D02*
X181815001Y-89885001D01*
X176530000Y-85217000D02*
X181198001Y-89885001D01*
X176530000Y-84632800D02*
X176530000Y-85217000D01*
%TO.N,FluoroGain4*%
X179275001Y-89748701D02*
X179275001Y-89885001D01*
X175260000Y-85733700D02*
X179275001Y-89748701D01*
X175260000Y-84632800D02*
X175260000Y-85733700D01*
%TO.N,FluoroGain3*%
X171450000Y-76980000D02*
X171450000Y-79451200D01*
X169115001Y-74645001D02*
X171450000Y-76980000D01*
%TO.N,FluoroGain2*%
X172720000Y-75710000D02*
X172720000Y-79451200D01*
X171655001Y-74645001D02*
X172720000Y-75710000D01*
%TO.N,Net-(D3-Pad2)*%
X170434000Y-98806000D02*
X173006000Y-98806000D01*
%TD*%
D29*
%TO.N,+15V*%
X177174678Y-98393825D02*
X177006252Y-98656114D01*
X176892232Y-98946222D01*
X176837000Y-99253000D01*
X176837000Y-100203000D01*
X178295000Y-100203000D01*
X178295000Y-100183000D01*
X178549000Y-100183000D01*
X178549000Y-100203000D01*
X178569000Y-100203000D01*
X178569000Y-100457000D01*
X178549000Y-100457000D01*
X178549000Y-102700584D01*
X178794588Y-102820586D01*
X178911221Y-102792949D01*
X179196983Y-102668436D01*
X179452962Y-102490566D01*
X179669322Y-102266175D01*
X179705000Y-102210614D01*
X179705000Y-102530605D01*
X172949121Y-105283000D01*
X171452371Y-105283000D01*
X171494502Y-105204180D01*
X171530812Y-105084482D01*
X171543072Y-104960000D01*
X171540000Y-104658250D01*
X171381250Y-104499500D01*
X170307000Y-104499500D01*
X170307000Y-104519500D01*
X170053000Y-104519500D01*
X170053000Y-104499500D01*
X168978750Y-104499500D01*
X168820000Y-104658250D01*
X168816928Y-104960000D01*
X168829188Y-105084482D01*
X168865498Y-105204180D01*
X168907629Y-105283000D01*
X168148000Y-105283000D01*
X168123224Y-105285440D01*
X168099399Y-105292667D01*
X168082659Y-105301098D01*
X165572822Y-106807000D01*
X165307447Y-106807000D01*
X165350537Y-106754494D01*
X165409502Y-106644180D01*
X165445812Y-106524482D01*
X165458072Y-106400000D01*
X165455000Y-105695750D01*
X165296250Y-105537000D01*
X163957000Y-105537000D01*
X163957000Y-105557000D01*
X163703000Y-105557000D01*
X163703000Y-105537000D01*
X163683000Y-105537000D01*
X163683000Y-105283000D01*
X163703000Y-105283000D01*
X163703000Y-105263000D01*
X163957000Y-105263000D01*
X163957000Y-105283000D01*
X165296250Y-105283000D01*
X165455000Y-105124250D01*
X165458072Y-104420000D01*
X165445812Y-104295518D01*
X165409502Y-104175820D01*
X165350537Y-104065506D01*
X165271185Y-103968815D01*
X165174494Y-103889463D01*
X165064180Y-103830498D01*
X164944482Y-103794188D01*
X164851192Y-103785000D01*
X168816928Y-103785000D01*
X168820000Y-104086750D01*
X168978750Y-104245500D01*
X170053000Y-104245500D01*
X170053000Y-103308750D01*
X170307000Y-103308750D01*
X170307000Y-104245500D01*
X171381250Y-104245500D01*
X171540000Y-104086750D01*
X171543072Y-103785000D01*
X171530812Y-103660518D01*
X171494502Y-103540820D01*
X171435537Y-103430506D01*
X171356185Y-103333815D01*
X171259494Y-103254463D01*
X171149180Y-103195498D01*
X171029482Y-103159188D01*
X170905000Y-103146928D01*
X170465750Y-103150000D01*
X170307000Y-103308750D01*
X170053000Y-103308750D01*
X169894250Y-103150000D01*
X169455000Y-103146928D01*
X169330518Y-103159188D01*
X169210820Y-103195498D01*
X169100506Y-103254463D01*
X169003815Y-103333815D01*
X168924463Y-103430506D01*
X168865498Y-103540820D01*
X168829188Y-103660518D01*
X168816928Y-103785000D01*
X164851192Y-103785000D01*
X164820000Y-103781928D01*
X164250647Y-103784412D01*
X165387054Y-103397000D01*
X165455939Y-103397000D01*
X165655898Y-103357226D01*
X165844256Y-103279205D01*
X165960581Y-103201479D01*
X167797716Y-102575184D01*
X167846102Y-102595226D01*
X168046061Y-102635000D01*
X168249939Y-102635000D01*
X168449898Y-102595226D01*
X168638256Y-102517205D01*
X168807774Y-102403937D01*
X168951937Y-102259774D01*
X169019493Y-102158668D01*
X174011053Y-100457000D01*
X176837000Y-100457000D01*
X176837000Y-101407000D01*
X176892232Y-101713778D01*
X177006252Y-102003886D01*
X177174678Y-102266175D01*
X177391038Y-102490566D01*
X177647017Y-102668436D01*
X177932779Y-102792949D01*
X178049412Y-102820586D01*
X178295000Y-102700584D01*
X178295000Y-100457000D01*
X176837000Y-100457000D01*
X174011053Y-100457000D01*
X174030980Y-100450207D01*
X174053643Y-100439902D01*
X174073861Y-100425374D01*
X174090857Y-100407181D01*
X174103976Y-100386022D01*
X174112715Y-100362710D01*
X174117000Y-100330000D01*
X174117000Y-100071545D01*
X174161820Y-100095502D01*
X174281518Y-100131812D01*
X174406000Y-100144072D01*
X174720250Y-100141000D01*
X174879000Y-99982250D01*
X174879000Y-98933000D01*
X175133000Y-98933000D01*
X175133000Y-99982250D01*
X175291750Y-100141000D01*
X175606000Y-100144072D01*
X175730482Y-100131812D01*
X175850180Y-100095502D01*
X175960494Y-100036537D01*
X176057185Y-99957185D01*
X176136537Y-99860494D01*
X176195502Y-99750180D01*
X176231812Y-99630482D01*
X176244072Y-99506000D01*
X176241000Y-99091750D01*
X176082250Y-98933000D01*
X175133000Y-98933000D01*
X174879000Y-98933000D01*
X174859000Y-98933000D01*
X174859000Y-98679000D01*
X174879000Y-98679000D01*
X174879000Y-98659000D01*
X175133000Y-98659000D01*
X175133000Y-98679000D01*
X176082250Y-98679000D01*
X176241000Y-98520250D01*
X176243590Y-98171000D01*
X177389528Y-98171000D01*
X177174678Y-98393825D01*
%TA.AperFunction,Conductor*%
D30*
G36*
X177174678Y-98393825D02*
G01*
X177006252Y-98656114D01*
X176892232Y-98946222D01*
X176837000Y-99253000D01*
X176837000Y-100203000D01*
X178295000Y-100203000D01*
X178295000Y-100183000D01*
X178549000Y-100183000D01*
X178549000Y-100203000D01*
X178569000Y-100203000D01*
X178569000Y-100457000D01*
X178549000Y-100457000D01*
X178549000Y-102700584D01*
X178794588Y-102820586D01*
X178911221Y-102792949D01*
X179196983Y-102668436D01*
X179452962Y-102490566D01*
X179669322Y-102266175D01*
X179705000Y-102210614D01*
X179705000Y-102530605D01*
X172949121Y-105283000D01*
X171452371Y-105283000D01*
X171494502Y-105204180D01*
X171530812Y-105084482D01*
X171543072Y-104960000D01*
X171540000Y-104658250D01*
X171381250Y-104499500D01*
X170307000Y-104499500D01*
X170307000Y-104519500D01*
X170053000Y-104519500D01*
X170053000Y-104499500D01*
X168978750Y-104499500D01*
X168820000Y-104658250D01*
X168816928Y-104960000D01*
X168829188Y-105084482D01*
X168865498Y-105204180D01*
X168907629Y-105283000D01*
X168148000Y-105283000D01*
X168123224Y-105285440D01*
X168099399Y-105292667D01*
X168082659Y-105301098D01*
X165572822Y-106807000D01*
X165307447Y-106807000D01*
X165350537Y-106754494D01*
X165409502Y-106644180D01*
X165445812Y-106524482D01*
X165458072Y-106400000D01*
X165455000Y-105695750D01*
X165296250Y-105537000D01*
X163957000Y-105537000D01*
X163957000Y-105557000D01*
X163703000Y-105557000D01*
X163703000Y-105537000D01*
X163683000Y-105537000D01*
X163683000Y-105283000D01*
X163703000Y-105283000D01*
X163703000Y-105263000D01*
X163957000Y-105263000D01*
X163957000Y-105283000D01*
X165296250Y-105283000D01*
X165455000Y-105124250D01*
X165458072Y-104420000D01*
X165445812Y-104295518D01*
X165409502Y-104175820D01*
X165350537Y-104065506D01*
X165271185Y-103968815D01*
X165174494Y-103889463D01*
X165064180Y-103830498D01*
X164944482Y-103794188D01*
X164851192Y-103785000D01*
X168816928Y-103785000D01*
X168820000Y-104086750D01*
X168978750Y-104245500D01*
X170053000Y-104245500D01*
X170053000Y-103308750D01*
X170307000Y-103308750D01*
X170307000Y-104245500D01*
X171381250Y-104245500D01*
X171540000Y-104086750D01*
X171543072Y-103785000D01*
X171530812Y-103660518D01*
X171494502Y-103540820D01*
X171435537Y-103430506D01*
X171356185Y-103333815D01*
X171259494Y-103254463D01*
X171149180Y-103195498D01*
X171029482Y-103159188D01*
X170905000Y-103146928D01*
X170465750Y-103150000D01*
X170307000Y-103308750D01*
X170053000Y-103308750D01*
X169894250Y-103150000D01*
X169455000Y-103146928D01*
X169330518Y-103159188D01*
X169210820Y-103195498D01*
X169100506Y-103254463D01*
X169003815Y-103333815D01*
X168924463Y-103430506D01*
X168865498Y-103540820D01*
X168829188Y-103660518D01*
X168816928Y-103785000D01*
X164851192Y-103785000D01*
X164820000Y-103781928D01*
X164250647Y-103784412D01*
X165387054Y-103397000D01*
X165455939Y-103397000D01*
X165655898Y-103357226D01*
X165844256Y-103279205D01*
X165960581Y-103201479D01*
X167797716Y-102575184D01*
X167846102Y-102595226D01*
X168046061Y-102635000D01*
X168249939Y-102635000D01*
X168449898Y-102595226D01*
X168638256Y-102517205D01*
X168807774Y-102403937D01*
X168951937Y-102259774D01*
X169019493Y-102158668D01*
X174011053Y-100457000D01*
X176837000Y-100457000D01*
X176837000Y-101407000D01*
X176892232Y-101713778D01*
X177006252Y-102003886D01*
X177174678Y-102266175D01*
X177391038Y-102490566D01*
X177647017Y-102668436D01*
X177932779Y-102792949D01*
X178049412Y-102820586D01*
X178295000Y-102700584D01*
X178295000Y-100457000D01*
X176837000Y-100457000D01*
X174011053Y-100457000D01*
X174030980Y-100450207D01*
X174053643Y-100439902D01*
X174073861Y-100425374D01*
X174090857Y-100407181D01*
X174103976Y-100386022D01*
X174112715Y-100362710D01*
X174117000Y-100330000D01*
X174117000Y-100071545D01*
X174161820Y-100095502D01*
X174281518Y-100131812D01*
X174406000Y-100144072D01*
X174720250Y-100141000D01*
X174879000Y-99982250D01*
X174879000Y-98933000D01*
X175133000Y-98933000D01*
X175133000Y-99982250D01*
X175291750Y-100141000D01*
X175606000Y-100144072D01*
X175730482Y-100131812D01*
X175850180Y-100095502D01*
X175960494Y-100036537D01*
X176057185Y-99957185D01*
X176136537Y-99860494D01*
X176195502Y-99750180D01*
X176231812Y-99630482D01*
X176244072Y-99506000D01*
X176241000Y-99091750D01*
X176082250Y-98933000D01*
X175133000Y-98933000D01*
X174879000Y-98933000D01*
X174859000Y-98933000D01*
X174859000Y-98679000D01*
X174879000Y-98679000D01*
X174879000Y-98659000D01*
X175133000Y-98659000D01*
X175133000Y-98679000D01*
X176082250Y-98679000D01*
X176241000Y-98520250D01*
X176243590Y-98171000D01*
X177389528Y-98171000D01*
X177174678Y-98393825D01*
G37*
%TD.AperFunction*%
%TD*%
D29*
%TO.N,GNDA*%
X185780364Y-75559760D02*
X185980242Y-75759638D01*
X186215274Y-75916681D01*
X186476427Y-76024854D01*
X186753666Y-76080001D01*
X187036336Y-76080001D01*
X187313575Y-76024854D01*
X187574728Y-75916681D01*
X187809760Y-75759638D01*
X188008358Y-75561040D01*
X188009189Y-75569483D01*
X188045499Y-75689181D01*
X188104464Y-75799495D01*
X188183816Y-75896186D01*
X188280507Y-75975538D01*
X188390821Y-76034503D01*
X188510519Y-76070813D01*
X188635001Y-76083073D01*
X189357000Y-76083073D01*
X189357000Y-88450001D01*
X189293666Y-88450001D01*
X189016427Y-88505148D01*
X188755274Y-88613321D01*
X188520242Y-88770364D01*
X188320364Y-88970242D01*
X188164086Y-89204129D01*
X188131672Y-89143487D01*
X187887703Y-89071904D01*
X187170607Y-89789000D01*
X186619395Y-89789000D01*
X185902299Y-89071904D01*
X185658330Y-89143487D01*
X185627807Y-89207993D01*
X185626681Y-89205274D01*
X185469638Y-88970242D01*
X185391695Y-88892299D01*
X186081904Y-88892299D01*
X186895001Y-89705396D01*
X187708098Y-88892299D01*
X187636515Y-88648330D01*
X187381005Y-88527430D01*
X187106817Y-88458701D01*
X186824489Y-88444784D01*
X186544871Y-88486214D01*
X186278709Y-88581398D01*
X186153487Y-88648330D01*
X186081904Y-88892299D01*
X185391695Y-88892299D01*
X185269760Y-88770364D01*
X185034728Y-88613321D01*
X184773575Y-88505148D01*
X184496336Y-88450001D01*
X184242291Y-88450001D01*
X182793630Y-87001341D01*
X182764344Y-86965656D01*
X182621972Y-86848814D01*
X182459540Y-86761993D01*
X182283292Y-86708529D01*
X182145932Y-86695000D01*
X182100000Y-86690476D01*
X182054068Y-86695000D01*
X181184489Y-86695000D01*
X178704772Y-84215283D01*
X178704772Y-83781900D01*
X178692512Y-83657418D01*
X178656202Y-83537720D01*
X178597237Y-83427406D01*
X178517885Y-83330715D01*
X178421194Y-83251363D01*
X178310880Y-83192398D01*
X178191182Y-83156088D01*
X178066700Y-83143828D01*
X177533300Y-83143828D01*
X177408818Y-83156088D01*
X177289120Y-83192398D01*
X177178806Y-83251363D01*
X177165000Y-83262693D01*
X177151194Y-83251363D01*
X177040880Y-83192398D01*
X176921182Y-83156088D01*
X176796700Y-83143828D01*
X176263300Y-83143828D01*
X176138818Y-83156088D01*
X176019120Y-83192398D01*
X175908806Y-83251363D01*
X175895000Y-83262693D01*
X175881194Y-83251363D01*
X175868711Y-83244691D01*
X177456644Y-81656758D01*
X181427000Y-81656758D01*
X181427000Y-82343242D01*
X181560927Y-83016537D01*
X181823633Y-83650766D01*
X182205024Y-84221558D01*
X182690442Y-84706976D01*
X183261234Y-85088367D01*
X183895463Y-85351073D01*
X184568758Y-85485000D01*
X185255242Y-85485000D01*
X185928537Y-85351073D01*
X186562766Y-85088367D01*
X187133558Y-84706976D01*
X187618976Y-84221558D01*
X188000367Y-83650766D01*
X188263073Y-83016537D01*
X188397000Y-82343242D01*
X188397000Y-81656758D01*
X188263073Y-80983463D01*
X188000367Y-80349234D01*
X187618976Y-79778442D01*
X187133558Y-79293024D01*
X186562766Y-78911633D01*
X185928537Y-78648927D01*
X185255242Y-78515000D01*
X184568758Y-78515000D01*
X183895463Y-78648927D01*
X183261234Y-78911633D01*
X182690442Y-79293024D01*
X182205024Y-79778442D01*
X181823633Y-80349234D01*
X181560927Y-80983463D01*
X181427000Y-81656758D01*
X177456644Y-81656758D01*
X178184868Y-80928534D01*
X178191182Y-80927912D01*
X178310880Y-80891602D01*
X178421194Y-80832637D01*
X178517885Y-80753285D01*
X178597237Y-80656594D01*
X178656202Y-80546280D01*
X178692512Y-80426582D01*
X178704772Y-80302100D01*
X178704772Y-78600300D01*
X178692512Y-78475818D01*
X178656202Y-78356120D01*
X178597237Y-78245806D01*
X178542131Y-78178659D01*
X178505546Y-78058053D01*
X178434974Y-77926024D01*
X178340001Y-77810299D01*
X178311003Y-77786501D01*
X176975504Y-76451003D01*
X176951701Y-76421999D01*
X176835976Y-76327026D01*
X176703947Y-76256454D01*
X176560686Y-76212997D01*
X176449033Y-76202000D01*
X176449022Y-76202000D01*
X176411700Y-76198324D01*
X176374378Y-76202000D01*
X174281325Y-76202000D01*
X174244000Y-76198324D01*
X174206675Y-76202000D01*
X174206667Y-76202000D01*
X174095014Y-76212997D01*
X173951753Y-76256454D01*
X173819724Y-76327026D01*
X173703999Y-76421999D01*
X173680201Y-76450998D01*
X173480000Y-76651198D01*
X173480000Y-75893112D01*
X173515274Y-75916681D01*
X173776427Y-76024854D01*
X174053666Y-76080001D01*
X174336336Y-76080001D01*
X174613575Y-76024854D01*
X174874728Y-75916681D01*
X175109760Y-75759638D01*
X175309638Y-75559760D01*
X175465001Y-75327242D01*
X175620364Y-75559760D01*
X175820242Y-75759638D01*
X176055274Y-75916681D01*
X176316427Y-76024854D01*
X176593666Y-76080001D01*
X176876336Y-76080001D01*
X177153575Y-76024854D01*
X177414728Y-75916681D01*
X177649760Y-75759638D01*
X177849638Y-75559760D01*
X178005001Y-75327242D01*
X178160364Y-75559760D01*
X178360242Y-75759638D01*
X178595274Y-75916681D01*
X178856427Y-76024854D01*
X179133666Y-76080001D01*
X179416336Y-76080001D01*
X179693575Y-76024854D01*
X179954728Y-75916681D01*
X180189760Y-75759638D01*
X180389638Y-75559760D01*
X180545001Y-75327242D01*
X180700364Y-75559760D01*
X180900242Y-75759638D01*
X181135274Y-75916681D01*
X181396427Y-76024854D01*
X181673666Y-76080001D01*
X181956336Y-76080001D01*
X182233575Y-76024854D01*
X182494728Y-75916681D01*
X182729760Y-75759638D01*
X182929638Y-75559760D01*
X183085001Y-75327242D01*
X183240364Y-75559760D01*
X183440242Y-75759638D01*
X183675274Y-75916681D01*
X183936427Y-76024854D01*
X184213666Y-76080001D01*
X184496336Y-76080001D01*
X184773575Y-76024854D01*
X185034728Y-75916681D01*
X185269760Y-75759638D01*
X185469638Y-75559760D01*
X185625001Y-75327242D01*
X185780364Y-75559760D01*
%TA.AperFunction,Conductor*%
D30*
G36*
X185780364Y-75559760D02*
G01*
X185980242Y-75759638D01*
X186215274Y-75916681D01*
X186476427Y-76024854D01*
X186753666Y-76080001D01*
X187036336Y-76080001D01*
X187313575Y-76024854D01*
X187574728Y-75916681D01*
X187809760Y-75759638D01*
X188008358Y-75561040D01*
X188009189Y-75569483D01*
X188045499Y-75689181D01*
X188104464Y-75799495D01*
X188183816Y-75896186D01*
X188280507Y-75975538D01*
X188390821Y-76034503D01*
X188510519Y-76070813D01*
X188635001Y-76083073D01*
X189357000Y-76083073D01*
X189357000Y-88450001D01*
X189293666Y-88450001D01*
X189016427Y-88505148D01*
X188755274Y-88613321D01*
X188520242Y-88770364D01*
X188320364Y-88970242D01*
X188164086Y-89204129D01*
X188131672Y-89143487D01*
X187887703Y-89071904D01*
X187170607Y-89789000D01*
X186619395Y-89789000D01*
X185902299Y-89071904D01*
X185658330Y-89143487D01*
X185627807Y-89207993D01*
X185626681Y-89205274D01*
X185469638Y-88970242D01*
X185391695Y-88892299D01*
X186081904Y-88892299D01*
X186895001Y-89705396D01*
X187708098Y-88892299D01*
X187636515Y-88648330D01*
X187381005Y-88527430D01*
X187106817Y-88458701D01*
X186824489Y-88444784D01*
X186544871Y-88486214D01*
X186278709Y-88581398D01*
X186153487Y-88648330D01*
X186081904Y-88892299D01*
X185391695Y-88892299D01*
X185269760Y-88770364D01*
X185034728Y-88613321D01*
X184773575Y-88505148D01*
X184496336Y-88450001D01*
X184242291Y-88450001D01*
X182793630Y-87001341D01*
X182764344Y-86965656D01*
X182621972Y-86848814D01*
X182459540Y-86761993D01*
X182283292Y-86708529D01*
X182145932Y-86695000D01*
X182100000Y-86690476D01*
X182054068Y-86695000D01*
X181184489Y-86695000D01*
X178704772Y-84215283D01*
X178704772Y-83781900D01*
X178692512Y-83657418D01*
X178656202Y-83537720D01*
X178597237Y-83427406D01*
X178517885Y-83330715D01*
X178421194Y-83251363D01*
X178310880Y-83192398D01*
X178191182Y-83156088D01*
X178066700Y-83143828D01*
X177533300Y-83143828D01*
X177408818Y-83156088D01*
X177289120Y-83192398D01*
X177178806Y-83251363D01*
X177165000Y-83262693D01*
X177151194Y-83251363D01*
X177040880Y-83192398D01*
X176921182Y-83156088D01*
X176796700Y-83143828D01*
X176263300Y-83143828D01*
X176138818Y-83156088D01*
X176019120Y-83192398D01*
X175908806Y-83251363D01*
X175895000Y-83262693D01*
X175881194Y-83251363D01*
X175868711Y-83244691D01*
X177456644Y-81656758D01*
X181427000Y-81656758D01*
X181427000Y-82343242D01*
X181560927Y-83016537D01*
X181823633Y-83650766D01*
X182205024Y-84221558D01*
X182690442Y-84706976D01*
X183261234Y-85088367D01*
X183895463Y-85351073D01*
X184568758Y-85485000D01*
X185255242Y-85485000D01*
X185928537Y-85351073D01*
X186562766Y-85088367D01*
X187133558Y-84706976D01*
X187618976Y-84221558D01*
X188000367Y-83650766D01*
X188263073Y-83016537D01*
X188397000Y-82343242D01*
X188397000Y-81656758D01*
X188263073Y-80983463D01*
X188000367Y-80349234D01*
X187618976Y-79778442D01*
X187133558Y-79293024D01*
X186562766Y-78911633D01*
X185928537Y-78648927D01*
X185255242Y-78515000D01*
X184568758Y-78515000D01*
X183895463Y-78648927D01*
X183261234Y-78911633D01*
X182690442Y-79293024D01*
X182205024Y-79778442D01*
X181823633Y-80349234D01*
X181560927Y-80983463D01*
X181427000Y-81656758D01*
X177456644Y-81656758D01*
X178184868Y-80928534D01*
X178191182Y-80927912D01*
X178310880Y-80891602D01*
X178421194Y-80832637D01*
X178517885Y-80753285D01*
X178597237Y-80656594D01*
X178656202Y-80546280D01*
X178692512Y-80426582D01*
X178704772Y-80302100D01*
X178704772Y-78600300D01*
X178692512Y-78475818D01*
X178656202Y-78356120D01*
X178597237Y-78245806D01*
X178542131Y-78178659D01*
X178505546Y-78058053D01*
X178434974Y-77926024D01*
X178340001Y-77810299D01*
X178311003Y-77786501D01*
X176975504Y-76451003D01*
X176951701Y-76421999D01*
X176835976Y-76327026D01*
X176703947Y-76256454D01*
X176560686Y-76212997D01*
X176449033Y-76202000D01*
X176449022Y-76202000D01*
X176411700Y-76198324D01*
X176374378Y-76202000D01*
X174281325Y-76202000D01*
X174244000Y-76198324D01*
X174206675Y-76202000D01*
X174206667Y-76202000D01*
X174095014Y-76212997D01*
X173951753Y-76256454D01*
X173819724Y-76327026D01*
X173703999Y-76421999D01*
X173680201Y-76450998D01*
X173480000Y-76651198D01*
X173480000Y-75893112D01*
X173515274Y-75916681D01*
X173776427Y-76024854D01*
X174053666Y-76080001D01*
X174336336Y-76080001D01*
X174613575Y-76024854D01*
X174874728Y-75916681D01*
X175109760Y-75759638D01*
X175309638Y-75559760D01*
X175465001Y-75327242D01*
X175620364Y-75559760D01*
X175820242Y-75759638D01*
X176055274Y-75916681D01*
X176316427Y-76024854D01*
X176593666Y-76080001D01*
X176876336Y-76080001D01*
X177153575Y-76024854D01*
X177414728Y-75916681D01*
X177649760Y-75759638D01*
X177849638Y-75559760D01*
X178005001Y-75327242D01*
X178160364Y-75559760D01*
X178360242Y-75759638D01*
X178595274Y-75916681D01*
X178856427Y-76024854D01*
X179133666Y-76080001D01*
X179416336Y-76080001D01*
X179693575Y-76024854D01*
X179954728Y-75916681D01*
X180189760Y-75759638D01*
X180389638Y-75559760D01*
X180545001Y-75327242D01*
X180700364Y-75559760D01*
X180900242Y-75759638D01*
X181135274Y-75916681D01*
X181396427Y-76024854D01*
X181673666Y-76080001D01*
X181956336Y-76080001D01*
X182233575Y-76024854D01*
X182494728Y-75916681D01*
X182729760Y-75759638D01*
X182929638Y-75559760D01*
X183085001Y-75327242D01*
X183240364Y-75559760D01*
X183440242Y-75759638D01*
X183675274Y-75916681D01*
X183936427Y-76024854D01*
X184213666Y-76080001D01*
X184496336Y-76080001D01*
X184773575Y-76024854D01*
X185034728Y-75916681D01*
X185269760Y-75759638D01*
X185469638Y-75559760D01*
X185625001Y-75327242D01*
X185780364Y-75559760D01*
G37*
%TD.AperFunction*%
D29*
X137520364Y-75559760D02*
X137720242Y-75759638D01*
X137875001Y-75863045D01*
X137875002Y-79564468D01*
X137603558Y-79293024D01*
X137032766Y-78911633D01*
X136398537Y-78648927D01*
X135725242Y-78515000D01*
X135038758Y-78515000D01*
X134365463Y-78648927D01*
X133731234Y-78911633D01*
X133160442Y-79293024D01*
X132675024Y-79778442D01*
X132293633Y-80349234D01*
X132030927Y-80983463D01*
X131897000Y-81656758D01*
X131897000Y-82343242D01*
X132030927Y-83016537D01*
X132293633Y-83650766D01*
X132675024Y-84221558D01*
X133160442Y-84706976D01*
X133731234Y-85088367D01*
X134365463Y-85351073D01*
X135038758Y-85485000D01*
X135725242Y-85485000D01*
X136398537Y-85351073D01*
X137032766Y-85088367D01*
X137603558Y-84706976D01*
X138088976Y-84221558D01*
X138470367Y-83650766D01*
X138720966Y-83045767D01*
X144213418Y-88538220D01*
X144133575Y-88505148D01*
X143856336Y-88450001D01*
X143573666Y-88450001D01*
X143296427Y-88505148D01*
X143035274Y-88613321D01*
X142800242Y-88770364D01*
X142600364Y-88970242D01*
X142445001Y-89202760D01*
X142289638Y-88970242D01*
X142089760Y-88770364D01*
X141854728Y-88613321D01*
X141593575Y-88505148D01*
X141316336Y-88450001D01*
X141033666Y-88450001D01*
X140756427Y-88505148D01*
X140495274Y-88613321D01*
X140260242Y-88770364D01*
X140060364Y-88970242D01*
X139905001Y-89202760D01*
X139749638Y-88970242D01*
X139549760Y-88770364D01*
X139314728Y-88613321D01*
X139053575Y-88505148D01*
X138776336Y-88450001D01*
X138493666Y-88450001D01*
X138216427Y-88505148D01*
X137955274Y-88613321D01*
X137720242Y-88770364D01*
X137520364Y-88970242D01*
X137365001Y-89202760D01*
X137209638Y-88970242D01*
X137009760Y-88770364D01*
X136774728Y-88613321D01*
X136513575Y-88505148D01*
X136236336Y-88450001D01*
X135953666Y-88450001D01*
X135676427Y-88505148D01*
X135415274Y-88613321D01*
X135180242Y-88770364D01*
X134980364Y-88970242D01*
X134825001Y-89202760D01*
X134669638Y-88970242D01*
X134469760Y-88770364D01*
X134234728Y-88613321D01*
X133973575Y-88505148D01*
X133696336Y-88450001D01*
X133413666Y-88450001D01*
X133136427Y-88505148D01*
X132875274Y-88613321D01*
X132640242Y-88770364D01*
X132440364Y-88970242D01*
X132285001Y-89202760D01*
X132129638Y-88970242D01*
X131929760Y-88770364D01*
X131694728Y-88613321D01*
X131433575Y-88505148D01*
X131191000Y-88456896D01*
X131191000Y-76073106D01*
X131433575Y-76024854D01*
X131694728Y-75916681D01*
X131929760Y-75759638D01*
X132129638Y-75559760D01*
X132285001Y-75327242D01*
X132440364Y-75559760D01*
X132640242Y-75759638D01*
X132875274Y-75916681D01*
X133136427Y-76024854D01*
X133413666Y-76080001D01*
X133696336Y-76080001D01*
X133973575Y-76024854D01*
X134234728Y-75916681D01*
X134469760Y-75759638D01*
X134669638Y-75559760D01*
X134825001Y-75327242D01*
X134980364Y-75559760D01*
X135180242Y-75759638D01*
X135415274Y-75916681D01*
X135676427Y-76024854D01*
X135953666Y-76080001D01*
X136236336Y-76080001D01*
X136513575Y-76024854D01*
X136774728Y-75916681D01*
X137009760Y-75759638D01*
X137209638Y-75559760D01*
X137365001Y-75327242D01*
X137520364Y-75559760D01*
%TA.AperFunction,Conductor*%
D30*
G36*
X137520364Y-75559760D02*
G01*
X137720242Y-75759638D01*
X137875001Y-75863045D01*
X137875002Y-79564468D01*
X137603558Y-79293024D01*
X137032766Y-78911633D01*
X136398537Y-78648927D01*
X135725242Y-78515000D01*
X135038758Y-78515000D01*
X134365463Y-78648927D01*
X133731234Y-78911633D01*
X133160442Y-79293024D01*
X132675024Y-79778442D01*
X132293633Y-80349234D01*
X132030927Y-80983463D01*
X131897000Y-81656758D01*
X131897000Y-82343242D01*
X132030927Y-83016537D01*
X132293633Y-83650766D01*
X132675024Y-84221558D01*
X133160442Y-84706976D01*
X133731234Y-85088367D01*
X134365463Y-85351073D01*
X135038758Y-85485000D01*
X135725242Y-85485000D01*
X136398537Y-85351073D01*
X137032766Y-85088367D01*
X137603558Y-84706976D01*
X138088976Y-84221558D01*
X138470367Y-83650766D01*
X138720966Y-83045767D01*
X144213418Y-88538220D01*
X144133575Y-88505148D01*
X143856336Y-88450001D01*
X143573666Y-88450001D01*
X143296427Y-88505148D01*
X143035274Y-88613321D01*
X142800242Y-88770364D01*
X142600364Y-88970242D01*
X142445001Y-89202760D01*
X142289638Y-88970242D01*
X142089760Y-88770364D01*
X141854728Y-88613321D01*
X141593575Y-88505148D01*
X141316336Y-88450001D01*
X141033666Y-88450001D01*
X140756427Y-88505148D01*
X140495274Y-88613321D01*
X140260242Y-88770364D01*
X140060364Y-88970242D01*
X139905001Y-89202760D01*
X139749638Y-88970242D01*
X139549760Y-88770364D01*
X139314728Y-88613321D01*
X139053575Y-88505148D01*
X138776336Y-88450001D01*
X138493666Y-88450001D01*
X138216427Y-88505148D01*
X137955274Y-88613321D01*
X137720242Y-88770364D01*
X137520364Y-88970242D01*
X137365001Y-89202760D01*
X137209638Y-88970242D01*
X137009760Y-88770364D01*
X136774728Y-88613321D01*
X136513575Y-88505148D01*
X136236336Y-88450001D01*
X135953666Y-88450001D01*
X135676427Y-88505148D01*
X135415274Y-88613321D01*
X135180242Y-88770364D01*
X134980364Y-88970242D01*
X134825001Y-89202760D01*
X134669638Y-88970242D01*
X134469760Y-88770364D01*
X134234728Y-88613321D01*
X133973575Y-88505148D01*
X133696336Y-88450001D01*
X133413666Y-88450001D01*
X133136427Y-88505148D01*
X132875274Y-88613321D01*
X132640242Y-88770364D01*
X132440364Y-88970242D01*
X132285001Y-89202760D01*
X132129638Y-88970242D01*
X131929760Y-88770364D01*
X131694728Y-88613321D01*
X131433575Y-88505148D01*
X131191000Y-88456896D01*
X131191000Y-76073106D01*
X131433575Y-76024854D01*
X131694728Y-75916681D01*
X131929760Y-75759638D01*
X132129638Y-75559760D01*
X132285001Y-75327242D01*
X132440364Y-75559760D01*
X132640242Y-75759638D01*
X132875274Y-75916681D01*
X133136427Y-76024854D01*
X133413666Y-76080001D01*
X133696336Y-76080001D01*
X133973575Y-76024854D01*
X134234728Y-75916681D01*
X134469760Y-75759638D01*
X134669638Y-75559760D01*
X134825001Y-75327242D01*
X134980364Y-75559760D01*
X135180242Y-75759638D01*
X135415274Y-75916681D01*
X135676427Y-76024854D01*
X135953666Y-76080001D01*
X136236336Y-76080001D01*
X136513575Y-76024854D01*
X136774728Y-75916681D01*
X137009760Y-75759638D01*
X137209638Y-75559760D01*
X137365001Y-75327242D01*
X137520364Y-75559760D01*
G37*
%TD.AperFunction*%
D29*
X174625026Y-86157976D02*
X174693979Y-86241994D01*
X174720000Y-86273701D01*
X174748998Y-86297499D01*
X176907748Y-88456249D01*
X176876336Y-88450001D01*
X176593666Y-88450001D01*
X176316427Y-88505148D01*
X176055274Y-88613321D01*
X175820242Y-88770364D01*
X175620364Y-88970242D01*
X175465001Y-89202760D01*
X175309638Y-88970242D01*
X175109760Y-88770364D01*
X174874728Y-88613321D01*
X174613575Y-88505148D01*
X174336336Y-88450001D01*
X174053666Y-88450001D01*
X173776427Y-88505148D01*
X173515274Y-88613321D01*
X173280242Y-88770364D01*
X173080364Y-88970242D01*
X172925001Y-89202760D01*
X172769638Y-88970242D01*
X172569760Y-88770364D01*
X172334728Y-88613321D01*
X172073575Y-88505148D01*
X171796336Y-88450001D01*
X171513666Y-88450001D01*
X171236427Y-88505148D01*
X170975274Y-88613321D01*
X170740242Y-88770364D01*
X170540364Y-88970242D01*
X170385001Y-89202760D01*
X170229638Y-88970242D01*
X170029760Y-88770364D01*
X169794728Y-88613321D01*
X169533575Y-88505148D01*
X169256336Y-88450001D01*
X168973666Y-88450001D01*
X168696427Y-88505148D01*
X168435274Y-88613321D01*
X168200242Y-88770364D01*
X168000364Y-88970242D01*
X167845001Y-89202760D01*
X167689638Y-88970242D01*
X167489760Y-88770364D01*
X167254728Y-88613321D01*
X166993575Y-88505148D01*
X166716336Y-88450001D01*
X166433666Y-88450001D01*
X166156427Y-88505148D01*
X165895274Y-88613321D01*
X165660242Y-88770364D01*
X165460364Y-88970242D01*
X165305001Y-89202760D01*
X165149638Y-88970242D01*
X164949760Y-88770364D01*
X164714728Y-88613321D01*
X164453575Y-88505148D01*
X164176336Y-88450001D01*
X163893666Y-88450001D01*
X163616427Y-88505148D01*
X163355274Y-88613321D01*
X163120242Y-88770364D01*
X162920364Y-88970242D01*
X162765001Y-89202760D01*
X162609638Y-88970242D01*
X162409760Y-88770364D01*
X162174728Y-88613321D01*
X161913575Y-88505148D01*
X161636336Y-88450001D01*
X161353666Y-88450001D01*
X161313025Y-88458085D01*
X161443387Y-88388405D01*
X161577962Y-88277962D01*
X161688405Y-88143387D01*
X161770472Y-87989851D01*
X161821008Y-87823255D01*
X161838072Y-87650001D01*
X161838072Y-86949999D01*
X161821008Y-86776745D01*
X161770472Y-86610149D01*
X161688405Y-86456613D01*
X161577962Y-86322038D01*
X161551109Y-86300000D01*
X161577962Y-86277962D01*
X161688405Y-86143387D01*
X161732976Y-86060000D01*
X162055306Y-86060000D01*
X162079528Y-86139851D01*
X162161595Y-86293387D01*
X162272038Y-86427962D01*
X162406613Y-86538405D01*
X162560149Y-86620472D01*
X162726745Y-86671008D01*
X162899999Y-86688072D01*
X163600001Y-86688072D01*
X163773255Y-86671008D01*
X163939851Y-86620472D01*
X164093387Y-86538405D01*
X164227962Y-86427962D01*
X164250000Y-86401109D01*
X164272038Y-86427962D01*
X164406613Y-86538405D01*
X164560149Y-86620472D01*
X164726745Y-86671008D01*
X164899999Y-86688072D01*
X165600001Y-86688072D01*
X165773255Y-86671008D01*
X165939851Y-86620472D01*
X166036707Y-86568701D01*
X172607677Y-86568701D01*
X172644999Y-86572377D01*
X172682321Y-86568701D01*
X172682332Y-86568701D01*
X172793985Y-86557704D01*
X172937246Y-86514247D01*
X173069275Y-86443675D01*
X173185000Y-86348702D01*
X173208801Y-86319701D01*
X173231002Y-86297500D01*
X173260001Y-86273701D01*
X173354974Y-86157976D01*
X173417806Y-86040428D01*
X173479120Y-86073202D01*
X173598818Y-86109512D01*
X173723300Y-86121772D01*
X174256700Y-86121772D01*
X174381182Y-86109512D01*
X174500880Y-86073202D01*
X174562195Y-86040428D01*
X174625026Y-86157976D01*
%TA.AperFunction,Conductor*%
D30*
G36*
X174625026Y-86157976D02*
G01*
X174693979Y-86241994D01*
X174720000Y-86273701D01*
X174748998Y-86297499D01*
X176907748Y-88456249D01*
X176876336Y-88450001D01*
X176593666Y-88450001D01*
X176316427Y-88505148D01*
X176055274Y-88613321D01*
X175820242Y-88770364D01*
X175620364Y-88970242D01*
X175465001Y-89202760D01*
X175309638Y-88970242D01*
X175109760Y-88770364D01*
X174874728Y-88613321D01*
X174613575Y-88505148D01*
X174336336Y-88450001D01*
X174053666Y-88450001D01*
X173776427Y-88505148D01*
X173515274Y-88613321D01*
X173280242Y-88770364D01*
X173080364Y-88970242D01*
X172925001Y-89202760D01*
X172769638Y-88970242D01*
X172569760Y-88770364D01*
X172334728Y-88613321D01*
X172073575Y-88505148D01*
X171796336Y-88450001D01*
X171513666Y-88450001D01*
X171236427Y-88505148D01*
X170975274Y-88613321D01*
X170740242Y-88770364D01*
X170540364Y-88970242D01*
X170385001Y-89202760D01*
X170229638Y-88970242D01*
X170029760Y-88770364D01*
X169794728Y-88613321D01*
X169533575Y-88505148D01*
X169256336Y-88450001D01*
X168973666Y-88450001D01*
X168696427Y-88505148D01*
X168435274Y-88613321D01*
X168200242Y-88770364D01*
X168000364Y-88970242D01*
X167845001Y-89202760D01*
X167689638Y-88970242D01*
X167489760Y-88770364D01*
X167254728Y-88613321D01*
X166993575Y-88505148D01*
X166716336Y-88450001D01*
X166433666Y-88450001D01*
X166156427Y-88505148D01*
X165895274Y-88613321D01*
X165660242Y-88770364D01*
X165460364Y-88970242D01*
X165305001Y-89202760D01*
X165149638Y-88970242D01*
X164949760Y-88770364D01*
X164714728Y-88613321D01*
X164453575Y-88505148D01*
X164176336Y-88450001D01*
X163893666Y-88450001D01*
X163616427Y-88505148D01*
X163355274Y-88613321D01*
X163120242Y-88770364D01*
X162920364Y-88970242D01*
X162765001Y-89202760D01*
X162609638Y-88970242D01*
X162409760Y-88770364D01*
X162174728Y-88613321D01*
X161913575Y-88505148D01*
X161636336Y-88450001D01*
X161353666Y-88450001D01*
X161313025Y-88458085D01*
X161443387Y-88388405D01*
X161577962Y-88277962D01*
X161688405Y-88143387D01*
X161770472Y-87989851D01*
X161821008Y-87823255D01*
X161838072Y-87650001D01*
X161838072Y-86949999D01*
X161821008Y-86776745D01*
X161770472Y-86610149D01*
X161688405Y-86456613D01*
X161577962Y-86322038D01*
X161551109Y-86300000D01*
X161577962Y-86277962D01*
X161688405Y-86143387D01*
X161732976Y-86060000D01*
X162055306Y-86060000D01*
X162079528Y-86139851D01*
X162161595Y-86293387D01*
X162272038Y-86427962D01*
X162406613Y-86538405D01*
X162560149Y-86620472D01*
X162726745Y-86671008D01*
X162899999Y-86688072D01*
X163600001Y-86688072D01*
X163773255Y-86671008D01*
X163939851Y-86620472D01*
X164093387Y-86538405D01*
X164227962Y-86427962D01*
X164250000Y-86401109D01*
X164272038Y-86427962D01*
X164406613Y-86538405D01*
X164560149Y-86620472D01*
X164726745Y-86671008D01*
X164899999Y-86688072D01*
X165600001Y-86688072D01*
X165773255Y-86671008D01*
X165939851Y-86620472D01*
X166036707Y-86568701D01*
X172607677Y-86568701D01*
X172644999Y-86572377D01*
X172682321Y-86568701D01*
X172682332Y-86568701D01*
X172793985Y-86557704D01*
X172937246Y-86514247D01*
X173069275Y-86443675D01*
X173185000Y-86348702D01*
X173208801Y-86319701D01*
X173231002Y-86297500D01*
X173260001Y-86273701D01*
X173354974Y-86157976D01*
X173417806Y-86040428D01*
X173479120Y-86073202D01*
X173598818Y-86109512D01*
X173723300Y-86121772D01*
X174256700Y-86121772D01*
X174381182Y-86109512D01*
X174500880Y-86073202D01*
X174562195Y-86040428D01*
X174625026Y-86157976D01*
G37*
%TD.AperFunction*%
D29*
X155560028Y-76655150D02*
X155509492Y-76821746D01*
X155492428Y-76995000D01*
X155492428Y-77945000D01*
X155509492Y-78118254D01*
X155560028Y-78284850D01*
X155642095Y-78438386D01*
X155752538Y-78572962D01*
X155887114Y-78683405D01*
X155958001Y-78721295D01*
X155958001Y-78835345D01*
X155838820Y-78871498D01*
X155728506Y-78930463D01*
X155631815Y-79009815D01*
X155558496Y-79099155D01*
X155552342Y-79091656D01*
X155409970Y-78974814D01*
X155247538Y-78887993D01*
X155071290Y-78834529D01*
X154933930Y-78821000D01*
X154887998Y-78816476D01*
X154842066Y-78821000D01*
X154132068Y-78821000D01*
X154112493Y-78822928D01*
X153573000Y-78822928D01*
X153448518Y-78835188D01*
X153328820Y-78871498D01*
X153218506Y-78930463D01*
X153121815Y-79009815D01*
X153042463Y-79106506D01*
X152983498Y-79216820D01*
X152947188Y-79336518D01*
X152934928Y-79461000D01*
X152934928Y-80051000D01*
X152947188Y-80175482D01*
X152964029Y-80231000D01*
X152947188Y-80286518D01*
X152937308Y-80386835D01*
X152933653Y-80380788D01*
X152926442Y-80371131D01*
X152920838Y-80360465D01*
X152915913Y-80353085D01*
X152845971Y-80249845D01*
X152838267Y-80240570D01*
X152832116Y-80230205D01*
X152826816Y-80223089D01*
X152751624Y-80123608D01*
X152743454Y-80114749D01*
X152736778Y-80104720D01*
X152731116Y-80097888D01*
X152650877Y-80002431D01*
X152642256Y-79994003D01*
X152635066Y-79984328D01*
X152629058Y-79977798D01*
X152543985Y-79886622D01*
X152534944Y-79878656D01*
X152527264Y-79869367D01*
X152520927Y-79863157D01*
X152431250Y-79776506D01*
X152421805Y-79769015D01*
X152413653Y-79760135D01*
X152407002Y-79754261D01*
X152312960Y-79672368D01*
X152303141Y-79665377D01*
X152294543Y-79656933D01*
X152287598Y-79651412D01*
X152189443Y-79574496D01*
X152179280Y-79568026D01*
X152170256Y-79560037D01*
X152163034Y-79554882D01*
X152061031Y-79483148D01*
X152050541Y-79477209D01*
X152041114Y-79469697D01*
X152033634Y-79464923D01*
X151928055Y-79398565D01*
X151917273Y-79393177D01*
X151907472Y-79386165D01*
X151899756Y-79381784D01*
X151790884Y-79320979D01*
X151779838Y-79316157D01*
X151769687Y-79309661D01*
X151761754Y-79305685D01*
X151649881Y-79250596D01*
X151638596Y-79246351D01*
X151628125Y-79240390D01*
X151619997Y-79236830D01*
X151505423Y-79187605D01*
X151493935Y-79183950D01*
X151483167Y-79178538D01*
X151474865Y-79175404D01*
X151357896Y-79132175D01*
X151346238Y-79129120D01*
X151335202Y-79124272D01*
X151326749Y-79121572D01*
X151207700Y-79084455D01*
X151195903Y-79082008D01*
X151184634Y-79077739D01*
X151176053Y-79075480D01*
X151055243Y-79044572D01*
X151043324Y-79042737D01*
X151031849Y-79039057D01*
X151023163Y-79037245D01*
X150900914Y-79012633D01*
X150888927Y-79011419D01*
X150877276Y-79008337D01*
X150868508Y-79006977D01*
X150745150Y-78988724D01*
X150733115Y-78988132D01*
X150721316Y-78985656D01*
X150712489Y-78984752D01*
X150588351Y-78972908D01*
X150575740Y-78972941D01*
X150563281Y-78971016D01*
X150554418Y-78970585D01*
X150421426Y-78965050D01*
X150412630Y-78965544D01*
X150403873Y-78964562D01*
X150395000Y-78964500D01*
X150370521Y-78964500D01*
X150327719Y-78964426D01*
X150325228Y-78964666D01*
X150322737Y-78964437D01*
X150313864Y-78964553D01*
X150255437Y-78965726D01*
X150251933Y-78966141D01*
X150248415Y-78965906D01*
X150239548Y-78966244D01*
X150181171Y-78968878D01*
X150177675Y-78969381D01*
X150174150Y-78969234D01*
X150165295Y-78969793D01*
X150106999Y-78973887D01*
X150103521Y-78974476D01*
X150100004Y-78974418D01*
X150091165Y-78975199D01*
X150032991Y-78980749D01*
X150029528Y-78981425D01*
X150025996Y-78981455D01*
X150017179Y-78982457D01*
X149959162Y-78989461D01*
X149955724Y-78990222D01*
X149952204Y-78990340D01*
X149943416Y-78991562D01*
X149885592Y-79000014D01*
X149882159Y-79000865D01*
X149878633Y-79001071D01*
X149869878Y-79002512D01*
X149812284Y-79012409D01*
X149808884Y-79013342D01*
X149805375Y-79013636D01*
X149796658Y-79015296D01*
X149739329Y-79026630D01*
X149735952Y-79027648D01*
X149732449Y-79028030D01*
X149723776Y-79029907D01*
X149666749Y-79042671D01*
X149663393Y-79043776D01*
X149659898Y-79044245D01*
X149651275Y-79046339D01*
X149594585Y-79060526D01*
X149591262Y-79061712D01*
X149587775Y-79062270D01*
X149579208Y-79064579D01*
X149522891Y-79080180D01*
X149519603Y-79081448D01*
X149516143Y-79082090D01*
X149507636Y-79084612D01*
X149451725Y-79101616D01*
X149448461Y-79102969D01*
X149445008Y-79103700D01*
X149436566Y-79106434D01*
X149381099Y-79124833D01*
X149377881Y-79126263D01*
X149374449Y-79127079D01*
X149366079Y-79130024D01*
X149311090Y-79149803D01*
X149307899Y-79151317D01*
X149304486Y-79152220D01*
X149296192Y-79155373D01*
X149241715Y-79176522D01*
X149238573Y-79178110D01*
X149235191Y-79179096D01*
X149226979Y-79182456D01*
X149173047Y-79204960D01*
X149169934Y-79206633D01*
X149166574Y-79207704D01*
X149158448Y-79211268D01*
X149105096Y-79235115D01*
X149102035Y-79236860D01*
X149098705Y-79238014D01*
X149090671Y-79241780D01*
X149037932Y-79266953D01*
X149034908Y-79268778D01*
X149031604Y-79270017D01*
X149023667Y-79273983D01*
X148971575Y-79300468D01*
X148968599Y-79302367D01*
X148965328Y-79303688D01*
X148957492Y-79307851D01*
X148906079Y-79335631D01*
X148903155Y-79337602D01*
X148899920Y-79339003D01*
X148892191Y-79343361D01*
X148841489Y-79372418D01*
X148838614Y-79374462D01*
X148835419Y-79375942D01*
X148827801Y-79380492D01*
X148777840Y-79410808D01*
X148775009Y-79412930D01*
X148771844Y-79414493D01*
X148764342Y-79419232D01*
X148715157Y-79450789D01*
X148712389Y-79452974D01*
X148709273Y-79454611D01*
X148701892Y-79459536D01*
X148653511Y-79492313D01*
X148650800Y-79494565D01*
X148647725Y-79496280D01*
X148640469Y-79501388D01*
X148592923Y-79535364D01*
X148590259Y-79537692D01*
X148587220Y-79539488D01*
X148580095Y-79544776D01*
X148533414Y-79579932D01*
X148530818Y-79582317D01*
X148527830Y-79584186D01*
X148520840Y-79589651D01*
X148475053Y-79625963D01*
X148472519Y-79628411D01*
X148469577Y-79630355D01*
X148462725Y-79635993D01*
X148417859Y-79673439D01*
X148414659Y-79676690D01*
X148410932Y-79679306D01*
X148404242Y-79685135D01*
X148349170Y-79733804D01*
X148338065Y-79745741D01*
X148325364Y-79755953D01*
X148295907Y-79791058D01*
X148264691Y-79824613D01*
X148256119Y-79838474D01*
X148245640Y-79850963D01*
X148223559Y-79891129D01*
X148199459Y-79930101D01*
X148193743Y-79945363D01*
X148185889Y-79959650D01*
X148172026Y-80003352D01*
X148155960Y-80046251D01*
X148153318Y-80062327D01*
X148148387Y-80077872D01*
X148143277Y-80123431D01*
X148135848Y-80168637D01*
X148136379Y-80184926D01*
X148134562Y-80201127D01*
X148134500Y-80210000D01*
X148134500Y-80722927D01*
X148090044Y-80600186D01*
X147800429Y-80459296D01*
X147488892Y-80377616D01*
X147167405Y-80358282D01*
X146848325Y-80402039D01*
X146543912Y-80507205D01*
X146369956Y-80600186D01*
X146274192Y-80864587D01*
X147230000Y-81820395D01*
X147244143Y-81806253D01*
X147423748Y-81985858D01*
X147409605Y-82000000D01*
X147423748Y-82014143D01*
X147244143Y-82193748D01*
X147230000Y-82179605D01*
X146274192Y-83135413D01*
X146369956Y-83399814D01*
X146659571Y-83540704D01*
X146971108Y-83622384D01*
X147292595Y-83641718D01*
X147611675Y-83597961D01*
X147916088Y-83492795D01*
X148090044Y-83399814D01*
X148134500Y-83277073D01*
X148134500Y-83790000D01*
X148136091Y-83806223D01*
X148135332Y-83822505D01*
X148142131Y-83867828D01*
X148146603Y-83913436D01*
X148151313Y-83929038D01*
X148153732Y-83945160D01*
X148169209Y-83988310D01*
X148182451Y-84032170D01*
X148190100Y-84046556D01*
X148195606Y-84061906D01*
X148219173Y-84101234D01*
X148240679Y-84141680D01*
X148250977Y-84154307D01*
X148259359Y-84168294D01*
X148290108Y-84202286D01*
X148319068Y-84237795D01*
X148331627Y-84248185D01*
X148342562Y-84260273D01*
X148349170Y-84266196D01*
X148404242Y-84314865D01*
X148407937Y-84317537D01*
X148411087Y-84320827D01*
X148417859Y-84326561D01*
X148462725Y-84364007D01*
X148465639Y-84365991D01*
X148468139Y-84368475D01*
X148475053Y-84374037D01*
X148520840Y-84410349D01*
X148523801Y-84412258D01*
X148526363Y-84414680D01*
X148533414Y-84420068D01*
X148580095Y-84455224D01*
X148583114Y-84457065D01*
X148585740Y-84459426D01*
X148592923Y-84464636D01*
X148640469Y-84498612D01*
X148643524Y-84500372D01*
X148646200Y-84502659D01*
X148653511Y-84507687D01*
X148701892Y-84540464D01*
X148704990Y-84542147D01*
X148707723Y-84544367D01*
X148715157Y-84549211D01*
X148764342Y-84580768D01*
X148767489Y-84582377D01*
X148770287Y-84584536D01*
X148777840Y-84589192D01*
X148827801Y-84619508D01*
X148830976Y-84621033D01*
X148833821Y-84623116D01*
X148841489Y-84627582D01*
X148892191Y-84656639D01*
X148895408Y-84658086D01*
X148898302Y-84660096D01*
X148906079Y-84664369D01*
X148957492Y-84692149D01*
X148960750Y-84693517D01*
X148963694Y-84695455D01*
X148971575Y-84699532D01*
X149023667Y-84726017D01*
X149026955Y-84727302D01*
X149029952Y-84729169D01*
X149037932Y-84733047D01*
X149090671Y-84758220D01*
X149093982Y-84759420D01*
X149097020Y-84761208D01*
X149105096Y-84764885D01*
X149158448Y-84788732D01*
X149161795Y-84789851D01*
X149164883Y-84791566D01*
X149173047Y-84795040D01*
X149226979Y-84817544D01*
X149230345Y-84818576D01*
X149233466Y-84820209D01*
X149241715Y-84823478D01*
X149296192Y-84844627D01*
X149299595Y-84845578D01*
X149302761Y-84847135D01*
X149311090Y-84850197D01*
X149366079Y-84869976D01*
X149369497Y-84870840D01*
X149372697Y-84872315D01*
X149381099Y-84875167D01*
X149436566Y-84893566D01*
X149440012Y-84894346D01*
X149443254Y-84895743D01*
X149451725Y-84898384D01*
X149507636Y-84915388D01*
X149511090Y-84916079D01*
X149514356Y-84917391D01*
X149522891Y-84919820D01*
X149579208Y-84935421D01*
X149582687Y-84936027D01*
X149585993Y-84937260D01*
X149594585Y-84939474D01*
X149651275Y-84953661D01*
X149654766Y-84954180D01*
X149658104Y-84955330D01*
X149666749Y-84957329D01*
X149723776Y-84970093D01*
X149727279Y-84970524D01*
X149730636Y-84971588D01*
X149739329Y-84973370D01*
X149796658Y-84984704D01*
X149800164Y-84985047D01*
X149803549Y-84986027D01*
X149812284Y-84987591D01*
X149869878Y-84997488D01*
X149873406Y-84997744D01*
X149876821Y-84998641D01*
X149885592Y-84999986D01*
X149943416Y-85008438D01*
X149946934Y-85008605D01*
X149950361Y-85009414D01*
X149959162Y-85010539D01*
X150017179Y-85017543D01*
X150020709Y-85017622D01*
X150024164Y-85018347D01*
X150032991Y-85019251D01*
X150091165Y-85024801D01*
X150094686Y-85024792D01*
X150098152Y-85025429D01*
X150106999Y-85026113D01*
X150165295Y-85030207D01*
X150168826Y-85030109D01*
X150172309Y-85030660D01*
X150181171Y-85031122D01*
X150239548Y-85033756D01*
X150243069Y-85033570D01*
X150246567Y-85034034D01*
X150255437Y-85034274D01*
X150280178Y-85034771D01*
X150286127Y-85035438D01*
X150295000Y-85035500D01*
X150318601Y-85035500D01*
X150318846Y-85035527D01*
X150327719Y-85035574D01*
X150370521Y-85035500D01*
X150395000Y-85035500D01*
X150403771Y-85034640D01*
X150412558Y-85035257D01*
X150421426Y-85034950D01*
X150554418Y-85029415D01*
X150566904Y-85027664D01*
X150579513Y-85027873D01*
X150588351Y-85027092D01*
X150712489Y-85015248D01*
X150724317Y-85012938D01*
X150736363Y-85012514D01*
X150745150Y-85011276D01*
X150868508Y-84993023D01*
X150880198Y-84990105D01*
X150892204Y-84989058D01*
X150900914Y-84987367D01*
X151023163Y-84962755D01*
X151034689Y-84959235D01*
X151046632Y-84957567D01*
X151055243Y-84955428D01*
X151176053Y-84924520D01*
X151187378Y-84920409D01*
X151199211Y-84918127D01*
X151207700Y-84915545D01*
X151326749Y-84878428D01*
X151337848Y-84873736D01*
X151349552Y-84870843D01*
X151357896Y-84867825D01*
X151474865Y-84824596D01*
X151485710Y-84819334D01*
X151497246Y-84815840D01*
X151505423Y-84812395D01*
X151619997Y-84763170D01*
X151630555Y-84757354D01*
X151641893Y-84753268D01*
X151649881Y-84749404D01*
X151761754Y-84694315D01*
X151771999Y-84687958D01*
X151783107Y-84683293D01*
X151790884Y-84679021D01*
X151899756Y-84618216D01*
X151909657Y-84611339D01*
X151920510Y-84606104D01*
X151928055Y-84601435D01*
X152033634Y-84535077D01*
X152043166Y-84527697D01*
X152053737Y-84521905D01*
X152061031Y-84516852D01*
X152163034Y-84445118D01*
X152172166Y-84437258D01*
X152182421Y-84430929D01*
X152189443Y-84425504D01*
X152287598Y-84348588D01*
X152296313Y-84340264D01*
X152306228Y-84333412D01*
X152312960Y-84327632D01*
X152407002Y-84245739D01*
X152415277Y-84236973D01*
X152424826Y-84229615D01*
X152431250Y-84223494D01*
X152520927Y-84136843D01*
X152528737Y-84127661D01*
X152537887Y-84119823D01*
X152543985Y-84113378D01*
X152629058Y-84022202D01*
X152636381Y-84012629D01*
X152645120Y-84004322D01*
X152650877Y-83997569D01*
X152731116Y-83902112D01*
X152737932Y-83892176D01*
X152746224Y-83883433D01*
X152751624Y-83876392D01*
X152826816Y-83776911D01*
X152833113Y-83766628D01*
X152840943Y-83757466D01*
X152845971Y-83750155D01*
X152915913Y-83646915D01*
X152921664Y-83636330D01*
X152929010Y-83626774D01*
X152933653Y-83619212D01*
X152998158Y-83512491D01*
X153003356Y-83501619D01*
X153010200Y-83491691D01*
X153014445Y-83483899D01*
X153073340Y-83373983D01*
X153077968Y-83362856D01*
X153084287Y-83352591D01*
X153088123Y-83344590D01*
X153141251Y-83231772D01*
X153145297Y-83220421D01*
X153151076Y-83209843D01*
X153154493Y-83201654D01*
X153201711Y-83086239D01*
X153205166Y-83074687D01*
X153210388Y-83063828D01*
X153213377Y-83055473D01*
X153254558Y-82937768D01*
X153257408Y-82926063D01*
X153262062Y-82914946D01*
X153264614Y-82906447D01*
X153299649Y-82786769D01*
X153301891Y-82774925D01*
X153305965Y-82763577D01*
X153308074Y-82754958D01*
X153336867Y-82633626D01*
X153338492Y-82621682D01*
X153341972Y-82610145D01*
X153343632Y-82601429D01*
X153353428Y-82547967D01*
X153418000Y-82567555D01*
X153418001Y-84775196D01*
X152942270Y-85250928D01*
X152316500Y-85250928D01*
X152143246Y-85267992D01*
X151976650Y-85318528D01*
X151823114Y-85400595D01*
X151688538Y-85511038D01*
X151683158Y-85517594D01*
X151617685Y-85437815D01*
X151520994Y-85358463D01*
X151410680Y-85299498D01*
X151290982Y-85263188D01*
X151166500Y-85250928D01*
X150864750Y-85254000D01*
X150706000Y-85412750D01*
X150706000Y-86487000D01*
X150726000Y-86487000D01*
X150726000Y-86741000D01*
X150706000Y-86741000D01*
X150706000Y-87815250D01*
X150864750Y-87974000D01*
X151166500Y-87977072D01*
X151290982Y-87964812D01*
X151410680Y-87928502D01*
X151520994Y-87869537D01*
X151617685Y-87790185D01*
X151683158Y-87710406D01*
X151688538Y-87716962D01*
X151823114Y-87827405D01*
X151976650Y-87909472D01*
X152143246Y-87960008D01*
X152316500Y-87977072D01*
X152991500Y-87977072D01*
X153164754Y-87960008D01*
X153331350Y-87909472D01*
X153484886Y-87827405D01*
X153619462Y-87716962D01*
X153729905Y-87582386D01*
X153811972Y-87428850D01*
X153862508Y-87262254D01*
X153879572Y-87089000D01*
X153879572Y-86463230D01*
X154196155Y-86146647D01*
X154702292Y-86652784D01*
X154699188Y-86663018D01*
X154686928Y-86787500D01*
X154690000Y-87089250D01*
X154848750Y-87248000D01*
X155923000Y-87248000D01*
X155923000Y-87228000D01*
X156177000Y-87228000D01*
X156177000Y-87248000D01*
X157251250Y-87248000D01*
X157326250Y-87173000D01*
X158173000Y-87173000D01*
X158173000Y-87153000D01*
X158427000Y-87153000D01*
X158427000Y-87173000D01*
X158447000Y-87173000D01*
X158447000Y-87427000D01*
X158427000Y-87427000D01*
X158427000Y-88376250D01*
X158552668Y-88501918D01*
X158536427Y-88505148D01*
X158275274Y-88613321D01*
X158040242Y-88770364D01*
X157840364Y-88970242D01*
X157685001Y-89202760D01*
X157529638Y-88970242D01*
X157329760Y-88770364D01*
X157094728Y-88613321D01*
X156977335Y-88564695D01*
X157019180Y-88552002D01*
X157129494Y-88493037D01*
X157225578Y-88414183D01*
X157245506Y-88430537D01*
X157355820Y-88489502D01*
X157475518Y-88525812D01*
X157600000Y-88538072D01*
X158014250Y-88535000D01*
X158173000Y-88376250D01*
X158173000Y-87427000D01*
X157123750Y-87427000D01*
X157048750Y-87502000D01*
X156177000Y-87502000D01*
X156177000Y-87522000D01*
X155923000Y-87522000D01*
X155923000Y-87502000D01*
X154848750Y-87502000D01*
X154690000Y-87660750D01*
X154686928Y-87962500D01*
X154699188Y-88086982D01*
X154735498Y-88206680D01*
X154794463Y-88316994D01*
X154873815Y-88413685D01*
X154970506Y-88493037D01*
X155080820Y-88552002D01*
X155200518Y-88588312D01*
X155325000Y-88600572D01*
X155764250Y-88597500D01*
X155922998Y-88438752D01*
X155922998Y-88535563D01*
X155735274Y-88613321D01*
X155500242Y-88770364D01*
X155300364Y-88970242D01*
X155145001Y-89202760D01*
X154989638Y-88970242D01*
X154789760Y-88770364D01*
X154554728Y-88613321D01*
X154293575Y-88505148D01*
X154016336Y-88450001D01*
X153733666Y-88450001D01*
X153456427Y-88505148D01*
X153195274Y-88613321D01*
X152960242Y-88770364D01*
X152760364Y-88970242D01*
X152605001Y-89202760D01*
X152449638Y-88970242D01*
X152249760Y-88770364D01*
X152014728Y-88613321D01*
X151753575Y-88505148D01*
X151476336Y-88450001D01*
X151193666Y-88450001D01*
X150916427Y-88505148D01*
X150655274Y-88613321D01*
X150420242Y-88770364D01*
X150220364Y-88970242D01*
X150065001Y-89202760D01*
X149909638Y-88970242D01*
X149709760Y-88770364D01*
X149474728Y-88613321D01*
X149213575Y-88505148D01*
X148936336Y-88450001D01*
X148653666Y-88450001D01*
X148430000Y-88494492D01*
X148430000Y-88457325D01*
X148433676Y-88420000D01*
X148430000Y-88382675D01*
X148430000Y-88382667D01*
X148419003Y-88271014D01*
X148375546Y-88127753D01*
X148304974Y-87995724D01*
X148210001Y-87879999D01*
X148181004Y-87856202D01*
X147663802Y-87339000D01*
X149353428Y-87339000D01*
X149365688Y-87463482D01*
X149401998Y-87583180D01*
X149460963Y-87693494D01*
X149540315Y-87790185D01*
X149637006Y-87869537D01*
X149747320Y-87928502D01*
X149867018Y-87964812D01*
X149991500Y-87977072D01*
X150293250Y-87974000D01*
X150452000Y-87815250D01*
X150452000Y-86741000D01*
X149515250Y-86741000D01*
X149356500Y-86899750D01*
X149353428Y-87339000D01*
X147663802Y-87339000D01*
X146213802Y-85889000D01*
X149353428Y-85889000D01*
X149356500Y-86328250D01*
X149515250Y-86487000D01*
X150452000Y-86487000D01*
X150452000Y-85412750D01*
X150293250Y-85254000D01*
X149991500Y-85250928D01*
X149867018Y-85263188D01*
X149747320Y-85299498D01*
X149637006Y-85358463D01*
X149540315Y-85437815D01*
X149460963Y-85534506D01*
X149401998Y-85644820D01*
X149365688Y-85764518D01*
X149353428Y-85889000D01*
X146213802Y-85889000D01*
X143510000Y-83185199D01*
X143510000Y-82062595D01*
X145588282Y-82062595D01*
X145632039Y-82381675D01*
X145737205Y-82686088D01*
X145830186Y-82860044D01*
X146094587Y-82955808D01*
X147050395Y-82000000D01*
X146094587Y-81044192D01*
X145830186Y-81139956D01*
X145689296Y-81429571D01*
X145607616Y-81741108D01*
X145588282Y-82062595D01*
X143510000Y-82062595D01*
X143510000Y-77314801D01*
X144294800Y-76530002D01*
X155626921Y-76530002D01*
X155560028Y-76655150D01*
%TA.AperFunction,Conductor*%
D30*
G36*
X155560028Y-76655150D02*
G01*
X155509492Y-76821746D01*
X155492428Y-76995000D01*
X155492428Y-77945000D01*
X155509492Y-78118254D01*
X155560028Y-78284850D01*
X155642095Y-78438386D01*
X155752538Y-78572962D01*
X155887114Y-78683405D01*
X155958001Y-78721295D01*
X155958001Y-78835345D01*
X155838820Y-78871498D01*
X155728506Y-78930463D01*
X155631815Y-79009815D01*
X155558496Y-79099155D01*
X155552342Y-79091656D01*
X155409970Y-78974814D01*
X155247538Y-78887993D01*
X155071290Y-78834529D01*
X154933930Y-78821000D01*
X154887998Y-78816476D01*
X154842066Y-78821000D01*
X154132068Y-78821000D01*
X154112493Y-78822928D01*
X153573000Y-78822928D01*
X153448518Y-78835188D01*
X153328820Y-78871498D01*
X153218506Y-78930463D01*
X153121815Y-79009815D01*
X153042463Y-79106506D01*
X152983498Y-79216820D01*
X152947188Y-79336518D01*
X152934928Y-79461000D01*
X152934928Y-80051000D01*
X152947188Y-80175482D01*
X152964029Y-80231000D01*
X152947188Y-80286518D01*
X152937308Y-80386835D01*
X152933653Y-80380788D01*
X152926442Y-80371131D01*
X152920838Y-80360465D01*
X152915913Y-80353085D01*
X152845971Y-80249845D01*
X152838267Y-80240570D01*
X152832116Y-80230205D01*
X152826816Y-80223089D01*
X152751624Y-80123608D01*
X152743454Y-80114749D01*
X152736778Y-80104720D01*
X152731116Y-80097888D01*
X152650877Y-80002431D01*
X152642256Y-79994003D01*
X152635066Y-79984328D01*
X152629058Y-79977798D01*
X152543985Y-79886622D01*
X152534944Y-79878656D01*
X152527264Y-79869367D01*
X152520927Y-79863157D01*
X152431250Y-79776506D01*
X152421805Y-79769015D01*
X152413653Y-79760135D01*
X152407002Y-79754261D01*
X152312960Y-79672368D01*
X152303141Y-79665377D01*
X152294543Y-79656933D01*
X152287598Y-79651412D01*
X152189443Y-79574496D01*
X152179280Y-79568026D01*
X152170256Y-79560037D01*
X152163034Y-79554882D01*
X152061031Y-79483148D01*
X152050541Y-79477209D01*
X152041114Y-79469697D01*
X152033634Y-79464923D01*
X151928055Y-79398565D01*
X151917273Y-79393177D01*
X151907472Y-79386165D01*
X151899756Y-79381784D01*
X151790884Y-79320979D01*
X151779838Y-79316157D01*
X151769687Y-79309661D01*
X151761754Y-79305685D01*
X151649881Y-79250596D01*
X151638596Y-79246351D01*
X151628125Y-79240390D01*
X151619997Y-79236830D01*
X151505423Y-79187605D01*
X151493935Y-79183950D01*
X151483167Y-79178538D01*
X151474865Y-79175404D01*
X151357896Y-79132175D01*
X151346238Y-79129120D01*
X151335202Y-79124272D01*
X151326749Y-79121572D01*
X151207700Y-79084455D01*
X151195903Y-79082008D01*
X151184634Y-79077739D01*
X151176053Y-79075480D01*
X151055243Y-79044572D01*
X151043324Y-79042737D01*
X151031849Y-79039057D01*
X151023163Y-79037245D01*
X150900914Y-79012633D01*
X150888927Y-79011419D01*
X150877276Y-79008337D01*
X150868508Y-79006977D01*
X150745150Y-78988724D01*
X150733115Y-78988132D01*
X150721316Y-78985656D01*
X150712489Y-78984752D01*
X150588351Y-78972908D01*
X150575740Y-78972941D01*
X150563281Y-78971016D01*
X150554418Y-78970585D01*
X150421426Y-78965050D01*
X150412630Y-78965544D01*
X150403873Y-78964562D01*
X150395000Y-78964500D01*
X150370521Y-78964500D01*
X150327719Y-78964426D01*
X150325228Y-78964666D01*
X150322737Y-78964437D01*
X150313864Y-78964553D01*
X150255437Y-78965726D01*
X150251933Y-78966141D01*
X150248415Y-78965906D01*
X150239548Y-78966244D01*
X150181171Y-78968878D01*
X150177675Y-78969381D01*
X150174150Y-78969234D01*
X150165295Y-78969793D01*
X150106999Y-78973887D01*
X150103521Y-78974476D01*
X150100004Y-78974418D01*
X150091165Y-78975199D01*
X150032991Y-78980749D01*
X150029528Y-78981425D01*
X150025996Y-78981455D01*
X150017179Y-78982457D01*
X149959162Y-78989461D01*
X149955724Y-78990222D01*
X149952204Y-78990340D01*
X149943416Y-78991562D01*
X149885592Y-79000014D01*
X149882159Y-79000865D01*
X149878633Y-79001071D01*
X149869878Y-79002512D01*
X149812284Y-79012409D01*
X149808884Y-79013342D01*
X149805375Y-79013636D01*
X149796658Y-79015296D01*
X149739329Y-79026630D01*
X149735952Y-79027648D01*
X149732449Y-79028030D01*
X149723776Y-79029907D01*
X149666749Y-79042671D01*
X149663393Y-79043776D01*
X149659898Y-79044245D01*
X149651275Y-79046339D01*
X149594585Y-79060526D01*
X149591262Y-79061712D01*
X149587775Y-79062270D01*
X149579208Y-79064579D01*
X149522891Y-79080180D01*
X149519603Y-79081448D01*
X149516143Y-79082090D01*
X149507636Y-79084612D01*
X149451725Y-79101616D01*
X149448461Y-79102969D01*
X149445008Y-79103700D01*
X149436566Y-79106434D01*
X149381099Y-79124833D01*
X149377881Y-79126263D01*
X149374449Y-79127079D01*
X149366079Y-79130024D01*
X149311090Y-79149803D01*
X149307899Y-79151317D01*
X149304486Y-79152220D01*
X149296192Y-79155373D01*
X149241715Y-79176522D01*
X149238573Y-79178110D01*
X149235191Y-79179096D01*
X149226979Y-79182456D01*
X149173047Y-79204960D01*
X149169934Y-79206633D01*
X149166574Y-79207704D01*
X149158448Y-79211268D01*
X149105096Y-79235115D01*
X149102035Y-79236860D01*
X149098705Y-79238014D01*
X149090671Y-79241780D01*
X149037932Y-79266953D01*
X149034908Y-79268778D01*
X149031604Y-79270017D01*
X149023667Y-79273983D01*
X148971575Y-79300468D01*
X148968599Y-79302367D01*
X148965328Y-79303688D01*
X148957492Y-79307851D01*
X148906079Y-79335631D01*
X148903155Y-79337602D01*
X148899920Y-79339003D01*
X148892191Y-79343361D01*
X148841489Y-79372418D01*
X148838614Y-79374462D01*
X148835419Y-79375942D01*
X148827801Y-79380492D01*
X148777840Y-79410808D01*
X148775009Y-79412930D01*
X148771844Y-79414493D01*
X148764342Y-79419232D01*
X148715157Y-79450789D01*
X148712389Y-79452974D01*
X148709273Y-79454611D01*
X148701892Y-79459536D01*
X148653511Y-79492313D01*
X148650800Y-79494565D01*
X148647725Y-79496280D01*
X148640469Y-79501388D01*
X148592923Y-79535364D01*
X148590259Y-79537692D01*
X148587220Y-79539488D01*
X148580095Y-79544776D01*
X148533414Y-79579932D01*
X148530818Y-79582317D01*
X148527830Y-79584186D01*
X148520840Y-79589651D01*
X148475053Y-79625963D01*
X148472519Y-79628411D01*
X148469577Y-79630355D01*
X148462725Y-79635993D01*
X148417859Y-79673439D01*
X148414659Y-79676690D01*
X148410932Y-79679306D01*
X148404242Y-79685135D01*
X148349170Y-79733804D01*
X148338065Y-79745741D01*
X148325364Y-79755953D01*
X148295907Y-79791058D01*
X148264691Y-79824613D01*
X148256119Y-79838474D01*
X148245640Y-79850963D01*
X148223559Y-79891129D01*
X148199459Y-79930101D01*
X148193743Y-79945363D01*
X148185889Y-79959650D01*
X148172026Y-80003352D01*
X148155960Y-80046251D01*
X148153318Y-80062327D01*
X148148387Y-80077872D01*
X148143277Y-80123431D01*
X148135848Y-80168637D01*
X148136379Y-80184926D01*
X148134562Y-80201127D01*
X148134500Y-80210000D01*
X148134500Y-80722927D01*
X148090044Y-80600186D01*
X147800429Y-80459296D01*
X147488892Y-80377616D01*
X147167405Y-80358282D01*
X146848325Y-80402039D01*
X146543912Y-80507205D01*
X146369956Y-80600186D01*
X146274192Y-80864587D01*
X147230000Y-81820395D01*
X147244143Y-81806253D01*
X147423748Y-81985858D01*
X147409605Y-82000000D01*
X147423748Y-82014143D01*
X147244143Y-82193748D01*
X147230000Y-82179605D01*
X146274192Y-83135413D01*
X146369956Y-83399814D01*
X146659571Y-83540704D01*
X146971108Y-83622384D01*
X147292595Y-83641718D01*
X147611675Y-83597961D01*
X147916088Y-83492795D01*
X148090044Y-83399814D01*
X148134500Y-83277073D01*
X148134500Y-83790000D01*
X148136091Y-83806223D01*
X148135332Y-83822505D01*
X148142131Y-83867828D01*
X148146603Y-83913436D01*
X148151313Y-83929038D01*
X148153732Y-83945160D01*
X148169209Y-83988310D01*
X148182451Y-84032170D01*
X148190100Y-84046556D01*
X148195606Y-84061906D01*
X148219173Y-84101234D01*
X148240679Y-84141680D01*
X148250977Y-84154307D01*
X148259359Y-84168294D01*
X148290108Y-84202286D01*
X148319068Y-84237795D01*
X148331627Y-84248185D01*
X148342562Y-84260273D01*
X148349170Y-84266196D01*
X148404242Y-84314865D01*
X148407937Y-84317537D01*
X148411087Y-84320827D01*
X148417859Y-84326561D01*
X148462725Y-84364007D01*
X148465639Y-84365991D01*
X148468139Y-84368475D01*
X148475053Y-84374037D01*
X148520840Y-84410349D01*
X148523801Y-84412258D01*
X148526363Y-84414680D01*
X148533414Y-84420068D01*
X148580095Y-84455224D01*
X148583114Y-84457065D01*
X148585740Y-84459426D01*
X148592923Y-84464636D01*
X148640469Y-84498612D01*
X148643524Y-84500372D01*
X148646200Y-84502659D01*
X148653511Y-84507687D01*
X148701892Y-84540464D01*
X148704990Y-84542147D01*
X148707723Y-84544367D01*
X148715157Y-84549211D01*
X148764342Y-84580768D01*
X148767489Y-84582377D01*
X148770287Y-84584536D01*
X148777840Y-84589192D01*
X148827801Y-84619508D01*
X148830976Y-84621033D01*
X148833821Y-84623116D01*
X148841489Y-84627582D01*
X148892191Y-84656639D01*
X148895408Y-84658086D01*
X148898302Y-84660096D01*
X148906079Y-84664369D01*
X148957492Y-84692149D01*
X148960750Y-84693517D01*
X148963694Y-84695455D01*
X148971575Y-84699532D01*
X149023667Y-84726017D01*
X149026955Y-84727302D01*
X149029952Y-84729169D01*
X149037932Y-84733047D01*
X149090671Y-84758220D01*
X149093982Y-84759420D01*
X149097020Y-84761208D01*
X149105096Y-84764885D01*
X149158448Y-84788732D01*
X149161795Y-84789851D01*
X149164883Y-84791566D01*
X149173047Y-84795040D01*
X149226979Y-84817544D01*
X149230345Y-84818576D01*
X149233466Y-84820209D01*
X149241715Y-84823478D01*
X149296192Y-84844627D01*
X149299595Y-84845578D01*
X149302761Y-84847135D01*
X149311090Y-84850197D01*
X149366079Y-84869976D01*
X149369497Y-84870840D01*
X149372697Y-84872315D01*
X149381099Y-84875167D01*
X149436566Y-84893566D01*
X149440012Y-84894346D01*
X149443254Y-84895743D01*
X149451725Y-84898384D01*
X149507636Y-84915388D01*
X149511090Y-84916079D01*
X149514356Y-84917391D01*
X149522891Y-84919820D01*
X149579208Y-84935421D01*
X149582687Y-84936027D01*
X149585993Y-84937260D01*
X149594585Y-84939474D01*
X149651275Y-84953661D01*
X149654766Y-84954180D01*
X149658104Y-84955330D01*
X149666749Y-84957329D01*
X149723776Y-84970093D01*
X149727279Y-84970524D01*
X149730636Y-84971588D01*
X149739329Y-84973370D01*
X149796658Y-84984704D01*
X149800164Y-84985047D01*
X149803549Y-84986027D01*
X149812284Y-84987591D01*
X149869878Y-84997488D01*
X149873406Y-84997744D01*
X149876821Y-84998641D01*
X149885592Y-84999986D01*
X149943416Y-85008438D01*
X149946934Y-85008605D01*
X149950361Y-85009414D01*
X149959162Y-85010539D01*
X150017179Y-85017543D01*
X150020709Y-85017622D01*
X150024164Y-85018347D01*
X150032991Y-85019251D01*
X150091165Y-85024801D01*
X150094686Y-85024792D01*
X150098152Y-85025429D01*
X150106999Y-85026113D01*
X150165295Y-85030207D01*
X150168826Y-85030109D01*
X150172309Y-85030660D01*
X150181171Y-85031122D01*
X150239548Y-85033756D01*
X150243069Y-85033570D01*
X150246567Y-85034034D01*
X150255437Y-85034274D01*
X150280178Y-85034771D01*
X150286127Y-85035438D01*
X150295000Y-85035500D01*
X150318601Y-85035500D01*
X150318846Y-85035527D01*
X150327719Y-85035574D01*
X150370521Y-85035500D01*
X150395000Y-85035500D01*
X150403771Y-85034640D01*
X150412558Y-85035257D01*
X150421426Y-85034950D01*
X150554418Y-85029415D01*
X150566904Y-85027664D01*
X150579513Y-85027873D01*
X150588351Y-85027092D01*
X150712489Y-85015248D01*
X150724317Y-85012938D01*
X150736363Y-85012514D01*
X150745150Y-85011276D01*
X150868508Y-84993023D01*
X150880198Y-84990105D01*
X150892204Y-84989058D01*
X150900914Y-84987367D01*
X151023163Y-84962755D01*
X151034689Y-84959235D01*
X151046632Y-84957567D01*
X151055243Y-84955428D01*
X151176053Y-84924520D01*
X151187378Y-84920409D01*
X151199211Y-84918127D01*
X151207700Y-84915545D01*
X151326749Y-84878428D01*
X151337848Y-84873736D01*
X151349552Y-84870843D01*
X151357896Y-84867825D01*
X151474865Y-84824596D01*
X151485710Y-84819334D01*
X151497246Y-84815840D01*
X151505423Y-84812395D01*
X151619997Y-84763170D01*
X151630555Y-84757354D01*
X151641893Y-84753268D01*
X151649881Y-84749404D01*
X151761754Y-84694315D01*
X151771999Y-84687958D01*
X151783107Y-84683293D01*
X151790884Y-84679021D01*
X151899756Y-84618216D01*
X151909657Y-84611339D01*
X151920510Y-84606104D01*
X151928055Y-84601435D01*
X152033634Y-84535077D01*
X152043166Y-84527697D01*
X152053737Y-84521905D01*
X152061031Y-84516852D01*
X152163034Y-84445118D01*
X152172166Y-84437258D01*
X152182421Y-84430929D01*
X152189443Y-84425504D01*
X152287598Y-84348588D01*
X152296313Y-84340264D01*
X152306228Y-84333412D01*
X152312960Y-84327632D01*
X152407002Y-84245739D01*
X152415277Y-84236973D01*
X152424826Y-84229615D01*
X152431250Y-84223494D01*
X152520927Y-84136843D01*
X152528737Y-84127661D01*
X152537887Y-84119823D01*
X152543985Y-84113378D01*
X152629058Y-84022202D01*
X152636381Y-84012629D01*
X152645120Y-84004322D01*
X152650877Y-83997569D01*
X152731116Y-83902112D01*
X152737932Y-83892176D01*
X152746224Y-83883433D01*
X152751624Y-83876392D01*
X152826816Y-83776911D01*
X152833113Y-83766628D01*
X152840943Y-83757466D01*
X152845971Y-83750155D01*
X152915913Y-83646915D01*
X152921664Y-83636330D01*
X152929010Y-83626774D01*
X152933653Y-83619212D01*
X152998158Y-83512491D01*
X153003356Y-83501619D01*
X153010200Y-83491691D01*
X153014445Y-83483899D01*
X153073340Y-83373983D01*
X153077968Y-83362856D01*
X153084287Y-83352591D01*
X153088123Y-83344590D01*
X153141251Y-83231772D01*
X153145297Y-83220421D01*
X153151076Y-83209843D01*
X153154493Y-83201654D01*
X153201711Y-83086239D01*
X153205166Y-83074687D01*
X153210388Y-83063828D01*
X153213377Y-83055473D01*
X153254558Y-82937768D01*
X153257408Y-82926063D01*
X153262062Y-82914946D01*
X153264614Y-82906447D01*
X153299649Y-82786769D01*
X153301891Y-82774925D01*
X153305965Y-82763577D01*
X153308074Y-82754958D01*
X153336867Y-82633626D01*
X153338492Y-82621682D01*
X153341972Y-82610145D01*
X153343632Y-82601429D01*
X153353428Y-82547967D01*
X153418000Y-82567555D01*
X153418001Y-84775196D01*
X152942270Y-85250928D01*
X152316500Y-85250928D01*
X152143246Y-85267992D01*
X151976650Y-85318528D01*
X151823114Y-85400595D01*
X151688538Y-85511038D01*
X151683158Y-85517594D01*
X151617685Y-85437815D01*
X151520994Y-85358463D01*
X151410680Y-85299498D01*
X151290982Y-85263188D01*
X151166500Y-85250928D01*
X150864750Y-85254000D01*
X150706000Y-85412750D01*
X150706000Y-86487000D01*
X150726000Y-86487000D01*
X150726000Y-86741000D01*
X150706000Y-86741000D01*
X150706000Y-87815250D01*
X150864750Y-87974000D01*
X151166500Y-87977072D01*
X151290982Y-87964812D01*
X151410680Y-87928502D01*
X151520994Y-87869537D01*
X151617685Y-87790185D01*
X151683158Y-87710406D01*
X151688538Y-87716962D01*
X151823114Y-87827405D01*
X151976650Y-87909472D01*
X152143246Y-87960008D01*
X152316500Y-87977072D01*
X152991500Y-87977072D01*
X153164754Y-87960008D01*
X153331350Y-87909472D01*
X153484886Y-87827405D01*
X153619462Y-87716962D01*
X153729905Y-87582386D01*
X153811972Y-87428850D01*
X153862508Y-87262254D01*
X153879572Y-87089000D01*
X153879572Y-86463230D01*
X154196155Y-86146647D01*
X154702292Y-86652784D01*
X154699188Y-86663018D01*
X154686928Y-86787500D01*
X154690000Y-87089250D01*
X154848750Y-87248000D01*
X155923000Y-87248000D01*
X155923000Y-87228000D01*
X156177000Y-87228000D01*
X156177000Y-87248000D01*
X157251250Y-87248000D01*
X157326250Y-87173000D01*
X158173000Y-87173000D01*
X158173000Y-87153000D01*
X158427000Y-87153000D01*
X158427000Y-87173000D01*
X158447000Y-87173000D01*
X158447000Y-87427000D01*
X158427000Y-87427000D01*
X158427000Y-88376250D01*
X158552668Y-88501918D01*
X158536427Y-88505148D01*
X158275274Y-88613321D01*
X158040242Y-88770364D01*
X157840364Y-88970242D01*
X157685001Y-89202760D01*
X157529638Y-88970242D01*
X157329760Y-88770364D01*
X157094728Y-88613321D01*
X156977335Y-88564695D01*
X157019180Y-88552002D01*
X157129494Y-88493037D01*
X157225578Y-88414183D01*
X157245506Y-88430537D01*
X157355820Y-88489502D01*
X157475518Y-88525812D01*
X157600000Y-88538072D01*
X158014250Y-88535000D01*
X158173000Y-88376250D01*
X158173000Y-87427000D01*
X157123750Y-87427000D01*
X157048750Y-87502000D01*
X156177000Y-87502000D01*
X156177000Y-87522000D01*
X155923000Y-87522000D01*
X155923000Y-87502000D01*
X154848750Y-87502000D01*
X154690000Y-87660750D01*
X154686928Y-87962500D01*
X154699188Y-88086982D01*
X154735498Y-88206680D01*
X154794463Y-88316994D01*
X154873815Y-88413685D01*
X154970506Y-88493037D01*
X155080820Y-88552002D01*
X155200518Y-88588312D01*
X155325000Y-88600572D01*
X155764250Y-88597500D01*
X155922998Y-88438752D01*
X155922998Y-88535563D01*
X155735274Y-88613321D01*
X155500242Y-88770364D01*
X155300364Y-88970242D01*
X155145001Y-89202760D01*
X154989638Y-88970242D01*
X154789760Y-88770364D01*
X154554728Y-88613321D01*
X154293575Y-88505148D01*
X154016336Y-88450001D01*
X153733666Y-88450001D01*
X153456427Y-88505148D01*
X153195274Y-88613321D01*
X152960242Y-88770364D01*
X152760364Y-88970242D01*
X152605001Y-89202760D01*
X152449638Y-88970242D01*
X152249760Y-88770364D01*
X152014728Y-88613321D01*
X151753575Y-88505148D01*
X151476336Y-88450001D01*
X151193666Y-88450001D01*
X150916427Y-88505148D01*
X150655274Y-88613321D01*
X150420242Y-88770364D01*
X150220364Y-88970242D01*
X150065001Y-89202760D01*
X149909638Y-88970242D01*
X149709760Y-88770364D01*
X149474728Y-88613321D01*
X149213575Y-88505148D01*
X148936336Y-88450001D01*
X148653666Y-88450001D01*
X148430000Y-88494492D01*
X148430000Y-88457325D01*
X148433676Y-88420000D01*
X148430000Y-88382675D01*
X148430000Y-88382667D01*
X148419003Y-88271014D01*
X148375546Y-88127753D01*
X148304974Y-87995724D01*
X148210001Y-87879999D01*
X148181004Y-87856202D01*
X147663802Y-87339000D01*
X149353428Y-87339000D01*
X149365688Y-87463482D01*
X149401998Y-87583180D01*
X149460963Y-87693494D01*
X149540315Y-87790185D01*
X149637006Y-87869537D01*
X149747320Y-87928502D01*
X149867018Y-87964812D01*
X149991500Y-87977072D01*
X150293250Y-87974000D01*
X150452000Y-87815250D01*
X150452000Y-86741000D01*
X149515250Y-86741000D01*
X149356500Y-86899750D01*
X149353428Y-87339000D01*
X147663802Y-87339000D01*
X146213802Y-85889000D01*
X149353428Y-85889000D01*
X149356500Y-86328250D01*
X149515250Y-86487000D01*
X150452000Y-86487000D01*
X150452000Y-85412750D01*
X150293250Y-85254000D01*
X149991500Y-85250928D01*
X149867018Y-85263188D01*
X149747320Y-85299498D01*
X149637006Y-85358463D01*
X149540315Y-85437815D01*
X149460963Y-85534506D01*
X149401998Y-85644820D01*
X149365688Y-85764518D01*
X149353428Y-85889000D01*
X146213802Y-85889000D01*
X143510000Y-83185199D01*
X143510000Y-82062595D01*
X145588282Y-82062595D01*
X145632039Y-82381675D01*
X145737205Y-82686088D01*
X145830186Y-82860044D01*
X146094587Y-82955808D01*
X147050395Y-82000000D01*
X146094587Y-81044192D01*
X145830186Y-81139956D01*
X145689296Y-81429571D01*
X145607616Y-81741108D01*
X145588282Y-82062595D01*
X143510000Y-82062595D01*
X143510000Y-77314801D01*
X144294800Y-76530002D01*
X155626921Y-76530002D01*
X155560028Y-76655150D01*
G37*
%TD.AperFunction*%
D29*
X142600364Y-75559760D02*
X142800242Y-75759638D01*
X142869370Y-75805828D01*
X142239003Y-76436196D01*
X142209999Y-76459999D01*
X142156655Y-76525000D01*
X142115026Y-76575724D01*
X142088300Y-76625725D01*
X142044454Y-76707754D01*
X142000997Y-76851015D01*
X141990000Y-76962668D01*
X141990000Y-76962678D01*
X141986324Y-77000000D01*
X141990000Y-77037323D01*
X141990001Y-83462668D01*
X141986324Y-83500000D01*
X141990001Y-83537333D01*
X142000998Y-83648986D01*
X142012589Y-83687197D01*
X142044454Y-83792246D01*
X142115026Y-83924276D01*
X142186201Y-84011002D01*
X142210000Y-84040001D01*
X142238998Y-84063799D01*
X146685134Y-88509936D01*
X146673575Y-88505148D01*
X146396336Y-88450001D01*
X146113666Y-88450001D01*
X145836427Y-88505148D01*
X145760000Y-88536805D01*
X145760000Y-88287323D01*
X145763676Y-88250000D01*
X145760000Y-88212677D01*
X145760000Y-88212667D01*
X145749003Y-88101014D01*
X145705546Y-87957753D01*
X145634975Y-87825725D01*
X145634974Y-87825723D01*
X145563799Y-87738997D01*
X145540001Y-87709999D01*
X145511004Y-87686202D01*
X139395001Y-81570200D01*
X139395001Y-75863044D01*
X139549760Y-75759638D01*
X139749638Y-75559760D01*
X139905001Y-75327242D01*
X140060364Y-75559760D01*
X140260242Y-75759638D01*
X140495274Y-75916681D01*
X140756427Y-76024854D01*
X141033666Y-76080001D01*
X141316336Y-76080001D01*
X141593575Y-76024854D01*
X141854728Y-75916681D01*
X142089760Y-75759638D01*
X142289638Y-75559760D01*
X142445001Y-75327242D01*
X142600364Y-75559760D01*
%TA.AperFunction,Conductor*%
D30*
G36*
X142600364Y-75559760D02*
G01*
X142800242Y-75759638D01*
X142869370Y-75805828D01*
X142239003Y-76436196D01*
X142209999Y-76459999D01*
X142156655Y-76525000D01*
X142115026Y-76575724D01*
X142088300Y-76625725D01*
X142044454Y-76707754D01*
X142000997Y-76851015D01*
X141990000Y-76962668D01*
X141990000Y-76962678D01*
X141986324Y-77000000D01*
X141990000Y-77037323D01*
X141990001Y-83462668D01*
X141986324Y-83500000D01*
X141990001Y-83537333D01*
X142000998Y-83648986D01*
X142012589Y-83687197D01*
X142044454Y-83792246D01*
X142115026Y-83924276D01*
X142186201Y-84011002D01*
X142210000Y-84040001D01*
X142238998Y-84063799D01*
X146685134Y-88509936D01*
X146673575Y-88505148D01*
X146396336Y-88450001D01*
X146113666Y-88450001D01*
X145836427Y-88505148D01*
X145760000Y-88536805D01*
X145760000Y-88287323D01*
X145763676Y-88250000D01*
X145760000Y-88212677D01*
X145760000Y-88212667D01*
X145749003Y-88101014D01*
X145705546Y-87957753D01*
X145634975Y-87825725D01*
X145634974Y-87825723D01*
X145563799Y-87738997D01*
X145540001Y-87709999D01*
X145511004Y-87686202D01*
X139395001Y-81570200D01*
X139395001Y-75863044D01*
X139549760Y-75759638D01*
X139749638Y-75559760D01*
X139905001Y-75327242D01*
X140060364Y-75559760D01*
X140260242Y-75759638D01*
X140495274Y-75916681D01*
X140756427Y-76024854D01*
X141033666Y-76080001D01*
X141316336Y-76080001D01*
X141593575Y-76024854D01*
X141854728Y-75916681D01*
X142089760Y-75759638D01*
X142289638Y-75559760D01*
X142445001Y-75327242D01*
X142600364Y-75559760D01*
G37*
%TD.AperFunction*%
D29*
X156177000Y-85173000D02*
X156197000Y-85173000D01*
X156197000Y-85427000D01*
X156177000Y-85427000D01*
X156177000Y-85447000D01*
X155923000Y-85447000D01*
X155923000Y-85427000D01*
X155903000Y-85427000D01*
X155903000Y-85173000D01*
X155923000Y-85173000D01*
X155923000Y-85153000D01*
X156177000Y-85153000D01*
X156177000Y-85173000D01*
%TA.AperFunction,Conductor*%
D30*
G36*
X156177000Y-85173000D02*
G01*
X156197000Y-85173000D01*
X156197000Y-85427000D01*
X156177000Y-85427000D01*
X156177000Y-85447000D01*
X155923000Y-85447000D01*
X155923000Y-85427000D01*
X155903000Y-85427000D01*
X155903000Y-85173000D01*
X155923000Y-85173000D01*
X155923000Y-85153000D01*
X156177000Y-85153000D01*
X156177000Y-85173000D01*
G37*
%TD.AperFunction*%
D29*
X167875000Y-84175939D02*
X167914774Y-84375898D01*
X167992795Y-84564256D01*
X168106063Y-84733774D01*
X168250226Y-84877937D01*
X168419744Y-84991205D01*
X168558551Y-85048701D01*
X166488072Y-85048701D01*
X166488072Y-84899999D01*
X166471008Y-84726745D01*
X166420472Y-84560149D01*
X166338405Y-84406613D01*
X166250910Y-84300000D01*
X166338405Y-84193387D01*
X166420472Y-84039851D01*
X166429527Y-84010000D01*
X167875000Y-84010000D01*
X167875000Y-84175939D01*
%TA.AperFunction,Conductor*%
D30*
G36*
X167875000Y-84175939D02*
G01*
X167914774Y-84375898D01*
X167992795Y-84564256D01*
X168106063Y-84733774D01*
X168250226Y-84877937D01*
X168419744Y-84991205D01*
X168558551Y-85048701D01*
X166488072Y-85048701D01*
X166488072Y-84899999D01*
X166471008Y-84726745D01*
X166420472Y-84560149D01*
X166338405Y-84406613D01*
X166250910Y-84300000D01*
X166338405Y-84193387D01*
X166420472Y-84039851D01*
X166429527Y-84010000D01*
X167875000Y-84010000D01*
X167875000Y-84175939D01*
G37*
%TD.AperFunction*%
D29*
X158681928Y-82019270D02*
X157788998Y-82912201D01*
X157760000Y-82935999D01*
X157736202Y-82964997D01*
X157736201Y-82964998D01*
X157665026Y-83051724D01*
X157594454Y-83183754D01*
X157565988Y-83277597D01*
X157550998Y-83327014D01*
X157543828Y-83399814D01*
X157536324Y-83476000D01*
X157540001Y-83513332D01*
X157540001Y-84120473D01*
X157510149Y-84129528D01*
X157356613Y-84211595D01*
X157254294Y-84295566D01*
X157226185Y-84261315D01*
X157129494Y-84181963D01*
X157019180Y-84122998D01*
X156899482Y-84086688D01*
X156775000Y-84074428D01*
X156656454Y-84075257D01*
X156759937Y-83971774D01*
X156873205Y-83802256D01*
X156951226Y-83613898D01*
X156991000Y-83413939D01*
X156991000Y-83210061D01*
X156951226Y-83010102D01*
X156891000Y-82864705D01*
X156891000Y-82775289D01*
X157077218Y-82589072D01*
X157293000Y-82589072D01*
X157417482Y-82576812D01*
X157537180Y-82540502D01*
X157647494Y-82481537D01*
X157744185Y-82402185D01*
X157823537Y-82305494D01*
X157882502Y-82195180D01*
X157918812Y-82075482D01*
X157931072Y-81951000D01*
X157931072Y-81903729D01*
X158281802Y-81553000D01*
X158343939Y-81553000D01*
X158543898Y-81513226D01*
X158681928Y-81456052D01*
X158681928Y-82019270D01*
%TA.AperFunction,Conductor*%
D30*
G36*
X158681928Y-82019270D02*
G01*
X157788998Y-82912201D01*
X157760000Y-82935999D01*
X157736202Y-82964997D01*
X157736201Y-82964998D01*
X157665026Y-83051724D01*
X157594454Y-83183754D01*
X157565988Y-83277597D01*
X157550998Y-83327014D01*
X157543828Y-83399814D01*
X157536324Y-83476000D01*
X157540001Y-83513332D01*
X157540001Y-84120473D01*
X157510149Y-84129528D01*
X157356613Y-84211595D01*
X157254294Y-84295566D01*
X157226185Y-84261315D01*
X157129494Y-84181963D01*
X157019180Y-84122998D01*
X156899482Y-84086688D01*
X156775000Y-84074428D01*
X156656454Y-84075257D01*
X156759937Y-83971774D01*
X156873205Y-83802256D01*
X156951226Y-83613898D01*
X156991000Y-83413939D01*
X156991000Y-83210061D01*
X156951226Y-83010102D01*
X156891000Y-82864705D01*
X156891000Y-82775289D01*
X157077218Y-82589072D01*
X157293000Y-82589072D01*
X157417482Y-82576812D01*
X157537180Y-82540502D01*
X157647494Y-82481537D01*
X157744185Y-82402185D01*
X157823537Y-82305494D01*
X157882502Y-82195180D01*
X157918812Y-82075482D01*
X157931072Y-81951000D01*
X157931072Y-81903729D01*
X158281802Y-81553000D01*
X158343939Y-81553000D01*
X158543898Y-81513226D01*
X158681928Y-81456052D01*
X158681928Y-82019270D01*
G37*
%TD.AperFunction*%
D29*
X168000364Y-75559760D02*
X168200242Y-75759638D01*
X168435274Y-75916681D01*
X168696427Y-76024854D01*
X168973666Y-76080001D01*
X169256336Y-76080001D01*
X169438887Y-76043689D01*
X170690000Y-77294802D01*
X170690000Y-78011035D01*
X170576279Y-77975524D01*
X170465750Y-77965300D01*
X170307000Y-78124050D01*
X170307000Y-79324200D01*
X170327000Y-79324200D01*
X170327000Y-79578200D01*
X170307000Y-79578200D01*
X170307000Y-80778350D01*
X170465750Y-80937100D01*
X170576279Y-80926876D01*
X170695677Y-80889592D01*
X170805507Y-80829730D01*
X170815303Y-80821556D01*
X170828806Y-80832637D01*
X170939120Y-80891602D01*
X171058818Y-80927912D01*
X171183300Y-80940172D01*
X171716700Y-80940172D01*
X171841182Y-80927912D01*
X171960880Y-80891602D01*
X172071194Y-80832637D01*
X172085000Y-80821307D01*
X172098806Y-80832637D01*
X172209120Y-80891602D01*
X172328818Y-80927912D01*
X172453300Y-80940172D01*
X172986700Y-80940172D01*
X173111182Y-80927912D01*
X173230001Y-80891869D01*
X173230000Y-83192131D01*
X173111182Y-83156088D01*
X172986700Y-83143828D01*
X172453300Y-83143828D01*
X172328818Y-83156088D01*
X172209120Y-83192398D01*
X172147806Y-83225172D01*
X172084974Y-83107624D01*
X171990001Y-82991899D01*
X171960998Y-82968097D01*
X171731904Y-82739003D01*
X171708101Y-82709999D01*
X171592376Y-82615026D01*
X171460347Y-82544454D01*
X171317086Y-82500997D01*
X171205433Y-82490000D01*
X171205422Y-82490000D01*
X171168100Y-82486324D01*
X171130778Y-82490000D01*
X166429527Y-82490000D01*
X166420472Y-82460149D01*
X166338405Y-82306613D01*
X166250910Y-82200000D01*
X166338405Y-82093387D01*
X166420472Y-81939851D01*
X166467142Y-81786000D01*
X168206289Y-81786000D01*
X168250226Y-81829937D01*
X168419744Y-81943205D01*
X168608102Y-82021226D01*
X168808061Y-82061000D01*
X169011939Y-82061000D01*
X169211898Y-82021226D01*
X169400256Y-81943205D01*
X169569774Y-81829937D01*
X169713937Y-81685774D01*
X169827205Y-81516256D01*
X169905226Y-81327898D01*
X169945000Y-81127939D01*
X169945000Y-80924061D01*
X169938743Y-80892607D01*
X170053000Y-80778350D01*
X170053000Y-79578200D01*
X170033000Y-79578200D01*
X170033000Y-79324200D01*
X170053000Y-79324200D01*
X170053000Y-78124050D01*
X169916691Y-77987741D01*
X169905226Y-77930102D01*
X169827205Y-77741744D01*
X169713937Y-77572226D01*
X169569774Y-77428063D01*
X169400256Y-77314795D01*
X169211898Y-77236774D01*
X169011939Y-77197000D01*
X168808061Y-77197000D01*
X168608102Y-77236774D01*
X168419744Y-77314795D01*
X168250226Y-77428063D01*
X168106063Y-77572226D01*
X167992795Y-77741744D01*
X167914774Y-77930102D01*
X167875000Y-78130061D01*
X167875000Y-78333939D01*
X167905644Y-78488000D01*
X166472117Y-78488000D01*
X166471008Y-78476745D01*
X166420472Y-78310149D01*
X166338405Y-78156613D01*
X166267418Y-78070116D01*
X166350905Y-77968386D01*
X166432972Y-77814850D01*
X166449610Y-77760000D01*
X166548678Y-77760000D01*
X166586000Y-77763676D01*
X166623322Y-77760000D01*
X166623333Y-77760000D01*
X166734986Y-77749003D01*
X166878247Y-77705546D01*
X167010276Y-77634974D01*
X167126001Y-77540001D01*
X167149804Y-77510997D01*
X167388997Y-77271804D01*
X167418001Y-77248001D01*
X167512974Y-77132276D01*
X167583546Y-77000247D01*
X167601869Y-76939842D01*
X167681937Y-76859774D01*
X167795205Y-76690256D01*
X167873226Y-76501898D01*
X167913000Y-76301939D01*
X167913000Y-76098061D01*
X167873226Y-75898102D01*
X167795205Y-75709744D01*
X167692314Y-75555756D01*
X167845001Y-75327242D01*
X168000364Y-75559760D01*
%TA.AperFunction,Conductor*%
D30*
G36*
X168000364Y-75559760D02*
G01*
X168200242Y-75759638D01*
X168435274Y-75916681D01*
X168696427Y-76024854D01*
X168973666Y-76080001D01*
X169256336Y-76080001D01*
X169438887Y-76043689D01*
X170690000Y-77294802D01*
X170690000Y-78011035D01*
X170576279Y-77975524D01*
X170465750Y-77965300D01*
X170307000Y-78124050D01*
X170307000Y-79324200D01*
X170327000Y-79324200D01*
X170327000Y-79578200D01*
X170307000Y-79578200D01*
X170307000Y-80778350D01*
X170465750Y-80937100D01*
X170576279Y-80926876D01*
X170695677Y-80889592D01*
X170805507Y-80829730D01*
X170815303Y-80821556D01*
X170828806Y-80832637D01*
X170939120Y-80891602D01*
X171058818Y-80927912D01*
X171183300Y-80940172D01*
X171716700Y-80940172D01*
X171841182Y-80927912D01*
X171960880Y-80891602D01*
X172071194Y-80832637D01*
X172085000Y-80821307D01*
X172098806Y-80832637D01*
X172209120Y-80891602D01*
X172328818Y-80927912D01*
X172453300Y-80940172D01*
X172986700Y-80940172D01*
X173111182Y-80927912D01*
X173230001Y-80891869D01*
X173230000Y-83192131D01*
X173111182Y-83156088D01*
X172986700Y-83143828D01*
X172453300Y-83143828D01*
X172328818Y-83156088D01*
X172209120Y-83192398D01*
X172147806Y-83225172D01*
X172084974Y-83107624D01*
X171990001Y-82991899D01*
X171960998Y-82968097D01*
X171731904Y-82739003D01*
X171708101Y-82709999D01*
X171592376Y-82615026D01*
X171460347Y-82544454D01*
X171317086Y-82500997D01*
X171205433Y-82490000D01*
X171205422Y-82490000D01*
X171168100Y-82486324D01*
X171130778Y-82490000D01*
X166429527Y-82490000D01*
X166420472Y-82460149D01*
X166338405Y-82306613D01*
X166250910Y-82200000D01*
X166338405Y-82093387D01*
X166420472Y-81939851D01*
X166467142Y-81786000D01*
X168206289Y-81786000D01*
X168250226Y-81829937D01*
X168419744Y-81943205D01*
X168608102Y-82021226D01*
X168808061Y-82061000D01*
X169011939Y-82061000D01*
X169211898Y-82021226D01*
X169400256Y-81943205D01*
X169569774Y-81829937D01*
X169713937Y-81685774D01*
X169827205Y-81516256D01*
X169905226Y-81327898D01*
X169945000Y-81127939D01*
X169945000Y-80924061D01*
X169938743Y-80892607D01*
X170053000Y-80778350D01*
X170053000Y-79578200D01*
X170033000Y-79578200D01*
X170033000Y-79324200D01*
X170053000Y-79324200D01*
X170053000Y-78124050D01*
X169916691Y-77987741D01*
X169905226Y-77930102D01*
X169827205Y-77741744D01*
X169713937Y-77572226D01*
X169569774Y-77428063D01*
X169400256Y-77314795D01*
X169211898Y-77236774D01*
X169011939Y-77197000D01*
X168808061Y-77197000D01*
X168608102Y-77236774D01*
X168419744Y-77314795D01*
X168250226Y-77428063D01*
X168106063Y-77572226D01*
X167992795Y-77741744D01*
X167914774Y-77930102D01*
X167875000Y-78130061D01*
X167875000Y-78333939D01*
X167905644Y-78488000D01*
X166472117Y-78488000D01*
X166471008Y-78476745D01*
X166420472Y-78310149D01*
X166338405Y-78156613D01*
X166267418Y-78070116D01*
X166350905Y-77968386D01*
X166432972Y-77814850D01*
X166449610Y-77760000D01*
X166548678Y-77760000D01*
X166586000Y-77763676D01*
X166623322Y-77760000D01*
X166623333Y-77760000D01*
X166734986Y-77749003D01*
X166878247Y-77705546D01*
X167010276Y-77634974D01*
X167126001Y-77540001D01*
X167149804Y-77510997D01*
X167388997Y-77271804D01*
X167418001Y-77248001D01*
X167512974Y-77132276D01*
X167583546Y-77000247D01*
X167601869Y-76939842D01*
X167681937Y-76859774D01*
X167795205Y-76690256D01*
X167873226Y-76501898D01*
X167913000Y-76301939D01*
X167913000Y-76098061D01*
X167873226Y-75898102D01*
X167795205Y-75709744D01*
X167692314Y-75555756D01*
X167845001Y-75327242D01*
X168000364Y-75559760D01*
G37*
%TD.AperFunction*%
D29*
X154132068Y-80691000D02*
X154325000Y-80691000D01*
X154325000Y-80722928D01*
X154031000Y-80722928D01*
X154031000Y-80689072D01*
X154112493Y-80689072D01*
X154132068Y-80691000D01*
%TA.AperFunction,Conductor*%
D30*
G36*
X154132068Y-80691000D02*
G01*
X154325000Y-80691000D01*
X154325000Y-80722928D01*
X154031000Y-80722928D01*
X154031000Y-80689072D01*
X154112493Y-80689072D01*
X154132068Y-80691000D01*
G37*
%TD.AperFunction*%
D29*
X162234538Y-75897038D02*
X162124095Y-76031614D01*
X162042028Y-76185150D01*
X161991492Y-76351746D01*
X161974428Y-76525000D01*
X161974428Y-77475000D01*
X161991492Y-77648254D01*
X162042028Y-77814850D01*
X162124095Y-77968386D01*
X162220082Y-78085347D01*
X162161595Y-78156613D01*
X162079528Y-78310149D01*
X162028992Y-78476745D01*
X162011928Y-78649999D01*
X162011928Y-79550001D01*
X162028992Y-79723255D01*
X162079528Y-79889851D01*
X162161595Y-80043387D01*
X162228573Y-80125000D01*
X162161595Y-80206613D01*
X162079528Y-80360149D01*
X162048552Y-80462263D01*
X161358072Y-79771783D01*
X161358072Y-79405999D01*
X161341008Y-79232745D01*
X161290472Y-79066149D01*
X161208405Y-78912613D01*
X161097962Y-78778038D01*
X160963387Y-78667595D01*
X160809851Y-78585528D01*
X160643255Y-78534992D01*
X160470001Y-78517928D01*
X159927910Y-78517928D01*
X159970002Y-78439180D01*
X160006312Y-78319482D01*
X160018572Y-78195000D01*
X160015500Y-77755750D01*
X159856750Y-77597000D01*
X158920000Y-77597000D01*
X158920000Y-78671250D01*
X158988587Y-78739837D01*
X158942038Y-78778038D01*
X158831595Y-78912613D01*
X158787024Y-78996000D01*
X157727351Y-78996000D01*
X157647494Y-78930463D01*
X157537180Y-78871498D01*
X157478000Y-78853546D01*
X157478000Y-78721294D01*
X157548886Y-78683405D01*
X157683462Y-78572962D01*
X157688842Y-78566406D01*
X157754315Y-78646185D01*
X157851006Y-78725537D01*
X157961320Y-78784502D01*
X158081018Y-78820812D01*
X158205500Y-78833072D01*
X158507250Y-78830000D01*
X158666000Y-78671250D01*
X158666000Y-77597000D01*
X158646000Y-77597000D01*
X158646000Y-77343000D01*
X158666000Y-77343000D01*
X158666000Y-77323000D01*
X158920000Y-77323000D01*
X158920000Y-77343000D01*
X159856750Y-77343000D01*
X160015500Y-77184250D01*
X160018572Y-76745000D01*
X160006312Y-76620518D01*
X159978854Y-76530002D01*
X160332678Y-76530002D01*
X160370000Y-76533678D01*
X160407322Y-76530002D01*
X160407333Y-76530002D01*
X160518986Y-76519005D01*
X160662247Y-76475548D01*
X160794276Y-76404976D01*
X160910001Y-76310003D01*
X160933804Y-76281000D01*
X161171114Y-76043689D01*
X161353666Y-76080001D01*
X161636336Y-76080001D01*
X161913575Y-76024854D01*
X162174728Y-75916681D01*
X162367791Y-75787681D01*
X162234538Y-75897038D01*
%TA.AperFunction,Conductor*%
D30*
G36*
X162234538Y-75897038D02*
G01*
X162124095Y-76031614D01*
X162042028Y-76185150D01*
X161991492Y-76351746D01*
X161974428Y-76525000D01*
X161974428Y-77475000D01*
X161991492Y-77648254D01*
X162042028Y-77814850D01*
X162124095Y-77968386D01*
X162220082Y-78085347D01*
X162161595Y-78156613D01*
X162079528Y-78310149D01*
X162028992Y-78476745D01*
X162011928Y-78649999D01*
X162011928Y-79550001D01*
X162028992Y-79723255D01*
X162079528Y-79889851D01*
X162161595Y-80043387D01*
X162228573Y-80125000D01*
X162161595Y-80206613D01*
X162079528Y-80360149D01*
X162048552Y-80462263D01*
X161358072Y-79771783D01*
X161358072Y-79405999D01*
X161341008Y-79232745D01*
X161290472Y-79066149D01*
X161208405Y-78912613D01*
X161097962Y-78778038D01*
X160963387Y-78667595D01*
X160809851Y-78585528D01*
X160643255Y-78534992D01*
X160470001Y-78517928D01*
X159927910Y-78517928D01*
X159970002Y-78439180D01*
X160006312Y-78319482D01*
X160018572Y-78195000D01*
X160015500Y-77755750D01*
X159856750Y-77597000D01*
X158920000Y-77597000D01*
X158920000Y-78671250D01*
X158988587Y-78739837D01*
X158942038Y-78778038D01*
X158831595Y-78912613D01*
X158787024Y-78996000D01*
X157727351Y-78996000D01*
X157647494Y-78930463D01*
X157537180Y-78871498D01*
X157478000Y-78853546D01*
X157478000Y-78721294D01*
X157548886Y-78683405D01*
X157683462Y-78572962D01*
X157688842Y-78566406D01*
X157754315Y-78646185D01*
X157851006Y-78725537D01*
X157961320Y-78784502D01*
X158081018Y-78820812D01*
X158205500Y-78833072D01*
X158507250Y-78830000D01*
X158666000Y-78671250D01*
X158666000Y-77597000D01*
X158646000Y-77597000D01*
X158646000Y-77343000D01*
X158666000Y-77343000D01*
X158666000Y-77323000D01*
X158920000Y-77323000D01*
X158920000Y-77343000D01*
X159856750Y-77343000D01*
X160015500Y-77184250D01*
X160018572Y-76745000D01*
X160006312Y-76620518D01*
X159978854Y-76530002D01*
X160332678Y-76530002D01*
X160370000Y-76533678D01*
X160407322Y-76530002D01*
X160407333Y-76530002D01*
X160518986Y-76519005D01*
X160662247Y-76475548D01*
X160794276Y-76404976D01*
X160910001Y-76310003D01*
X160933804Y-76281000D01*
X161171114Y-76043689D01*
X161353666Y-76080001D01*
X161636336Y-76080001D01*
X161913575Y-76024854D01*
X162174728Y-75916681D01*
X162367791Y-75787681D01*
X162234538Y-75897038D01*
G37*
%TD.AperFunction*%
D29*
X168250226Y-80051937D02*
X168377532Y-80137000D01*
X168250226Y-80222063D01*
X168206289Y-80266000D01*
X166370148Y-80266000D01*
X166338405Y-80206613D01*
X166271427Y-80125000D01*
X166338405Y-80043387D01*
X166357320Y-80008000D01*
X168206289Y-80008000D01*
X168250226Y-80051937D01*
%TA.AperFunction,Conductor*%
D30*
G36*
X168250226Y-80051937D02*
G01*
X168377532Y-80137000D01*
X168250226Y-80222063D01*
X168206289Y-80266000D01*
X166370148Y-80266000D01*
X166338405Y-80206613D01*
X166271427Y-80125000D01*
X166338405Y-80043387D01*
X166357320Y-80008000D01*
X168206289Y-80008000D01*
X168250226Y-80051937D01*
G37*
%TD.AperFunction*%
%TD*%
D29*
%TO.N,GND*%
X189293666Y-91320001D02*
X189351235Y-91320001D01*
X189351235Y-107519000D01*
X171316200Y-107519000D01*
X171356185Y-107486185D01*
X171435537Y-107389494D01*
X171494502Y-107279180D01*
X171530812Y-107159482D01*
X171543072Y-107035000D01*
X171540000Y-106733250D01*
X171381250Y-106574500D01*
X170307000Y-106574500D01*
X170307000Y-106594500D01*
X170053000Y-106594500D01*
X170053000Y-106574500D01*
X168978750Y-106574500D01*
X168820000Y-106733250D01*
X168816928Y-107035000D01*
X168829188Y-107159482D01*
X168865498Y-107279180D01*
X168924463Y-107389494D01*
X169003815Y-107486185D01*
X169043800Y-107519000D01*
X165849192Y-107519000D01*
X165934705Y-107478508D01*
X168323885Y-106045000D01*
X168818811Y-106045000D01*
X168820000Y-106161750D01*
X168978750Y-106320500D01*
X170053000Y-106320500D01*
X170053000Y-106300500D01*
X170307000Y-106300500D01*
X170307000Y-106320500D01*
X171381250Y-106320500D01*
X171540000Y-106161750D01*
X171541189Y-106045000D01*
X172974000Y-106045000D01*
X173094253Y-106033510D01*
X173213584Y-105998069D01*
X180071584Y-103204069D01*
X180184787Y-103143983D01*
X180281013Y-103065013D01*
X180359983Y-102968787D01*
X180418664Y-102859004D01*
X180454799Y-102739882D01*
X180467000Y-102616000D01*
X180467000Y-100457000D01*
X182767000Y-100457000D01*
X182767000Y-101407000D01*
X182822232Y-101713778D01*
X182936252Y-102003886D01*
X183104678Y-102266175D01*
X183321038Y-102490566D01*
X183577017Y-102668436D01*
X183862779Y-102792949D01*
X183979412Y-102820586D01*
X184225000Y-102700584D01*
X184225000Y-100457000D01*
X184479000Y-100457000D01*
X184479000Y-102700584D01*
X184724588Y-102820586D01*
X184841221Y-102792949D01*
X185126983Y-102668436D01*
X185382962Y-102490566D01*
X185599322Y-102266175D01*
X185767748Y-102003886D01*
X185881768Y-101713778D01*
X185937000Y-101407000D01*
X185937000Y-100457000D01*
X184479000Y-100457000D01*
X184225000Y-100457000D01*
X182767000Y-100457000D01*
X180467000Y-100457000D01*
X180467000Y-99253000D01*
X182767000Y-99253000D01*
X182767000Y-100203000D01*
X184225000Y-100203000D01*
X184225000Y-97959416D01*
X184479000Y-97959416D01*
X184479000Y-100203000D01*
X185937000Y-100203000D01*
X185937000Y-99253000D01*
X185881768Y-98946222D01*
X185767748Y-98656114D01*
X185599322Y-98393825D01*
X185382962Y-98169434D01*
X185126983Y-97991564D01*
X184841221Y-97867051D01*
X184724588Y-97839414D01*
X184479000Y-97959416D01*
X184225000Y-97959416D01*
X183979412Y-97839414D01*
X183862779Y-97867051D01*
X183577017Y-97991564D01*
X183321038Y-98169434D01*
X183104678Y-98393825D01*
X182936252Y-98656114D01*
X182822232Y-98946222D01*
X182767000Y-99253000D01*
X180467000Y-99253000D01*
X180467000Y-98044000D01*
X180454799Y-97920118D01*
X180418664Y-97800996D01*
X180359983Y-97691213D01*
X180281013Y-97594987D01*
X180184787Y-97516017D01*
X180075004Y-97457336D01*
X179955882Y-97421201D01*
X179832000Y-97409000D01*
X176158753Y-97409000D01*
X176176472Y-97375851D01*
X176227008Y-97209255D01*
X176244072Y-97036001D01*
X176244072Y-96422729D01*
X176614213Y-96052588D01*
X178611414Y-96052588D01*
X178639051Y-96169221D01*
X178763564Y-96454983D01*
X178941434Y-96710962D01*
X179165825Y-96927322D01*
X179428114Y-97095748D01*
X179718222Y-97209768D01*
X180025000Y-97265000D01*
X180975000Y-97265000D01*
X180975000Y-95807000D01*
X181229000Y-95807000D01*
X181229000Y-97265000D01*
X182179000Y-97265000D01*
X182485778Y-97209768D01*
X182775886Y-97095748D01*
X183038175Y-96927322D01*
X183262566Y-96710962D01*
X183440436Y-96454983D01*
X183564949Y-96169221D01*
X183592586Y-96052588D01*
X183472584Y-95807000D01*
X181229000Y-95807000D01*
X180975000Y-95807000D01*
X178731416Y-95807000D01*
X178611414Y-96052588D01*
X176614213Y-96052588D01*
X177359389Y-95307412D01*
X178611414Y-95307412D01*
X178731416Y-95553000D01*
X180975000Y-95553000D01*
X180975000Y-94095000D01*
X181229000Y-94095000D01*
X181229000Y-95553000D01*
X183472584Y-95553000D01*
X183592586Y-95307412D01*
X183564949Y-95190779D01*
X183440436Y-94905017D01*
X183262566Y-94649038D01*
X183038175Y-94432678D01*
X182775886Y-94264252D01*
X182485778Y-94150232D01*
X182179000Y-94095000D01*
X181229000Y-94095000D01*
X180975000Y-94095000D01*
X180025000Y-94095000D01*
X179718222Y-94150232D01*
X179428114Y-94264252D01*
X179165825Y-94432678D01*
X178941434Y-94649038D01*
X178763564Y-94905017D01*
X178639051Y-95190779D01*
X178611414Y-95307412D01*
X177359389Y-95307412D01*
X180212802Y-92454000D01*
X187588680Y-92454000D01*
X187626002Y-92457676D01*
X187663324Y-92454000D01*
X187663335Y-92454000D01*
X187774988Y-92443003D01*
X187918249Y-92399546D01*
X188050278Y-92328974D01*
X188166003Y-92234001D01*
X188189806Y-92204997D01*
X189111115Y-91283689D01*
X189293666Y-91320001D01*
%TA.AperFunction,Conductor*%
D30*
G36*
X189293666Y-91320001D02*
G01*
X189351235Y-91320001D01*
X189351235Y-107519000D01*
X171316200Y-107519000D01*
X171356185Y-107486185D01*
X171435537Y-107389494D01*
X171494502Y-107279180D01*
X171530812Y-107159482D01*
X171543072Y-107035000D01*
X171540000Y-106733250D01*
X171381250Y-106574500D01*
X170307000Y-106574500D01*
X170307000Y-106594500D01*
X170053000Y-106594500D01*
X170053000Y-106574500D01*
X168978750Y-106574500D01*
X168820000Y-106733250D01*
X168816928Y-107035000D01*
X168829188Y-107159482D01*
X168865498Y-107279180D01*
X168924463Y-107389494D01*
X169003815Y-107486185D01*
X169043800Y-107519000D01*
X165849192Y-107519000D01*
X165934705Y-107478508D01*
X168323885Y-106045000D01*
X168818811Y-106045000D01*
X168820000Y-106161750D01*
X168978750Y-106320500D01*
X170053000Y-106320500D01*
X170053000Y-106300500D01*
X170307000Y-106300500D01*
X170307000Y-106320500D01*
X171381250Y-106320500D01*
X171540000Y-106161750D01*
X171541189Y-106045000D01*
X172974000Y-106045000D01*
X173094253Y-106033510D01*
X173213584Y-105998069D01*
X180071584Y-103204069D01*
X180184787Y-103143983D01*
X180281013Y-103065013D01*
X180359983Y-102968787D01*
X180418664Y-102859004D01*
X180454799Y-102739882D01*
X180467000Y-102616000D01*
X180467000Y-100457000D01*
X182767000Y-100457000D01*
X182767000Y-101407000D01*
X182822232Y-101713778D01*
X182936252Y-102003886D01*
X183104678Y-102266175D01*
X183321038Y-102490566D01*
X183577017Y-102668436D01*
X183862779Y-102792949D01*
X183979412Y-102820586D01*
X184225000Y-102700584D01*
X184225000Y-100457000D01*
X184479000Y-100457000D01*
X184479000Y-102700584D01*
X184724588Y-102820586D01*
X184841221Y-102792949D01*
X185126983Y-102668436D01*
X185382962Y-102490566D01*
X185599322Y-102266175D01*
X185767748Y-102003886D01*
X185881768Y-101713778D01*
X185937000Y-101407000D01*
X185937000Y-100457000D01*
X184479000Y-100457000D01*
X184225000Y-100457000D01*
X182767000Y-100457000D01*
X180467000Y-100457000D01*
X180467000Y-99253000D01*
X182767000Y-99253000D01*
X182767000Y-100203000D01*
X184225000Y-100203000D01*
X184225000Y-97959416D01*
X184479000Y-97959416D01*
X184479000Y-100203000D01*
X185937000Y-100203000D01*
X185937000Y-99253000D01*
X185881768Y-98946222D01*
X185767748Y-98656114D01*
X185599322Y-98393825D01*
X185382962Y-98169434D01*
X185126983Y-97991564D01*
X184841221Y-97867051D01*
X184724588Y-97839414D01*
X184479000Y-97959416D01*
X184225000Y-97959416D01*
X183979412Y-97839414D01*
X183862779Y-97867051D01*
X183577017Y-97991564D01*
X183321038Y-98169434D01*
X183104678Y-98393825D01*
X182936252Y-98656114D01*
X182822232Y-98946222D01*
X182767000Y-99253000D01*
X180467000Y-99253000D01*
X180467000Y-98044000D01*
X180454799Y-97920118D01*
X180418664Y-97800996D01*
X180359983Y-97691213D01*
X180281013Y-97594987D01*
X180184787Y-97516017D01*
X180075004Y-97457336D01*
X179955882Y-97421201D01*
X179832000Y-97409000D01*
X176158753Y-97409000D01*
X176176472Y-97375851D01*
X176227008Y-97209255D01*
X176244072Y-97036001D01*
X176244072Y-96422729D01*
X176614213Y-96052588D01*
X178611414Y-96052588D01*
X178639051Y-96169221D01*
X178763564Y-96454983D01*
X178941434Y-96710962D01*
X179165825Y-96927322D01*
X179428114Y-97095748D01*
X179718222Y-97209768D01*
X180025000Y-97265000D01*
X180975000Y-97265000D01*
X180975000Y-95807000D01*
X181229000Y-95807000D01*
X181229000Y-97265000D01*
X182179000Y-97265000D01*
X182485778Y-97209768D01*
X182775886Y-97095748D01*
X183038175Y-96927322D01*
X183262566Y-96710962D01*
X183440436Y-96454983D01*
X183564949Y-96169221D01*
X183592586Y-96052588D01*
X183472584Y-95807000D01*
X181229000Y-95807000D01*
X180975000Y-95807000D01*
X178731416Y-95807000D01*
X178611414Y-96052588D01*
X176614213Y-96052588D01*
X177359389Y-95307412D01*
X178611414Y-95307412D01*
X178731416Y-95553000D01*
X180975000Y-95553000D01*
X180975000Y-94095000D01*
X181229000Y-94095000D01*
X181229000Y-95553000D01*
X183472584Y-95553000D01*
X183592586Y-95307412D01*
X183564949Y-95190779D01*
X183440436Y-94905017D01*
X183262566Y-94649038D01*
X183038175Y-94432678D01*
X182775886Y-94264252D01*
X182485778Y-94150232D01*
X182179000Y-94095000D01*
X181229000Y-94095000D01*
X180975000Y-94095000D01*
X180025000Y-94095000D01*
X179718222Y-94150232D01*
X179428114Y-94264252D01*
X179165825Y-94432678D01*
X178941434Y-94649038D01*
X178763564Y-94905017D01*
X178639051Y-95190779D01*
X178611414Y-95307412D01*
X177359389Y-95307412D01*
X180212802Y-92454000D01*
X187588680Y-92454000D01*
X187626002Y-92457676D01*
X187663324Y-92454000D01*
X187663335Y-92454000D01*
X187774988Y-92443003D01*
X187918249Y-92399546D01*
X188050278Y-92328974D01*
X188166003Y-92234001D01*
X188189806Y-92204997D01*
X189111115Y-91283689D01*
X189293666Y-91320001D01*
G37*
%TD.AperFunction*%
D29*
X137520364Y-90799760D02*
X137720242Y-90999638D01*
X137955274Y-91156681D01*
X138216427Y-91264854D01*
X138493666Y-91320001D01*
X138495199Y-91320001D01*
X139215000Y-92039802D01*
X139215000Y-92101939D01*
X139254774Y-92301898D01*
X139332795Y-92490256D01*
X139446063Y-92659774D01*
X139590226Y-92803937D01*
X139759744Y-92917205D01*
X139948102Y-92995226D01*
X140148061Y-93035000D01*
X140351939Y-93035000D01*
X140551898Y-92995226D01*
X140740256Y-92917205D01*
X140909774Y-92803937D01*
X141053937Y-92659774D01*
X141167205Y-92490256D01*
X141245226Y-92301898D01*
X141285000Y-92101939D01*
X141285000Y-91898061D01*
X141245226Y-91698102D01*
X141167205Y-91509744D01*
X141053937Y-91340226D01*
X141033712Y-91320001D01*
X141316336Y-91320001D01*
X141498887Y-91283689D01*
X142251714Y-92036516D01*
X142254774Y-92051898D01*
X142332795Y-92240256D01*
X142446063Y-92409774D01*
X142590226Y-92553937D01*
X142759744Y-92667205D01*
X142948102Y-92745226D01*
X143148061Y-92785000D01*
X143351939Y-92785000D01*
X143551898Y-92745226D01*
X143740256Y-92667205D01*
X143909774Y-92553937D01*
X144053937Y-92409774D01*
X144167205Y-92240256D01*
X144245226Y-92051898D01*
X144285000Y-91851939D01*
X144285000Y-91648061D01*
X144245226Y-91448102D01*
X144167205Y-91259744D01*
X144162589Y-91252836D01*
X144394728Y-91156681D01*
X144629760Y-90999638D01*
X144629797Y-90999601D01*
X146391199Y-92761003D01*
X146414997Y-92790001D01*
X146530722Y-92884974D01*
X146662751Y-92955546D01*
X146764557Y-92986428D01*
X145524500Y-92986428D01*
X145400018Y-92998688D01*
X145280320Y-93034998D01*
X145170006Y-93093963D01*
X145073315Y-93173315D01*
X144993963Y-93270006D01*
X144934998Y-93380320D01*
X144898688Y-93500018D01*
X144886428Y-93624500D01*
X144886428Y-95142387D01*
X144790996Y-95171336D01*
X144681213Y-95230017D01*
X144584987Y-95308987D01*
X144506017Y-95405213D01*
X144447336Y-95514996D01*
X144411201Y-95634118D01*
X144399000Y-95758000D01*
X144399000Y-98298000D01*
X144411201Y-98421882D01*
X144447336Y-98541004D01*
X144506017Y-98650787D01*
X144584987Y-98747013D01*
X144681213Y-98825983D01*
X144790996Y-98884664D01*
X144910118Y-98920799D01*
X145017457Y-98931371D01*
X144969069Y-99033228D01*
X144898687Y-99312180D01*
X144884079Y-99599502D01*
X144925806Y-99884154D01*
X145022263Y-100155196D01*
X145092519Y-100286633D01*
X145339091Y-100361304D01*
X146170395Y-99530000D01*
X146156253Y-99515858D01*
X146335858Y-99336253D01*
X146350000Y-99350395D01*
X146364143Y-99336253D01*
X146543748Y-99515858D01*
X146529605Y-99530000D01*
X146543748Y-99544143D01*
X146364143Y-99723748D01*
X146350000Y-99709605D01*
X145518696Y-100540909D01*
X145593367Y-100787481D01*
X145853228Y-100910931D01*
X146132180Y-100981313D01*
X146419502Y-100995921D01*
X146704154Y-100954194D01*
X146975196Y-100857737D01*
X147106633Y-100787481D01*
X147181303Y-100540911D01*
X147193000Y-100552608D01*
X147193000Y-101796052D01*
X147102787Y-101722017D01*
X146993004Y-101663336D01*
X146873882Y-101627201D01*
X146750000Y-101615000D01*
X140374757Y-101615000D01*
X140407170Y-101597675D01*
X140654608Y-101394608D01*
X140857675Y-101147170D01*
X141008568Y-100864869D01*
X141101487Y-100558556D01*
X141125000Y-100319824D01*
X141125000Y-98180176D01*
X141101487Y-97941444D01*
X141008568Y-97635131D01*
X140857675Y-97352830D01*
X140654608Y-97105392D01*
X140407169Y-96902325D01*
X140124868Y-96751432D01*
X139818555Y-96658513D01*
X139500000Y-96627138D01*
X139181444Y-96658513D01*
X138875131Y-96751432D01*
X138592830Y-96902325D01*
X138345392Y-97105392D01*
X138142325Y-97352831D01*
X137991432Y-97635132D01*
X137898513Y-97941445D01*
X137875000Y-98180177D01*
X137875001Y-100319824D01*
X137898514Y-100558556D01*
X137991433Y-100864869D01*
X138142326Y-101147170D01*
X138345393Y-101394608D01*
X138592831Y-101597675D01*
X138625244Y-101615000D01*
X137385000Y-101615000D01*
X137385000Y-96500000D01*
X137372799Y-96376118D01*
X137336664Y-96256996D01*
X137277983Y-96147213D01*
X137199013Y-96050987D01*
X137102787Y-95972017D01*
X136993004Y-95913336D01*
X136873882Y-95877201D01*
X136750000Y-95865000D01*
X132750000Y-95865000D01*
X132626118Y-95877201D01*
X132506996Y-95913336D01*
X132397213Y-95972017D01*
X132300987Y-96050987D01*
X132222017Y-96147213D01*
X132163336Y-96256996D01*
X132127201Y-96376118D01*
X132115000Y-96500000D01*
X132115000Y-106500000D01*
X132127201Y-106623882D01*
X132163336Y-106743004D01*
X132222017Y-106852787D01*
X132300987Y-106949013D01*
X132397213Y-107027983D01*
X132506996Y-107086664D01*
X132626118Y-107122799D01*
X132750000Y-107135000D01*
X142115000Y-107135000D01*
X142115000Y-107519000D01*
X131185235Y-107519000D01*
X131185235Y-91314253D01*
X131433575Y-91264854D01*
X131694728Y-91156681D01*
X131929760Y-90999638D01*
X132129638Y-90799760D01*
X132285001Y-90567242D01*
X132440364Y-90799760D01*
X132640242Y-90999638D01*
X132875274Y-91156681D01*
X133136427Y-91264854D01*
X133413666Y-91320001D01*
X133696336Y-91320001D01*
X133973575Y-91264854D01*
X134234728Y-91156681D01*
X134469760Y-90999638D01*
X134669638Y-90799760D01*
X134825001Y-90567242D01*
X134980364Y-90799760D01*
X135180242Y-90999638D01*
X135415274Y-91156681D01*
X135676427Y-91264854D01*
X135953666Y-91320001D01*
X136236336Y-91320001D01*
X136513575Y-91264854D01*
X136774728Y-91156681D01*
X137009760Y-90999638D01*
X137209638Y-90799760D01*
X137365001Y-90567242D01*
X137520364Y-90799760D01*
%TA.AperFunction,Conductor*%
D30*
G36*
X137520364Y-90799760D02*
G01*
X137720242Y-90999638D01*
X137955274Y-91156681D01*
X138216427Y-91264854D01*
X138493666Y-91320001D01*
X138495199Y-91320001D01*
X139215000Y-92039802D01*
X139215000Y-92101939D01*
X139254774Y-92301898D01*
X139332795Y-92490256D01*
X139446063Y-92659774D01*
X139590226Y-92803937D01*
X139759744Y-92917205D01*
X139948102Y-92995226D01*
X140148061Y-93035000D01*
X140351939Y-93035000D01*
X140551898Y-92995226D01*
X140740256Y-92917205D01*
X140909774Y-92803937D01*
X141053937Y-92659774D01*
X141167205Y-92490256D01*
X141245226Y-92301898D01*
X141285000Y-92101939D01*
X141285000Y-91898061D01*
X141245226Y-91698102D01*
X141167205Y-91509744D01*
X141053937Y-91340226D01*
X141033712Y-91320001D01*
X141316336Y-91320001D01*
X141498887Y-91283689D01*
X142251714Y-92036516D01*
X142254774Y-92051898D01*
X142332795Y-92240256D01*
X142446063Y-92409774D01*
X142590226Y-92553937D01*
X142759744Y-92667205D01*
X142948102Y-92745226D01*
X143148061Y-92785000D01*
X143351939Y-92785000D01*
X143551898Y-92745226D01*
X143740256Y-92667205D01*
X143909774Y-92553937D01*
X144053937Y-92409774D01*
X144167205Y-92240256D01*
X144245226Y-92051898D01*
X144285000Y-91851939D01*
X144285000Y-91648061D01*
X144245226Y-91448102D01*
X144167205Y-91259744D01*
X144162589Y-91252836D01*
X144394728Y-91156681D01*
X144629760Y-90999638D01*
X144629797Y-90999601D01*
X146391199Y-92761003D01*
X146414997Y-92790001D01*
X146530722Y-92884974D01*
X146662751Y-92955546D01*
X146764557Y-92986428D01*
X145524500Y-92986428D01*
X145400018Y-92998688D01*
X145280320Y-93034998D01*
X145170006Y-93093963D01*
X145073315Y-93173315D01*
X144993963Y-93270006D01*
X144934998Y-93380320D01*
X144898688Y-93500018D01*
X144886428Y-93624500D01*
X144886428Y-95142387D01*
X144790996Y-95171336D01*
X144681213Y-95230017D01*
X144584987Y-95308987D01*
X144506017Y-95405213D01*
X144447336Y-95514996D01*
X144411201Y-95634118D01*
X144399000Y-95758000D01*
X144399000Y-98298000D01*
X144411201Y-98421882D01*
X144447336Y-98541004D01*
X144506017Y-98650787D01*
X144584987Y-98747013D01*
X144681213Y-98825983D01*
X144790996Y-98884664D01*
X144910118Y-98920799D01*
X145017457Y-98931371D01*
X144969069Y-99033228D01*
X144898687Y-99312180D01*
X144884079Y-99599502D01*
X144925806Y-99884154D01*
X145022263Y-100155196D01*
X145092519Y-100286633D01*
X145339091Y-100361304D01*
X146170395Y-99530000D01*
X146156253Y-99515858D01*
X146335858Y-99336253D01*
X146350000Y-99350395D01*
X146364143Y-99336253D01*
X146543748Y-99515858D01*
X146529605Y-99530000D01*
X146543748Y-99544143D01*
X146364143Y-99723748D01*
X146350000Y-99709605D01*
X145518696Y-100540909D01*
X145593367Y-100787481D01*
X145853228Y-100910931D01*
X146132180Y-100981313D01*
X146419502Y-100995921D01*
X146704154Y-100954194D01*
X146975196Y-100857737D01*
X147106633Y-100787481D01*
X147181303Y-100540911D01*
X147193000Y-100552608D01*
X147193000Y-101796052D01*
X147102787Y-101722017D01*
X146993004Y-101663336D01*
X146873882Y-101627201D01*
X146750000Y-101615000D01*
X140374757Y-101615000D01*
X140407170Y-101597675D01*
X140654608Y-101394608D01*
X140857675Y-101147170D01*
X141008568Y-100864869D01*
X141101487Y-100558556D01*
X141125000Y-100319824D01*
X141125000Y-98180176D01*
X141101487Y-97941444D01*
X141008568Y-97635131D01*
X140857675Y-97352830D01*
X140654608Y-97105392D01*
X140407169Y-96902325D01*
X140124868Y-96751432D01*
X139818555Y-96658513D01*
X139500000Y-96627138D01*
X139181444Y-96658513D01*
X138875131Y-96751432D01*
X138592830Y-96902325D01*
X138345392Y-97105392D01*
X138142325Y-97352831D01*
X137991432Y-97635132D01*
X137898513Y-97941445D01*
X137875000Y-98180177D01*
X137875001Y-100319824D01*
X137898514Y-100558556D01*
X137991433Y-100864869D01*
X138142326Y-101147170D01*
X138345393Y-101394608D01*
X138592831Y-101597675D01*
X138625244Y-101615000D01*
X137385000Y-101615000D01*
X137385000Y-96500000D01*
X137372799Y-96376118D01*
X137336664Y-96256996D01*
X137277983Y-96147213D01*
X137199013Y-96050987D01*
X137102787Y-95972017D01*
X136993004Y-95913336D01*
X136873882Y-95877201D01*
X136750000Y-95865000D01*
X132750000Y-95865000D01*
X132626118Y-95877201D01*
X132506996Y-95913336D01*
X132397213Y-95972017D01*
X132300987Y-96050987D01*
X132222017Y-96147213D01*
X132163336Y-96256996D01*
X132127201Y-96376118D01*
X132115000Y-96500000D01*
X132115000Y-106500000D01*
X132127201Y-106623882D01*
X132163336Y-106743004D01*
X132222017Y-106852787D01*
X132300987Y-106949013D01*
X132397213Y-107027983D01*
X132506996Y-107086664D01*
X132626118Y-107122799D01*
X132750000Y-107135000D01*
X142115000Y-107135000D01*
X142115000Y-107519000D01*
X131185235Y-107519000D01*
X131185235Y-91314253D01*
X131433575Y-91264854D01*
X131694728Y-91156681D01*
X131929760Y-90999638D01*
X132129638Y-90799760D01*
X132285001Y-90567242D01*
X132440364Y-90799760D01*
X132640242Y-90999638D01*
X132875274Y-91156681D01*
X133136427Y-91264854D01*
X133413666Y-91320001D01*
X133696336Y-91320001D01*
X133973575Y-91264854D01*
X134234728Y-91156681D01*
X134469760Y-90999638D01*
X134669638Y-90799760D01*
X134825001Y-90567242D01*
X134980364Y-90799760D01*
X135180242Y-90999638D01*
X135415274Y-91156681D01*
X135676427Y-91264854D01*
X135953666Y-91320001D01*
X136236336Y-91320001D01*
X136513575Y-91264854D01*
X136774728Y-91156681D01*
X137009760Y-90999638D01*
X137209638Y-90799760D01*
X137365001Y-90567242D01*
X137520364Y-90799760D01*
G37*
%TD.AperFunction*%
D29*
X161483748Y-105395858D02*
X161469605Y-105410000D01*
X161483748Y-105424143D01*
X161304143Y-105603748D01*
X161290000Y-105589605D01*
X161275858Y-105603748D01*
X161096253Y-105424143D01*
X161110395Y-105410000D01*
X161096253Y-105395858D01*
X161275858Y-105216253D01*
X161290000Y-105230395D01*
X161304143Y-105216253D01*
X161483748Y-105395858D01*
%TA.AperFunction,Conductor*%
D30*
G36*
X161483748Y-105395858D02*
G01*
X161469605Y-105410000D01*
X161483748Y-105424143D01*
X161304143Y-105603748D01*
X161290000Y-105589605D01*
X161275858Y-105603748D01*
X161096253Y-105424143D01*
X161110395Y-105410000D01*
X161096253Y-105395858D01*
X161275858Y-105216253D01*
X161290000Y-105230395D01*
X161304143Y-105216253D01*
X161483748Y-105395858D01*
G37*
%TD.AperFunction*%
D29*
X153222038Y-101377962D02*
X153356613Y-101488405D01*
X153510149Y-101570472D01*
X153676745Y-101621008D01*
X153849999Y-101638072D01*
X154215783Y-101638072D01*
X155496602Y-102918892D01*
X155397213Y-102972017D01*
X155300987Y-103050987D01*
X155222017Y-103147213D01*
X155163336Y-103256996D01*
X155127201Y-103376118D01*
X155115000Y-103500000D01*
X155115000Y-104865000D01*
X154502341Y-104865000D01*
X154512812Y-104830482D01*
X154525072Y-104706000D01*
X154522000Y-104404250D01*
X154363250Y-104245500D01*
X153289000Y-104245500D01*
X153289000Y-104265500D01*
X153035000Y-104265500D01*
X153035000Y-104245500D01*
X151960750Y-104245500D01*
X151802000Y-104404250D01*
X151798928Y-104706000D01*
X151811188Y-104830482D01*
X151821659Y-104865000D01*
X151257000Y-104865000D01*
X151257000Y-103531000D01*
X151798928Y-103531000D01*
X151802000Y-103832750D01*
X151960750Y-103991500D01*
X153035000Y-103991500D01*
X153035000Y-103054750D01*
X153289000Y-103054750D01*
X153289000Y-103991500D01*
X154363250Y-103991500D01*
X154522000Y-103832750D01*
X154525072Y-103531000D01*
X154512812Y-103406518D01*
X154476502Y-103286820D01*
X154417537Y-103176506D01*
X154338185Y-103079815D01*
X154241494Y-103000463D01*
X154131180Y-102941498D01*
X154011482Y-102905188D01*
X153887000Y-102892928D01*
X153447750Y-102896000D01*
X153289000Y-103054750D01*
X153035000Y-103054750D01*
X152876250Y-102896000D01*
X152437000Y-102892928D01*
X152312518Y-102905188D01*
X152192820Y-102941498D01*
X152082506Y-103000463D01*
X151985815Y-103079815D01*
X151906463Y-103176506D01*
X151847498Y-103286820D01*
X151811188Y-103406518D01*
X151798928Y-103531000D01*
X151257000Y-103531000D01*
X151257000Y-101406655D01*
X151356613Y-101488405D01*
X151510149Y-101570472D01*
X151676745Y-101621008D01*
X151849999Y-101638072D01*
X152550001Y-101638072D01*
X152723255Y-101621008D01*
X152889851Y-101570472D01*
X153043387Y-101488405D01*
X153177962Y-101377962D01*
X153200000Y-101351109D01*
X153222038Y-101377962D01*
%TA.AperFunction,Conductor*%
D30*
G36*
X153222038Y-101377962D02*
G01*
X153356613Y-101488405D01*
X153510149Y-101570472D01*
X153676745Y-101621008D01*
X153849999Y-101638072D01*
X154215783Y-101638072D01*
X155496602Y-102918892D01*
X155397213Y-102972017D01*
X155300987Y-103050987D01*
X155222017Y-103147213D01*
X155163336Y-103256996D01*
X155127201Y-103376118D01*
X155115000Y-103500000D01*
X155115000Y-104865000D01*
X154502341Y-104865000D01*
X154512812Y-104830482D01*
X154525072Y-104706000D01*
X154522000Y-104404250D01*
X154363250Y-104245500D01*
X153289000Y-104245500D01*
X153289000Y-104265500D01*
X153035000Y-104265500D01*
X153035000Y-104245500D01*
X151960750Y-104245500D01*
X151802000Y-104404250D01*
X151798928Y-104706000D01*
X151811188Y-104830482D01*
X151821659Y-104865000D01*
X151257000Y-104865000D01*
X151257000Y-103531000D01*
X151798928Y-103531000D01*
X151802000Y-103832750D01*
X151960750Y-103991500D01*
X153035000Y-103991500D01*
X153035000Y-103054750D01*
X153289000Y-103054750D01*
X153289000Y-103991500D01*
X154363250Y-103991500D01*
X154522000Y-103832750D01*
X154525072Y-103531000D01*
X154512812Y-103406518D01*
X154476502Y-103286820D01*
X154417537Y-103176506D01*
X154338185Y-103079815D01*
X154241494Y-103000463D01*
X154131180Y-102941498D01*
X154011482Y-102905188D01*
X153887000Y-102892928D01*
X153447750Y-102896000D01*
X153289000Y-103054750D01*
X153035000Y-103054750D01*
X152876250Y-102896000D01*
X152437000Y-102892928D01*
X152312518Y-102905188D01*
X152192820Y-102941498D01*
X152082506Y-103000463D01*
X151985815Y-103079815D01*
X151906463Y-103176506D01*
X151847498Y-103286820D01*
X151811188Y-103406518D01*
X151798928Y-103531000D01*
X151257000Y-103531000D01*
X151257000Y-101406655D01*
X151356613Y-101488405D01*
X151510149Y-101570472D01*
X151676745Y-101621008D01*
X151849999Y-101638072D01*
X152550001Y-101638072D01*
X152723255Y-101621008D01*
X152889851Y-101570472D01*
X153043387Y-101488405D01*
X153177962Y-101377962D01*
X153200000Y-101351109D01*
X153222038Y-101377962D01*
G37*
%TD.AperFunction*%
D29*
X164645720Y-102216202D02*
X164765418Y-102252512D01*
X164889900Y-102264772D01*
X165502459Y-102264772D01*
X165557508Y-102281471D01*
X165694868Y-102295000D01*
X166258069Y-102295000D01*
X164454785Y-102909756D01*
X164493205Y-102852256D01*
X164571226Y-102663898D01*
X164611000Y-102463939D01*
X164611000Y-102260061D01*
X164597107Y-102190218D01*
X164645720Y-102216202D01*
%TA.AperFunction,Conductor*%
D30*
G36*
X164645720Y-102216202D02*
G01*
X164765418Y-102252512D01*
X164889900Y-102264772D01*
X165502459Y-102264772D01*
X165557508Y-102281471D01*
X165694868Y-102295000D01*
X166258069Y-102295000D01*
X164454785Y-102909756D01*
X164493205Y-102852256D01*
X164571226Y-102663898D01*
X164611000Y-102463939D01*
X164611000Y-102260061D01*
X164597107Y-102190218D01*
X164645720Y-102216202D01*
G37*
%TD.AperFunction*%
D29*
X178160364Y-90799760D02*
X178360242Y-90999638D01*
X178595274Y-91156681D01*
X178856427Y-91264854D01*
X179133666Y-91320001D01*
X179197197Y-91320001D01*
X175269271Y-95247928D01*
X174655999Y-95247928D01*
X174482745Y-95264992D01*
X174316149Y-95315528D01*
X174162613Y-95397595D01*
X174028038Y-95508038D01*
X174006000Y-95534891D01*
X173983962Y-95508038D01*
X173849387Y-95397595D01*
X173695851Y-95315528D01*
X173529255Y-95264992D01*
X173356001Y-95247928D01*
X172655999Y-95247928D01*
X172482745Y-95264992D01*
X172316149Y-95315528D01*
X172162613Y-95397595D01*
X172028038Y-95508038D01*
X171917595Y-95642613D01*
X171835528Y-95796149D01*
X171826473Y-95826000D01*
X171588527Y-95826000D01*
X171579472Y-95796149D01*
X171497405Y-95642613D01*
X171386962Y-95508038D01*
X171252387Y-95397595D01*
X171098851Y-95315528D01*
X170932255Y-95264992D01*
X170759001Y-95247928D01*
X170108999Y-95247928D01*
X169935745Y-95264992D01*
X169769149Y-95315528D01*
X169615613Y-95397595D01*
X169481038Y-95508038D01*
X169475658Y-95514594D01*
X169410185Y-95434815D01*
X169313494Y-95355463D01*
X169203180Y-95296498D01*
X169083482Y-95260188D01*
X168959000Y-95247928D01*
X168669750Y-95251000D01*
X168511000Y-95409750D01*
X168511000Y-96459000D01*
X168531000Y-96459000D01*
X168531000Y-96713000D01*
X168511000Y-96713000D01*
X168511000Y-98679000D01*
X168531000Y-98679000D01*
X168531000Y-98933000D01*
X168511000Y-98933000D01*
X168511000Y-99982250D01*
X168669750Y-100141000D01*
X168959000Y-100144072D01*
X169083482Y-100131812D01*
X169203180Y-100095502D01*
X169313494Y-100036537D01*
X169410185Y-99957185D01*
X169475658Y-99877406D01*
X169481038Y-99883962D01*
X169615613Y-99994405D01*
X169769149Y-100076472D01*
X169935745Y-100127008D01*
X170108999Y-100144072D01*
X170759001Y-100144072D01*
X170932255Y-100127008D01*
X171098851Y-100076472D01*
X171252387Y-99994405D01*
X171386962Y-99883962D01*
X171497405Y-99749387D01*
X171579472Y-99595851D01*
X171588527Y-99566000D01*
X171826473Y-99566000D01*
X171835528Y-99595851D01*
X171917595Y-99749387D01*
X172028038Y-99883962D01*
X172162613Y-99994405D01*
X172316149Y-100076472D01*
X172482745Y-100127008D01*
X172587305Y-100137306D01*
X168103617Y-101665836D01*
X168176997Y-101528550D01*
X168191014Y-101482342D01*
X168230462Y-101352302D01*
X168248514Y-101169010D01*
X168243990Y-101123075D01*
X168243990Y-99995260D01*
X168257000Y-99982250D01*
X168257000Y-98933000D01*
X168243990Y-98933000D01*
X168243990Y-98679000D01*
X168257000Y-98679000D01*
X168257000Y-96713000D01*
X168237000Y-96713000D01*
X168237000Y-96459000D01*
X168257000Y-96459000D01*
X168257000Y-95689492D01*
X168260000Y-95659033D01*
X168260000Y-95659025D01*
X168263676Y-95621700D01*
X168260000Y-95584375D01*
X168260000Y-94953711D01*
X168303937Y-94909774D01*
X168417205Y-94740256D01*
X168495226Y-94551898D01*
X168535000Y-94351939D01*
X168535000Y-94148061D01*
X168495226Y-93948102D01*
X168417205Y-93759744D01*
X168303937Y-93590226D01*
X168159774Y-93446063D01*
X167990256Y-93332795D01*
X167801898Y-93254774D01*
X167601939Y-93215000D01*
X167492413Y-93215000D01*
X167534683Y-93075656D01*
X167545471Y-93040093D01*
X167549890Y-92995226D01*
X167559000Y-92902732D01*
X167559000Y-92902726D01*
X167563523Y-92856801D01*
X167559000Y-92810876D01*
X167559000Y-92649295D01*
X167619226Y-92503898D01*
X167659000Y-92303939D01*
X167659000Y-92100061D01*
X167619226Y-91900102D01*
X167541205Y-91711744D01*
X167427937Y-91542226D01*
X167283774Y-91398063D01*
X167114256Y-91284795D01*
X167029845Y-91249831D01*
X167254728Y-91156681D01*
X167489760Y-90999638D01*
X167689638Y-90799760D01*
X167845001Y-90567242D01*
X168000364Y-90799760D01*
X168200242Y-90999638D01*
X168435274Y-91156681D01*
X168696427Y-91264854D01*
X168973666Y-91320001D01*
X169256336Y-91320001D01*
X169533575Y-91264854D01*
X169794728Y-91156681D01*
X170029760Y-90999638D01*
X170229638Y-90799760D01*
X170385001Y-90567242D01*
X170540364Y-90799760D01*
X170740242Y-90999638D01*
X170975274Y-91156681D01*
X171236427Y-91264854D01*
X171513666Y-91320001D01*
X171796336Y-91320001D01*
X172073575Y-91264854D01*
X172334728Y-91156681D01*
X172569760Y-90999638D01*
X172769638Y-90799760D01*
X172925001Y-90567242D01*
X173080364Y-90799760D01*
X173280242Y-90999638D01*
X173515274Y-91156681D01*
X173776427Y-91264854D01*
X174053666Y-91320001D01*
X174336336Y-91320001D01*
X174613575Y-91264854D01*
X174874728Y-91156681D01*
X175109760Y-90999638D01*
X175309638Y-90799760D01*
X175465001Y-90567242D01*
X175620364Y-90799760D01*
X175820242Y-90999638D01*
X176055274Y-91156681D01*
X176316427Y-91264854D01*
X176593666Y-91320001D01*
X176876336Y-91320001D01*
X177153575Y-91264854D01*
X177414728Y-91156681D01*
X177649760Y-90999638D01*
X177849638Y-90799760D01*
X178005001Y-90567242D01*
X178160364Y-90799760D01*
%TA.AperFunction,Conductor*%
D30*
G36*
X178160364Y-90799760D02*
G01*
X178360242Y-90999638D01*
X178595274Y-91156681D01*
X178856427Y-91264854D01*
X179133666Y-91320001D01*
X179197197Y-91320001D01*
X175269271Y-95247928D01*
X174655999Y-95247928D01*
X174482745Y-95264992D01*
X174316149Y-95315528D01*
X174162613Y-95397595D01*
X174028038Y-95508038D01*
X174006000Y-95534891D01*
X173983962Y-95508038D01*
X173849387Y-95397595D01*
X173695851Y-95315528D01*
X173529255Y-95264992D01*
X173356001Y-95247928D01*
X172655999Y-95247928D01*
X172482745Y-95264992D01*
X172316149Y-95315528D01*
X172162613Y-95397595D01*
X172028038Y-95508038D01*
X171917595Y-95642613D01*
X171835528Y-95796149D01*
X171826473Y-95826000D01*
X171588527Y-95826000D01*
X171579472Y-95796149D01*
X171497405Y-95642613D01*
X171386962Y-95508038D01*
X171252387Y-95397595D01*
X171098851Y-95315528D01*
X170932255Y-95264992D01*
X170759001Y-95247928D01*
X170108999Y-95247928D01*
X169935745Y-95264992D01*
X169769149Y-95315528D01*
X169615613Y-95397595D01*
X169481038Y-95508038D01*
X169475658Y-95514594D01*
X169410185Y-95434815D01*
X169313494Y-95355463D01*
X169203180Y-95296498D01*
X169083482Y-95260188D01*
X168959000Y-95247928D01*
X168669750Y-95251000D01*
X168511000Y-95409750D01*
X168511000Y-96459000D01*
X168531000Y-96459000D01*
X168531000Y-96713000D01*
X168511000Y-96713000D01*
X168511000Y-98679000D01*
X168531000Y-98679000D01*
X168531000Y-98933000D01*
X168511000Y-98933000D01*
X168511000Y-99982250D01*
X168669750Y-100141000D01*
X168959000Y-100144072D01*
X169083482Y-100131812D01*
X169203180Y-100095502D01*
X169313494Y-100036537D01*
X169410185Y-99957185D01*
X169475658Y-99877406D01*
X169481038Y-99883962D01*
X169615613Y-99994405D01*
X169769149Y-100076472D01*
X169935745Y-100127008D01*
X170108999Y-100144072D01*
X170759001Y-100144072D01*
X170932255Y-100127008D01*
X171098851Y-100076472D01*
X171252387Y-99994405D01*
X171386962Y-99883962D01*
X171497405Y-99749387D01*
X171579472Y-99595851D01*
X171588527Y-99566000D01*
X171826473Y-99566000D01*
X171835528Y-99595851D01*
X171917595Y-99749387D01*
X172028038Y-99883962D01*
X172162613Y-99994405D01*
X172316149Y-100076472D01*
X172482745Y-100127008D01*
X172587305Y-100137306D01*
X168103617Y-101665836D01*
X168176997Y-101528550D01*
X168191014Y-101482342D01*
X168230462Y-101352302D01*
X168248514Y-101169010D01*
X168243990Y-101123075D01*
X168243990Y-99995260D01*
X168257000Y-99982250D01*
X168257000Y-98933000D01*
X168243990Y-98933000D01*
X168243990Y-98679000D01*
X168257000Y-98679000D01*
X168257000Y-96713000D01*
X168237000Y-96713000D01*
X168237000Y-96459000D01*
X168257000Y-96459000D01*
X168257000Y-95689492D01*
X168260000Y-95659033D01*
X168260000Y-95659025D01*
X168263676Y-95621700D01*
X168260000Y-95584375D01*
X168260000Y-94953711D01*
X168303937Y-94909774D01*
X168417205Y-94740256D01*
X168495226Y-94551898D01*
X168535000Y-94351939D01*
X168535000Y-94148061D01*
X168495226Y-93948102D01*
X168417205Y-93759744D01*
X168303937Y-93590226D01*
X168159774Y-93446063D01*
X167990256Y-93332795D01*
X167801898Y-93254774D01*
X167601939Y-93215000D01*
X167492413Y-93215000D01*
X167534683Y-93075656D01*
X167545471Y-93040093D01*
X167549890Y-92995226D01*
X167559000Y-92902732D01*
X167559000Y-92902726D01*
X167563523Y-92856801D01*
X167559000Y-92810876D01*
X167559000Y-92649295D01*
X167619226Y-92503898D01*
X167659000Y-92303939D01*
X167659000Y-92100061D01*
X167619226Y-91900102D01*
X167541205Y-91711744D01*
X167427937Y-91542226D01*
X167283774Y-91398063D01*
X167114256Y-91284795D01*
X167029845Y-91249831D01*
X167254728Y-91156681D01*
X167489760Y-90999638D01*
X167689638Y-90799760D01*
X167845001Y-90567242D01*
X168000364Y-90799760D01*
X168200242Y-90999638D01*
X168435274Y-91156681D01*
X168696427Y-91264854D01*
X168973666Y-91320001D01*
X169256336Y-91320001D01*
X169533575Y-91264854D01*
X169794728Y-91156681D01*
X170029760Y-90999638D01*
X170229638Y-90799760D01*
X170385001Y-90567242D01*
X170540364Y-90799760D01*
X170740242Y-90999638D01*
X170975274Y-91156681D01*
X171236427Y-91264854D01*
X171513666Y-91320001D01*
X171796336Y-91320001D01*
X172073575Y-91264854D01*
X172334728Y-91156681D01*
X172569760Y-90999638D01*
X172769638Y-90799760D01*
X172925001Y-90567242D01*
X173080364Y-90799760D01*
X173280242Y-90999638D01*
X173515274Y-91156681D01*
X173776427Y-91264854D01*
X174053666Y-91320001D01*
X174336336Y-91320001D01*
X174613575Y-91264854D01*
X174874728Y-91156681D01*
X175109760Y-90999638D01*
X175309638Y-90799760D01*
X175465001Y-90567242D01*
X175620364Y-90799760D01*
X175820242Y-90999638D01*
X176055274Y-91156681D01*
X176316427Y-91264854D01*
X176593666Y-91320001D01*
X176876336Y-91320001D01*
X177153575Y-91264854D01*
X177414728Y-91156681D01*
X177649760Y-90999638D01*
X177849638Y-90799760D01*
X178005001Y-90567242D01*
X178160364Y-90799760D01*
G37*
%TD.AperFunction*%
D29*
X157000711Y-101427000D02*
X156649290Y-101427000D01*
X155438072Y-100215783D01*
X155438072Y-99864361D01*
X157000711Y-101427000D01*
%TA.AperFunction,Conductor*%
D30*
G36*
X157000711Y-101427000D02*
G01*
X156649290Y-101427000D01*
X155438072Y-100215783D01*
X155438072Y-99864361D01*
X157000711Y-101427000D01*
G37*
%TD.AperFunction*%
D29*
X159083524Y-100963721D02*
X159073300Y-101074250D01*
X159232050Y-101233000D01*
X160432200Y-101233000D01*
X160432200Y-101213000D01*
X160686200Y-101213000D01*
X160686200Y-101233000D01*
X160706200Y-101233000D01*
X160706200Y-101427000D01*
X158969515Y-101427000D01*
X158983226Y-101393898D01*
X159023000Y-101193939D01*
X159023000Y-100990061D01*
X158995140Y-100850000D01*
X159119035Y-100850000D01*
X159083524Y-100963721D01*
%TA.AperFunction,Conductor*%
D30*
G36*
X159083524Y-100963721D02*
G01*
X159073300Y-101074250D01*
X159232050Y-101233000D01*
X160432200Y-101233000D01*
X160432200Y-101213000D01*
X160686200Y-101213000D01*
X160686200Y-101233000D01*
X160706200Y-101233000D01*
X160706200Y-101427000D01*
X158969515Y-101427000D01*
X158983226Y-101393898D01*
X159023000Y-101193939D01*
X159023000Y-100990061D01*
X158995140Y-100850000D01*
X159119035Y-100850000D01*
X159083524Y-100963721D01*
G37*
%TD.AperFunction*%
D29*
X162022230Y-98331186D02*
X162184662Y-98418007D01*
X162265445Y-98442512D01*
X162360909Y-98471471D01*
X162544201Y-98489524D01*
X162590133Y-98485000D01*
X164005908Y-98485000D01*
X162185341Y-100305568D01*
X162149656Y-100334854D01*
X162036777Y-100472398D01*
X162048172Y-100356700D01*
X162048172Y-99823300D01*
X162035912Y-99698818D01*
X161999602Y-99579120D01*
X161940637Y-99468806D01*
X161929307Y-99455000D01*
X161940637Y-99441194D01*
X161999602Y-99330880D01*
X162035912Y-99211182D01*
X162048172Y-99086700D01*
X162048172Y-98553300D01*
X162035912Y-98428818D01*
X162001014Y-98313774D01*
X162022230Y-98331186D01*
%TA.AperFunction,Conductor*%
D30*
G36*
X162022230Y-98331186D02*
G01*
X162184662Y-98418007D01*
X162265445Y-98442512D01*
X162360909Y-98471471D01*
X162544201Y-98489524D01*
X162590133Y-98485000D01*
X164005908Y-98485000D01*
X162185341Y-100305568D01*
X162149656Y-100334854D01*
X162036777Y-100472398D01*
X162048172Y-100356700D01*
X162048172Y-99823300D01*
X162035912Y-99698818D01*
X161999602Y-99579120D01*
X161940637Y-99468806D01*
X161929307Y-99455000D01*
X161940637Y-99441194D01*
X161999602Y-99330880D01*
X162035912Y-99211182D01*
X162048172Y-99086700D01*
X162048172Y-98553300D01*
X162035912Y-98428818D01*
X162001014Y-98313774D01*
X162022230Y-98331186D01*
G37*
%TD.AperFunction*%
D29*
X155956028Y-97061186D02*
X156118460Y-97148007D01*
X156294708Y-97201471D01*
X156432068Y-97215000D01*
X156432075Y-97215000D01*
X156477999Y-97219523D01*
X156523924Y-97215000D01*
X159076955Y-97215000D01*
X159070228Y-97283300D01*
X159070228Y-97816700D01*
X159082488Y-97941182D01*
X159118531Y-98060000D01*
X158938022Y-98060000D01*
X158917205Y-98009744D01*
X158803937Y-97840226D01*
X158659774Y-97696063D01*
X158490256Y-97582795D01*
X158301898Y-97504774D01*
X158101939Y-97465000D01*
X157898061Y-97465000D01*
X157698102Y-97504774D01*
X157509744Y-97582795D01*
X157340226Y-97696063D01*
X157196063Y-97840226D01*
X157082795Y-98009744D01*
X157004774Y-98198102D01*
X156965000Y-98398061D01*
X156965000Y-98601939D01*
X157000947Y-98782658D01*
X155789630Y-97571341D01*
X155760344Y-97535656D01*
X155617972Y-97418814D01*
X155455540Y-97331993D01*
X155304150Y-97286070D01*
X155288405Y-97256613D01*
X155200910Y-97150000D01*
X155288405Y-97043387D01*
X155292888Y-97035000D01*
X155924120Y-97035000D01*
X155956028Y-97061186D01*
%TA.AperFunction,Conductor*%
D30*
G36*
X155956028Y-97061186D02*
G01*
X156118460Y-97148007D01*
X156294708Y-97201471D01*
X156432068Y-97215000D01*
X156432075Y-97215000D01*
X156477999Y-97219523D01*
X156523924Y-97215000D01*
X159076955Y-97215000D01*
X159070228Y-97283300D01*
X159070228Y-97816700D01*
X159082488Y-97941182D01*
X159118531Y-98060000D01*
X158938022Y-98060000D01*
X158917205Y-98009744D01*
X158803937Y-97840226D01*
X158659774Y-97696063D01*
X158490256Y-97582795D01*
X158301898Y-97504774D01*
X158101939Y-97465000D01*
X157898061Y-97465000D01*
X157698102Y-97504774D01*
X157509744Y-97582795D01*
X157340226Y-97696063D01*
X157196063Y-97840226D01*
X157082795Y-98009744D01*
X157004774Y-98198102D01*
X156965000Y-98398061D01*
X156965000Y-98601939D01*
X157000947Y-98782658D01*
X155789630Y-97571341D01*
X155760344Y-97535656D01*
X155617972Y-97418814D01*
X155455540Y-97331993D01*
X155304150Y-97286070D01*
X155288405Y-97256613D01*
X155200910Y-97150000D01*
X155288405Y-97043387D01*
X155292888Y-97035000D01*
X155924120Y-97035000D01*
X155956028Y-97061186D01*
G37*
%TD.AperFunction*%
D29*
X164300398Y-95769120D02*
X164264088Y-95888818D01*
X164251828Y-96013300D01*
X164251828Y-96546700D01*
X164258555Y-96615000D01*
X162931492Y-96615000D01*
X162845101Y-96528610D01*
X162845101Y-95952561D01*
X162948102Y-95995226D01*
X163148061Y-96035000D01*
X163351939Y-96035000D01*
X163551898Y-95995226D01*
X163740256Y-95917205D01*
X163909774Y-95803937D01*
X163953711Y-95760000D01*
X164305273Y-95760000D01*
X164300398Y-95769120D01*
%TA.AperFunction,Conductor*%
D30*
G36*
X164300398Y-95769120D02*
G01*
X164264088Y-95888818D01*
X164251828Y-96013300D01*
X164251828Y-96546700D01*
X164258555Y-96615000D01*
X162931492Y-96615000D01*
X162845101Y-96528610D01*
X162845101Y-95952561D01*
X162948102Y-95995226D01*
X163148061Y-96035000D01*
X163351939Y-96035000D01*
X163551898Y-95995226D01*
X163740256Y-95917205D01*
X163909774Y-95803937D01*
X163953711Y-95760000D01*
X164305273Y-95760000D01*
X164300398Y-95769120D01*
G37*
%TD.AperFunction*%
D29*
X153061904Y-90877703D02*
X153133487Y-91121672D01*
X153388997Y-91242572D01*
X153663185Y-91311301D01*
X153945513Y-91325218D01*
X154225131Y-91283788D01*
X154491293Y-91188604D01*
X154616515Y-91121672D01*
X154688098Y-90877703D01*
X154361395Y-90551000D01*
X154720605Y-90551000D01*
X154867703Y-90698098D01*
X155111672Y-90626515D01*
X155142195Y-90562009D01*
X155143321Y-90564728D01*
X155300364Y-90799760D01*
X155500242Y-90999638D01*
X155735274Y-91156681D01*
X155996427Y-91264854D01*
X156273666Y-91320001D01*
X156556336Y-91320001D01*
X156833575Y-91264854D01*
X157094728Y-91156681D01*
X157329760Y-90999638D01*
X157529638Y-90799760D01*
X157685001Y-90567242D01*
X157840364Y-90799760D01*
X158040242Y-90999638D01*
X158275274Y-91156681D01*
X158536427Y-91264854D01*
X158813666Y-91320001D01*
X159096336Y-91320001D01*
X159373575Y-91264854D01*
X159634728Y-91156681D01*
X159869760Y-90999638D01*
X160069638Y-90799760D01*
X160225001Y-90567242D01*
X160380364Y-90799760D01*
X160580242Y-90999638D01*
X160815274Y-91156681D01*
X161076427Y-91264854D01*
X161353666Y-91320001D01*
X161636336Y-91320001D01*
X161913575Y-91264854D01*
X162174728Y-91156681D01*
X162409760Y-90999638D01*
X162609638Y-90799760D01*
X162765001Y-90567242D01*
X162920364Y-90799760D01*
X163120242Y-90999638D01*
X163355274Y-91156681D01*
X163616427Y-91264854D01*
X163893666Y-91320001D01*
X164176336Y-91320001D01*
X164453575Y-91264854D01*
X164714728Y-91156681D01*
X164949760Y-90999638D01*
X165149638Y-90799760D01*
X165305001Y-90567242D01*
X165460364Y-90799760D01*
X165660242Y-90999638D01*
X165895274Y-91156681D01*
X166156427Y-91264854D01*
X166173626Y-91268275D01*
X166133744Y-91284795D01*
X165964226Y-91398063D01*
X165820063Y-91542226D01*
X165706795Y-91711744D01*
X165628774Y-91900102D01*
X165589000Y-92100061D01*
X165589000Y-92303939D01*
X165628774Y-92503898D01*
X165636342Y-92522168D01*
X165323283Y-92835228D01*
X164889900Y-92835228D01*
X164765418Y-92847488D01*
X164645720Y-92883798D01*
X164535406Y-92942763D01*
X164438715Y-93022115D01*
X164359363Y-93118806D01*
X164300398Y-93229120D01*
X164264088Y-93348818D01*
X164251828Y-93473300D01*
X164251828Y-94006700D01*
X164264088Y-94131182D01*
X164297098Y-94240000D01*
X163953711Y-94240000D01*
X163909774Y-94196063D01*
X163740256Y-94082795D01*
X163551898Y-94004774D01*
X163351939Y-93965000D01*
X163148061Y-93965000D01*
X162948102Y-94004774D01*
X162802747Y-94064982D01*
X162778108Y-93983758D01*
X162745787Y-93923291D01*
X162691287Y-93821327D01*
X162574445Y-93678955D01*
X162538755Y-93649665D01*
X162255290Y-93366200D01*
X162396696Y-93224794D01*
X162458061Y-93237000D01*
X162661939Y-93237000D01*
X162861898Y-93197226D01*
X163050256Y-93119205D01*
X163219774Y-93005937D01*
X163363937Y-92861774D01*
X163477205Y-92692256D01*
X163555226Y-92503898D01*
X163595000Y-92303939D01*
X163595000Y-92100061D01*
X163555226Y-91900102D01*
X163477205Y-91711744D01*
X163363937Y-91542226D01*
X163219774Y-91398063D01*
X163050256Y-91284795D01*
X162861898Y-91206774D01*
X162661939Y-91167000D01*
X162458061Y-91167000D01*
X162258102Y-91206774D01*
X162118548Y-91264580D01*
X162097199Y-91262477D01*
X162051274Y-91267000D01*
X162051268Y-91267000D01*
X161932310Y-91278717D01*
X161913907Y-91280529D01*
X161860443Y-91296747D01*
X161737660Y-91333993D01*
X161575228Y-91420814D01*
X161432856Y-91537656D01*
X161403574Y-91573336D01*
X160141683Y-92835228D01*
X159708300Y-92835228D01*
X159583818Y-92847488D01*
X159464120Y-92883798D01*
X159353806Y-92942763D01*
X159257115Y-93022115D01*
X159177763Y-93118806D01*
X159118798Y-93229120D01*
X159082488Y-93348818D01*
X159070228Y-93473300D01*
X159070228Y-94006700D01*
X159076955Y-94075000D01*
X157881289Y-94075000D01*
X157177630Y-93371341D01*
X157148344Y-93335656D01*
X157005972Y-93218814D01*
X156843540Y-93131993D01*
X156667292Y-93078529D01*
X156529932Y-93065000D01*
X156484000Y-93060476D01*
X156438068Y-93065000D01*
X155292888Y-93065000D01*
X155288405Y-93056613D01*
X155177962Y-92922038D01*
X155043387Y-92811595D01*
X154889851Y-92729528D01*
X154723255Y-92678992D01*
X154550001Y-92661928D01*
X153849999Y-92661928D01*
X153676745Y-92678992D01*
X153510149Y-92729528D01*
X153356613Y-92811595D01*
X153222038Y-92922038D01*
X153200000Y-92948891D01*
X153177962Y-92922038D01*
X153043387Y-92811595D01*
X152915288Y-92743125D01*
X152917205Y-92740256D01*
X152995226Y-92551898D01*
X153035000Y-92351939D01*
X153035000Y-92148061D01*
X152995226Y-91948102D01*
X152917205Y-91759744D01*
X152803937Y-91590226D01*
X152659774Y-91446063D01*
X152490256Y-91332795D01*
X152301898Y-91254774D01*
X152101939Y-91215000D01*
X151898061Y-91215000D01*
X151851643Y-91224233D01*
X152014728Y-91156681D01*
X152249760Y-90999638D01*
X152449638Y-90799760D01*
X152605916Y-90565873D01*
X152638330Y-90626515D01*
X152882299Y-90698098D01*
X153029397Y-90551000D01*
X153388607Y-90551000D01*
X153061904Y-90877703D01*
%TA.AperFunction,Conductor*%
D30*
G36*
X153061904Y-90877703D02*
G01*
X153133487Y-91121672D01*
X153388997Y-91242572D01*
X153663185Y-91311301D01*
X153945513Y-91325218D01*
X154225131Y-91283788D01*
X154491293Y-91188604D01*
X154616515Y-91121672D01*
X154688098Y-90877703D01*
X154361395Y-90551000D01*
X154720605Y-90551000D01*
X154867703Y-90698098D01*
X155111672Y-90626515D01*
X155142195Y-90562009D01*
X155143321Y-90564728D01*
X155300364Y-90799760D01*
X155500242Y-90999638D01*
X155735274Y-91156681D01*
X155996427Y-91264854D01*
X156273666Y-91320001D01*
X156556336Y-91320001D01*
X156833575Y-91264854D01*
X157094728Y-91156681D01*
X157329760Y-90999638D01*
X157529638Y-90799760D01*
X157685001Y-90567242D01*
X157840364Y-90799760D01*
X158040242Y-90999638D01*
X158275274Y-91156681D01*
X158536427Y-91264854D01*
X158813666Y-91320001D01*
X159096336Y-91320001D01*
X159373575Y-91264854D01*
X159634728Y-91156681D01*
X159869760Y-90999638D01*
X160069638Y-90799760D01*
X160225001Y-90567242D01*
X160380364Y-90799760D01*
X160580242Y-90999638D01*
X160815274Y-91156681D01*
X161076427Y-91264854D01*
X161353666Y-91320001D01*
X161636336Y-91320001D01*
X161913575Y-91264854D01*
X162174728Y-91156681D01*
X162409760Y-90999638D01*
X162609638Y-90799760D01*
X162765001Y-90567242D01*
X162920364Y-90799760D01*
X163120242Y-90999638D01*
X163355274Y-91156681D01*
X163616427Y-91264854D01*
X163893666Y-91320001D01*
X164176336Y-91320001D01*
X164453575Y-91264854D01*
X164714728Y-91156681D01*
X164949760Y-90999638D01*
X165149638Y-90799760D01*
X165305001Y-90567242D01*
X165460364Y-90799760D01*
X165660242Y-90999638D01*
X165895274Y-91156681D01*
X166156427Y-91264854D01*
X166173626Y-91268275D01*
X166133744Y-91284795D01*
X165964226Y-91398063D01*
X165820063Y-91542226D01*
X165706795Y-91711744D01*
X165628774Y-91900102D01*
X165589000Y-92100061D01*
X165589000Y-92303939D01*
X165628774Y-92503898D01*
X165636342Y-92522168D01*
X165323283Y-92835228D01*
X164889900Y-92835228D01*
X164765418Y-92847488D01*
X164645720Y-92883798D01*
X164535406Y-92942763D01*
X164438715Y-93022115D01*
X164359363Y-93118806D01*
X164300398Y-93229120D01*
X164264088Y-93348818D01*
X164251828Y-93473300D01*
X164251828Y-94006700D01*
X164264088Y-94131182D01*
X164297098Y-94240000D01*
X163953711Y-94240000D01*
X163909774Y-94196063D01*
X163740256Y-94082795D01*
X163551898Y-94004774D01*
X163351939Y-93965000D01*
X163148061Y-93965000D01*
X162948102Y-94004774D01*
X162802747Y-94064982D01*
X162778108Y-93983758D01*
X162745787Y-93923291D01*
X162691287Y-93821327D01*
X162574445Y-93678955D01*
X162538755Y-93649665D01*
X162255290Y-93366200D01*
X162396696Y-93224794D01*
X162458061Y-93237000D01*
X162661939Y-93237000D01*
X162861898Y-93197226D01*
X163050256Y-93119205D01*
X163219774Y-93005937D01*
X163363937Y-92861774D01*
X163477205Y-92692256D01*
X163555226Y-92503898D01*
X163595000Y-92303939D01*
X163595000Y-92100061D01*
X163555226Y-91900102D01*
X163477205Y-91711744D01*
X163363937Y-91542226D01*
X163219774Y-91398063D01*
X163050256Y-91284795D01*
X162861898Y-91206774D01*
X162661939Y-91167000D01*
X162458061Y-91167000D01*
X162258102Y-91206774D01*
X162118548Y-91264580D01*
X162097199Y-91262477D01*
X162051274Y-91267000D01*
X162051268Y-91267000D01*
X161932310Y-91278717D01*
X161913907Y-91280529D01*
X161860443Y-91296747D01*
X161737660Y-91333993D01*
X161575228Y-91420814D01*
X161432856Y-91537656D01*
X161403574Y-91573336D01*
X160141683Y-92835228D01*
X159708300Y-92835228D01*
X159583818Y-92847488D01*
X159464120Y-92883798D01*
X159353806Y-92942763D01*
X159257115Y-93022115D01*
X159177763Y-93118806D01*
X159118798Y-93229120D01*
X159082488Y-93348818D01*
X159070228Y-93473300D01*
X159070228Y-94006700D01*
X159076955Y-94075000D01*
X157881289Y-94075000D01*
X157177630Y-93371341D01*
X157148344Y-93335656D01*
X157005972Y-93218814D01*
X156843540Y-93131993D01*
X156667292Y-93078529D01*
X156529932Y-93065000D01*
X156484000Y-93060476D01*
X156438068Y-93065000D01*
X155292888Y-93065000D01*
X155288405Y-93056613D01*
X155177962Y-92922038D01*
X155043387Y-92811595D01*
X154889851Y-92729528D01*
X154723255Y-92678992D01*
X154550001Y-92661928D01*
X153849999Y-92661928D01*
X153676745Y-92678992D01*
X153510149Y-92729528D01*
X153356613Y-92811595D01*
X153222038Y-92922038D01*
X153200000Y-92948891D01*
X153177962Y-92922038D01*
X153043387Y-92811595D01*
X152915288Y-92743125D01*
X152917205Y-92740256D01*
X152995226Y-92551898D01*
X153035000Y-92351939D01*
X153035000Y-92148061D01*
X152995226Y-91948102D01*
X152917205Y-91759744D01*
X152803937Y-91590226D01*
X152659774Y-91446063D01*
X152490256Y-91332795D01*
X152301898Y-91254774D01*
X152101939Y-91215000D01*
X151898061Y-91215000D01*
X151851643Y-91224233D01*
X152014728Y-91156681D01*
X152249760Y-90999638D01*
X152449638Y-90799760D01*
X152605916Y-90565873D01*
X152638330Y-90626515D01*
X152882299Y-90698098D01*
X153029397Y-90551000D01*
X153388607Y-90551000D01*
X153061904Y-90877703D01*
G37*
%TD.AperFunction*%
%TD*%
D29*
%TO.N,Net-(C7-Pad2)*%
X145400018Y-95901312D02*
X145524500Y-95913572D01*
X145538538Y-95913572D01*
X145518696Y-95979091D01*
X146350000Y-96810395D01*
X147181304Y-95979091D01*
X147161462Y-95913572D01*
X147175500Y-95913572D01*
X147299982Y-95901312D01*
X147353755Y-95885000D01*
X150495000Y-95885000D01*
X150495000Y-104064388D01*
X150394180Y-104010498D01*
X150274482Y-103974188D01*
X150150000Y-103961928D01*
X149135750Y-103965000D01*
X148977000Y-104123750D01*
X148977000Y-105273000D01*
X148997000Y-105273000D01*
X148997000Y-105527000D01*
X148977000Y-105527000D01*
X148977000Y-105547000D01*
X148723000Y-105547000D01*
X148723000Y-105527000D01*
X148703000Y-105527000D01*
X148703000Y-105273000D01*
X148723000Y-105273000D01*
X148723000Y-104123750D01*
X148564250Y-103965000D01*
X147550000Y-103961928D01*
X147425518Y-103974188D01*
X147305820Y-104010498D01*
X147236256Y-104047681D01*
X147946914Y-102152593D01*
X147953329Y-102128537D01*
X147955000Y-102108000D01*
X147955000Y-98298000D01*
X147952560Y-98273224D01*
X147945333Y-98249399D01*
X147933597Y-98227443D01*
X147917803Y-98208197D01*
X147898557Y-98192403D01*
X147876601Y-98180667D01*
X147852776Y-98173440D01*
X147828000Y-98171000D01*
X147129794Y-98171000D01*
X147181304Y-98000909D01*
X146350000Y-97169605D01*
X145518696Y-98000909D01*
X145570206Y-98171000D01*
X145161000Y-98171000D01*
X145161000Y-97767372D01*
X145339091Y-97821304D01*
X146170395Y-96990000D01*
X146529605Y-96990000D01*
X147360909Y-97821304D01*
X147607481Y-97746633D01*
X147730931Y-97486772D01*
X147801313Y-97207820D01*
X147815921Y-96920498D01*
X147774194Y-96635846D01*
X147677737Y-96364804D01*
X147607481Y-96233367D01*
X147360909Y-96158696D01*
X146529605Y-96990000D01*
X146170395Y-96990000D01*
X145339091Y-96158696D01*
X145161000Y-96212628D01*
X145161000Y-95885000D01*
X145346245Y-95885000D01*
X145400018Y-95901312D01*
%TA.AperFunction,Conductor*%
D30*
G36*
X145400018Y-95901312D02*
G01*
X145524500Y-95913572D01*
X145538538Y-95913572D01*
X145518696Y-95979091D01*
X146350000Y-96810395D01*
X147181304Y-95979091D01*
X147161462Y-95913572D01*
X147175500Y-95913572D01*
X147299982Y-95901312D01*
X147353755Y-95885000D01*
X150495000Y-95885000D01*
X150495000Y-104064388D01*
X150394180Y-104010498D01*
X150274482Y-103974188D01*
X150150000Y-103961928D01*
X149135750Y-103965000D01*
X148977000Y-104123750D01*
X148977000Y-105273000D01*
X148997000Y-105273000D01*
X148997000Y-105527000D01*
X148977000Y-105527000D01*
X148977000Y-105547000D01*
X148723000Y-105547000D01*
X148723000Y-105527000D01*
X148703000Y-105527000D01*
X148703000Y-105273000D01*
X148723000Y-105273000D01*
X148723000Y-104123750D01*
X148564250Y-103965000D01*
X147550000Y-103961928D01*
X147425518Y-103974188D01*
X147305820Y-104010498D01*
X147236256Y-104047681D01*
X147946914Y-102152593D01*
X147953329Y-102128537D01*
X147955000Y-102108000D01*
X147955000Y-98298000D01*
X147952560Y-98273224D01*
X147945333Y-98249399D01*
X147933597Y-98227443D01*
X147917803Y-98208197D01*
X147898557Y-98192403D01*
X147876601Y-98180667D01*
X147852776Y-98173440D01*
X147828000Y-98171000D01*
X147129794Y-98171000D01*
X147181304Y-98000909D01*
X146350000Y-97169605D01*
X145518696Y-98000909D01*
X145570206Y-98171000D01*
X145161000Y-98171000D01*
X145161000Y-97767372D01*
X145339091Y-97821304D01*
X146170395Y-96990000D01*
X146529605Y-96990000D01*
X147360909Y-97821304D01*
X147607481Y-97746633D01*
X147730931Y-97486772D01*
X147801313Y-97207820D01*
X147815921Y-96920498D01*
X147774194Y-96635846D01*
X147677737Y-96364804D01*
X147607481Y-96233367D01*
X147360909Y-96158696D01*
X146529605Y-96990000D01*
X146170395Y-96990000D01*
X145339091Y-96158696D01*
X145161000Y-96212628D01*
X145161000Y-95885000D01*
X145346245Y-95885000D01*
X145400018Y-95901312D01*
G37*
%TD.AperFunction*%
%TD*%
D29*
%TO.N,Net-(C4-Pad2)*%
X136623000Y-102250000D02*
X136625440Y-102274776D01*
X136632667Y-102298601D01*
X136644403Y-102320557D01*
X136660197Y-102339803D01*
X136679443Y-102355597D01*
X136701399Y-102367333D01*
X136725224Y-102374560D01*
X136750000Y-102377000D01*
X146623000Y-102377000D01*
X146623000Y-103512853D01*
X146471431Y-103917037D01*
X146458562Y-103962205D01*
X145535750Y-103965000D01*
X145377000Y-104123750D01*
X145377000Y-105273000D01*
X145397000Y-105273000D01*
X145397000Y-105527000D01*
X145377000Y-105527000D01*
X145377000Y-106676250D01*
X145535750Y-106835000D01*
X146453484Y-106837780D01*
X146479336Y-106923004D01*
X146538017Y-107032787D01*
X146616987Y-107129013D01*
X146713213Y-107207983D01*
X146822996Y-107266664D01*
X146942118Y-107302799D01*
X147066000Y-107315000D01*
X150622000Y-107315000D01*
X150745882Y-107302799D01*
X150865004Y-107266664D01*
X150974787Y-107207983D01*
X151071013Y-107129013D01*
X151149983Y-107032787D01*
X151208664Y-106923004D01*
X151244799Y-106803882D01*
X151247052Y-106781000D01*
X151798928Y-106781000D01*
X151811188Y-106905482D01*
X151847498Y-107025180D01*
X151906463Y-107135494D01*
X151985815Y-107232185D01*
X152082506Y-107311537D01*
X152192820Y-107370502D01*
X152312518Y-107406812D01*
X152437000Y-107419072D01*
X152876250Y-107416000D01*
X153035000Y-107257250D01*
X153035000Y-106320500D01*
X153289000Y-106320500D01*
X153289000Y-107257250D01*
X153447750Y-107416000D01*
X153887000Y-107419072D01*
X154011482Y-107406812D01*
X154131180Y-107370502D01*
X154241494Y-107311537D01*
X154338185Y-107232185D01*
X154417537Y-107135494D01*
X154476502Y-107025180D01*
X154512812Y-106905482D01*
X154525072Y-106781000D01*
X154522000Y-106479250D01*
X154363250Y-106320500D01*
X153289000Y-106320500D01*
X153035000Y-106320500D01*
X151960750Y-106320500D01*
X151802000Y-106479250D01*
X151798928Y-106781000D01*
X151247052Y-106781000D01*
X151257000Y-106680000D01*
X151257000Y-105627000D01*
X151799142Y-105627000D01*
X151802000Y-105907750D01*
X151960750Y-106066500D01*
X153035000Y-106066500D01*
X153035000Y-106046500D01*
X153289000Y-106046500D01*
X153289000Y-106066500D01*
X154363250Y-106066500D01*
X154522000Y-105907750D01*
X154524858Y-105627000D01*
X155750000Y-105627000D01*
X155774776Y-105624560D01*
X155798601Y-105617333D01*
X155820557Y-105605597D01*
X155839803Y-105589803D01*
X155855597Y-105570557D01*
X155867333Y-105548601D01*
X155874560Y-105524776D01*
X155877000Y-105500000D01*
X155877000Y-105472990D01*
X157118354Y-105472990D01*
X157161994Y-105790099D01*
X157266661Y-106092600D01*
X157358339Y-106264120D01*
X157621718Y-106358677D01*
X158570395Y-105410000D01*
X157621718Y-104461323D01*
X157358339Y-104555880D01*
X157218449Y-104843791D01*
X157137416Y-105153462D01*
X157118354Y-105472990D01*
X155877000Y-105472990D01*
X155877000Y-103627000D01*
X159873000Y-103627000D01*
X159873000Y-104224652D01*
X159814370Y-104166022D01*
X159698676Y-104281716D01*
X159604120Y-104018339D01*
X159316209Y-103878449D01*
X159006538Y-103797416D01*
X158687010Y-103778354D01*
X158369901Y-103821994D01*
X158067400Y-103926661D01*
X157895880Y-104018339D01*
X157801323Y-104281718D01*
X158750000Y-105230395D01*
X158764143Y-105216253D01*
X158943748Y-105395858D01*
X158929605Y-105410000D01*
X158943748Y-105424143D01*
X158764143Y-105603748D01*
X158750000Y-105589605D01*
X157801323Y-106538282D01*
X157895880Y-106801661D01*
X158183791Y-106941551D01*
X158493462Y-107022584D01*
X158812990Y-107041646D01*
X159130099Y-106998006D01*
X159432600Y-106893339D01*
X159604120Y-106801661D01*
X159698676Y-106538284D01*
X159814370Y-106653978D01*
X159873000Y-106595348D01*
X159873000Y-107519000D01*
X142877000Y-107519000D01*
X142877000Y-106500000D01*
X142874560Y-106475224D01*
X142867333Y-106451399D01*
X142855597Y-106429443D01*
X142839803Y-106410197D01*
X142820557Y-106394403D01*
X142798601Y-106382667D01*
X142774776Y-106375440D01*
X142750000Y-106373000D01*
X132877000Y-106373000D01*
X132877000Y-106200000D01*
X143311928Y-106200000D01*
X143324188Y-106324482D01*
X143360498Y-106444180D01*
X143419463Y-106554494D01*
X143498815Y-106651185D01*
X143595506Y-106730537D01*
X143705820Y-106789502D01*
X143825518Y-106825812D01*
X143950000Y-106838072D01*
X144964250Y-106835000D01*
X145123000Y-106676250D01*
X145123000Y-105527000D01*
X143473750Y-105527000D01*
X143315000Y-105685750D01*
X143311928Y-106200000D01*
X132877000Y-106200000D01*
X132877000Y-104600000D01*
X143311928Y-104600000D01*
X143315000Y-105114250D01*
X143473750Y-105273000D01*
X145123000Y-105273000D01*
X145123000Y-104123750D01*
X144964250Y-103965000D01*
X143950000Y-103961928D01*
X143825518Y-103974188D01*
X143705820Y-104010498D01*
X143595506Y-104069463D01*
X143498815Y-104148815D01*
X143419463Y-104245506D01*
X143360498Y-104355820D01*
X143324188Y-104475518D01*
X143311928Y-104600000D01*
X132877000Y-104600000D01*
X132877000Y-101281499D01*
X132884188Y-101354482D01*
X132920498Y-101474180D01*
X132979463Y-101584494D01*
X133058815Y-101681185D01*
X133155506Y-101760537D01*
X133265820Y-101819502D01*
X133385518Y-101855812D01*
X133510000Y-101868072D01*
X134214250Y-101865000D01*
X134373000Y-101706250D01*
X134373000Y-99377000D01*
X134627000Y-99377000D01*
X134627000Y-101706250D01*
X134785750Y-101865000D01*
X135490000Y-101868072D01*
X135614482Y-101855812D01*
X135734180Y-101819502D01*
X135844494Y-101760537D01*
X135941185Y-101681185D01*
X136020537Y-101584494D01*
X136079502Y-101474180D01*
X136115812Y-101354482D01*
X136128072Y-101230000D01*
X136125000Y-99535750D01*
X135966250Y-99377000D01*
X134627000Y-99377000D01*
X134373000Y-99377000D01*
X134353000Y-99377000D01*
X134353000Y-99123000D01*
X134373000Y-99123000D01*
X134373000Y-96793750D01*
X134627000Y-96793750D01*
X134627000Y-99123000D01*
X135966250Y-99123000D01*
X136125000Y-98964250D01*
X136128072Y-97270000D01*
X136115812Y-97145518D01*
X136079502Y-97025820D01*
X136020537Y-96915506D01*
X135941185Y-96818815D01*
X135844494Y-96739463D01*
X135734180Y-96680498D01*
X135614482Y-96644188D01*
X135490000Y-96631928D01*
X134785750Y-96635000D01*
X134627000Y-96793750D01*
X134373000Y-96793750D01*
X134214250Y-96635000D01*
X133510000Y-96631928D01*
X133385518Y-96644188D01*
X133265820Y-96680498D01*
X133155506Y-96739463D01*
X133058815Y-96818815D01*
X132979463Y-96915506D01*
X132920498Y-97025820D01*
X132884188Y-97145518D01*
X132877000Y-97218501D01*
X132877000Y-96627000D01*
X136623000Y-96627000D01*
X136623000Y-102250000D01*
%TA.AperFunction,Conductor*%
D30*
G36*
X136623000Y-102250000D02*
G01*
X136625440Y-102274776D01*
X136632667Y-102298601D01*
X136644403Y-102320557D01*
X136660197Y-102339803D01*
X136679443Y-102355597D01*
X136701399Y-102367333D01*
X136725224Y-102374560D01*
X136750000Y-102377000D01*
X146623000Y-102377000D01*
X146623000Y-103512853D01*
X146471431Y-103917037D01*
X146458562Y-103962205D01*
X145535750Y-103965000D01*
X145377000Y-104123750D01*
X145377000Y-105273000D01*
X145397000Y-105273000D01*
X145397000Y-105527000D01*
X145377000Y-105527000D01*
X145377000Y-106676250D01*
X145535750Y-106835000D01*
X146453484Y-106837780D01*
X146479336Y-106923004D01*
X146538017Y-107032787D01*
X146616987Y-107129013D01*
X146713213Y-107207983D01*
X146822996Y-107266664D01*
X146942118Y-107302799D01*
X147066000Y-107315000D01*
X150622000Y-107315000D01*
X150745882Y-107302799D01*
X150865004Y-107266664D01*
X150974787Y-107207983D01*
X151071013Y-107129013D01*
X151149983Y-107032787D01*
X151208664Y-106923004D01*
X151244799Y-106803882D01*
X151247052Y-106781000D01*
X151798928Y-106781000D01*
X151811188Y-106905482D01*
X151847498Y-107025180D01*
X151906463Y-107135494D01*
X151985815Y-107232185D01*
X152082506Y-107311537D01*
X152192820Y-107370502D01*
X152312518Y-107406812D01*
X152437000Y-107419072D01*
X152876250Y-107416000D01*
X153035000Y-107257250D01*
X153035000Y-106320500D01*
X153289000Y-106320500D01*
X153289000Y-107257250D01*
X153447750Y-107416000D01*
X153887000Y-107419072D01*
X154011482Y-107406812D01*
X154131180Y-107370502D01*
X154241494Y-107311537D01*
X154338185Y-107232185D01*
X154417537Y-107135494D01*
X154476502Y-107025180D01*
X154512812Y-106905482D01*
X154525072Y-106781000D01*
X154522000Y-106479250D01*
X154363250Y-106320500D01*
X153289000Y-106320500D01*
X153035000Y-106320500D01*
X151960750Y-106320500D01*
X151802000Y-106479250D01*
X151798928Y-106781000D01*
X151247052Y-106781000D01*
X151257000Y-106680000D01*
X151257000Y-105627000D01*
X151799142Y-105627000D01*
X151802000Y-105907750D01*
X151960750Y-106066500D01*
X153035000Y-106066500D01*
X153035000Y-106046500D01*
X153289000Y-106046500D01*
X153289000Y-106066500D01*
X154363250Y-106066500D01*
X154522000Y-105907750D01*
X154524858Y-105627000D01*
X155750000Y-105627000D01*
X155774776Y-105624560D01*
X155798601Y-105617333D01*
X155820557Y-105605597D01*
X155839803Y-105589803D01*
X155855597Y-105570557D01*
X155867333Y-105548601D01*
X155874560Y-105524776D01*
X155877000Y-105500000D01*
X155877000Y-105472990D01*
X157118354Y-105472990D01*
X157161994Y-105790099D01*
X157266661Y-106092600D01*
X157358339Y-106264120D01*
X157621718Y-106358677D01*
X158570395Y-105410000D01*
X157621718Y-104461323D01*
X157358339Y-104555880D01*
X157218449Y-104843791D01*
X157137416Y-105153462D01*
X157118354Y-105472990D01*
X155877000Y-105472990D01*
X155877000Y-103627000D01*
X159873000Y-103627000D01*
X159873000Y-104224652D01*
X159814370Y-104166022D01*
X159698676Y-104281716D01*
X159604120Y-104018339D01*
X159316209Y-103878449D01*
X159006538Y-103797416D01*
X158687010Y-103778354D01*
X158369901Y-103821994D01*
X158067400Y-103926661D01*
X157895880Y-104018339D01*
X157801323Y-104281718D01*
X158750000Y-105230395D01*
X158764143Y-105216253D01*
X158943748Y-105395858D01*
X158929605Y-105410000D01*
X158943748Y-105424143D01*
X158764143Y-105603748D01*
X158750000Y-105589605D01*
X157801323Y-106538282D01*
X157895880Y-106801661D01*
X158183791Y-106941551D01*
X158493462Y-107022584D01*
X158812990Y-107041646D01*
X159130099Y-106998006D01*
X159432600Y-106893339D01*
X159604120Y-106801661D01*
X159698676Y-106538284D01*
X159814370Y-106653978D01*
X159873000Y-106595348D01*
X159873000Y-107519000D01*
X142877000Y-107519000D01*
X142877000Y-106500000D01*
X142874560Y-106475224D01*
X142867333Y-106451399D01*
X142855597Y-106429443D01*
X142839803Y-106410197D01*
X142820557Y-106394403D01*
X142798601Y-106382667D01*
X142774776Y-106375440D01*
X142750000Y-106373000D01*
X132877000Y-106373000D01*
X132877000Y-106200000D01*
X143311928Y-106200000D01*
X143324188Y-106324482D01*
X143360498Y-106444180D01*
X143419463Y-106554494D01*
X143498815Y-106651185D01*
X143595506Y-106730537D01*
X143705820Y-106789502D01*
X143825518Y-106825812D01*
X143950000Y-106838072D01*
X144964250Y-106835000D01*
X145123000Y-106676250D01*
X145123000Y-105527000D01*
X143473750Y-105527000D01*
X143315000Y-105685750D01*
X143311928Y-106200000D01*
X132877000Y-106200000D01*
X132877000Y-104600000D01*
X143311928Y-104600000D01*
X143315000Y-105114250D01*
X143473750Y-105273000D01*
X145123000Y-105273000D01*
X145123000Y-104123750D01*
X144964250Y-103965000D01*
X143950000Y-103961928D01*
X143825518Y-103974188D01*
X143705820Y-104010498D01*
X143595506Y-104069463D01*
X143498815Y-104148815D01*
X143419463Y-104245506D01*
X143360498Y-104355820D01*
X143324188Y-104475518D01*
X143311928Y-104600000D01*
X132877000Y-104600000D01*
X132877000Y-101281499D01*
X132884188Y-101354482D01*
X132920498Y-101474180D01*
X132979463Y-101584494D01*
X133058815Y-101681185D01*
X133155506Y-101760537D01*
X133265820Y-101819502D01*
X133385518Y-101855812D01*
X133510000Y-101868072D01*
X134214250Y-101865000D01*
X134373000Y-101706250D01*
X134373000Y-99377000D01*
X134627000Y-99377000D01*
X134627000Y-101706250D01*
X134785750Y-101865000D01*
X135490000Y-101868072D01*
X135614482Y-101855812D01*
X135734180Y-101819502D01*
X135844494Y-101760537D01*
X135941185Y-101681185D01*
X136020537Y-101584494D01*
X136079502Y-101474180D01*
X136115812Y-101354482D01*
X136128072Y-101230000D01*
X136125000Y-99535750D01*
X135966250Y-99377000D01*
X134627000Y-99377000D01*
X134373000Y-99377000D01*
X134353000Y-99377000D01*
X134353000Y-99123000D01*
X134373000Y-99123000D01*
X134373000Y-96793750D01*
X134627000Y-96793750D01*
X134627000Y-99123000D01*
X135966250Y-99123000D01*
X136125000Y-98964250D01*
X136128072Y-97270000D01*
X136115812Y-97145518D01*
X136079502Y-97025820D01*
X136020537Y-96915506D01*
X135941185Y-96818815D01*
X135844494Y-96739463D01*
X135734180Y-96680498D01*
X135614482Y-96644188D01*
X135490000Y-96631928D01*
X134785750Y-96635000D01*
X134627000Y-96793750D01*
X134373000Y-96793750D01*
X134214250Y-96635000D01*
X133510000Y-96631928D01*
X133385518Y-96644188D01*
X133265820Y-96680498D01*
X133155506Y-96739463D01*
X133058815Y-96818815D01*
X132979463Y-96915506D01*
X132920498Y-97025820D01*
X132884188Y-97145518D01*
X132877000Y-97218501D01*
X132877000Y-96627000D01*
X136623000Y-96627000D01*
X136623000Y-102250000D01*
G37*
%TD.AperFunction*%
%TD*%
M02*
