%TF.GenerationSoftware,KiCad,Pcbnew,(5.1.8-0-10_14)*%
%TF.CreationDate,2021-01-27T14:23:45+11:00*%
%TF.ProjectId,Open-JIP(KiCad)_T3.6,4f70656e-2d4a-4495-9028-4b6943616429,rev?*%
%TF.SameCoordinates,Original*%
%TF.FileFunction,Legend,Top*%
%TF.FilePolarity,Positive*%
%FSLAX46Y46*%
G04 Gerber Fmt 4.6, Leading zero omitted, Abs format (unit mm)*
G04 Created by KiCad (PCBNEW (5.1.8-0-10_14)) date 2021-01-27 14:23:45*
%MOMM*%
%LPD*%
G01*
G04 APERTURE LIST*
%ADD10C,0.150000*%
%ADD11C,0.300000*%
%ADD12C,0.010000*%
%ADD13C,0.127000*%
%ADD14C,0.200000*%
%ADD15C,0.120000*%
%ADD16C,0.152400*%
%ADD17C,0.100000*%
%ADD18C,0.015000*%
G04 APERTURE END LIST*
D10*
X186547619Y-92642857D02*
X186547619Y-92071428D01*
X186547619Y-92357142D02*
X187547619Y-92357142D01*
X187404761Y-92261904D01*
X187309523Y-92166666D01*
X187261904Y-92071428D01*
X186642857Y-93071428D02*
X186595238Y-93119047D01*
X186547619Y-93071428D01*
X186595238Y-93023809D01*
X186642857Y-93071428D01*
X186547619Y-93071428D01*
X187452380Y-93500000D02*
X187500000Y-93547619D01*
X187547619Y-93642857D01*
X187547619Y-93880952D01*
X187500000Y-93976190D01*
X187452380Y-94023809D01*
X187357142Y-94071428D01*
X187261904Y-94071428D01*
X187119047Y-94023809D01*
X186547619Y-93452380D01*
X186547619Y-94071428D01*
X186833333Y-94452380D02*
X186833333Y-94928571D01*
X186547619Y-94357142D02*
X187547619Y-94690476D01*
X186547619Y-95023809D01*
X188047619Y-92630952D02*
X188047619Y-92059523D01*
X188047619Y-92345238D02*
X189047619Y-92345238D01*
X188904761Y-92250000D01*
X188809523Y-92154761D01*
X188761904Y-92059523D01*
X189047619Y-93535714D02*
X189047619Y-93059523D01*
X188571428Y-93011904D01*
X188619047Y-93059523D01*
X188666666Y-93154761D01*
X188666666Y-93392857D01*
X188619047Y-93488095D01*
X188571428Y-93535714D01*
X188476190Y-93583333D01*
X188238095Y-93583333D01*
X188142857Y-93535714D01*
X188095238Y-93488095D01*
X188047619Y-93392857D01*
X188047619Y-93154761D01*
X188095238Y-93059523D01*
X188142857Y-93011904D01*
X189047619Y-93869047D02*
X188047619Y-94202380D01*
X189047619Y-94535714D01*
X144058285Y-79695428D02*
X143391619Y-79933523D01*
X144058285Y-80171619D01*
X144391619Y-80743047D02*
X144391619Y-80838285D01*
X144344000Y-80933523D01*
X144296380Y-80981142D01*
X144201142Y-81028761D01*
X144010666Y-81076380D01*
X143772571Y-81076380D01*
X143582095Y-81028761D01*
X143486857Y-80981142D01*
X143439238Y-80933523D01*
X143391619Y-80838285D01*
X143391619Y-80743047D01*
X143439238Y-80647809D01*
X143486857Y-80600190D01*
X143582095Y-80552571D01*
X143772571Y-80504952D01*
X144010666Y-80504952D01*
X144201142Y-80552571D01*
X144296380Y-80600190D01*
X144344000Y-80647809D01*
X144391619Y-80743047D01*
X143486857Y-81504952D02*
X143439238Y-81552571D01*
X143391619Y-81504952D01*
X143439238Y-81457333D01*
X143486857Y-81504952D01*
X143391619Y-81504952D01*
X144391619Y-81885904D02*
X144391619Y-82504952D01*
X144010666Y-82171619D01*
X144010666Y-82314476D01*
X143963047Y-82409714D01*
X143915428Y-82457333D01*
X143820190Y-82504952D01*
X143582095Y-82504952D01*
X143486857Y-82457333D01*
X143439238Y-82409714D01*
X143391619Y-82314476D01*
X143391619Y-82028761D01*
X143439238Y-81933523D01*
X143486857Y-81885904D01*
X175903714Y-106608571D02*
X176046571Y-106656190D01*
X176094190Y-106703809D01*
X176141809Y-106799047D01*
X176141809Y-106941904D01*
X176094190Y-107037142D01*
X176046571Y-107084761D01*
X175951333Y-107132380D01*
X175570380Y-107132380D01*
X175570380Y-106132380D01*
X175903714Y-106132380D01*
X175998952Y-106180000D01*
X176046571Y-106227619D01*
X176094190Y-106322857D01*
X176094190Y-106418095D01*
X176046571Y-106513333D01*
X175998952Y-106560952D01*
X175903714Y-106608571D01*
X175570380Y-106608571D01*
X176998952Y-107132380D02*
X176998952Y-106608571D01*
X176951333Y-106513333D01*
X176856095Y-106465714D01*
X176665619Y-106465714D01*
X176570380Y-106513333D01*
X176998952Y-107084761D02*
X176903714Y-107132380D01*
X176665619Y-107132380D01*
X176570380Y-107084761D01*
X176522761Y-106989523D01*
X176522761Y-106894285D01*
X176570380Y-106799047D01*
X176665619Y-106751428D01*
X176903714Y-106751428D01*
X176998952Y-106703809D01*
X177332285Y-106465714D02*
X177713238Y-106465714D01*
X177475142Y-106132380D02*
X177475142Y-106989523D01*
X177522761Y-107084761D01*
X177618000Y-107132380D01*
X177713238Y-107132380D01*
X178427523Y-107084761D02*
X178332285Y-107132380D01*
X178141809Y-107132380D01*
X178046571Y-107084761D01*
X177998952Y-106989523D01*
X177998952Y-106608571D01*
X178046571Y-106513333D01*
X178141809Y-106465714D01*
X178332285Y-106465714D01*
X178427523Y-106513333D01*
X178475142Y-106608571D01*
X178475142Y-106703809D01*
X177998952Y-106799047D01*
X178856095Y-107084761D02*
X178951333Y-107132380D01*
X179141809Y-107132380D01*
X179237047Y-107084761D01*
X179284666Y-106989523D01*
X179284666Y-106941904D01*
X179237047Y-106846666D01*
X179141809Y-106799047D01*
X178998952Y-106799047D01*
X178903714Y-106751428D01*
X178856095Y-106656190D01*
X178856095Y-106608571D01*
X178903714Y-106513333D01*
X178998952Y-106465714D01*
X179141809Y-106465714D01*
X179237047Y-106513333D01*
X180856095Y-107084761D02*
X180760857Y-107132380D01*
X180570380Y-107132380D01*
X180475142Y-107084761D01*
X180427523Y-106989523D01*
X180427523Y-106608571D01*
X180475142Y-106513333D01*
X180570380Y-106465714D01*
X180760857Y-106465714D01*
X180856095Y-106513333D01*
X180903714Y-106608571D01*
X180903714Y-106703809D01*
X180427523Y-106799047D01*
X181189428Y-106465714D02*
X181570380Y-106465714D01*
X181332285Y-106132380D02*
X181332285Y-106989523D01*
X181379904Y-107084761D01*
X181475142Y-107132380D01*
X181570380Y-107132380D01*
X183094190Y-107132380D02*
X183094190Y-106608571D01*
X183046571Y-106513333D01*
X182951333Y-106465714D01*
X182760857Y-106465714D01*
X182665619Y-106513333D01*
X183094190Y-107084761D02*
X182998952Y-107132380D01*
X182760857Y-107132380D01*
X182665619Y-107084761D01*
X182618000Y-106989523D01*
X182618000Y-106894285D01*
X182665619Y-106799047D01*
X182760857Y-106751428D01*
X182998952Y-106751428D01*
X183094190Y-106703809D01*
X183713238Y-107132380D02*
X183618000Y-107084761D01*
X183570380Y-106989523D01*
X183570380Y-106132380D01*
X184094190Y-107037142D02*
X184141809Y-107084761D01*
X184094190Y-107132380D01*
X184046571Y-107084761D01*
X184094190Y-107037142D01*
X184094190Y-107132380D01*
X185284666Y-106227619D02*
X185332285Y-106180000D01*
X185427523Y-106132380D01*
X185665619Y-106132380D01*
X185760857Y-106180000D01*
X185808476Y-106227619D01*
X185856095Y-106322857D01*
X185856095Y-106418095D01*
X185808476Y-106560952D01*
X185237047Y-107132380D01*
X185856095Y-107132380D01*
X186475142Y-106132380D02*
X186570380Y-106132380D01*
X186665619Y-106180000D01*
X186713238Y-106227619D01*
X186760857Y-106322857D01*
X186808476Y-106513333D01*
X186808476Y-106751428D01*
X186760857Y-106941904D01*
X186713238Y-107037142D01*
X186665619Y-107084761D01*
X186570380Y-107132380D01*
X186475142Y-107132380D01*
X186379904Y-107084761D01*
X186332285Y-107037142D01*
X186284666Y-106941904D01*
X186237047Y-106751428D01*
X186237047Y-106513333D01*
X186284666Y-106322857D01*
X186332285Y-106227619D01*
X186379904Y-106180000D01*
X186475142Y-106132380D01*
X187760857Y-107132380D02*
X187189428Y-107132380D01*
X187475142Y-107132380D02*
X187475142Y-106132380D01*
X187379904Y-106275238D01*
X187284666Y-106370476D01*
X187189428Y-106418095D01*
X188237047Y-107132380D02*
X188427523Y-107132380D01*
X188522761Y-107084761D01*
X188570380Y-107037142D01*
X188665619Y-106894285D01*
X188713238Y-106703809D01*
X188713238Y-106322857D01*
X188665619Y-106227619D01*
X188617999Y-106180000D01*
X188522761Y-106132380D01*
X188332285Y-106132380D01*
X188237047Y-106180000D01*
X188189428Y-106227619D01*
X188141809Y-106322857D01*
X188141809Y-106560952D01*
X188189428Y-106656190D01*
X188237047Y-106703809D01*
X188332285Y-106751428D01*
X188522761Y-106751428D01*
X188617999Y-106703809D01*
X188665619Y-106656190D01*
X188713238Y-106560952D01*
D11*
X143178571Y-99357142D02*
X144321428Y-99357142D01*
X129678571Y-99357142D02*
X130821428Y-99357142D01*
X130250000Y-99928571D02*
X130250000Y-98785714D01*
D12*
%TO.C,G\u002A\u002A\u002A*%
G36*
X142916898Y-80848571D02*
G01*
X142839838Y-80960358D01*
X142771864Y-81016246D01*
X142704170Y-81053597D01*
X142628546Y-81076524D01*
X142527187Y-81089648D01*
X142475226Y-81093200D01*
X142269907Y-81086504D01*
X142084625Y-81044030D01*
X141924573Y-80969300D01*
X141794945Y-80865832D01*
X141700934Y-80737147D01*
X141647732Y-80586765D01*
X141639465Y-80526744D01*
X141635737Y-80402658D01*
X141651870Y-80309503D01*
X141692668Y-80229696D01*
X141735248Y-80176009D01*
X141810162Y-80090687D01*
X141538031Y-80034042D01*
X141422582Y-80009714D01*
X141322560Y-79988091D01*
X141250349Y-79971884D01*
X141221450Y-79964786D01*
X141197107Y-79949200D01*
X141183446Y-79912272D01*
X141177741Y-79842713D01*
X141177000Y-79780854D01*
X141177000Y-79609531D01*
X142046950Y-79790639D01*
X142132006Y-79808346D01*
X142132006Y-80191682D01*
X142019573Y-80232495D01*
X141959559Y-80282937D01*
X141902871Y-80367932D01*
X141893276Y-80450763D01*
X141929712Y-80543783D01*
X141936191Y-80554687D01*
X142008870Y-80631700D01*
X142116102Y-80694719D01*
X142242757Y-80739478D01*
X142373707Y-80761706D01*
X142493823Y-80757136D01*
X142568571Y-80733107D01*
X142655901Y-80666548D01*
X142699321Y-80585277D01*
X142700829Y-80496334D01*
X142662423Y-80406757D01*
X142586101Y-80323585D01*
X142473862Y-80253855D01*
X142426896Y-80234091D01*
X142268977Y-80192089D01*
X142132006Y-80191682D01*
X142132006Y-79808346D01*
X142916900Y-79971748D01*
X142924363Y-80139387D01*
X142927260Y-80228578D01*
X142923922Y-80277389D01*
X142911373Y-80296134D01*
X142886636Y-80295127D01*
X142879913Y-80293450D01*
X142846675Y-80285702D01*
X142833121Y-80290998D01*
X142840083Y-80318569D01*
X142868390Y-80377643D01*
X142891607Y-80423454D01*
X142944310Y-80572557D01*
X142952231Y-80716783D01*
X142916898Y-80848571D01*
G37*
X142916898Y-80848571D02*
X142839838Y-80960358D01*
X142771864Y-81016246D01*
X142704170Y-81053597D01*
X142628546Y-81076524D01*
X142527187Y-81089648D01*
X142475226Y-81093200D01*
X142269907Y-81086504D01*
X142084625Y-81044030D01*
X141924573Y-80969300D01*
X141794945Y-80865832D01*
X141700934Y-80737147D01*
X141647732Y-80586765D01*
X141639465Y-80526744D01*
X141635737Y-80402658D01*
X141651870Y-80309503D01*
X141692668Y-80229696D01*
X141735248Y-80176009D01*
X141810162Y-80090687D01*
X141538031Y-80034042D01*
X141422582Y-80009714D01*
X141322560Y-79988091D01*
X141250349Y-79971884D01*
X141221450Y-79964786D01*
X141197107Y-79949200D01*
X141183446Y-79912272D01*
X141177741Y-79842713D01*
X141177000Y-79780854D01*
X141177000Y-79609531D01*
X142046950Y-79790639D01*
X142132006Y-79808346D01*
X142132006Y-80191682D01*
X142019573Y-80232495D01*
X141959559Y-80282937D01*
X141902871Y-80367932D01*
X141893276Y-80450763D01*
X141929712Y-80543783D01*
X141936191Y-80554687D01*
X142008870Y-80631700D01*
X142116102Y-80694719D01*
X142242757Y-80739478D01*
X142373707Y-80761706D01*
X142493823Y-80757136D01*
X142568571Y-80733107D01*
X142655901Y-80666548D01*
X142699321Y-80585277D01*
X142700829Y-80496334D01*
X142662423Y-80406757D01*
X142586101Y-80323585D01*
X142473862Y-80253855D01*
X142426896Y-80234091D01*
X142268977Y-80192089D01*
X142132006Y-80191682D01*
X142132006Y-79808346D01*
X142916900Y-79971748D01*
X142924363Y-80139387D01*
X142927260Y-80228578D01*
X142923922Y-80277389D01*
X142911373Y-80296134D01*
X142886636Y-80295127D01*
X142879913Y-80293450D01*
X142846675Y-80285702D01*
X142833121Y-80290998D01*
X142840083Y-80318569D01*
X142868390Y-80377643D01*
X142891607Y-80423454D01*
X142944310Y-80572557D01*
X142952231Y-80716783D01*
X142916898Y-80848571D01*
G36*
X144104544Y-78182631D02*
G01*
X144037441Y-78351565D01*
X143970337Y-78520500D01*
X144248379Y-78926900D01*
X144073358Y-79102713D01*
X143898336Y-79278526D01*
X143692029Y-79143081D01*
X143485721Y-79007636D01*
X143316630Y-79082131D01*
X143227291Y-79123761D01*
X143174129Y-79157246D01*
X143145824Y-79192458D01*
X143131056Y-79239267D01*
X143129888Y-79244963D01*
X143114627Y-79320949D01*
X143094777Y-79419301D01*
X143082617Y-79479350D01*
X143052999Y-79625400D01*
X142553190Y-79625400D01*
X142522282Y-79441250D01*
X142500569Y-79319292D01*
X142479051Y-79236308D01*
X142450059Y-79181082D01*
X142405925Y-79142402D01*
X142338979Y-79109052D01*
X142278225Y-79084377D01*
X142104146Y-79015310D01*
X141921899Y-79142555D01*
X141837617Y-79199771D01*
X141768541Y-79243649D01*
X141725507Y-79267429D01*
X141717942Y-79269800D01*
X141691174Y-79252742D01*
X141640307Y-79208352D01*
X141575507Y-79146802D01*
X141506938Y-79078267D01*
X141444764Y-79012919D01*
X141399151Y-78960931D01*
X141380262Y-78932477D01*
X141380200Y-78931769D01*
X141393458Y-78903075D01*
X141428669Y-78843876D01*
X141478994Y-78765516D01*
X141494500Y-78742223D01*
X141556840Y-78646559D01*
X141592359Y-78580383D01*
X141603893Y-78531940D01*
X141594279Y-78489475D01*
X141566925Y-78442102D01*
X141542793Y-78388087D01*
X141547875Y-78356394D01*
X141575322Y-78342128D01*
X141639958Y-78312791D01*
X141732085Y-78272475D01*
X141842007Y-78225272D01*
X141960027Y-78175273D01*
X142076449Y-78126571D01*
X142181575Y-78083256D01*
X142265710Y-78049421D01*
X142319156Y-78029157D01*
X142332768Y-78025200D01*
X142348878Y-78044299D01*
X142383054Y-78092751D01*
X142403849Y-78123722D01*
X142500475Y-78227928D01*
X142620695Y-78294615D01*
X142754573Y-78324423D01*
X142892171Y-78317996D01*
X143023552Y-78275975D01*
X143138780Y-78199001D01*
X143227917Y-78087717D01*
X143237527Y-78069870D01*
X143287614Y-77920511D01*
X143289900Y-77770237D01*
X143245832Y-77627833D01*
X143156858Y-77502082D01*
X143141418Y-77486797D01*
X143010675Y-77392250D01*
X142872397Y-77346834D01*
X142731079Y-77350324D01*
X142591218Y-77402495D01*
X142457309Y-77503124D01*
X142438514Y-77521868D01*
X142315728Y-77648463D01*
X141924469Y-77487581D01*
X141773937Y-77424485D01*
X141666058Y-77376128D01*
X141595770Y-77339831D01*
X141558008Y-77312911D01*
X141547707Y-77292686D01*
X141548730Y-77288600D01*
X141582932Y-77202990D01*
X141598217Y-77145286D01*
X141592500Y-77097738D01*
X141563696Y-77042595D01*
X141510515Y-76963280D01*
X141457058Y-76882744D01*
X141415031Y-76816068D01*
X141392757Y-76776501D01*
X141391905Y-76774463D01*
X141403467Y-76743665D01*
X141444763Y-76687526D01*
X141508430Y-76615411D01*
X141552612Y-76570047D01*
X141725809Y-76398177D01*
X141911096Y-76528300D01*
X142096384Y-76658422D01*
X142282685Y-76587293D01*
X142468987Y-76516163D01*
X142513452Y-76280081D01*
X142557917Y-76044000D01*
X142805458Y-76043999D01*
X143052999Y-76043999D01*
X143081261Y-76190049D01*
X143106604Y-76321162D01*
X143126172Y-76412066D01*
X143144888Y-76472215D01*
X143167676Y-76511061D01*
X143199459Y-76538056D01*
X143245161Y-76562654D01*
X143285555Y-76582271D01*
X143368362Y-76619323D01*
X143439063Y-76644751D01*
X143473940Y-76652121D01*
X143515958Y-76638907D01*
X143586469Y-76602335D01*
X143673046Y-76549148D01*
X143711616Y-76523195D01*
X143900253Y-76392790D01*
X144250406Y-76742943D01*
X144110408Y-76952050D01*
X143970410Y-77161156D01*
X144034461Y-77318787D01*
X144071295Y-77401845D01*
X144105147Y-77465311D01*
X144127669Y-77494438D01*
X144165352Y-77506845D01*
X144238898Y-77523470D01*
X144333911Y-77541135D01*
X144356013Y-77544805D01*
X144555200Y-77577152D01*
X144555200Y-78095097D01*
X144104544Y-78182631D01*
G37*
X144104544Y-78182631D02*
X144037441Y-78351565D01*
X143970337Y-78520500D01*
X144248379Y-78926900D01*
X144073358Y-79102713D01*
X143898336Y-79278526D01*
X143692029Y-79143081D01*
X143485721Y-79007636D01*
X143316630Y-79082131D01*
X143227291Y-79123761D01*
X143174129Y-79157246D01*
X143145824Y-79192458D01*
X143131056Y-79239267D01*
X143129888Y-79244963D01*
X143114627Y-79320949D01*
X143094777Y-79419301D01*
X143082617Y-79479350D01*
X143052999Y-79625400D01*
X142553190Y-79625400D01*
X142522282Y-79441250D01*
X142500569Y-79319292D01*
X142479051Y-79236308D01*
X142450059Y-79181082D01*
X142405925Y-79142402D01*
X142338979Y-79109052D01*
X142278225Y-79084377D01*
X142104146Y-79015310D01*
X141921899Y-79142555D01*
X141837617Y-79199771D01*
X141768541Y-79243649D01*
X141725507Y-79267429D01*
X141717942Y-79269800D01*
X141691174Y-79252742D01*
X141640307Y-79208352D01*
X141575507Y-79146802D01*
X141506938Y-79078267D01*
X141444764Y-79012919D01*
X141399151Y-78960931D01*
X141380262Y-78932477D01*
X141380200Y-78931769D01*
X141393458Y-78903075D01*
X141428669Y-78843876D01*
X141478994Y-78765516D01*
X141494500Y-78742223D01*
X141556840Y-78646559D01*
X141592359Y-78580383D01*
X141603893Y-78531940D01*
X141594279Y-78489475D01*
X141566925Y-78442102D01*
X141542793Y-78388087D01*
X141547875Y-78356394D01*
X141575322Y-78342128D01*
X141639958Y-78312791D01*
X141732085Y-78272475D01*
X141842007Y-78225272D01*
X141960027Y-78175273D01*
X142076449Y-78126571D01*
X142181575Y-78083256D01*
X142265710Y-78049421D01*
X142319156Y-78029157D01*
X142332768Y-78025200D01*
X142348878Y-78044299D01*
X142383054Y-78092751D01*
X142403849Y-78123722D01*
X142500475Y-78227928D01*
X142620695Y-78294615D01*
X142754573Y-78324423D01*
X142892171Y-78317996D01*
X143023552Y-78275975D01*
X143138780Y-78199001D01*
X143227917Y-78087717D01*
X143237527Y-78069870D01*
X143287614Y-77920511D01*
X143289900Y-77770237D01*
X143245832Y-77627833D01*
X143156858Y-77502082D01*
X143141418Y-77486797D01*
X143010675Y-77392250D01*
X142872397Y-77346834D01*
X142731079Y-77350324D01*
X142591218Y-77402495D01*
X142457309Y-77503124D01*
X142438514Y-77521868D01*
X142315728Y-77648463D01*
X141924469Y-77487581D01*
X141773937Y-77424485D01*
X141666058Y-77376128D01*
X141595770Y-77339831D01*
X141558008Y-77312911D01*
X141547707Y-77292686D01*
X141548730Y-77288600D01*
X141582932Y-77202990D01*
X141598217Y-77145286D01*
X141592500Y-77097738D01*
X141563696Y-77042595D01*
X141510515Y-76963280D01*
X141457058Y-76882744D01*
X141415031Y-76816068D01*
X141392757Y-76776501D01*
X141391905Y-76774463D01*
X141403467Y-76743665D01*
X141444763Y-76687526D01*
X141508430Y-76615411D01*
X141552612Y-76570047D01*
X141725809Y-76398177D01*
X141911096Y-76528300D01*
X142096384Y-76658422D01*
X142282685Y-76587293D01*
X142468987Y-76516163D01*
X142513452Y-76280081D01*
X142557917Y-76044000D01*
X142805458Y-76043999D01*
X143052999Y-76043999D01*
X143081261Y-76190049D01*
X143106604Y-76321162D01*
X143126172Y-76412066D01*
X143144888Y-76472215D01*
X143167676Y-76511061D01*
X143199459Y-76538056D01*
X143245161Y-76562654D01*
X143285555Y-76582271D01*
X143368362Y-76619323D01*
X143439063Y-76644751D01*
X143473940Y-76652121D01*
X143515958Y-76638907D01*
X143586469Y-76602335D01*
X143673046Y-76549148D01*
X143711616Y-76523195D01*
X143900253Y-76392790D01*
X144250406Y-76742943D01*
X144110408Y-76952050D01*
X143970410Y-77161156D01*
X144034461Y-77318787D01*
X144071295Y-77401845D01*
X144105147Y-77465311D01*
X144127669Y-77494438D01*
X144165352Y-77506845D01*
X144238898Y-77523470D01*
X144333911Y-77541135D01*
X144356013Y-77544805D01*
X144555200Y-77577152D01*
X144555200Y-78095097D01*
X144104544Y-78182631D01*
G36*
X142942630Y-82113846D02*
G01*
X142894390Y-82262024D01*
X142807304Y-82379140D01*
X142683733Y-82462720D01*
X142526041Y-82510291D01*
X142391928Y-82520858D01*
X142320426Y-82520843D01*
X142268474Y-82515951D01*
X142232957Y-82499205D01*
X142210759Y-82463628D01*
X142198768Y-82402245D01*
X142193867Y-82308078D01*
X142192942Y-82174152D01*
X142193000Y-82075281D01*
X142191431Y-81913007D01*
X142186931Y-81784383D01*
X142179812Y-81694589D01*
X142170384Y-81648803D01*
X142167104Y-81644393D01*
X142120074Y-81639962D01*
X142052190Y-81658719D01*
X141982852Y-81692864D01*
X141931459Y-81734596D01*
X141926379Y-81741195D01*
X141889564Y-81835137D01*
X141895218Y-81940393D01*
X141941685Y-82043110D01*
X141966328Y-82074814D01*
X142010988Y-82130115D01*
X142031722Y-82176892D01*
X142034108Y-82236275D01*
X142026902Y-82304298D01*
X142011472Y-82386699D01*
X141991510Y-82435824D01*
X141978746Y-82444800D01*
X141930972Y-82425548D01*
X141866613Y-82375463D01*
X141797155Y-82306053D01*
X141734084Y-82228824D01*
X141688888Y-82155283D01*
X141688124Y-82153671D01*
X141646903Y-82018939D01*
X141634384Y-81865447D01*
X141650805Y-81715090D01*
X141682278Y-81617503D01*
X141768032Y-81487057D01*
X141888597Y-81389744D01*
X142037864Y-81328592D01*
X142209725Y-81306629D01*
X142300369Y-81311095D01*
X142422862Y-81337801D01*
X142422862Y-81682800D01*
X142409664Y-81707403D01*
X142400720Y-81778313D01*
X142396486Y-81891178D01*
X142396200Y-81936800D01*
X142396200Y-82190800D01*
X142486255Y-82190800D01*
X142582071Y-82169377D01*
X142652749Y-82112771D01*
X142693204Y-82032472D01*
X142698350Y-81939970D01*
X142663102Y-81846757D01*
X142647958Y-81825417D01*
X142589246Y-81767789D01*
X142516060Y-81717490D01*
X142447896Y-81686876D01*
X142422862Y-81682800D01*
X142422862Y-81337801D01*
X142492222Y-81352923D01*
X142656428Y-81432925D01*
X142788642Y-81546909D01*
X142884519Y-81690687D01*
X142939712Y-81860068D01*
X142949659Y-81937079D01*
X142942630Y-82113846D01*
G37*
X142942630Y-82113846D02*
X142894390Y-82262024D01*
X142807304Y-82379140D01*
X142683733Y-82462720D01*
X142526041Y-82510291D01*
X142391928Y-82520858D01*
X142320426Y-82520843D01*
X142268474Y-82515951D01*
X142232957Y-82499205D01*
X142210759Y-82463628D01*
X142198768Y-82402245D01*
X142193867Y-82308078D01*
X142192942Y-82174152D01*
X142193000Y-82075281D01*
X142191431Y-81913007D01*
X142186931Y-81784383D01*
X142179812Y-81694589D01*
X142170384Y-81648803D01*
X142167104Y-81644393D01*
X142120074Y-81639962D01*
X142052190Y-81658719D01*
X141982852Y-81692864D01*
X141931459Y-81734596D01*
X141926379Y-81741195D01*
X141889564Y-81835137D01*
X141895218Y-81940393D01*
X141941685Y-82043110D01*
X141966328Y-82074814D01*
X142010988Y-82130115D01*
X142031722Y-82176892D01*
X142034108Y-82236275D01*
X142026902Y-82304298D01*
X142011472Y-82386699D01*
X141991510Y-82435824D01*
X141978746Y-82444800D01*
X141930972Y-82425548D01*
X141866613Y-82375463D01*
X141797155Y-82306053D01*
X141734084Y-82228824D01*
X141688888Y-82155283D01*
X141688124Y-82153671D01*
X141646903Y-82018939D01*
X141634384Y-81865447D01*
X141650805Y-81715090D01*
X141682278Y-81617503D01*
X141768032Y-81487057D01*
X141888597Y-81389744D01*
X142037864Y-81328592D01*
X142209725Y-81306629D01*
X142300369Y-81311095D01*
X142422862Y-81337801D01*
X142422862Y-81682800D01*
X142409664Y-81707403D01*
X142400720Y-81778313D01*
X142396486Y-81891178D01*
X142396200Y-81936800D01*
X142396200Y-82190800D01*
X142486255Y-82190800D01*
X142582071Y-82169377D01*
X142652749Y-82112771D01*
X142693204Y-82032472D01*
X142698350Y-81939970D01*
X142663102Y-81846757D01*
X142647958Y-81825417D01*
X142589246Y-81767789D01*
X142516060Y-81717490D01*
X142447896Y-81686876D01*
X142422862Y-81682800D01*
X142422862Y-81337801D01*
X142492222Y-81352923D01*
X142656428Y-81432925D01*
X142788642Y-81546909D01*
X142884519Y-81690687D01*
X142939712Y-81860068D01*
X142949659Y-81937079D01*
X142942630Y-82113846D01*
G36*
X143410514Y-86342441D02*
G01*
X143406075Y-86405945D01*
X143399817Y-86432460D01*
X143399305Y-86432600D01*
X143357901Y-86427028D01*
X143275399Y-86411557D01*
X143160117Y-86388050D01*
X143020377Y-86358372D01*
X142864496Y-86324384D01*
X142700797Y-86287953D01*
X142537599Y-86250941D01*
X142383221Y-86215213D01*
X142245984Y-86182632D01*
X142134208Y-86155063D01*
X142056213Y-86134368D01*
X142026260Y-86125004D01*
X141866723Y-86047624D01*
X141751776Y-85949056D01*
X141677982Y-85824280D01*
X141641904Y-85668275D01*
X141636942Y-85556300D01*
X141640917Y-85454388D01*
X141649702Y-85362836D01*
X141660475Y-85305330D01*
X141715282Y-85201310D01*
X141805717Y-85113345D01*
X141881035Y-85070426D01*
X141953132Y-85048715D01*
X142033047Y-85037383D01*
X142103195Y-85037463D01*
X142145990Y-85049984D01*
X142150068Y-85054650D01*
X142158407Y-85088379D01*
X142169016Y-85156585D01*
X142177653Y-85227370D01*
X142194374Y-85381040D01*
X142101811Y-85381040D01*
X142014464Y-85398416D01*
X141961065Y-85452067D01*
X141939628Y-85544274D01*
X141939000Y-85568203D01*
X141958950Y-85676115D01*
X142019113Y-85753013D01*
X142111199Y-85797139D01*
X142153278Y-85807484D01*
X142234518Y-85826075D01*
X142346756Y-85851146D01*
X142481828Y-85880931D01*
X142631571Y-85913663D01*
X142787822Y-85947576D01*
X142942418Y-85980902D01*
X143087194Y-86011876D01*
X143213987Y-86038730D01*
X143314634Y-86059698D01*
X143380972Y-86073014D01*
X143404445Y-86077000D01*
X143408268Y-86100256D01*
X143411038Y-86161459D01*
X143412194Y-86247754D01*
X143412200Y-86254800D01*
X143410514Y-86342441D01*
G37*
X143410514Y-86342441D02*
X143406075Y-86405945D01*
X143399817Y-86432460D01*
X143399305Y-86432600D01*
X143357901Y-86427028D01*
X143275399Y-86411557D01*
X143160117Y-86388050D01*
X143020377Y-86358372D01*
X142864496Y-86324384D01*
X142700797Y-86287953D01*
X142537599Y-86250941D01*
X142383221Y-86215213D01*
X142245984Y-86182632D01*
X142134208Y-86155063D01*
X142056213Y-86134368D01*
X142026260Y-86125004D01*
X141866723Y-86047624D01*
X141751776Y-85949056D01*
X141677982Y-85824280D01*
X141641904Y-85668275D01*
X141636942Y-85556300D01*
X141640917Y-85454388D01*
X141649702Y-85362836D01*
X141660475Y-85305330D01*
X141715282Y-85201310D01*
X141805717Y-85113345D01*
X141881035Y-85070426D01*
X141953132Y-85048715D01*
X142033047Y-85037383D01*
X142103195Y-85037463D01*
X142145990Y-85049984D01*
X142150068Y-85054650D01*
X142158407Y-85088379D01*
X142169016Y-85156585D01*
X142177653Y-85227370D01*
X142194374Y-85381040D01*
X142101811Y-85381040D01*
X142014464Y-85398416D01*
X141961065Y-85452067D01*
X141939628Y-85544274D01*
X141939000Y-85568203D01*
X141958950Y-85676115D01*
X142019113Y-85753013D01*
X142111199Y-85797139D01*
X142153278Y-85807484D01*
X142234518Y-85826075D01*
X142346756Y-85851146D01*
X142481828Y-85880931D01*
X142631571Y-85913663D01*
X142787822Y-85947576D01*
X142942418Y-85980902D01*
X143087194Y-86011876D01*
X143213987Y-86038730D01*
X143314634Y-86059698D01*
X143380972Y-86073014D01*
X143404445Y-86077000D01*
X143408268Y-86100256D01*
X143411038Y-86161459D01*
X143412194Y-86247754D01*
X143412200Y-86254800D01*
X143410514Y-86342441D01*
G36*
X142940651Y-83764947D02*
G01*
X142932103Y-83825272D01*
X142911259Y-83867512D01*
X142872720Y-83908012D01*
X142859946Y-83919550D01*
X142791372Y-83970580D01*
X142723570Y-84005724D01*
X142709007Y-84010347D01*
X142657178Y-84011487D01*
X142561056Y-84001344D01*
X142425707Y-83980650D01*
X142256196Y-83950141D01*
X142150011Y-83929397D01*
X141659600Y-83831232D01*
X141659600Y-83658716D01*
X141661560Y-83572537D01*
X141666706Y-83510690D01*
X141673936Y-83486220D01*
X141674161Y-83486200D01*
X141702600Y-83491089D01*
X141772471Y-83504654D01*
X141875467Y-83525236D01*
X142003281Y-83551178D01*
X142125011Y-83576159D01*
X142271023Y-83604834D01*
X142402975Y-83628073D01*
X142511515Y-83644437D01*
X142587289Y-83652490D01*
X142618064Y-83651972D01*
X142673812Y-83616305D01*
X142698281Y-83552369D01*
X142692436Y-83471149D01*
X142657243Y-83383631D01*
X142593669Y-83300798D01*
X142586564Y-83293926D01*
X142525993Y-83248878D01*
X142440960Y-83207342D01*
X142325578Y-83167407D01*
X142173961Y-83127163D01*
X141980220Y-83084698D01*
X141881850Y-83065155D01*
X141659600Y-83022048D01*
X141659600Y-82847724D01*
X141660991Y-82761039D01*
X141664643Y-82698621D01*
X141669782Y-82673449D01*
X141670030Y-82673400D01*
X141696742Y-82678408D01*
X141766252Y-82692480D01*
X141871656Y-82714190D01*
X142006048Y-82742110D01*
X142162522Y-82774812D01*
X142284421Y-82800400D01*
X142453167Y-82835712D01*
X142605435Y-82867248D01*
X142734168Y-82893575D01*
X142832306Y-82913256D01*
X142892793Y-82924856D01*
X142908991Y-82927400D01*
X142919399Y-82950589D01*
X142926808Y-83011356D01*
X142929600Y-83095675D01*
X142929600Y-83263950D01*
X142855049Y-83249039D01*
X142780498Y-83234129D01*
X142861399Y-83364272D01*
X142906561Y-83444039D01*
X142931066Y-83513502D01*
X142940914Y-83595347D01*
X142942300Y-83670190D01*
X142940651Y-83764947D01*
G37*
X142940651Y-83764947D02*
X142932103Y-83825272D01*
X142911259Y-83867512D01*
X142872720Y-83908012D01*
X142859946Y-83919550D01*
X142791372Y-83970580D01*
X142723570Y-84005724D01*
X142709007Y-84010347D01*
X142657178Y-84011487D01*
X142561056Y-84001344D01*
X142425707Y-83980650D01*
X142256196Y-83950141D01*
X142150011Y-83929397D01*
X141659600Y-83831232D01*
X141659600Y-83658716D01*
X141661560Y-83572537D01*
X141666706Y-83510690D01*
X141673936Y-83486220D01*
X141674161Y-83486200D01*
X141702600Y-83491089D01*
X141772471Y-83504654D01*
X141875467Y-83525236D01*
X142003281Y-83551178D01*
X142125011Y-83576159D01*
X142271023Y-83604834D01*
X142402975Y-83628073D01*
X142511515Y-83644437D01*
X142587289Y-83652490D01*
X142618064Y-83651972D01*
X142673812Y-83616305D01*
X142698281Y-83552369D01*
X142692436Y-83471149D01*
X142657243Y-83383631D01*
X142593669Y-83300798D01*
X142586564Y-83293926D01*
X142525993Y-83248878D01*
X142440960Y-83207342D01*
X142325578Y-83167407D01*
X142173961Y-83127163D01*
X141980220Y-83084698D01*
X141881850Y-83065155D01*
X141659600Y-83022048D01*
X141659600Y-82847724D01*
X141660991Y-82761039D01*
X141664643Y-82698621D01*
X141669782Y-82673449D01*
X141670030Y-82673400D01*
X141696742Y-82678408D01*
X141766252Y-82692480D01*
X141871656Y-82714190D01*
X142006048Y-82742110D01*
X142162522Y-82774812D01*
X142284421Y-82800400D01*
X142453167Y-82835712D01*
X142605435Y-82867248D01*
X142734168Y-82893575D01*
X142832306Y-82913256D01*
X142892793Y-82924856D01*
X142908991Y-82927400D01*
X142919399Y-82950589D01*
X142926808Y-83011356D01*
X142929600Y-83095675D01*
X142929600Y-83263950D01*
X142855049Y-83249039D01*
X142780498Y-83234129D01*
X142861399Y-83364272D01*
X142906561Y-83444039D01*
X142931066Y-83513502D01*
X142940914Y-83595347D01*
X142942300Y-83670190D01*
X142940651Y-83764947D01*
G36*
X143409834Y-87113139D02*
G01*
X143401949Y-87169856D01*
X143387372Y-87188968D01*
X143380450Y-87187968D01*
X143348800Y-87180115D01*
X143273397Y-87163317D01*
X143160249Y-87138853D01*
X143015362Y-87108006D01*
X142844745Y-87072057D01*
X142654403Y-87032286D01*
X142504152Y-87001101D01*
X141659604Y-86826300D01*
X141659602Y-86640438D01*
X141660890Y-86544859D01*
X141666407Y-86490393D01*
X141678632Y-86467384D01*
X141700042Y-86466174D01*
X141704050Y-86467233D01*
X141738879Y-86475274D01*
X141817283Y-86492272D01*
X141933086Y-86516924D01*
X142080111Y-86547926D01*
X142252182Y-86583973D01*
X142443121Y-86623762D01*
X142580350Y-86652241D01*
X143412200Y-86824592D01*
X143412200Y-87012313D01*
X143409834Y-87113139D01*
G37*
X143409834Y-87113139D02*
X143401949Y-87169856D01*
X143387372Y-87188968D01*
X143380450Y-87187968D01*
X143348800Y-87180115D01*
X143273397Y-87163317D01*
X143160249Y-87138853D01*
X143015362Y-87108006D01*
X142844745Y-87072057D01*
X142654403Y-87032286D01*
X142504152Y-87001101D01*
X141659604Y-86826300D01*
X141659602Y-86640438D01*
X141660890Y-86544859D01*
X141666407Y-86490393D01*
X141678632Y-86467384D01*
X141700042Y-86466174D01*
X141704050Y-86467233D01*
X141738879Y-86475274D01*
X141817283Y-86492272D01*
X141933086Y-86516924D01*
X142080111Y-86547926D01*
X142252182Y-86583973D01*
X142443121Y-86623762D01*
X142580350Y-86652241D01*
X143412200Y-86824592D01*
X143412200Y-87012313D01*
X143409834Y-87113139D01*
G36*
X143399022Y-88202450D02*
G01*
X143397068Y-88328773D01*
X143392865Y-88421232D01*
X143385635Y-88488291D01*
X143374604Y-88538417D01*
X143358996Y-88580075D01*
X143347229Y-88604300D01*
X143268420Y-88707665D01*
X143162323Y-88776161D01*
X143037299Y-88811103D01*
X142901712Y-88813812D01*
X142763923Y-88785605D01*
X142632295Y-88727800D01*
X142515191Y-88641715D01*
X142420973Y-88528669D01*
X142380380Y-88451900D01*
X142357367Y-88376644D01*
X142340675Y-88268939D01*
X142329363Y-88121540D01*
X142325354Y-88028542D01*
X142314124Y-87706784D01*
X142145612Y-87668926D01*
X142025810Y-87642787D01*
X141896016Y-87615626D01*
X141818350Y-87600029D01*
X141659600Y-87568990D01*
X141659600Y-87200987D01*
X142186650Y-87310765D01*
X142372372Y-87349487D01*
X142567912Y-87390326D01*
X142653203Y-87408165D01*
X142653203Y-87778800D01*
X142635321Y-87801748D01*
X142625506Y-87862244D01*
X142623254Y-87947763D01*
X142628065Y-88045780D01*
X142639436Y-88143770D01*
X142656867Y-88229209D01*
X142673141Y-88276484D01*
X142731277Y-88360731D01*
X142809948Y-88418182D01*
X142897418Y-88446262D01*
X142981950Y-88442395D01*
X143051808Y-88404004D01*
X143080456Y-88365885D01*
X143092696Y-88318350D01*
X143102031Y-88235142D01*
X143106978Y-88131371D01*
X143107400Y-88090992D01*
X143107400Y-87866445D01*
X142894503Y-87822622D01*
X142794171Y-87802619D01*
X142711863Y-87787405D01*
X142661054Y-87779429D01*
X142653203Y-87778800D01*
X142653203Y-87408165D01*
X142758183Y-87430123D01*
X142928098Y-87465725D01*
X143056600Y-87492719D01*
X143399500Y-87564895D01*
X143399500Y-88033797D01*
X143399022Y-88202450D01*
G37*
X143399022Y-88202450D02*
X143397068Y-88328773D01*
X143392865Y-88421232D01*
X143385635Y-88488291D01*
X143374604Y-88538417D01*
X143358996Y-88580075D01*
X143347229Y-88604300D01*
X143268420Y-88707665D01*
X143162323Y-88776161D01*
X143037299Y-88811103D01*
X142901712Y-88813812D01*
X142763923Y-88785605D01*
X142632295Y-88727800D01*
X142515191Y-88641715D01*
X142420973Y-88528669D01*
X142380380Y-88451900D01*
X142357367Y-88376644D01*
X142340675Y-88268939D01*
X142329363Y-88121540D01*
X142325354Y-88028542D01*
X142314124Y-87706784D01*
X142145612Y-87668926D01*
X142025810Y-87642787D01*
X141896016Y-87615626D01*
X141818350Y-87600029D01*
X141659600Y-87568990D01*
X141659600Y-87200987D01*
X142186650Y-87310765D01*
X142372372Y-87349487D01*
X142567912Y-87390326D01*
X142653203Y-87408165D01*
X142653203Y-87778800D01*
X142635321Y-87801748D01*
X142625506Y-87862244D01*
X142623254Y-87947763D01*
X142628065Y-88045780D01*
X142639436Y-88143770D01*
X142656867Y-88229209D01*
X142673141Y-88276484D01*
X142731277Y-88360731D01*
X142809948Y-88418182D01*
X142897418Y-88446262D01*
X142981950Y-88442395D01*
X143051808Y-88404004D01*
X143080456Y-88365885D01*
X143092696Y-88318350D01*
X143102031Y-88235142D01*
X143106978Y-88131371D01*
X143107400Y-88090992D01*
X143107400Y-87866445D01*
X142894503Y-87822622D01*
X142794171Y-87802619D01*
X142711863Y-87787405D01*
X142661054Y-87779429D01*
X142653203Y-87778800D01*
X142653203Y-87408165D01*
X142758183Y-87430123D01*
X142928098Y-87465725D01*
X143056600Y-87492719D01*
X143399500Y-87564895D01*
X143399500Y-88033797D01*
X143399022Y-88202450D01*
G36*
X142352497Y-84918633D02*
G01*
X142263486Y-84902637D01*
X142201777Y-84887898D01*
X142162217Y-84865744D01*
X142139650Y-84827502D01*
X142128923Y-84764498D01*
X142124880Y-84668060D01*
X142122409Y-84531487D01*
X142115317Y-84196059D01*
X142173209Y-84209538D01*
X142236437Y-84223364D01*
X142317728Y-84240086D01*
X142332700Y-84243061D01*
X142434300Y-84263104D01*
X142441397Y-84599843D01*
X142448493Y-84936581D01*
X142352497Y-84918633D01*
G37*
X142352497Y-84918633D02*
X142263486Y-84902637D01*
X142201777Y-84887898D01*
X142162217Y-84865744D01*
X142139650Y-84827502D01*
X142128923Y-84764498D01*
X142124880Y-84668060D01*
X142122409Y-84531487D01*
X142115317Y-84196059D01*
X142173209Y-84209538D01*
X142236437Y-84223364D01*
X142317728Y-84240086D01*
X142332700Y-84243061D01*
X142434300Y-84263104D01*
X142441397Y-84599843D01*
X142448493Y-84936581D01*
X142352497Y-84918633D01*
D10*
%TO.C,U5*%
X190705001Y-73375001D02*
X190705001Y-91155001D01*
X129745001Y-91155001D02*
X129745001Y-73375001D01*
X191975001Y-86075001D02*
X190705001Y-86075001D01*
X191975001Y-78455001D02*
X191975001Y-86075001D01*
X190705001Y-78455001D02*
X191975001Y-78455001D01*
X190705001Y-73375001D02*
X129745001Y-73375001D01*
X129745001Y-91155001D02*
X190705001Y-91155001D01*
X131015001Y-87345001D02*
X129745001Y-88615001D01*
X131015001Y-77185001D02*
X131015001Y-87345001D01*
X129745001Y-75915001D02*
X131015001Y-77185001D01*
X131015001Y-87345001D02*
X129745001Y-87345001D01*
X131015001Y-86075001D02*
X129745001Y-86075001D01*
X131015001Y-84805001D02*
X129745001Y-84805001D01*
X131015001Y-83535001D02*
X129745001Y-83535001D01*
X131015001Y-82265001D02*
X129745001Y-82265001D01*
X131015001Y-80995001D02*
X129745001Y-80995001D01*
X131015001Y-79725001D02*
X129745001Y-79725001D01*
X131015001Y-78455001D02*
X129745001Y-78455001D01*
X131015001Y-77185001D02*
X129745001Y-77185001D01*
D13*
%TO.C,J1*%
X177652000Y-102550000D02*
X177652000Y-104830000D01*
X177652000Y-104830000D02*
X191842000Y-104830000D01*
X191842000Y-104830000D02*
X191842000Y-95830000D01*
X191842000Y-95830000D02*
X183322000Y-95830000D01*
X177652000Y-98110000D02*
X177652000Y-95830000D01*
X177652000Y-95830000D02*
X178882000Y-95830000D01*
D14*
X177052000Y-100330000D02*
G75*
G03*
X177052000Y-100330000I-100000J0D01*
G01*
D15*
%TO.C,R13*%
X174233064Y-98071000D02*
X173778936Y-98071000D01*
X174233064Y-99541000D02*
X173778936Y-99541000D01*
%TO.C,D3*%
X167549000Y-99766000D02*
X170409000Y-99766000D01*
X167549000Y-97846000D02*
X167549000Y-99766000D01*
X170409000Y-97846000D02*
X167549000Y-97846000D01*
%TO.C,C1*%
X151355248Y-85879000D02*
X151877752Y-85879000D01*
X151355248Y-87349000D02*
X151877752Y-87349000D01*
%TO.C,C2*%
X170915000Y-105671252D02*
X170915000Y-105148748D01*
X169445000Y-105671252D02*
X169445000Y-105148748D01*
%TO.C,C3*%
X163976248Y-77735000D02*
X164498752Y-77735000D01*
X163976248Y-76265000D02*
X164498752Y-76265000D01*
%TO.C,C4*%
X153897000Y-104894748D02*
X153897000Y-105417252D01*
X152427000Y-104894748D02*
X152427000Y-105417252D01*
%TO.C,C5*%
X155315000Y-86598752D02*
X155315000Y-86076248D01*
X156785000Y-86598752D02*
X156785000Y-86076248D01*
%TO.C,C6*%
X158016752Y-76735000D02*
X157494248Y-76735000D01*
X158016752Y-78205000D02*
X157494248Y-78205000D01*
%TO.C,C7*%
X144300000Y-103590000D02*
X144300000Y-104090000D01*
X144050000Y-103840000D02*
X144550000Y-103840000D01*
X144790000Y-106595563D02*
X145854437Y-107660000D01*
X144790000Y-104204437D02*
X145854437Y-103140000D01*
X144790000Y-104204437D02*
X144790000Y-104340000D01*
X144790000Y-106595563D02*
X144790000Y-106460000D01*
X145854437Y-107660000D02*
X149310000Y-107660000D01*
X145854437Y-103140000D02*
X149310000Y-103140000D01*
X149310000Y-103140000D02*
X149310000Y-104340000D01*
X149310000Y-107660000D02*
X149310000Y-106460000D01*
D16*
%TO.C,CR1*%
X146477000Y-91186100D02*
G75*
G03*
X146477000Y-91186100I-127000J0D01*
G01*
X146400800Y-100687125D02*
X146400800Y-100888900D01*
X146400800Y-98147125D02*
X146400800Y-98372875D01*
X146400800Y-95608240D02*
X146400800Y-95832875D01*
X147924800Y-92964100D02*
X144775200Y-92964100D01*
X147924800Y-101015900D02*
X147924800Y-92964100D01*
X144775200Y-101015900D02*
X147924800Y-101015900D01*
X144775200Y-92964100D02*
X144775200Y-101015900D01*
X146400800Y-93091100D02*
X146400800Y-93291760D01*
D13*
%TO.C,D1*%
X150850000Y-83000000D02*
X150850000Y-83770000D01*
X150850000Y-80230000D02*
X150850000Y-81000000D01*
D14*
X145083178Y-82020000D02*
G75*
G03*
X145083178Y-82020000I-143178J0D01*
G01*
D13*
X150850000Y-80230000D02*
G75*
G03*
X150850000Y-83770000I-2359991J-1770000D01*
G01*
D15*
%TO.C,D2*%
X167549000Y-97546000D02*
X170409000Y-97546000D01*
X167549000Y-95626000D02*
X167549000Y-97546000D01*
X170409000Y-95626000D02*
X167549000Y-95626000D01*
%TO.C,J2*%
X142700000Y-92950000D02*
X131850000Y-92950000D01*
X142700000Y-98050000D02*
X142700000Y-92950000D01*
X142200000Y-97750000D02*
X142700000Y-98050000D01*
X142200000Y-103150000D02*
X142200000Y-97750000D01*
X142700000Y-102900000D02*
X142200000Y-103150000D01*
X142700000Y-102950000D02*
X142700000Y-102900000D01*
X142700000Y-104850000D02*
X142700000Y-102950000D01*
X142200000Y-104600000D02*
X142700000Y-104850000D01*
X142200000Y-105550000D02*
X142200000Y-104600000D01*
X131850000Y-105550000D02*
X142200000Y-105550000D01*
X131850000Y-92950000D02*
X131850000Y-105550000D01*
%TO.C,R1*%
X160755000Y-80983064D02*
X160755000Y-80528936D01*
X159285000Y-80983064D02*
X159285000Y-80528936D01*
%TO.C,R2*%
X157565000Y-86527064D02*
X157565000Y-86072936D01*
X159035000Y-86527064D02*
X159035000Y-86072936D01*
%TO.C,R3*%
X164022936Y-86085000D02*
X164477064Y-86085000D01*
X164022936Y-84615000D02*
X164477064Y-84615000D01*
%TO.C,R4*%
X152972936Y-99565000D02*
X153427064Y-99565000D01*
X152972936Y-101035000D02*
X153427064Y-101035000D01*
%TO.C,R5*%
X164022936Y-82515000D02*
X164477064Y-82515000D01*
X164022936Y-83985000D02*
X164477064Y-83985000D01*
%TO.C,R6*%
X152972936Y-98935000D02*
X153427064Y-98935000D01*
X152972936Y-97465000D02*
X153427064Y-97465000D01*
%TO.C,R7*%
X161235000Y-86527064D02*
X161235000Y-86072936D01*
X159765000Y-86527064D02*
X159765000Y-86072936D01*
%TO.C,R8*%
X164022936Y-81885000D02*
X164477064Y-81885000D01*
X164022936Y-80415000D02*
X164477064Y-80415000D01*
%TO.C,R9*%
X152972936Y-96835000D02*
X153427064Y-96835000D01*
X152972936Y-95365000D02*
X153427064Y-95365000D01*
%TO.C,R10*%
X164022936Y-78365000D02*
X164477064Y-78365000D01*
X164022936Y-79835000D02*
X164477064Y-79835000D01*
%TO.C,R11*%
X152972936Y-93265000D02*
X153427064Y-93265000D01*
X152972936Y-94735000D02*
X153427064Y-94735000D01*
%TO.C,R12*%
X174233064Y-97321000D02*
X173778936Y-97321000D01*
X174233064Y-95851000D02*
X173778936Y-95851000D01*
D16*
%TO.C,U1*%
X162845200Y-93181200D02*
X161549800Y-93181200D01*
X163454800Y-93181200D02*
X162845200Y-93181200D01*
X164750200Y-93181200D02*
X163454800Y-93181200D01*
X161549800Y-101918800D02*
X164750200Y-101918800D01*
X163454800Y-93181200D02*
G75*
G02*
X162845200Y-93181200I-304800J0D01*
G01*
%TO.C,U2*%
X169621200Y-80441800D02*
X169621200Y-83642200D01*
X178358800Y-83642200D02*
X178358800Y-82346800D01*
X178358800Y-82346800D02*
X178358800Y-81737200D01*
X178358800Y-81737200D02*
X178358800Y-80441800D01*
X178358800Y-82346800D02*
G75*
G02*
X178358800Y-81737200I0J304800D01*
G01*
D11*
%TO.C,U3*%
X167571419Y-105410000D02*
G75*
G03*
X167571419Y-105410000I-141419J0D01*
G01*
D13*
X155950000Y-103190000D02*
X166630000Y-103190000D01*
X166630000Y-103190000D02*
X166630000Y-107890000D01*
X155950000Y-107890000D02*
X155950000Y-103190000D01*
X166630000Y-107890000D02*
X155950000Y-107890000D01*
%TO.C,U4*%
X155763000Y-82156000D02*
X155103000Y-82156000D01*
X156233000Y-80371000D02*
X156233000Y-81041000D01*
X155103000Y-79256000D02*
X155763000Y-79256000D01*
D14*
X153123000Y-79656000D02*
G75*
G03*
X153123000Y-79656000I-100000J0D01*
G01*
%TO.C,U5*%
D10*
X159463096Y-91877381D02*
X159463096Y-92686905D01*
X159510715Y-92782143D01*
X159558334Y-92829762D01*
X159653572Y-92877381D01*
X159844048Y-92877381D01*
X159939286Y-92829762D01*
X159986905Y-92782143D01*
X160034524Y-92686905D01*
X160034524Y-91877381D01*
X160986905Y-91877381D02*
X160510715Y-91877381D01*
X160463096Y-92353572D01*
X160510715Y-92305953D01*
X160605953Y-92258334D01*
X160844048Y-92258334D01*
X160939286Y-92305953D01*
X160986905Y-92353572D01*
X161034524Y-92448810D01*
X161034524Y-92686905D01*
X160986905Y-92782143D01*
X160939286Y-92829762D01*
X160844048Y-92877381D01*
X160605953Y-92877381D01*
X160510715Y-92829762D01*
X160463096Y-92782143D01*
X188887381Y-85407858D02*
X189696905Y-85407858D01*
X189792143Y-85360239D01*
X189839762Y-85312620D01*
X189887381Y-85217381D01*
X189887381Y-85026905D01*
X189839762Y-84931667D01*
X189792143Y-84884048D01*
X189696905Y-84836429D01*
X188887381Y-84836429D01*
X189839762Y-84407858D02*
X189887381Y-84265001D01*
X189887381Y-84026905D01*
X189839762Y-83931667D01*
X189792143Y-83884048D01*
X189696905Y-83836429D01*
X189601667Y-83836429D01*
X189506429Y-83884048D01*
X189458810Y-83931667D01*
X189411191Y-84026905D01*
X189363572Y-84217381D01*
X189315953Y-84312620D01*
X189268334Y-84360239D01*
X189173096Y-84407858D01*
X189077858Y-84407858D01*
X188982620Y-84360239D01*
X188935001Y-84312620D01*
X188887381Y-84217381D01*
X188887381Y-83979286D01*
X188935001Y-83836429D01*
X189363572Y-83074524D02*
X189411191Y-82931667D01*
X189458810Y-82884048D01*
X189554048Y-82836429D01*
X189696905Y-82836429D01*
X189792143Y-82884048D01*
X189839762Y-82931667D01*
X189887381Y-83026905D01*
X189887381Y-83407858D01*
X188887381Y-83407858D01*
X188887381Y-83074524D01*
X188935001Y-82979286D01*
X188982620Y-82931667D01*
X189077858Y-82884048D01*
X189173096Y-82884048D01*
X189268334Y-82931667D01*
X189315953Y-82979286D01*
X189363572Y-83074524D01*
X189363572Y-83407858D01*
X189887381Y-82407858D02*
X188887381Y-82407858D01*
X189220715Y-81931667D02*
X189887381Y-81931667D01*
X189315953Y-81931667D02*
X189268334Y-81884048D01*
X189220715Y-81788810D01*
X189220715Y-81645953D01*
X189268334Y-81550715D01*
X189363572Y-81503096D01*
X189887381Y-81503096D01*
X189220715Y-81026905D02*
X190220715Y-81026905D01*
X189268334Y-81026905D02*
X189220715Y-80931667D01*
X189220715Y-80741191D01*
X189268334Y-80645953D01*
X189315953Y-80598334D01*
X189411191Y-80550715D01*
X189696905Y-80550715D01*
X189792143Y-80598334D01*
X189839762Y-80645953D01*
X189887381Y-80741191D01*
X189887381Y-80931667D01*
X189839762Y-81026905D01*
X189220715Y-79693572D02*
X189887381Y-79693572D01*
X189220715Y-80122143D02*
X189744524Y-80122143D01*
X189839762Y-80074524D01*
X189887381Y-79979286D01*
X189887381Y-79836429D01*
X189839762Y-79741191D01*
X189792143Y-79693572D01*
X189220715Y-79360239D02*
X189220715Y-78979286D01*
X188887381Y-79217381D02*
X189744524Y-79217381D01*
X189839762Y-79169762D01*
X189887381Y-79074524D01*
X189887381Y-78979286D01*
%TO.C,J1*%
D17*
X175728380Y-103457333D02*
X176442666Y-103457333D01*
X176585523Y-103504952D01*
X176680761Y-103600190D01*
X176728380Y-103743047D01*
X176728380Y-103838285D01*
X176728380Y-102457333D02*
X176728380Y-103028761D01*
X176728380Y-102743047D02*
X175728380Y-102743047D01*
X175871238Y-102838285D01*
X175966476Y-102933523D01*
X176014095Y-103028761D01*
%TO.C,R13*%
D10*
X173347142Y-101036380D02*
X173013809Y-100560190D01*
X172775714Y-101036380D02*
X172775714Y-100036380D01*
X173156666Y-100036380D01*
X173251904Y-100084000D01*
X173299523Y-100131619D01*
X173347142Y-100226857D01*
X173347142Y-100369714D01*
X173299523Y-100464952D01*
X173251904Y-100512571D01*
X173156666Y-100560190D01*
X172775714Y-100560190D01*
X174299523Y-101036380D02*
X173728095Y-101036380D01*
X174013809Y-101036380D02*
X174013809Y-100036380D01*
X173918571Y-100179238D01*
X173823333Y-100274476D01*
X173728095Y-100322095D01*
X174632857Y-100036380D02*
X175251904Y-100036380D01*
X174918571Y-100417333D01*
X175061428Y-100417333D01*
X175156666Y-100464952D01*
X175204285Y-100512571D01*
X175251904Y-100607809D01*
X175251904Y-100845904D01*
X175204285Y-100941142D01*
X175156666Y-100988761D01*
X175061428Y-101036380D01*
X174775714Y-101036380D01*
X174680476Y-100988761D01*
X174632857Y-100941142D01*
%TO.C,D3*%
X168670904Y-101036380D02*
X168670904Y-100036380D01*
X168909000Y-100036380D01*
X169051857Y-100084000D01*
X169147095Y-100179238D01*
X169194714Y-100274476D01*
X169242333Y-100464952D01*
X169242333Y-100607809D01*
X169194714Y-100798285D01*
X169147095Y-100893523D01*
X169051857Y-100988761D01*
X168909000Y-101036380D01*
X168670904Y-101036380D01*
X169575666Y-100036380D02*
X170194714Y-100036380D01*
X169861380Y-100417333D01*
X170004238Y-100417333D01*
X170099476Y-100464952D01*
X170147095Y-100512571D01*
X170194714Y-100607809D01*
X170194714Y-100845904D01*
X170147095Y-100941142D01*
X170099476Y-100988761D01*
X170004238Y-101036380D01*
X169718523Y-101036380D01*
X169623285Y-100988761D01*
X169575666Y-100941142D01*
%TO.C,C1*%
X148677333Y-86971142D02*
X148629714Y-87018761D01*
X148486857Y-87066380D01*
X148391619Y-87066380D01*
X148248761Y-87018761D01*
X148153523Y-86923523D01*
X148105904Y-86828285D01*
X148058285Y-86637809D01*
X148058285Y-86494952D01*
X148105904Y-86304476D01*
X148153523Y-86209238D01*
X148248761Y-86114000D01*
X148391619Y-86066380D01*
X148486857Y-86066380D01*
X148629714Y-86114000D01*
X148677333Y-86161619D01*
X149629714Y-87066380D02*
X149058285Y-87066380D01*
X149344000Y-87066380D02*
X149344000Y-86066380D01*
X149248761Y-86209238D01*
X149153523Y-86304476D01*
X149058285Y-86352095D01*
%TO.C,C2*%
X168857142Y-105576666D02*
X168904761Y-105624285D01*
X168952380Y-105767142D01*
X168952380Y-105862380D01*
X168904761Y-106005238D01*
X168809523Y-106100476D01*
X168714285Y-106148095D01*
X168523809Y-106195714D01*
X168380952Y-106195714D01*
X168190476Y-106148095D01*
X168095238Y-106100476D01*
X168000000Y-106005238D01*
X167952380Y-105862380D01*
X167952380Y-105767142D01*
X168000000Y-105624285D01*
X168047619Y-105576666D01*
X168047619Y-105195714D02*
X168000000Y-105148095D01*
X167952380Y-105052857D01*
X167952380Y-104814761D01*
X168000000Y-104719523D01*
X168047619Y-104671904D01*
X168142857Y-104624285D01*
X168238095Y-104624285D01*
X168380952Y-104671904D01*
X168952380Y-105243333D01*
X168952380Y-104624285D01*
%TO.C,C3*%
X161123333Y-77573142D02*
X161075714Y-77620761D01*
X160932857Y-77668380D01*
X160837619Y-77668380D01*
X160694761Y-77620761D01*
X160599523Y-77525523D01*
X160551904Y-77430285D01*
X160504285Y-77239809D01*
X160504285Y-77096952D01*
X160551904Y-76906476D01*
X160599523Y-76811238D01*
X160694761Y-76716000D01*
X160837619Y-76668380D01*
X160932857Y-76668380D01*
X161075714Y-76716000D01*
X161123333Y-76763619D01*
X161456666Y-76668380D02*
X162075714Y-76668380D01*
X161742380Y-77049333D01*
X161885238Y-77049333D01*
X161980476Y-77096952D01*
X162028095Y-77144571D01*
X162075714Y-77239809D01*
X162075714Y-77477904D01*
X162028095Y-77573142D01*
X161980476Y-77620761D01*
X161885238Y-77668380D01*
X161599523Y-77668380D01*
X161504285Y-77620761D01*
X161456666Y-77573142D01*
%TO.C,C4*%
X155199142Y-105322666D02*
X155246761Y-105370285D01*
X155294380Y-105513142D01*
X155294380Y-105608380D01*
X155246761Y-105751238D01*
X155151523Y-105846476D01*
X155056285Y-105894095D01*
X154865809Y-105941714D01*
X154722952Y-105941714D01*
X154532476Y-105894095D01*
X154437238Y-105846476D01*
X154342000Y-105751238D01*
X154294380Y-105608380D01*
X154294380Y-105513142D01*
X154342000Y-105370285D01*
X154389619Y-105322666D01*
X154627714Y-104465523D02*
X155294380Y-104465523D01*
X154246761Y-104703619D02*
X154961047Y-104941714D01*
X154961047Y-104322666D01*
%TO.C,C5*%
X154789142Y-86504166D02*
X154836761Y-86551785D01*
X154884380Y-86694642D01*
X154884380Y-86789880D01*
X154836761Y-86932738D01*
X154741523Y-87027976D01*
X154646285Y-87075595D01*
X154455809Y-87123214D01*
X154312952Y-87123214D01*
X154122476Y-87075595D01*
X154027238Y-87027976D01*
X153932000Y-86932738D01*
X153884380Y-86789880D01*
X153884380Y-86694642D01*
X153932000Y-86551785D01*
X153979619Y-86504166D01*
X153884380Y-85599404D02*
X153884380Y-86075595D01*
X154360571Y-86123214D01*
X154312952Y-86075595D01*
X154265333Y-85980357D01*
X154265333Y-85742261D01*
X154312952Y-85647023D01*
X154360571Y-85599404D01*
X154455809Y-85551785D01*
X154693904Y-85551785D01*
X154789142Y-85599404D01*
X154836761Y-85647023D01*
X154884380Y-85742261D01*
X154884380Y-85980357D01*
X154836761Y-86075595D01*
X154789142Y-86123214D01*
%TO.C,C6*%
X154519333Y-77827142D02*
X154471714Y-77874761D01*
X154328857Y-77922380D01*
X154233619Y-77922380D01*
X154090761Y-77874761D01*
X153995523Y-77779523D01*
X153947904Y-77684285D01*
X153900285Y-77493809D01*
X153900285Y-77350952D01*
X153947904Y-77160476D01*
X153995523Y-77065238D01*
X154090761Y-76970000D01*
X154233619Y-76922380D01*
X154328857Y-76922380D01*
X154471714Y-76970000D01*
X154519333Y-77017619D01*
X155376476Y-76922380D02*
X155186000Y-76922380D01*
X155090761Y-76970000D01*
X155043142Y-77017619D01*
X154947904Y-77160476D01*
X154900285Y-77350952D01*
X154900285Y-77731904D01*
X154947904Y-77827142D01*
X154995523Y-77874761D01*
X155090761Y-77922380D01*
X155281238Y-77922380D01*
X155376476Y-77874761D01*
X155424095Y-77827142D01*
X155471714Y-77731904D01*
X155471714Y-77493809D01*
X155424095Y-77398571D01*
X155376476Y-77350952D01*
X155281238Y-77303333D01*
X155090761Y-77303333D01*
X154995523Y-77350952D01*
X154947904Y-77398571D01*
X154900285Y-77493809D01*
%TO.C,C7*%
X146883333Y-102557142D02*
X146835714Y-102604761D01*
X146692857Y-102652380D01*
X146597619Y-102652380D01*
X146454761Y-102604761D01*
X146359523Y-102509523D01*
X146311904Y-102414285D01*
X146264285Y-102223809D01*
X146264285Y-102080952D01*
X146311904Y-101890476D01*
X146359523Y-101795238D01*
X146454761Y-101700000D01*
X146597619Y-101652380D01*
X146692857Y-101652380D01*
X146835714Y-101700000D01*
X146883333Y-101747619D01*
X147216666Y-101652380D02*
X147883333Y-101652380D01*
X147454761Y-102652380D01*
%TO.C,CR1*%
X145633333Y-92507142D02*
X145585714Y-92554761D01*
X145442857Y-92602380D01*
X145347619Y-92602380D01*
X145204761Y-92554761D01*
X145109523Y-92459523D01*
X145061904Y-92364285D01*
X145014285Y-92173809D01*
X145014285Y-92030952D01*
X145061904Y-91840476D01*
X145109523Y-91745238D01*
X145204761Y-91650000D01*
X145347619Y-91602380D01*
X145442857Y-91602380D01*
X145585714Y-91650000D01*
X145633333Y-91697619D01*
X146633333Y-92602380D02*
X146300000Y-92126190D01*
X146061904Y-92602380D02*
X146061904Y-91602380D01*
X146442857Y-91602380D01*
X146538095Y-91650000D01*
X146585714Y-91697619D01*
X146633333Y-91792857D01*
X146633333Y-91935714D01*
X146585714Y-92030952D01*
X146538095Y-92078571D01*
X146442857Y-92126190D01*
X146061904Y-92126190D01*
X147585714Y-92602380D02*
X147014285Y-92602380D01*
X147300000Y-92602380D02*
X147300000Y-91602380D01*
X147204761Y-91745238D01*
X147109523Y-91840476D01*
X147014285Y-91888095D01*
X145802380Y-94450000D02*
X146040476Y-94450000D01*
X145945238Y-94688095D02*
X146040476Y-94450000D01*
X145945238Y-94211904D01*
X146230952Y-94592857D02*
X146040476Y-94450000D01*
X146230952Y-94307142D01*
%TO.C,D1*%
D17*
X144803904Y-79700380D02*
X144803904Y-78700380D01*
X145042000Y-78700380D01*
X145184857Y-78748000D01*
X145280095Y-78843238D01*
X145327714Y-78938476D01*
X145375333Y-79128952D01*
X145375333Y-79271809D01*
X145327714Y-79462285D01*
X145280095Y-79557523D01*
X145184857Y-79652761D01*
X145042000Y-79700380D01*
X144803904Y-79700380D01*
X146327714Y-79700380D02*
X145756285Y-79700380D01*
X146042000Y-79700380D02*
X146042000Y-78700380D01*
X145946761Y-78843238D01*
X145851523Y-78938476D01*
X145756285Y-78986095D01*
%TO.C,D2*%
D10*
X168670904Y-95388380D02*
X168670904Y-94388380D01*
X168909000Y-94388380D01*
X169051857Y-94436000D01*
X169147095Y-94531238D01*
X169194714Y-94626476D01*
X169242333Y-94816952D01*
X169242333Y-94959809D01*
X169194714Y-95150285D01*
X169147095Y-95245523D01*
X169051857Y-95340761D01*
X168909000Y-95388380D01*
X168670904Y-95388380D01*
X169623285Y-94483619D02*
X169670904Y-94436000D01*
X169766142Y-94388380D01*
X170004238Y-94388380D01*
X170099476Y-94436000D01*
X170147095Y-94483619D01*
X170194714Y-94578857D01*
X170194714Y-94674095D01*
X170147095Y-94816952D01*
X169575666Y-95388380D01*
X170194714Y-95388380D01*
%TO.C,J2*%
X131449619Y-93738666D02*
X130735333Y-93738666D01*
X130592476Y-93691047D01*
X130497238Y-93595809D01*
X130449619Y-93452952D01*
X130449619Y-93357714D01*
X131354380Y-94167238D02*
X131402000Y-94214857D01*
X131449619Y-94310095D01*
X131449619Y-94548190D01*
X131402000Y-94643428D01*
X131354380Y-94691047D01*
X131259142Y-94738666D01*
X131163904Y-94738666D01*
X131021047Y-94691047D01*
X130449619Y-94119619D01*
X130449619Y-94738666D01*
%TO.C,R1*%
X158822380Y-80922666D02*
X158346190Y-81256000D01*
X158822380Y-81494095D02*
X157822380Y-81494095D01*
X157822380Y-81113142D01*
X157870000Y-81017904D01*
X157917619Y-80970285D01*
X158012857Y-80922666D01*
X158155714Y-80922666D01*
X158250952Y-80970285D01*
X158298571Y-81017904D01*
X158346190Y-81113142D01*
X158346190Y-81494095D01*
X158822380Y-79970285D02*
X158822380Y-80541714D01*
X158822380Y-80256000D02*
X157822380Y-80256000D01*
X157965238Y-80351238D01*
X158060476Y-80446476D01*
X158108095Y-80541714D01*
%TO.C,R2*%
X158948380Y-83732666D02*
X158472190Y-84066000D01*
X158948380Y-84304095D02*
X157948380Y-84304095D01*
X157948380Y-83923142D01*
X157996000Y-83827904D01*
X158043619Y-83780285D01*
X158138857Y-83732666D01*
X158281714Y-83732666D01*
X158376952Y-83780285D01*
X158424571Y-83827904D01*
X158472190Y-83923142D01*
X158472190Y-84304095D01*
X158043619Y-83351714D02*
X157996000Y-83304095D01*
X157948380Y-83208857D01*
X157948380Y-82970761D01*
X157996000Y-82875523D01*
X158043619Y-82827904D01*
X158138857Y-82780285D01*
X158234095Y-82780285D01*
X158376952Y-82827904D01*
X158948380Y-83399333D01*
X158948380Y-82780285D01*
%TO.C,R3*%
X166965333Y-85796380D02*
X166632000Y-85320190D01*
X166393904Y-85796380D02*
X166393904Y-84796380D01*
X166774857Y-84796380D01*
X166870095Y-84844000D01*
X166917714Y-84891619D01*
X166965333Y-84986857D01*
X166965333Y-85129714D01*
X166917714Y-85224952D01*
X166870095Y-85272571D01*
X166774857Y-85320190D01*
X166393904Y-85320190D01*
X167298666Y-84796380D02*
X167917714Y-84796380D01*
X167584380Y-85177333D01*
X167727238Y-85177333D01*
X167822476Y-85224952D01*
X167870095Y-85272571D01*
X167917714Y-85367809D01*
X167917714Y-85605904D01*
X167870095Y-85701142D01*
X167822476Y-85748761D01*
X167727238Y-85796380D01*
X167441523Y-85796380D01*
X167346285Y-85748761D01*
X167298666Y-85701142D01*
%TO.C,R4*%
X150033333Y-100752380D02*
X149700000Y-100276190D01*
X149461904Y-100752380D02*
X149461904Y-99752380D01*
X149842857Y-99752380D01*
X149938095Y-99800000D01*
X149985714Y-99847619D01*
X150033333Y-99942857D01*
X150033333Y-100085714D01*
X149985714Y-100180952D01*
X149938095Y-100228571D01*
X149842857Y-100276190D01*
X149461904Y-100276190D01*
X150890476Y-100085714D02*
X150890476Y-100752380D01*
X150652380Y-99704761D02*
X150414285Y-100419047D01*
X151033333Y-100419047D01*
%TO.C,R5*%
X166965333Y-83764380D02*
X166632000Y-83288190D01*
X166393904Y-83764380D02*
X166393904Y-82764380D01*
X166774857Y-82764380D01*
X166870095Y-82812000D01*
X166917714Y-82859619D01*
X166965333Y-82954857D01*
X166965333Y-83097714D01*
X166917714Y-83192952D01*
X166870095Y-83240571D01*
X166774857Y-83288190D01*
X166393904Y-83288190D01*
X167870095Y-82764380D02*
X167393904Y-82764380D01*
X167346285Y-83240571D01*
X167393904Y-83192952D01*
X167489142Y-83145333D01*
X167727238Y-83145333D01*
X167822476Y-83192952D01*
X167870095Y-83240571D01*
X167917714Y-83335809D01*
X167917714Y-83573904D01*
X167870095Y-83669142D01*
X167822476Y-83716761D01*
X167727238Y-83764380D01*
X167489142Y-83764380D01*
X167393904Y-83716761D01*
X167346285Y-83669142D01*
%TO.C,R6*%
X150033333Y-98652380D02*
X149700000Y-98176190D01*
X149461904Y-98652380D02*
X149461904Y-97652380D01*
X149842857Y-97652380D01*
X149938095Y-97700000D01*
X149985714Y-97747619D01*
X150033333Y-97842857D01*
X150033333Y-97985714D01*
X149985714Y-98080952D01*
X149938095Y-98128571D01*
X149842857Y-98176190D01*
X149461904Y-98176190D01*
X150890476Y-97652380D02*
X150700000Y-97652380D01*
X150604761Y-97700000D01*
X150557142Y-97747619D01*
X150461904Y-97890476D01*
X150414285Y-98080952D01*
X150414285Y-98461904D01*
X150461904Y-98557142D01*
X150509523Y-98604761D01*
X150604761Y-98652380D01*
X150795238Y-98652380D01*
X150890476Y-98604761D01*
X150938095Y-98557142D01*
X150985714Y-98461904D01*
X150985714Y-98223809D01*
X150938095Y-98128571D01*
X150890476Y-98080952D01*
X150795238Y-98033333D01*
X150604761Y-98033333D01*
X150509523Y-98080952D01*
X150461904Y-98128571D01*
X150414285Y-98223809D01*
%TO.C,R7*%
X160980380Y-83732666D02*
X160504190Y-84066000D01*
X160980380Y-84304095D02*
X159980380Y-84304095D01*
X159980380Y-83923142D01*
X160028000Y-83827904D01*
X160075619Y-83780285D01*
X160170857Y-83732666D01*
X160313714Y-83732666D01*
X160408952Y-83780285D01*
X160456571Y-83827904D01*
X160504190Y-83923142D01*
X160504190Y-84304095D01*
X159980380Y-83399333D02*
X159980380Y-82732666D01*
X160980380Y-83161238D01*
%TO.C,R8*%
X166965333Y-81732380D02*
X166632000Y-81256190D01*
X166393904Y-81732380D02*
X166393904Y-80732380D01*
X166774857Y-80732380D01*
X166870095Y-80780000D01*
X166917714Y-80827619D01*
X166965333Y-80922857D01*
X166965333Y-81065714D01*
X166917714Y-81160952D01*
X166870095Y-81208571D01*
X166774857Y-81256190D01*
X166393904Y-81256190D01*
X167536761Y-81160952D02*
X167441523Y-81113333D01*
X167393904Y-81065714D01*
X167346285Y-80970476D01*
X167346285Y-80922857D01*
X167393904Y-80827619D01*
X167441523Y-80780000D01*
X167536761Y-80732380D01*
X167727238Y-80732380D01*
X167822476Y-80780000D01*
X167870095Y-80827619D01*
X167917714Y-80922857D01*
X167917714Y-80970476D01*
X167870095Y-81065714D01*
X167822476Y-81113333D01*
X167727238Y-81160952D01*
X167536761Y-81160952D01*
X167441523Y-81208571D01*
X167393904Y-81256190D01*
X167346285Y-81351428D01*
X167346285Y-81541904D01*
X167393904Y-81637142D01*
X167441523Y-81684761D01*
X167536761Y-81732380D01*
X167727238Y-81732380D01*
X167822476Y-81684761D01*
X167870095Y-81637142D01*
X167917714Y-81541904D01*
X167917714Y-81351428D01*
X167870095Y-81256190D01*
X167822476Y-81208571D01*
X167727238Y-81160952D01*
%TO.C,R9*%
X150033333Y-96602380D02*
X149700000Y-96126190D01*
X149461904Y-96602380D02*
X149461904Y-95602380D01*
X149842857Y-95602380D01*
X149938095Y-95650000D01*
X149985714Y-95697619D01*
X150033333Y-95792857D01*
X150033333Y-95935714D01*
X149985714Y-96030952D01*
X149938095Y-96078571D01*
X149842857Y-96126190D01*
X149461904Y-96126190D01*
X150509523Y-96602380D02*
X150700000Y-96602380D01*
X150795238Y-96554761D01*
X150842857Y-96507142D01*
X150938095Y-96364285D01*
X150985714Y-96173809D01*
X150985714Y-95792857D01*
X150938095Y-95697619D01*
X150890476Y-95650000D01*
X150795238Y-95602380D01*
X150604761Y-95602380D01*
X150509523Y-95650000D01*
X150461904Y-95697619D01*
X150414285Y-95792857D01*
X150414285Y-96030952D01*
X150461904Y-96126190D01*
X150509523Y-96173809D01*
X150604761Y-96221428D01*
X150795238Y-96221428D01*
X150890476Y-96173809D01*
X150938095Y-96126190D01*
X150985714Y-96030952D01*
%TO.C,R10*%
X166997142Y-79446380D02*
X166663809Y-78970190D01*
X166425714Y-79446380D02*
X166425714Y-78446380D01*
X166806666Y-78446380D01*
X166901904Y-78494000D01*
X166949523Y-78541619D01*
X166997142Y-78636857D01*
X166997142Y-78779714D01*
X166949523Y-78874952D01*
X166901904Y-78922571D01*
X166806666Y-78970190D01*
X166425714Y-78970190D01*
X167949523Y-79446380D02*
X167378095Y-79446380D01*
X167663809Y-79446380D02*
X167663809Y-78446380D01*
X167568571Y-78589238D01*
X167473333Y-78684476D01*
X167378095Y-78732095D01*
X168568571Y-78446380D02*
X168663809Y-78446380D01*
X168759047Y-78494000D01*
X168806666Y-78541619D01*
X168854285Y-78636857D01*
X168901904Y-78827333D01*
X168901904Y-79065428D01*
X168854285Y-79255904D01*
X168806666Y-79351142D01*
X168759047Y-79398761D01*
X168663809Y-79446380D01*
X168568571Y-79446380D01*
X168473333Y-79398761D01*
X168425714Y-79351142D01*
X168378095Y-79255904D01*
X168330476Y-79065428D01*
X168330476Y-78827333D01*
X168378095Y-78636857D01*
X168425714Y-78541619D01*
X168473333Y-78494000D01*
X168568571Y-78446380D01*
%TO.C,R11*%
X149157142Y-94402380D02*
X148823809Y-93926190D01*
X148585714Y-94402380D02*
X148585714Y-93402380D01*
X148966666Y-93402380D01*
X149061904Y-93450000D01*
X149109523Y-93497619D01*
X149157142Y-93592857D01*
X149157142Y-93735714D01*
X149109523Y-93830952D01*
X149061904Y-93878571D01*
X148966666Y-93926190D01*
X148585714Y-93926190D01*
X150109523Y-94402380D02*
X149538095Y-94402380D01*
X149823809Y-94402380D02*
X149823809Y-93402380D01*
X149728571Y-93545238D01*
X149633333Y-93640476D01*
X149538095Y-93688095D01*
X151061904Y-94402380D02*
X150490476Y-94402380D01*
X150776190Y-94402380D02*
X150776190Y-93402380D01*
X150680952Y-93545238D01*
X150585714Y-93640476D01*
X150490476Y-93688095D01*
%TO.C,R12*%
X173347142Y-95194380D02*
X173013809Y-94718190D01*
X172775714Y-95194380D02*
X172775714Y-94194380D01*
X173156666Y-94194380D01*
X173251904Y-94242000D01*
X173299523Y-94289619D01*
X173347142Y-94384857D01*
X173347142Y-94527714D01*
X173299523Y-94622952D01*
X173251904Y-94670571D01*
X173156666Y-94718190D01*
X172775714Y-94718190D01*
X174299523Y-95194380D02*
X173728095Y-95194380D01*
X174013809Y-95194380D02*
X174013809Y-94194380D01*
X173918571Y-94337238D01*
X173823333Y-94432476D01*
X173728095Y-94480095D01*
X174680476Y-94289619D02*
X174728095Y-94242000D01*
X174823333Y-94194380D01*
X175061428Y-94194380D01*
X175156666Y-94242000D01*
X175204285Y-94289619D01*
X175251904Y-94384857D01*
X175251904Y-94480095D01*
X175204285Y-94622952D01*
X174632857Y-95194380D01*
X175251904Y-95194380D01*
%TO.C,U1*%
D18*
X163653691Y-89886140D02*
X163653691Y-91215384D01*
X163731882Y-91371766D01*
X163810073Y-91449957D01*
X163966454Y-91528148D01*
X164279218Y-91528148D01*
X164435599Y-91449957D01*
X164513790Y-91371766D01*
X164591981Y-91215384D01*
X164591981Y-89886140D01*
X166233989Y-91528148D02*
X165295699Y-91528148D01*
X165764844Y-91528148D02*
X165764844Y-89886140D01*
X165608462Y-90120712D01*
X165452081Y-90277094D01*
X165295699Y-90355285D01*
%TO.C,U2*%
D17*
X178816095Y-80224380D02*
X178816095Y-81033904D01*
X178863714Y-81129142D01*
X178911333Y-81176761D01*
X179006571Y-81224380D01*
X179197047Y-81224380D01*
X179292285Y-81176761D01*
X179339904Y-81129142D01*
X179387523Y-81033904D01*
X179387523Y-80224380D01*
X179816095Y-80319619D02*
X179863714Y-80272000D01*
X179958952Y-80224380D01*
X180197047Y-80224380D01*
X180292285Y-80272000D01*
X180339904Y-80319619D01*
X180387523Y-80414857D01*
X180387523Y-80510095D01*
X180339904Y-80652952D01*
X179768476Y-81224380D01*
X180387523Y-81224380D01*
%TO.C,U3*%
X167132023Y-102576329D02*
X167132023Y-103385929D01*
X167179647Y-103481176D01*
X167227270Y-103528799D01*
X167322517Y-103576423D01*
X167513011Y-103576423D01*
X167608258Y-103528799D01*
X167655882Y-103481176D01*
X167703505Y-103385929D01*
X167703505Y-102576329D01*
X168084494Y-102576329D02*
X168703599Y-102576329D01*
X168370235Y-102957317D01*
X168513105Y-102957317D01*
X168608352Y-103004941D01*
X168655976Y-103052564D01*
X168703599Y-103147811D01*
X168703599Y-103385929D01*
X168655976Y-103481176D01*
X168608352Y-103528799D01*
X168513105Y-103576423D01*
X168227364Y-103576423D01*
X168132117Y-103528799D01*
X168084494Y-103481176D01*
%TO.C,U4*%
X153314476Y-82619904D02*
X153314476Y-83267523D01*
X153352571Y-83343714D01*
X153390666Y-83381809D01*
X153466857Y-83419904D01*
X153619238Y-83419904D01*
X153695428Y-83381809D01*
X153733523Y-83343714D01*
X153771619Y-83267523D01*
X153771619Y-82619904D01*
X154495428Y-82886571D02*
X154495428Y-83419904D01*
X154304952Y-82581809D02*
X154114476Y-83153238D01*
X154609714Y-83153238D01*
%TD*%
M02*
