%TF.GenerationSoftware,KiCad,Pcbnew,(5.1.8-0-10_14)*%
%TF.CreationDate,2021-01-27T14:23:45+11:00*%
%TF.ProjectId,Open-JIP(KiCad)_T3.6,4f70656e-2d4a-4495-9028-4b6943616429,rev?*%
%TF.SameCoordinates,Original*%
%TF.FileFunction,Soldermask,Bot*%
%TF.FilePolarity,Negative*%
%FSLAX46Y46*%
G04 Gerber Fmt 4.6, Leading zero omitted, Abs format (unit mm)*
G04 Created by KiCad (PCBNEW (5.1.8-0-10_14)) date 2021-01-27 14:23:45*
%MOMM*%
%LPD*%
G01*
G04 APERTURE LIST*
%ADD10C,1.000000*%
%ADD11C,5.700000*%
%ADD12C,1.600000*%
%ADD13R,1.600000X1.600000*%
%ADD14O,1.900000X3.800000*%
%ADD15O,3.800000X1.900000*%
%ADD16R,1.651000X1.651000*%
%ADD17C,1.651000*%
%ADD18R,1.980000X3.960000*%
%ADD19O,1.980000X3.960000*%
%ADD20R,1.980000X1.980000*%
%ADD21C,1.980000*%
G04 APERTURE END LIST*
D10*
%TO.C,D1*%
X150270000Y-82000000D02*
G75*
G03*
X150270000Y-82000000I-500000J0D01*
G01*
X147730000Y-82000000D02*
G75*
G03*
X147730000Y-82000000I-500000J0D01*
G01*
%TD*%
D11*
%TO.C,REF\u002A\u002A*%
X184912000Y-82000000D03*
%TD*%
D12*
%TO.C,U5*%
X148795001Y-74645001D03*
X146255001Y-74645001D03*
X143715001Y-74645001D03*
X141175001Y-74645001D03*
X151335001Y-74645001D03*
X153875001Y-74645001D03*
X156415001Y-74645001D03*
X138635001Y-74645001D03*
X136095001Y-74645001D03*
X133555001Y-74645001D03*
X131015001Y-74645001D03*
X131015001Y-89885001D03*
X133555001Y-89885001D03*
X136095001Y-89885001D03*
X138635001Y-89885001D03*
X141175001Y-89885001D03*
X143715001Y-89885001D03*
X146255001Y-89885001D03*
X148795001Y-89885001D03*
X158955001Y-74645001D03*
X161495001Y-74645001D03*
X164035001Y-74645001D03*
X166575001Y-74645001D03*
X169115001Y-74645001D03*
X171655001Y-74645001D03*
X174195001Y-74645001D03*
X176735001Y-74645001D03*
X179275001Y-74645001D03*
X181815001Y-74645001D03*
X184355001Y-74645001D03*
X186895001Y-74645001D03*
D13*
X189435001Y-74645001D03*
D12*
X151335001Y-89885001D03*
X153875001Y-89885001D03*
X156415001Y-89885001D03*
X158955001Y-89885001D03*
X161495001Y-89885001D03*
X164035001Y-89885001D03*
X166575001Y-89885001D03*
X169115001Y-89885001D03*
X171655001Y-89885001D03*
X174195001Y-89885001D03*
X176735001Y-89885001D03*
X179275001Y-89885001D03*
X181815001Y-89885001D03*
X184355001Y-89885001D03*
X186895001Y-89885001D03*
X189435001Y-89885001D03*
%TD*%
D11*
%TO.C,REF\u002A\u002A*%
X135382000Y-82000000D03*
%TD*%
D14*
%TO.C,J1*%
X178422000Y-100330000D03*
X184352000Y-100330000D03*
D15*
X181102000Y-95680000D03*
%TD*%
D16*
%TO.C,CR1*%
X146350000Y-94450000D03*
D17*
X146350000Y-96990000D03*
X146350000Y-99530000D03*
%TD*%
D18*
%TO.C,J2*%
X134500000Y-99250000D03*
D19*
X139500000Y-99250000D03*
%TD*%
D20*
%TO.C,U3*%
X163830000Y-105410000D03*
D21*
X161290000Y-105410000D03*
X158750000Y-105410000D03*
%TD*%
M02*
