%TF.GenerationSoftware,KiCad,Pcbnew,(5.1.8-0-10_14)*%
%TF.CreationDate,2020-12-27T09:30:55+11:00*%
%TF.ProjectId,Open-JIP(KiCad)_T3.2,4f70656e-2d4a-4495-9028-4b6943616429,rev?*%
%TF.SameCoordinates,Original*%
%TF.FileFunction,Soldermask,Bot*%
%TF.FilePolarity,Negative*%
%FSLAX46Y46*%
G04 Gerber Fmt 4.6, Leading zero omitted, Abs format (unit mm)*
G04 Created by KiCad (PCBNEW (5.1.8-0-10_14)) date 2020-12-27 09:30:55*
%MOMM*%
%LPD*%
G01*
G04 APERTURE LIST*
%ADD10C,1.000000*%
%ADD11C,5.600000*%
%ADD12C,1.600000*%
%ADD13R,1.600000X1.600000*%
%ADD14R,1.651000X1.651000*%
%ADD15C,1.651000*%
%ADD16O,3.800000X1.900000*%
%ADD17O,1.900000X3.800000*%
%ADD18R,3.960000X1.980000*%
%ADD19O,3.960000X1.980000*%
%ADD20R,1.980000X1.980000*%
%ADD21C,1.980000*%
G04 APERTURE END LIST*
D10*
%TO.C,D1*%
X110736000Y-64008000D02*
G75*
G03*
X110736000Y-64008000I-500000J0D01*
G01*
X108196000Y-64008000D02*
G75*
G03*
X108196000Y-64008000I-500000J0D01*
G01*
%TD*%
D11*
%TO.C,REF\u002A\u002A*%
X120000000Y-76708000D03*
%TD*%
%TO.C,REF\u002A\u002A*%
X120000000Y-30000000D03*
%TD*%
D12*
%TO.C,U5*%
X103378000Y-64008000D03*
X103378000Y-66548000D03*
X103378000Y-69088000D03*
X103378000Y-71628000D03*
X103378000Y-61468000D03*
X103378000Y-58928000D03*
X103378000Y-56388000D03*
X105918000Y-71628000D03*
X108458000Y-71628000D03*
X110998000Y-71628000D03*
X113538000Y-71628000D03*
X116078000Y-71628000D03*
X118618000Y-71628000D03*
X121158000Y-71628000D03*
X123698000Y-71628000D03*
X126238000Y-71628000D03*
X128778000Y-71628000D03*
X131318000Y-71628000D03*
X133858000Y-71628000D03*
X136398000Y-71628000D03*
X105918000Y-56388000D03*
X108458000Y-56388000D03*
X110998000Y-56388000D03*
X113538000Y-56388000D03*
X116078000Y-56388000D03*
X118618000Y-56388000D03*
X121158000Y-56388000D03*
X123698000Y-56388000D03*
X126238000Y-56388000D03*
X128778000Y-56388000D03*
X131318000Y-56388000D03*
X133858000Y-56388000D03*
D13*
X136398000Y-56388000D03*
%TD*%
D14*
%TO.C,CR1*%
X119126000Y-46736000D03*
D15*
X119126000Y-49276000D03*
X119126000Y-51816000D03*
%TD*%
D16*
%TO.C,J1*%
X127508000Y-34720000D03*
D17*
X130758000Y-39370000D03*
X124828000Y-39370000D03*
%TD*%
D18*
%TO.C,J2*%
X108712000Y-45974000D03*
D19*
X108712000Y-50974000D03*
%TD*%
D20*
%TO.C,U2*%
X119126000Y-38608000D03*
D21*
X116586000Y-38608000D03*
X114046000Y-38608000D03*
%TD*%
M02*
