%TF.GenerationSoftware,KiCad,Pcbnew,(5.1.8-0-10_14)*%
%TF.CreationDate,2020-12-27T09:30:55+11:00*%
%TF.ProjectId,Open-JIP(KiCad)_T3.2,4f70656e-2d4a-4495-9028-4b6943616429,rev?*%
%TF.SameCoordinates,Original*%
%TF.FileFunction,Paste,Top*%
%TF.FilePolarity,Positive*%
%FSLAX46Y46*%
G04 Gerber Fmt 4.6, Leading zero omitted, Abs format (unit mm)*
G04 Created by KiCad (PCBNEW (5.1.8-0-10_14)) date 2020-12-27 09:30:55*
%MOMM*%
%LPD*%
G01*
G04 APERTURE LIST*
%ADD10R,0.533400X1.701800*%
%ADD11R,1.210000X0.590000*%
G04 APERTURE END LIST*
%TO.C,C1*%
G36*
G01*
X111977500Y-68801000D02*
X111977500Y-67851000D01*
G75*
G02*
X112227500Y-67601000I250000J0D01*
G01*
X112902500Y-67601000D01*
G75*
G02*
X113152500Y-67851000I0J-250000D01*
G01*
X113152500Y-68801000D01*
G75*
G02*
X112902500Y-69051000I-250000J0D01*
G01*
X112227500Y-69051000D01*
G75*
G02*
X111977500Y-68801000I0J250000D01*
G01*
G37*
G36*
G01*
X109902500Y-68801000D02*
X109902500Y-67851000D01*
G75*
G02*
X110152500Y-67601000I250000J0D01*
G01*
X110827500Y-67601000D01*
G75*
G02*
X111077500Y-67851000I0J-250000D01*
G01*
X111077500Y-68801000D01*
G75*
G02*
X110827500Y-69051000I-250000J0D01*
G01*
X110152500Y-69051000D01*
G75*
G02*
X109902500Y-68801000I0J250000D01*
G01*
G37*
%TD*%
%TO.C,C2*%
G36*
G01*
X120824500Y-35273000D02*
X120824500Y-34323000D01*
G75*
G02*
X121074500Y-34073000I250000J0D01*
G01*
X121749500Y-34073000D01*
G75*
G02*
X121999500Y-34323000I0J-250000D01*
G01*
X121999500Y-35273000D01*
G75*
G02*
X121749500Y-35523000I-250000J0D01*
G01*
X121074500Y-35523000D01*
G75*
G02*
X120824500Y-35273000I0J250000D01*
G01*
G37*
G36*
G01*
X118749500Y-35273000D02*
X118749500Y-34323000D01*
G75*
G02*
X118999500Y-34073000I250000J0D01*
G01*
X119674500Y-34073000D01*
G75*
G02*
X119924500Y-34323000I0J-250000D01*
G01*
X119924500Y-35273000D01*
G75*
G02*
X119674500Y-35523000I-250000J0D01*
G01*
X118999500Y-35523000D01*
G75*
G02*
X118749500Y-35273000I0J250000D01*
G01*
G37*
%TD*%
%TO.C,C3*%
G36*
G01*
X121586500Y-59403000D02*
X121586500Y-58453000D01*
G75*
G02*
X121836500Y-58203000I250000J0D01*
G01*
X122511500Y-58203000D01*
G75*
G02*
X122761500Y-58453000I0J-250000D01*
G01*
X122761500Y-59403000D01*
G75*
G02*
X122511500Y-59653000I-250000J0D01*
G01*
X121836500Y-59653000D01*
G75*
G02*
X121586500Y-59403000I0J250000D01*
G01*
G37*
G36*
G01*
X123661500Y-59403000D02*
X123661500Y-58453000D01*
G75*
G02*
X123911500Y-58203000I250000J0D01*
G01*
X124586500Y-58203000D01*
G75*
G02*
X124836500Y-58453000I0J-250000D01*
G01*
X124836500Y-59403000D01*
G75*
G02*
X124586500Y-59653000I-250000J0D01*
G01*
X123911500Y-59653000D01*
G75*
G02*
X123661500Y-59403000I0J250000D01*
G01*
G37*
%TD*%
%TO.C,C4*%
G36*
G01*
X111405000Y-35273000D02*
X111405000Y-34323000D01*
G75*
G02*
X111655000Y-34073000I250000J0D01*
G01*
X112330000Y-34073000D01*
G75*
G02*
X112580000Y-34323000I0J-250000D01*
G01*
X112580000Y-35273000D01*
G75*
G02*
X112330000Y-35523000I-250000J0D01*
G01*
X111655000Y-35523000D01*
G75*
G02*
X111405000Y-35273000I0J250000D01*
G01*
G37*
G36*
G01*
X113480000Y-35273000D02*
X113480000Y-34323000D01*
G75*
G02*
X113730000Y-34073000I250000J0D01*
G01*
X114405000Y-34073000D01*
G75*
G02*
X114655000Y-34323000I0J-250000D01*
G01*
X114655000Y-35273000D01*
G75*
G02*
X114405000Y-35523000I-250000J0D01*
G01*
X113730000Y-35523000D01*
G75*
G02*
X113480000Y-35273000I0J250000D01*
G01*
G37*
%TD*%
%TO.C,C5*%
G36*
G01*
X116760500Y-67531000D02*
X116760500Y-66581000D01*
G75*
G02*
X117010500Y-66331000I250000J0D01*
G01*
X117685500Y-66331000D01*
G75*
G02*
X117935500Y-66581000I0J-250000D01*
G01*
X117935500Y-67531000D01*
G75*
G02*
X117685500Y-67781000I-250000J0D01*
G01*
X117010500Y-67781000D01*
G75*
G02*
X116760500Y-67531000I0J250000D01*
G01*
G37*
G36*
G01*
X114685500Y-67531000D02*
X114685500Y-66581000D01*
G75*
G02*
X114935500Y-66331000I250000J0D01*
G01*
X115610500Y-66331000D01*
G75*
G02*
X115860500Y-66581000I0J-250000D01*
G01*
X115860500Y-67531000D01*
G75*
G02*
X115610500Y-67781000I-250000J0D01*
G01*
X114935500Y-67781000D01*
G75*
G02*
X114685500Y-67531000I0J250000D01*
G01*
G37*
%TD*%
%TO.C,C6*%
G36*
G01*
X102980000Y-39920000D02*
X102980000Y-38820000D01*
G75*
G02*
X103230000Y-38570000I250000J0D01*
G01*
X105730000Y-38570000D01*
G75*
G02*
X105980000Y-38820000I0J-250000D01*
G01*
X105980000Y-39920000D01*
G75*
G02*
X105730000Y-40170000I-250000J0D01*
G01*
X103230000Y-40170000D01*
G75*
G02*
X102980000Y-39920000I0J250000D01*
G01*
G37*
G36*
G01*
X107380000Y-39920000D02*
X107380000Y-38820000D01*
G75*
G02*
X107630000Y-38570000I250000J0D01*
G01*
X110130000Y-38570000D01*
G75*
G02*
X110380000Y-38820000I0J-250000D01*
G01*
X110380000Y-39920000D01*
G75*
G02*
X110130000Y-40170000I-250000J0D01*
G01*
X107630000Y-40170000D01*
G75*
G02*
X107380000Y-39920000I0J250000D01*
G01*
G37*
%TD*%
%TO.C,C7*%
G36*
G01*
X117127000Y-58065000D02*
X118077000Y-58065000D01*
G75*
G02*
X118327000Y-58315000I0J-250000D01*
G01*
X118327000Y-58990000D01*
G75*
G02*
X118077000Y-59240000I-250000J0D01*
G01*
X117127000Y-59240000D01*
G75*
G02*
X116877000Y-58990000I0J250000D01*
G01*
X116877000Y-58315000D01*
G75*
G02*
X117127000Y-58065000I250000J0D01*
G01*
G37*
G36*
G01*
X117127000Y-60140000D02*
X118077000Y-60140000D01*
G75*
G02*
X118327000Y-60390000I0J-250000D01*
G01*
X118327000Y-61065000D01*
G75*
G02*
X118077000Y-61315000I-250000J0D01*
G01*
X117127000Y-61315000D01*
G75*
G02*
X116877000Y-61065000I0J250000D01*
G01*
X116877000Y-60390000D01*
G75*
G02*
X117127000Y-60140000I250000J0D01*
G01*
G37*
%TD*%
%TO.C,D3*%
G36*
G01*
X115739000Y-44138001D02*
X115739000Y-43237999D01*
G75*
G02*
X115988999Y-42988000I249999J0D01*
G01*
X116639001Y-42988000D01*
G75*
G02*
X116889000Y-43237999I0J-249999D01*
G01*
X116889000Y-44138001D01*
G75*
G02*
X116639001Y-44388000I-249999J0D01*
G01*
X115988999Y-44388000D01*
G75*
G02*
X115739000Y-44138001I0J249999D01*
G01*
G37*
G36*
G01*
X117789000Y-44138001D02*
X117789000Y-43237999D01*
G75*
G02*
X118038999Y-42988000I249999J0D01*
G01*
X118689001Y-42988000D01*
G75*
G02*
X118939000Y-43237999I0J-249999D01*
G01*
X118939000Y-44138001D01*
G75*
G02*
X118689001Y-44388000I-249999J0D01*
G01*
X118038999Y-44388000D01*
G75*
G02*
X117789000Y-44138001I0J249999D01*
G01*
G37*
%TD*%
%TO.C,R1*%
G36*
G01*
X112922000Y-59886001D02*
X112922000Y-58985999D01*
G75*
G02*
X113171999Y-58736000I249999J0D01*
G01*
X113872001Y-58736000D01*
G75*
G02*
X114122000Y-58985999I0J-249999D01*
G01*
X114122000Y-59886001D01*
G75*
G02*
X113872001Y-60136000I-249999J0D01*
G01*
X113171999Y-60136000D01*
G75*
G02*
X112922000Y-59886001I0J249999D01*
G01*
G37*
G36*
G01*
X110922000Y-59886001D02*
X110922000Y-58985999D01*
G75*
G02*
X111171999Y-58736000I249999J0D01*
G01*
X111872001Y-58736000D01*
G75*
G02*
X112122000Y-58985999I0J-249999D01*
G01*
X112122000Y-59886001D01*
G75*
G02*
X111872001Y-60136000I-249999J0D01*
G01*
X111171999Y-60136000D01*
G75*
G02*
X110922000Y-59886001I0J249999D01*
G01*
G37*
%TD*%
%TO.C,R2*%
G36*
G01*
X106858000Y-59886001D02*
X106858000Y-58985999D01*
G75*
G02*
X107107999Y-58736000I249999J0D01*
G01*
X107808001Y-58736000D01*
G75*
G02*
X108058000Y-58985999I0J-249999D01*
G01*
X108058000Y-59886001D01*
G75*
G02*
X107808001Y-60136000I-249999J0D01*
G01*
X107107999Y-60136000D01*
G75*
G02*
X106858000Y-59886001I0J249999D01*
G01*
G37*
G36*
G01*
X108858000Y-59886001D02*
X108858000Y-58985999D01*
G75*
G02*
X109107999Y-58736000I249999J0D01*
G01*
X109808001Y-58736000D01*
G75*
G02*
X110058000Y-58985999I0J-249999D01*
G01*
X110058000Y-59886001D01*
G75*
G02*
X109808001Y-60136000I-249999J0D01*
G01*
X109107999Y-60136000D01*
G75*
G02*
X108858000Y-59886001I0J249999D01*
G01*
G37*
%TD*%
%TO.C,R3*%
G36*
G01*
X121606000Y-46424001D02*
X121606000Y-45523999D01*
G75*
G02*
X121855999Y-45274000I249999J0D01*
G01*
X122556001Y-45274000D01*
G75*
G02*
X122806000Y-45523999I0J-249999D01*
G01*
X122806000Y-46424001D01*
G75*
G02*
X122556001Y-46674000I-249999J0D01*
G01*
X121855999Y-46674000D01*
G75*
G02*
X121606000Y-46424001I0J249999D01*
G01*
G37*
G36*
G01*
X123606000Y-46424001D02*
X123606000Y-45523999D01*
G75*
G02*
X123855999Y-45274000I249999J0D01*
G01*
X124556001Y-45274000D01*
G75*
G02*
X124806000Y-45523999I0J-249999D01*
G01*
X124806000Y-46424001D01*
G75*
G02*
X124556001Y-46674000I-249999J0D01*
G01*
X123855999Y-46674000D01*
G75*
G02*
X123606000Y-46424001I0J249999D01*
G01*
G37*
%TD*%
%TO.C,R4*%
G36*
G01*
X123590000Y-61664001D02*
X123590000Y-60763999D01*
G75*
G02*
X123839999Y-60514000I249999J0D01*
G01*
X124540001Y-60514000D01*
G75*
G02*
X124790000Y-60763999I0J-249999D01*
G01*
X124790000Y-61664001D01*
G75*
G02*
X124540001Y-61914000I-249999J0D01*
G01*
X123839999Y-61914000D01*
G75*
G02*
X123590000Y-61664001I0J249999D01*
G01*
G37*
G36*
G01*
X121590000Y-61664001D02*
X121590000Y-60763999D01*
G75*
G02*
X121839999Y-60514000I249999J0D01*
G01*
X122540001Y-60514000D01*
G75*
G02*
X122790000Y-60763999I0J-249999D01*
G01*
X122790000Y-61664001D01*
G75*
G02*
X122540001Y-61914000I-249999J0D01*
G01*
X121839999Y-61914000D01*
G75*
G02*
X121590000Y-61664001I0J249999D01*
G01*
G37*
%TD*%
%TO.C,R5*%
G36*
G01*
X123606000Y-48710001D02*
X123606000Y-47809999D01*
G75*
G02*
X123855999Y-47560000I249999J0D01*
G01*
X124556001Y-47560000D01*
G75*
G02*
X124806000Y-47809999I0J-249999D01*
G01*
X124806000Y-48710001D01*
G75*
G02*
X124556001Y-48960000I-249999J0D01*
G01*
X123855999Y-48960000D01*
G75*
G02*
X123606000Y-48710001I0J249999D01*
G01*
G37*
G36*
G01*
X121606000Y-48710001D02*
X121606000Y-47809999D01*
G75*
G02*
X121855999Y-47560000I249999J0D01*
G01*
X122556001Y-47560000D01*
G75*
G02*
X122806000Y-47809999I0J-249999D01*
G01*
X122806000Y-48710001D01*
G75*
G02*
X122556001Y-48960000I-249999J0D01*
G01*
X121855999Y-48960000D01*
G75*
G02*
X121606000Y-48710001I0J249999D01*
G01*
G37*
%TD*%
%TO.C,R6*%
G36*
G01*
X121606000Y-63950001D02*
X121606000Y-63049999D01*
G75*
G02*
X121855999Y-62800000I249999J0D01*
G01*
X122556001Y-62800000D01*
G75*
G02*
X122806000Y-63049999I0J-249999D01*
G01*
X122806000Y-63950001D01*
G75*
G02*
X122556001Y-64200000I-249999J0D01*
G01*
X121855999Y-64200000D01*
G75*
G02*
X121606000Y-63950001I0J249999D01*
G01*
G37*
G36*
G01*
X123606000Y-63950001D02*
X123606000Y-63049999D01*
G75*
G02*
X123855999Y-62800000I249999J0D01*
G01*
X124556001Y-62800000D01*
G75*
G02*
X124806000Y-63049999I0J-249999D01*
G01*
X124806000Y-63950001D01*
G75*
G02*
X124556001Y-64200000I-249999J0D01*
G01*
X123855999Y-64200000D01*
G75*
G02*
X123606000Y-63950001I0J249999D01*
G01*
G37*
%TD*%
%TO.C,R7*%
G36*
G01*
X123606000Y-50996001D02*
X123606000Y-50095999D01*
G75*
G02*
X123855999Y-49846000I249999J0D01*
G01*
X124556001Y-49846000D01*
G75*
G02*
X124806000Y-50095999I0J-249999D01*
G01*
X124806000Y-50996001D01*
G75*
G02*
X124556001Y-51246000I-249999J0D01*
G01*
X123855999Y-51246000D01*
G75*
G02*
X123606000Y-50996001I0J249999D01*
G01*
G37*
G36*
G01*
X121606000Y-50996001D02*
X121606000Y-50095999D01*
G75*
G02*
X121855999Y-49846000I249999J0D01*
G01*
X122556001Y-49846000D01*
G75*
G02*
X122806000Y-50095999I0J-249999D01*
G01*
X122806000Y-50996001D01*
G75*
G02*
X122556001Y-51246000I-249999J0D01*
G01*
X121855999Y-51246000D01*
G75*
G02*
X121606000Y-50996001I0J249999D01*
G01*
G37*
%TD*%
%TO.C,R8*%
G36*
G01*
X114748000Y-69792001D02*
X114748000Y-68891999D01*
G75*
G02*
X114997999Y-68642000I249999J0D01*
G01*
X115698001Y-68642000D01*
G75*
G02*
X115948000Y-68891999I0J-249999D01*
G01*
X115948000Y-69792001D01*
G75*
G02*
X115698001Y-70042000I-249999J0D01*
G01*
X114997999Y-70042000D01*
G75*
G02*
X114748000Y-69792001I0J249999D01*
G01*
G37*
G36*
G01*
X116748000Y-69792001D02*
X116748000Y-68891999D01*
G75*
G02*
X116997999Y-68642000I249999J0D01*
G01*
X117698001Y-68642000D01*
G75*
G02*
X117948000Y-68891999I0J-249999D01*
G01*
X117948000Y-69792001D01*
G75*
G02*
X117698001Y-70042000I-249999J0D01*
G01*
X116997999Y-70042000D01*
G75*
G02*
X116748000Y-69792001I0J249999D01*
G01*
G37*
%TD*%
%TO.C,R9*%
G36*
G01*
X123606000Y-66236001D02*
X123606000Y-65335999D01*
G75*
G02*
X123855999Y-65086000I249999J0D01*
G01*
X124556001Y-65086000D01*
G75*
G02*
X124806000Y-65335999I0J-249999D01*
G01*
X124806000Y-66236001D01*
G75*
G02*
X124556001Y-66486000I-249999J0D01*
G01*
X123855999Y-66486000D01*
G75*
G02*
X123606000Y-66236001I0J249999D01*
G01*
G37*
G36*
G01*
X121606000Y-66236001D02*
X121606000Y-65335999D01*
G75*
G02*
X121855999Y-65086000I249999J0D01*
G01*
X122556001Y-65086000D01*
G75*
G02*
X122806000Y-65335999I0J-249999D01*
G01*
X122806000Y-66236001D01*
G75*
G02*
X122556001Y-66486000I-249999J0D01*
G01*
X121855999Y-66486000D01*
G75*
G02*
X121606000Y-66236001I0J249999D01*
G01*
G37*
%TD*%
%TO.C,R10*%
G36*
G01*
X121606000Y-53282001D02*
X121606000Y-52381999D01*
G75*
G02*
X121855999Y-52132000I249999J0D01*
G01*
X122556001Y-52132000D01*
G75*
G02*
X122806000Y-52381999I0J-249999D01*
G01*
X122806000Y-53282001D01*
G75*
G02*
X122556001Y-53532000I-249999J0D01*
G01*
X121855999Y-53532000D01*
G75*
G02*
X121606000Y-53282001I0J249999D01*
G01*
G37*
G36*
G01*
X123606000Y-53282001D02*
X123606000Y-52381999D01*
G75*
G02*
X123855999Y-52132000I249999J0D01*
G01*
X124556001Y-52132000D01*
G75*
G02*
X124806000Y-52381999I0J-249999D01*
G01*
X124806000Y-53282001D01*
G75*
G02*
X124556001Y-53532000I-249999J0D01*
G01*
X123855999Y-53532000D01*
G75*
G02*
X123606000Y-53282001I0J249999D01*
G01*
G37*
%TD*%
%TO.C,R11*%
G36*
G01*
X121606000Y-68522001D02*
X121606000Y-67621999D01*
G75*
G02*
X121855999Y-67372000I249999J0D01*
G01*
X122556001Y-67372000D01*
G75*
G02*
X122806000Y-67621999I0J-249999D01*
G01*
X122806000Y-68522001D01*
G75*
G02*
X122556001Y-68772000I-249999J0D01*
G01*
X121855999Y-68772000D01*
G75*
G02*
X121606000Y-68522001I0J249999D01*
G01*
G37*
G36*
G01*
X123606000Y-68522001D02*
X123606000Y-67621999D01*
G75*
G02*
X123855999Y-67372000I249999J0D01*
G01*
X124556001Y-67372000D01*
G75*
G02*
X124806000Y-67621999I0J-249999D01*
G01*
X124806000Y-68522001D01*
G75*
G02*
X124556001Y-68772000I-249999J0D01*
G01*
X123855999Y-68772000D01*
G75*
G02*
X123606000Y-68522001I0J249999D01*
G01*
G37*
%TD*%
%TO.C,R13*%
G36*
G01*
X121028000Y-43237999D02*
X121028000Y-44138001D01*
G75*
G02*
X120778001Y-44388000I-249999J0D01*
G01*
X120077999Y-44388000D01*
G75*
G02*
X119828000Y-44138001I0J249999D01*
G01*
X119828000Y-43237999D01*
G75*
G02*
X120077999Y-42988000I249999J0D01*
G01*
X120778001Y-42988000D01*
G75*
G02*
X121028000Y-43237999I0J-249999D01*
G01*
G37*
G36*
G01*
X123028000Y-43237999D02*
X123028000Y-44138001D01*
G75*
G02*
X122778001Y-44388000I-249999J0D01*
G01*
X122077999Y-44388000D01*
G75*
G02*
X121828000Y-44138001I0J249999D01*
G01*
X121828000Y-43237999D01*
G75*
G02*
X122077999Y-42988000I249999J0D01*
G01*
X122778001Y-42988000D01*
G75*
G02*
X123028000Y-43237999I0J-249999D01*
G01*
G37*
%TD*%
D10*
%TO.C,U1*%
X136398000Y-46685200D03*
X135128000Y-46685200D03*
X133858000Y-46685200D03*
X132588000Y-46685200D03*
X131318000Y-46685200D03*
X130048000Y-46685200D03*
X128778000Y-46685200D03*
X128778000Y-51866800D03*
X130048000Y-51866800D03*
X131318000Y-51866800D03*
X132588000Y-51866800D03*
X133858000Y-51866800D03*
X135128000Y-51866800D03*
X136398000Y-51866800D03*
%TD*%
%TO.C,U3*%
X134874000Y-66649600D03*
X133604000Y-66649600D03*
X132334000Y-66649600D03*
X131064000Y-66649600D03*
X129794000Y-66649600D03*
X128524000Y-66649600D03*
X127254000Y-66649600D03*
X127254000Y-61468000D03*
X128524000Y-61468000D03*
X129794000Y-61468000D03*
X131064000Y-61468000D03*
X132334000Y-61468000D03*
X133604000Y-61468000D03*
X134874000Y-61468000D03*
%TD*%
D11*
%TO.C,U4*%
X115092000Y-62992000D03*
X115092000Y-63942000D03*
X115092000Y-64892000D03*
X117602000Y-64892000D03*
X117602000Y-62992000D03*
%TD*%
M02*
