%TF.GenerationSoftware,KiCad,Pcbnew,(5.1.8-0-10_14)*%
%TF.CreationDate,2021-03-11T12:17:02+11:00*%
%TF.ProjectId,Open-JIP(KiCad)_T3.6,4f70656e-2d4a-4495-9028-4b6943616429,rev?*%
%TF.SameCoordinates,Original*%
%TF.FileFunction,Soldermask,Top*%
%TF.FilePolarity,Negative*%
%FSLAX46Y46*%
G04 Gerber Fmt 4.6, Leading zero omitted, Abs format (unit mm)*
G04 Created by KiCad (PCBNEW (5.1.8-0-10_14)) date 2021-03-11 12:17:02*
%MOMM*%
%LPD*%
G01*
G04 APERTURE LIST*
%ADD10C,1.000000*%
%ADD11C,1.600000*%
%ADD12R,1.600000X1.600000*%
%ADD13C,6.400000*%
%ADD14C,0.800000*%
%ADD15R,1.210000X0.590000*%
%ADD16R,5.570000X5.860000*%
%ADD17R,2.400000X0.980000*%
%ADD18R,0.533400X1.701800*%
%ADD19R,1.701800X0.533400*%
%ADD20C,1.500000*%
%ADD21O,3.960000X1.980000*%
%ADD22R,3.960000X1.980000*%
%ADD23O,1.900000X3.800000*%
%ADD24O,3.800000X1.900000*%
%ADD25C,1.651000*%
%ADD26R,1.651000X1.651000*%
G04 APERTURE END LIST*
D10*
%TO.C,D2*%
X132550000Y-87700000D02*
G75*
G03*
X132550000Y-87700000I-500000J0D01*
G01*
X130010000Y-87700000D02*
G75*
G03*
X130010000Y-87700000I-500000J0D01*
G01*
%TD*%
D11*
%TO.C,U6*%
X172710000Y-92120000D03*
X170170000Y-92120000D03*
X167630000Y-92120000D03*
X165090000Y-92120000D03*
X162550000Y-92120000D03*
X160010000Y-92120000D03*
X157470000Y-92120000D03*
X154930000Y-92120000D03*
X152390000Y-92120000D03*
X149850000Y-92120000D03*
X147310000Y-92120000D03*
X144770000Y-92120000D03*
X142230000Y-92120000D03*
X139690000Y-92120000D03*
X137150000Y-92120000D03*
X134610000Y-92120000D03*
D12*
X172710000Y-76880000D03*
D11*
X170170000Y-76880000D03*
X167630000Y-76880000D03*
X165090000Y-76880000D03*
X162550000Y-76880000D03*
X160010000Y-76880000D03*
X157470000Y-76880000D03*
X154930000Y-76880000D03*
X152390000Y-76880000D03*
X149850000Y-76880000D03*
X147310000Y-76880000D03*
X144770000Y-76880000D03*
X142230000Y-76880000D03*
X132070000Y-92120000D03*
X129530000Y-92120000D03*
X126990000Y-92120000D03*
X124450000Y-92120000D03*
X121910000Y-92120000D03*
X119370000Y-92120000D03*
X116830000Y-92120000D03*
X114290000Y-92120000D03*
X114290000Y-76880000D03*
X116830000Y-76880000D03*
X119370000Y-76880000D03*
X121910000Y-76880000D03*
X139690000Y-76880000D03*
X137150000Y-76880000D03*
X134610000Y-76880000D03*
X124450000Y-76880000D03*
X126990000Y-76880000D03*
X129530000Y-76880000D03*
X132070000Y-76880000D03*
%TD*%
D13*
%TO.C,REF\u002A\u002A*%
X171000000Y-112000000D03*
D14*
X173400000Y-112000000D03*
X172697056Y-113697056D03*
X171000000Y-114400000D03*
X169302944Y-113697056D03*
X168600000Y-112000000D03*
X169302944Y-110302944D03*
X171000000Y-109600000D03*
X172697056Y-110302944D03*
%TD*%
D13*
%TO.C,REF\u002A\u002A*%
X116000000Y-112000000D03*
D14*
X118400000Y-112000000D03*
X117697056Y-113697056D03*
X116000000Y-114400000D03*
X114302944Y-113697056D03*
X113600000Y-112000000D03*
X114302944Y-110302944D03*
X116000000Y-109600000D03*
X117697056Y-110302944D03*
%TD*%
D13*
%TO.C,REF\u002A\u002A*%
X171000000Y-72000000D03*
D14*
X173400000Y-72000000D03*
X172697056Y-73697056D03*
X171000000Y-74400000D03*
X169302944Y-73697056D03*
X168600000Y-72000000D03*
X169302944Y-70302944D03*
X171000000Y-69600000D03*
X172697056Y-70302944D03*
%TD*%
D13*
%TO.C,REF\u002A\u002A*%
X116000000Y-72000000D03*
D14*
X118400000Y-72000000D03*
X117697056Y-73697056D03*
X116000000Y-74400000D03*
X114302944Y-73697056D03*
X113600000Y-72000000D03*
X114302944Y-70302944D03*
X116000000Y-69600000D03*
X117697056Y-70302944D03*
%TD*%
D15*
%TO.C,U5*%
X137245000Y-83450000D03*
X137245000Y-81550000D03*
X139755000Y-81550000D03*
X139755000Y-82500000D03*
X139755000Y-83450000D03*
%TD*%
%TO.C,U4*%
X137245000Y-86950000D03*
X137245000Y-85050000D03*
X139755000Y-85050000D03*
X139755000Y-86000000D03*
X139755000Y-86950000D03*
%TD*%
D16*
%TO.C,U1*%
X162700000Y-111200000D03*
D17*
X156030000Y-113480000D03*
X156030000Y-108920000D03*
%TD*%
D18*
%TO.C,U3*%
X160010000Y-87190800D03*
X158740000Y-87190800D03*
X157470000Y-87190800D03*
X156200000Y-87190800D03*
X154930000Y-87190800D03*
X153660000Y-87190800D03*
X152390000Y-87190800D03*
X152390000Y-82009200D03*
X153660000Y-82009200D03*
X154930000Y-82009200D03*
X156200000Y-82009200D03*
X157470000Y-82009200D03*
X158740000Y-82009200D03*
X160010000Y-82009200D03*
%TD*%
D19*
%TO.C,U2*%
X151390800Y-96790000D03*
X151390800Y-98060000D03*
X151390800Y-99330000D03*
X151390800Y-100600000D03*
X151390800Y-101870000D03*
X151390800Y-103140000D03*
X151390800Y-104410000D03*
X146209200Y-104410000D03*
X146209200Y-103140000D03*
X146209200Y-101870000D03*
X146209200Y-100600000D03*
X146209200Y-99330000D03*
X146209200Y-98060000D03*
X146209200Y-96790000D03*
%TD*%
D20*
%TO.C,Fout*%
X142200000Y-94900000D03*
%TD*%
%TO.C,Trig*%
X119450000Y-106750000D03*
%TD*%
%TO.C,TP16*%
X116200000Y-79600000D03*
%TD*%
%TO.C,0.001 V*%
X128375000Y-74100000D03*
%TD*%
%TO.C,R14*%
G36*
G01*
X143050001Y-82000000D02*
X142149999Y-82000000D01*
G75*
G02*
X141900000Y-81750001I0J249999D01*
G01*
X141900000Y-81049999D01*
G75*
G02*
X142149999Y-80800000I249999J0D01*
G01*
X143050001Y-80800000D01*
G75*
G02*
X143300000Y-81049999I0J-249999D01*
G01*
X143300000Y-81750001D01*
G75*
G02*
X143050001Y-82000000I-249999J0D01*
G01*
G37*
G36*
G01*
X143050001Y-84000000D02*
X142149999Y-84000000D01*
G75*
G02*
X141900000Y-83750001I0J249999D01*
G01*
X141900000Y-83049999D01*
G75*
G02*
X142149999Y-82800000I249999J0D01*
G01*
X143050001Y-82800000D01*
G75*
G02*
X143300000Y-83049999I0J-249999D01*
G01*
X143300000Y-83750001D01*
G75*
G02*
X143050001Y-84000000I-249999J0D01*
G01*
G37*
%TD*%
%TO.C,R12*%
G36*
G01*
X132900000Y-79600001D02*
X132900000Y-78699999D01*
G75*
G02*
X133149999Y-78450000I249999J0D01*
G01*
X133850001Y-78450000D01*
G75*
G02*
X134100000Y-78699999I0J-249999D01*
G01*
X134100000Y-79600001D01*
G75*
G02*
X133850001Y-79850000I-249999J0D01*
G01*
X133149999Y-79850000D01*
G75*
G02*
X132900000Y-79600001I0J249999D01*
G01*
G37*
G36*
G01*
X130900000Y-79600001D02*
X130900000Y-78699999D01*
G75*
G02*
X131149999Y-78450000I249999J0D01*
G01*
X131850001Y-78450000D01*
G75*
G02*
X132100000Y-78699999I0J-249999D01*
G01*
X132100000Y-79600001D01*
G75*
G02*
X131850001Y-79850000I-249999J0D01*
G01*
X131149999Y-79850000D01*
G75*
G02*
X130900000Y-79600001I0J249999D01*
G01*
G37*
%TD*%
%TO.C,R17*%
G36*
G01*
X157100000Y-103349999D02*
X157100000Y-104250001D01*
G75*
G02*
X156850001Y-104500000I-249999J0D01*
G01*
X156149999Y-104500000D01*
G75*
G02*
X155900000Y-104250001I0J249999D01*
G01*
X155900000Y-103349999D01*
G75*
G02*
X156149999Y-103100000I249999J0D01*
G01*
X156850001Y-103100000D01*
G75*
G02*
X157100000Y-103349999I0J-249999D01*
G01*
G37*
G36*
G01*
X159100000Y-103349999D02*
X159100000Y-104250001D01*
G75*
G02*
X158850001Y-104500000I-249999J0D01*
G01*
X158149999Y-104500000D01*
G75*
G02*
X157900000Y-104250001I0J249999D01*
G01*
X157900000Y-103349999D01*
G75*
G02*
X158149999Y-103100000I249999J0D01*
G01*
X158850001Y-103100000D01*
G75*
G02*
X159100000Y-103349999I0J-249999D01*
G01*
G37*
%TD*%
%TO.C,R16*%
G36*
G01*
X157000000Y-98649999D02*
X157000000Y-99550001D01*
G75*
G02*
X156750001Y-99800000I-249999J0D01*
G01*
X156049999Y-99800000D01*
G75*
G02*
X155800000Y-99550001I0J249999D01*
G01*
X155800000Y-98649999D01*
G75*
G02*
X156049999Y-98400000I249999J0D01*
G01*
X156750001Y-98400000D01*
G75*
G02*
X157000000Y-98649999I0J-249999D01*
G01*
G37*
G36*
G01*
X159000000Y-98649999D02*
X159000000Y-99550001D01*
G75*
G02*
X158750001Y-99800000I-249999J0D01*
G01*
X158049999Y-99800000D01*
G75*
G02*
X157800000Y-99550001I0J249999D01*
G01*
X157800000Y-98649999D01*
G75*
G02*
X158049999Y-98400000I249999J0D01*
G01*
X158750001Y-98400000D01*
G75*
G02*
X159000000Y-98649999I0J-249999D01*
G01*
G37*
%TD*%
%TO.C,R13*%
G36*
G01*
X141000000Y-97850001D02*
X141000000Y-96949999D01*
G75*
G02*
X141249999Y-96700000I249999J0D01*
G01*
X141950001Y-96700000D01*
G75*
G02*
X142200000Y-96949999I0J-249999D01*
G01*
X142200000Y-97850001D01*
G75*
G02*
X141950001Y-98100000I-249999J0D01*
G01*
X141249999Y-98100000D01*
G75*
G02*
X141000000Y-97850001I0J249999D01*
G01*
G37*
G36*
G01*
X139000000Y-97850001D02*
X139000000Y-96949999D01*
G75*
G02*
X139249999Y-96700000I249999J0D01*
G01*
X139950001Y-96700000D01*
G75*
G02*
X140200000Y-96949999I0J-249999D01*
G01*
X140200000Y-97850001D01*
G75*
G02*
X139950001Y-98100000I-249999J0D01*
G01*
X139249999Y-98100000D01*
G75*
G02*
X139000000Y-97850001I0J249999D01*
G01*
G37*
%TD*%
%TO.C,R11*%
G36*
G01*
X149100000Y-80850001D02*
X149100000Y-79949999D01*
G75*
G02*
X149349999Y-79700000I249999J0D01*
G01*
X150050001Y-79700000D01*
G75*
G02*
X150300000Y-79949999I0J-249999D01*
G01*
X150300000Y-80850001D01*
G75*
G02*
X150050001Y-81100000I-249999J0D01*
G01*
X149349999Y-81100000D01*
G75*
G02*
X149100000Y-80850001I0J249999D01*
G01*
G37*
G36*
G01*
X147100000Y-80850001D02*
X147100000Y-79949999D01*
G75*
G02*
X147349999Y-79700000I249999J0D01*
G01*
X148050001Y-79700000D01*
G75*
G02*
X148300000Y-79949999I0J-249999D01*
G01*
X148300000Y-80850001D01*
G75*
G02*
X148050001Y-81100000I-249999J0D01*
G01*
X147349999Y-81100000D01*
G75*
G02*
X147100000Y-80850001I0J249999D01*
G01*
G37*
%TD*%
%TO.C,R10*%
G36*
G01*
X141000000Y-99950001D02*
X141000000Y-99049999D01*
G75*
G02*
X141249999Y-98800000I249999J0D01*
G01*
X141950001Y-98800000D01*
G75*
G02*
X142200000Y-99049999I0J-249999D01*
G01*
X142200000Y-99950001D01*
G75*
G02*
X141950001Y-100200000I-249999J0D01*
G01*
X141249999Y-100200000D01*
G75*
G02*
X141000000Y-99950001I0J249999D01*
G01*
G37*
G36*
G01*
X139000000Y-99950001D02*
X139000000Y-99049999D01*
G75*
G02*
X139249999Y-98800000I249999J0D01*
G01*
X139950001Y-98800000D01*
G75*
G02*
X140200000Y-99049999I0J-249999D01*
G01*
X140200000Y-99950001D01*
G75*
G02*
X139950001Y-100200000I-249999J0D01*
G01*
X139249999Y-100200000D01*
G75*
G02*
X139000000Y-99950001I0J249999D01*
G01*
G37*
%TD*%
%TO.C,R9*%
G36*
G01*
X149100000Y-82850001D02*
X149100000Y-81949999D01*
G75*
G02*
X149349999Y-81700000I249999J0D01*
G01*
X150050001Y-81700000D01*
G75*
G02*
X150300000Y-81949999I0J-249999D01*
G01*
X150300000Y-82850001D01*
G75*
G02*
X150050001Y-83100000I-249999J0D01*
G01*
X149349999Y-83100000D01*
G75*
G02*
X149100000Y-82850001I0J249999D01*
G01*
G37*
G36*
G01*
X147100000Y-82850001D02*
X147100000Y-81949999D01*
G75*
G02*
X147349999Y-81700000I249999J0D01*
G01*
X148050001Y-81700000D01*
G75*
G02*
X148300000Y-81949999I0J-249999D01*
G01*
X148300000Y-82850001D01*
G75*
G02*
X148050001Y-83100000I-249999J0D01*
G01*
X147349999Y-83100000D01*
G75*
G02*
X147100000Y-82850001I0J249999D01*
G01*
G37*
%TD*%
%TO.C,R15*%
G36*
G01*
X143050001Y-86100000D02*
X142149999Y-86100000D01*
G75*
G02*
X141900000Y-85850001I0J249999D01*
G01*
X141900000Y-85149999D01*
G75*
G02*
X142149999Y-84900000I249999J0D01*
G01*
X143050001Y-84900000D01*
G75*
G02*
X143300000Y-85149999I0J-249999D01*
G01*
X143300000Y-85850001D01*
G75*
G02*
X143050001Y-86100000I-249999J0D01*
G01*
G37*
G36*
G01*
X143050001Y-88100000D02*
X142149999Y-88100000D01*
G75*
G02*
X141900000Y-87850001I0J249999D01*
G01*
X141900000Y-87149999D01*
G75*
G02*
X142149999Y-86900000I249999J0D01*
G01*
X143050001Y-86900000D01*
G75*
G02*
X143300000Y-87149999I0J-249999D01*
G01*
X143300000Y-87850001D01*
G75*
G02*
X143050001Y-88100000I-249999J0D01*
G01*
G37*
%TD*%
%TO.C,R8*%
G36*
G01*
X141000000Y-104250001D02*
X141000000Y-103349999D01*
G75*
G02*
X141249999Y-103100000I249999J0D01*
G01*
X141950001Y-103100000D01*
G75*
G02*
X142200000Y-103349999I0J-249999D01*
G01*
X142200000Y-104250001D01*
G75*
G02*
X141950001Y-104500000I-249999J0D01*
G01*
X141249999Y-104500000D01*
G75*
G02*
X141000000Y-104250001I0J249999D01*
G01*
G37*
G36*
G01*
X139000000Y-104250001D02*
X139000000Y-103349999D01*
G75*
G02*
X139249999Y-103100000I249999J0D01*
G01*
X139950001Y-103100000D01*
G75*
G02*
X140200000Y-103349999I0J-249999D01*
G01*
X140200000Y-104250001D01*
G75*
G02*
X139950001Y-104500000I-249999J0D01*
G01*
X139249999Y-104500000D01*
G75*
G02*
X139000000Y-104250001I0J249999D01*
G01*
G37*
%TD*%
%TO.C,R7*%
G36*
G01*
X149100000Y-84850001D02*
X149100000Y-83949999D01*
G75*
G02*
X149349999Y-83700000I249999J0D01*
G01*
X150050001Y-83700000D01*
G75*
G02*
X150300000Y-83949999I0J-249999D01*
G01*
X150300000Y-84850001D01*
G75*
G02*
X150050001Y-85100000I-249999J0D01*
G01*
X149349999Y-85100000D01*
G75*
G02*
X149100000Y-84850001I0J249999D01*
G01*
G37*
G36*
G01*
X147100000Y-84850001D02*
X147100000Y-83949999D01*
G75*
G02*
X147349999Y-83700000I249999J0D01*
G01*
X148050001Y-83700000D01*
G75*
G02*
X148300000Y-83949999I0J-249999D01*
G01*
X148300000Y-84850001D01*
G75*
G02*
X148050001Y-85100000I-249999J0D01*
G01*
X147349999Y-85100000D01*
G75*
G02*
X147100000Y-84850001I0J249999D01*
G01*
G37*
%TD*%
%TO.C,R6*%
G36*
G01*
X141000000Y-102100001D02*
X141000000Y-101199999D01*
G75*
G02*
X141249999Y-100950000I249999J0D01*
G01*
X141950001Y-100950000D01*
G75*
G02*
X142200000Y-101199999I0J-249999D01*
G01*
X142200000Y-102100001D01*
G75*
G02*
X141950001Y-102350000I-249999J0D01*
G01*
X141249999Y-102350000D01*
G75*
G02*
X141000000Y-102100001I0J249999D01*
G01*
G37*
G36*
G01*
X139000000Y-102100001D02*
X139000000Y-101199999D01*
G75*
G02*
X139249999Y-100950000I249999J0D01*
G01*
X139950001Y-100950000D01*
G75*
G02*
X140200000Y-101199999I0J-249999D01*
G01*
X140200000Y-102100001D01*
G75*
G02*
X139950001Y-102350000I-249999J0D01*
G01*
X139249999Y-102350000D01*
G75*
G02*
X139000000Y-102100001I0J249999D01*
G01*
G37*
%TD*%
%TO.C,R5*%
G36*
G01*
X149100000Y-86850001D02*
X149100000Y-85949999D01*
G75*
G02*
X149349999Y-85700000I249999J0D01*
G01*
X150050001Y-85700000D01*
G75*
G02*
X150300000Y-85949999I0J-249999D01*
G01*
X150300000Y-86850001D01*
G75*
G02*
X150050001Y-87100000I-249999J0D01*
G01*
X149349999Y-87100000D01*
G75*
G02*
X149100000Y-86850001I0J249999D01*
G01*
G37*
G36*
G01*
X147100000Y-86850001D02*
X147100000Y-85949999D01*
G75*
G02*
X147349999Y-85700000I249999J0D01*
G01*
X148050001Y-85700000D01*
G75*
G02*
X148300000Y-85949999I0J-249999D01*
G01*
X148300000Y-86850001D01*
G75*
G02*
X148050001Y-87100000I-249999J0D01*
G01*
X147349999Y-87100000D01*
G75*
G02*
X147100000Y-86850001I0J249999D01*
G01*
G37*
%TD*%
%TO.C,R3*%
G36*
G01*
X127825000Y-83750001D02*
X127825000Y-82849999D01*
G75*
G02*
X128074999Y-82600000I249999J0D01*
G01*
X128775001Y-82600000D01*
G75*
G02*
X129025000Y-82849999I0J-249999D01*
G01*
X129025000Y-83750001D01*
G75*
G02*
X128775001Y-84000000I-249999J0D01*
G01*
X128074999Y-84000000D01*
G75*
G02*
X127825000Y-83750001I0J249999D01*
G01*
G37*
G36*
G01*
X125825000Y-83750001D02*
X125825000Y-82849999D01*
G75*
G02*
X126074999Y-82600000I249999J0D01*
G01*
X126775001Y-82600000D01*
G75*
G02*
X127025000Y-82849999I0J-249999D01*
G01*
X127025000Y-83750001D01*
G75*
G02*
X126775001Y-84000000I-249999J0D01*
G01*
X126074999Y-84000000D01*
G75*
G02*
X125825000Y-83750001I0J249999D01*
G01*
G37*
%TD*%
%TO.C,R2*%
G36*
G01*
X133625000Y-83750001D02*
X133625000Y-82849999D01*
G75*
G02*
X133874999Y-82600000I249999J0D01*
G01*
X134575001Y-82600000D01*
G75*
G02*
X134825000Y-82849999I0J-249999D01*
G01*
X134825000Y-83750001D01*
G75*
G02*
X134575001Y-84000000I-249999J0D01*
G01*
X133874999Y-84000000D01*
G75*
G02*
X133625000Y-83750001I0J249999D01*
G01*
G37*
G36*
G01*
X131625000Y-83750001D02*
X131625000Y-82849999D01*
G75*
G02*
X131874999Y-82600000I249999J0D01*
G01*
X132575001Y-82600000D01*
G75*
G02*
X132825000Y-82849999I0J-249999D01*
G01*
X132825000Y-83750001D01*
G75*
G02*
X132575001Y-84000000I-249999J0D01*
G01*
X131874999Y-84000000D01*
G75*
G02*
X131625000Y-83750001I0J249999D01*
G01*
G37*
%TD*%
D21*
%TO.C,J3*%
X119500000Y-102000000D03*
D22*
X119500000Y-97000000D03*
%TD*%
D23*
%TO.C,J2*%
X161620000Y-101400000D03*
X167550000Y-101400000D03*
D24*
X164300000Y-96750000D03*
%TD*%
%TO.C,D4*%
G36*
G01*
X156950000Y-100849999D02*
X156950000Y-101750001D01*
G75*
G02*
X156700001Y-102000000I-249999J0D01*
G01*
X156049999Y-102000000D01*
G75*
G02*
X155800000Y-101750001I0J249999D01*
G01*
X155800000Y-100849999D01*
G75*
G02*
X156049999Y-100600000I249999J0D01*
G01*
X156700001Y-100600000D01*
G75*
G02*
X156950000Y-100849999I0J-249999D01*
G01*
G37*
G36*
G01*
X159000000Y-100849999D02*
X159000000Y-101750001D01*
G75*
G02*
X158750001Y-102000000I-249999J0D01*
G01*
X158099999Y-102000000D01*
G75*
G02*
X157850000Y-101750001I0J249999D01*
G01*
X157850000Y-100849999D01*
G75*
G02*
X158099999Y-100600000I249999J0D01*
G01*
X158750001Y-100600000D01*
G75*
G02*
X159000000Y-100849999I0J-249999D01*
G01*
G37*
%TD*%
%TO.C,D3*%
G36*
G01*
X156925000Y-96549999D02*
X156925000Y-97450001D01*
G75*
G02*
X156675001Y-97700000I-249999J0D01*
G01*
X156024999Y-97700000D01*
G75*
G02*
X155775000Y-97450001I0J249999D01*
G01*
X155775000Y-96549999D01*
G75*
G02*
X156024999Y-96300000I249999J0D01*
G01*
X156675001Y-96300000D01*
G75*
G02*
X156925000Y-96549999I0J-249999D01*
G01*
G37*
G36*
G01*
X158975000Y-96549999D02*
X158975000Y-97450001D01*
G75*
G02*
X158725001Y-97700000I-249999J0D01*
G01*
X158074999Y-97700000D01*
G75*
G02*
X157825000Y-97450001I0J249999D01*
G01*
X157825000Y-96549999D01*
G75*
G02*
X158074999Y-96300000I249999J0D01*
G01*
X158725001Y-96300000D01*
G75*
G02*
X158975000Y-96549999I0J-249999D01*
G01*
G37*
%TD*%
D25*
%TO.C,CR1*%
X131700000Y-103180000D03*
X131700000Y-100640000D03*
D26*
X131700000Y-98100000D03*
%TD*%
%TO.C,C6*%
G36*
G01*
X138050000Y-79025000D02*
X138050000Y-79975000D01*
G75*
G02*
X137800000Y-80225000I-250000J0D01*
G01*
X137125000Y-80225000D01*
G75*
G02*
X136875000Y-79975000I0J250000D01*
G01*
X136875000Y-79025000D01*
G75*
G02*
X137125000Y-78775000I250000J0D01*
G01*
X137800000Y-78775000D01*
G75*
G02*
X138050000Y-79025000I0J-250000D01*
G01*
G37*
G36*
G01*
X140125000Y-79025000D02*
X140125000Y-79975000D01*
G75*
G02*
X139875000Y-80225000I-250000J0D01*
G01*
X139200000Y-80225000D01*
G75*
G02*
X138950000Y-79975000I0J250000D01*
G01*
X138950000Y-79025000D01*
G75*
G02*
X139200000Y-78775000I250000J0D01*
G01*
X139875000Y-78775000D01*
G75*
G02*
X140125000Y-79025000I0J-250000D01*
G01*
G37*
%TD*%
%TO.C,C5*%
G36*
G01*
X127700000Y-111050000D02*
X127700000Y-109950000D01*
G75*
G02*
X127950000Y-109700000I250000J0D01*
G01*
X130050000Y-109700000D01*
G75*
G02*
X130300000Y-109950000I0J-250000D01*
G01*
X130300000Y-111050000D01*
G75*
G02*
X130050000Y-111300000I-250000J0D01*
G01*
X127950000Y-111300000D01*
G75*
G02*
X127700000Y-111050000I0J250000D01*
G01*
G37*
G36*
G01*
X124100000Y-111050000D02*
X124100000Y-109950000D01*
G75*
G02*
X124350000Y-109700000I250000J0D01*
G01*
X126450000Y-109700000D01*
G75*
G02*
X126700000Y-109950000I0J-250000D01*
G01*
X126700000Y-111050000D01*
G75*
G02*
X126450000Y-111300000I-250000J0D01*
G01*
X124350000Y-111300000D01*
G75*
G02*
X124100000Y-111050000I0J250000D01*
G01*
G37*
%TD*%
%TO.C,C4*%
G36*
G01*
X152212500Y-114175000D02*
X152212500Y-113225000D01*
G75*
G02*
X152462500Y-112975000I250000J0D01*
G01*
X153137500Y-112975000D01*
G75*
G02*
X153387500Y-113225000I0J-250000D01*
G01*
X153387500Y-114175000D01*
G75*
G02*
X153137500Y-114425000I-250000J0D01*
G01*
X152462500Y-114425000D01*
G75*
G02*
X152212500Y-114175000I0J250000D01*
G01*
G37*
G36*
G01*
X150137500Y-114175000D02*
X150137500Y-113225000D01*
G75*
G02*
X150387500Y-112975000I250000J0D01*
G01*
X151062500Y-112975000D01*
G75*
G02*
X151312500Y-113225000I0J-250000D01*
G01*
X151312500Y-114175000D01*
G75*
G02*
X151062500Y-114425000I-250000J0D01*
G01*
X150387500Y-114425000D01*
G75*
G02*
X150137500Y-114175000I0J250000D01*
G01*
G37*
%TD*%
%TO.C,C3*%
G36*
G01*
X149212500Y-88975000D02*
X149212500Y-88025000D01*
G75*
G02*
X149462500Y-87775000I250000J0D01*
G01*
X150137500Y-87775000D01*
G75*
G02*
X150387500Y-88025000I0J-250000D01*
G01*
X150387500Y-88975000D01*
G75*
G02*
X150137500Y-89225000I-250000J0D01*
G01*
X149462500Y-89225000D01*
G75*
G02*
X149212500Y-88975000I0J250000D01*
G01*
G37*
G36*
G01*
X147137500Y-88975000D02*
X147137500Y-88025000D01*
G75*
G02*
X147387500Y-87775000I250000J0D01*
G01*
X148062500Y-87775000D01*
G75*
G02*
X148312500Y-88025000I0J-250000D01*
G01*
X148312500Y-88975000D01*
G75*
G02*
X148062500Y-89225000I-250000J0D01*
G01*
X147387500Y-89225000D01*
G75*
G02*
X147137500Y-88975000I0J250000D01*
G01*
G37*
%TD*%
%TO.C,C2*%
G36*
G01*
X152087500Y-109375000D02*
X152087500Y-108425000D01*
G75*
G02*
X152337500Y-108175000I250000J0D01*
G01*
X153012500Y-108175000D01*
G75*
G02*
X153262500Y-108425000I0J-250000D01*
G01*
X153262500Y-109375000D01*
G75*
G02*
X153012500Y-109625000I-250000J0D01*
G01*
X152337500Y-109625000D01*
G75*
G02*
X152087500Y-109375000I0J250000D01*
G01*
G37*
G36*
G01*
X150012500Y-109375000D02*
X150012500Y-108425000D01*
G75*
G02*
X150262500Y-108175000I250000J0D01*
G01*
X150937500Y-108175000D01*
G75*
G02*
X151187500Y-108425000I0J-250000D01*
G01*
X151187500Y-109375000D01*
G75*
G02*
X150937500Y-109625000I-250000J0D01*
G01*
X150262500Y-109625000D01*
G75*
G02*
X150012500Y-109375000I0J250000D01*
G01*
G37*
%TD*%
%TO.C,C1*%
G36*
G01*
X129587500Y-80725000D02*
X129587500Y-81675000D01*
G75*
G02*
X129337500Y-81925000I-250000J0D01*
G01*
X128662500Y-81925000D01*
G75*
G02*
X128412500Y-81675000I0J250000D01*
G01*
X128412500Y-80725000D01*
G75*
G02*
X128662500Y-80475000I250000J0D01*
G01*
X129337500Y-80475000D01*
G75*
G02*
X129587500Y-80725000I0J-250000D01*
G01*
G37*
G36*
G01*
X131662500Y-80725000D02*
X131662500Y-81675000D01*
G75*
G02*
X131412500Y-81925000I-250000J0D01*
G01*
X130737500Y-81925000D01*
G75*
G02*
X130487500Y-81675000I0J250000D01*
G01*
X130487500Y-80725000D01*
G75*
G02*
X130737500Y-80475000I250000J0D01*
G01*
X131412500Y-80475000D01*
G75*
G02*
X131662500Y-80725000I0J-250000D01*
G01*
G37*
%TD*%
M02*
