%TF.GenerationSoftware,KiCad,Pcbnew,(5.1.8-0-10_14)*%
%TF.CreationDate,2021-03-11T12:17:02+11:00*%
%TF.ProjectId,Open-JIP(KiCad)_T3.6,4f70656e-2d4a-4495-9028-4b6943616429,rev?*%
%TF.SameCoordinates,Original*%
%TF.FileFunction,Legend,Bot*%
%TF.FilePolarity,Positive*%
%FSLAX46Y46*%
G04 Gerber Fmt 4.6, Leading zero omitted, Abs format (unit mm)*
G04 Created by KiCad (PCBNEW (5.1.8-0-10_14)) date 2021-03-11 12:17:02*
%MOMM*%
%LPD*%
G01*
G04 APERTURE LIST*
%ADD10C,0.200000*%
%ADD11C,0.127000*%
%ADD12C,0.150000*%
%ADD13C,0.015000*%
G04 APERTURE END LIST*
D10*
%TO.C,J4*%
X174535000Y-82547000D02*
G75*
G03*
X174535000Y-82547000I-240000J0D01*
G01*
X166025000Y-79525000D02*
X166025000Y-89475000D01*
D11*
%TO.C,D2*%
X133130000Y-86700000D02*
X133130000Y-85930000D01*
X133130000Y-89470000D02*
X133130000Y-88700000D01*
D10*
X127363178Y-87680000D02*
G75*
G03*
X127363178Y-87680000I-143178J0D01*
G01*
D11*
X133130000Y-89470000D02*
G75*
G02*
X133130000Y-85930000I-2359991J1770000D01*
G01*
%TO.C,J4*%
D12*
X164380664Y-81660379D02*
X165096282Y-81660379D01*
X165239406Y-81612671D01*
X165334822Y-81517255D01*
X165382530Y-81374132D01*
X165382530Y-81278716D01*
X164714619Y-82566829D02*
X165382530Y-82566829D01*
X164332956Y-82328290D02*
X165048574Y-82089750D01*
X165048574Y-82709953D01*
%TO.C,D2*%
D13*
X127418095Y-91052380D02*
X127418095Y-90052380D01*
X127180000Y-90052380D01*
X127037142Y-90100000D01*
X126941904Y-90195238D01*
X126894285Y-90290476D01*
X126846666Y-90480952D01*
X126846666Y-90623809D01*
X126894285Y-90814285D01*
X126941904Y-90909523D01*
X127037142Y-91004761D01*
X127180000Y-91052380D01*
X127418095Y-91052380D01*
X126465714Y-90147619D02*
X126418095Y-90100000D01*
X126322857Y-90052380D01*
X126084761Y-90052380D01*
X125989523Y-90100000D01*
X125941904Y-90147619D01*
X125894285Y-90242857D01*
X125894285Y-90338095D01*
X125941904Y-90480952D01*
X126513333Y-91052380D01*
X125894285Y-91052380D01*
%TD*%
M02*
