M48
; DRILL file {KiCad (5.1.8-0-10_14)} date Thursday, March 11, 2021 at 12:16:58 PM
; FORMAT={-:-/ absolute / inch / decimal}
; #@! TF.CreationDate,2021-03-11T12:16:58+11:00
; #@! TF.GenerationSoftware,Kicad,Pcbnew,(5.1.8-0-10_14)
; #@! TF.FileFunction,Plated,1,2,PTH
FMAT,2
INCH
T1C0.0157
T2C0.0197
T3C0.0299
T4C0.0394
T5C0.0433
T6C0.0450
T7C0.0520
T8C0.1260
%
G90
G05
T1
X4.4685Y-3.7087
X4.4685Y-4.189
X4.4685Y-4.252
X4.7244Y-4.2992
X4.7244Y-4.5039
X4.9921Y-3.811
X4.9921Y-3.8661
X5.0079Y-3.3465
X5.0079Y-3.5591
X5.0591Y-3.8661
X5.0748Y-3.3465
X5.0748Y-3.5591
X5.0965Y-3.1132
X5.1063Y-3.378
X5.1063Y-3.5315
X5.1417Y-3.5591
X5.1457Y-3.3465
X5.2165Y-4.189
X5.2303Y-3.1781
X5.2815Y-3.2165
X5.2992Y-3.5512
X5.3071Y-3.3465
X5.311Y-4.189
X5.3179Y-3.1693
X5.3337Y-3.0925
X5.3366Y-3.7185
X5.3386Y-3.5512
X5.3465Y-3.4094
X5.3543Y-3.5
X5.378Y-3.5512
X5.4094Y-3.4921
X5.4134Y-3.248
X5.4173Y-3.5512
X5.4252Y-4.189
X5.44Y-3.0738
X5.4685Y-3.4882
X5.5236Y-3.4843
X5.5354Y-4.189
X5.5512Y-3.1732
X5.5531Y-3.3287
X5.6063Y-3.0984
X5.6457Y-4.189
X5.6575Y-3.811
X5.6654Y-3.5512
X5.6654Y-4.122
X5.6772Y-3.9488
X5.6772Y-4.0581
X5.6811Y-3.2795
X5.6811Y-3.3268
X5.6811Y-3.374
X5.6831Y-3.1102
X5.685Y-4.0159
X5.689Y-3.4528
X5.689Y-3.5079
X5.7126Y-3.7323
X5.7677Y-4.189
X5.7913Y-4.4764
X5.7992Y-3.7323
X5.8346Y-3.8819
X5.8425Y-4.0472
X5.878Y-3.9764
X5.8808Y-3.7437
X5.9055Y-4.189
X5.9252Y-3.5551
X5.9528Y-3.2402
X5.9567Y-3.378
X5.9606Y-3.1614
X5.9606Y-3.4252
X6.002Y-3.1142
X6.0118Y-3.5551
X6.0394Y-3.3504
X6.0787Y-4.0354
X6.0984Y-3.5551
X6.1299Y-3.1535
X6.1496Y-3.1063
X6.1535Y-3.3346
X6.1772Y-3.5551
X6.2402Y-3.8189
X6.2402Y-3.9882
X6.252Y-3.3543
X6.3504Y-3.0915
X6.4488Y-3.377
X6.4665Y-3.3268
X6.4724Y-3.4488
X6.5Y-3.2992
X6.502Y-3.3632
X6.5492Y-3.0837
X6.5669Y-3.563
X6.626Y-3.7717
X6.6457Y-3.5787
X6.6476Y-3.0856
X6.7283Y-3.7717
X6.7894Y-3.4843
X6.7992Y-3.5551
X6.8071Y-3.7205
X6.8071Y-3.7717
T2
X4.4724Y-2.8346
X4.5001Y-2.7678
X4.5001Y-2.9015
X4.5669Y-2.7402
X4.5669Y-2.9291
X4.6337Y-2.7678
X4.6337Y-2.9015
X4.6614Y-2.8346
X6.6378Y-4.4094
X6.6655Y-4.3426
X6.6655Y-4.4763
X6.7323Y-4.315
X6.7323Y-4.5039
X6.7991Y-4.3426
X6.7991Y-4.4763
X6.8268Y-4.4094
X6.6378Y-2.8346
X6.6655Y-2.7678
X6.6655Y-2.9015
X6.7323Y-2.7402
X6.7323Y-2.9291
X6.7991Y-2.7678
X6.7991Y-2.9015
X6.8268Y-2.8346
X4.4724Y-4.4094
X4.5001Y-4.3426
X4.5001Y-4.4763
X4.5669Y-4.315
X4.5669Y-4.5039
X4.6337Y-4.3426
X4.6337Y-4.4763
X4.6614Y-4.4094
T4
X5.0988Y-3.4528
X5.1988Y-3.4528
T5
X4.4996Y-3.0268
X4.4996Y-3.6268
X4.5996Y-3.0268
X4.5996Y-3.6268
X4.6996Y-3.0268
X4.6996Y-3.6268
X4.7996Y-3.0268
X4.7996Y-3.6268
X4.8996Y-3.0268
X4.8996Y-3.6268
X4.9996Y-3.0268
X4.9996Y-3.6268
X5.0996Y-3.0268
X5.0996Y-3.6268
X5.1996Y-3.0268
X5.1996Y-3.6268
X5.2996Y-3.0268
X5.2996Y-3.6268
X5.3996Y-3.0268
X5.3996Y-3.6268
X5.4996Y-3.0268
X5.4996Y-3.6268
X5.5996Y-3.0268
X5.5996Y-3.6268
X5.6996Y-3.0268
X5.6996Y-3.6268
X5.7996Y-3.0268
X5.7996Y-3.6268
X5.8996Y-3.0268
X5.8996Y-3.6268
X5.9996Y-3.0268
X5.9996Y-3.6268
X6.0996Y-3.0268
X6.0996Y-3.6268
X6.1996Y-3.0268
X6.1996Y-3.6268
X6.2996Y-3.0268
X6.2996Y-3.6268
X6.3996Y-3.0268
X6.3996Y-3.6268
X6.4996Y-3.0268
X6.4996Y-3.6268
X6.5996Y-3.0268
X6.5996Y-3.6268
X6.6996Y-3.0268
X6.6996Y-3.6268
X6.7996Y-3.0268
X6.7996Y-3.6268
T6
X5.185Y-3.8622
X5.185Y-3.9622
X5.185Y-4.0622
T7
X4.7047Y-3.8189
X4.7047Y-4.0157
T8
X6.7323Y-4.4094
X6.7323Y-2.8346
X4.5669Y-4.4094
X4.5669Y-2.8346
T3
G00X6.363Y-4.0372
M15
G01X6.363Y-3.947
M16
G05
G00X6.4234Y-3.8091
M15
G01X6.5136Y-3.8091
M16
G05
G00X6.5965Y-4.0372
M15
G01X6.5965Y-3.947
M16
G05
T0
M30
