G04 #@! TF.GenerationSoftware,KiCad,Pcbnew,(5.1.8-0-10_14)*
G04 #@! TF.CreationDate,2020-11-22T12:20:28+11:00*
G04 #@! TF.ProjectId,Phenobottle v18,5068656e-6f62-46f7-9474-6c6520763138,rev?*
G04 #@! TF.SameCoordinates,Original*
G04 #@! TF.FileFunction,Soldermask,Top*
G04 #@! TF.FilePolarity,Negative*
%FSLAX46Y46*%
G04 Gerber Fmt 4.6, Leading zero omitted, Abs format (unit mm)*
G04 Created by KiCad (PCBNEW (5.1.8-0-10_14)) date 2020-11-22 12:20:28*
%MOMM*%
%LPD*%
G01*
G04 APERTURE LIST*
%ADD10C,1.702000*%
%ADD11O,1.626000X3.150000*%
%ADD12C,1.952000*%
%ADD13C,1.982000*%
%ADD14C,2.102000*%
%ADD15C,2.122000*%
G04 APERTURE END LIST*
D10*
X131470000Y-77780000D03*
X128930000Y-77780000D03*
X126390000Y-77780000D03*
X123850000Y-77780000D03*
X134010000Y-77780000D03*
X136550000Y-77780000D03*
X139090000Y-77780000D03*
X121310000Y-77780000D03*
X118770000Y-77780000D03*
X116230000Y-77780000D03*
X113690000Y-77780000D03*
X126390000Y-80320000D03*
X126390000Y-82860000D03*
X126390000Y-85400000D03*
X126390000Y-87940000D03*
X126390000Y-90480000D03*
X113690000Y-93020000D03*
X116230000Y-93020000D03*
X118770000Y-93020000D03*
X121310000Y-93020000D03*
X123850000Y-93020000D03*
X126390000Y-93020000D03*
X128930000Y-93020000D03*
X131470000Y-93020000D03*
X141630000Y-77780000D03*
X144170000Y-77780000D03*
X146710000Y-77780000D03*
X149250000Y-77780000D03*
X151790000Y-77780000D03*
X154330000Y-77780000D03*
X156870000Y-77780000D03*
X159410000Y-77780000D03*
X161950000Y-77780000D03*
X164490000Y-77780000D03*
X167030000Y-77780000D03*
X169570000Y-77780000D03*
G36*
G01*
X172961000Y-76980000D02*
X172961000Y-78580000D01*
G75*
G02*
X172910000Y-78631000I-51000J0D01*
G01*
X171310000Y-78631000D01*
G75*
G02*
X171259000Y-78580000I0J51000D01*
G01*
X171259000Y-76980000D01*
G75*
G02*
X171310000Y-76929000I51000J0D01*
G01*
X172910000Y-76929000D01*
G75*
G02*
X172961000Y-76980000I0J-51000D01*
G01*
G37*
X134010000Y-93020000D03*
X136550000Y-93020000D03*
X139090000Y-93020000D03*
X141630000Y-93020000D03*
X144170000Y-93020000D03*
X146710000Y-93020000D03*
X149250000Y-93020000D03*
X151790000Y-93020000D03*
X154330000Y-93020000D03*
X156870000Y-93020000D03*
X159410000Y-93020000D03*
X161950000Y-93020000D03*
X164490000Y-93020000D03*
X167030000Y-93020000D03*
X169570000Y-93020000D03*
X172110000Y-93020000D03*
X169570000Y-90480000D03*
X164490000Y-90480000D03*
X161950000Y-90480000D03*
X159410000Y-90480000D03*
X165760000Y-80780000D03*
X163220000Y-80780000D03*
X160680000Y-80780000D03*
X158140000Y-80780000D03*
X155600000Y-80780000D03*
D11*
X149352000Y-107188000D03*
X151892000Y-107188000D03*
X154432000Y-107188000D03*
G36*
G01*
X144170400Y-86359800D02*
X144729200Y-86359800D01*
G75*
G02*
X144780200Y-86410800I0J-51000D01*
G01*
X144780200Y-87680800D01*
G75*
G02*
X144729200Y-87731800I-51000J0D01*
G01*
X144170400Y-87731800D01*
G75*
G02*
X144119400Y-87680800I0J51000D01*
G01*
X144119400Y-86410800D01*
G75*
G02*
X144170400Y-86359800I51000J0D01*
G01*
G37*
G36*
G01*
X142290800Y-86359800D02*
X142849600Y-86359800D01*
G75*
G02*
X142900600Y-86410800I0J-51000D01*
G01*
X142900600Y-87680800D01*
G75*
G02*
X142849600Y-87731800I-51000J0D01*
G01*
X142290800Y-87731800D01*
G75*
G02*
X142239800Y-87680800I0J51000D01*
G01*
X142239800Y-86410800D01*
G75*
G02*
X142290800Y-86359800I51000J0D01*
G01*
G37*
G36*
G01*
X142290800Y-83769000D02*
X142849600Y-83769000D01*
G75*
G02*
X142900600Y-83820000I0J-51000D01*
G01*
X142900600Y-85090000D01*
G75*
G02*
X142849600Y-85141000I-51000J0D01*
G01*
X142290800Y-85141000D01*
G75*
G02*
X142239800Y-85090000I0J51000D01*
G01*
X142239800Y-83820000D01*
G75*
G02*
X142290800Y-83769000I51000J0D01*
G01*
G37*
G36*
G01*
X143230600Y-83769000D02*
X143789400Y-83769000D01*
G75*
G02*
X143840400Y-83820000I0J-51000D01*
G01*
X143840400Y-85090000D01*
G75*
G02*
X143789400Y-85141000I-51000J0D01*
G01*
X143230600Y-85141000D01*
G75*
G02*
X143179600Y-85090000I0J51000D01*
G01*
X143179600Y-83820000D01*
G75*
G02*
X143230600Y-83769000I51000J0D01*
G01*
G37*
G36*
G01*
X144170400Y-83769000D02*
X144729200Y-83769000D01*
G75*
G02*
X144780200Y-83820000I0J-51000D01*
G01*
X144780200Y-85090000D01*
G75*
G02*
X144729200Y-85141000I-51000J0D01*
G01*
X144170400Y-85141000D01*
G75*
G02*
X144119400Y-85090000I0J51000D01*
G01*
X144119400Y-83820000D01*
G75*
G02*
X144170400Y-83769000I51000J0D01*
G01*
G37*
G36*
G01*
X157830500Y-98906750D02*
X157830500Y-97943250D01*
G75*
G02*
X158099750Y-97674000I269250J0D01*
G01*
X158638250Y-97674000D01*
G75*
G02*
X158907500Y-97943250I0J-269250D01*
G01*
X158907500Y-98906750D01*
G75*
G02*
X158638250Y-99176000I-269250J0D01*
G01*
X158099750Y-99176000D01*
G75*
G02*
X157830500Y-98906750I0J269250D01*
G01*
G37*
G36*
G01*
X155955500Y-98906750D02*
X155955500Y-97943250D01*
G75*
G02*
X156224750Y-97674000I269250J0D01*
G01*
X156763250Y-97674000D01*
G75*
G02*
X157032500Y-97943250I0J-269250D01*
G01*
X157032500Y-98906750D01*
G75*
G02*
X156763250Y-99176000I-269250J0D01*
G01*
X156224750Y-99176000D01*
G75*
G02*
X155955500Y-98906750I0J269250D01*
G01*
G37*
G36*
G01*
X140431500Y-86206750D02*
X140431500Y-85243250D01*
G75*
G02*
X140700750Y-84974000I269250J0D01*
G01*
X141239250Y-84974000D01*
G75*
G02*
X141508500Y-85243250I0J-269250D01*
G01*
X141508500Y-86206750D01*
G75*
G02*
X141239250Y-86476000I-269250J0D01*
G01*
X140700750Y-86476000D01*
G75*
G02*
X140431500Y-86206750I0J269250D01*
G01*
G37*
G36*
G01*
X138556500Y-86206750D02*
X138556500Y-85243250D01*
G75*
G02*
X138825750Y-84974000I269250J0D01*
G01*
X139364250Y-84974000D01*
G75*
G02*
X139633500Y-85243250I0J-269250D01*
G01*
X139633500Y-86206750D01*
G75*
G02*
X139364250Y-86476000I-269250J0D01*
G01*
X138825750Y-86476000D01*
G75*
G02*
X138556500Y-86206750I0J269250D01*
G01*
G37*
G36*
G01*
X140431500Y-84301750D02*
X140431500Y-83338250D01*
G75*
G02*
X140700750Y-83069000I269250J0D01*
G01*
X141239250Y-83069000D01*
G75*
G02*
X141508500Y-83338250I0J-269250D01*
G01*
X141508500Y-84301750D01*
G75*
G02*
X141239250Y-84571000I-269250J0D01*
G01*
X140700750Y-84571000D01*
G75*
G02*
X140431500Y-84301750I0J269250D01*
G01*
G37*
G36*
G01*
X138556500Y-84301750D02*
X138556500Y-83338250D01*
G75*
G02*
X138825750Y-83069000I269250J0D01*
G01*
X139364250Y-83069000D01*
G75*
G02*
X139633500Y-83338250I0J-269250D01*
G01*
X139633500Y-84301750D01*
G75*
G02*
X139364250Y-84571000I-269250J0D01*
G01*
X138825750Y-84571000D01*
G75*
G02*
X138556500Y-84301750I0J269250D01*
G01*
G37*
G36*
G01*
X151226500Y-86206750D02*
X151226500Y-85243250D01*
G75*
G02*
X151495750Y-84974000I269250J0D01*
G01*
X152034250Y-84974000D01*
G75*
G02*
X152303500Y-85243250I0J-269250D01*
G01*
X152303500Y-86206750D01*
G75*
G02*
X152034250Y-86476000I-269250J0D01*
G01*
X151495750Y-86476000D01*
G75*
G02*
X151226500Y-86206750I0J269250D01*
G01*
G37*
G36*
G01*
X149351500Y-86206750D02*
X149351500Y-85243250D01*
G75*
G02*
X149620750Y-84974000I269250J0D01*
G01*
X150159250Y-84974000D01*
G75*
G02*
X150428500Y-85243250I0J-269250D01*
G01*
X150428500Y-86206750D01*
G75*
G02*
X150159250Y-86476000I-269250J0D01*
G01*
X149620750Y-86476000D01*
G75*
G02*
X149351500Y-86206750I0J269250D01*
G01*
G37*
G36*
G01*
X147719000Y-86206750D02*
X147719000Y-85243250D01*
G75*
G02*
X147988250Y-84974000I269250J0D01*
G01*
X148526750Y-84974000D01*
G75*
G02*
X148796000Y-85243250I0J-269250D01*
G01*
X148796000Y-86206750D01*
G75*
G02*
X148526750Y-86476000I-269250J0D01*
G01*
X147988250Y-86476000D01*
G75*
G02*
X147719000Y-86206750I0J269250D01*
G01*
G37*
G36*
G01*
X145844000Y-86206750D02*
X145844000Y-85243250D01*
G75*
G02*
X146113250Y-84974000I269250J0D01*
G01*
X146651750Y-84974000D01*
G75*
G02*
X146921000Y-85243250I0J-269250D01*
G01*
X146921000Y-86206750D01*
G75*
G02*
X146651750Y-86476000I-269250J0D01*
G01*
X146113250Y-86476000D01*
G75*
G02*
X145844000Y-86206750I0J269250D01*
G01*
G37*
D12*
X149225000Y-103429000D03*
D13*
X151765000Y-103429000D03*
G36*
G01*
X155281000Y-102504000D02*
X155281000Y-104354000D01*
G75*
G02*
X155230000Y-104405000I-51000J0D01*
G01*
X153380000Y-104405000D01*
G75*
G02*
X153329000Y-104354000I0J51000D01*
G01*
X153329000Y-102504000D01*
G75*
G02*
X153380000Y-102453000I51000J0D01*
G01*
X155230000Y-102453000D01*
G75*
G02*
X155281000Y-102504000I0J-51000D01*
G01*
G37*
D14*
X132715000Y-85090000D03*
G36*
G01*
X133715000Y-88681000D02*
X131715000Y-88681000D01*
G75*
G02*
X131664000Y-88630000I0J51000D01*
G01*
X131664000Y-86630000D01*
G75*
G02*
X131715000Y-86579000I51000J0D01*
G01*
X133715000Y-86579000D01*
G75*
G02*
X133766000Y-86630000I0J-51000D01*
G01*
X133766000Y-88630000D01*
G75*
G02*
X133715000Y-88681000I-51000J0D01*
G01*
G37*
D15*
X116205000Y-101473000D03*
X116205000Y-104013000D03*
G36*
G01*
X164560000Y-103744000D02*
X166560000Y-103744000D01*
G75*
G02*
X166611000Y-103795000I0J-51000D01*
G01*
X166611000Y-108295000D01*
G75*
G02*
X166560000Y-108346000I-51000J0D01*
G01*
X164560000Y-108346000D01*
G75*
G02*
X164509000Y-108295000I0J51000D01*
G01*
X164509000Y-103795000D01*
G75*
G02*
X164560000Y-103744000I51000J0D01*
G01*
G37*
G36*
G01*
X158560000Y-103744000D02*
X160560000Y-103744000D01*
G75*
G02*
X160611000Y-103795000I0J-51000D01*
G01*
X160611000Y-108295000D01*
G75*
G02*
X160560000Y-108346000I-51000J0D01*
G01*
X158560000Y-108346000D01*
G75*
G02*
X158509000Y-108295000I0J51000D01*
G01*
X158509000Y-103795000D01*
G75*
G02*
X158560000Y-103744000I51000J0D01*
G01*
G37*
G36*
G01*
X160310000Y-100294000D02*
X164810000Y-100294000D01*
G75*
G02*
X164861000Y-100345000I0J-51000D01*
G01*
X164861000Y-102345000D01*
G75*
G02*
X164810000Y-102396000I-51000J0D01*
G01*
X160310000Y-102396000D01*
G75*
G02*
X160259000Y-102345000I0J51000D01*
G01*
X160259000Y-100345000D01*
G75*
G02*
X160310000Y-100294000I51000J0D01*
G01*
G37*
G36*
G01*
X146785750Y-102725000D02*
X145822250Y-102725000D01*
G75*
G02*
X145553000Y-102455750I0J269250D01*
G01*
X145553000Y-101917250D01*
G75*
G02*
X145822250Y-101648000I269250J0D01*
G01*
X146785750Y-101648000D01*
G75*
G02*
X147055000Y-101917250I0J-269250D01*
G01*
X147055000Y-102455750D01*
G75*
G02*
X146785750Y-102725000I-269250J0D01*
G01*
G37*
G36*
G01*
X146785750Y-104600000D02*
X145822250Y-104600000D01*
G75*
G02*
X145553000Y-104330750I0J269250D01*
G01*
X145553000Y-103792250D01*
G75*
G02*
X145822250Y-103523000I269250J0D01*
G01*
X146785750Y-103523000D01*
G75*
G02*
X147055000Y-103792250I0J-269250D01*
G01*
X147055000Y-104330750D01*
G75*
G02*
X146785750Y-104600000I-269250J0D01*
G01*
G37*
G36*
G01*
X157580750Y-102803500D02*
X156617250Y-102803500D01*
G75*
G02*
X156348000Y-102534250I0J269250D01*
G01*
X156348000Y-101995750D01*
G75*
G02*
X156617250Y-101726500I269250J0D01*
G01*
X157580750Y-101726500D01*
G75*
G02*
X157850000Y-101995750I0J-269250D01*
G01*
X157850000Y-102534250D01*
G75*
G02*
X157580750Y-102803500I-269250J0D01*
G01*
G37*
G36*
G01*
X157580750Y-104678500D02*
X156617250Y-104678500D01*
G75*
G02*
X156348000Y-104409250I0J269250D01*
G01*
X156348000Y-103870750D01*
G75*
G02*
X156617250Y-103601500I269250J0D01*
G01*
X157580750Y-103601500D01*
G75*
G02*
X157850000Y-103870750I0J-269250D01*
G01*
X157850000Y-104409250D01*
G75*
G02*
X157580750Y-104678500I-269250J0D01*
G01*
G37*
G36*
G01*
X124156063Y-102294000D02*
X122985937Y-102294000D01*
G75*
G02*
X122720000Y-102028063I0J265937D01*
G01*
X122720000Y-99857937D01*
G75*
G02*
X122985937Y-99592000I265937J0D01*
G01*
X124156063Y-99592000D01*
G75*
G02*
X124422000Y-99857937I0J-265937D01*
G01*
X124422000Y-102028063D01*
G75*
G02*
X124156063Y-102294000I-265937J0D01*
G01*
G37*
G36*
G01*
X124156063Y-105894000D02*
X122985937Y-105894000D01*
G75*
G02*
X122720000Y-105628063I0J265937D01*
G01*
X122720000Y-103457937D01*
G75*
G02*
X122985937Y-103192000I265937J0D01*
G01*
X124156063Y-103192000D01*
G75*
G02*
X124422000Y-103457937I0J-265937D01*
G01*
X124422000Y-105628063D01*
G75*
G02*
X124156063Y-105894000I-265937J0D01*
G01*
G37*
G36*
G01*
X143909000Y-82396750D02*
X143909000Y-81433250D01*
G75*
G02*
X144178250Y-81164000I269250J0D01*
G01*
X144716750Y-81164000D01*
G75*
G02*
X144986000Y-81433250I0J-269250D01*
G01*
X144986000Y-82396750D01*
G75*
G02*
X144716750Y-82666000I-269250J0D01*
G01*
X144178250Y-82666000D01*
G75*
G02*
X143909000Y-82396750I0J269250D01*
G01*
G37*
G36*
G01*
X142034000Y-82396750D02*
X142034000Y-81433250D01*
G75*
G02*
X142303250Y-81164000I269250J0D01*
G01*
X142841750Y-81164000D01*
G75*
G02*
X143111000Y-81433250I0J-269250D01*
G01*
X143111000Y-82396750D01*
G75*
G02*
X142841750Y-82666000I-269250J0D01*
G01*
X142303250Y-82666000D01*
G75*
G02*
X142034000Y-82396750I0J269250D01*
G01*
G37*
G36*
G01*
X139633500Y-87148250D02*
X139633500Y-88111750D01*
G75*
G02*
X139364250Y-88381000I-269250J0D01*
G01*
X138825750Y-88381000D01*
G75*
G02*
X138556500Y-88111750I0J269250D01*
G01*
X138556500Y-87148250D01*
G75*
G02*
X138825750Y-86879000I269250J0D01*
G01*
X139364250Y-86879000D01*
G75*
G02*
X139633500Y-87148250I0J-269250D01*
G01*
G37*
G36*
G01*
X141508500Y-87148250D02*
X141508500Y-88111750D01*
G75*
G02*
X141239250Y-88381000I-269250J0D01*
G01*
X140700750Y-88381000D01*
G75*
G02*
X140431500Y-88111750I0J269250D01*
G01*
X140431500Y-87148250D01*
G75*
G02*
X140700750Y-86879000I269250J0D01*
G01*
X141239250Y-86879000D01*
G75*
G02*
X141508500Y-87148250I0J-269250D01*
G01*
G37*
G36*
G01*
X147719000Y-88365750D02*
X147719000Y-87402250D01*
G75*
G02*
X147988250Y-87133000I269250J0D01*
G01*
X148526750Y-87133000D01*
G75*
G02*
X148796000Y-87402250I0J-269250D01*
G01*
X148796000Y-88365750D01*
G75*
G02*
X148526750Y-88635000I-269250J0D01*
G01*
X147988250Y-88635000D01*
G75*
G02*
X147719000Y-88365750I0J269250D01*
G01*
G37*
G36*
G01*
X145844000Y-88365750D02*
X145844000Y-87402250D01*
G75*
G02*
X146113250Y-87133000I269250J0D01*
G01*
X146651750Y-87133000D01*
G75*
G02*
X146921000Y-87402250I0J-269250D01*
G01*
X146921000Y-88365750D01*
G75*
G02*
X146651750Y-88635000I-269250J0D01*
G01*
X146113250Y-88635000D01*
G75*
G02*
X145844000Y-88365750I0J269250D01*
G01*
G37*
G36*
G01*
X147719000Y-84301750D02*
X147719000Y-83338250D01*
G75*
G02*
X147988250Y-83069000I269250J0D01*
G01*
X148526750Y-83069000D01*
G75*
G02*
X148796000Y-83338250I0J-269250D01*
G01*
X148796000Y-84301750D01*
G75*
G02*
X148526750Y-84571000I-269250J0D01*
G01*
X147988250Y-84571000D01*
G75*
G02*
X147719000Y-84301750I0J269250D01*
G01*
G37*
G36*
G01*
X145844000Y-84301750D02*
X145844000Y-83338250D01*
G75*
G02*
X146113250Y-83069000I269250J0D01*
G01*
X146651750Y-83069000D01*
G75*
G02*
X146921000Y-83338250I0J-269250D01*
G01*
X146921000Y-84301750D01*
G75*
G02*
X146651750Y-84571000I-269250J0D01*
G01*
X146113250Y-84571000D01*
G75*
G02*
X145844000Y-84301750I0J269250D01*
G01*
G37*
M02*
