G04 #@! TF.GenerationSoftware,KiCad,Pcbnew,(5.1.8-0-10_14)*
G04 #@! TF.CreationDate,2020-11-22T12:20:28+11:00*
G04 #@! TF.ProjectId,Phenobottle v18,5068656e-6f62-46f7-9474-6c6520763138,rev?*
G04 #@! TF.SameCoordinates,Original*
G04 #@! TF.FileFunction,Copper,L2,Bot*
G04 #@! TF.FilePolarity,Positive*
%FSLAX46Y46*%
G04 Gerber Fmt 4.6, Leading zero omitted, Abs format (unit mm)*
G04 Created by KiCad (PCBNEW (5.1.8-0-10_14)) date 2020-11-22 12:20:28*
%MOMM*%
%LPD*%
G01*
G04 APERTURE LIST*
G04 #@! TA.AperFunction,ComponentPad*
%ADD10C,1.600000*%
G04 #@! TD*
G04 #@! TA.AperFunction,ComponentPad*
%ADD11R,1.600000X1.600000*%
G04 #@! TD*
G04 #@! TA.AperFunction,ComponentPad*
%ADD12O,1.524000X3.048000*%
G04 #@! TD*
G04 #@! TA.AperFunction,ComponentPad*
%ADD13C,1.850000*%
G04 #@! TD*
G04 #@! TA.AperFunction,ComponentPad*
%ADD14C,1.880000*%
G04 #@! TD*
G04 #@! TA.AperFunction,ComponentPad*
%ADD15R,1.850000X1.850000*%
G04 #@! TD*
G04 #@! TA.AperFunction,ComponentPad*
%ADD16C,2.000000*%
G04 #@! TD*
G04 #@! TA.AperFunction,ComponentPad*
%ADD17R,2.000000X2.000000*%
G04 #@! TD*
G04 #@! TA.AperFunction,ComponentPad*
%ADD18C,2.020000*%
G04 #@! TD*
G04 #@! TA.AperFunction,ComponentPad*
%ADD19R,2.000000X4.500000*%
G04 #@! TD*
G04 #@! TA.AperFunction,ComponentPad*
%ADD20R,4.500000X2.000000*%
G04 #@! TD*
G04 #@! TA.AperFunction,ViaPad*
%ADD21C,0.800000*%
G04 #@! TD*
G04 #@! TA.AperFunction,Conductor*
%ADD22C,0.250000*%
G04 #@! TD*
G04 #@! TA.AperFunction,Conductor*
%ADD23C,0.254000*%
G04 #@! TD*
G04 #@! TA.AperFunction,Conductor*
%ADD24C,0.100000*%
G04 #@! TD*
G04 APERTURE END LIST*
D10*
X131470000Y-77780000D03*
X128930000Y-77780000D03*
X126390000Y-77780000D03*
X123850000Y-77780000D03*
X134010000Y-77780000D03*
X136550000Y-77780000D03*
X139090000Y-77780000D03*
X121310000Y-77780000D03*
X118770000Y-77780000D03*
X116230000Y-77780000D03*
X113690000Y-77780000D03*
X126390000Y-80320000D03*
X126390000Y-82860000D03*
X126390000Y-85400000D03*
X126390000Y-87940000D03*
X126390000Y-90480000D03*
X113690000Y-93020000D03*
X116230000Y-93020000D03*
X118770000Y-93020000D03*
X121310000Y-93020000D03*
X123850000Y-93020000D03*
X126390000Y-93020000D03*
X128930000Y-93020000D03*
X131470000Y-93020000D03*
X141630000Y-77780000D03*
X144170000Y-77780000D03*
X146710000Y-77780000D03*
X149250000Y-77780000D03*
X151790000Y-77780000D03*
X154330000Y-77780000D03*
X156870000Y-77780000D03*
X159410000Y-77780000D03*
X161950000Y-77780000D03*
X164490000Y-77780000D03*
X167030000Y-77780000D03*
X169570000Y-77780000D03*
D11*
X172110000Y-77780000D03*
D10*
X134010000Y-93020000D03*
X136550000Y-93020000D03*
X139090000Y-93020000D03*
X141630000Y-93020000D03*
X144170000Y-93020000D03*
X146710000Y-93020000D03*
X149250000Y-93020000D03*
X151790000Y-93020000D03*
X154330000Y-93020000D03*
X156870000Y-93020000D03*
X159410000Y-93020000D03*
X161950000Y-93020000D03*
X164490000Y-93020000D03*
X167030000Y-93020000D03*
X169570000Y-93020000D03*
X172110000Y-93020000D03*
X169570000Y-90480000D03*
X164490000Y-90480000D03*
X161950000Y-90480000D03*
X159410000Y-90480000D03*
X165760000Y-80780000D03*
X163220000Y-80780000D03*
X160680000Y-80780000D03*
X158140000Y-80780000D03*
X155600000Y-80780000D03*
D12*
X149352000Y-107188000D03*
X151892000Y-107188000D03*
X154432000Y-107188000D03*
D13*
X149225000Y-103429000D03*
D14*
X151765000Y-103429000D03*
D15*
X154305000Y-103429000D03*
D16*
X132715000Y-85090000D03*
D17*
X132715000Y-87630000D03*
D18*
X116205000Y-101473000D03*
X116205000Y-104013000D03*
D19*
X165560000Y-106045000D03*
X159560000Y-106045000D03*
D20*
X162560000Y-101345000D03*
D21*
X123300000Y-80800000D03*
X123500000Y-90200000D03*
X114700000Y-80600000D03*
X115100000Y-89700000D03*
X132207000Y-81026000D03*
X157861000Y-90170000D03*
X140970000Y-81915000D03*
X145923000Y-81153000D03*
X145288000Y-89281000D03*
X152527000Y-90805000D03*
X162941000Y-85725000D03*
X161798000Y-88000000D03*
X171577000Y-88138000D03*
X150495000Y-87376000D03*
X170561000Y-80772000D03*
X151765000Y-80264000D03*
X144100000Y-90800000D03*
X140000000Y-89200000D03*
X166878000Y-87884000D03*
X150114000Y-88646000D03*
X162433000Y-83185000D03*
X142494000Y-88519000D03*
X134747000Y-96774000D03*
X160528000Y-94996000D03*
X141732000Y-103759000D03*
X135001000Y-103632000D03*
X129286000Y-103759000D03*
X120777000Y-99314000D03*
X130556000Y-98425000D03*
X148209000Y-96393000D03*
X117348000Y-108712000D03*
X122809000Y-108712000D03*
X120396000Y-102362000D03*
X157226000Y-105918000D03*
D22*
X166878000Y-92964000D02*
X166878000Y-87884000D01*
X157156685Y-83185000D02*
X162433000Y-83185000D01*
X151695685Y-88646000D02*
X150114000Y-88646000D01*
X157156685Y-83185000D02*
X151695685Y-88646000D01*
X136976001Y-90641001D02*
X141006999Y-90641001D01*
X133965000Y-87630000D02*
X136976001Y-90641001D01*
X132715000Y-87630000D02*
X133965000Y-87630000D01*
X141006999Y-90641001D02*
X142494000Y-89154000D01*
X142494000Y-89154000D02*
X142494000Y-88519000D01*
D23*
X166497000Y-100076000D02*
X166499440Y-100100776D01*
X166506667Y-100124601D01*
X166518403Y-100146557D01*
X166534197Y-100165803D01*
X166553443Y-100181597D01*
X166575399Y-100193333D01*
X166599224Y-100200560D01*
X166624000Y-100203000D01*
X173330001Y-100203000D01*
X173330001Y-110719000D01*
X112547000Y-110719000D01*
X112547000Y-106357375D01*
X147955000Y-106357375D01*
X147955000Y-108018624D01*
X147975214Y-108223859D01*
X148055096Y-108487194D01*
X148184817Y-108729886D01*
X148359392Y-108942607D01*
X148572113Y-109117183D01*
X148814805Y-109246904D01*
X149078140Y-109326786D01*
X149352000Y-109353759D01*
X149625859Y-109326786D01*
X149889194Y-109246904D01*
X150131886Y-109117183D01*
X150344607Y-108942608D01*
X150519183Y-108729887D01*
X150623038Y-108535587D01*
X150649941Y-108601942D01*
X150800994Y-108831729D01*
X150993974Y-109027632D01*
X151221465Y-109182122D01*
X151474724Y-109289262D01*
X151548930Y-109304220D01*
X151765000Y-109181720D01*
X151765000Y-107315000D01*
X151745000Y-107315000D01*
X151745000Y-107061000D01*
X151765000Y-107061000D01*
X151765000Y-105194280D01*
X152019000Y-105194280D01*
X152019000Y-107061000D01*
X152039000Y-107061000D01*
X152039000Y-107315000D01*
X152019000Y-107315000D01*
X152019000Y-109181720D01*
X152235070Y-109304220D01*
X152309276Y-109289262D01*
X152562535Y-109182122D01*
X152790026Y-109027632D01*
X152983006Y-108831729D01*
X153134059Y-108601942D01*
X153160962Y-108535586D01*
X153264817Y-108729886D01*
X153439392Y-108942607D01*
X153652113Y-109117183D01*
X153894805Y-109246904D01*
X154158140Y-109326786D01*
X154432000Y-109353759D01*
X154705859Y-109326786D01*
X154969194Y-109246904D01*
X155211886Y-109117183D01*
X155424607Y-108942608D01*
X155599183Y-108729887D01*
X155728904Y-108487195D01*
X155808786Y-108223860D01*
X155829000Y-108018625D01*
X155829000Y-106357375D01*
X155808786Y-106152140D01*
X155728904Y-105888805D01*
X155599183Y-105646113D01*
X155424608Y-105433392D01*
X155211887Y-105258817D01*
X154969195Y-105129096D01*
X154705860Y-105049214D01*
X154432000Y-105022241D01*
X154158141Y-105049214D01*
X153894806Y-105129096D01*
X153652114Y-105258817D01*
X153439393Y-105433392D01*
X153264818Y-105646113D01*
X153160962Y-105840414D01*
X153134059Y-105774058D01*
X152983006Y-105544271D01*
X152790026Y-105348368D01*
X152562535Y-105193878D01*
X152309276Y-105086738D01*
X152235070Y-105071780D01*
X152019000Y-105194280D01*
X151765000Y-105194280D01*
X151548930Y-105071780D01*
X151474724Y-105086738D01*
X151221465Y-105193878D01*
X150993974Y-105348368D01*
X150800994Y-105544271D01*
X150649941Y-105774058D01*
X150623038Y-105840413D01*
X150519183Y-105646113D01*
X150344608Y-105433392D01*
X150131887Y-105258817D01*
X149889195Y-105129096D01*
X149625860Y-105049214D01*
X149352000Y-105022241D01*
X149078141Y-105049214D01*
X148814806Y-105129096D01*
X148572114Y-105258817D01*
X148359393Y-105433392D01*
X148184818Y-105646113D01*
X148055097Y-105888805D01*
X147975214Y-106152140D01*
X147955000Y-106357375D01*
X112547000Y-106357375D01*
X112547000Y-101310982D01*
X114560000Y-101310982D01*
X114560000Y-101635018D01*
X114623217Y-101952829D01*
X114747220Y-102252199D01*
X114927245Y-102521626D01*
X115148619Y-102743000D01*
X114927245Y-102964374D01*
X114747220Y-103233801D01*
X114623217Y-103533171D01*
X114560000Y-103850982D01*
X114560000Y-104175018D01*
X114623217Y-104492829D01*
X114747220Y-104792199D01*
X114927245Y-105061626D01*
X115156374Y-105290755D01*
X115425801Y-105470780D01*
X115725171Y-105594783D01*
X116042982Y-105658000D01*
X116367018Y-105658000D01*
X116684829Y-105594783D01*
X116984199Y-105470780D01*
X117253626Y-105290755D01*
X117482755Y-105061626D01*
X117662780Y-104792199D01*
X117779290Y-104510917D01*
X148322688Y-104510917D01*
X148409393Y-104767653D01*
X148686223Y-104901048D01*
X148983757Y-104977873D01*
X149290562Y-104995176D01*
X149594848Y-104952292D01*
X149884921Y-104850868D01*
X150040607Y-104767653D01*
X150127312Y-104510917D01*
X149225000Y-103608605D01*
X148322688Y-104510917D01*
X117779290Y-104510917D01*
X117786783Y-104492829D01*
X117850000Y-104175018D01*
X117850000Y-103850982D01*
X117786783Y-103533171D01*
X117770791Y-103494562D01*
X147658824Y-103494562D01*
X147701708Y-103798848D01*
X147803132Y-104088921D01*
X147886347Y-104244607D01*
X148143083Y-104331312D01*
X149045395Y-103429000D01*
X149404605Y-103429000D01*
X150306917Y-104331312D01*
X150442968Y-104285365D01*
X150541617Y-104433004D01*
X150760996Y-104652383D01*
X151018958Y-104824747D01*
X151305589Y-104943474D01*
X151609876Y-105004000D01*
X151920124Y-105004000D01*
X152224411Y-104943474D01*
X152511042Y-104824747D01*
X152769004Y-104652383D01*
X152801892Y-104619495D01*
X152849463Y-104708494D01*
X152928815Y-104805185D01*
X153025506Y-104884537D01*
X153135820Y-104943502D01*
X153255518Y-104979812D01*
X153380000Y-104992072D01*
X155230000Y-104992072D01*
X155354482Y-104979812D01*
X155474180Y-104943502D01*
X155584494Y-104884537D01*
X155681185Y-104805185D01*
X155760537Y-104708494D01*
X155819502Y-104598180D01*
X155855812Y-104478482D01*
X155868072Y-104354000D01*
X155868072Y-103795000D01*
X157921928Y-103795000D01*
X157921928Y-108295000D01*
X157934188Y-108419482D01*
X157970498Y-108539180D01*
X158029463Y-108649494D01*
X158108815Y-108746185D01*
X158205506Y-108825537D01*
X158315820Y-108884502D01*
X158435518Y-108920812D01*
X158560000Y-108933072D01*
X160560000Y-108933072D01*
X160684482Y-108920812D01*
X160804180Y-108884502D01*
X160914494Y-108825537D01*
X161011185Y-108746185D01*
X161090537Y-108649494D01*
X161149502Y-108539180D01*
X161185812Y-108419482D01*
X161198072Y-108295000D01*
X163921928Y-108295000D01*
X163934188Y-108419482D01*
X163970498Y-108539180D01*
X164029463Y-108649494D01*
X164108815Y-108746185D01*
X164205506Y-108825537D01*
X164315820Y-108884502D01*
X164435518Y-108920812D01*
X164560000Y-108933072D01*
X165274250Y-108930000D01*
X165433000Y-108771250D01*
X165433000Y-106172000D01*
X165687000Y-106172000D01*
X165687000Y-108771250D01*
X165845750Y-108930000D01*
X166560000Y-108933072D01*
X166684482Y-108920812D01*
X166804180Y-108884502D01*
X166914494Y-108825537D01*
X167011185Y-108746185D01*
X167090537Y-108649494D01*
X167149502Y-108539180D01*
X167185812Y-108419482D01*
X167198072Y-108295000D01*
X167195000Y-106330750D01*
X167036250Y-106172000D01*
X165687000Y-106172000D01*
X165433000Y-106172000D01*
X164083750Y-106172000D01*
X163925000Y-106330750D01*
X163921928Y-108295000D01*
X161198072Y-108295000D01*
X161198072Y-103795000D01*
X163921928Y-103795000D01*
X163925000Y-105759250D01*
X164083750Y-105918000D01*
X165433000Y-105918000D01*
X165433000Y-103318750D01*
X165687000Y-103318750D01*
X165687000Y-105918000D01*
X167036250Y-105918000D01*
X167195000Y-105759250D01*
X167198072Y-103795000D01*
X167185812Y-103670518D01*
X167149502Y-103550820D01*
X167090537Y-103440506D01*
X167011185Y-103343815D01*
X166914494Y-103264463D01*
X166804180Y-103205498D01*
X166684482Y-103169188D01*
X166560000Y-103156928D01*
X165845750Y-103160000D01*
X165687000Y-103318750D01*
X165433000Y-103318750D01*
X165274250Y-103160000D01*
X164560000Y-103156928D01*
X164435518Y-103169188D01*
X164315820Y-103205498D01*
X164205506Y-103264463D01*
X164108815Y-103343815D01*
X164029463Y-103440506D01*
X163970498Y-103550820D01*
X163934188Y-103670518D01*
X163921928Y-103795000D01*
X161198072Y-103795000D01*
X161185812Y-103670518D01*
X161149502Y-103550820D01*
X161090537Y-103440506D01*
X161011185Y-103343815D01*
X160914494Y-103264463D01*
X160804180Y-103205498D01*
X160684482Y-103169188D01*
X160560000Y-103156928D01*
X158560000Y-103156928D01*
X158435518Y-103169188D01*
X158315820Y-103205498D01*
X158205506Y-103264463D01*
X158108815Y-103343815D01*
X158029463Y-103440506D01*
X157970498Y-103550820D01*
X157934188Y-103670518D01*
X157921928Y-103795000D01*
X155868072Y-103795000D01*
X155868072Y-102504000D01*
X155855812Y-102379518D01*
X155845342Y-102345000D01*
X159671928Y-102345000D01*
X159684188Y-102469482D01*
X159720498Y-102589180D01*
X159779463Y-102699494D01*
X159858815Y-102796185D01*
X159955506Y-102875537D01*
X160065820Y-102934502D01*
X160185518Y-102970812D01*
X160310000Y-102983072D01*
X162274250Y-102980000D01*
X162433000Y-102821250D01*
X162433000Y-101472000D01*
X162687000Y-101472000D01*
X162687000Y-102821250D01*
X162845750Y-102980000D01*
X164810000Y-102983072D01*
X164934482Y-102970812D01*
X165054180Y-102934502D01*
X165164494Y-102875537D01*
X165261185Y-102796185D01*
X165340537Y-102699494D01*
X165399502Y-102589180D01*
X165435812Y-102469482D01*
X165448072Y-102345000D01*
X165445000Y-101630750D01*
X165286250Y-101472000D01*
X162687000Y-101472000D01*
X162433000Y-101472000D01*
X159833750Y-101472000D01*
X159675000Y-101630750D01*
X159671928Y-102345000D01*
X155845342Y-102345000D01*
X155819502Y-102259820D01*
X155760537Y-102149506D01*
X155681185Y-102052815D01*
X155584494Y-101973463D01*
X155474180Y-101914498D01*
X155354482Y-101878188D01*
X155230000Y-101865928D01*
X153380000Y-101865928D01*
X153255518Y-101878188D01*
X153135820Y-101914498D01*
X153025506Y-101973463D01*
X152928815Y-102052815D01*
X152849463Y-102149506D01*
X152801892Y-102238505D01*
X152769004Y-102205617D01*
X152511042Y-102033253D01*
X152224411Y-101914526D01*
X151920124Y-101854000D01*
X151609876Y-101854000D01*
X151305589Y-101914526D01*
X151018958Y-102033253D01*
X150760996Y-102205617D01*
X150541617Y-102424996D01*
X150442968Y-102572635D01*
X150306917Y-102526688D01*
X149404605Y-103429000D01*
X149045395Y-103429000D01*
X148143083Y-102526688D01*
X147886347Y-102613393D01*
X147752952Y-102890223D01*
X147676127Y-103187757D01*
X147658824Y-103494562D01*
X117770791Y-103494562D01*
X117662780Y-103233801D01*
X117482755Y-102964374D01*
X117261381Y-102743000D01*
X117482755Y-102521626D01*
X117599380Y-102347083D01*
X148322688Y-102347083D01*
X149225000Y-103249395D01*
X150127312Y-102347083D01*
X150040607Y-102090347D01*
X149763777Y-101956952D01*
X149466243Y-101880127D01*
X149159438Y-101862824D01*
X148855152Y-101905708D01*
X148565079Y-102007132D01*
X148409393Y-102090347D01*
X148322688Y-102347083D01*
X117599380Y-102347083D01*
X117662780Y-102252199D01*
X117786783Y-101952829D01*
X117850000Y-101635018D01*
X117850000Y-101310982D01*
X117786783Y-100993171D01*
X117662780Y-100693801D01*
X117482755Y-100424374D01*
X117403381Y-100345000D01*
X159671928Y-100345000D01*
X159675000Y-101059250D01*
X159833750Y-101218000D01*
X162433000Y-101218000D01*
X162433000Y-99868750D01*
X162687000Y-99868750D01*
X162687000Y-101218000D01*
X165286250Y-101218000D01*
X165445000Y-101059250D01*
X165448072Y-100345000D01*
X165435812Y-100220518D01*
X165399502Y-100100820D01*
X165340537Y-99990506D01*
X165261185Y-99893815D01*
X165164494Y-99814463D01*
X165054180Y-99755498D01*
X164934482Y-99719188D01*
X164810000Y-99706928D01*
X162845750Y-99710000D01*
X162687000Y-99868750D01*
X162433000Y-99868750D01*
X162274250Y-99710000D01*
X160310000Y-99706928D01*
X160185518Y-99719188D01*
X160065820Y-99755498D01*
X159955506Y-99814463D01*
X159858815Y-99893815D01*
X159779463Y-99990506D01*
X159720498Y-100100820D01*
X159684188Y-100220518D01*
X159671928Y-100345000D01*
X117403381Y-100345000D01*
X117253626Y-100195245D01*
X116984199Y-100015220D01*
X116684829Y-99891217D01*
X116367018Y-99828000D01*
X116042982Y-99828000D01*
X115725171Y-99891217D01*
X115425801Y-100015220D01*
X115156374Y-100195245D01*
X114927245Y-100424374D01*
X114747220Y-100693801D01*
X114623217Y-100993171D01*
X114560000Y-101310982D01*
X112547000Y-101310982D01*
X112547000Y-94487349D01*
X126392261Y-94455000D01*
X126531335Y-94455000D01*
X126532988Y-94454671D01*
X128760844Y-94449466D01*
X128788665Y-94455000D01*
X129071335Y-94455000D01*
X129103177Y-94448666D01*
X131271355Y-94443600D01*
X131328665Y-94455000D01*
X131611335Y-94455000D01*
X131673367Y-94442661D01*
X133781867Y-94437735D01*
X133868665Y-94455000D01*
X134151335Y-94455000D01*
X134243556Y-94436656D01*
X136280721Y-94431896D01*
X136338184Y-94446300D01*
X136620512Y-94460217D01*
X136820161Y-94430636D01*
X138802890Y-94426003D01*
X138948665Y-94455000D01*
X139231335Y-94455000D01*
X139383935Y-94424646D01*
X141313401Y-94420137D01*
X141488665Y-94455000D01*
X141771335Y-94455000D01*
X141954125Y-94418640D01*
X143823913Y-94414272D01*
X144028665Y-94455000D01*
X144311335Y-94455000D01*
X144524314Y-94412635D01*
X146334424Y-94408406D01*
X146568665Y-94455000D01*
X146851335Y-94455000D01*
X147094504Y-94406630D01*
X148844936Y-94402540D01*
X149108665Y-94455000D01*
X149391335Y-94455000D01*
X149664693Y-94400625D01*
X151363706Y-94396655D01*
X151371426Y-94399853D01*
X151648665Y-94455000D01*
X151931335Y-94455000D01*
X152208574Y-94399853D01*
X152221130Y-94394652D01*
X153889459Y-94390754D01*
X153911426Y-94399853D01*
X154188665Y-94455000D01*
X154471335Y-94455000D01*
X154748574Y-94399853D01*
X154775539Y-94388684D01*
X156415212Y-94384853D01*
X156451426Y-94399853D01*
X156728665Y-94455000D01*
X157011335Y-94455000D01*
X157288574Y-94399853D01*
X157329948Y-94382715D01*
X158940965Y-94378951D01*
X158991426Y-94399853D01*
X159268665Y-94455000D01*
X159551335Y-94455000D01*
X159828574Y-94399853D01*
X159884356Y-94376747D01*
X161466718Y-94373050D01*
X161531426Y-94399853D01*
X161808665Y-94455000D01*
X162091335Y-94455000D01*
X162368574Y-94399853D01*
X162438765Y-94370779D01*
X163992471Y-94367149D01*
X164071426Y-94399853D01*
X164348665Y-94455000D01*
X164631335Y-94455000D01*
X164908574Y-94399853D01*
X164993174Y-94364811D01*
X166497000Y-94361297D01*
X166497000Y-100076000D01*
G04 #@! TA.AperFunction,Conductor*
D24*
G36*
X166497000Y-100076000D02*
G01*
X166499440Y-100100776D01*
X166506667Y-100124601D01*
X166518403Y-100146557D01*
X166534197Y-100165803D01*
X166553443Y-100181597D01*
X166575399Y-100193333D01*
X166599224Y-100200560D01*
X166624000Y-100203000D01*
X173330001Y-100203000D01*
X173330001Y-110719000D01*
X112547000Y-110719000D01*
X112547000Y-106357375D01*
X147955000Y-106357375D01*
X147955000Y-108018624D01*
X147975214Y-108223859D01*
X148055096Y-108487194D01*
X148184817Y-108729886D01*
X148359392Y-108942607D01*
X148572113Y-109117183D01*
X148814805Y-109246904D01*
X149078140Y-109326786D01*
X149352000Y-109353759D01*
X149625859Y-109326786D01*
X149889194Y-109246904D01*
X150131886Y-109117183D01*
X150344607Y-108942608D01*
X150519183Y-108729887D01*
X150623038Y-108535587D01*
X150649941Y-108601942D01*
X150800994Y-108831729D01*
X150993974Y-109027632D01*
X151221465Y-109182122D01*
X151474724Y-109289262D01*
X151548930Y-109304220D01*
X151765000Y-109181720D01*
X151765000Y-107315000D01*
X151745000Y-107315000D01*
X151745000Y-107061000D01*
X151765000Y-107061000D01*
X151765000Y-105194280D01*
X152019000Y-105194280D01*
X152019000Y-107061000D01*
X152039000Y-107061000D01*
X152039000Y-107315000D01*
X152019000Y-107315000D01*
X152019000Y-109181720D01*
X152235070Y-109304220D01*
X152309276Y-109289262D01*
X152562535Y-109182122D01*
X152790026Y-109027632D01*
X152983006Y-108831729D01*
X153134059Y-108601942D01*
X153160962Y-108535586D01*
X153264817Y-108729886D01*
X153439392Y-108942607D01*
X153652113Y-109117183D01*
X153894805Y-109246904D01*
X154158140Y-109326786D01*
X154432000Y-109353759D01*
X154705859Y-109326786D01*
X154969194Y-109246904D01*
X155211886Y-109117183D01*
X155424607Y-108942608D01*
X155599183Y-108729887D01*
X155728904Y-108487195D01*
X155808786Y-108223860D01*
X155829000Y-108018625D01*
X155829000Y-106357375D01*
X155808786Y-106152140D01*
X155728904Y-105888805D01*
X155599183Y-105646113D01*
X155424608Y-105433392D01*
X155211887Y-105258817D01*
X154969195Y-105129096D01*
X154705860Y-105049214D01*
X154432000Y-105022241D01*
X154158141Y-105049214D01*
X153894806Y-105129096D01*
X153652114Y-105258817D01*
X153439393Y-105433392D01*
X153264818Y-105646113D01*
X153160962Y-105840414D01*
X153134059Y-105774058D01*
X152983006Y-105544271D01*
X152790026Y-105348368D01*
X152562535Y-105193878D01*
X152309276Y-105086738D01*
X152235070Y-105071780D01*
X152019000Y-105194280D01*
X151765000Y-105194280D01*
X151548930Y-105071780D01*
X151474724Y-105086738D01*
X151221465Y-105193878D01*
X150993974Y-105348368D01*
X150800994Y-105544271D01*
X150649941Y-105774058D01*
X150623038Y-105840413D01*
X150519183Y-105646113D01*
X150344608Y-105433392D01*
X150131887Y-105258817D01*
X149889195Y-105129096D01*
X149625860Y-105049214D01*
X149352000Y-105022241D01*
X149078141Y-105049214D01*
X148814806Y-105129096D01*
X148572114Y-105258817D01*
X148359393Y-105433392D01*
X148184818Y-105646113D01*
X148055097Y-105888805D01*
X147975214Y-106152140D01*
X147955000Y-106357375D01*
X112547000Y-106357375D01*
X112547000Y-101310982D01*
X114560000Y-101310982D01*
X114560000Y-101635018D01*
X114623217Y-101952829D01*
X114747220Y-102252199D01*
X114927245Y-102521626D01*
X115148619Y-102743000D01*
X114927245Y-102964374D01*
X114747220Y-103233801D01*
X114623217Y-103533171D01*
X114560000Y-103850982D01*
X114560000Y-104175018D01*
X114623217Y-104492829D01*
X114747220Y-104792199D01*
X114927245Y-105061626D01*
X115156374Y-105290755D01*
X115425801Y-105470780D01*
X115725171Y-105594783D01*
X116042982Y-105658000D01*
X116367018Y-105658000D01*
X116684829Y-105594783D01*
X116984199Y-105470780D01*
X117253626Y-105290755D01*
X117482755Y-105061626D01*
X117662780Y-104792199D01*
X117779290Y-104510917D01*
X148322688Y-104510917D01*
X148409393Y-104767653D01*
X148686223Y-104901048D01*
X148983757Y-104977873D01*
X149290562Y-104995176D01*
X149594848Y-104952292D01*
X149884921Y-104850868D01*
X150040607Y-104767653D01*
X150127312Y-104510917D01*
X149225000Y-103608605D01*
X148322688Y-104510917D01*
X117779290Y-104510917D01*
X117786783Y-104492829D01*
X117850000Y-104175018D01*
X117850000Y-103850982D01*
X117786783Y-103533171D01*
X117770791Y-103494562D01*
X147658824Y-103494562D01*
X147701708Y-103798848D01*
X147803132Y-104088921D01*
X147886347Y-104244607D01*
X148143083Y-104331312D01*
X149045395Y-103429000D01*
X149404605Y-103429000D01*
X150306917Y-104331312D01*
X150442968Y-104285365D01*
X150541617Y-104433004D01*
X150760996Y-104652383D01*
X151018958Y-104824747D01*
X151305589Y-104943474D01*
X151609876Y-105004000D01*
X151920124Y-105004000D01*
X152224411Y-104943474D01*
X152511042Y-104824747D01*
X152769004Y-104652383D01*
X152801892Y-104619495D01*
X152849463Y-104708494D01*
X152928815Y-104805185D01*
X153025506Y-104884537D01*
X153135820Y-104943502D01*
X153255518Y-104979812D01*
X153380000Y-104992072D01*
X155230000Y-104992072D01*
X155354482Y-104979812D01*
X155474180Y-104943502D01*
X155584494Y-104884537D01*
X155681185Y-104805185D01*
X155760537Y-104708494D01*
X155819502Y-104598180D01*
X155855812Y-104478482D01*
X155868072Y-104354000D01*
X155868072Y-103795000D01*
X157921928Y-103795000D01*
X157921928Y-108295000D01*
X157934188Y-108419482D01*
X157970498Y-108539180D01*
X158029463Y-108649494D01*
X158108815Y-108746185D01*
X158205506Y-108825537D01*
X158315820Y-108884502D01*
X158435518Y-108920812D01*
X158560000Y-108933072D01*
X160560000Y-108933072D01*
X160684482Y-108920812D01*
X160804180Y-108884502D01*
X160914494Y-108825537D01*
X161011185Y-108746185D01*
X161090537Y-108649494D01*
X161149502Y-108539180D01*
X161185812Y-108419482D01*
X161198072Y-108295000D01*
X163921928Y-108295000D01*
X163934188Y-108419482D01*
X163970498Y-108539180D01*
X164029463Y-108649494D01*
X164108815Y-108746185D01*
X164205506Y-108825537D01*
X164315820Y-108884502D01*
X164435518Y-108920812D01*
X164560000Y-108933072D01*
X165274250Y-108930000D01*
X165433000Y-108771250D01*
X165433000Y-106172000D01*
X165687000Y-106172000D01*
X165687000Y-108771250D01*
X165845750Y-108930000D01*
X166560000Y-108933072D01*
X166684482Y-108920812D01*
X166804180Y-108884502D01*
X166914494Y-108825537D01*
X167011185Y-108746185D01*
X167090537Y-108649494D01*
X167149502Y-108539180D01*
X167185812Y-108419482D01*
X167198072Y-108295000D01*
X167195000Y-106330750D01*
X167036250Y-106172000D01*
X165687000Y-106172000D01*
X165433000Y-106172000D01*
X164083750Y-106172000D01*
X163925000Y-106330750D01*
X163921928Y-108295000D01*
X161198072Y-108295000D01*
X161198072Y-103795000D01*
X163921928Y-103795000D01*
X163925000Y-105759250D01*
X164083750Y-105918000D01*
X165433000Y-105918000D01*
X165433000Y-103318750D01*
X165687000Y-103318750D01*
X165687000Y-105918000D01*
X167036250Y-105918000D01*
X167195000Y-105759250D01*
X167198072Y-103795000D01*
X167185812Y-103670518D01*
X167149502Y-103550820D01*
X167090537Y-103440506D01*
X167011185Y-103343815D01*
X166914494Y-103264463D01*
X166804180Y-103205498D01*
X166684482Y-103169188D01*
X166560000Y-103156928D01*
X165845750Y-103160000D01*
X165687000Y-103318750D01*
X165433000Y-103318750D01*
X165274250Y-103160000D01*
X164560000Y-103156928D01*
X164435518Y-103169188D01*
X164315820Y-103205498D01*
X164205506Y-103264463D01*
X164108815Y-103343815D01*
X164029463Y-103440506D01*
X163970498Y-103550820D01*
X163934188Y-103670518D01*
X163921928Y-103795000D01*
X161198072Y-103795000D01*
X161185812Y-103670518D01*
X161149502Y-103550820D01*
X161090537Y-103440506D01*
X161011185Y-103343815D01*
X160914494Y-103264463D01*
X160804180Y-103205498D01*
X160684482Y-103169188D01*
X160560000Y-103156928D01*
X158560000Y-103156928D01*
X158435518Y-103169188D01*
X158315820Y-103205498D01*
X158205506Y-103264463D01*
X158108815Y-103343815D01*
X158029463Y-103440506D01*
X157970498Y-103550820D01*
X157934188Y-103670518D01*
X157921928Y-103795000D01*
X155868072Y-103795000D01*
X155868072Y-102504000D01*
X155855812Y-102379518D01*
X155845342Y-102345000D01*
X159671928Y-102345000D01*
X159684188Y-102469482D01*
X159720498Y-102589180D01*
X159779463Y-102699494D01*
X159858815Y-102796185D01*
X159955506Y-102875537D01*
X160065820Y-102934502D01*
X160185518Y-102970812D01*
X160310000Y-102983072D01*
X162274250Y-102980000D01*
X162433000Y-102821250D01*
X162433000Y-101472000D01*
X162687000Y-101472000D01*
X162687000Y-102821250D01*
X162845750Y-102980000D01*
X164810000Y-102983072D01*
X164934482Y-102970812D01*
X165054180Y-102934502D01*
X165164494Y-102875537D01*
X165261185Y-102796185D01*
X165340537Y-102699494D01*
X165399502Y-102589180D01*
X165435812Y-102469482D01*
X165448072Y-102345000D01*
X165445000Y-101630750D01*
X165286250Y-101472000D01*
X162687000Y-101472000D01*
X162433000Y-101472000D01*
X159833750Y-101472000D01*
X159675000Y-101630750D01*
X159671928Y-102345000D01*
X155845342Y-102345000D01*
X155819502Y-102259820D01*
X155760537Y-102149506D01*
X155681185Y-102052815D01*
X155584494Y-101973463D01*
X155474180Y-101914498D01*
X155354482Y-101878188D01*
X155230000Y-101865928D01*
X153380000Y-101865928D01*
X153255518Y-101878188D01*
X153135820Y-101914498D01*
X153025506Y-101973463D01*
X152928815Y-102052815D01*
X152849463Y-102149506D01*
X152801892Y-102238505D01*
X152769004Y-102205617D01*
X152511042Y-102033253D01*
X152224411Y-101914526D01*
X151920124Y-101854000D01*
X151609876Y-101854000D01*
X151305589Y-101914526D01*
X151018958Y-102033253D01*
X150760996Y-102205617D01*
X150541617Y-102424996D01*
X150442968Y-102572635D01*
X150306917Y-102526688D01*
X149404605Y-103429000D01*
X149045395Y-103429000D01*
X148143083Y-102526688D01*
X147886347Y-102613393D01*
X147752952Y-102890223D01*
X147676127Y-103187757D01*
X147658824Y-103494562D01*
X117770791Y-103494562D01*
X117662780Y-103233801D01*
X117482755Y-102964374D01*
X117261381Y-102743000D01*
X117482755Y-102521626D01*
X117599380Y-102347083D01*
X148322688Y-102347083D01*
X149225000Y-103249395D01*
X150127312Y-102347083D01*
X150040607Y-102090347D01*
X149763777Y-101956952D01*
X149466243Y-101880127D01*
X149159438Y-101862824D01*
X148855152Y-101905708D01*
X148565079Y-102007132D01*
X148409393Y-102090347D01*
X148322688Y-102347083D01*
X117599380Y-102347083D01*
X117662780Y-102252199D01*
X117786783Y-101952829D01*
X117850000Y-101635018D01*
X117850000Y-101310982D01*
X117786783Y-100993171D01*
X117662780Y-100693801D01*
X117482755Y-100424374D01*
X117403381Y-100345000D01*
X159671928Y-100345000D01*
X159675000Y-101059250D01*
X159833750Y-101218000D01*
X162433000Y-101218000D01*
X162433000Y-99868750D01*
X162687000Y-99868750D01*
X162687000Y-101218000D01*
X165286250Y-101218000D01*
X165445000Y-101059250D01*
X165448072Y-100345000D01*
X165435812Y-100220518D01*
X165399502Y-100100820D01*
X165340537Y-99990506D01*
X165261185Y-99893815D01*
X165164494Y-99814463D01*
X165054180Y-99755498D01*
X164934482Y-99719188D01*
X164810000Y-99706928D01*
X162845750Y-99710000D01*
X162687000Y-99868750D01*
X162433000Y-99868750D01*
X162274250Y-99710000D01*
X160310000Y-99706928D01*
X160185518Y-99719188D01*
X160065820Y-99755498D01*
X159955506Y-99814463D01*
X159858815Y-99893815D01*
X159779463Y-99990506D01*
X159720498Y-100100820D01*
X159684188Y-100220518D01*
X159671928Y-100345000D01*
X117403381Y-100345000D01*
X117253626Y-100195245D01*
X116984199Y-100015220D01*
X116684829Y-99891217D01*
X116367018Y-99828000D01*
X116042982Y-99828000D01*
X115725171Y-99891217D01*
X115425801Y-100015220D01*
X115156374Y-100195245D01*
X114927245Y-100424374D01*
X114747220Y-100693801D01*
X114623217Y-100993171D01*
X114560000Y-101310982D01*
X112547000Y-101310982D01*
X112547000Y-94487349D01*
X126392261Y-94455000D01*
X126531335Y-94455000D01*
X126532988Y-94454671D01*
X128760844Y-94449466D01*
X128788665Y-94455000D01*
X129071335Y-94455000D01*
X129103177Y-94448666D01*
X131271355Y-94443600D01*
X131328665Y-94455000D01*
X131611335Y-94455000D01*
X131673367Y-94442661D01*
X133781867Y-94437735D01*
X133868665Y-94455000D01*
X134151335Y-94455000D01*
X134243556Y-94436656D01*
X136280721Y-94431896D01*
X136338184Y-94446300D01*
X136620512Y-94460217D01*
X136820161Y-94430636D01*
X138802890Y-94426003D01*
X138948665Y-94455000D01*
X139231335Y-94455000D01*
X139383935Y-94424646D01*
X141313401Y-94420137D01*
X141488665Y-94455000D01*
X141771335Y-94455000D01*
X141954125Y-94418640D01*
X143823913Y-94414272D01*
X144028665Y-94455000D01*
X144311335Y-94455000D01*
X144524314Y-94412635D01*
X146334424Y-94408406D01*
X146568665Y-94455000D01*
X146851335Y-94455000D01*
X147094504Y-94406630D01*
X148844936Y-94402540D01*
X149108665Y-94455000D01*
X149391335Y-94455000D01*
X149664693Y-94400625D01*
X151363706Y-94396655D01*
X151371426Y-94399853D01*
X151648665Y-94455000D01*
X151931335Y-94455000D01*
X152208574Y-94399853D01*
X152221130Y-94394652D01*
X153889459Y-94390754D01*
X153911426Y-94399853D01*
X154188665Y-94455000D01*
X154471335Y-94455000D01*
X154748574Y-94399853D01*
X154775539Y-94388684D01*
X156415212Y-94384853D01*
X156451426Y-94399853D01*
X156728665Y-94455000D01*
X157011335Y-94455000D01*
X157288574Y-94399853D01*
X157329948Y-94382715D01*
X158940965Y-94378951D01*
X158991426Y-94399853D01*
X159268665Y-94455000D01*
X159551335Y-94455000D01*
X159828574Y-94399853D01*
X159884356Y-94376747D01*
X161466718Y-94373050D01*
X161531426Y-94399853D01*
X161808665Y-94455000D01*
X162091335Y-94455000D01*
X162368574Y-94399853D01*
X162438765Y-94370779D01*
X163992471Y-94367149D01*
X164071426Y-94399853D01*
X164348665Y-94455000D01*
X164631335Y-94455000D01*
X164908574Y-94399853D01*
X164993174Y-94364811D01*
X166497000Y-94361297D01*
X166497000Y-100076000D01*
G37*
G04 #@! TD.AperFunction*
D23*
X168455363Y-78694759D02*
X168655241Y-78894637D01*
X168890273Y-79051680D01*
X169151426Y-79159853D01*
X169428665Y-79215000D01*
X169711335Y-79215000D01*
X169988574Y-79159853D01*
X170249727Y-79051680D01*
X170484759Y-78894637D01*
X170683357Y-78696039D01*
X170684188Y-78704482D01*
X170720498Y-78824180D01*
X170779463Y-78934494D01*
X170858815Y-79031185D01*
X170955506Y-79110537D01*
X171065820Y-79169502D01*
X171185518Y-79205812D01*
X171310000Y-79218072D01*
X172910000Y-79218072D01*
X173034482Y-79205812D01*
X173154180Y-79169502D01*
X173264494Y-79110537D01*
X173330000Y-79056778D01*
X173330000Y-92262929D01*
X173224637Y-92105241D01*
X173024759Y-91905363D01*
X172789727Y-91748320D01*
X172528574Y-91640147D01*
X172251335Y-91585000D01*
X171968665Y-91585000D01*
X171691426Y-91640147D01*
X171430273Y-91748320D01*
X171195241Y-91905363D01*
X170995363Y-92105241D01*
X170839085Y-92339128D01*
X170806671Y-92278486D01*
X170562702Y-92206903D01*
X169749605Y-93020000D01*
X170562702Y-93833097D01*
X170806671Y-93761514D01*
X170837194Y-93697008D01*
X170838320Y-93699727D01*
X170995363Y-93934759D01*
X171195241Y-94134637D01*
X171430273Y-94291680D01*
X171691426Y-94399853D01*
X171968665Y-94455000D01*
X172251335Y-94455000D01*
X172528574Y-94399853D01*
X172789727Y-94291680D01*
X173024759Y-94134637D01*
X173224637Y-93934759D01*
X173330001Y-93777071D01*
X173330001Y-99060000D01*
X167640000Y-99060000D01*
X167640000Y-94320562D01*
X167709727Y-94291680D01*
X167944759Y-94134637D01*
X168066694Y-94012702D01*
X168756903Y-94012702D01*
X168828486Y-94256671D01*
X169083996Y-94377571D01*
X169358184Y-94446300D01*
X169640512Y-94460217D01*
X169920130Y-94418787D01*
X170186292Y-94323603D01*
X170311514Y-94256671D01*
X170383097Y-94012702D01*
X169570000Y-93199605D01*
X168756903Y-94012702D01*
X168066694Y-94012702D01*
X168144637Y-93934759D01*
X168300915Y-93700872D01*
X168333329Y-93761514D01*
X168577298Y-93833097D01*
X169390395Y-93020000D01*
X168577298Y-92206903D01*
X168333329Y-92278486D01*
X168302806Y-92342992D01*
X168301680Y-92340273D01*
X168144637Y-92105241D01*
X167944759Y-91905363D01*
X167709727Y-91748320D01*
X167638000Y-91718610D01*
X167638000Y-90338665D01*
X168135000Y-90338665D01*
X168135000Y-90621335D01*
X168190147Y-90898574D01*
X168298320Y-91159727D01*
X168455363Y-91394759D01*
X168655241Y-91594637D01*
X168889128Y-91750915D01*
X168828486Y-91783329D01*
X168756903Y-92027298D01*
X169570000Y-92840395D01*
X170383097Y-92027298D01*
X170311514Y-91783329D01*
X170247008Y-91752806D01*
X170249727Y-91751680D01*
X170484759Y-91594637D01*
X170684637Y-91394759D01*
X170841680Y-91159727D01*
X170949853Y-90898574D01*
X171005000Y-90621335D01*
X171005000Y-90338665D01*
X170949853Y-90061426D01*
X170841680Y-89800273D01*
X170684637Y-89565241D01*
X170484759Y-89365363D01*
X170249727Y-89208320D01*
X169988574Y-89100147D01*
X169711335Y-89045000D01*
X169428665Y-89045000D01*
X169151426Y-89100147D01*
X168890273Y-89208320D01*
X168655241Y-89365363D01*
X168455363Y-89565241D01*
X168298320Y-89800273D01*
X168190147Y-90061426D01*
X168135000Y-90338665D01*
X167638000Y-90338665D01*
X167638000Y-88587711D01*
X167681937Y-88543774D01*
X167795205Y-88374256D01*
X167873226Y-88185898D01*
X167913000Y-87985939D01*
X167913000Y-87782061D01*
X167873226Y-87582102D01*
X167795205Y-87393744D01*
X167681937Y-87224226D01*
X167537774Y-87080063D01*
X167368256Y-86966795D01*
X167179898Y-86888774D01*
X166979939Y-86849000D01*
X166776061Y-86849000D01*
X166576102Y-86888774D01*
X166387744Y-86966795D01*
X166218226Y-87080063D01*
X166074063Y-87224226D01*
X165960795Y-87393744D01*
X165882774Y-87582102D01*
X165843000Y-87782061D01*
X165843000Y-87985939D01*
X165882774Y-88185898D01*
X165960795Y-88374256D01*
X166074063Y-88543774D01*
X166118001Y-88587712D01*
X166118000Y-91903519D01*
X166115241Y-91905363D01*
X165915363Y-92105241D01*
X165760000Y-92337759D01*
X165604637Y-92105241D01*
X165404759Y-91905363D01*
X165172241Y-91750000D01*
X165404759Y-91594637D01*
X165604637Y-91394759D01*
X165761680Y-91159727D01*
X165869853Y-90898574D01*
X165925000Y-90621335D01*
X165925000Y-90338665D01*
X165869853Y-90061426D01*
X165761680Y-89800273D01*
X165604637Y-89565241D01*
X165404759Y-89365363D01*
X165169727Y-89208320D01*
X164908574Y-89100147D01*
X164631335Y-89045000D01*
X164348665Y-89045000D01*
X164071426Y-89100147D01*
X163810273Y-89208320D01*
X163575241Y-89365363D01*
X163375363Y-89565241D01*
X163220000Y-89797759D01*
X163064637Y-89565241D01*
X162864759Y-89365363D01*
X162629727Y-89208320D01*
X162368574Y-89100147D01*
X162091335Y-89045000D01*
X161808665Y-89045000D01*
X161531426Y-89100147D01*
X161270273Y-89208320D01*
X161035241Y-89365363D01*
X160835363Y-89565241D01*
X160680000Y-89797759D01*
X160524637Y-89565241D01*
X160324759Y-89365363D01*
X160089727Y-89208320D01*
X159828574Y-89100147D01*
X159551335Y-89045000D01*
X159268665Y-89045000D01*
X158991426Y-89100147D01*
X158730273Y-89208320D01*
X158495241Y-89365363D01*
X158295363Y-89565241D01*
X158138320Y-89800273D01*
X158030147Y-90061426D01*
X157975000Y-90338665D01*
X157975000Y-90621335D01*
X158030147Y-90898574D01*
X158138320Y-91159727D01*
X158295363Y-91394759D01*
X158495241Y-91594637D01*
X158727759Y-91750000D01*
X158495241Y-91905363D01*
X158295363Y-92105241D01*
X158140000Y-92337759D01*
X157984637Y-92105241D01*
X157784759Y-91905363D01*
X157549727Y-91748320D01*
X157288574Y-91640147D01*
X157011335Y-91585000D01*
X156728665Y-91585000D01*
X156451426Y-91640147D01*
X156190273Y-91748320D01*
X155955241Y-91905363D01*
X155755363Y-92105241D01*
X155600000Y-92337759D01*
X155444637Y-92105241D01*
X155244759Y-91905363D01*
X155009727Y-91748320D01*
X154748574Y-91640147D01*
X154471335Y-91585000D01*
X154188665Y-91585000D01*
X153911426Y-91640147D01*
X153650273Y-91748320D01*
X153415241Y-91905363D01*
X153215363Y-92105241D01*
X153060000Y-92337759D01*
X152904637Y-92105241D01*
X152704759Y-91905363D01*
X152469727Y-91748320D01*
X152208574Y-91640147D01*
X151931335Y-91585000D01*
X151648665Y-91585000D01*
X151371426Y-91640147D01*
X151110273Y-91748320D01*
X150875241Y-91905363D01*
X150675363Y-92105241D01*
X150520000Y-92337759D01*
X150364637Y-92105241D01*
X150164759Y-91905363D01*
X149929727Y-91748320D01*
X149668574Y-91640147D01*
X149391335Y-91585000D01*
X149108665Y-91585000D01*
X148831426Y-91640147D01*
X148570273Y-91748320D01*
X148335241Y-91905363D01*
X148135363Y-92105241D01*
X147980000Y-92337759D01*
X147824637Y-92105241D01*
X147624759Y-91905363D01*
X147389727Y-91748320D01*
X147128574Y-91640147D01*
X146851335Y-91585000D01*
X146568665Y-91585000D01*
X146291426Y-91640147D01*
X146030273Y-91748320D01*
X145795241Y-91905363D01*
X145595363Y-92105241D01*
X145440000Y-92337759D01*
X145284637Y-92105241D01*
X145084759Y-91905363D01*
X144849727Y-91748320D01*
X144588574Y-91640147D01*
X144311335Y-91585000D01*
X144028665Y-91585000D01*
X143751426Y-91640147D01*
X143490273Y-91748320D01*
X143255241Y-91905363D01*
X143055363Y-92105241D01*
X142900000Y-92337759D01*
X142744637Y-92105241D01*
X142544759Y-91905363D01*
X142309727Y-91748320D01*
X142048574Y-91640147D01*
X141771335Y-91585000D01*
X141488665Y-91585000D01*
X141211426Y-91640147D01*
X140950273Y-91748320D01*
X140715241Y-91905363D01*
X140515363Y-92105241D01*
X140360000Y-92337759D01*
X140204637Y-92105241D01*
X140004759Y-91905363D01*
X139769727Y-91748320D01*
X139508574Y-91640147D01*
X139231335Y-91585000D01*
X138948665Y-91585000D01*
X138671426Y-91640147D01*
X138410273Y-91748320D01*
X138175241Y-91905363D01*
X137975363Y-92105241D01*
X137820000Y-92337759D01*
X137664637Y-92105241D01*
X137464759Y-91905363D01*
X137229727Y-91748320D01*
X136968574Y-91640147D01*
X136691335Y-91585000D01*
X136408665Y-91585000D01*
X136131426Y-91640147D01*
X135870273Y-91748320D01*
X135635241Y-91905363D01*
X135435363Y-92105241D01*
X135280000Y-92337759D01*
X135124637Y-92105241D01*
X134924759Y-91905363D01*
X134689727Y-91748320D01*
X134428574Y-91640147D01*
X134151335Y-91585000D01*
X133868665Y-91585000D01*
X133591426Y-91640147D01*
X133330273Y-91748320D01*
X133095241Y-91905363D01*
X132895363Y-92105241D01*
X132740000Y-92337759D01*
X132584637Y-92105241D01*
X132384759Y-91905363D01*
X132149727Y-91748320D01*
X131888574Y-91640147D01*
X131611335Y-91585000D01*
X131328665Y-91585000D01*
X131051426Y-91640147D01*
X130790273Y-91748320D01*
X130555241Y-91905363D01*
X130355363Y-92105241D01*
X130200000Y-92337759D01*
X130044637Y-92105241D01*
X129844759Y-91905363D01*
X129609727Y-91748320D01*
X129348574Y-91640147D01*
X129071335Y-91585000D01*
X128788665Y-91585000D01*
X128511426Y-91640147D01*
X128250273Y-91748320D01*
X128015241Y-91905363D01*
X127815363Y-92105241D01*
X127660000Y-92337759D01*
X127504637Y-92105241D01*
X127304759Y-91905363D01*
X127072241Y-91750000D01*
X127304759Y-91594637D01*
X127504637Y-91394759D01*
X127661680Y-91159727D01*
X127769853Y-90898574D01*
X127825000Y-90621335D01*
X127825000Y-90338665D01*
X127769853Y-90061426D01*
X127661680Y-89800273D01*
X127504637Y-89565241D01*
X127304759Y-89365363D01*
X127072241Y-89210000D01*
X127304759Y-89054637D01*
X127504637Y-88854759D01*
X127661680Y-88619727D01*
X127769853Y-88358574D01*
X127825000Y-88081335D01*
X127825000Y-87798665D01*
X127769853Y-87521426D01*
X127661680Y-87260273D01*
X127504637Y-87025241D01*
X127304759Y-86825363D01*
X127072241Y-86670000D01*
X127304759Y-86514637D01*
X127504637Y-86314759D01*
X127661680Y-86079727D01*
X127769853Y-85818574D01*
X127825000Y-85541335D01*
X127825000Y-85258665D01*
X127803902Y-85152595D01*
X131073282Y-85152595D01*
X131117039Y-85471675D01*
X131222205Y-85776088D01*
X131315186Y-85950044D01*
X131522033Y-86024963D01*
X131470820Y-86040498D01*
X131360506Y-86099463D01*
X131263815Y-86178815D01*
X131184463Y-86275506D01*
X131125498Y-86385820D01*
X131089188Y-86505518D01*
X131076928Y-86630000D01*
X131076928Y-88630000D01*
X131089188Y-88754482D01*
X131125498Y-88874180D01*
X131184463Y-88984494D01*
X131263815Y-89081185D01*
X131360506Y-89160537D01*
X131470820Y-89219502D01*
X131590518Y-89255812D01*
X131715000Y-89268072D01*
X133715000Y-89268072D01*
X133839482Y-89255812D01*
X133959180Y-89219502D01*
X134069494Y-89160537D01*
X134166185Y-89081185D01*
X134245156Y-88984958D01*
X136412206Y-91152009D01*
X136436000Y-91181002D01*
X136464993Y-91204796D01*
X136464997Y-91204800D01*
X136535686Y-91262812D01*
X136551725Y-91275975D01*
X136683754Y-91346547D01*
X136827015Y-91390004D01*
X136938668Y-91401001D01*
X136938677Y-91401001D01*
X136976000Y-91404677D01*
X137013323Y-91401001D01*
X140969677Y-91401001D01*
X141006999Y-91404677D01*
X141044321Y-91401001D01*
X141044332Y-91401001D01*
X141155985Y-91390004D01*
X141299246Y-91346547D01*
X141431275Y-91275975D01*
X141547000Y-91181002D01*
X141570803Y-91151998D01*
X143005004Y-89717798D01*
X143034001Y-89694001D01*
X143060332Y-89661917D01*
X143128974Y-89578277D01*
X143199546Y-89446247D01*
X143202592Y-89436205D01*
X143243003Y-89302986D01*
X143250572Y-89226139D01*
X143297937Y-89178774D01*
X143411205Y-89009256D01*
X143489226Y-88820898D01*
X143529000Y-88620939D01*
X143529000Y-88544061D01*
X149079000Y-88544061D01*
X149079000Y-88747939D01*
X149118774Y-88947898D01*
X149196795Y-89136256D01*
X149310063Y-89305774D01*
X149454226Y-89449937D01*
X149623744Y-89563205D01*
X149812102Y-89641226D01*
X150012061Y-89681000D01*
X150215939Y-89681000D01*
X150415898Y-89641226D01*
X150604256Y-89563205D01*
X150773774Y-89449937D01*
X150817711Y-89406000D01*
X151658363Y-89406000D01*
X151695685Y-89409676D01*
X151733007Y-89406000D01*
X151733018Y-89406000D01*
X151844671Y-89395003D01*
X151987932Y-89351546D01*
X152119961Y-89280974D01*
X152235686Y-89186001D01*
X152259489Y-89156997D01*
X157471487Y-83945000D01*
X161729289Y-83945000D01*
X161773226Y-83988937D01*
X161942744Y-84102205D01*
X162131102Y-84180226D01*
X162331061Y-84220000D01*
X162534939Y-84220000D01*
X162734898Y-84180226D01*
X162923256Y-84102205D01*
X163092774Y-83988937D01*
X163236937Y-83844774D01*
X163350205Y-83675256D01*
X163428226Y-83486898D01*
X163468000Y-83286939D01*
X163468000Y-83083061D01*
X163428226Y-82883102D01*
X163350205Y-82694744D01*
X163236937Y-82525226D01*
X163092774Y-82381063D01*
X162923256Y-82267795D01*
X162734898Y-82189774D01*
X162534939Y-82150000D01*
X162331061Y-82150000D01*
X162131102Y-82189774D01*
X161942744Y-82267795D01*
X161773226Y-82381063D01*
X161729289Y-82425000D01*
X157194007Y-82425000D01*
X157156684Y-82421324D01*
X157119361Y-82425000D01*
X157119352Y-82425000D01*
X157007699Y-82435997D01*
X156864438Y-82479454D01*
X156732409Y-82550026D01*
X156616684Y-82644999D01*
X156592886Y-82673997D01*
X151380884Y-87886000D01*
X150817711Y-87886000D01*
X150773774Y-87842063D01*
X150604256Y-87728795D01*
X150415898Y-87650774D01*
X150215939Y-87611000D01*
X150012061Y-87611000D01*
X149812102Y-87650774D01*
X149623744Y-87728795D01*
X149454226Y-87842063D01*
X149310063Y-87986226D01*
X149196795Y-88155744D01*
X149118774Y-88344102D01*
X149079000Y-88544061D01*
X143529000Y-88544061D01*
X143529000Y-88417061D01*
X143489226Y-88217102D01*
X143411205Y-88028744D01*
X143297937Y-87859226D01*
X143153774Y-87715063D01*
X142984256Y-87601795D01*
X142795898Y-87523774D01*
X142595939Y-87484000D01*
X142392061Y-87484000D01*
X142192102Y-87523774D01*
X142003744Y-87601795D01*
X141834226Y-87715063D01*
X141690063Y-87859226D01*
X141576795Y-88028744D01*
X141498774Y-88217102D01*
X141459000Y-88417061D01*
X141459000Y-88620939D01*
X141498774Y-88820898D01*
X141573031Y-89000168D01*
X140692198Y-89881001D01*
X137290804Y-89881001D01*
X134528804Y-87119003D01*
X134505001Y-87089999D01*
X134389276Y-86995026D01*
X134353072Y-86975674D01*
X134353072Y-86630000D01*
X134340812Y-86505518D01*
X134304502Y-86385820D01*
X134245537Y-86275506D01*
X134166185Y-86178815D01*
X134069494Y-86099463D01*
X133959180Y-86040498D01*
X133907967Y-86024963D01*
X134114814Y-85950044D01*
X134255704Y-85660429D01*
X134337384Y-85348892D01*
X134356718Y-85027405D01*
X134312961Y-84708325D01*
X134207795Y-84403912D01*
X134114814Y-84229956D01*
X133850413Y-84134192D01*
X132894605Y-85090000D01*
X132908748Y-85104143D01*
X132729143Y-85283748D01*
X132715000Y-85269605D01*
X132700858Y-85283748D01*
X132521253Y-85104143D01*
X132535395Y-85090000D01*
X131579587Y-84134192D01*
X131315186Y-84229956D01*
X131174296Y-84519571D01*
X131092616Y-84831108D01*
X131073282Y-85152595D01*
X127803902Y-85152595D01*
X127769853Y-84981426D01*
X127661680Y-84720273D01*
X127504637Y-84485241D01*
X127304759Y-84285363D01*
X127072241Y-84130000D01*
X127304759Y-83974637D01*
X127324809Y-83954587D01*
X131759192Y-83954587D01*
X132715000Y-84910395D01*
X133670808Y-83954587D01*
X133575044Y-83690186D01*
X133285429Y-83549296D01*
X132973892Y-83467616D01*
X132652405Y-83448282D01*
X132333325Y-83492039D01*
X132028912Y-83597205D01*
X131854956Y-83690186D01*
X131759192Y-83954587D01*
X127324809Y-83954587D01*
X127504637Y-83774759D01*
X127661680Y-83539727D01*
X127769853Y-83278574D01*
X127825000Y-83001335D01*
X127825000Y-82718665D01*
X127769853Y-82441426D01*
X127661680Y-82180273D01*
X127504637Y-81945241D01*
X127304759Y-81745363D01*
X127072241Y-81590000D01*
X127304759Y-81434637D01*
X127504637Y-81234759D01*
X127661680Y-80999727D01*
X127769853Y-80738574D01*
X127789726Y-80638665D01*
X154165000Y-80638665D01*
X154165000Y-80921335D01*
X154220147Y-81198574D01*
X154328320Y-81459727D01*
X154485363Y-81694759D01*
X154685241Y-81894637D01*
X154920273Y-82051680D01*
X155181426Y-82159853D01*
X155458665Y-82215000D01*
X155741335Y-82215000D01*
X156018574Y-82159853D01*
X156279727Y-82051680D01*
X156514759Y-81894637D01*
X156714637Y-81694759D01*
X156870000Y-81462241D01*
X157025363Y-81694759D01*
X157225241Y-81894637D01*
X157460273Y-82051680D01*
X157721426Y-82159853D01*
X157998665Y-82215000D01*
X158281335Y-82215000D01*
X158558574Y-82159853D01*
X158819727Y-82051680D01*
X159054759Y-81894637D01*
X159254637Y-81694759D01*
X159410000Y-81462241D01*
X159565363Y-81694759D01*
X159765241Y-81894637D01*
X160000273Y-82051680D01*
X160261426Y-82159853D01*
X160538665Y-82215000D01*
X160821335Y-82215000D01*
X161098574Y-82159853D01*
X161359727Y-82051680D01*
X161594759Y-81894637D01*
X161794637Y-81694759D01*
X161950000Y-81462241D01*
X162105363Y-81694759D01*
X162305241Y-81894637D01*
X162540273Y-82051680D01*
X162801426Y-82159853D01*
X163078665Y-82215000D01*
X163361335Y-82215000D01*
X163638574Y-82159853D01*
X163899727Y-82051680D01*
X164134759Y-81894637D01*
X164334637Y-81694759D01*
X164490000Y-81462241D01*
X164645363Y-81694759D01*
X164845241Y-81894637D01*
X165080273Y-82051680D01*
X165341426Y-82159853D01*
X165618665Y-82215000D01*
X165901335Y-82215000D01*
X166178574Y-82159853D01*
X166439727Y-82051680D01*
X166674759Y-81894637D01*
X166874637Y-81694759D01*
X167031680Y-81459727D01*
X167139853Y-81198574D01*
X167195000Y-80921335D01*
X167195000Y-80638665D01*
X167139853Y-80361426D01*
X167031680Y-80100273D01*
X166874637Y-79865241D01*
X166674759Y-79665363D01*
X166439727Y-79508320D01*
X166178574Y-79400147D01*
X165901335Y-79345000D01*
X165618665Y-79345000D01*
X165341426Y-79400147D01*
X165080273Y-79508320D01*
X164845241Y-79665363D01*
X164645363Y-79865241D01*
X164490000Y-80097759D01*
X164334637Y-79865241D01*
X164134759Y-79665363D01*
X163899727Y-79508320D01*
X163638574Y-79400147D01*
X163361335Y-79345000D01*
X163078665Y-79345000D01*
X162801426Y-79400147D01*
X162540273Y-79508320D01*
X162305241Y-79665363D01*
X162105363Y-79865241D01*
X161950000Y-80097759D01*
X161794637Y-79865241D01*
X161594759Y-79665363D01*
X161359727Y-79508320D01*
X161098574Y-79400147D01*
X160821335Y-79345000D01*
X160538665Y-79345000D01*
X160261426Y-79400147D01*
X160000273Y-79508320D01*
X159765241Y-79665363D01*
X159565363Y-79865241D01*
X159410000Y-80097759D01*
X159254637Y-79865241D01*
X159054759Y-79665363D01*
X158819727Y-79508320D01*
X158558574Y-79400147D01*
X158281335Y-79345000D01*
X157998665Y-79345000D01*
X157721426Y-79400147D01*
X157460273Y-79508320D01*
X157225241Y-79665363D01*
X157025363Y-79865241D01*
X156870000Y-80097759D01*
X156714637Y-79865241D01*
X156514759Y-79665363D01*
X156279727Y-79508320D01*
X156018574Y-79400147D01*
X155741335Y-79345000D01*
X155458665Y-79345000D01*
X155181426Y-79400147D01*
X154920273Y-79508320D01*
X154685241Y-79665363D01*
X154485363Y-79865241D01*
X154328320Y-80100273D01*
X154220147Y-80361426D01*
X154165000Y-80638665D01*
X127789726Y-80638665D01*
X127825000Y-80461335D01*
X127825000Y-80178665D01*
X127769853Y-79901426D01*
X127661680Y-79640273D01*
X127504637Y-79405241D01*
X127304759Y-79205363D01*
X127072241Y-79050000D01*
X127304759Y-78894637D01*
X127504637Y-78694759D01*
X127660000Y-78462241D01*
X127815363Y-78694759D01*
X128015241Y-78894637D01*
X128250273Y-79051680D01*
X128511426Y-79159853D01*
X128788665Y-79215000D01*
X129071335Y-79215000D01*
X129348574Y-79159853D01*
X129609727Y-79051680D01*
X129844759Y-78894637D01*
X130044637Y-78694759D01*
X130200000Y-78462241D01*
X130355363Y-78694759D01*
X130555241Y-78894637D01*
X130790273Y-79051680D01*
X131051426Y-79159853D01*
X131328665Y-79215000D01*
X131611335Y-79215000D01*
X131888574Y-79159853D01*
X132149727Y-79051680D01*
X132384759Y-78894637D01*
X132584637Y-78694759D01*
X132740000Y-78462241D01*
X132895363Y-78694759D01*
X133095241Y-78894637D01*
X133330273Y-79051680D01*
X133591426Y-79159853D01*
X133868665Y-79215000D01*
X134151335Y-79215000D01*
X134428574Y-79159853D01*
X134689727Y-79051680D01*
X134924759Y-78894637D01*
X135124637Y-78694759D01*
X135280000Y-78462241D01*
X135435363Y-78694759D01*
X135635241Y-78894637D01*
X135870273Y-79051680D01*
X136131426Y-79159853D01*
X136408665Y-79215000D01*
X136691335Y-79215000D01*
X136968574Y-79159853D01*
X137229727Y-79051680D01*
X137464759Y-78894637D01*
X137664637Y-78694759D01*
X137820000Y-78462241D01*
X137975363Y-78694759D01*
X138175241Y-78894637D01*
X138410273Y-79051680D01*
X138671426Y-79159853D01*
X138948665Y-79215000D01*
X139231335Y-79215000D01*
X139508574Y-79159853D01*
X139769727Y-79051680D01*
X140004759Y-78894637D01*
X140204637Y-78694759D01*
X140360000Y-78462241D01*
X140515363Y-78694759D01*
X140715241Y-78894637D01*
X140950273Y-79051680D01*
X141211426Y-79159853D01*
X141488665Y-79215000D01*
X141771335Y-79215000D01*
X142048574Y-79159853D01*
X142309727Y-79051680D01*
X142544759Y-78894637D01*
X142744637Y-78694759D01*
X142900000Y-78462241D01*
X143055363Y-78694759D01*
X143255241Y-78894637D01*
X143490273Y-79051680D01*
X143751426Y-79159853D01*
X144028665Y-79215000D01*
X144311335Y-79215000D01*
X144588574Y-79159853D01*
X144849727Y-79051680D01*
X145084759Y-78894637D01*
X145284637Y-78694759D01*
X145440000Y-78462241D01*
X145595363Y-78694759D01*
X145795241Y-78894637D01*
X146030273Y-79051680D01*
X146291426Y-79159853D01*
X146568665Y-79215000D01*
X146851335Y-79215000D01*
X147128574Y-79159853D01*
X147389727Y-79051680D01*
X147624759Y-78894637D01*
X147824637Y-78694759D01*
X147980000Y-78462241D01*
X148135363Y-78694759D01*
X148335241Y-78894637D01*
X148570273Y-79051680D01*
X148831426Y-79159853D01*
X149108665Y-79215000D01*
X149391335Y-79215000D01*
X149668574Y-79159853D01*
X149929727Y-79051680D01*
X150164759Y-78894637D01*
X150364637Y-78694759D01*
X150520000Y-78462241D01*
X150675363Y-78694759D01*
X150875241Y-78894637D01*
X151110273Y-79051680D01*
X151371426Y-79159853D01*
X151648665Y-79215000D01*
X151931335Y-79215000D01*
X152208574Y-79159853D01*
X152469727Y-79051680D01*
X152704759Y-78894637D01*
X152904637Y-78694759D01*
X153060000Y-78462241D01*
X153215363Y-78694759D01*
X153415241Y-78894637D01*
X153650273Y-79051680D01*
X153911426Y-79159853D01*
X154188665Y-79215000D01*
X154471335Y-79215000D01*
X154748574Y-79159853D01*
X155009727Y-79051680D01*
X155244759Y-78894637D01*
X155444637Y-78694759D01*
X155600000Y-78462241D01*
X155755363Y-78694759D01*
X155955241Y-78894637D01*
X156190273Y-79051680D01*
X156451426Y-79159853D01*
X156728665Y-79215000D01*
X157011335Y-79215000D01*
X157288574Y-79159853D01*
X157549727Y-79051680D01*
X157784759Y-78894637D01*
X157984637Y-78694759D01*
X158140000Y-78462241D01*
X158295363Y-78694759D01*
X158495241Y-78894637D01*
X158730273Y-79051680D01*
X158991426Y-79159853D01*
X159268665Y-79215000D01*
X159551335Y-79215000D01*
X159828574Y-79159853D01*
X160089727Y-79051680D01*
X160324759Y-78894637D01*
X160524637Y-78694759D01*
X160680000Y-78462241D01*
X160835363Y-78694759D01*
X161035241Y-78894637D01*
X161270273Y-79051680D01*
X161531426Y-79159853D01*
X161808665Y-79215000D01*
X162091335Y-79215000D01*
X162368574Y-79159853D01*
X162629727Y-79051680D01*
X162864759Y-78894637D01*
X163064637Y-78694759D01*
X163220000Y-78462241D01*
X163375363Y-78694759D01*
X163575241Y-78894637D01*
X163810273Y-79051680D01*
X164071426Y-79159853D01*
X164348665Y-79215000D01*
X164631335Y-79215000D01*
X164908574Y-79159853D01*
X165169727Y-79051680D01*
X165404759Y-78894637D01*
X165604637Y-78694759D01*
X165760000Y-78462241D01*
X165915363Y-78694759D01*
X166115241Y-78894637D01*
X166350273Y-79051680D01*
X166611426Y-79159853D01*
X166888665Y-79215000D01*
X167171335Y-79215000D01*
X167448574Y-79159853D01*
X167709727Y-79051680D01*
X167944759Y-78894637D01*
X168144637Y-78694759D01*
X168300000Y-78462241D01*
X168455363Y-78694759D01*
G04 #@! TA.AperFunction,Conductor*
D24*
G36*
X168455363Y-78694759D02*
G01*
X168655241Y-78894637D01*
X168890273Y-79051680D01*
X169151426Y-79159853D01*
X169428665Y-79215000D01*
X169711335Y-79215000D01*
X169988574Y-79159853D01*
X170249727Y-79051680D01*
X170484759Y-78894637D01*
X170683357Y-78696039D01*
X170684188Y-78704482D01*
X170720498Y-78824180D01*
X170779463Y-78934494D01*
X170858815Y-79031185D01*
X170955506Y-79110537D01*
X171065820Y-79169502D01*
X171185518Y-79205812D01*
X171310000Y-79218072D01*
X172910000Y-79218072D01*
X173034482Y-79205812D01*
X173154180Y-79169502D01*
X173264494Y-79110537D01*
X173330000Y-79056778D01*
X173330000Y-92262929D01*
X173224637Y-92105241D01*
X173024759Y-91905363D01*
X172789727Y-91748320D01*
X172528574Y-91640147D01*
X172251335Y-91585000D01*
X171968665Y-91585000D01*
X171691426Y-91640147D01*
X171430273Y-91748320D01*
X171195241Y-91905363D01*
X170995363Y-92105241D01*
X170839085Y-92339128D01*
X170806671Y-92278486D01*
X170562702Y-92206903D01*
X169749605Y-93020000D01*
X170562702Y-93833097D01*
X170806671Y-93761514D01*
X170837194Y-93697008D01*
X170838320Y-93699727D01*
X170995363Y-93934759D01*
X171195241Y-94134637D01*
X171430273Y-94291680D01*
X171691426Y-94399853D01*
X171968665Y-94455000D01*
X172251335Y-94455000D01*
X172528574Y-94399853D01*
X172789727Y-94291680D01*
X173024759Y-94134637D01*
X173224637Y-93934759D01*
X173330001Y-93777071D01*
X173330001Y-99060000D01*
X167640000Y-99060000D01*
X167640000Y-94320562D01*
X167709727Y-94291680D01*
X167944759Y-94134637D01*
X168066694Y-94012702D01*
X168756903Y-94012702D01*
X168828486Y-94256671D01*
X169083996Y-94377571D01*
X169358184Y-94446300D01*
X169640512Y-94460217D01*
X169920130Y-94418787D01*
X170186292Y-94323603D01*
X170311514Y-94256671D01*
X170383097Y-94012702D01*
X169570000Y-93199605D01*
X168756903Y-94012702D01*
X168066694Y-94012702D01*
X168144637Y-93934759D01*
X168300915Y-93700872D01*
X168333329Y-93761514D01*
X168577298Y-93833097D01*
X169390395Y-93020000D01*
X168577298Y-92206903D01*
X168333329Y-92278486D01*
X168302806Y-92342992D01*
X168301680Y-92340273D01*
X168144637Y-92105241D01*
X167944759Y-91905363D01*
X167709727Y-91748320D01*
X167638000Y-91718610D01*
X167638000Y-90338665D01*
X168135000Y-90338665D01*
X168135000Y-90621335D01*
X168190147Y-90898574D01*
X168298320Y-91159727D01*
X168455363Y-91394759D01*
X168655241Y-91594637D01*
X168889128Y-91750915D01*
X168828486Y-91783329D01*
X168756903Y-92027298D01*
X169570000Y-92840395D01*
X170383097Y-92027298D01*
X170311514Y-91783329D01*
X170247008Y-91752806D01*
X170249727Y-91751680D01*
X170484759Y-91594637D01*
X170684637Y-91394759D01*
X170841680Y-91159727D01*
X170949853Y-90898574D01*
X171005000Y-90621335D01*
X171005000Y-90338665D01*
X170949853Y-90061426D01*
X170841680Y-89800273D01*
X170684637Y-89565241D01*
X170484759Y-89365363D01*
X170249727Y-89208320D01*
X169988574Y-89100147D01*
X169711335Y-89045000D01*
X169428665Y-89045000D01*
X169151426Y-89100147D01*
X168890273Y-89208320D01*
X168655241Y-89365363D01*
X168455363Y-89565241D01*
X168298320Y-89800273D01*
X168190147Y-90061426D01*
X168135000Y-90338665D01*
X167638000Y-90338665D01*
X167638000Y-88587711D01*
X167681937Y-88543774D01*
X167795205Y-88374256D01*
X167873226Y-88185898D01*
X167913000Y-87985939D01*
X167913000Y-87782061D01*
X167873226Y-87582102D01*
X167795205Y-87393744D01*
X167681937Y-87224226D01*
X167537774Y-87080063D01*
X167368256Y-86966795D01*
X167179898Y-86888774D01*
X166979939Y-86849000D01*
X166776061Y-86849000D01*
X166576102Y-86888774D01*
X166387744Y-86966795D01*
X166218226Y-87080063D01*
X166074063Y-87224226D01*
X165960795Y-87393744D01*
X165882774Y-87582102D01*
X165843000Y-87782061D01*
X165843000Y-87985939D01*
X165882774Y-88185898D01*
X165960795Y-88374256D01*
X166074063Y-88543774D01*
X166118001Y-88587712D01*
X166118000Y-91903519D01*
X166115241Y-91905363D01*
X165915363Y-92105241D01*
X165760000Y-92337759D01*
X165604637Y-92105241D01*
X165404759Y-91905363D01*
X165172241Y-91750000D01*
X165404759Y-91594637D01*
X165604637Y-91394759D01*
X165761680Y-91159727D01*
X165869853Y-90898574D01*
X165925000Y-90621335D01*
X165925000Y-90338665D01*
X165869853Y-90061426D01*
X165761680Y-89800273D01*
X165604637Y-89565241D01*
X165404759Y-89365363D01*
X165169727Y-89208320D01*
X164908574Y-89100147D01*
X164631335Y-89045000D01*
X164348665Y-89045000D01*
X164071426Y-89100147D01*
X163810273Y-89208320D01*
X163575241Y-89365363D01*
X163375363Y-89565241D01*
X163220000Y-89797759D01*
X163064637Y-89565241D01*
X162864759Y-89365363D01*
X162629727Y-89208320D01*
X162368574Y-89100147D01*
X162091335Y-89045000D01*
X161808665Y-89045000D01*
X161531426Y-89100147D01*
X161270273Y-89208320D01*
X161035241Y-89365363D01*
X160835363Y-89565241D01*
X160680000Y-89797759D01*
X160524637Y-89565241D01*
X160324759Y-89365363D01*
X160089727Y-89208320D01*
X159828574Y-89100147D01*
X159551335Y-89045000D01*
X159268665Y-89045000D01*
X158991426Y-89100147D01*
X158730273Y-89208320D01*
X158495241Y-89365363D01*
X158295363Y-89565241D01*
X158138320Y-89800273D01*
X158030147Y-90061426D01*
X157975000Y-90338665D01*
X157975000Y-90621335D01*
X158030147Y-90898574D01*
X158138320Y-91159727D01*
X158295363Y-91394759D01*
X158495241Y-91594637D01*
X158727759Y-91750000D01*
X158495241Y-91905363D01*
X158295363Y-92105241D01*
X158140000Y-92337759D01*
X157984637Y-92105241D01*
X157784759Y-91905363D01*
X157549727Y-91748320D01*
X157288574Y-91640147D01*
X157011335Y-91585000D01*
X156728665Y-91585000D01*
X156451426Y-91640147D01*
X156190273Y-91748320D01*
X155955241Y-91905363D01*
X155755363Y-92105241D01*
X155600000Y-92337759D01*
X155444637Y-92105241D01*
X155244759Y-91905363D01*
X155009727Y-91748320D01*
X154748574Y-91640147D01*
X154471335Y-91585000D01*
X154188665Y-91585000D01*
X153911426Y-91640147D01*
X153650273Y-91748320D01*
X153415241Y-91905363D01*
X153215363Y-92105241D01*
X153060000Y-92337759D01*
X152904637Y-92105241D01*
X152704759Y-91905363D01*
X152469727Y-91748320D01*
X152208574Y-91640147D01*
X151931335Y-91585000D01*
X151648665Y-91585000D01*
X151371426Y-91640147D01*
X151110273Y-91748320D01*
X150875241Y-91905363D01*
X150675363Y-92105241D01*
X150520000Y-92337759D01*
X150364637Y-92105241D01*
X150164759Y-91905363D01*
X149929727Y-91748320D01*
X149668574Y-91640147D01*
X149391335Y-91585000D01*
X149108665Y-91585000D01*
X148831426Y-91640147D01*
X148570273Y-91748320D01*
X148335241Y-91905363D01*
X148135363Y-92105241D01*
X147980000Y-92337759D01*
X147824637Y-92105241D01*
X147624759Y-91905363D01*
X147389727Y-91748320D01*
X147128574Y-91640147D01*
X146851335Y-91585000D01*
X146568665Y-91585000D01*
X146291426Y-91640147D01*
X146030273Y-91748320D01*
X145795241Y-91905363D01*
X145595363Y-92105241D01*
X145440000Y-92337759D01*
X145284637Y-92105241D01*
X145084759Y-91905363D01*
X144849727Y-91748320D01*
X144588574Y-91640147D01*
X144311335Y-91585000D01*
X144028665Y-91585000D01*
X143751426Y-91640147D01*
X143490273Y-91748320D01*
X143255241Y-91905363D01*
X143055363Y-92105241D01*
X142900000Y-92337759D01*
X142744637Y-92105241D01*
X142544759Y-91905363D01*
X142309727Y-91748320D01*
X142048574Y-91640147D01*
X141771335Y-91585000D01*
X141488665Y-91585000D01*
X141211426Y-91640147D01*
X140950273Y-91748320D01*
X140715241Y-91905363D01*
X140515363Y-92105241D01*
X140360000Y-92337759D01*
X140204637Y-92105241D01*
X140004759Y-91905363D01*
X139769727Y-91748320D01*
X139508574Y-91640147D01*
X139231335Y-91585000D01*
X138948665Y-91585000D01*
X138671426Y-91640147D01*
X138410273Y-91748320D01*
X138175241Y-91905363D01*
X137975363Y-92105241D01*
X137820000Y-92337759D01*
X137664637Y-92105241D01*
X137464759Y-91905363D01*
X137229727Y-91748320D01*
X136968574Y-91640147D01*
X136691335Y-91585000D01*
X136408665Y-91585000D01*
X136131426Y-91640147D01*
X135870273Y-91748320D01*
X135635241Y-91905363D01*
X135435363Y-92105241D01*
X135280000Y-92337759D01*
X135124637Y-92105241D01*
X134924759Y-91905363D01*
X134689727Y-91748320D01*
X134428574Y-91640147D01*
X134151335Y-91585000D01*
X133868665Y-91585000D01*
X133591426Y-91640147D01*
X133330273Y-91748320D01*
X133095241Y-91905363D01*
X132895363Y-92105241D01*
X132740000Y-92337759D01*
X132584637Y-92105241D01*
X132384759Y-91905363D01*
X132149727Y-91748320D01*
X131888574Y-91640147D01*
X131611335Y-91585000D01*
X131328665Y-91585000D01*
X131051426Y-91640147D01*
X130790273Y-91748320D01*
X130555241Y-91905363D01*
X130355363Y-92105241D01*
X130200000Y-92337759D01*
X130044637Y-92105241D01*
X129844759Y-91905363D01*
X129609727Y-91748320D01*
X129348574Y-91640147D01*
X129071335Y-91585000D01*
X128788665Y-91585000D01*
X128511426Y-91640147D01*
X128250273Y-91748320D01*
X128015241Y-91905363D01*
X127815363Y-92105241D01*
X127660000Y-92337759D01*
X127504637Y-92105241D01*
X127304759Y-91905363D01*
X127072241Y-91750000D01*
X127304759Y-91594637D01*
X127504637Y-91394759D01*
X127661680Y-91159727D01*
X127769853Y-90898574D01*
X127825000Y-90621335D01*
X127825000Y-90338665D01*
X127769853Y-90061426D01*
X127661680Y-89800273D01*
X127504637Y-89565241D01*
X127304759Y-89365363D01*
X127072241Y-89210000D01*
X127304759Y-89054637D01*
X127504637Y-88854759D01*
X127661680Y-88619727D01*
X127769853Y-88358574D01*
X127825000Y-88081335D01*
X127825000Y-87798665D01*
X127769853Y-87521426D01*
X127661680Y-87260273D01*
X127504637Y-87025241D01*
X127304759Y-86825363D01*
X127072241Y-86670000D01*
X127304759Y-86514637D01*
X127504637Y-86314759D01*
X127661680Y-86079727D01*
X127769853Y-85818574D01*
X127825000Y-85541335D01*
X127825000Y-85258665D01*
X127803902Y-85152595D01*
X131073282Y-85152595D01*
X131117039Y-85471675D01*
X131222205Y-85776088D01*
X131315186Y-85950044D01*
X131522033Y-86024963D01*
X131470820Y-86040498D01*
X131360506Y-86099463D01*
X131263815Y-86178815D01*
X131184463Y-86275506D01*
X131125498Y-86385820D01*
X131089188Y-86505518D01*
X131076928Y-86630000D01*
X131076928Y-88630000D01*
X131089188Y-88754482D01*
X131125498Y-88874180D01*
X131184463Y-88984494D01*
X131263815Y-89081185D01*
X131360506Y-89160537D01*
X131470820Y-89219502D01*
X131590518Y-89255812D01*
X131715000Y-89268072D01*
X133715000Y-89268072D01*
X133839482Y-89255812D01*
X133959180Y-89219502D01*
X134069494Y-89160537D01*
X134166185Y-89081185D01*
X134245156Y-88984958D01*
X136412206Y-91152009D01*
X136436000Y-91181002D01*
X136464993Y-91204796D01*
X136464997Y-91204800D01*
X136535686Y-91262812D01*
X136551725Y-91275975D01*
X136683754Y-91346547D01*
X136827015Y-91390004D01*
X136938668Y-91401001D01*
X136938677Y-91401001D01*
X136976000Y-91404677D01*
X137013323Y-91401001D01*
X140969677Y-91401001D01*
X141006999Y-91404677D01*
X141044321Y-91401001D01*
X141044332Y-91401001D01*
X141155985Y-91390004D01*
X141299246Y-91346547D01*
X141431275Y-91275975D01*
X141547000Y-91181002D01*
X141570803Y-91151998D01*
X143005004Y-89717798D01*
X143034001Y-89694001D01*
X143060332Y-89661917D01*
X143128974Y-89578277D01*
X143199546Y-89446247D01*
X143202592Y-89436205D01*
X143243003Y-89302986D01*
X143250572Y-89226139D01*
X143297937Y-89178774D01*
X143411205Y-89009256D01*
X143489226Y-88820898D01*
X143529000Y-88620939D01*
X143529000Y-88544061D01*
X149079000Y-88544061D01*
X149079000Y-88747939D01*
X149118774Y-88947898D01*
X149196795Y-89136256D01*
X149310063Y-89305774D01*
X149454226Y-89449937D01*
X149623744Y-89563205D01*
X149812102Y-89641226D01*
X150012061Y-89681000D01*
X150215939Y-89681000D01*
X150415898Y-89641226D01*
X150604256Y-89563205D01*
X150773774Y-89449937D01*
X150817711Y-89406000D01*
X151658363Y-89406000D01*
X151695685Y-89409676D01*
X151733007Y-89406000D01*
X151733018Y-89406000D01*
X151844671Y-89395003D01*
X151987932Y-89351546D01*
X152119961Y-89280974D01*
X152235686Y-89186001D01*
X152259489Y-89156997D01*
X157471487Y-83945000D01*
X161729289Y-83945000D01*
X161773226Y-83988937D01*
X161942744Y-84102205D01*
X162131102Y-84180226D01*
X162331061Y-84220000D01*
X162534939Y-84220000D01*
X162734898Y-84180226D01*
X162923256Y-84102205D01*
X163092774Y-83988937D01*
X163236937Y-83844774D01*
X163350205Y-83675256D01*
X163428226Y-83486898D01*
X163468000Y-83286939D01*
X163468000Y-83083061D01*
X163428226Y-82883102D01*
X163350205Y-82694744D01*
X163236937Y-82525226D01*
X163092774Y-82381063D01*
X162923256Y-82267795D01*
X162734898Y-82189774D01*
X162534939Y-82150000D01*
X162331061Y-82150000D01*
X162131102Y-82189774D01*
X161942744Y-82267795D01*
X161773226Y-82381063D01*
X161729289Y-82425000D01*
X157194007Y-82425000D01*
X157156684Y-82421324D01*
X157119361Y-82425000D01*
X157119352Y-82425000D01*
X157007699Y-82435997D01*
X156864438Y-82479454D01*
X156732409Y-82550026D01*
X156616684Y-82644999D01*
X156592886Y-82673997D01*
X151380884Y-87886000D01*
X150817711Y-87886000D01*
X150773774Y-87842063D01*
X150604256Y-87728795D01*
X150415898Y-87650774D01*
X150215939Y-87611000D01*
X150012061Y-87611000D01*
X149812102Y-87650774D01*
X149623744Y-87728795D01*
X149454226Y-87842063D01*
X149310063Y-87986226D01*
X149196795Y-88155744D01*
X149118774Y-88344102D01*
X149079000Y-88544061D01*
X143529000Y-88544061D01*
X143529000Y-88417061D01*
X143489226Y-88217102D01*
X143411205Y-88028744D01*
X143297937Y-87859226D01*
X143153774Y-87715063D01*
X142984256Y-87601795D01*
X142795898Y-87523774D01*
X142595939Y-87484000D01*
X142392061Y-87484000D01*
X142192102Y-87523774D01*
X142003744Y-87601795D01*
X141834226Y-87715063D01*
X141690063Y-87859226D01*
X141576795Y-88028744D01*
X141498774Y-88217102D01*
X141459000Y-88417061D01*
X141459000Y-88620939D01*
X141498774Y-88820898D01*
X141573031Y-89000168D01*
X140692198Y-89881001D01*
X137290804Y-89881001D01*
X134528804Y-87119003D01*
X134505001Y-87089999D01*
X134389276Y-86995026D01*
X134353072Y-86975674D01*
X134353072Y-86630000D01*
X134340812Y-86505518D01*
X134304502Y-86385820D01*
X134245537Y-86275506D01*
X134166185Y-86178815D01*
X134069494Y-86099463D01*
X133959180Y-86040498D01*
X133907967Y-86024963D01*
X134114814Y-85950044D01*
X134255704Y-85660429D01*
X134337384Y-85348892D01*
X134356718Y-85027405D01*
X134312961Y-84708325D01*
X134207795Y-84403912D01*
X134114814Y-84229956D01*
X133850413Y-84134192D01*
X132894605Y-85090000D01*
X132908748Y-85104143D01*
X132729143Y-85283748D01*
X132715000Y-85269605D01*
X132700858Y-85283748D01*
X132521253Y-85104143D01*
X132535395Y-85090000D01*
X131579587Y-84134192D01*
X131315186Y-84229956D01*
X131174296Y-84519571D01*
X131092616Y-84831108D01*
X131073282Y-85152595D01*
X127803902Y-85152595D01*
X127769853Y-84981426D01*
X127661680Y-84720273D01*
X127504637Y-84485241D01*
X127304759Y-84285363D01*
X127072241Y-84130000D01*
X127304759Y-83974637D01*
X127324809Y-83954587D01*
X131759192Y-83954587D01*
X132715000Y-84910395D01*
X133670808Y-83954587D01*
X133575044Y-83690186D01*
X133285429Y-83549296D01*
X132973892Y-83467616D01*
X132652405Y-83448282D01*
X132333325Y-83492039D01*
X132028912Y-83597205D01*
X131854956Y-83690186D01*
X131759192Y-83954587D01*
X127324809Y-83954587D01*
X127504637Y-83774759D01*
X127661680Y-83539727D01*
X127769853Y-83278574D01*
X127825000Y-83001335D01*
X127825000Y-82718665D01*
X127769853Y-82441426D01*
X127661680Y-82180273D01*
X127504637Y-81945241D01*
X127304759Y-81745363D01*
X127072241Y-81590000D01*
X127304759Y-81434637D01*
X127504637Y-81234759D01*
X127661680Y-80999727D01*
X127769853Y-80738574D01*
X127789726Y-80638665D01*
X154165000Y-80638665D01*
X154165000Y-80921335D01*
X154220147Y-81198574D01*
X154328320Y-81459727D01*
X154485363Y-81694759D01*
X154685241Y-81894637D01*
X154920273Y-82051680D01*
X155181426Y-82159853D01*
X155458665Y-82215000D01*
X155741335Y-82215000D01*
X156018574Y-82159853D01*
X156279727Y-82051680D01*
X156514759Y-81894637D01*
X156714637Y-81694759D01*
X156870000Y-81462241D01*
X157025363Y-81694759D01*
X157225241Y-81894637D01*
X157460273Y-82051680D01*
X157721426Y-82159853D01*
X157998665Y-82215000D01*
X158281335Y-82215000D01*
X158558574Y-82159853D01*
X158819727Y-82051680D01*
X159054759Y-81894637D01*
X159254637Y-81694759D01*
X159410000Y-81462241D01*
X159565363Y-81694759D01*
X159765241Y-81894637D01*
X160000273Y-82051680D01*
X160261426Y-82159853D01*
X160538665Y-82215000D01*
X160821335Y-82215000D01*
X161098574Y-82159853D01*
X161359727Y-82051680D01*
X161594759Y-81894637D01*
X161794637Y-81694759D01*
X161950000Y-81462241D01*
X162105363Y-81694759D01*
X162305241Y-81894637D01*
X162540273Y-82051680D01*
X162801426Y-82159853D01*
X163078665Y-82215000D01*
X163361335Y-82215000D01*
X163638574Y-82159853D01*
X163899727Y-82051680D01*
X164134759Y-81894637D01*
X164334637Y-81694759D01*
X164490000Y-81462241D01*
X164645363Y-81694759D01*
X164845241Y-81894637D01*
X165080273Y-82051680D01*
X165341426Y-82159853D01*
X165618665Y-82215000D01*
X165901335Y-82215000D01*
X166178574Y-82159853D01*
X166439727Y-82051680D01*
X166674759Y-81894637D01*
X166874637Y-81694759D01*
X167031680Y-81459727D01*
X167139853Y-81198574D01*
X167195000Y-80921335D01*
X167195000Y-80638665D01*
X167139853Y-80361426D01*
X167031680Y-80100273D01*
X166874637Y-79865241D01*
X166674759Y-79665363D01*
X166439727Y-79508320D01*
X166178574Y-79400147D01*
X165901335Y-79345000D01*
X165618665Y-79345000D01*
X165341426Y-79400147D01*
X165080273Y-79508320D01*
X164845241Y-79665363D01*
X164645363Y-79865241D01*
X164490000Y-80097759D01*
X164334637Y-79865241D01*
X164134759Y-79665363D01*
X163899727Y-79508320D01*
X163638574Y-79400147D01*
X163361335Y-79345000D01*
X163078665Y-79345000D01*
X162801426Y-79400147D01*
X162540273Y-79508320D01*
X162305241Y-79665363D01*
X162105363Y-79865241D01*
X161950000Y-80097759D01*
X161794637Y-79865241D01*
X161594759Y-79665363D01*
X161359727Y-79508320D01*
X161098574Y-79400147D01*
X160821335Y-79345000D01*
X160538665Y-79345000D01*
X160261426Y-79400147D01*
X160000273Y-79508320D01*
X159765241Y-79665363D01*
X159565363Y-79865241D01*
X159410000Y-80097759D01*
X159254637Y-79865241D01*
X159054759Y-79665363D01*
X158819727Y-79508320D01*
X158558574Y-79400147D01*
X158281335Y-79345000D01*
X157998665Y-79345000D01*
X157721426Y-79400147D01*
X157460273Y-79508320D01*
X157225241Y-79665363D01*
X157025363Y-79865241D01*
X156870000Y-80097759D01*
X156714637Y-79865241D01*
X156514759Y-79665363D01*
X156279727Y-79508320D01*
X156018574Y-79400147D01*
X155741335Y-79345000D01*
X155458665Y-79345000D01*
X155181426Y-79400147D01*
X154920273Y-79508320D01*
X154685241Y-79665363D01*
X154485363Y-79865241D01*
X154328320Y-80100273D01*
X154220147Y-80361426D01*
X154165000Y-80638665D01*
X127789726Y-80638665D01*
X127825000Y-80461335D01*
X127825000Y-80178665D01*
X127769853Y-79901426D01*
X127661680Y-79640273D01*
X127504637Y-79405241D01*
X127304759Y-79205363D01*
X127072241Y-79050000D01*
X127304759Y-78894637D01*
X127504637Y-78694759D01*
X127660000Y-78462241D01*
X127815363Y-78694759D01*
X128015241Y-78894637D01*
X128250273Y-79051680D01*
X128511426Y-79159853D01*
X128788665Y-79215000D01*
X129071335Y-79215000D01*
X129348574Y-79159853D01*
X129609727Y-79051680D01*
X129844759Y-78894637D01*
X130044637Y-78694759D01*
X130200000Y-78462241D01*
X130355363Y-78694759D01*
X130555241Y-78894637D01*
X130790273Y-79051680D01*
X131051426Y-79159853D01*
X131328665Y-79215000D01*
X131611335Y-79215000D01*
X131888574Y-79159853D01*
X132149727Y-79051680D01*
X132384759Y-78894637D01*
X132584637Y-78694759D01*
X132740000Y-78462241D01*
X132895363Y-78694759D01*
X133095241Y-78894637D01*
X133330273Y-79051680D01*
X133591426Y-79159853D01*
X133868665Y-79215000D01*
X134151335Y-79215000D01*
X134428574Y-79159853D01*
X134689727Y-79051680D01*
X134924759Y-78894637D01*
X135124637Y-78694759D01*
X135280000Y-78462241D01*
X135435363Y-78694759D01*
X135635241Y-78894637D01*
X135870273Y-79051680D01*
X136131426Y-79159853D01*
X136408665Y-79215000D01*
X136691335Y-79215000D01*
X136968574Y-79159853D01*
X137229727Y-79051680D01*
X137464759Y-78894637D01*
X137664637Y-78694759D01*
X137820000Y-78462241D01*
X137975363Y-78694759D01*
X138175241Y-78894637D01*
X138410273Y-79051680D01*
X138671426Y-79159853D01*
X138948665Y-79215000D01*
X139231335Y-79215000D01*
X139508574Y-79159853D01*
X139769727Y-79051680D01*
X140004759Y-78894637D01*
X140204637Y-78694759D01*
X140360000Y-78462241D01*
X140515363Y-78694759D01*
X140715241Y-78894637D01*
X140950273Y-79051680D01*
X141211426Y-79159853D01*
X141488665Y-79215000D01*
X141771335Y-79215000D01*
X142048574Y-79159853D01*
X142309727Y-79051680D01*
X142544759Y-78894637D01*
X142744637Y-78694759D01*
X142900000Y-78462241D01*
X143055363Y-78694759D01*
X143255241Y-78894637D01*
X143490273Y-79051680D01*
X143751426Y-79159853D01*
X144028665Y-79215000D01*
X144311335Y-79215000D01*
X144588574Y-79159853D01*
X144849727Y-79051680D01*
X145084759Y-78894637D01*
X145284637Y-78694759D01*
X145440000Y-78462241D01*
X145595363Y-78694759D01*
X145795241Y-78894637D01*
X146030273Y-79051680D01*
X146291426Y-79159853D01*
X146568665Y-79215000D01*
X146851335Y-79215000D01*
X147128574Y-79159853D01*
X147389727Y-79051680D01*
X147624759Y-78894637D01*
X147824637Y-78694759D01*
X147980000Y-78462241D01*
X148135363Y-78694759D01*
X148335241Y-78894637D01*
X148570273Y-79051680D01*
X148831426Y-79159853D01*
X149108665Y-79215000D01*
X149391335Y-79215000D01*
X149668574Y-79159853D01*
X149929727Y-79051680D01*
X150164759Y-78894637D01*
X150364637Y-78694759D01*
X150520000Y-78462241D01*
X150675363Y-78694759D01*
X150875241Y-78894637D01*
X151110273Y-79051680D01*
X151371426Y-79159853D01*
X151648665Y-79215000D01*
X151931335Y-79215000D01*
X152208574Y-79159853D01*
X152469727Y-79051680D01*
X152704759Y-78894637D01*
X152904637Y-78694759D01*
X153060000Y-78462241D01*
X153215363Y-78694759D01*
X153415241Y-78894637D01*
X153650273Y-79051680D01*
X153911426Y-79159853D01*
X154188665Y-79215000D01*
X154471335Y-79215000D01*
X154748574Y-79159853D01*
X155009727Y-79051680D01*
X155244759Y-78894637D01*
X155444637Y-78694759D01*
X155600000Y-78462241D01*
X155755363Y-78694759D01*
X155955241Y-78894637D01*
X156190273Y-79051680D01*
X156451426Y-79159853D01*
X156728665Y-79215000D01*
X157011335Y-79215000D01*
X157288574Y-79159853D01*
X157549727Y-79051680D01*
X157784759Y-78894637D01*
X157984637Y-78694759D01*
X158140000Y-78462241D01*
X158295363Y-78694759D01*
X158495241Y-78894637D01*
X158730273Y-79051680D01*
X158991426Y-79159853D01*
X159268665Y-79215000D01*
X159551335Y-79215000D01*
X159828574Y-79159853D01*
X160089727Y-79051680D01*
X160324759Y-78894637D01*
X160524637Y-78694759D01*
X160680000Y-78462241D01*
X160835363Y-78694759D01*
X161035241Y-78894637D01*
X161270273Y-79051680D01*
X161531426Y-79159853D01*
X161808665Y-79215000D01*
X162091335Y-79215000D01*
X162368574Y-79159853D01*
X162629727Y-79051680D01*
X162864759Y-78894637D01*
X163064637Y-78694759D01*
X163220000Y-78462241D01*
X163375363Y-78694759D01*
X163575241Y-78894637D01*
X163810273Y-79051680D01*
X164071426Y-79159853D01*
X164348665Y-79215000D01*
X164631335Y-79215000D01*
X164908574Y-79159853D01*
X165169727Y-79051680D01*
X165404759Y-78894637D01*
X165604637Y-78694759D01*
X165760000Y-78462241D01*
X165915363Y-78694759D01*
X166115241Y-78894637D01*
X166350273Y-79051680D01*
X166611426Y-79159853D01*
X166888665Y-79215000D01*
X167171335Y-79215000D01*
X167448574Y-79159853D01*
X167709727Y-79051680D01*
X167944759Y-78894637D01*
X168144637Y-78694759D01*
X168300000Y-78462241D01*
X168455363Y-78694759D01*
G37*
G04 #@! TD.AperFunction*
M02*
