M48
; DRILL file {KiCad (5.1.8-0-10_14)} date Sunday, November 22, 2020 at 12:24:37 PM
; FORMAT={-:-/ absolute / inch / decimal}
; #@! TF.CreationDate,2020-11-22T12:24:37+11:00
; #@! TF.GenerationSoftware,Kicad,Pcbnew,(5.1.8-0-10_14)
; #@! TF.FileFunction,Plated,1,2,PTH
FMAT,2
INCH
T1C0.0157
T2C0.0394
T3C0.0400
T4C0.0402
T5C0.0433
T6C0.0484
T7C0.0492
%
G90
G05
T1
X4.5157Y-3.1732
X4.5315Y-3.5315
X4.62Y-4.28
X4.74Y-4.03
X4.755Y-3.91
X4.835Y-4.28
X4.8543Y-3.1811
X4.8622Y-3.5512
X5.09Y-4.085
X5.14Y-3.875
X5.205Y-3.19
X5.305Y-3.81
X5.315Y-4.08
X5.5118Y-3.5118
X5.55Y-3.225
X5.58Y-4.085
X5.61Y-3.485
X5.6732Y-3.5748
X5.72Y-3.515
X5.745Y-3.195
X5.835Y-3.795
X5.91Y-3.49
X5.925Y-3.44
X5.975Y-3.16
X6.005Y-3.575
X6.19Y-4.17
X6.215Y-3.55
X6.32Y-3.74
X6.37Y-3.4646
X6.395Y-3.275
X6.415Y-3.375
X6.57Y-3.46
X6.715Y-3.18
X6.755Y-3.47
T2
X5.225Y-3.35
X5.225Y-3.45
T3
X5.88Y-4.22
X5.98Y-4.22
X6.08Y-4.22
T4
X4.575Y-3.995
X4.575Y-4.095
T5
X4.476Y-3.0622
X4.476Y-3.6622
X4.576Y-3.0622
X4.576Y-3.6622
X4.676Y-3.0622
X4.676Y-3.6622
X4.776Y-3.0622
X4.776Y-3.6622
X4.876Y-3.0622
X4.876Y-3.6622
X4.976Y-3.0622
X4.976Y-3.1622
X4.976Y-3.2622
X4.976Y-3.3622
X4.976Y-3.4622
X4.976Y-3.5622
X4.976Y-3.6622
X5.076Y-3.0622
X5.076Y-3.6622
X5.176Y-3.0622
X5.176Y-3.6622
X5.276Y-3.0622
X5.276Y-3.6622
X5.376Y-3.0622
X5.376Y-3.6622
X5.476Y-3.0622
X5.476Y-3.6622
X5.576Y-3.0622
X5.576Y-3.6622
X5.676Y-3.0622
X5.676Y-3.6622
X5.776Y-3.0622
X5.776Y-3.6622
X5.876Y-3.0622
X5.876Y-3.6622
X5.976Y-3.0622
X5.976Y-3.6622
X6.076Y-3.0622
X6.076Y-3.6622
X6.126Y-3.1803
X6.176Y-3.0622
X6.176Y-3.6622
X6.226Y-3.1803
X6.276Y-3.0622
X6.276Y-3.5622
X6.276Y-3.6622
X6.326Y-3.1803
X6.376Y-3.0622
X6.376Y-3.5622
X6.376Y-3.6622
X6.426Y-3.1803
X6.476Y-3.0622
X6.476Y-3.5622
X6.476Y-3.6622
X6.526Y-3.1803
X6.576Y-3.0622
X6.576Y-3.6622
X6.676Y-3.0622
X6.676Y-3.5622
X6.676Y-3.6622
X6.776Y-3.0622
X6.776Y-3.6622
T6
X5.875Y-4.072
X6.075Y-4.072
T7
X5.975Y-4.072
T2
G00X6.2819Y-4.1258
M15
G01X6.2819Y-4.2242
M16
G05
G00X6.4492Y-3.99
M15
G01X6.3508Y-3.99
M16
G05
G00X6.5181Y-4.1258
M15
G01X6.5181Y-4.2242
M16
G05
T0
M30
