G04 #@! TF.GenerationSoftware,KiCad,Pcbnew,(5.1.8-0-10_14)*
G04 #@! TF.CreationDate,2020-11-22T12:20:28+11:00*
G04 #@! TF.ProjectId,Phenobottle v18,5068656e-6f62-46f7-9474-6c6520763138,rev?*
G04 #@! TF.SameCoordinates,Original*
G04 #@! TF.FileFunction,Copper,L1,Top*
G04 #@! TF.FilePolarity,Positive*
%FSLAX46Y46*%
G04 Gerber Fmt 4.6, Leading zero omitted, Abs format (unit mm)*
G04 Created by KiCad (PCBNEW (5.1.8-0-10_14)) date 2020-11-22 12:20:28*
%MOMM*%
%LPD*%
G01*
G04 APERTURE LIST*
G04 #@! TA.AperFunction,ComponentPad*
%ADD10C,1.600000*%
G04 #@! TD*
G04 #@! TA.AperFunction,ComponentPad*
%ADD11R,1.600000X1.600000*%
G04 #@! TD*
G04 #@! TA.AperFunction,ComponentPad*
%ADD12O,1.524000X3.048000*%
G04 #@! TD*
G04 #@! TA.AperFunction,SMDPad,CuDef*
%ADD13R,0.558800X1.270000*%
G04 #@! TD*
G04 #@! TA.AperFunction,ComponentPad*
%ADD14C,1.850000*%
G04 #@! TD*
G04 #@! TA.AperFunction,ComponentPad*
%ADD15C,1.880000*%
G04 #@! TD*
G04 #@! TA.AperFunction,ComponentPad*
%ADD16R,1.850000X1.850000*%
G04 #@! TD*
G04 #@! TA.AperFunction,ComponentPad*
%ADD17C,2.000000*%
G04 #@! TD*
G04 #@! TA.AperFunction,ComponentPad*
%ADD18R,2.000000X2.000000*%
G04 #@! TD*
G04 #@! TA.AperFunction,ComponentPad*
%ADD19C,2.020000*%
G04 #@! TD*
G04 #@! TA.AperFunction,ComponentPad*
%ADD20R,2.000000X4.500000*%
G04 #@! TD*
G04 #@! TA.AperFunction,ComponentPad*
%ADD21R,4.500000X2.000000*%
G04 #@! TD*
G04 #@! TA.AperFunction,ViaPad*
%ADD22C,0.800000*%
G04 #@! TD*
G04 #@! TA.AperFunction,Conductor*
%ADD23C,0.250000*%
G04 #@! TD*
G04 #@! TA.AperFunction,Conductor*
%ADD24C,0.800000*%
G04 #@! TD*
G04 #@! TA.AperFunction,Conductor*
%ADD25C,1.500000*%
G04 #@! TD*
G04 #@! TA.AperFunction,Conductor*
%ADD26C,0.254000*%
G04 #@! TD*
G04 #@! TA.AperFunction,Conductor*
%ADD27C,0.100000*%
G04 #@! TD*
G04 APERTURE END LIST*
D10*
X131470000Y-77780000D03*
X128930000Y-77780000D03*
X126390000Y-77780000D03*
X123850000Y-77780000D03*
X134010000Y-77780000D03*
X136550000Y-77780000D03*
X139090000Y-77780000D03*
X121310000Y-77780000D03*
X118770000Y-77780000D03*
X116230000Y-77780000D03*
X113690000Y-77780000D03*
X126390000Y-80320000D03*
X126390000Y-82860000D03*
X126390000Y-85400000D03*
X126390000Y-87940000D03*
X126390000Y-90480000D03*
X113690000Y-93020000D03*
X116230000Y-93020000D03*
X118770000Y-93020000D03*
X121310000Y-93020000D03*
X123850000Y-93020000D03*
X126390000Y-93020000D03*
X128930000Y-93020000D03*
X131470000Y-93020000D03*
X141630000Y-77780000D03*
X144170000Y-77780000D03*
X146710000Y-77780000D03*
X149250000Y-77780000D03*
X151790000Y-77780000D03*
X154330000Y-77780000D03*
X156870000Y-77780000D03*
X159410000Y-77780000D03*
X161950000Y-77780000D03*
X164490000Y-77780000D03*
X167030000Y-77780000D03*
X169570000Y-77780000D03*
D11*
X172110000Y-77780000D03*
D10*
X134010000Y-93020000D03*
X136550000Y-93020000D03*
X139090000Y-93020000D03*
X141630000Y-93020000D03*
X144170000Y-93020000D03*
X146710000Y-93020000D03*
X149250000Y-93020000D03*
X151790000Y-93020000D03*
X154330000Y-93020000D03*
X156870000Y-93020000D03*
X159410000Y-93020000D03*
X161950000Y-93020000D03*
X164490000Y-93020000D03*
X167030000Y-93020000D03*
X169570000Y-93020000D03*
X172110000Y-93020000D03*
X169570000Y-90480000D03*
X164490000Y-90480000D03*
X161950000Y-90480000D03*
X159410000Y-90480000D03*
X165760000Y-80780000D03*
X163220000Y-80780000D03*
X160680000Y-80780000D03*
X158140000Y-80780000D03*
X155600000Y-80780000D03*
D12*
X149352000Y-107188000D03*
X151892000Y-107188000D03*
X154432000Y-107188000D03*
D13*
X144449800Y-87045800D03*
X142570200Y-87045800D03*
X142570200Y-84455000D03*
X143510000Y-84455000D03*
X144449800Y-84455000D03*
G04 #@! TA.AperFunction,SMDPad,CuDef*
G36*
G01*
X157881500Y-98881250D02*
X157881500Y-97968750D01*
G75*
G02*
X158125250Y-97725000I243750J0D01*
G01*
X158612750Y-97725000D01*
G75*
G02*
X158856500Y-97968750I0J-243750D01*
G01*
X158856500Y-98881250D01*
G75*
G02*
X158612750Y-99125000I-243750J0D01*
G01*
X158125250Y-99125000D01*
G75*
G02*
X157881500Y-98881250I0J243750D01*
G01*
G37*
G04 #@! TD.AperFunction*
G04 #@! TA.AperFunction,SMDPad,CuDef*
G36*
G01*
X156006500Y-98881250D02*
X156006500Y-97968750D01*
G75*
G02*
X156250250Y-97725000I243750J0D01*
G01*
X156737750Y-97725000D01*
G75*
G02*
X156981500Y-97968750I0J-243750D01*
G01*
X156981500Y-98881250D01*
G75*
G02*
X156737750Y-99125000I-243750J0D01*
G01*
X156250250Y-99125000D01*
G75*
G02*
X156006500Y-98881250I0J243750D01*
G01*
G37*
G04 #@! TD.AperFunction*
G04 #@! TA.AperFunction,SMDPad,CuDef*
G36*
G01*
X140482500Y-86181250D02*
X140482500Y-85268750D01*
G75*
G02*
X140726250Y-85025000I243750J0D01*
G01*
X141213750Y-85025000D01*
G75*
G02*
X141457500Y-85268750I0J-243750D01*
G01*
X141457500Y-86181250D01*
G75*
G02*
X141213750Y-86425000I-243750J0D01*
G01*
X140726250Y-86425000D01*
G75*
G02*
X140482500Y-86181250I0J243750D01*
G01*
G37*
G04 #@! TD.AperFunction*
G04 #@! TA.AperFunction,SMDPad,CuDef*
G36*
G01*
X138607500Y-86181250D02*
X138607500Y-85268750D01*
G75*
G02*
X138851250Y-85025000I243750J0D01*
G01*
X139338750Y-85025000D01*
G75*
G02*
X139582500Y-85268750I0J-243750D01*
G01*
X139582500Y-86181250D01*
G75*
G02*
X139338750Y-86425000I-243750J0D01*
G01*
X138851250Y-86425000D01*
G75*
G02*
X138607500Y-86181250I0J243750D01*
G01*
G37*
G04 #@! TD.AperFunction*
G04 #@! TA.AperFunction,SMDPad,CuDef*
G36*
G01*
X140482500Y-84276250D02*
X140482500Y-83363750D01*
G75*
G02*
X140726250Y-83120000I243750J0D01*
G01*
X141213750Y-83120000D01*
G75*
G02*
X141457500Y-83363750I0J-243750D01*
G01*
X141457500Y-84276250D01*
G75*
G02*
X141213750Y-84520000I-243750J0D01*
G01*
X140726250Y-84520000D01*
G75*
G02*
X140482500Y-84276250I0J243750D01*
G01*
G37*
G04 #@! TD.AperFunction*
G04 #@! TA.AperFunction,SMDPad,CuDef*
G36*
G01*
X138607500Y-84276250D02*
X138607500Y-83363750D01*
G75*
G02*
X138851250Y-83120000I243750J0D01*
G01*
X139338750Y-83120000D01*
G75*
G02*
X139582500Y-83363750I0J-243750D01*
G01*
X139582500Y-84276250D01*
G75*
G02*
X139338750Y-84520000I-243750J0D01*
G01*
X138851250Y-84520000D01*
G75*
G02*
X138607500Y-84276250I0J243750D01*
G01*
G37*
G04 #@! TD.AperFunction*
G04 #@! TA.AperFunction,SMDPad,CuDef*
G36*
G01*
X151277500Y-86181250D02*
X151277500Y-85268750D01*
G75*
G02*
X151521250Y-85025000I243750J0D01*
G01*
X152008750Y-85025000D01*
G75*
G02*
X152252500Y-85268750I0J-243750D01*
G01*
X152252500Y-86181250D01*
G75*
G02*
X152008750Y-86425000I-243750J0D01*
G01*
X151521250Y-86425000D01*
G75*
G02*
X151277500Y-86181250I0J243750D01*
G01*
G37*
G04 #@! TD.AperFunction*
G04 #@! TA.AperFunction,SMDPad,CuDef*
G36*
G01*
X149402500Y-86181250D02*
X149402500Y-85268750D01*
G75*
G02*
X149646250Y-85025000I243750J0D01*
G01*
X150133750Y-85025000D01*
G75*
G02*
X150377500Y-85268750I0J-243750D01*
G01*
X150377500Y-86181250D01*
G75*
G02*
X150133750Y-86425000I-243750J0D01*
G01*
X149646250Y-86425000D01*
G75*
G02*
X149402500Y-86181250I0J243750D01*
G01*
G37*
G04 #@! TD.AperFunction*
G04 #@! TA.AperFunction,SMDPad,CuDef*
G36*
G01*
X147770000Y-86181250D02*
X147770000Y-85268750D01*
G75*
G02*
X148013750Y-85025000I243750J0D01*
G01*
X148501250Y-85025000D01*
G75*
G02*
X148745000Y-85268750I0J-243750D01*
G01*
X148745000Y-86181250D01*
G75*
G02*
X148501250Y-86425000I-243750J0D01*
G01*
X148013750Y-86425000D01*
G75*
G02*
X147770000Y-86181250I0J243750D01*
G01*
G37*
G04 #@! TD.AperFunction*
G04 #@! TA.AperFunction,SMDPad,CuDef*
G36*
G01*
X145895000Y-86181250D02*
X145895000Y-85268750D01*
G75*
G02*
X146138750Y-85025000I243750J0D01*
G01*
X146626250Y-85025000D01*
G75*
G02*
X146870000Y-85268750I0J-243750D01*
G01*
X146870000Y-86181250D01*
G75*
G02*
X146626250Y-86425000I-243750J0D01*
G01*
X146138750Y-86425000D01*
G75*
G02*
X145895000Y-86181250I0J243750D01*
G01*
G37*
G04 #@! TD.AperFunction*
D14*
X149225000Y-103429000D03*
D15*
X151765000Y-103429000D03*
D16*
X154305000Y-103429000D03*
D17*
X132715000Y-85090000D03*
D18*
X132715000Y-87630000D03*
D19*
X116205000Y-101473000D03*
X116205000Y-104013000D03*
D20*
X165560000Y-106045000D03*
X159560000Y-106045000D03*
D21*
X162560000Y-101345000D03*
G04 #@! TA.AperFunction,SMDPad,CuDef*
G36*
G01*
X146760250Y-102674000D02*
X145847750Y-102674000D01*
G75*
G02*
X145604000Y-102430250I0J243750D01*
G01*
X145604000Y-101942750D01*
G75*
G02*
X145847750Y-101699000I243750J0D01*
G01*
X146760250Y-101699000D01*
G75*
G02*
X147004000Y-101942750I0J-243750D01*
G01*
X147004000Y-102430250D01*
G75*
G02*
X146760250Y-102674000I-243750J0D01*
G01*
G37*
G04 #@! TD.AperFunction*
G04 #@! TA.AperFunction,SMDPad,CuDef*
G36*
G01*
X146760250Y-104549000D02*
X145847750Y-104549000D01*
G75*
G02*
X145604000Y-104305250I0J243750D01*
G01*
X145604000Y-103817750D01*
G75*
G02*
X145847750Y-103574000I243750J0D01*
G01*
X146760250Y-103574000D01*
G75*
G02*
X147004000Y-103817750I0J-243750D01*
G01*
X147004000Y-104305250D01*
G75*
G02*
X146760250Y-104549000I-243750J0D01*
G01*
G37*
G04 #@! TD.AperFunction*
G04 #@! TA.AperFunction,SMDPad,CuDef*
G36*
G01*
X157555250Y-102752500D02*
X156642750Y-102752500D01*
G75*
G02*
X156399000Y-102508750I0J243750D01*
G01*
X156399000Y-102021250D01*
G75*
G02*
X156642750Y-101777500I243750J0D01*
G01*
X157555250Y-101777500D01*
G75*
G02*
X157799000Y-102021250I0J-243750D01*
G01*
X157799000Y-102508750D01*
G75*
G02*
X157555250Y-102752500I-243750J0D01*
G01*
G37*
G04 #@! TD.AperFunction*
G04 #@! TA.AperFunction,SMDPad,CuDef*
G36*
G01*
X157555250Y-104627500D02*
X156642750Y-104627500D01*
G75*
G02*
X156399000Y-104383750I0J243750D01*
G01*
X156399000Y-103896250D01*
G75*
G02*
X156642750Y-103652500I243750J0D01*
G01*
X157555250Y-103652500D01*
G75*
G02*
X157799000Y-103896250I0J-243750D01*
G01*
X157799000Y-104383750D01*
G75*
G02*
X157555250Y-104627500I-243750J0D01*
G01*
G37*
G04 #@! TD.AperFunction*
G04 #@! TA.AperFunction,SMDPad,CuDef*
G36*
G01*
X124121000Y-102243000D02*
X123021000Y-102243000D01*
G75*
G02*
X122771000Y-101993000I0J250000D01*
G01*
X122771000Y-99893000D01*
G75*
G02*
X123021000Y-99643000I250000J0D01*
G01*
X124121000Y-99643000D01*
G75*
G02*
X124371000Y-99893000I0J-250000D01*
G01*
X124371000Y-101993000D01*
G75*
G02*
X124121000Y-102243000I-250000J0D01*
G01*
G37*
G04 #@! TD.AperFunction*
G04 #@! TA.AperFunction,SMDPad,CuDef*
G36*
G01*
X124121000Y-105843000D02*
X123021000Y-105843000D01*
G75*
G02*
X122771000Y-105593000I0J250000D01*
G01*
X122771000Y-103493000D01*
G75*
G02*
X123021000Y-103243000I250000J0D01*
G01*
X124121000Y-103243000D01*
G75*
G02*
X124371000Y-103493000I0J-250000D01*
G01*
X124371000Y-105593000D01*
G75*
G02*
X124121000Y-105843000I-250000J0D01*
G01*
G37*
G04 #@! TD.AperFunction*
G04 #@! TA.AperFunction,SMDPad,CuDef*
G36*
G01*
X143960000Y-82371250D02*
X143960000Y-81458750D01*
G75*
G02*
X144203750Y-81215000I243750J0D01*
G01*
X144691250Y-81215000D01*
G75*
G02*
X144935000Y-81458750I0J-243750D01*
G01*
X144935000Y-82371250D01*
G75*
G02*
X144691250Y-82615000I-243750J0D01*
G01*
X144203750Y-82615000D01*
G75*
G02*
X143960000Y-82371250I0J243750D01*
G01*
G37*
G04 #@! TD.AperFunction*
G04 #@! TA.AperFunction,SMDPad,CuDef*
G36*
G01*
X142085000Y-82371250D02*
X142085000Y-81458750D01*
G75*
G02*
X142328750Y-81215000I243750J0D01*
G01*
X142816250Y-81215000D01*
G75*
G02*
X143060000Y-81458750I0J-243750D01*
G01*
X143060000Y-82371250D01*
G75*
G02*
X142816250Y-82615000I-243750J0D01*
G01*
X142328750Y-82615000D01*
G75*
G02*
X142085000Y-82371250I0J243750D01*
G01*
G37*
G04 #@! TD.AperFunction*
G04 #@! TA.AperFunction,SMDPad,CuDef*
G36*
G01*
X139582500Y-87173750D02*
X139582500Y-88086250D01*
G75*
G02*
X139338750Y-88330000I-243750J0D01*
G01*
X138851250Y-88330000D01*
G75*
G02*
X138607500Y-88086250I0J243750D01*
G01*
X138607500Y-87173750D01*
G75*
G02*
X138851250Y-86930000I243750J0D01*
G01*
X139338750Y-86930000D01*
G75*
G02*
X139582500Y-87173750I0J-243750D01*
G01*
G37*
G04 #@! TD.AperFunction*
G04 #@! TA.AperFunction,SMDPad,CuDef*
G36*
G01*
X141457500Y-87173750D02*
X141457500Y-88086250D01*
G75*
G02*
X141213750Y-88330000I-243750J0D01*
G01*
X140726250Y-88330000D01*
G75*
G02*
X140482500Y-88086250I0J243750D01*
G01*
X140482500Y-87173750D01*
G75*
G02*
X140726250Y-86930000I243750J0D01*
G01*
X141213750Y-86930000D01*
G75*
G02*
X141457500Y-87173750I0J-243750D01*
G01*
G37*
G04 #@! TD.AperFunction*
G04 #@! TA.AperFunction,SMDPad,CuDef*
G36*
G01*
X147770000Y-88340250D02*
X147770000Y-87427750D01*
G75*
G02*
X148013750Y-87184000I243750J0D01*
G01*
X148501250Y-87184000D01*
G75*
G02*
X148745000Y-87427750I0J-243750D01*
G01*
X148745000Y-88340250D01*
G75*
G02*
X148501250Y-88584000I-243750J0D01*
G01*
X148013750Y-88584000D01*
G75*
G02*
X147770000Y-88340250I0J243750D01*
G01*
G37*
G04 #@! TD.AperFunction*
G04 #@! TA.AperFunction,SMDPad,CuDef*
G36*
G01*
X145895000Y-88340250D02*
X145895000Y-87427750D01*
G75*
G02*
X146138750Y-87184000I243750J0D01*
G01*
X146626250Y-87184000D01*
G75*
G02*
X146870000Y-87427750I0J-243750D01*
G01*
X146870000Y-88340250D01*
G75*
G02*
X146626250Y-88584000I-243750J0D01*
G01*
X146138750Y-88584000D01*
G75*
G02*
X145895000Y-88340250I0J243750D01*
G01*
G37*
G04 #@! TD.AperFunction*
G04 #@! TA.AperFunction,SMDPad,CuDef*
G36*
G01*
X147770000Y-84276250D02*
X147770000Y-83363750D01*
G75*
G02*
X148013750Y-83120000I243750J0D01*
G01*
X148501250Y-83120000D01*
G75*
G02*
X148745000Y-83363750I0J-243750D01*
G01*
X148745000Y-84276250D01*
G75*
G02*
X148501250Y-84520000I-243750J0D01*
G01*
X148013750Y-84520000D01*
G75*
G02*
X147770000Y-84276250I0J243750D01*
G01*
G37*
G04 #@! TD.AperFunction*
G04 #@! TA.AperFunction,SMDPad,CuDef*
G36*
G01*
X145895000Y-84276250D02*
X145895000Y-83363750D01*
G75*
G02*
X146138750Y-83120000I243750J0D01*
G01*
X146626250Y-83120000D01*
G75*
G02*
X146870000Y-83363750I0J-243750D01*
G01*
X146870000Y-84276250D01*
G75*
G02*
X146626250Y-84520000I-243750J0D01*
G01*
X146138750Y-84520000D01*
G75*
G02*
X145895000Y-84276250I0J243750D01*
G01*
G37*
G04 #@! TD.AperFunction*
D22*
X123300000Y-80800000D03*
X123500000Y-90200000D03*
X114700000Y-80600000D03*
X115100000Y-89700000D03*
X132207000Y-81026000D03*
X157861000Y-90170000D03*
X140970000Y-81915000D03*
X145923000Y-81153000D03*
X145288000Y-89281000D03*
X152527000Y-90805000D03*
X162941000Y-85725000D03*
X161798000Y-88000000D03*
X171577000Y-88138000D03*
X150495000Y-87376000D03*
X170561000Y-80772000D03*
X151765000Y-80264000D03*
X144100000Y-90800000D03*
X140000000Y-89200000D03*
X166878000Y-87884000D03*
X150114000Y-88646000D03*
X162433000Y-83185000D03*
X142494000Y-88519000D03*
X134747000Y-96774000D03*
X160528000Y-94996000D03*
X141732000Y-103759000D03*
X135001000Y-103632000D03*
X129286000Y-103759000D03*
X120777000Y-99314000D03*
X130556000Y-98425000D03*
X148209000Y-96393000D03*
X117348000Y-108712000D03*
X122809000Y-108712000D03*
X120396000Y-102362000D03*
X157226000Y-105918000D03*
D23*
X145161000Y-81915000D02*
X145923000Y-81153000D01*
X144447500Y-81915000D02*
X145161000Y-81915000D01*
X143510000Y-82852500D02*
X143510000Y-84455000D01*
X144447500Y-81915000D02*
X143510000Y-82852500D01*
X141457500Y-85725000D02*
X140970000Y-85725000D01*
X141653510Y-85528990D02*
X141457500Y-85725000D01*
X143321010Y-85528990D02*
X141653510Y-85528990D01*
X143510000Y-85340000D02*
X143321010Y-85528990D01*
X143510000Y-84455000D02*
X143510000Y-85340000D01*
X145288000Y-88978500D02*
X146382500Y-87884000D01*
X145288000Y-89281000D02*
X145288000Y-88978500D01*
X166878000Y-87884000D02*
X166878000Y-85549500D01*
X166285000Y-84455000D02*
X165260000Y-84455000D01*
X166878000Y-85048000D02*
X166285000Y-84455000D01*
X166878000Y-85549500D02*
X166878000Y-85048000D01*
X163703000Y-84455000D02*
X165260000Y-84455000D01*
X162433000Y-83185000D02*
X163703000Y-84455000D01*
X143383000Y-90043000D02*
X144449800Y-88976200D01*
X144449800Y-88976200D02*
X144449800Y-87045800D01*
X138938000Y-90043000D02*
X143383000Y-90043000D01*
X137414000Y-88519000D02*
X138938000Y-90043000D01*
X137414000Y-85501000D02*
X137414000Y-88519000D01*
X139095000Y-83820000D02*
X137414000Y-85501000D01*
X146098500Y-90043000D02*
X148257500Y-87884000D01*
X143383000Y-90043000D02*
X146098500Y-90043000D01*
X149019500Y-88646000D02*
X148257500Y-87884000D01*
X150114000Y-88646000D02*
X149019500Y-88646000D01*
X147771973Y-83334473D02*
X148257500Y-83820000D01*
X147232490Y-82794990D02*
X147771973Y-83334473D01*
X145569990Y-83128160D02*
X145903160Y-82794990D01*
X145569990Y-83864210D02*
X145569990Y-83128160D01*
X145903160Y-82794990D02*
X147232490Y-82794990D01*
X144979200Y-84455000D02*
X145569990Y-83864210D01*
X144449800Y-84455000D02*
X144979200Y-84455000D01*
X149890000Y-85725000D02*
X148257500Y-85725000D01*
X148257500Y-85725000D02*
X148257500Y-83820000D01*
X146382500Y-83820000D02*
X146382500Y-85725000D01*
X145895000Y-85725000D02*
X146382500Y-85725000D01*
X142494000Y-87122000D02*
X142570200Y-87045800D01*
X142494000Y-88519000D02*
X142494000Y-87122000D01*
X145542000Y-85725000D02*
X146382500Y-85725000D01*
X145288000Y-85979000D02*
X145542000Y-85725000D01*
X142748000Y-85979000D02*
X145288000Y-85979000D01*
X142570200Y-86156800D02*
X142748000Y-85979000D01*
X142570200Y-87045800D02*
X142570200Y-86156800D01*
X139095000Y-87630000D02*
X139095000Y-85725000D01*
X140970000Y-83850000D02*
X140970000Y-83820000D01*
X139095000Y-85725000D02*
X140970000Y-83850000D01*
X141935200Y-83820000D02*
X142570200Y-84455000D01*
X140970000Y-83820000D02*
X141935200Y-83820000D01*
D24*
X132102000Y-100943000D02*
X123571000Y-100943000D01*
X133350000Y-99695000D02*
X132102000Y-100943000D01*
X149360360Y-99695000D02*
X133350000Y-99695000D01*
X151765000Y-102099640D02*
X149360360Y-99695000D01*
X151765000Y-103429000D02*
X151765000Y-102099640D01*
X116735000Y-100943000D02*
X116205000Y-101473000D01*
X123571000Y-100943000D02*
X116735000Y-100943000D01*
X123041000Y-104013000D02*
X123571000Y-104543000D01*
X116205000Y-104013000D02*
X123041000Y-104013000D01*
X123571000Y-104543000D02*
X125371000Y-104543000D01*
X128016000Y-107188000D02*
X149352000Y-107188000D01*
X125371000Y-104543000D02*
X128016000Y-107188000D01*
X146304000Y-104549000D02*
X146304000Y-104061500D01*
X146304000Y-105152000D02*
X146304000Y-104549000D01*
X148340000Y-107188000D02*
X146304000Y-105152000D01*
X149352000Y-107188000D02*
X148340000Y-107188000D01*
D25*
X136271000Y-93091000D02*
X136398000Y-92964000D01*
X136398000Y-95123000D02*
X134747000Y-96774000D01*
X136398000Y-92964000D02*
X136398000Y-95123000D01*
D24*
X154432000Y-106807000D02*
X154432000Y-107188000D01*
X157099000Y-104140000D02*
X154432000Y-106807000D01*
X158417000Y-107188000D02*
X159560000Y-106045000D01*
X154432000Y-107188000D02*
X158417000Y-107188000D01*
D23*
X154305000Y-100614000D02*
X156494000Y-98425000D01*
X154305000Y-103429000D02*
X154305000Y-100614000D01*
X151765000Y-92837000D02*
X151638000Y-92964000D01*
X151765000Y-85725000D02*
X151765000Y-92837000D01*
X157480000Y-96647000D02*
X157480000Y-94742000D01*
X157480000Y-94742000D02*
X159258000Y-92964000D01*
X158369000Y-98425000D02*
X157883473Y-97939473D01*
X157883473Y-97939473D02*
X157883473Y-97050473D01*
X157883473Y-97050473D02*
X157480000Y-96647000D01*
D26*
X166497000Y-100076000D02*
X166499440Y-100100776D01*
X166506667Y-100124601D01*
X166518403Y-100146557D01*
X166534197Y-100165803D01*
X166553443Y-100181597D01*
X166575399Y-100193333D01*
X166599224Y-100200560D01*
X166624000Y-100203000D01*
X173330001Y-100203000D01*
X173330001Y-110719000D01*
X112547000Y-110719000D01*
X112547000Y-94487349D01*
X126392261Y-94455000D01*
X126531335Y-94455000D01*
X126532988Y-94454671D01*
X128760844Y-94449466D01*
X128788665Y-94455000D01*
X129071335Y-94455000D01*
X129103177Y-94448666D01*
X131271355Y-94443600D01*
X131328665Y-94455000D01*
X131611335Y-94455000D01*
X131673367Y-94442661D01*
X133781867Y-94437735D01*
X133868665Y-94455000D01*
X134151335Y-94455000D01*
X134243556Y-94436656D01*
X136280721Y-94431896D01*
X136338184Y-94446300D01*
X136620512Y-94460217D01*
X136820161Y-94430636D01*
X138802890Y-94426003D01*
X138948665Y-94455000D01*
X139231335Y-94455000D01*
X139383935Y-94424646D01*
X141313401Y-94420137D01*
X141488665Y-94455000D01*
X141771335Y-94455000D01*
X141954125Y-94418640D01*
X143823913Y-94414272D01*
X144028665Y-94455000D01*
X144311335Y-94455000D01*
X144524314Y-94412635D01*
X146334424Y-94408406D01*
X146568665Y-94455000D01*
X146851335Y-94455000D01*
X147094504Y-94406630D01*
X148844936Y-94402540D01*
X149108665Y-94455000D01*
X149391335Y-94455000D01*
X149664693Y-94400625D01*
X151363706Y-94396655D01*
X151371426Y-94399853D01*
X151648665Y-94455000D01*
X151931335Y-94455000D01*
X152208574Y-94399853D01*
X152221130Y-94394652D01*
X153889459Y-94390754D01*
X153911426Y-94399853D01*
X154188665Y-94455000D01*
X154471335Y-94455000D01*
X154748574Y-94399853D01*
X154775539Y-94388684D01*
X156415212Y-94384853D01*
X156451426Y-94399853D01*
X156728665Y-94455000D01*
X156772863Y-94455000D01*
X156730998Y-94593015D01*
X156716324Y-94742000D01*
X156720001Y-94779332D01*
X156720000Y-96609677D01*
X156716324Y-96647000D01*
X156720000Y-96684322D01*
X156720000Y-96684332D01*
X156730997Y-96795985D01*
X156763000Y-96901487D01*
X156774454Y-96939246D01*
X156845026Y-97071276D01*
X156868435Y-97099799D01*
X156737750Y-97086928D01*
X156250250Y-97086928D01*
X156078215Y-97103872D01*
X155912791Y-97154053D01*
X155760336Y-97235542D01*
X155626708Y-97345208D01*
X155517042Y-97478836D01*
X155435553Y-97631291D01*
X155385372Y-97796715D01*
X155368428Y-97968750D01*
X155368428Y-98475770D01*
X153793998Y-100050201D01*
X153765000Y-100073999D01*
X153741202Y-100102997D01*
X153741201Y-100102998D01*
X153670026Y-100189724D01*
X153599454Y-100321754D01*
X153555998Y-100465015D01*
X153541324Y-100614000D01*
X153545001Y-100651332D01*
X153545001Y-101865928D01*
X153380000Y-101865928D01*
X153255518Y-101878188D01*
X153135820Y-101914498D01*
X153025506Y-101973463D01*
X152928815Y-102052815D01*
X152849463Y-102149506D01*
X152801892Y-102238505D01*
X152800000Y-102236613D01*
X152800000Y-102150475D01*
X152805007Y-102099640D01*
X152800000Y-102048802D01*
X152785024Y-101896745D01*
X152739615Y-101747055D01*
X152725841Y-101701646D01*
X152629734Y-101521842D01*
X152532803Y-101403732D01*
X152500396Y-101364244D01*
X152460908Y-101331837D01*
X150128167Y-98999097D01*
X150095756Y-98959604D01*
X149938157Y-98830266D01*
X149758353Y-98734159D01*
X149563255Y-98674976D01*
X149411198Y-98660000D01*
X149411188Y-98660000D01*
X149360360Y-98654994D01*
X149309532Y-98660000D01*
X133400835Y-98660000D01*
X133350000Y-98654993D01*
X133299165Y-98660000D01*
X133299162Y-98660000D01*
X133147105Y-98674976D01*
X133007761Y-98717246D01*
X132952006Y-98734159D01*
X132772202Y-98830266D01*
X132654092Y-98927197D01*
X132614604Y-98959604D01*
X132582197Y-98999092D01*
X131673290Y-99908000D01*
X125009072Y-99908000D01*
X125009072Y-99893000D01*
X124992008Y-99719746D01*
X124941472Y-99553150D01*
X124859405Y-99399614D01*
X124748962Y-99265038D01*
X124614386Y-99154595D01*
X124460850Y-99072528D01*
X124294254Y-99021992D01*
X124121000Y-99004928D01*
X123021000Y-99004928D01*
X122847746Y-99021992D01*
X122681150Y-99072528D01*
X122527614Y-99154595D01*
X122393038Y-99265038D01*
X122282595Y-99399614D01*
X122200528Y-99553150D01*
X122149992Y-99719746D01*
X122132928Y-99893000D01*
X122132928Y-99908000D01*
X116785827Y-99908000D01*
X116734999Y-99902994D01*
X116717437Y-99904724D01*
X116684829Y-99891217D01*
X116367018Y-99828000D01*
X116042982Y-99828000D01*
X115725171Y-99891217D01*
X115425801Y-100015220D01*
X115156374Y-100195245D01*
X114927245Y-100424374D01*
X114747220Y-100693801D01*
X114623217Y-100993171D01*
X114560000Y-101310982D01*
X114560000Y-101635018D01*
X114623217Y-101952829D01*
X114747220Y-102252199D01*
X114927245Y-102521626D01*
X115148619Y-102743000D01*
X114927245Y-102964374D01*
X114747220Y-103233801D01*
X114623217Y-103533171D01*
X114560000Y-103850982D01*
X114560000Y-104175018D01*
X114623217Y-104492829D01*
X114747220Y-104792199D01*
X114927245Y-105061626D01*
X115156374Y-105290755D01*
X115425801Y-105470780D01*
X115725171Y-105594783D01*
X116042982Y-105658000D01*
X116367018Y-105658000D01*
X116684829Y-105594783D01*
X116984199Y-105470780D01*
X117253626Y-105290755D01*
X117482755Y-105061626D01*
X117491860Y-105048000D01*
X122132928Y-105048000D01*
X122132928Y-105593000D01*
X122149992Y-105766254D01*
X122200528Y-105932850D01*
X122282595Y-106086386D01*
X122393038Y-106220962D01*
X122527614Y-106331405D01*
X122681150Y-106413472D01*
X122847746Y-106464008D01*
X123021000Y-106481072D01*
X124121000Y-106481072D01*
X124294254Y-106464008D01*
X124460850Y-106413472D01*
X124614386Y-106331405D01*
X124748962Y-106220962D01*
X124859405Y-106086386D01*
X124941472Y-105932850D01*
X124992008Y-105766254D01*
X125004429Y-105640139D01*
X127248197Y-107883908D01*
X127280604Y-107923396D01*
X127320092Y-107955803D01*
X127438202Y-108052734D01*
X127534309Y-108104104D01*
X127618007Y-108148841D01*
X127813105Y-108208024D01*
X127965162Y-108223000D01*
X127965164Y-108223000D01*
X128016000Y-108228007D01*
X128066835Y-108223000D01*
X147975129Y-108223000D01*
X147975214Y-108223859D01*
X148055096Y-108487194D01*
X148184817Y-108729886D01*
X148359392Y-108942607D01*
X148572113Y-109117183D01*
X148814805Y-109246904D01*
X149078140Y-109326786D01*
X149352000Y-109353759D01*
X149625859Y-109326786D01*
X149889194Y-109246904D01*
X150131886Y-109117183D01*
X150344607Y-108942608D01*
X150519183Y-108729887D01*
X150623038Y-108535587D01*
X150649941Y-108601942D01*
X150800994Y-108831729D01*
X150993974Y-109027632D01*
X151221465Y-109182122D01*
X151474724Y-109289262D01*
X151548930Y-109304220D01*
X151765000Y-109181720D01*
X151765000Y-107315000D01*
X151745000Y-107315000D01*
X151745000Y-107061000D01*
X151765000Y-107061000D01*
X151765000Y-105194280D01*
X151548930Y-105071780D01*
X151474724Y-105086738D01*
X151221465Y-105193878D01*
X150993974Y-105348368D01*
X150800994Y-105544271D01*
X150649941Y-105774058D01*
X150623038Y-105840413D01*
X150519183Y-105646113D01*
X150344608Y-105433392D01*
X150131887Y-105258817D01*
X149889195Y-105129096D01*
X149625860Y-105049214D01*
X149352000Y-105022241D01*
X149078141Y-105049214D01*
X148814806Y-105129096D01*
X148572114Y-105258817D01*
X148359393Y-105433392D01*
X148219529Y-105603818D01*
X147456233Y-104840523D01*
X147493458Y-104795164D01*
X147574947Y-104642709D01*
X147614925Y-104510917D01*
X148322688Y-104510917D01*
X148409393Y-104767653D01*
X148686223Y-104901048D01*
X148983757Y-104977873D01*
X149290562Y-104995176D01*
X149594848Y-104952292D01*
X149884921Y-104850868D01*
X150040607Y-104767653D01*
X150127312Y-104510917D01*
X149225000Y-103608605D01*
X148322688Y-104510917D01*
X147614925Y-104510917D01*
X147625128Y-104477285D01*
X147642072Y-104305250D01*
X147642072Y-103817750D01*
X147625128Y-103645715D01*
X147579277Y-103494562D01*
X147658824Y-103494562D01*
X147701708Y-103798848D01*
X147803132Y-104088921D01*
X147886347Y-104244607D01*
X148143083Y-104331312D01*
X149045395Y-103429000D01*
X148143083Y-102526688D01*
X147886347Y-102613393D01*
X147752952Y-102890223D01*
X147676127Y-103187757D01*
X147658824Y-103494562D01*
X147579277Y-103494562D01*
X147574947Y-103480291D01*
X147493458Y-103327836D01*
X147383792Y-103194208D01*
X147377436Y-103188992D01*
X147455185Y-103125185D01*
X147534537Y-103028494D01*
X147593502Y-102918180D01*
X147629812Y-102798482D01*
X147642072Y-102674000D01*
X147639000Y-102472250D01*
X147513833Y-102347083D01*
X148322688Y-102347083D01*
X149225000Y-103249395D01*
X150127312Y-102347083D01*
X150040607Y-102090347D01*
X149763777Y-101956952D01*
X149466243Y-101880127D01*
X149159438Y-101862824D01*
X148855152Y-101905708D01*
X148565079Y-102007132D01*
X148409393Y-102090347D01*
X148322688Y-102347083D01*
X147513833Y-102347083D01*
X147480250Y-102313500D01*
X146431000Y-102313500D01*
X146431000Y-102333500D01*
X146177000Y-102333500D01*
X146177000Y-102313500D01*
X145127750Y-102313500D01*
X144969000Y-102472250D01*
X144965928Y-102674000D01*
X144978188Y-102798482D01*
X145014498Y-102918180D01*
X145073463Y-103028494D01*
X145152815Y-103125185D01*
X145230564Y-103188992D01*
X145224208Y-103194208D01*
X145114542Y-103327836D01*
X145033053Y-103480291D01*
X144982872Y-103645715D01*
X144965928Y-103817750D01*
X144965928Y-104305250D01*
X144982872Y-104477285D01*
X145033053Y-104642709D01*
X145114542Y-104795164D01*
X145224208Y-104928792D01*
X145269000Y-104965552D01*
X145269000Y-105101172D01*
X145263994Y-105152000D01*
X145269000Y-105202828D01*
X145269000Y-105202837D01*
X145283976Y-105354894D01*
X145343159Y-105549992D01*
X145439266Y-105729797D01*
X145568604Y-105887396D01*
X145608097Y-105919807D01*
X145841290Y-106153000D01*
X128444711Y-106153000D01*
X126138807Y-103847097D01*
X126106396Y-103807604D01*
X125948797Y-103678266D01*
X125768993Y-103582159D01*
X125573895Y-103522976D01*
X125421838Y-103508000D01*
X125421828Y-103508000D01*
X125371000Y-103502994D01*
X125320172Y-103508000D01*
X125009072Y-103508000D01*
X125009072Y-103493000D01*
X124992008Y-103319746D01*
X124941472Y-103153150D01*
X124859405Y-102999614D01*
X124748962Y-102865038D01*
X124614386Y-102754595D01*
X124592693Y-102743000D01*
X124614386Y-102731405D01*
X124748962Y-102620962D01*
X124859405Y-102486386D01*
X124941472Y-102332850D01*
X124992008Y-102166254D01*
X125009072Y-101993000D01*
X125009072Y-101978000D01*
X132051172Y-101978000D01*
X132102000Y-101983006D01*
X132152828Y-101978000D01*
X132152838Y-101978000D01*
X132304895Y-101963024D01*
X132499993Y-101903841D01*
X132679797Y-101807734D01*
X132812289Y-101699000D01*
X144965928Y-101699000D01*
X144969000Y-101900750D01*
X145127750Y-102059500D01*
X146177000Y-102059500D01*
X146177000Y-101222750D01*
X146431000Y-101222750D01*
X146431000Y-102059500D01*
X147480250Y-102059500D01*
X147639000Y-101900750D01*
X147642072Y-101699000D01*
X147629812Y-101574518D01*
X147593502Y-101454820D01*
X147534537Y-101344506D01*
X147455185Y-101247815D01*
X147358494Y-101168463D01*
X147248180Y-101109498D01*
X147128482Y-101073188D01*
X147004000Y-101060928D01*
X146589750Y-101064000D01*
X146431000Y-101222750D01*
X146177000Y-101222750D01*
X146018250Y-101064000D01*
X145604000Y-101060928D01*
X145479518Y-101073188D01*
X145359820Y-101109498D01*
X145249506Y-101168463D01*
X145152815Y-101247815D01*
X145073463Y-101344506D01*
X145014498Y-101454820D01*
X144978188Y-101574518D01*
X144965928Y-101699000D01*
X132812289Y-101699000D01*
X132837396Y-101678396D01*
X132869807Y-101638903D01*
X133778711Y-100730000D01*
X148931650Y-100730000D01*
X150584131Y-102382482D01*
X150541617Y-102424996D01*
X150442968Y-102572635D01*
X150306917Y-102526688D01*
X149404605Y-103429000D01*
X150306917Y-104331312D01*
X150442968Y-104285365D01*
X150541617Y-104433004D01*
X150760996Y-104652383D01*
X151018958Y-104824747D01*
X151305589Y-104943474D01*
X151609876Y-105004000D01*
X151920124Y-105004000D01*
X152224411Y-104943474D01*
X152511042Y-104824747D01*
X152769004Y-104652383D01*
X152801892Y-104619495D01*
X152849463Y-104708494D01*
X152928815Y-104805185D01*
X153025506Y-104884537D01*
X153135820Y-104943502D01*
X153255518Y-104979812D01*
X153380000Y-104992072D01*
X154783218Y-104992072D01*
X154721371Y-105053919D01*
X154705860Y-105049214D01*
X154432000Y-105022241D01*
X154158141Y-105049214D01*
X153894806Y-105129096D01*
X153652114Y-105258817D01*
X153439393Y-105433392D01*
X153264818Y-105646113D01*
X153160962Y-105840414D01*
X153134059Y-105774058D01*
X152983006Y-105544271D01*
X152790026Y-105348368D01*
X152562535Y-105193878D01*
X152309276Y-105086738D01*
X152235070Y-105071780D01*
X152019000Y-105194280D01*
X152019000Y-107061000D01*
X152039000Y-107061000D01*
X152039000Y-107315000D01*
X152019000Y-107315000D01*
X152019000Y-109181720D01*
X152235070Y-109304220D01*
X152309276Y-109289262D01*
X152562535Y-109182122D01*
X152790026Y-109027632D01*
X152983006Y-108831729D01*
X153134059Y-108601942D01*
X153160962Y-108535586D01*
X153264817Y-108729886D01*
X153439392Y-108942607D01*
X153652113Y-109117183D01*
X153894805Y-109246904D01*
X154158140Y-109326786D01*
X154432000Y-109353759D01*
X154705859Y-109326786D01*
X154969194Y-109246904D01*
X155211886Y-109117183D01*
X155424607Y-108942608D01*
X155599183Y-108729887D01*
X155728904Y-108487195D01*
X155808786Y-108223860D01*
X155808871Y-108223000D01*
X157921928Y-108223000D01*
X157921928Y-108295000D01*
X157934188Y-108419482D01*
X157970498Y-108539180D01*
X158029463Y-108649494D01*
X158108815Y-108746185D01*
X158205506Y-108825537D01*
X158315820Y-108884502D01*
X158435518Y-108920812D01*
X158560000Y-108933072D01*
X160560000Y-108933072D01*
X160684482Y-108920812D01*
X160804180Y-108884502D01*
X160914494Y-108825537D01*
X161011185Y-108746185D01*
X161090537Y-108649494D01*
X161149502Y-108539180D01*
X161185812Y-108419482D01*
X161198072Y-108295000D01*
X163921928Y-108295000D01*
X163934188Y-108419482D01*
X163970498Y-108539180D01*
X164029463Y-108649494D01*
X164108815Y-108746185D01*
X164205506Y-108825537D01*
X164315820Y-108884502D01*
X164435518Y-108920812D01*
X164560000Y-108933072D01*
X165274250Y-108930000D01*
X165433000Y-108771250D01*
X165433000Y-106172000D01*
X165687000Y-106172000D01*
X165687000Y-108771250D01*
X165845750Y-108930000D01*
X166560000Y-108933072D01*
X166684482Y-108920812D01*
X166804180Y-108884502D01*
X166914494Y-108825537D01*
X167011185Y-108746185D01*
X167090537Y-108649494D01*
X167149502Y-108539180D01*
X167185812Y-108419482D01*
X167198072Y-108295000D01*
X167195000Y-106330750D01*
X167036250Y-106172000D01*
X165687000Y-106172000D01*
X165433000Y-106172000D01*
X164083750Y-106172000D01*
X163925000Y-106330750D01*
X163921928Y-108295000D01*
X161198072Y-108295000D01*
X161198072Y-103795000D01*
X163921928Y-103795000D01*
X163925000Y-105759250D01*
X164083750Y-105918000D01*
X165433000Y-105918000D01*
X165433000Y-103318750D01*
X165687000Y-103318750D01*
X165687000Y-105918000D01*
X167036250Y-105918000D01*
X167195000Y-105759250D01*
X167198072Y-103795000D01*
X167185812Y-103670518D01*
X167149502Y-103550820D01*
X167090537Y-103440506D01*
X167011185Y-103343815D01*
X166914494Y-103264463D01*
X166804180Y-103205498D01*
X166684482Y-103169188D01*
X166560000Y-103156928D01*
X165845750Y-103160000D01*
X165687000Y-103318750D01*
X165433000Y-103318750D01*
X165274250Y-103160000D01*
X164560000Y-103156928D01*
X164435518Y-103169188D01*
X164315820Y-103205498D01*
X164205506Y-103264463D01*
X164108815Y-103343815D01*
X164029463Y-103440506D01*
X163970498Y-103550820D01*
X163934188Y-103670518D01*
X163921928Y-103795000D01*
X161198072Y-103795000D01*
X161185812Y-103670518D01*
X161149502Y-103550820D01*
X161090537Y-103440506D01*
X161011185Y-103343815D01*
X160914494Y-103264463D01*
X160804180Y-103205498D01*
X160684482Y-103169188D01*
X160560000Y-103156928D01*
X158560000Y-103156928D01*
X158435518Y-103169188D01*
X158315820Y-103205498D01*
X158205506Y-103264463D01*
X158185500Y-103280882D01*
X158178792Y-103272708D01*
X158172436Y-103267492D01*
X158250185Y-103203685D01*
X158329537Y-103106994D01*
X158388502Y-102996680D01*
X158424812Y-102876982D01*
X158437072Y-102752500D01*
X158434000Y-102550750D01*
X158275250Y-102392000D01*
X157226000Y-102392000D01*
X157226000Y-102412000D01*
X156972000Y-102412000D01*
X156972000Y-102392000D01*
X156952000Y-102392000D01*
X156952000Y-102345000D01*
X159671928Y-102345000D01*
X159684188Y-102469482D01*
X159720498Y-102589180D01*
X159779463Y-102699494D01*
X159858815Y-102796185D01*
X159955506Y-102875537D01*
X160065820Y-102934502D01*
X160185518Y-102970812D01*
X160310000Y-102983072D01*
X162274250Y-102980000D01*
X162433000Y-102821250D01*
X162433000Y-101472000D01*
X162687000Y-101472000D01*
X162687000Y-102821250D01*
X162845750Y-102980000D01*
X164810000Y-102983072D01*
X164934482Y-102970812D01*
X165054180Y-102934502D01*
X165164494Y-102875537D01*
X165261185Y-102796185D01*
X165340537Y-102699494D01*
X165399502Y-102589180D01*
X165435812Y-102469482D01*
X165448072Y-102345000D01*
X165445000Y-101630750D01*
X165286250Y-101472000D01*
X162687000Y-101472000D01*
X162433000Y-101472000D01*
X159833750Y-101472000D01*
X159675000Y-101630750D01*
X159671928Y-102345000D01*
X156952000Y-102345000D01*
X156952000Y-102138000D01*
X156972000Y-102138000D01*
X156972000Y-101301250D01*
X157226000Y-101301250D01*
X157226000Y-102138000D01*
X158275250Y-102138000D01*
X158434000Y-101979250D01*
X158437072Y-101777500D01*
X158424812Y-101653018D01*
X158388502Y-101533320D01*
X158329537Y-101423006D01*
X158250185Y-101326315D01*
X158153494Y-101246963D01*
X158043180Y-101187998D01*
X157923482Y-101151688D01*
X157799000Y-101139428D01*
X157384750Y-101142500D01*
X157226000Y-101301250D01*
X156972000Y-101301250D01*
X156813250Y-101142500D01*
X156399000Y-101139428D01*
X156274518Y-101151688D01*
X156154820Y-101187998D01*
X156044506Y-101246963D01*
X155947815Y-101326315D01*
X155868463Y-101423006D01*
X155809498Y-101533320D01*
X155773188Y-101653018D01*
X155760928Y-101777500D01*
X155764000Y-101979250D01*
X155922748Y-102137998D01*
X155764000Y-102137998D01*
X155764000Y-102155985D01*
X155760537Y-102149506D01*
X155681185Y-102052815D01*
X155584494Y-101973463D01*
X155474180Y-101914498D01*
X155354482Y-101878188D01*
X155230000Y-101865928D01*
X155065000Y-101865928D01*
X155065000Y-100928801D01*
X155648801Y-100345000D01*
X159671928Y-100345000D01*
X159675000Y-101059250D01*
X159833750Y-101218000D01*
X162433000Y-101218000D01*
X162433000Y-99868750D01*
X162687000Y-99868750D01*
X162687000Y-101218000D01*
X165286250Y-101218000D01*
X165445000Y-101059250D01*
X165448072Y-100345000D01*
X165435812Y-100220518D01*
X165399502Y-100100820D01*
X165340537Y-99990506D01*
X165261185Y-99893815D01*
X165164494Y-99814463D01*
X165054180Y-99755498D01*
X164934482Y-99719188D01*
X164810000Y-99706928D01*
X162845750Y-99710000D01*
X162687000Y-99868750D01*
X162433000Y-99868750D01*
X162274250Y-99710000D01*
X160310000Y-99706928D01*
X160185518Y-99719188D01*
X160065820Y-99755498D01*
X159955506Y-99814463D01*
X159858815Y-99893815D01*
X159779463Y-99990506D01*
X159720498Y-100100820D01*
X159684188Y-100220518D01*
X159671928Y-100345000D01*
X155648801Y-100345000D01*
X156232480Y-99761322D01*
X156250250Y-99763072D01*
X156737750Y-99763072D01*
X156909785Y-99746128D01*
X157075209Y-99695947D01*
X157227664Y-99614458D01*
X157361292Y-99504792D01*
X157431500Y-99419244D01*
X157501708Y-99504792D01*
X157635336Y-99614458D01*
X157787791Y-99695947D01*
X157953215Y-99746128D01*
X158125250Y-99763072D01*
X158612750Y-99763072D01*
X158784785Y-99746128D01*
X158950209Y-99695947D01*
X159102664Y-99614458D01*
X159236292Y-99504792D01*
X159345958Y-99371164D01*
X159427447Y-99218709D01*
X159477628Y-99053285D01*
X159494572Y-98881250D01*
X159494572Y-97968750D01*
X159477628Y-97796715D01*
X159427447Y-97631291D01*
X159345958Y-97478836D01*
X159236292Y-97345208D01*
X159102664Y-97235542D01*
X158950209Y-97154053D01*
X158784785Y-97103872D01*
X158643473Y-97089954D01*
X158643473Y-97087795D01*
X158647149Y-97050473D01*
X158643473Y-97013150D01*
X158643473Y-97013140D01*
X158632476Y-96901487D01*
X158589019Y-96758226D01*
X158518447Y-96626197D01*
X158423474Y-96510472D01*
X158394470Y-96486669D01*
X158240000Y-96332199D01*
X158240000Y-95056801D01*
X158917796Y-94379005D01*
X158940965Y-94378951D01*
X158991426Y-94399853D01*
X159268665Y-94455000D01*
X159551335Y-94455000D01*
X159828574Y-94399853D01*
X159884356Y-94376747D01*
X161466718Y-94373050D01*
X161531426Y-94399853D01*
X161808665Y-94455000D01*
X162091335Y-94455000D01*
X162368574Y-94399853D01*
X162438765Y-94370779D01*
X163992471Y-94367149D01*
X164071426Y-94399853D01*
X164348665Y-94455000D01*
X164631335Y-94455000D01*
X164908574Y-94399853D01*
X164993174Y-94364811D01*
X166497000Y-94361297D01*
X166497000Y-100076000D01*
G04 #@! TA.AperFunction,Conductor*
D27*
G36*
X166497000Y-100076000D02*
G01*
X166499440Y-100100776D01*
X166506667Y-100124601D01*
X166518403Y-100146557D01*
X166534197Y-100165803D01*
X166553443Y-100181597D01*
X166575399Y-100193333D01*
X166599224Y-100200560D01*
X166624000Y-100203000D01*
X173330001Y-100203000D01*
X173330001Y-110719000D01*
X112547000Y-110719000D01*
X112547000Y-94487349D01*
X126392261Y-94455000D01*
X126531335Y-94455000D01*
X126532988Y-94454671D01*
X128760844Y-94449466D01*
X128788665Y-94455000D01*
X129071335Y-94455000D01*
X129103177Y-94448666D01*
X131271355Y-94443600D01*
X131328665Y-94455000D01*
X131611335Y-94455000D01*
X131673367Y-94442661D01*
X133781867Y-94437735D01*
X133868665Y-94455000D01*
X134151335Y-94455000D01*
X134243556Y-94436656D01*
X136280721Y-94431896D01*
X136338184Y-94446300D01*
X136620512Y-94460217D01*
X136820161Y-94430636D01*
X138802890Y-94426003D01*
X138948665Y-94455000D01*
X139231335Y-94455000D01*
X139383935Y-94424646D01*
X141313401Y-94420137D01*
X141488665Y-94455000D01*
X141771335Y-94455000D01*
X141954125Y-94418640D01*
X143823913Y-94414272D01*
X144028665Y-94455000D01*
X144311335Y-94455000D01*
X144524314Y-94412635D01*
X146334424Y-94408406D01*
X146568665Y-94455000D01*
X146851335Y-94455000D01*
X147094504Y-94406630D01*
X148844936Y-94402540D01*
X149108665Y-94455000D01*
X149391335Y-94455000D01*
X149664693Y-94400625D01*
X151363706Y-94396655D01*
X151371426Y-94399853D01*
X151648665Y-94455000D01*
X151931335Y-94455000D01*
X152208574Y-94399853D01*
X152221130Y-94394652D01*
X153889459Y-94390754D01*
X153911426Y-94399853D01*
X154188665Y-94455000D01*
X154471335Y-94455000D01*
X154748574Y-94399853D01*
X154775539Y-94388684D01*
X156415212Y-94384853D01*
X156451426Y-94399853D01*
X156728665Y-94455000D01*
X156772863Y-94455000D01*
X156730998Y-94593015D01*
X156716324Y-94742000D01*
X156720001Y-94779332D01*
X156720000Y-96609677D01*
X156716324Y-96647000D01*
X156720000Y-96684322D01*
X156720000Y-96684332D01*
X156730997Y-96795985D01*
X156763000Y-96901487D01*
X156774454Y-96939246D01*
X156845026Y-97071276D01*
X156868435Y-97099799D01*
X156737750Y-97086928D01*
X156250250Y-97086928D01*
X156078215Y-97103872D01*
X155912791Y-97154053D01*
X155760336Y-97235542D01*
X155626708Y-97345208D01*
X155517042Y-97478836D01*
X155435553Y-97631291D01*
X155385372Y-97796715D01*
X155368428Y-97968750D01*
X155368428Y-98475770D01*
X153793998Y-100050201D01*
X153765000Y-100073999D01*
X153741202Y-100102997D01*
X153741201Y-100102998D01*
X153670026Y-100189724D01*
X153599454Y-100321754D01*
X153555998Y-100465015D01*
X153541324Y-100614000D01*
X153545001Y-100651332D01*
X153545001Y-101865928D01*
X153380000Y-101865928D01*
X153255518Y-101878188D01*
X153135820Y-101914498D01*
X153025506Y-101973463D01*
X152928815Y-102052815D01*
X152849463Y-102149506D01*
X152801892Y-102238505D01*
X152800000Y-102236613D01*
X152800000Y-102150475D01*
X152805007Y-102099640D01*
X152800000Y-102048802D01*
X152785024Y-101896745D01*
X152739615Y-101747055D01*
X152725841Y-101701646D01*
X152629734Y-101521842D01*
X152532803Y-101403732D01*
X152500396Y-101364244D01*
X152460908Y-101331837D01*
X150128167Y-98999097D01*
X150095756Y-98959604D01*
X149938157Y-98830266D01*
X149758353Y-98734159D01*
X149563255Y-98674976D01*
X149411198Y-98660000D01*
X149411188Y-98660000D01*
X149360360Y-98654994D01*
X149309532Y-98660000D01*
X133400835Y-98660000D01*
X133350000Y-98654993D01*
X133299165Y-98660000D01*
X133299162Y-98660000D01*
X133147105Y-98674976D01*
X133007761Y-98717246D01*
X132952006Y-98734159D01*
X132772202Y-98830266D01*
X132654092Y-98927197D01*
X132614604Y-98959604D01*
X132582197Y-98999092D01*
X131673290Y-99908000D01*
X125009072Y-99908000D01*
X125009072Y-99893000D01*
X124992008Y-99719746D01*
X124941472Y-99553150D01*
X124859405Y-99399614D01*
X124748962Y-99265038D01*
X124614386Y-99154595D01*
X124460850Y-99072528D01*
X124294254Y-99021992D01*
X124121000Y-99004928D01*
X123021000Y-99004928D01*
X122847746Y-99021992D01*
X122681150Y-99072528D01*
X122527614Y-99154595D01*
X122393038Y-99265038D01*
X122282595Y-99399614D01*
X122200528Y-99553150D01*
X122149992Y-99719746D01*
X122132928Y-99893000D01*
X122132928Y-99908000D01*
X116785827Y-99908000D01*
X116734999Y-99902994D01*
X116717437Y-99904724D01*
X116684829Y-99891217D01*
X116367018Y-99828000D01*
X116042982Y-99828000D01*
X115725171Y-99891217D01*
X115425801Y-100015220D01*
X115156374Y-100195245D01*
X114927245Y-100424374D01*
X114747220Y-100693801D01*
X114623217Y-100993171D01*
X114560000Y-101310982D01*
X114560000Y-101635018D01*
X114623217Y-101952829D01*
X114747220Y-102252199D01*
X114927245Y-102521626D01*
X115148619Y-102743000D01*
X114927245Y-102964374D01*
X114747220Y-103233801D01*
X114623217Y-103533171D01*
X114560000Y-103850982D01*
X114560000Y-104175018D01*
X114623217Y-104492829D01*
X114747220Y-104792199D01*
X114927245Y-105061626D01*
X115156374Y-105290755D01*
X115425801Y-105470780D01*
X115725171Y-105594783D01*
X116042982Y-105658000D01*
X116367018Y-105658000D01*
X116684829Y-105594783D01*
X116984199Y-105470780D01*
X117253626Y-105290755D01*
X117482755Y-105061626D01*
X117491860Y-105048000D01*
X122132928Y-105048000D01*
X122132928Y-105593000D01*
X122149992Y-105766254D01*
X122200528Y-105932850D01*
X122282595Y-106086386D01*
X122393038Y-106220962D01*
X122527614Y-106331405D01*
X122681150Y-106413472D01*
X122847746Y-106464008D01*
X123021000Y-106481072D01*
X124121000Y-106481072D01*
X124294254Y-106464008D01*
X124460850Y-106413472D01*
X124614386Y-106331405D01*
X124748962Y-106220962D01*
X124859405Y-106086386D01*
X124941472Y-105932850D01*
X124992008Y-105766254D01*
X125004429Y-105640139D01*
X127248197Y-107883908D01*
X127280604Y-107923396D01*
X127320092Y-107955803D01*
X127438202Y-108052734D01*
X127534309Y-108104104D01*
X127618007Y-108148841D01*
X127813105Y-108208024D01*
X127965162Y-108223000D01*
X127965164Y-108223000D01*
X128016000Y-108228007D01*
X128066835Y-108223000D01*
X147975129Y-108223000D01*
X147975214Y-108223859D01*
X148055096Y-108487194D01*
X148184817Y-108729886D01*
X148359392Y-108942607D01*
X148572113Y-109117183D01*
X148814805Y-109246904D01*
X149078140Y-109326786D01*
X149352000Y-109353759D01*
X149625859Y-109326786D01*
X149889194Y-109246904D01*
X150131886Y-109117183D01*
X150344607Y-108942608D01*
X150519183Y-108729887D01*
X150623038Y-108535587D01*
X150649941Y-108601942D01*
X150800994Y-108831729D01*
X150993974Y-109027632D01*
X151221465Y-109182122D01*
X151474724Y-109289262D01*
X151548930Y-109304220D01*
X151765000Y-109181720D01*
X151765000Y-107315000D01*
X151745000Y-107315000D01*
X151745000Y-107061000D01*
X151765000Y-107061000D01*
X151765000Y-105194280D01*
X151548930Y-105071780D01*
X151474724Y-105086738D01*
X151221465Y-105193878D01*
X150993974Y-105348368D01*
X150800994Y-105544271D01*
X150649941Y-105774058D01*
X150623038Y-105840413D01*
X150519183Y-105646113D01*
X150344608Y-105433392D01*
X150131887Y-105258817D01*
X149889195Y-105129096D01*
X149625860Y-105049214D01*
X149352000Y-105022241D01*
X149078141Y-105049214D01*
X148814806Y-105129096D01*
X148572114Y-105258817D01*
X148359393Y-105433392D01*
X148219529Y-105603818D01*
X147456233Y-104840523D01*
X147493458Y-104795164D01*
X147574947Y-104642709D01*
X147614925Y-104510917D01*
X148322688Y-104510917D01*
X148409393Y-104767653D01*
X148686223Y-104901048D01*
X148983757Y-104977873D01*
X149290562Y-104995176D01*
X149594848Y-104952292D01*
X149884921Y-104850868D01*
X150040607Y-104767653D01*
X150127312Y-104510917D01*
X149225000Y-103608605D01*
X148322688Y-104510917D01*
X147614925Y-104510917D01*
X147625128Y-104477285D01*
X147642072Y-104305250D01*
X147642072Y-103817750D01*
X147625128Y-103645715D01*
X147579277Y-103494562D01*
X147658824Y-103494562D01*
X147701708Y-103798848D01*
X147803132Y-104088921D01*
X147886347Y-104244607D01*
X148143083Y-104331312D01*
X149045395Y-103429000D01*
X148143083Y-102526688D01*
X147886347Y-102613393D01*
X147752952Y-102890223D01*
X147676127Y-103187757D01*
X147658824Y-103494562D01*
X147579277Y-103494562D01*
X147574947Y-103480291D01*
X147493458Y-103327836D01*
X147383792Y-103194208D01*
X147377436Y-103188992D01*
X147455185Y-103125185D01*
X147534537Y-103028494D01*
X147593502Y-102918180D01*
X147629812Y-102798482D01*
X147642072Y-102674000D01*
X147639000Y-102472250D01*
X147513833Y-102347083D01*
X148322688Y-102347083D01*
X149225000Y-103249395D01*
X150127312Y-102347083D01*
X150040607Y-102090347D01*
X149763777Y-101956952D01*
X149466243Y-101880127D01*
X149159438Y-101862824D01*
X148855152Y-101905708D01*
X148565079Y-102007132D01*
X148409393Y-102090347D01*
X148322688Y-102347083D01*
X147513833Y-102347083D01*
X147480250Y-102313500D01*
X146431000Y-102313500D01*
X146431000Y-102333500D01*
X146177000Y-102333500D01*
X146177000Y-102313500D01*
X145127750Y-102313500D01*
X144969000Y-102472250D01*
X144965928Y-102674000D01*
X144978188Y-102798482D01*
X145014498Y-102918180D01*
X145073463Y-103028494D01*
X145152815Y-103125185D01*
X145230564Y-103188992D01*
X145224208Y-103194208D01*
X145114542Y-103327836D01*
X145033053Y-103480291D01*
X144982872Y-103645715D01*
X144965928Y-103817750D01*
X144965928Y-104305250D01*
X144982872Y-104477285D01*
X145033053Y-104642709D01*
X145114542Y-104795164D01*
X145224208Y-104928792D01*
X145269000Y-104965552D01*
X145269000Y-105101172D01*
X145263994Y-105152000D01*
X145269000Y-105202828D01*
X145269000Y-105202837D01*
X145283976Y-105354894D01*
X145343159Y-105549992D01*
X145439266Y-105729797D01*
X145568604Y-105887396D01*
X145608097Y-105919807D01*
X145841290Y-106153000D01*
X128444711Y-106153000D01*
X126138807Y-103847097D01*
X126106396Y-103807604D01*
X125948797Y-103678266D01*
X125768993Y-103582159D01*
X125573895Y-103522976D01*
X125421838Y-103508000D01*
X125421828Y-103508000D01*
X125371000Y-103502994D01*
X125320172Y-103508000D01*
X125009072Y-103508000D01*
X125009072Y-103493000D01*
X124992008Y-103319746D01*
X124941472Y-103153150D01*
X124859405Y-102999614D01*
X124748962Y-102865038D01*
X124614386Y-102754595D01*
X124592693Y-102743000D01*
X124614386Y-102731405D01*
X124748962Y-102620962D01*
X124859405Y-102486386D01*
X124941472Y-102332850D01*
X124992008Y-102166254D01*
X125009072Y-101993000D01*
X125009072Y-101978000D01*
X132051172Y-101978000D01*
X132102000Y-101983006D01*
X132152828Y-101978000D01*
X132152838Y-101978000D01*
X132304895Y-101963024D01*
X132499993Y-101903841D01*
X132679797Y-101807734D01*
X132812289Y-101699000D01*
X144965928Y-101699000D01*
X144969000Y-101900750D01*
X145127750Y-102059500D01*
X146177000Y-102059500D01*
X146177000Y-101222750D01*
X146431000Y-101222750D01*
X146431000Y-102059500D01*
X147480250Y-102059500D01*
X147639000Y-101900750D01*
X147642072Y-101699000D01*
X147629812Y-101574518D01*
X147593502Y-101454820D01*
X147534537Y-101344506D01*
X147455185Y-101247815D01*
X147358494Y-101168463D01*
X147248180Y-101109498D01*
X147128482Y-101073188D01*
X147004000Y-101060928D01*
X146589750Y-101064000D01*
X146431000Y-101222750D01*
X146177000Y-101222750D01*
X146018250Y-101064000D01*
X145604000Y-101060928D01*
X145479518Y-101073188D01*
X145359820Y-101109498D01*
X145249506Y-101168463D01*
X145152815Y-101247815D01*
X145073463Y-101344506D01*
X145014498Y-101454820D01*
X144978188Y-101574518D01*
X144965928Y-101699000D01*
X132812289Y-101699000D01*
X132837396Y-101678396D01*
X132869807Y-101638903D01*
X133778711Y-100730000D01*
X148931650Y-100730000D01*
X150584131Y-102382482D01*
X150541617Y-102424996D01*
X150442968Y-102572635D01*
X150306917Y-102526688D01*
X149404605Y-103429000D01*
X150306917Y-104331312D01*
X150442968Y-104285365D01*
X150541617Y-104433004D01*
X150760996Y-104652383D01*
X151018958Y-104824747D01*
X151305589Y-104943474D01*
X151609876Y-105004000D01*
X151920124Y-105004000D01*
X152224411Y-104943474D01*
X152511042Y-104824747D01*
X152769004Y-104652383D01*
X152801892Y-104619495D01*
X152849463Y-104708494D01*
X152928815Y-104805185D01*
X153025506Y-104884537D01*
X153135820Y-104943502D01*
X153255518Y-104979812D01*
X153380000Y-104992072D01*
X154783218Y-104992072D01*
X154721371Y-105053919D01*
X154705860Y-105049214D01*
X154432000Y-105022241D01*
X154158141Y-105049214D01*
X153894806Y-105129096D01*
X153652114Y-105258817D01*
X153439393Y-105433392D01*
X153264818Y-105646113D01*
X153160962Y-105840414D01*
X153134059Y-105774058D01*
X152983006Y-105544271D01*
X152790026Y-105348368D01*
X152562535Y-105193878D01*
X152309276Y-105086738D01*
X152235070Y-105071780D01*
X152019000Y-105194280D01*
X152019000Y-107061000D01*
X152039000Y-107061000D01*
X152039000Y-107315000D01*
X152019000Y-107315000D01*
X152019000Y-109181720D01*
X152235070Y-109304220D01*
X152309276Y-109289262D01*
X152562535Y-109182122D01*
X152790026Y-109027632D01*
X152983006Y-108831729D01*
X153134059Y-108601942D01*
X153160962Y-108535586D01*
X153264817Y-108729886D01*
X153439392Y-108942607D01*
X153652113Y-109117183D01*
X153894805Y-109246904D01*
X154158140Y-109326786D01*
X154432000Y-109353759D01*
X154705859Y-109326786D01*
X154969194Y-109246904D01*
X155211886Y-109117183D01*
X155424607Y-108942608D01*
X155599183Y-108729887D01*
X155728904Y-108487195D01*
X155808786Y-108223860D01*
X155808871Y-108223000D01*
X157921928Y-108223000D01*
X157921928Y-108295000D01*
X157934188Y-108419482D01*
X157970498Y-108539180D01*
X158029463Y-108649494D01*
X158108815Y-108746185D01*
X158205506Y-108825537D01*
X158315820Y-108884502D01*
X158435518Y-108920812D01*
X158560000Y-108933072D01*
X160560000Y-108933072D01*
X160684482Y-108920812D01*
X160804180Y-108884502D01*
X160914494Y-108825537D01*
X161011185Y-108746185D01*
X161090537Y-108649494D01*
X161149502Y-108539180D01*
X161185812Y-108419482D01*
X161198072Y-108295000D01*
X163921928Y-108295000D01*
X163934188Y-108419482D01*
X163970498Y-108539180D01*
X164029463Y-108649494D01*
X164108815Y-108746185D01*
X164205506Y-108825537D01*
X164315820Y-108884502D01*
X164435518Y-108920812D01*
X164560000Y-108933072D01*
X165274250Y-108930000D01*
X165433000Y-108771250D01*
X165433000Y-106172000D01*
X165687000Y-106172000D01*
X165687000Y-108771250D01*
X165845750Y-108930000D01*
X166560000Y-108933072D01*
X166684482Y-108920812D01*
X166804180Y-108884502D01*
X166914494Y-108825537D01*
X167011185Y-108746185D01*
X167090537Y-108649494D01*
X167149502Y-108539180D01*
X167185812Y-108419482D01*
X167198072Y-108295000D01*
X167195000Y-106330750D01*
X167036250Y-106172000D01*
X165687000Y-106172000D01*
X165433000Y-106172000D01*
X164083750Y-106172000D01*
X163925000Y-106330750D01*
X163921928Y-108295000D01*
X161198072Y-108295000D01*
X161198072Y-103795000D01*
X163921928Y-103795000D01*
X163925000Y-105759250D01*
X164083750Y-105918000D01*
X165433000Y-105918000D01*
X165433000Y-103318750D01*
X165687000Y-103318750D01*
X165687000Y-105918000D01*
X167036250Y-105918000D01*
X167195000Y-105759250D01*
X167198072Y-103795000D01*
X167185812Y-103670518D01*
X167149502Y-103550820D01*
X167090537Y-103440506D01*
X167011185Y-103343815D01*
X166914494Y-103264463D01*
X166804180Y-103205498D01*
X166684482Y-103169188D01*
X166560000Y-103156928D01*
X165845750Y-103160000D01*
X165687000Y-103318750D01*
X165433000Y-103318750D01*
X165274250Y-103160000D01*
X164560000Y-103156928D01*
X164435518Y-103169188D01*
X164315820Y-103205498D01*
X164205506Y-103264463D01*
X164108815Y-103343815D01*
X164029463Y-103440506D01*
X163970498Y-103550820D01*
X163934188Y-103670518D01*
X163921928Y-103795000D01*
X161198072Y-103795000D01*
X161185812Y-103670518D01*
X161149502Y-103550820D01*
X161090537Y-103440506D01*
X161011185Y-103343815D01*
X160914494Y-103264463D01*
X160804180Y-103205498D01*
X160684482Y-103169188D01*
X160560000Y-103156928D01*
X158560000Y-103156928D01*
X158435518Y-103169188D01*
X158315820Y-103205498D01*
X158205506Y-103264463D01*
X158185500Y-103280882D01*
X158178792Y-103272708D01*
X158172436Y-103267492D01*
X158250185Y-103203685D01*
X158329537Y-103106994D01*
X158388502Y-102996680D01*
X158424812Y-102876982D01*
X158437072Y-102752500D01*
X158434000Y-102550750D01*
X158275250Y-102392000D01*
X157226000Y-102392000D01*
X157226000Y-102412000D01*
X156972000Y-102412000D01*
X156972000Y-102392000D01*
X156952000Y-102392000D01*
X156952000Y-102345000D01*
X159671928Y-102345000D01*
X159684188Y-102469482D01*
X159720498Y-102589180D01*
X159779463Y-102699494D01*
X159858815Y-102796185D01*
X159955506Y-102875537D01*
X160065820Y-102934502D01*
X160185518Y-102970812D01*
X160310000Y-102983072D01*
X162274250Y-102980000D01*
X162433000Y-102821250D01*
X162433000Y-101472000D01*
X162687000Y-101472000D01*
X162687000Y-102821250D01*
X162845750Y-102980000D01*
X164810000Y-102983072D01*
X164934482Y-102970812D01*
X165054180Y-102934502D01*
X165164494Y-102875537D01*
X165261185Y-102796185D01*
X165340537Y-102699494D01*
X165399502Y-102589180D01*
X165435812Y-102469482D01*
X165448072Y-102345000D01*
X165445000Y-101630750D01*
X165286250Y-101472000D01*
X162687000Y-101472000D01*
X162433000Y-101472000D01*
X159833750Y-101472000D01*
X159675000Y-101630750D01*
X159671928Y-102345000D01*
X156952000Y-102345000D01*
X156952000Y-102138000D01*
X156972000Y-102138000D01*
X156972000Y-101301250D01*
X157226000Y-101301250D01*
X157226000Y-102138000D01*
X158275250Y-102138000D01*
X158434000Y-101979250D01*
X158437072Y-101777500D01*
X158424812Y-101653018D01*
X158388502Y-101533320D01*
X158329537Y-101423006D01*
X158250185Y-101326315D01*
X158153494Y-101246963D01*
X158043180Y-101187998D01*
X157923482Y-101151688D01*
X157799000Y-101139428D01*
X157384750Y-101142500D01*
X157226000Y-101301250D01*
X156972000Y-101301250D01*
X156813250Y-101142500D01*
X156399000Y-101139428D01*
X156274518Y-101151688D01*
X156154820Y-101187998D01*
X156044506Y-101246963D01*
X155947815Y-101326315D01*
X155868463Y-101423006D01*
X155809498Y-101533320D01*
X155773188Y-101653018D01*
X155760928Y-101777500D01*
X155764000Y-101979250D01*
X155922748Y-102137998D01*
X155764000Y-102137998D01*
X155764000Y-102155985D01*
X155760537Y-102149506D01*
X155681185Y-102052815D01*
X155584494Y-101973463D01*
X155474180Y-101914498D01*
X155354482Y-101878188D01*
X155230000Y-101865928D01*
X155065000Y-101865928D01*
X155065000Y-100928801D01*
X155648801Y-100345000D01*
X159671928Y-100345000D01*
X159675000Y-101059250D01*
X159833750Y-101218000D01*
X162433000Y-101218000D01*
X162433000Y-99868750D01*
X162687000Y-99868750D01*
X162687000Y-101218000D01*
X165286250Y-101218000D01*
X165445000Y-101059250D01*
X165448072Y-100345000D01*
X165435812Y-100220518D01*
X165399502Y-100100820D01*
X165340537Y-99990506D01*
X165261185Y-99893815D01*
X165164494Y-99814463D01*
X165054180Y-99755498D01*
X164934482Y-99719188D01*
X164810000Y-99706928D01*
X162845750Y-99710000D01*
X162687000Y-99868750D01*
X162433000Y-99868750D01*
X162274250Y-99710000D01*
X160310000Y-99706928D01*
X160185518Y-99719188D01*
X160065820Y-99755498D01*
X159955506Y-99814463D01*
X159858815Y-99893815D01*
X159779463Y-99990506D01*
X159720498Y-100100820D01*
X159684188Y-100220518D01*
X159671928Y-100345000D01*
X155648801Y-100345000D01*
X156232480Y-99761322D01*
X156250250Y-99763072D01*
X156737750Y-99763072D01*
X156909785Y-99746128D01*
X157075209Y-99695947D01*
X157227664Y-99614458D01*
X157361292Y-99504792D01*
X157431500Y-99419244D01*
X157501708Y-99504792D01*
X157635336Y-99614458D01*
X157787791Y-99695947D01*
X157953215Y-99746128D01*
X158125250Y-99763072D01*
X158612750Y-99763072D01*
X158784785Y-99746128D01*
X158950209Y-99695947D01*
X159102664Y-99614458D01*
X159236292Y-99504792D01*
X159345958Y-99371164D01*
X159427447Y-99218709D01*
X159477628Y-99053285D01*
X159494572Y-98881250D01*
X159494572Y-97968750D01*
X159477628Y-97796715D01*
X159427447Y-97631291D01*
X159345958Y-97478836D01*
X159236292Y-97345208D01*
X159102664Y-97235542D01*
X158950209Y-97154053D01*
X158784785Y-97103872D01*
X158643473Y-97089954D01*
X158643473Y-97087795D01*
X158647149Y-97050473D01*
X158643473Y-97013150D01*
X158643473Y-97013140D01*
X158632476Y-96901487D01*
X158589019Y-96758226D01*
X158518447Y-96626197D01*
X158423474Y-96510472D01*
X158394470Y-96486669D01*
X158240000Y-96332199D01*
X158240000Y-95056801D01*
X158917796Y-94379005D01*
X158940965Y-94378951D01*
X158991426Y-94399853D01*
X159268665Y-94455000D01*
X159551335Y-94455000D01*
X159828574Y-94399853D01*
X159884356Y-94376747D01*
X161466718Y-94373050D01*
X161531426Y-94399853D01*
X161808665Y-94455000D01*
X162091335Y-94455000D01*
X162368574Y-94399853D01*
X162438765Y-94370779D01*
X163992471Y-94367149D01*
X164071426Y-94399853D01*
X164348665Y-94455000D01*
X164631335Y-94455000D01*
X164908574Y-94399853D01*
X164993174Y-94364811D01*
X166497000Y-94361297D01*
X166497000Y-100076000D01*
G37*
G04 #@! TD.AperFunction*
D26*
X157921928Y-106153000D02*
X156549711Y-106153000D01*
X157437139Y-105265572D01*
X157555250Y-105265572D01*
X157727285Y-105248628D01*
X157892709Y-105198447D01*
X157921928Y-105182829D01*
X157921928Y-106153000D01*
G04 #@! TA.AperFunction,Conductor*
D27*
G36*
X157921928Y-106153000D02*
G01*
X156549711Y-106153000D01*
X157437139Y-105265572D01*
X157555250Y-105265572D01*
X157727285Y-105248628D01*
X157892709Y-105198447D01*
X157921928Y-105182829D01*
X157921928Y-106153000D01*
G37*
G04 #@! TD.AperFunction*
D26*
X122132928Y-101993000D02*
X122149992Y-102166254D01*
X122200528Y-102332850D01*
X122282595Y-102486386D01*
X122393038Y-102620962D01*
X122527614Y-102731405D01*
X122549307Y-102743000D01*
X122527614Y-102754595D01*
X122393038Y-102865038D01*
X122300333Y-102978000D01*
X117491860Y-102978000D01*
X117482755Y-102964374D01*
X117261381Y-102743000D01*
X117482755Y-102521626D01*
X117662780Y-102252199D01*
X117776357Y-101978000D01*
X122132928Y-101978000D01*
X122132928Y-101993000D01*
G04 #@! TA.AperFunction,Conductor*
D27*
G36*
X122132928Y-101993000D02*
G01*
X122149992Y-102166254D01*
X122200528Y-102332850D01*
X122282595Y-102486386D01*
X122393038Y-102620962D01*
X122527614Y-102731405D01*
X122549307Y-102743000D01*
X122527614Y-102754595D01*
X122393038Y-102865038D01*
X122300333Y-102978000D01*
X117491860Y-102978000D01*
X117482755Y-102964374D01*
X117261381Y-102743000D01*
X117482755Y-102521626D01*
X117662780Y-102252199D01*
X117776357Y-101978000D01*
X122132928Y-101978000D01*
X122132928Y-101993000D01*
G37*
G04 #@! TD.AperFunction*
D26*
X168455363Y-78694759D02*
X168655241Y-78894637D01*
X168890273Y-79051680D01*
X169151426Y-79159853D01*
X169428665Y-79215000D01*
X169711335Y-79215000D01*
X169988574Y-79159853D01*
X170249727Y-79051680D01*
X170484759Y-78894637D01*
X170683357Y-78696039D01*
X170684188Y-78704482D01*
X170720498Y-78824180D01*
X170779463Y-78934494D01*
X170858815Y-79031185D01*
X170955506Y-79110537D01*
X171065820Y-79169502D01*
X171185518Y-79205812D01*
X171310000Y-79218072D01*
X172910000Y-79218072D01*
X173034482Y-79205812D01*
X173154180Y-79169502D01*
X173264494Y-79110537D01*
X173330000Y-79056778D01*
X173330000Y-92262929D01*
X173224637Y-92105241D01*
X173024759Y-91905363D01*
X172789727Y-91748320D01*
X172528574Y-91640147D01*
X172251335Y-91585000D01*
X171968665Y-91585000D01*
X171691426Y-91640147D01*
X171430273Y-91748320D01*
X171195241Y-91905363D01*
X170995363Y-92105241D01*
X170839085Y-92339128D01*
X170806671Y-92278486D01*
X170562702Y-92206903D01*
X169749605Y-93020000D01*
X170562702Y-93833097D01*
X170806671Y-93761514D01*
X170837194Y-93697008D01*
X170838320Y-93699727D01*
X170995363Y-93934759D01*
X171195241Y-94134637D01*
X171430273Y-94291680D01*
X171691426Y-94399853D01*
X171968665Y-94455000D01*
X172251335Y-94455000D01*
X172528574Y-94399853D01*
X172789727Y-94291680D01*
X173024759Y-94134637D01*
X173224637Y-93934759D01*
X173330001Y-93777071D01*
X173330001Y-99060000D01*
X167640000Y-99060000D01*
X167640000Y-94320562D01*
X167709727Y-94291680D01*
X167944759Y-94134637D01*
X168066694Y-94012702D01*
X168756903Y-94012702D01*
X168828486Y-94256671D01*
X169083996Y-94377571D01*
X169358184Y-94446300D01*
X169640512Y-94460217D01*
X169920130Y-94418787D01*
X170186292Y-94323603D01*
X170311514Y-94256671D01*
X170383097Y-94012702D01*
X169570000Y-93199605D01*
X168756903Y-94012702D01*
X168066694Y-94012702D01*
X168144637Y-93934759D01*
X168300915Y-93700872D01*
X168333329Y-93761514D01*
X168577298Y-93833097D01*
X169390395Y-93020000D01*
X168577298Y-92206903D01*
X168333329Y-92278486D01*
X168302806Y-92342992D01*
X168301680Y-92340273D01*
X168144637Y-92105241D01*
X167944759Y-91905363D01*
X167709727Y-91748320D01*
X167448574Y-91640147D01*
X167171335Y-91585000D01*
X166888665Y-91585000D01*
X166611426Y-91640147D01*
X166350273Y-91748320D01*
X166115241Y-91905363D01*
X165915363Y-92105241D01*
X165760000Y-92337759D01*
X165604637Y-92105241D01*
X165404759Y-91905363D01*
X165172241Y-91750000D01*
X165404759Y-91594637D01*
X165604637Y-91394759D01*
X165761680Y-91159727D01*
X165869853Y-90898574D01*
X165925000Y-90621335D01*
X165925000Y-90338665D01*
X168135000Y-90338665D01*
X168135000Y-90621335D01*
X168190147Y-90898574D01*
X168298320Y-91159727D01*
X168455363Y-91394759D01*
X168655241Y-91594637D01*
X168889128Y-91750915D01*
X168828486Y-91783329D01*
X168756903Y-92027298D01*
X169570000Y-92840395D01*
X170383097Y-92027298D01*
X170311514Y-91783329D01*
X170247008Y-91752806D01*
X170249727Y-91751680D01*
X170484759Y-91594637D01*
X170684637Y-91394759D01*
X170841680Y-91159727D01*
X170949853Y-90898574D01*
X171005000Y-90621335D01*
X171005000Y-90338665D01*
X170949853Y-90061426D01*
X170841680Y-89800273D01*
X170684637Y-89565241D01*
X170484759Y-89365363D01*
X170249727Y-89208320D01*
X169988574Y-89100147D01*
X169711335Y-89045000D01*
X169428665Y-89045000D01*
X169151426Y-89100147D01*
X168890273Y-89208320D01*
X168655241Y-89365363D01*
X168455363Y-89565241D01*
X168298320Y-89800273D01*
X168190147Y-90061426D01*
X168135000Y-90338665D01*
X165925000Y-90338665D01*
X165869853Y-90061426D01*
X165761680Y-89800273D01*
X165604637Y-89565241D01*
X165404759Y-89365363D01*
X165169727Y-89208320D01*
X164908574Y-89100147D01*
X164631335Y-89045000D01*
X164348665Y-89045000D01*
X164071426Y-89100147D01*
X163810273Y-89208320D01*
X163575241Y-89365363D01*
X163375363Y-89565241D01*
X163220000Y-89797759D01*
X163064637Y-89565241D01*
X162864759Y-89365363D01*
X162629727Y-89208320D01*
X162368574Y-89100147D01*
X162091335Y-89045000D01*
X161808665Y-89045000D01*
X161531426Y-89100147D01*
X161270273Y-89208320D01*
X161035241Y-89365363D01*
X160835363Y-89565241D01*
X160680000Y-89797759D01*
X160524637Y-89565241D01*
X160324759Y-89365363D01*
X160089727Y-89208320D01*
X159828574Y-89100147D01*
X159551335Y-89045000D01*
X159268665Y-89045000D01*
X158991426Y-89100147D01*
X158730273Y-89208320D01*
X158495241Y-89365363D01*
X158295363Y-89565241D01*
X158138320Y-89800273D01*
X158030147Y-90061426D01*
X157975000Y-90338665D01*
X157975000Y-90621335D01*
X158030147Y-90898574D01*
X158138320Y-91159727D01*
X158295363Y-91394759D01*
X158495241Y-91594637D01*
X158727759Y-91750000D01*
X158495241Y-91905363D01*
X158295363Y-92105241D01*
X158140000Y-92337759D01*
X157984637Y-92105241D01*
X157784759Y-91905363D01*
X157549727Y-91748320D01*
X157288574Y-91640147D01*
X157011335Y-91585000D01*
X156728665Y-91585000D01*
X156451426Y-91640147D01*
X156190273Y-91748320D01*
X155955241Y-91905363D01*
X155755363Y-92105241D01*
X155600000Y-92337759D01*
X155444637Y-92105241D01*
X155244759Y-91905363D01*
X155009727Y-91748320D01*
X154748574Y-91640147D01*
X154471335Y-91585000D01*
X154188665Y-91585000D01*
X153911426Y-91640147D01*
X153650273Y-91748320D01*
X153415241Y-91905363D01*
X153215363Y-92105241D01*
X153060000Y-92337759D01*
X152904637Y-92105241D01*
X152704759Y-91905363D01*
X152525000Y-91785252D01*
X152525000Y-86892845D01*
X152632292Y-86804792D01*
X152741958Y-86671164D01*
X152823447Y-86518709D01*
X152873628Y-86353285D01*
X152890572Y-86181250D01*
X152890572Y-85268750D01*
X152873628Y-85096715D01*
X152823447Y-84931291D01*
X152741958Y-84778836D01*
X152632292Y-84645208D01*
X152498664Y-84535542D01*
X152346209Y-84454053D01*
X152180785Y-84403872D01*
X152008750Y-84386928D01*
X151521250Y-84386928D01*
X151349215Y-84403872D01*
X151183791Y-84454053D01*
X151031336Y-84535542D01*
X150897708Y-84645208D01*
X150827500Y-84730756D01*
X150757292Y-84645208D01*
X150623664Y-84535542D01*
X150471209Y-84454053D01*
X150305785Y-84403872D01*
X150133750Y-84386928D01*
X149646250Y-84386928D01*
X149474215Y-84403872D01*
X149367308Y-84436302D01*
X149383072Y-84276250D01*
X149383072Y-83363750D01*
X149366128Y-83191715D01*
X149333169Y-83083061D01*
X161398000Y-83083061D01*
X161398000Y-83286939D01*
X161437774Y-83486898D01*
X161515795Y-83675256D01*
X161629063Y-83844774D01*
X161773226Y-83988937D01*
X161942744Y-84102205D01*
X162131102Y-84180226D01*
X162331061Y-84220000D01*
X162393199Y-84220000D01*
X163139200Y-84966002D01*
X163162999Y-84995001D01*
X163278724Y-85089974D01*
X163410753Y-85160546D01*
X163554014Y-85204003D01*
X163665667Y-85215000D01*
X163665676Y-85215000D01*
X163702999Y-85218676D01*
X163740322Y-85215000D01*
X165970199Y-85215000D01*
X166118000Y-85362802D01*
X166118000Y-85586832D01*
X166118001Y-85586842D01*
X166118000Y-87180289D01*
X166074063Y-87224226D01*
X165960795Y-87393744D01*
X165882774Y-87582102D01*
X165843000Y-87782061D01*
X165843000Y-87985939D01*
X165882774Y-88185898D01*
X165960795Y-88374256D01*
X166074063Y-88543774D01*
X166218226Y-88687937D01*
X166387744Y-88801205D01*
X166576102Y-88879226D01*
X166776061Y-88919000D01*
X166979939Y-88919000D01*
X167179898Y-88879226D01*
X167368256Y-88801205D01*
X167537774Y-88687937D01*
X167681937Y-88543774D01*
X167795205Y-88374256D01*
X167873226Y-88185898D01*
X167913000Y-87985939D01*
X167913000Y-87782061D01*
X167873226Y-87582102D01*
X167795205Y-87393744D01*
X167681937Y-87224226D01*
X167638000Y-87180289D01*
X167638000Y-85085325D01*
X167641676Y-85048000D01*
X167638000Y-85010675D01*
X167638000Y-85010667D01*
X167627003Y-84899014D01*
X167583546Y-84755753D01*
X167512974Y-84623724D01*
X167418001Y-84507999D01*
X167389002Y-84484200D01*
X166848803Y-83944002D01*
X166825001Y-83914999D01*
X166709276Y-83820026D01*
X166577247Y-83749454D01*
X166433986Y-83705997D01*
X166322333Y-83695000D01*
X166322322Y-83695000D01*
X166285000Y-83691324D01*
X166247678Y-83695000D01*
X164017802Y-83695000D01*
X163468000Y-83145199D01*
X163468000Y-83083061D01*
X163428226Y-82883102D01*
X163350205Y-82694744D01*
X163236937Y-82525226D01*
X163092774Y-82381063D01*
X162923256Y-82267795D01*
X162734898Y-82189774D01*
X162534939Y-82150000D01*
X162331061Y-82150000D01*
X162131102Y-82189774D01*
X161942744Y-82267795D01*
X161773226Y-82381063D01*
X161629063Y-82525226D01*
X161515795Y-82694744D01*
X161437774Y-82883102D01*
X161398000Y-83083061D01*
X149333169Y-83083061D01*
X149315947Y-83026291D01*
X149234458Y-82873836D01*
X149124792Y-82740208D01*
X148991164Y-82630542D01*
X148838709Y-82549053D01*
X148673285Y-82498872D01*
X148501250Y-82481928D01*
X148013750Y-82481928D01*
X147995980Y-82483678D01*
X147796293Y-82283992D01*
X147772491Y-82254989D01*
X147656766Y-82160016D01*
X147524737Y-82089444D01*
X147381476Y-82045987D01*
X147269823Y-82034990D01*
X147269812Y-82034990D01*
X147232490Y-82031314D01*
X147195168Y-82034990D01*
X145940493Y-82034990D01*
X145903160Y-82031313D01*
X145865827Y-82034990D01*
X145754174Y-82045987D01*
X145610913Y-82089444D01*
X145511716Y-82142466D01*
X145411250Y-82042000D01*
X144574500Y-82042000D01*
X144574500Y-82062000D01*
X144320500Y-82062000D01*
X144320500Y-82042000D01*
X142699500Y-82042000D01*
X142699500Y-82062000D01*
X142445500Y-82062000D01*
X142445500Y-82042000D01*
X141608750Y-82042000D01*
X141450000Y-82200750D01*
X141447650Y-82517639D01*
X141385785Y-82498872D01*
X141213750Y-82481928D01*
X140726250Y-82481928D01*
X140554215Y-82498872D01*
X140388791Y-82549053D01*
X140236336Y-82630542D01*
X140102708Y-82740208D01*
X140032500Y-82825756D01*
X139962292Y-82740208D01*
X139828664Y-82630542D01*
X139676209Y-82549053D01*
X139510785Y-82498872D01*
X139338750Y-82481928D01*
X138851250Y-82481928D01*
X138679215Y-82498872D01*
X138513791Y-82549053D01*
X138361336Y-82630542D01*
X138227708Y-82740208D01*
X138118042Y-82873836D01*
X138036553Y-83026291D01*
X137986372Y-83191715D01*
X137969428Y-83363750D01*
X137969428Y-83870770D01*
X136903003Y-84937196D01*
X136873999Y-84960999D01*
X136833238Y-85010667D01*
X136779026Y-85076724D01*
X136771424Y-85090947D01*
X136708454Y-85208754D01*
X136664997Y-85352015D01*
X136654000Y-85463668D01*
X136654000Y-85463678D01*
X136650324Y-85501000D01*
X136654000Y-85538323D01*
X136654001Y-88481668D01*
X136650324Y-88519000D01*
X136654001Y-88556332D01*
X136654001Y-88556333D01*
X136664998Y-88667986D01*
X136678180Y-88711442D01*
X136708454Y-88811246D01*
X136779026Y-88943276D01*
X136836685Y-89013533D01*
X136874000Y-89059001D01*
X136902998Y-89082799D01*
X138374205Y-90554008D01*
X138397999Y-90583001D01*
X138426992Y-90606795D01*
X138426996Y-90606799D01*
X138497685Y-90664811D01*
X138513724Y-90677974D01*
X138645753Y-90748546D01*
X138789014Y-90792003D01*
X138900667Y-90803000D01*
X138900676Y-90803000D01*
X138937999Y-90806676D01*
X138975322Y-90803000D01*
X143345678Y-90803000D01*
X143383000Y-90806676D01*
X143420322Y-90803000D01*
X146061178Y-90803000D01*
X146098500Y-90806676D01*
X146135822Y-90803000D01*
X146135833Y-90803000D01*
X146247486Y-90792003D01*
X146390747Y-90748546D01*
X146522776Y-90677974D01*
X146638501Y-90583001D01*
X146662304Y-90553997D01*
X147995980Y-89220322D01*
X148013750Y-89222072D01*
X148501250Y-89222072D01*
X148521073Y-89220120D01*
X148595224Y-89280974D01*
X148727253Y-89351546D01*
X148870514Y-89395003D01*
X148982167Y-89406000D01*
X148982175Y-89406000D01*
X149019500Y-89409676D01*
X149056825Y-89406000D01*
X149410289Y-89406000D01*
X149454226Y-89449937D01*
X149623744Y-89563205D01*
X149812102Y-89641226D01*
X150012061Y-89681000D01*
X150215939Y-89681000D01*
X150415898Y-89641226D01*
X150604256Y-89563205D01*
X150773774Y-89449937D01*
X150917937Y-89305774D01*
X151005000Y-89175474D01*
X151005001Y-91818660D01*
X150875241Y-91905363D01*
X150675363Y-92105241D01*
X150520000Y-92337759D01*
X150364637Y-92105241D01*
X150164759Y-91905363D01*
X149929727Y-91748320D01*
X149668574Y-91640147D01*
X149391335Y-91585000D01*
X149108665Y-91585000D01*
X148831426Y-91640147D01*
X148570273Y-91748320D01*
X148335241Y-91905363D01*
X148135363Y-92105241D01*
X147980000Y-92337759D01*
X147824637Y-92105241D01*
X147624759Y-91905363D01*
X147389727Y-91748320D01*
X147128574Y-91640147D01*
X146851335Y-91585000D01*
X146568665Y-91585000D01*
X146291426Y-91640147D01*
X146030273Y-91748320D01*
X145795241Y-91905363D01*
X145595363Y-92105241D01*
X145440000Y-92337759D01*
X145284637Y-92105241D01*
X145084759Y-91905363D01*
X144849727Y-91748320D01*
X144588574Y-91640147D01*
X144311335Y-91585000D01*
X144028665Y-91585000D01*
X143751426Y-91640147D01*
X143490273Y-91748320D01*
X143255241Y-91905363D01*
X143055363Y-92105241D01*
X142900000Y-92337759D01*
X142744637Y-92105241D01*
X142544759Y-91905363D01*
X142309727Y-91748320D01*
X142048574Y-91640147D01*
X141771335Y-91585000D01*
X141488665Y-91585000D01*
X141211426Y-91640147D01*
X140950273Y-91748320D01*
X140715241Y-91905363D01*
X140515363Y-92105241D01*
X140360000Y-92337759D01*
X140204637Y-92105241D01*
X140004759Y-91905363D01*
X139769727Y-91748320D01*
X139508574Y-91640147D01*
X139231335Y-91585000D01*
X138948665Y-91585000D01*
X138671426Y-91640147D01*
X138410273Y-91748320D01*
X138175241Y-91905363D01*
X137975363Y-92105241D01*
X137820000Y-92337759D01*
X137664637Y-92105241D01*
X137464759Y-91905363D01*
X137229727Y-91748320D01*
X136968574Y-91640147D01*
X136691335Y-91585000D01*
X136526955Y-91585000D01*
X136398000Y-91572299D01*
X136126493Y-91599040D01*
X135865419Y-91678236D01*
X135624812Y-91806843D01*
X135560220Y-91859853D01*
X135493024Y-91915000D01*
X135413919Y-91979920D01*
X135370550Y-92032765D01*
X135243548Y-92159767D01*
X135198085Y-92215164D01*
X135124637Y-92105241D01*
X134924759Y-91905363D01*
X134689727Y-91748320D01*
X134428574Y-91640147D01*
X134151335Y-91585000D01*
X133868665Y-91585000D01*
X133591426Y-91640147D01*
X133330273Y-91748320D01*
X133095241Y-91905363D01*
X132895363Y-92105241D01*
X132740000Y-92337759D01*
X132584637Y-92105241D01*
X132384759Y-91905363D01*
X132149727Y-91748320D01*
X131888574Y-91640147D01*
X131611335Y-91585000D01*
X131328665Y-91585000D01*
X131051426Y-91640147D01*
X130790273Y-91748320D01*
X130555241Y-91905363D01*
X130355363Y-92105241D01*
X130200000Y-92337759D01*
X130044637Y-92105241D01*
X129844759Y-91905363D01*
X129609727Y-91748320D01*
X129348574Y-91640147D01*
X129071335Y-91585000D01*
X128788665Y-91585000D01*
X128511426Y-91640147D01*
X128250273Y-91748320D01*
X128015241Y-91905363D01*
X127815363Y-92105241D01*
X127660000Y-92337759D01*
X127504637Y-92105241D01*
X127304759Y-91905363D01*
X127072241Y-91750000D01*
X127304759Y-91594637D01*
X127504637Y-91394759D01*
X127661680Y-91159727D01*
X127769853Y-90898574D01*
X127825000Y-90621335D01*
X127825000Y-90338665D01*
X127769853Y-90061426D01*
X127661680Y-89800273D01*
X127504637Y-89565241D01*
X127304759Y-89365363D01*
X127072241Y-89210000D01*
X127304759Y-89054637D01*
X127504637Y-88854759D01*
X127661680Y-88619727D01*
X127769853Y-88358574D01*
X127825000Y-88081335D01*
X127825000Y-87798665D01*
X127769853Y-87521426D01*
X127661680Y-87260273D01*
X127504637Y-87025241D01*
X127304759Y-86825363D01*
X127072241Y-86670000D01*
X127304759Y-86514637D01*
X127504637Y-86314759D01*
X127661680Y-86079727D01*
X127769853Y-85818574D01*
X127825000Y-85541335D01*
X127825000Y-85258665D01*
X127803902Y-85152595D01*
X131073282Y-85152595D01*
X131117039Y-85471675D01*
X131222205Y-85776088D01*
X131315186Y-85950044D01*
X131522033Y-86024963D01*
X131470820Y-86040498D01*
X131360506Y-86099463D01*
X131263815Y-86178815D01*
X131184463Y-86275506D01*
X131125498Y-86385820D01*
X131089188Y-86505518D01*
X131076928Y-86630000D01*
X131076928Y-88630000D01*
X131089188Y-88754482D01*
X131125498Y-88874180D01*
X131184463Y-88984494D01*
X131263815Y-89081185D01*
X131360506Y-89160537D01*
X131470820Y-89219502D01*
X131590518Y-89255812D01*
X131715000Y-89268072D01*
X133715000Y-89268072D01*
X133839482Y-89255812D01*
X133959180Y-89219502D01*
X134069494Y-89160537D01*
X134166185Y-89081185D01*
X134245537Y-88984494D01*
X134304502Y-88874180D01*
X134340812Y-88754482D01*
X134353072Y-88630000D01*
X134353072Y-86630000D01*
X134340812Y-86505518D01*
X134304502Y-86385820D01*
X134245537Y-86275506D01*
X134166185Y-86178815D01*
X134069494Y-86099463D01*
X133959180Y-86040498D01*
X133907967Y-86024963D01*
X134114814Y-85950044D01*
X134255704Y-85660429D01*
X134337384Y-85348892D01*
X134356718Y-85027405D01*
X134312961Y-84708325D01*
X134207795Y-84403912D01*
X134114814Y-84229956D01*
X133850413Y-84134192D01*
X132894605Y-85090000D01*
X132908748Y-85104143D01*
X132729143Y-85283748D01*
X132715000Y-85269605D01*
X132700858Y-85283748D01*
X132521253Y-85104143D01*
X132535395Y-85090000D01*
X131579587Y-84134192D01*
X131315186Y-84229956D01*
X131174296Y-84519571D01*
X131092616Y-84831108D01*
X131073282Y-85152595D01*
X127803902Y-85152595D01*
X127769853Y-84981426D01*
X127661680Y-84720273D01*
X127504637Y-84485241D01*
X127304759Y-84285363D01*
X127072241Y-84130000D01*
X127304759Y-83974637D01*
X127324809Y-83954587D01*
X131759192Y-83954587D01*
X132715000Y-84910395D01*
X133670808Y-83954587D01*
X133575044Y-83690186D01*
X133285429Y-83549296D01*
X132973892Y-83467616D01*
X132652405Y-83448282D01*
X132333325Y-83492039D01*
X132028912Y-83597205D01*
X131854956Y-83690186D01*
X131759192Y-83954587D01*
X127324809Y-83954587D01*
X127504637Y-83774759D01*
X127661680Y-83539727D01*
X127769853Y-83278574D01*
X127825000Y-83001335D01*
X127825000Y-82718665D01*
X127769853Y-82441426D01*
X127661680Y-82180273D01*
X127504637Y-81945241D01*
X127304759Y-81745363D01*
X127072241Y-81590000D01*
X127304759Y-81434637D01*
X127504637Y-81234759D01*
X127517839Y-81215000D01*
X141446928Y-81215000D01*
X141450000Y-81629250D01*
X141608750Y-81788000D01*
X142445500Y-81788000D01*
X142445500Y-80738750D01*
X142699500Y-80738750D01*
X142699500Y-81788000D01*
X144320500Y-81788000D01*
X144320500Y-80738750D01*
X144574500Y-80738750D01*
X144574500Y-81788000D01*
X145411250Y-81788000D01*
X145570000Y-81629250D01*
X145573072Y-81215000D01*
X145560812Y-81090518D01*
X145524502Y-80970820D01*
X145465537Y-80860506D01*
X145386185Y-80763815D01*
X145289494Y-80684463D01*
X145203814Y-80638665D01*
X154165000Y-80638665D01*
X154165000Y-80921335D01*
X154220147Y-81198574D01*
X154328320Y-81459727D01*
X154485363Y-81694759D01*
X154685241Y-81894637D01*
X154920273Y-82051680D01*
X155181426Y-82159853D01*
X155458665Y-82215000D01*
X155741335Y-82215000D01*
X156018574Y-82159853D01*
X156279727Y-82051680D01*
X156514759Y-81894637D01*
X156714637Y-81694759D01*
X156870000Y-81462241D01*
X157025363Y-81694759D01*
X157225241Y-81894637D01*
X157460273Y-82051680D01*
X157721426Y-82159853D01*
X157998665Y-82215000D01*
X158281335Y-82215000D01*
X158558574Y-82159853D01*
X158819727Y-82051680D01*
X159054759Y-81894637D01*
X159254637Y-81694759D01*
X159410000Y-81462241D01*
X159565363Y-81694759D01*
X159765241Y-81894637D01*
X160000273Y-82051680D01*
X160261426Y-82159853D01*
X160538665Y-82215000D01*
X160821335Y-82215000D01*
X161098574Y-82159853D01*
X161359727Y-82051680D01*
X161594759Y-81894637D01*
X161794637Y-81694759D01*
X161950000Y-81462241D01*
X162105363Y-81694759D01*
X162305241Y-81894637D01*
X162540273Y-82051680D01*
X162801426Y-82159853D01*
X163078665Y-82215000D01*
X163361335Y-82215000D01*
X163638574Y-82159853D01*
X163899727Y-82051680D01*
X164134759Y-81894637D01*
X164334637Y-81694759D01*
X164490000Y-81462241D01*
X164645363Y-81694759D01*
X164845241Y-81894637D01*
X165080273Y-82051680D01*
X165341426Y-82159853D01*
X165618665Y-82215000D01*
X165901335Y-82215000D01*
X166178574Y-82159853D01*
X166439727Y-82051680D01*
X166674759Y-81894637D01*
X166874637Y-81694759D01*
X167031680Y-81459727D01*
X167139853Y-81198574D01*
X167195000Y-80921335D01*
X167195000Y-80638665D01*
X167139853Y-80361426D01*
X167031680Y-80100273D01*
X166874637Y-79865241D01*
X166674759Y-79665363D01*
X166439727Y-79508320D01*
X166178574Y-79400147D01*
X165901335Y-79345000D01*
X165618665Y-79345000D01*
X165341426Y-79400147D01*
X165080273Y-79508320D01*
X164845241Y-79665363D01*
X164645363Y-79865241D01*
X164490000Y-80097759D01*
X164334637Y-79865241D01*
X164134759Y-79665363D01*
X163899727Y-79508320D01*
X163638574Y-79400147D01*
X163361335Y-79345000D01*
X163078665Y-79345000D01*
X162801426Y-79400147D01*
X162540273Y-79508320D01*
X162305241Y-79665363D01*
X162105363Y-79865241D01*
X161950000Y-80097759D01*
X161794637Y-79865241D01*
X161594759Y-79665363D01*
X161359727Y-79508320D01*
X161098574Y-79400147D01*
X160821335Y-79345000D01*
X160538665Y-79345000D01*
X160261426Y-79400147D01*
X160000273Y-79508320D01*
X159765241Y-79665363D01*
X159565363Y-79865241D01*
X159410000Y-80097759D01*
X159254637Y-79865241D01*
X159054759Y-79665363D01*
X158819727Y-79508320D01*
X158558574Y-79400147D01*
X158281335Y-79345000D01*
X157998665Y-79345000D01*
X157721426Y-79400147D01*
X157460273Y-79508320D01*
X157225241Y-79665363D01*
X157025363Y-79865241D01*
X156870000Y-80097759D01*
X156714637Y-79865241D01*
X156514759Y-79665363D01*
X156279727Y-79508320D01*
X156018574Y-79400147D01*
X155741335Y-79345000D01*
X155458665Y-79345000D01*
X155181426Y-79400147D01*
X154920273Y-79508320D01*
X154685241Y-79665363D01*
X154485363Y-79865241D01*
X154328320Y-80100273D01*
X154220147Y-80361426D01*
X154165000Y-80638665D01*
X145203814Y-80638665D01*
X145179180Y-80625498D01*
X145059482Y-80589188D01*
X144935000Y-80576928D01*
X144733250Y-80580000D01*
X144574500Y-80738750D01*
X144320500Y-80738750D01*
X144161750Y-80580000D01*
X143960000Y-80576928D01*
X143835518Y-80589188D01*
X143715820Y-80625498D01*
X143605506Y-80684463D01*
X143510000Y-80762842D01*
X143414494Y-80684463D01*
X143304180Y-80625498D01*
X143184482Y-80589188D01*
X143060000Y-80576928D01*
X142858250Y-80580000D01*
X142699500Y-80738750D01*
X142445500Y-80738750D01*
X142286750Y-80580000D01*
X142085000Y-80576928D01*
X141960518Y-80589188D01*
X141840820Y-80625498D01*
X141730506Y-80684463D01*
X141633815Y-80763815D01*
X141554463Y-80860506D01*
X141495498Y-80970820D01*
X141459188Y-81090518D01*
X141446928Y-81215000D01*
X127517839Y-81215000D01*
X127661680Y-80999727D01*
X127769853Y-80738574D01*
X127825000Y-80461335D01*
X127825000Y-80178665D01*
X127769853Y-79901426D01*
X127661680Y-79640273D01*
X127504637Y-79405241D01*
X127304759Y-79205363D01*
X127072241Y-79050000D01*
X127304759Y-78894637D01*
X127504637Y-78694759D01*
X127660000Y-78462241D01*
X127815363Y-78694759D01*
X128015241Y-78894637D01*
X128250273Y-79051680D01*
X128511426Y-79159853D01*
X128788665Y-79215000D01*
X129071335Y-79215000D01*
X129348574Y-79159853D01*
X129609727Y-79051680D01*
X129844759Y-78894637D01*
X130044637Y-78694759D01*
X130200000Y-78462241D01*
X130355363Y-78694759D01*
X130555241Y-78894637D01*
X130790273Y-79051680D01*
X131051426Y-79159853D01*
X131328665Y-79215000D01*
X131611335Y-79215000D01*
X131888574Y-79159853D01*
X132149727Y-79051680D01*
X132384759Y-78894637D01*
X132584637Y-78694759D01*
X132740000Y-78462241D01*
X132895363Y-78694759D01*
X133095241Y-78894637D01*
X133330273Y-79051680D01*
X133591426Y-79159853D01*
X133868665Y-79215000D01*
X134151335Y-79215000D01*
X134428574Y-79159853D01*
X134689727Y-79051680D01*
X134924759Y-78894637D01*
X135124637Y-78694759D01*
X135280000Y-78462241D01*
X135435363Y-78694759D01*
X135635241Y-78894637D01*
X135870273Y-79051680D01*
X136131426Y-79159853D01*
X136408665Y-79215000D01*
X136691335Y-79215000D01*
X136968574Y-79159853D01*
X137229727Y-79051680D01*
X137464759Y-78894637D01*
X137664637Y-78694759D01*
X137820000Y-78462241D01*
X137975363Y-78694759D01*
X138175241Y-78894637D01*
X138410273Y-79051680D01*
X138671426Y-79159853D01*
X138948665Y-79215000D01*
X139231335Y-79215000D01*
X139508574Y-79159853D01*
X139769727Y-79051680D01*
X140004759Y-78894637D01*
X140204637Y-78694759D01*
X140360000Y-78462241D01*
X140515363Y-78694759D01*
X140715241Y-78894637D01*
X140950273Y-79051680D01*
X141211426Y-79159853D01*
X141488665Y-79215000D01*
X141771335Y-79215000D01*
X142048574Y-79159853D01*
X142309727Y-79051680D01*
X142544759Y-78894637D01*
X142744637Y-78694759D01*
X142900000Y-78462241D01*
X143055363Y-78694759D01*
X143255241Y-78894637D01*
X143490273Y-79051680D01*
X143751426Y-79159853D01*
X144028665Y-79215000D01*
X144311335Y-79215000D01*
X144588574Y-79159853D01*
X144849727Y-79051680D01*
X145084759Y-78894637D01*
X145284637Y-78694759D01*
X145440000Y-78462241D01*
X145595363Y-78694759D01*
X145795241Y-78894637D01*
X146030273Y-79051680D01*
X146291426Y-79159853D01*
X146568665Y-79215000D01*
X146851335Y-79215000D01*
X147128574Y-79159853D01*
X147389727Y-79051680D01*
X147624759Y-78894637D01*
X147824637Y-78694759D01*
X147980000Y-78462241D01*
X148135363Y-78694759D01*
X148335241Y-78894637D01*
X148570273Y-79051680D01*
X148831426Y-79159853D01*
X149108665Y-79215000D01*
X149391335Y-79215000D01*
X149668574Y-79159853D01*
X149929727Y-79051680D01*
X150164759Y-78894637D01*
X150364637Y-78694759D01*
X150520000Y-78462241D01*
X150675363Y-78694759D01*
X150875241Y-78894637D01*
X151110273Y-79051680D01*
X151371426Y-79159853D01*
X151648665Y-79215000D01*
X151931335Y-79215000D01*
X152208574Y-79159853D01*
X152469727Y-79051680D01*
X152704759Y-78894637D01*
X152904637Y-78694759D01*
X153060000Y-78462241D01*
X153215363Y-78694759D01*
X153415241Y-78894637D01*
X153650273Y-79051680D01*
X153911426Y-79159853D01*
X154188665Y-79215000D01*
X154471335Y-79215000D01*
X154748574Y-79159853D01*
X155009727Y-79051680D01*
X155244759Y-78894637D01*
X155444637Y-78694759D01*
X155600000Y-78462241D01*
X155755363Y-78694759D01*
X155955241Y-78894637D01*
X156190273Y-79051680D01*
X156451426Y-79159853D01*
X156728665Y-79215000D01*
X157011335Y-79215000D01*
X157288574Y-79159853D01*
X157549727Y-79051680D01*
X157784759Y-78894637D01*
X157984637Y-78694759D01*
X158140000Y-78462241D01*
X158295363Y-78694759D01*
X158495241Y-78894637D01*
X158730273Y-79051680D01*
X158991426Y-79159853D01*
X159268665Y-79215000D01*
X159551335Y-79215000D01*
X159828574Y-79159853D01*
X160089727Y-79051680D01*
X160324759Y-78894637D01*
X160524637Y-78694759D01*
X160680000Y-78462241D01*
X160835363Y-78694759D01*
X161035241Y-78894637D01*
X161270273Y-79051680D01*
X161531426Y-79159853D01*
X161808665Y-79215000D01*
X162091335Y-79215000D01*
X162368574Y-79159853D01*
X162629727Y-79051680D01*
X162864759Y-78894637D01*
X163064637Y-78694759D01*
X163220000Y-78462241D01*
X163375363Y-78694759D01*
X163575241Y-78894637D01*
X163810273Y-79051680D01*
X164071426Y-79159853D01*
X164348665Y-79215000D01*
X164631335Y-79215000D01*
X164908574Y-79159853D01*
X165169727Y-79051680D01*
X165404759Y-78894637D01*
X165604637Y-78694759D01*
X165760000Y-78462241D01*
X165915363Y-78694759D01*
X166115241Y-78894637D01*
X166350273Y-79051680D01*
X166611426Y-79159853D01*
X166888665Y-79215000D01*
X167171335Y-79215000D01*
X167448574Y-79159853D01*
X167709727Y-79051680D01*
X167944759Y-78894637D01*
X168144637Y-78694759D01*
X168300000Y-78462241D01*
X168455363Y-78694759D01*
G04 #@! TA.AperFunction,Conductor*
D27*
G36*
X168455363Y-78694759D02*
G01*
X168655241Y-78894637D01*
X168890273Y-79051680D01*
X169151426Y-79159853D01*
X169428665Y-79215000D01*
X169711335Y-79215000D01*
X169988574Y-79159853D01*
X170249727Y-79051680D01*
X170484759Y-78894637D01*
X170683357Y-78696039D01*
X170684188Y-78704482D01*
X170720498Y-78824180D01*
X170779463Y-78934494D01*
X170858815Y-79031185D01*
X170955506Y-79110537D01*
X171065820Y-79169502D01*
X171185518Y-79205812D01*
X171310000Y-79218072D01*
X172910000Y-79218072D01*
X173034482Y-79205812D01*
X173154180Y-79169502D01*
X173264494Y-79110537D01*
X173330000Y-79056778D01*
X173330000Y-92262929D01*
X173224637Y-92105241D01*
X173024759Y-91905363D01*
X172789727Y-91748320D01*
X172528574Y-91640147D01*
X172251335Y-91585000D01*
X171968665Y-91585000D01*
X171691426Y-91640147D01*
X171430273Y-91748320D01*
X171195241Y-91905363D01*
X170995363Y-92105241D01*
X170839085Y-92339128D01*
X170806671Y-92278486D01*
X170562702Y-92206903D01*
X169749605Y-93020000D01*
X170562702Y-93833097D01*
X170806671Y-93761514D01*
X170837194Y-93697008D01*
X170838320Y-93699727D01*
X170995363Y-93934759D01*
X171195241Y-94134637D01*
X171430273Y-94291680D01*
X171691426Y-94399853D01*
X171968665Y-94455000D01*
X172251335Y-94455000D01*
X172528574Y-94399853D01*
X172789727Y-94291680D01*
X173024759Y-94134637D01*
X173224637Y-93934759D01*
X173330001Y-93777071D01*
X173330001Y-99060000D01*
X167640000Y-99060000D01*
X167640000Y-94320562D01*
X167709727Y-94291680D01*
X167944759Y-94134637D01*
X168066694Y-94012702D01*
X168756903Y-94012702D01*
X168828486Y-94256671D01*
X169083996Y-94377571D01*
X169358184Y-94446300D01*
X169640512Y-94460217D01*
X169920130Y-94418787D01*
X170186292Y-94323603D01*
X170311514Y-94256671D01*
X170383097Y-94012702D01*
X169570000Y-93199605D01*
X168756903Y-94012702D01*
X168066694Y-94012702D01*
X168144637Y-93934759D01*
X168300915Y-93700872D01*
X168333329Y-93761514D01*
X168577298Y-93833097D01*
X169390395Y-93020000D01*
X168577298Y-92206903D01*
X168333329Y-92278486D01*
X168302806Y-92342992D01*
X168301680Y-92340273D01*
X168144637Y-92105241D01*
X167944759Y-91905363D01*
X167709727Y-91748320D01*
X167448574Y-91640147D01*
X167171335Y-91585000D01*
X166888665Y-91585000D01*
X166611426Y-91640147D01*
X166350273Y-91748320D01*
X166115241Y-91905363D01*
X165915363Y-92105241D01*
X165760000Y-92337759D01*
X165604637Y-92105241D01*
X165404759Y-91905363D01*
X165172241Y-91750000D01*
X165404759Y-91594637D01*
X165604637Y-91394759D01*
X165761680Y-91159727D01*
X165869853Y-90898574D01*
X165925000Y-90621335D01*
X165925000Y-90338665D01*
X168135000Y-90338665D01*
X168135000Y-90621335D01*
X168190147Y-90898574D01*
X168298320Y-91159727D01*
X168455363Y-91394759D01*
X168655241Y-91594637D01*
X168889128Y-91750915D01*
X168828486Y-91783329D01*
X168756903Y-92027298D01*
X169570000Y-92840395D01*
X170383097Y-92027298D01*
X170311514Y-91783329D01*
X170247008Y-91752806D01*
X170249727Y-91751680D01*
X170484759Y-91594637D01*
X170684637Y-91394759D01*
X170841680Y-91159727D01*
X170949853Y-90898574D01*
X171005000Y-90621335D01*
X171005000Y-90338665D01*
X170949853Y-90061426D01*
X170841680Y-89800273D01*
X170684637Y-89565241D01*
X170484759Y-89365363D01*
X170249727Y-89208320D01*
X169988574Y-89100147D01*
X169711335Y-89045000D01*
X169428665Y-89045000D01*
X169151426Y-89100147D01*
X168890273Y-89208320D01*
X168655241Y-89365363D01*
X168455363Y-89565241D01*
X168298320Y-89800273D01*
X168190147Y-90061426D01*
X168135000Y-90338665D01*
X165925000Y-90338665D01*
X165869853Y-90061426D01*
X165761680Y-89800273D01*
X165604637Y-89565241D01*
X165404759Y-89365363D01*
X165169727Y-89208320D01*
X164908574Y-89100147D01*
X164631335Y-89045000D01*
X164348665Y-89045000D01*
X164071426Y-89100147D01*
X163810273Y-89208320D01*
X163575241Y-89365363D01*
X163375363Y-89565241D01*
X163220000Y-89797759D01*
X163064637Y-89565241D01*
X162864759Y-89365363D01*
X162629727Y-89208320D01*
X162368574Y-89100147D01*
X162091335Y-89045000D01*
X161808665Y-89045000D01*
X161531426Y-89100147D01*
X161270273Y-89208320D01*
X161035241Y-89365363D01*
X160835363Y-89565241D01*
X160680000Y-89797759D01*
X160524637Y-89565241D01*
X160324759Y-89365363D01*
X160089727Y-89208320D01*
X159828574Y-89100147D01*
X159551335Y-89045000D01*
X159268665Y-89045000D01*
X158991426Y-89100147D01*
X158730273Y-89208320D01*
X158495241Y-89365363D01*
X158295363Y-89565241D01*
X158138320Y-89800273D01*
X158030147Y-90061426D01*
X157975000Y-90338665D01*
X157975000Y-90621335D01*
X158030147Y-90898574D01*
X158138320Y-91159727D01*
X158295363Y-91394759D01*
X158495241Y-91594637D01*
X158727759Y-91750000D01*
X158495241Y-91905363D01*
X158295363Y-92105241D01*
X158140000Y-92337759D01*
X157984637Y-92105241D01*
X157784759Y-91905363D01*
X157549727Y-91748320D01*
X157288574Y-91640147D01*
X157011335Y-91585000D01*
X156728665Y-91585000D01*
X156451426Y-91640147D01*
X156190273Y-91748320D01*
X155955241Y-91905363D01*
X155755363Y-92105241D01*
X155600000Y-92337759D01*
X155444637Y-92105241D01*
X155244759Y-91905363D01*
X155009727Y-91748320D01*
X154748574Y-91640147D01*
X154471335Y-91585000D01*
X154188665Y-91585000D01*
X153911426Y-91640147D01*
X153650273Y-91748320D01*
X153415241Y-91905363D01*
X153215363Y-92105241D01*
X153060000Y-92337759D01*
X152904637Y-92105241D01*
X152704759Y-91905363D01*
X152525000Y-91785252D01*
X152525000Y-86892845D01*
X152632292Y-86804792D01*
X152741958Y-86671164D01*
X152823447Y-86518709D01*
X152873628Y-86353285D01*
X152890572Y-86181250D01*
X152890572Y-85268750D01*
X152873628Y-85096715D01*
X152823447Y-84931291D01*
X152741958Y-84778836D01*
X152632292Y-84645208D01*
X152498664Y-84535542D01*
X152346209Y-84454053D01*
X152180785Y-84403872D01*
X152008750Y-84386928D01*
X151521250Y-84386928D01*
X151349215Y-84403872D01*
X151183791Y-84454053D01*
X151031336Y-84535542D01*
X150897708Y-84645208D01*
X150827500Y-84730756D01*
X150757292Y-84645208D01*
X150623664Y-84535542D01*
X150471209Y-84454053D01*
X150305785Y-84403872D01*
X150133750Y-84386928D01*
X149646250Y-84386928D01*
X149474215Y-84403872D01*
X149367308Y-84436302D01*
X149383072Y-84276250D01*
X149383072Y-83363750D01*
X149366128Y-83191715D01*
X149333169Y-83083061D01*
X161398000Y-83083061D01*
X161398000Y-83286939D01*
X161437774Y-83486898D01*
X161515795Y-83675256D01*
X161629063Y-83844774D01*
X161773226Y-83988937D01*
X161942744Y-84102205D01*
X162131102Y-84180226D01*
X162331061Y-84220000D01*
X162393199Y-84220000D01*
X163139200Y-84966002D01*
X163162999Y-84995001D01*
X163278724Y-85089974D01*
X163410753Y-85160546D01*
X163554014Y-85204003D01*
X163665667Y-85215000D01*
X163665676Y-85215000D01*
X163702999Y-85218676D01*
X163740322Y-85215000D01*
X165970199Y-85215000D01*
X166118000Y-85362802D01*
X166118000Y-85586832D01*
X166118001Y-85586842D01*
X166118000Y-87180289D01*
X166074063Y-87224226D01*
X165960795Y-87393744D01*
X165882774Y-87582102D01*
X165843000Y-87782061D01*
X165843000Y-87985939D01*
X165882774Y-88185898D01*
X165960795Y-88374256D01*
X166074063Y-88543774D01*
X166218226Y-88687937D01*
X166387744Y-88801205D01*
X166576102Y-88879226D01*
X166776061Y-88919000D01*
X166979939Y-88919000D01*
X167179898Y-88879226D01*
X167368256Y-88801205D01*
X167537774Y-88687937D01*
X167681937Y-88543774D01*
X167795205Y-88374256D01*
X167873226Y-88185898D01*
X167913000Y-87985939D01*
X167913000Y-87782061D01*
X167873226Y-87582102D01*
X167795205Y-87393744D01*
X167681937Y-87224226D01*
X167638000Y-87180289D01*
X167638000Y-85085325D01*
X167641676Y-85048000D01*
X167638000Y-85010675D01*
X167638000Y-85010667D01*
X167627003Y-84899014D01*
X167583546Y-84755753D01*
X167512974Y-84623724D01*
X167418001Y-84507999D01*
X167389002Y-84484200D01*
X166848803Y-83944002D01*
X166825001Y-83914999D01*
X166709276Y-83820026D01*
X166577247Y-83749454D01*
X166433986Y-83705997D01*
X166322333Y-83695000D01*
X166322322Y-83695000D01*
X166285000Y-83691324D01*
X166247678Y-83695000D01*
X164017802Y-83695000D01*
X163468000Y-83145199D01*
X163468000Y-83083061D01*
X163428226Y-82883102D01*
X163350205Y-82694744D01*
X163236937Y-82525226D01*
X163092774Y-82381063D01*
X162923256Y-82267795D01*
X162734898Y-82189774D01*
X162534939Y-82150000D01*
X162331061Y-82150000D01*
X162131102Y-82189774D01*
X161942744Y-82267795D01*
X161773226Y-82381063D01*
X161629063Y-82525226D01*
X161515795Y-82694744D01*
X161437774Y-82883102D01*
X161398000Y-83083061D01*
X149333169Y-83083061D01*
X149315947Y-83026291D01*
X149234458Y-82873836D01*
X149124792Y-82740208D01*
X148991164Y-82630542D01*
X148838709Y-82549053D01*
X148673285Y-82498872D01*
X148501250Y-82481928D01*
X148013750Y-82481928D01*
X147995980Y-82483678D01*
X147796293Y-82283992D01*
X147772491Y-82254989D01*
X147656766Y-82160016D01*
X147524737Y-82089444D01*
X147381476Y-82045987D01*
X147269823Y-82034990D01*
X147269812Y-82034990D01*
X147232490Y-82031314D01*
X147195168Y-82034990D01*
X145940493Y-82034990D01*
X145903160Y-82031313D01*
X145865827Y-82034990D01*
X145754174Y-82045987D01*
X145610913Y-82089444D01*
X145511716Y-82142466D01*
X145411250Y-82042000D01*
X144574500Y-82042000D01*
X144574500Y-82062000D01*
X144320500Y-82062000D01*
X144320500Y-82042000D01*
X142699500Y-82042000D01*
X142699500Y-82062000D01*
X142445500Y-82062000D01*
X142445500Y-82042000D01*
X141608750Y-82042000D01*
X141450000Y-82200750D01*
X141447650Y-82517639D01*
X141385785Y-82498872D01*
X141213750Y-82481928D01*
X140726250Y-82481928D01*
X140554215Y-82498872D01*
X140388791Y-82549053D01*
X140236336Y-82630542D01*
X140102708Y-82740208D01*
X140032500Y-82825756D01*
X139962292Y-82740208D01*
X139828664Y-82630542D01*
X139676209Y-82549053D01*
X139510785Y-82498872D01*
X139338750Y-82481928D01*
X138851250Y-82481928D01*
X138679215Y-82498872D01*
X138513791Y-82549053D01*
X138361336Y-82630542D01*
X138227708Y-82740208D01*
X138118042Y-82873836D01*
X138036553Y-83026291D01*
X137986372Y-83191715D01*
X137969428Y-83363750D01*
X137969428Y-83870770D01*
X136903003Y-84937196D01*
X136873999Y-84960999D01*
X136833238Y-85010667D01*
X136779026Y-85076724D01*
X136771424Y-85090947D01*
X136708454Y-85208754D01*
X136664997Y-85352015D01*
X136654000Y-85463668D01*
X136654000Y-85463678D01*
X136650324Y-85501000D01*
X136654000Y-85538323D01*
X136654001Y-88481668D01*
X136650324Y-88519000D01*
X136654001Y-88556332D01*
X136654001Y-88556333D01*
X136664998Y-88667986D01*
X136678180Y-88711442D01*
X136708454Y-88811246D01*
X136779026Y-88943276D01*
X136836685Y-89013533D01*
X136874000Y-89059001D01*
X136902998Y-89082799D01*
X138374205Y-90554008D01*
X138397999Y-90583001D01*
X138426992Y-90606795D01*
X138426996Y-90606799D01*
X138497685Y-90664811D01*
X138513724Y-90677974D01*
X138645753Y-90748546D01*
X138789014Y-90792003D01*
X138900667Y-90803000D01*
X138900676Y-90803000D01*
X138937999Y-90806676D01*
X138975322Y-90803000D01*
X143345678Y-90803000D01*
X143383000Y-90806676D01*
X143420322Y-90803000D01*
X146061178Y-90803000D01*
X146098500Y-90806676D01*
X146135822Y-90803000D01*
X146135833Y-90803000D01*
X146247486Y-90792003D01*
X146390747Y-90748546D01*
X146522776Y-90677974D01*
X146638501Y-90583001D01*
X146662304Y-90553997D01*
X147995980Y-89220322D01*
X148013750Y-89222072D01*
X148501250Y-89222072D01*
X148521073Y-89220120D01*
X148595224Y-89280974D01*
X148727253Y-89351546D01*
X148870514Y-89395003D01*
X148982167Y-89406000D01*
X148982175Y-89406000D01*
X149019500Y-89409676D01*
X149056825Y-89406000D01*
X149410289Y-89406000D01*
X149454226Y-89449937D01*
X149623744Y-89563205D01*
X149812102Y-89641226D01*
X150012061Y-89681000D01*
X150215939Y-89681000D01*
X150415898Y-89641226D01*
X150604256Y-89563205D01*
X150773774Y-89449937D01*
X150917937Y-89305774D01*
X151005000Y-89175474D01*
X151005001Y-91818660D01*
X150875241Y-91905363D01*
X150675363Y-92105241D01*
X150520000Y-92337759D01*
X150364637Y-92105241D01*
X150164759Y-91905363D01*
X149929727Y-91748320D01*
X149668574Y-91640147D01*
X149391335Y-91585000D01*
X149108665Y-91585000D01*
X148831426Y-91640147D01*
X148570273Y-91748320D01*
X148335241Y-91905363D01*
X148135363Y-92105241D01*
X147980000Y-92337759D01*
X147824637Y-92105241D01*
X147624759Y-91905363D01*
X147389727Y-91748320D01*
X147128574Y-91640147D01*
X146851335Y-91585000D01*
X146568665Y-91585000D01*
X146291426Y-91640147D01*
X146030273Y-91748320D01*
X145795241Y-91905363D01*
X145595363Y-92105241D01*
X145440000Y-92337759D01*
X145284637Y-92105241D01*
X145084759Y-91905363D01*
X144849727Y-91748320D01*
X144588574Y-91640147D01*
X144311335Y-91585000D01*
X144028665Y-91585000D01*
X143751426Y-91640147D01*
X143490273Y-91748320D01*
X143255241Y-91905363D01*
X143055363Y-92105241D01*
X142900000Y-92337759D01*
X142744637Y-92105241D01*
X142544759Y-91905363D01*
X142309727Y-91748320D01*
X142048574Y-91640147D01*
X141771335Y-91585000D01*
X141488665Y-91585000D01*
X141211426Y-91640147D01*
X140950273Y-91748320D01*
X140715241Y-91905363D01*
X140515363Y-92105241D01*
X140360000Y-92337759D01*
X140204637Y-92105241D01*
X140004759Y-91905363D01*
X139769727Y-91748320D01*
X139508574Y-91640147D01*
X139231335Y-91585000D01*
X138948665Y-91585000D01*
X138671426Y-91640147D01*
X138410273Y-91748320D01*
X138175241Y-91905363D01*
X137975363Y-92105241D01*
X137820000Y-92337759D01*
X137664637Y-92105241D01*
X137464759Y-91905363D01*
X137229727Y-91748320D01*
X136968574Y-91640147D01*
X136691335Y-91585000D01*
X136526955Y-91585000D01*
X136398000Y-91572299D01*
X136126493Y-91599040D01*
X135865419Y-91678236D01*
X135624812Y-91806843D01*
X135560220Y-91859853D01*
X135493024Y-91915000D01*
X135413919Y-91979920D01*
X135370550Y-92032765D01*
X135243548Y-92159767D01*
X135198085Y-92215164D01*
X135124637Y-92105241D01*
X134924759Y-91905363D01*
X134689727Y-91748320D01*
X134428574Y-91640147D01*
X134151335Y-91585000D01*
X133868665Y-91585000D01*
X133591426Y-91640147D01*
X133330273Y-91748320D01*
X133095241Y-91905363D01*
X132895363Y-92105241D01*
X132740000Y-92337759D01*
X132584637Y-92105241D01*
X132384759Y-91905363D01*
X132149727Y-91748320D01*
X131888574Y-91640147D01*
X131611335Y-91585000D01*
X131328665Y-91585000D01*
X131051426Y-91640147D01*
X130790273Y-91748320D01*
X130555241Y-91905363D01*
X130355363Y-92105241D01*
X130200000Y-92337759D01*
X130044637Y-92105241D01*
X129844759Y-91905363D01*
X129609727Y-91748320D01*
X129348574Y-91640147D01*
X129071335Y-91585000D01*
X128788665Y-91585000D01*
X128511426Y-91640147D01*
X128250273Y-91748320D01*
X128015241Y-91905363D01*
X127815363Y-92105241D01*
X127660000Y-92337759D01*
X127504637Y-92105241D01*
X127304759Y-91905363D01*
X127072241Y-91750000D01*
X127304759Y-91594637D01*
X127504637Y-91394759D01*
X127661680Y-91159727D01*
X127769853Y-90898574D01*
X127825000Y-90621335D01*
X127825000Y-90338665D01*
X127769853Y-90061426D01*
X127661680Y-89800273D01*
X127504637Y-89565241D01*
X127304759Y-89365363D01*
X127072241Y-89210000D01*
X127304759Y-89054637D01*
X127504637Y-88854759D01*
X127661680Y-88619727D01*
X127769853Y-88358574D01*
X127825000Y-88081335D01*
X127825000Y-87798665D01*
X127769853Y-87521426D01*
X127661680Y-87260273D01*
X127504637Y-87025241D01*
X127304759Y-86825363D01*
X127072241Y-86670000D01*
X127304759Y-86514637D01*
X127504637Y-86314759D01*
X127661680Y-86079727D01*
X127769853Y-85818574D01*
X127825000Y-85541335D01*
X127825000Y-85258665D01*
X127803902Y-85152595D01*
X131073282Y-85152595D01*
X131117039Y-85471675D01*
X131222205Y-85776088D01*
X131315186Y-85950044D01*
X131522033Y-86024963D01*
X131470820Y-86040498D01*
X131360506Y-86099463D01*
X131263815Y-86178815D01*
X131184463Y-86275506D01*
X131125498Y-86385820D01*
X131089188Y-86505518D01*
X131076928Y-86630000D01*
X131076928Y-88630000D01*
X131089188Y-88754482D01*
X131125498Y-88874180D01*
X131184463Y-88984494D01*
X131263815Y-89081185D01*
X131360506Y-89160537D01*
X131470820Y-89219502D01*
X131590518Y-89255812D01*
X131715000Y-89268072D01*
X133715000Y-89268072D01*
X133839482Y-89255812D01*
X133959180Y-89219502D01*
X134069494Y-89160537D01*
X134166185Y-89081185D01*
X134245537Y-88984494D01*
X134304502Y-88874180D01*
X134340812Y-88754482D01*
X134353072Y-88630000D01*
X134353072Y-86630000D01*
X134340812Y-86505518D01*
X134304502Y-86385820D01*
X134245537Y-86275506D01*
X134166185Y-86178815D01*
X134069494Y-86099463D01*
X133959180Y-86040498D01*
X133907967Y-86024963D01*
X134114814Y-85950044D01*
X134255704Y-85660429D01*
X134337384Y-85348892D01*
X134356718Y-85027405D01*
X134312961Y-84708325D01*
X134207795Y-84403912D01*
X134114814Y-84229956D01*
X133850413Y-84134192D01*
X132894605Y-85090000D01*
X132908748Y-85104143D01*
X132729143Y-85283748D01*
X132715000Y-85269605D01*
X132700858Y-85283748D01*
X132521253Y-85104143D01*
X132535395Y-85090000D01*
X131579587Y-84134192D01*
X131315186Y-84229956D01*
X131174296Y-84519571D01*
X131092616Y-84831108D01*
X131073282Y-85152595D01*
X127803902Y-85152595D01*
X127769853Y-84981426D01*
X127661680Y-84720273D01*
X127504637Y-84485241D01*
X127304759Y-84285363D01*
X127072241Y-84130000D01*
X127304759Y-83974637D01*
X127324809Y-83954587D01*
X131759192Y-83954587D01*
X132715000Y-84910395D01*
X133670808Y-83954587D01*
X133575044Y-83690186D01*
X133285429Y-83549296D01*
X132973892Y-83467616D01*
X132652405Y-83448282D01*
X132333325Y-83492039D01*
X132028912Y-83597205D01*
X131854956Y-83690186D01*
X131759192Y-83954587D01*
X127324809Y-83954587D01*
X127504637Y-83774759D01*
X127661680Y-83539727D01*
X127769853Y-83278574D01*
X127825000Y-83001335D01*
X127825000Y-82718665D01*
X127769853Y-82441426D01*
X127661680Y-82180273D01*
X127504637Y-81945241D01*
X127304759Y-81745363D01*
X127072241Y-81590000D01*
X127304759Y-81434637D01*
X127504637Y-81234759D01*
X127517839Y-81215000D01*
X141446928Y-81215000D01*
X141450000Y-81629250D01*
X141608750Y-81788000D01*
X142445500Y-81788000D01*
X142445500Y-80738750D01*
X142699500Y-80738750D01*
X142699500Y-81788000D01*
X144320500Y-81788000D01*
X144320500Y-80738750D01*
X144574500Y-80738750D01*
X144574500Y-81788000D01*
X145411250Y-81788000D01*
X145570000Y-81629250D01*
X145573072Y-81215000D01*
X145560812Y-81090518D01*
X145524502Y-80970820D01*
X145465537Y-80860506D01*
X145386185Y-80763815D01*
X145289494Y-80684463D01*
X145203814Y-80638665D01*
X154165000Y-80638665D01*
X154165000Y-80921335D01*
X154220147Y-81198574D01*
X154328320Y-81459727D01*
X154485363Y-81694759D01*
X154685241Y-81894637D01*
X154920273Y-82051680D01*
X155181426Y-82159853D01*
X155458665Y-82215000D01*
X155741335Y-82215000D01*
X156018574Y-82159853D01*
X156279727Y-82051680D01*
X156514759Y-81894637D01*
X156714637Y-81694759D01*
X156870000Y-81462241D01*
X157025363Y-81694759D01*
X157225241Y-81894637D01*
X157460273Y-82051680D01*
X157721426Y-82159853D01*
X157998665Y-82215000D01*
X158281335Y-82215000D01*
X158558574Y-82159853D01*
X158819727Y-82051680D01*
X159054759Y-81894637D01*
X159254637Y-81694759D01*
X159410000Y-81462241D01*
X159565363Y-81694759D01*
X159765241Y-81894637D01*
X160000273Y-82051680D01*
X160261426Y-82159853D01*
X160538665Y-82215000D01*
X160821335Y-82215000D01*
X161098574Y-82159853D01*
X161359727Y-82051680D01*
X161594759Y-81894637D01*
X161794637Y-81694759D01*
X161950000Y-81462241D01*
X162105363Y-81694759D01*
X162305241Y-81894637D01*
X162540273Y-82051680D01*
X162801426Y-82159853D01*
X163078665Y-82215000D01*
X163361335Y-82215000D01*
X163638574Y-82159853D01*
X163899727Y-82051680D01*
X164134759Y-81894637D01*
X164334637Y-81694759D01*
X164490000Y-81462241D01*
X164645363Y-81694759D01*
X164845241Y-81894637D01*
X165080273Y-82051680D01*
X165341426Y-82159853D01*
X165618665Y-82215000D01*
X165901335Y-82215000D01*
X166178574Y-82159853D01*
X166439727Y-82051680D01*
X166674759Y-81894637D01*
X166874637Y-81694759D01*
X167031680Y-81459727D01*
X167139853Y-81198574D01*
X167195000Y-80921335D01*
X167195000Y-80638665D01*
X167139853Y-80361426D01*
X167031680Y-80100273D01*
X166874637Y-79865241D01*
X166674759Y-79665363D01*
X166439727Y-79508320D01*
X166178574Y-79400147D01*
X165901335Y-79345000D01*
X165618665Y-79345000D01*
X165341426Y-79400147D01*
X165080273Y-79508320D01*
X164845241Y-79665363D01*
X164645363Y-79865241D01*
X164490000Y-80097759D01*
X164334637Y-79865241D01*
X164134759Y-79665363D01*
X163899727Y-79508320D01*
X163638574Y-79400147D01*
X163361335Y-79345000D01*
X163078665Y-79345000D01*
X162801426Y-79400147D01*
X162540273Y-79508320D01*
X162305241Y-79665363D01*
X162105363Y-79865241D01*
X161950000Y-80097759D01*
X161794637Y-79865241D01*
X161594759Y-79665363D01*
X161359727Y-79508320D01*
X161098574Y-79400147D01*
X160821335Y-79345000D01*
X160538665Y-79345000D01*
X160261426Y-79400147D01*
X160000273Y-79508320D01*
X159765241Y-79665363D01*
X159565363Y-79865241D01*
X159410000Y-80097759D01*
X159254637Y-79865241D01*
X159054759Y-79665363D01*
X158819727Y-79508320D01*
X158558574Y-79400147D01*
X158281335Y-79345000D01*
X157998665Y-79345000D01*
X157721426Y-79400147D01*
X157460273Y-79508320D01*
X157225241Y-79665363D01*
X157025363Y-79865241D01*
X156870000Y-80097759D01*
X156714637Y-79865241D01*
X156514759Y-79665363D01*
X156279727Y-79508320D01*
X156018574Y-79400147D01*
X155741335Y-79345000D01*
X155458665Y-79345000D01*
X155181426Y-79400147D01*
X154920273Y-79508320D01*
X154685241Y-79665363D01*
X154485363Y-79865241D01*
X154328320Y-80100273D01*
X154220147Y-80361426D01*
X154165000Y-80638665D01*
X145203814Y-80638665D01*
X145179180Y-80625498D01*
X145059482Y-80589188D01*
X144935000Y-80576928D01*
X144733250Y-80580000D01*
X144574500Y-80738750D01*
X144320500Y-80738750D01*
X144161750Y-80580000D01*
X143960000Y-80576928D01*
X143835518Y-80589188D01*
X143715820Y-80625498D01*
X143605506Y-80684463D01*
X143510000Y-80762842D01*
X143414494Y-80684463D01*
X143304180Y-80625498D01*
X143184482Y-80589188D01*
X143060000Y-80576928D01*
X142858250Y-80580000D01*
X142699500Y-80738750D01*
X142445500Y-80738750D01*
X142286750Y-80580000D01*
X142085000Y-80576928D01*
X141960518Y-80589188D01*
X141840820Y-80625498D01*
X141730506Y-80684463D01*
X141633815Y-80763815D01*
X141554463Y-80860506D01*
X141495498Y-80970820D01*
X141459188Y-81090518D01*
X141446928Y-81215000D01*
X127517839Y-81215000D01*
X127661680Y-80999727D01*
X127769853Y-80738574D01*
X127825000Y-80461335D01*
X127825000Y-80178665D01*
X127769853Y-79901426D01*
X127661680Y-79640273D01*
X127504637Y-79405241D01*
X127304759Y-79205363D01*
X127072241Y-79050000D01*
X127304759Y-78894637D01*
X127504637Y-78694759D01*
X127660000Y-78462241D01*
X127815363Y-78694759D01*
X128015241Y-78894637D01*
X128250273Y-79051680D01*
X128511426Y-79159853D01*
X128788665Y-79215000D01*
X129071335Y-79215000D01*
X129348574Y-79159853D01*
X129609727Y-79051680D01*
X129844759Y-78894637D01*
X130044637Y-78694759D01*
X130200000Y-78462241D01*
X130355363Y-78694759D01*
X130555241Y-78894637D01*
X130790273Y-79051680D01*
X131051426Y-79159853D01*
X131328665Y-79215000D01*
X131611335Y-79215000D01*
X131888574Y-79159853D01*
X132149727Y-79051680D01*
X132384759Y-78894637D01*
X132584637Y-78694759D01*
X132740000Y-78462241D01*
X132895363Y-78694759D01*
X133095241Y-78894637D01*
X133330273Y-79051680D01*
X133591426Y-79159853D01*
X133868665Y-79215000D01*
X134151335Y-79215000D01*
X134428574Y-79159853D01*
X134689727Y-79051680D01*
X134924759Y-78894637D01*
X135124637Y-78694759D01*
X135280000Y-78462241D01*
X135435363Y-78694759D01*
X135635241Y-78894637D01*
X135870273Y-79051680D01*
X136131426Y-79159853D01*
X136408665Y-79215000D01*
X136691335Y-79215000D01*
X136968574Y-79159853D01*
X137229727Y-79051680D01*
X137464759Y-78894637D01*
X137664637Y-78694759D01*
X137820000Y-78462241D01*
X137975363Y-78694759D01*
X138175241Y-78894637D01*
X138410273Y-79051680D01*
X138671426Y-79159853D01*
X138948665Y-79215000D01*
X139231335Y-79215000D01*
X139508574Y-79159853D01*
X139769727Y-79051680D01*
X140004759Y-78894637D01*
X140204637Y-78694759D01*
X140360000Y-78462241D01*
X140515363Y-78694759D01*
X140715241Y-78894637D01*
X140950273Y-79051680D01*
X141211426Y-79159853D01*
X141488665Y-79215000D01*
X141771335Y-79215000D01*
X142048574Y-79159853D01*
X142309727Y-79051680D01*
X142544759Y-78894637D01*
X142744637Y-78694759D01*
X142900000Y-78462241D01*
X143055363Y-78694759D01*
X143255241Y-78894637D01*
X143490273Y-79051680D01*
X143751426Y-79159853D01*
X144028665Y-79215000D01*
X144311335Y-79215000D01*
X144588574Y-79159853D01*
X144849727Y-79051680D01*
X145084759Y-78894637D01*
X145284637Y-78694759D01*
X145440000Y-78462241D01*
X145595363Y-78694759D01*
X145795241Y-78894637D01*
X146030273Y-79051680D01*
X146291426Y-79159853D01*
X146568665Y-79215000D01*
X146851335Y-79215000D01*
X147128574Y-79159853D01*
X147389727Y-79051680D01*
X147624759Y-78894637D01*
X147824637Y-78694759D01*
X147980000Y-78462241D01*
X148135363Y-78694759D01*
X148335241Y-78894637D01*
X148570273Y-79051680D01*
X148831426Y-79159853D01*
X149108665Y-79215000D01*
X149391335Y-79215000D01*
X149668574Y-79159853D01*
X149929727Y-79051680D01*
X150164759Y-78894637D01*
X150364637Y-78694759D01*
X150520000Y-78462241D01*
X150675363Y-78694759D01*
X150875241Y-78894637D01*
X151110273Y-79051680D01*
X151371426Y-79159853D01*
X151648665Y-79215000D01*
X151931335Y-79215000D01*
X152208574Y-79159853D01*
X152469727Y-79051680D01*
X152704759Y-78894637D01*
X152904637Y-78694759D01*
X153060000Y-78462241D01*
X153215363Y-78694759D01*
X153415241Y-78894637D01*
X153650273Y-79051680D01*
X153911426Y-79159853D01*
X154188665Y-79215000D01*
X154471335Y-79215000D01*
X154748574Y-79159853D01*
X155009727Y-79051680D01*
X155244759Y-78894637D01*
X155444637Y-78694759D01*
X155600000Y-78462241D01*
X155755363Y-78694759D01*
X155955241Y-78894637D01*
X156190273Y-79051680D01*
X156451426Y-79159853D01*
X156728665Y-79215000D01*
X157011335Y-79215000D01*
X157288574Y-79159853D01*
X157549727Y-79051680D01*
X157784759Y-78894637D01*
X157984637Y-78694759D01*
X158140000Y-78462241D01*
X158295363Y-78694759D01*
X158495241Y-78894637D01*
X158730273Y-79051680D01*
X158991426Y-79159853D01*
X159268665Y-79215000D01*
X159551335Y-79215000D01*
X159828574Y-79159853D01*
X160089727Y-79051680D01*
X160324759Y-78894637D01*
X160524637Y-78694759D01*
X160680000Y-78462241D01*
X160835363Y-78694759D01*
X161035241Y-78894637D01*
X161270273Y-79051680D01*
X161531426Y-79159853D01*
X161808665Y-79215000D01*
X162091335Y-79215000D01*
X162368574Y-79159853D01*
X162629727Y-79051680D01*
X162864759Y-78894637D01*
X163064637Y-78694759D01*
X163220000Y-78462241D01*
X163375363Y-78694759D01*
X163575241Y-78894637D01*
X163810273Y-79051680D01*
X164071426Y-79159853D01*
X164348665Y-79215000D01*
X164631335Y-79215000D01*
X164908574Y-79159853D01*
X165169727Y-79051680D01*
X165404759Y-78894637D01*
X165604637Y-78694759D01*
X165760000Y-78462241D01*
X165915363Y-78694759D01*
X166115241Y-78894637D01*
X166350273Y-79051680D01*
X166611426Y-79159853D01*
X166888665Y-79215000D01*
X167171335Y-79215000D01*
X167448574Y-79159853D01*
X167709727Y-79051680D01*
X167944759Y-78894637D01*
X168144637Y-78694759D01*
X168300000Y-78462241D01*
X168455363Y-78694759D01*
G37*
G04 #@! TD.AperFunction*
D26*
X145260000Y-88169750D02*
X145256928Y-88584000D01*
X145269188Y-88708482D01*
X145305498Y-88828180D01*
X145364463Y-88938494D01*
X145443815Y-89035185D01*
X145540506Y-89114537D01*
X145650820Y-89173502D01*
X145770518Y-89209812D01*
X145849143Y-89217556D01*
X145783699Y-89283000D01*
X145147567Y-89283000D01*
X145155346Y-89268447D01*
X145174553Y-89205128D01*
X145198803Y-89125186D01*
X145209800Y-89013533D01*
X145209800Y-89013524D01*
X145213476Y-88976201D01*
X145209800Y-88938878D01*
X145209800Y-88096143D01*
X145259737Y-88035294D01*
X145272722Y-88011002D01*
X145418748Y-88011002D01*
X145260000Y-88169750D01*
G04 #@! TA.AperFunction,Conductor*
D27*
G36*
X145260000Y-88169750D02*
G01*
X145256928Y-88584000D01*
X145269188Y-88708482D01*
X145305498Y-88828180D01*
X145364463Y-88938494D01*
X145443815Y-89035185D01*
X145540506Y-89114537D01*
X145650820Y-89173502D01*
X145770518Y-89209812D01*
X145849143Y-89217556D01*
X145783699Y-89283000D01*
X145147567Y-89283000D01*
X145155346Y-89268447D01*
X145174553Y-89205128D01*
X145198803Y-89125186D01*
X145209800Y-89013533D01*
X145209800Y-89013524D01*
X145213476Y-88976201D01*
X145209800Y-88938878D01*
X145209800Y-88096143D01*
X145259737Y-88035294D01*
X145272722Y-88011002D01*
X145418748Y-88011002D01*
X145260000Y-88169750D01*
G37*
G04 #@! TD.AperFunction*
D26*
X141097000Y-85598000D02*
X141117000Y-85598000D01*
X141117000Y-85852000D01*
X141097000Y-85852000D01*
X141097000Y-87503000D01*
X141117000Y-87503000D01*
X141117000Y-87757000D01*
X141097000Y-87757000D01*
X141097000Y-88806250D01*
X141255750Y-88965000D01*
X141457500Y-88968072D01*
X141555729Y-88958398D01*
X141576795Y-89009256D01*
X141690063Y-89178774D01*
X141794289Y-89283000D01*
X139252803Y-89283000D01*
X138937874Y-88968072D01*
X139338750Y-88968072D01*
X139510785Y-88951128D01*
X139676209Y-88900947D01*
X139828664Y-88819458D01*
X139962292Y-88709792D01*
X139967508Y-88703436D01*
X140031315Y-88781185D01*
X140128006Y-88860537D01*
X140238320Y-88919502D01*
X140358018Y-88955812D01*
X140482500Y-88968072D01*
X140684250Y-88965000D01*
X140843000Y-88806250D01*
X140843000Y-87757000D01*
X140823000Y-87757000D01*
X140823000Y-87503000D01*
X140843000Y-87503000D01*
X140843000Y-85852000D01*
X140823000Y-85852000D01*
X140823000Y-85598000D01*
X140843000Y-85598000D01*
X140843000Y-85578000D01*
X141097000Y-85578000D01*
X141097000Y-85598000D01*
G04 #@! TA.AperFunction,Conductor*
D27*
G36*
X141097000Y-85598000D02*
G01*
X141117000Y-85598000D01*
X141117000Y-85852000D01*
X141097000Y-85852000D01*
X141097000Y-87503000D01*
X141117000Y-87503000D01*
X141117000Y-87757000D01*
X141097000Y-87757000D01*
X141097000Y-88806250D01*
X141255750Y-88965000D01*
X141457500Y-88968072D01*
X141555729Y-88958398D01*
X141576795Y-89009256D01*
X141690063Y-89178774D01*
X141794289Y-89283000D01*
X139252803Y-89283000D01*
X138937874Y-88968072D01*
X139338750Y-88968072D01*
X139510785Y-88951128D01*
X139676209Y-88900947D01*
X139828664Y-88819458D01*
X139962292Y-88709792D01*
X139967508Y-88703436D01*
X140031315Y-88781185D01*
X140128006Y-88860537D01*
X140238320Y-88919502D01*
X140358018Y-88955812D01*
X140482500Y-88968072D01*
X140684250Y-88965000D01*
X140843000Y-88806250D01*
X140843000Y-87757000D01*
X140823000Y-87757000D01*
X140823000Y-87503000D01*
X140843000Y-87503000D01*
X140843000Y-85852000D01*
X140823000Y-85852000D01*
X140823000Y-85598000D01*
X140843000Y-85598000D01*
X140843000Y-85578000D01*
X141097000Y-85578000D01*
X141097000Y-85598000D01*
G37*
G04 #@! TD.AperFunction*
D26*
X150897708Y-86804792D02*
X151005000Y-86892845D01*
X151005000Y-88116526D01*
X150917937Y-87986226D01*
X150773774Y-87842063D01*
X150604256Y-87728795D01*
X150415898Y-87650774D01*
X150215939Y-87611000D01*
X150012061Y-87611000D01*
X149812102Y-87650774D01*
X149623744Y-87728795D01*
X149454226Y-87842063D01*
X149410289Y-87886000D01*
X149383072Y-87886000D01*
X149383072Y-87427750D01*
X149366128Y-87255715D01*
X149315947Y-87090291D01*
X149248211Y-86963566D01*
X149308791Y-86995947D01*
X149474215Y-87046128D01*
X149646250Y-87063072D01*
X150133750Y-87063072D01*
X150305785Y-87046128D01*
X150471209Y-86995947D01*
X150623664Y-86914458D01*
X150757292Y-86804792D01*
X150827500Y-86719244D01*
X150897708Y-86804792D01*
G04 #@! TA.AperFunction,Conductor*
D27*
G36*
X150897708Y-86804792D02*
G01*
X151005000Y-86892845D01*
X151005000Y-88116526D01*
X150917937Y-87986226D01*
X150773774Y-87842063D01*
X150604256Y-87728795D01*
X150415898Y-87650774D01*
X150215939Y-87611000D01*
X150012061Y-87611000D01*
X149812102Y-87650774D01*
X149623744Y-87728795D01*
X149454226Y-87842063D01*
X149410289Y-87886000D01*
X149383072Y-87886000D01*
X149383072Y-87427750D01*
X149366128Y-87255715D01*
X149315947Y-87090291D01*
X149248211Y-86963566D01*
X149308791Y-86995947D01*
X149474215Y-87046128D01*
X149646250Y-87063072D01*
X150133750Y-87063072D01*
X150305785Y-87046128D01*
X150471209Y-86995947D01*
X150623664Y-86914458D01*
X150757292Y-86804792D01*
X150827500Y-86719244D01*
X150897708Y-86804792D01*
G37*
G04 #@! TD.AperFunction*
D26*
X146509500Y-87757000D02*
X146529500Y-87757000D01*
X146529500Y-88011000D01*
X146509500Y-88011000D01*
X146509500Y-88031000D01*
X146255500Y-88031000D01*
X146255500Y-88011000D01*
X146235500Y-88011000D01*
X146235500Y-87757000D01*
X146255500Y-87757000D01*
X146255500Y-87737000D01*
X146509500Y-87737000D01*
X146509500Y-87757000D01*
G04 #@! TA.AperFunction,Conductor*
D27*
G36*
X146509500Y-87757000D02*
G01*
X146529500Y-87757000D01*
X146529500Y-88011000D01*
X146509500Y-88011000D01*
X146509500Y-88031000D01*
X146255500Y-88031000D01*
X146255500Y-88011000D01*
X146235500Y-88011000D01*
X146235500Y-87757000D01*
X146255500Y-87757000D01*
X146255500Y-87737000D01*
X146509500Y-87737000D01*
X146509500Y-87757000D01*
G37*
G04 #@! TD.AperFunction*
D26*
X143605506Y-83145537D02*
X143715820Y-83204502D01*
X143762184Y-83218566D01*
X143637000Y-83343750D01*
X143637000Y-83470862D01*
X143580898Y-83575820D01*
X143544588Y-83695518D01*
X143532328Y-83820000D01*
X143532328Y-84602000D01*
X143487672Y-84602000D01*
X143487672Y-83820000D01*
X143475412Y-83695518D01*
X143439102Y-83575820D01*
X143383000Y-83470862D01*
X143383000Y-83343750D01*
X143257816Y-83218566D01*
X143304180Y-83204502D01*
X143414494Y-83145537D01*
X143510000Y-83067158D01*
X143605506Y-83145537D01*
G04 #@! TA.AperFunction,Conductor*
D27*
G36*
X143605506Y-83145537D02*
G01*
X143715820Y-83204502D01*
X143762184Y-83218566D01*
X143637000Y-83343750D01*
X143637000Y-83470862D01*
X143580898Y-83575820D01*
X143544588Y-83695518D01*
X143532328Y-83820000D01*
X143532328Y-84602000D01*
X143487672Y-84602000D01*
X143487672Y-83820000D01*
X143475412Y-83695518D01*
X143439102Y-83575820D01*
X143383000Y-83470862D01*
X143383000Y-83343750D01*
X143257816Y-83218566D01*
X143304180Y-83204502D01*
X143414494Y-83145537D01*
X143510000Y-83067158D01*
X143605506Y-83145537D01*
G37*
G04 #@! TD.AperFunction*
M02*
