G04 #@! TF.GenerationSoftware,KiCad,Pcbnew,(5.1.8-0-10_14)*
G04 #@! TF.CreationDate,2020-11-22T12:24:40+11:00*
G04 #@! TF.ProjectId,Phenobottle v18,5068656e-6f62-46f7-9474-6c6520763138,rev?*
G04 #@! TF.SameCoordinates,Original*
G04 #@! TF.FileFunction,Paste,Top*
G04 #@! TF.FilePolarity,Positive*
%FSLAX46Y46*%
G04 Gerber Fmt 4.6, Leading zero omitted, Abs format (unit mm)*
G04 Created by KiCad (PCBNEW (5.1.8-0-10_14)) date 2020-11-22 12:24:40*
%MOMM*%
%LPD*%
G01*
G04 APERTURE LIST*
%ADD10R,0.558800X1.270000*%
G04 APERTURE END LIST*
D10*
X144449800Y-87045800D03*
X142570200Y-87045800D03*
X142570200Y-84455000D03*
X143510000Y-84455000D03*
X144449800Y-84455000D03*
G36*
G01*
X157881500Y-98881250D02*
X157881500Y-97968750D01*
G75*
G02*
X158125250Y-97725000I243750J0D01*
G01*
X158612750Y-97725000D01*
G75*
G02*
X158856500Y-97968750I0J-243750D01*
G01*
X158856500Y-98881250D01*
G75*
G02*
X158612750Y-99125000I-243750J0D01*
G01*
X158125250Y-99125000D01*
G75*
G02*
X157881500Y-98881250I0J243750D01*
G01*
G37*
G36*
G01*
X156006500Y-98881250D02*
X156006500Y-97968750D01*
G75*
G02*
X156250250Y-97725000I243750J0D01*
G01*
X156737750Y-97725000D01*
G75*
G02*
X156981500Y-97968750I0J-243750D01*
G01*
X156981500Y-98881250D01*
G75*
G02*
X156737750Y-99125000I-243750J0D01*
G01*
X156250250Y-99125000D01*
G75*
G02*
X156006500Y-98881250I0J243750D01*
G01*
G37*
G36*
G01*
X140482500Y-86181250D02*
X140482500Y-85268750D01*
G75*
G02*
X140726250Y-85025000I243750J0D01*
G01*
X141213750Y-85025000D01*
G75*
G02*
X141457500Y-85268750I0J-243750D01*
G01*
X141457500Y-86181250D01*
G75*
G02*
X141213750Y-86425000I-243750J0D01*
G01*
X140726250Y-86425000D01*
G75*
G02*
X140482500Y-86181250I0J243750D01*
G01*
G37*
G36*
G01*
X138607500Y-86181250D02*
X138607500Y-85268750D01*
G75*
G02*
X138851250Y-85025000I243750J0D01*
G01*
X139338750Y-85025000D01*
G75*
G02*
X139582500Y-85268750I0J-243750D01*
G01*
X139582500Y-86181250D01*
G75*
G02*
X139338750Y-86425000I-243750J0D01*
G01*
X138851250Y-86425000D01*
G75*
G02*
X138607500Y-86181250I0J243750D01*
G01*
G37*
G36*
G01*
X140482500Y-84276250D02*
X140482500Y-83363750D01*
G75*
G02*
X140726250Y-83120000I243750J0D01*
G01*
X141213750Y-83120000D01*
G75*
G02*
X141457500Y-83363750I0J-243750D01*
G01*
X141457500Y-84276250D01*
G75*
G02*
X141213750Y-84520000I-243750J0D01*
G01*
X140726250Y-84520000D01*
G75*
G02*
X140482500Y-84276250I0J243750D01*
G01*
G37*
G36*
G01*
X138607500Y-84276250D02*
X138607500Y-83363750D01*
G75*
G02*
X138851250Y-83120000I243750J0D01*
G01*
X139338750Y-83120000D01*
G75*
G02*
X139582500Y-83363750I0J-243750D01*
G01*
X139582500Y-84276250D01*
G75*
G02*
X139338750Y-84520000I-243750J0D01*
G01*
X138851250Y-84520000D01*
G75*
G02*
X138607500Y-84276250I0J243750D01*
G01*
G37*
G36*
G01*
X151277500Y-86181250D02*
X151277500Y-85268750D01*
G75*
G02*
X151521250Y-85025000I243750J0D01*
G01*
X152008750Y-85025000D01*
G75*
G02*
X152252500Y-85268750I0J-243750D01*
G01*
X152252500Y-86181250D01*
G75*
G02*
X152008750Y-86425000I-243750J0D01*
G01*
X151521250Y-86425000D01*
G75*
G02*
X151277500Y-86181250I0J243750D01*
G01*
G37*
G36*
G01*
X149402500Y-86181250D02*
X149402500Y-85268750D01*
G75*
G02*
X149646250Y-85025000I243750J0D01*
G01*
X150133750Y-85025000D01*
G75*
G02*
X150377500Y-85268750I0J-243750D01*
G01*
X150377500Y-86181250D01*
G75*
G02*
X150133750Y-86425000I-243750J0D01*
G01*
X149646250Y-86425000D01*
G75*
G02*
X149402500Y-86181250I0J243750D01*
G01*
G37*
G36*
G01*
X147770000Y-86181250D02*
X147770000Y-85268750D01*
G75*
G02*
X148013750Y-85025000I243750J0D01*
G01*
X148501250Y-85025000D01*
G75*
G02*
X148745000Y-85268750I0J-243750D01*
G01*
X148745000Y-86181250D01*
G75*
G02*
X148501250Y-86425000I-243750J0D01*
G01*
X148013750Y-86425000D01*
G75*
G02*
X147770000Y-86181250I0J243750D01*
G01*
G37*
G36*
G01*
X145895000Y-86181250D02*
X145895000Y-85268750D01*
G75*
G02*
X146138750Y-85025000I243750J0D01*
G01*
X146626250Y-85025000D01*
G75*
G02*
X146870000Y-85268750I0J-243750D01*
G01*
X146870000Y-86181250D01*
G75*
G02*
X146626250Y-86425000I-243750J0D01*
G01*
X146138750Y-86425000D01*
G75*
G02*
X145895000Y-86181250I0J243750D01*
G01*
G37*
G36*
G01*
X146760250Y-102674000D02*
X145847750Y-102674000D01*
G75*
G02*
X145604000Y-102430250I0J243750D01*
G01*
X145604000Y-101942750D01*
G75*
G02*
X145847750Y-101699000I243750J0D01*
G01*
X146760250Y-101699000D01*
G75*
G02*
X147004000Y-101942750I0J-243750D01*
G01*
X147004000Y-102430250D01*
G75*
G02*
X146760250Y-102674000I-243750J0D01*
G01*
G37*
G36*
G01*
X146760250Y-104549000D02*
X145847750Y-104549000D01*
G75*
G02*
X145604000Y-104305250I0J243750D01*
G01*
X145604000Y-103817750D01*
G75*
G02*
X145847750Y-103574000I243750J0D01*
G01*
X146760250Y-103574000D01*
G75*
G02*
X147004000Y-103817750I0J-243750D01*
G01*
X147004000Y-104305250D01*
G75*
G02*
X146760250Y-104549000I-243750J0D01*
G01*
G37*
G36*
G01*
X157555250Y-102752500D02*
X156642750Y-102752500D01*
G75*
G02*
X156399000Y-102508750I0J243750D01*
G01*
X156399000Y-102021250D01*
G75*
G02*
X156642750Y-101777500I243750J0D01*
G01*
X157555250Y-101777500D01*
G75*
G02*
X157799000Y-102021250I0J-243750D01*
G01*
X157799000Y-102508750D01*
G75*
G02*
X157555250Y-102752500I-243750J0D01*
G01*
G37*
G36*
G01*
X157555250Y-104627500D02*
X156642750Y-104627500D01*
G75*
G02*
X156399000Y-104383750I0J243750D01*
G01*
X156399000Y-103896250D01*
G75*
G02*
X156642750Y-103652500I243750J0D01*
G01*
X157555250Y-103652500D01*
G75*
G02*
X157799000Y-103896250I0J-243750D01*
G01*
X157799000Y-104383750D01*
G75*
G02*
X157555250Y-104627500I-243750J0D01*
G01*
G37*
G36*
G01*
X124121000Y-102243000D02*
X123021000Y-102243000D01*
G75*
G02*
X122771000Y-101993000I0J250000D01*
G01*
X122771000Y-99893000D01*
G75*
G02*
X123021000Y-99643000I250000J0D01*
G01*
X124121000Y-99643000D01*
G75*
G02*
X124371000Y-99893000I0J-250000D01*
G01*
X124371000Y-101993000D01*
G75*
G02*
X124121000Y-102243000I-250000J0D01*
G01*
G37*
G36*
G01*
X124121000Y-105843000D02*
X123021000Y-105843000D01*
G75*
G02*
X122771000Y-105593000I0J250000D01*
G01*
X122771000Y-103493000D01*
G75*
G02*
X123021000Y-103243000I250000J0D01*
G01*
X124121000Y-103243000D01*
G75*
G02*
X124371000Y-103493000I0J-250000D01*
G01*
X124371000Y-105593000D01*
G75*
G02*
X124121000Y-105843000I-250000J0D01*
G01*
G37*
G36*
G01*
X143960000Y-82371250D02*
X143960000Y-81458750D01*
G75*
G02*
X144203750Y-81215000I243750J0D01*
G01*
X144691250Y-81215000D01*
G75*
G02*
X144935000Y-81458750I0J-243750D01*
G01*
X144935000Y-82371250D01*
G75*
G02*
X144691250Y-82615000I-243750J0D01*
G01*
X144203750Y-82615000D01*
G75*
G02*
X143960000Y-82371250I0J243750D01*
G01*
G37*
G36*
G01*
X142085000Y-82371250D02*
X142085000Y-81458750D01*
G75*
G02*
X142328750Y-81215000I243750J0D01*
G01*
X142816250Y-81215000D01*
G75*
G02*
X143060000Y-81458750I0J-243750D01*
G01*
X143060000Y-82371250D01*
G75*
G02*
X142816250Y-82615000I-243750J0D01*
G01*
X142328750Y-82615000D01*
G75*
G02*
X142085000Y-82371250I0J243750D01*
G01*
G37*
G36*
G01*
X139582500Y-87173750D02*
X139582500Y-88086250D01*
G75*
G02*
X139338750Y-88330000I-243750J0D01*
G01*
X138851250Y-88330000D01*
G75*
G02*
X138607500Y-88086250I0J243750D01*
G01*
X138607500Y-87173750D01*
G75*
G02*
X138851250Y-86930000I243750J0D01*
G01*
X139338750Y-86930000D01*
G75*
G02*
X139582500Y-87173750I0J-243750D01*
G01*
G37*
G36*
G01*
X141457500Y-87173750D02*
X141457500Y-88086250D01*
G75*
G02*
X141213750Y-88330000I-243750J0D01*
G01*
X140726250Y-88330000D01*
G75*
G02*
X140482500Y-88086250I0J243750D01*
G01*
X140482500Y-87173750D01*
G75*
G02*
X140726250Y-86930000I243750J0D01*
G01*
X141213750Y-86930000D01*
G75*
G02*
X141457500Y-87173750I0J-243750D01*
G01*
G37*
G36*
G01*
X147770000Y-88340250D02*
X147770000Y-87427750D01*
G75*
G02*
X148013750Y-87184000I243750J0D01*
G01*
X148501250Y-87184000D01*
G75*
G02*
X148745000Y-87427750I0J-243750D01*
G01*
X148745000Y-88340250D01*
G75*
G02*
X148501250Y-88584000I-243750J0D01*
G01*
X148013750Y-88584000D01*
G75*
G02*
X147770000Y-88340250I0J243750D01*
G01*
G37*
G36*
G01*
X145895000Y-88340250D02*
X145895000Y-87427750D01*
G75*
G02*
X146138750Y-87184000I243750J0D01*
G01*
X146626250Y-87184000D01*
G75*
G02*
X146870000Y-87427750I0J-243750D01*
G01*
X146870000Y-88340250D01*
G75*
G02*
X146626250Y-88584000I-243750J0D01*
G01*
X146138750Y-88584000D01*
G75*
G02*
X145895000Y-88340250I0J243750D01*
G01*
G37*
G36*
G01*
X147770000Y-84276250D02*
X147770000Y-83363750D01*
G75*
G02*
X148013750Y-83120000I243750J0D01*
G01*
X148501250Y-83120000D01*
G75*
G02*
X148745000Y-83363750I0J-243750D01*
G01*
X148745000Y-84276250D01*
G75*
G02*
X148501250Y-84520000I-243750J0D01*
G01*
X148013750Y-84520000D01*
G75*
G02*
X147770000Y-84276250I0J243750D01*
G01*
G37*
G36*
G01*
X145895000Y-84276250D02*
X145895000Y-83363750D01*
G75*
G02*
X146138750Y-83120000I243750J0D01*
G01*
X146626250Y-83120000D01*
G75*
G02*
X146870000Y-83363750I0J-243750D01*
G01*
X146870000Y-84276250D01*
G75*
G02*
X146626250Y-84520000I-243750J0D01*
G01*
X146138750Y-84520000D01*
G75*
G02*
X145895000Y-84276250I0J243750D01*
G01*
G37*
M02*
