M48
; DRILL file {KiCad (5.1.8-0-10_14)} date Sunday, December 27, 2020 at 09:30:51 AM
; FORMAT={-:-/ absolute / inch / decimal}
; #@! TF.CreationDate,2020-12-27T09:30:51+11:00
; #@! TF.GenerationSoftware,Kicad,Pcbnew,(5.1.8-0-10_14)
; #@! TF.FileFunction,Plated,1,2,PTH
FMAT,2
INCH
T1C0.0157
T2C0.0299
T3C0.0394
T4C0.0433
T5C0.0450
T6C0.0520
T7C0.1260
%
G90
G05
T1
X4.1Y-1.37
X4.16Y-2.65
X4.16Y-2.7
X4.16Y-2.75
X4.18Y-1.37
X4.21Y-2.65
X4.21Y-2.7
X4.21Y-2.75
X4.26Y-1.37
X4.26Y-2.75
X4.31Y-2.75
X4.36Y-2.75
X4.41Y-2.75
X4.55Y-2.28
X4.58Y-2.06
X4.58Y-2.12
X4.59Y-1.42
X4.59Y-1.61
X4.67Y-2.14
X4.68Y-2.61
X4.69Y-2.45
X4.72Y-2.3
X4.72Y-2.55
X4.73Y-2.48
X4.73Y-2.63
X4.96Y-1.9436
X4.96Y-2.41
X4.96Y-2.59
X4.96Y-2.64
X4.96Y-2.73
X4.97Y-2.36
X4.99Y-2.03
X5.03Y-2.35
X5.03Y-2.48
X5.03Y-2.73
X5.08Y-2.5
X5.1Y-2.7
X5.11Y-1.91
X5.14Y-2.33
X5.16Y-1.92
X5.21Y-2.5
X5.22Y-1.76
X5.25Y-2.3
X5.26Y-1.92
X5.26Y-2.5
X5.29Y-1.76
X5.3Y-2.77
X5.34Y-2.73
X5.34Y-2.77
X5.35Y-1.76
X5.37Y-2.14
X5.4Y-2.11
T3
X4.24Y-2.52
X4.34Y-2.52
T4
X4.07Y-2.22
X4.07Y-2.32
X4.07Y-2.42
X4.07Y-2.52
X4.07Y-2.62
X4.07Y-2.72
X4.07Y-2.82
X4.17Y-2.22
X4.17Y-2.82
X4.27Y-2.22
X4.27Y-2.82
X4.37Y-2.22
X4.37Y-2.82
X4.47Y-2.22
X4.47Y-2.82
X4.57Y-2.22
X4.57Y-2.82
X4.67Y-2.22
X4.67Y-2.82
X4.77Y-2.22
X4.77Y-2.82
X4.87Y-2.22
X4.87Y-2.82
X4.97Y-2.22
X4.97Y-2.82
X5.07Y-2.22
X5.07Y-2.82
X5.17Y-2.22
X5.17Y-2.82
X5.27Y-2.22
X5.27Y-2.82
X5.37Y-2.22
X5.37Y-2.82
T5
X4.69Y-1.84
X4.69Y-1.94
X4.69Y-2.04
T6
X4.49Y-1.52
X4.59Y-1.52
X4.69Y-1.52
X4.28Y-1.81
X4.28Y-2.0069
T7
X4.7244Y-3.02
X4.7244Y-1.1811
T2
G00X4.9145Y-1.5951
M15
G01X4.9145Y-1.5049
M16
G05
G00X4.9749Y-1.3669
M15
G01X5.0651Y-1.3669
M16
G05
G00X5.148Y-1.5951
M15
G01X5.148Y-1.5049
M16
G05
T0
M30
