%TF.GenerationSoftware,KiCad,Pcbnew,(5.1.8-0-10_14)*%
%TF.CreationDate,2020-12-27T09:30:55+11:00*%
%TF.ProjectId,Open-JIP(KiCad)_T3.2,4f70656e-2d4a-4495-9028-4b6943616429,rev?*%
%TF.SameCoordinates,Original*%
%TF.FileFunction,Copper,L2,Bot*%
%TF.FilePolarity,Positive*%
%FSLAX46Y46*%
G04 Gerber Fmt 4.6, Leading zero omitted, Abs format (unit mm)*
G04 Created by KiCad (PCBNEW (5.1.8-0-10_14)) date 2020-12-27 09:30:55*
%MOMM*%
%LPD*%
G01*
G04 APERTURE LIST*
%TA.AperFunction,ComponentPad*%
%ADD10C,5.600000*%
%TD*%
%TA.AperFunction,ComponentPad*%
%ADD11C,1.600000*%
%TD*%
%TA.AperFunction,ComponentPad*%
%ADD12R,1.600000X1.600000*%
%TD*%
%TA.AperFunction,ComponentPad*%
%ADD13R,1.651000X1.651000*%
%TD*%
%TA.AperFunction,ComponentPad*%
%ADD14C,1.651000*%
%TD*%
%TA.AperFunction,ComponentPad*%
%ADD15C,2.000000*%
%TD*%
%TA.AperFunction,ComponentPad*%
%ADD16O,3.800000X1.900000*%
%TD*%
%TA.AperFunction,ComponentPad*%
%ADD17O,1.900000X3.800000*%
%TD*%
%TA.AperFunction,ComponentPad*%
%ADD18R,3.960000X1.980000*%
%TD*%
%TA.AperFunction,ComponentPad*%
%ADD19O,3.960000X1.980000*%
%TD*%
%TA.AperFunction,ComponentPad*%
%ADD20R,1.980000X1.980000*%
%TD*%
%TA.AperFunction,ComponentPad*%
%ADD21C,1.980000*%
%TD*%
%TA.AperFunction,ViaPad*%
%ADD22C,0.800000*%
%TD*%
%TA.AperFunction,Conductor*%
%ADD23C,0.250000*%
%TD*%
%TA.AperFunction,Conductor*%
%ADD24C,0.254000*%
%TD*%
%TA.AperFunction,Conductor*%
%ADD25C,0.100000*%
%TD*%
G04 APERTURE END LIST*
D10*
%TO.P,REF\u002A\u002A,1*%
%TO.N,N/C*%
X120000000Y-76708000D03*
%TD*%
%TO.P,REF\u002A\u002A,1*%
%TO.N,N/C*%
X120000000Y-30000000D03*
%TD*%
D11*
%TO.P,U5,17*%
%TO.N,Net-(U5-Pad17)*%
X103378000Y-64008000D03*
%TO.P,U5,18*%
%TO.N,Net-(U5-Pad18)*%
X103378000Y-66548000D03*
%TO.P,U5,19*%
%TO.N,Net-(U5-Pad19)*%
X103378000Y-69088000D03*
%TO.P,U5,20*%
%TO.N,Net-(U5-Pad20)*%
X103378000Y-71628000D03*
%TO.P,U5,16*%
%TO.N,Net-(U5-Pad16)*%
X103378000Y-61468000D03*
%TO.P,U5,15*%
%TO.N,Net-(U5-Pad15)*%
X103378000Y-58928000D03*
%TO.P,U5,14*%
%TO.N,Net-(U5-Pad14)*%
X103378000Y-56388000D03*
%TO.P,U5,21*%
%TO.N,Net-(U5-Pad21)*%
X105918000Y-71628000D03*
%TO.P,U5,22*%
%TO.N,Net-(U5-Pad22)*%
X108458000Y-71628000D03*
%TO.P,U5,23*%
%TO.N,Net-(U5-Pad23)*%
X110998000Y-71628000D03*
%TO.P,U5,24*%
%TO.N,FluoroRead*%
X113538000Y-71628000D03*
%TO.P,U5,25*%
%TO.N,Net-(U5-Pad25)*%
X116078000Y-71628000D03*
%TO.P,U5,26*%
%TO.N,Net-(U5-Pad26)*%
X118618000Y-71628000D03*
%TO.P,U5,27*%
%TO.N,FluoroGain3*%
X121158000Y-71628000D03*
%TO.P,U5,28*%
%TO.N,FluoroGain2*%
X123698000Y-71628000D03*
%TO.P,U5,29*%
%TO.N,FluoroGain4*%
X126238000Y-71628000D03*
%TO.P,U5,30*%
%TO.N,FluoroGain1*%
X128778000Y-71628000D03*
%TO.P,U5,31*%
%TO.N,+3V3*%
X131318000Y-71628000D03*
%TO.P,U5,32*%
%TO.N,GNDA*%
X133858000Y-71628000D03*
%TO.P,U5,33*%
%TO.N,+5V*%
X136398000Y-71628000D03*
%TO.P,U5,13*%
%TO.N,Net-(U5-Pad13)*%
X105918000Y-56388000D03*
%TO.P,U5,12*%
%TO.N,Net-(U5-Pad12)*%
X108458000Y-56388000D03*
%TO.P,U5,11*%
%TO.N,Net-(U5-Pad11)*%
X110998000Y-56388000D03*
%TO.P,U5,10*%
%TO.N,Net-(U5-Pad10)*%
X113538000Y-56388000D03*
%TO.P,U5,9*%
%TO.N,Net-(U5-Pad9)*%
X116078000Y-56388000D03*
%TO.P,U5,8*%
%TO.N,ActinicGain3*%
X118618000Y-56388000D03*
%TO.P,U5,7*%
%TO.N,ActinicGain2*%
X121158000Y-56388000D03*
%TO.P,U5,6*%
%TO.N,ActinicGain4*%
X123698000Y-56388000D03*
%TO.P,U5,5*%
%TO.N,ActinicGain1*%
X126238000Y-56388000D03*
%TO.P,U5,4*%
%TO.N,Net-(U5-Pad4)*%
X128778000Y-56388000D03*
%TO.P,U5,3*%
%TO.N,Net-(U5-Pad3)*%
X131318000Y-56388000D03*
%TO.P,U5,2*%
%TO.N,Net-(U5-Pad2)*%
X133858000Y-56388000D03*
D12*
%TO.P,U5,1*%
%TO.N,GND*%
X136398000Y-56388000D03*
%TD*%
D13*
%TO.P,CR1,1*%
%TO.N,/TrigOut*%
X119126000Y-46736000D03*
D14*
%TO.P,CR1,2*%
%TO.N,Net-(C6-Pad2)*%
X119126000Y-49276000D03*
%TO.P,CR1,3*%
%TO.N,GND*%
X119126000Y-51816000D03*
%TD*%
D15*
%TO.P,D1,1*%
%TO.N,GNDA*%
X107696000Y-64008000D03*
%TO.P,D1,2*%
%TO.N,/-IN*%
X110236000Y-64008000D03*
%TD*%
D16*
%TO.P,J1,3*%
%TO.N,GND*%
X127508000Y-34720000D03*
D17*
%TO.P,J1,2*%
X130758000Y-39370000D03*
%TO.P,J1,1*%
%TO.N,+15V*%
X124828000Y-39370000D03*
%TD*%
D18*
%TO.P,J2,1*%
%TO.N,+12V*%
X108712000Y-45974000D03*
D19*
%TO.P,J2,2*%
%TO.N,Net-(C6-Pad2)*%
X108712000Y-50974000D03*
%TD*%
D20*
%TO.P,U2,1*%
%TO.N,+15V*%
X119126000Y-38608000D03*
D21*
%TO.P,U2,2*%
%TO.N,GND*%
X116586000Y-38608000D03*
%TO.P,U2,3*%
%TO.N,+12V*%
X114046000Y-38608000D03*
%TD*%
D22*
%TO.N,GNDA*%
X115570000Y-57912000D03*
X126238000Y-59944000D03*
X125984000Y-69342000D03*
X127762000Y-69342000D03*
X134620000Y-70358000D03*
X135636000Y-69342000D03*
X135636000Y-70358000D03*
X105664000Y-68580000D03*
X106934000Y-68580000D03*
X105664000Y-69850000D03*
X106934000Y-69850000D03*
X108204000Y-69850000D03*
X109474000Y-69850000D03*
X110744000Y-69850000D03*
X112014000Y-69850000D03*
X105664000Y-67310000D03*
X106934000Y-67310000D03*
X119126000Y-62230000D03*
X118872000Y-66294000D03*
X120142000Y-66802000D03*
X125984000Y-67056000D03*
X125984000Y-61214000D03*
X127762000Y-59690000D03*
X130556000Y-59182000D03*
%TO.N,GND*%
X136398000Y-54356000D03*
X137160000Y-53594000D03*
X116332000Y-52324000D03*
X116332000Y-53848000D03*
X118618000Y-54356000D03*
X116586000Y-40894000D03*
X116586000Y-36068000D03*
X134366000Y-44704000D03*
X135890000Y-44704000D03*
X108204000Y-34798000D03*
X106172000Y-34798000D03*
X104140000Y-34798000D03*
%TO.N,/-IN*%
X119888000Y-64770000D03*
X120142000Y-62992000D03*
%TO.N,+3V3*%
X119888000Y-58420000D03*
X133350000Y-58420000D03*
%TO.N,Net-(R7-Pad2)*%
X125984000Y-49368000D03*
X132588000Y-44704000D03*
%TO.N,Net-(R9-Pad2)*%
X132334000Y-63500000D03*
X125984000Y-65786000D03*
%TO.N,Net-(R10-Pad2)*%
X126746000Y-51562000D03*
X133604000Y-48768000D03*
%TO.N,Net-(R11-Pad2)*%
X133604000Y-63500000D03*
X129540000Y-68580000D03*
%TO.N,ActinicGain2*%
X131064000Y-48768000D03*
%TO.N,ActinicGain3*%
X129794000Y-48514000D03*
%TO.N,FluoroGain3*%
X127762000Y-62992000D03*
%TO.N,FluoroGain2*%
X129032000Y-63500000D03*
%TD*%
D23*
%TO.N,/-IN*%
X110236000Y-64008000D02*
X119126000Y-64008000D01*
X119126000Y-64008000D02*
X119888000Y-64770000D01*
X119126000Y-64008000D02*
X120142000Y-62992000D01*
%TO.N,+3V3*%
X119888000Y-58420000D02*
X133350000Y-58420000D01*
%TO.N,Net-(R7-Pad2)*%
X125984000Y-49368000D02*
X125984000Y-47244000D01*
X125984000Y-47244000D02*
X128524000Y-44704000D01*
X128524000Y-44704000D02*
X132588000Y-44704000D01*
%TO.N,Net-(R9-Pad2)*%
X132334000Y-63500000D02*
X132334000Y-64262000D01*
X132334000Y-64262000D02*
X130810000Y-65786000D01*
X130810000Y-65786000D02*
X125984000Y-65786000D01*
%TO.N,Net-(R10-Pad2)*%
X126746000Y-51562000D02*
X127254000Y-51054000D01*
X127254000Y-51054000D02*
X127254000Y-47752000D01*
X127254000Y-47752000D02*
X127762000Y-47244000D01*
X127762000Y-47244000D02*
X132080000Y-47244000D01*
X132080000Y-47244000D02*
X133604000Y-48768000D01*
%TO.N,Net-(R11-Pad2)*%
X133604000Y-63500000D02*
X133604000Y-64516000D01*
X133604000Y-64516000D02*
X129540000Y-68580000D01*
%TO.N,ActinicGain2*%
X131064000Y-48768000D02*
X130302000Y-49530000D01*
X130302000Y-49530000D02*
X130302000Y-52324000D01*
X130302000Y-52324000D02*
X127762000Y-54864000D01*
X122682000Y-54864000D02*
X121158000Y-56388000D01*
X127762000Y-54864000D02*
X122682000Y-54864000D01*
%TO.N,ActinicGain3*%
X127254000Y-54356000D02*
X120650000Y-54356000D01*
X129286000Y-52324000D02*
X127254000Y-54356000D01*
X120650000Y-54356000D02*
X118618000Y-56388000D01*
X129286000Y-49022000D02*
X129286000Y-52324000D01*
X129794000Y-48514000D02*
X129286000Y-49022000D01*
%TO.N,FluoroGain3*%
X127762000Y-62992000D02*
X126238000Y-62992000D01*
X126238000Y-62992000D02*
X121158000Y-68072000D01*
X121158000Y-68072000D02*
X121158000Y-71628000D01*
%TO.N,FluoroGain2*%
X129032000Y-63500000D02*
X128524000Y-64008000D01*
X128524000Y-64008000D02*
X126238000Y-64008000D01*
X123698000Y-66548000D02*
X123698000Y-71628000D01*
X126238000Y-64008000D02*
X123698000Y-66548000D01*
%TD*%
D24*
%TO.N,GNDA*%
X117503363Y-57302759D02*
X117703241Y-57502637D01*
X117938273Y-57659680D01*
X118199426Y-57767853D01*
X118476665Y-57823000D01*
X118759335Y-57823000D01*
X119036574Y-57767853D01*
X119104623Y-57739666D01*
X119084063Y-57760226D01*
X118970795Y-57929744D01*
X118892774Y-58118102D01*
X118853000Y-58318061D01*
X118853000Y-58521939D01*
X118892774Y-58721898D01*
X118970795Y-58910256D01*
X119084063Y-59079774D01*
X119228226Y-59223937D01*
X119397744Y-59337205D01*
X119586102Y-59415226D01*
X119786061Y-59455000D01*
X119989939Y-59455000D01*
X120189898Y-59415226D01*
X120378256Y-59337205D01*
X120547774Y-59223937D01*
X120591711Y-59180000D01*
X132646289Y-59180000D01*
X132690226Y-59223937D01*
X132859744Y-59337205D01*
X133048102Y-59415226D01*
X133248061Y-59455000D01*
X133451939Y-59455000D01*
X133651898Y-59415226D01*
X133840256Y-59337205D01*
X134009774Y-59223937D01*
X134153937Y-59079774D01*
X134267205Y-58910256D01*
X134345226Y-58721898D01*
X134385000Y-58521939D01*
X134385000Y-58318061D01*
X134345226Y-58118102D01*
X134267205Y-57929744D01*
X134172823Y-57788491D01*
X134276574Y-57767853D01*
X134537727Y-57659680D01*
X134772759Y-57502637D01*
X134971357Y-57304039D01*
X134972188Y-57312482D01*
X135008498Y-57432180D01*
X135067463Y-57542494D01*
X135146815Y-57639185D01*
X135243506Y-57718537D01*
X135353820Y-57777502D01*
X135473518Y-57813812D01*
X135598000Y-57826072D01*
X136271000Y-57826072D01*
X136271000Y-70193000D01*
X136256665Y-70193000D01*
X135979426Y-70248147D01*
X135718273Y-70356320D01*
X135483241Y-70513363D01*
X135283363Y-70713241D01*
X135127085Y-70947128D01*
X135094671Y-70886486D01*
X134850702Y-70814903D01*
X134160278Y-71505327D01*
X133555722Y-71505327D01*
X132865298Y-70814903D01*
X132621329Y-70886486D01*
X132590806Y-70950992D01*
X132589680Y-70948273D01*
X132432637Y-70713241D01*
X132354694Y-70635298D01*
X133044903Y-70635298D01*
X133858000Y-71448395D01*
X134671097Y-70635298D01*
X134599514Y-70391329D01*
X134344004Y-70270429D01*
X134069816Y-70201700D01*
X133787488Y-70187783D01*
X133507870Y-70229213D01*
X133241708Y-70324397D01*
X133116486Y-70391329D01*
X133044903Y-70635298D01*
X132354694Y-70635298D01*
X132232759Y-70513363D01*
X131997727Y-70356320D01*
X131736574Y-70248147D01*
X131459335Y-70193000D01*
X131176665Y-70193000D01*
X130899426Y-70248147D01*
X130638273Y-70356320D01*
X130403241Y-70513363D01*
X130203363Y-70713241D01*
X130048000Y-70945759D01*
X129892637Y-70713241D01*
X129692759Y-70513363D01*
X129457727Y-70356320D01*
X129196574Y-70248147D01*
X128919335Y-70193000D01*
X128636665Y-70193000D01*
X128359426Y-70248147D01*
X128098273Y-70356320D01*
X127863241Y-70513363D01*
X127663363Y-70713241D01*
X127508000Y-70945759D01*
X127352637Y-70713241D01*
X127152759Y-70513363D01*
X126917727Y-70356320D01*
X126656574Y-70248147D01*
X126379335Y-70193000D01*
X126096665Y-70193000D01*
X125819426Y-70248147D01*
X125558273Y-70356320D01*
X125323241Y-70513363D01*
X125123363Y-70713241D01*
X124968000Y-70945759D01*
X124812637Y-70713241D01*
X124612759Y-70513363D01*
X124458000Y-70409957D01*
X124458000Y-66862801D01*
X125060278Y-66260523D01*
X125066795Y-66276256D01*
X125180063Y-66445774D01*
X125324226Y-66589937D01*
X125493744Y-66703205D01*
X125682102Y-66781226D01*
X125882061Y-66821000D01*
X126085939Y-66821000D01*
X126285898Y-66781226D01*
X126474256Y-66703205D01*
X126643774Y-66589937D01*
X126687711Y-66546000D01*
X130499199Y-66546000D01*
X129500199Y-67545000D01*
X129438061Y-67545000D01*
X129238102Y-67584774D01*
X129049744Y-67662795D01*
X128880226Y-67776063D01*
X128736063Y-67920226D01*
X128622795Y-68089744D01*
X128544774Y-68278102D01*
X128505000Y-68478061D01*
X128505000Y-68681939D01*
X128544774Y-68881898D01*
X128622795Y-69070256D01*
X128736063Y-69239774D01*
X128880226Y-69383937D01*
X129049744Y-69497205D01*
X129238102Y-69575226D01*
X129438061Y-69615000D01*
X129641939Y-69615000D01*
X129841898Y-69575226D01*
X130030256Y-69497205D01*
X130199774Y-69383937D01*
X130343937Y-69239774D01*
X130457205Y-69070256D01*
X130535226Y-68881898D01*
X130575000Y-68681939D01*
X130575000Y-68619801D01*
X134115003Y-65079799D01*
X134144001Y-65056001D01*
X134180930Y-65011003D01*
X134238974Y-64940277D01*
X134309546Y-64808247D01*
X134317367Y-64782463D01*
X134353003Y-64664986D01*
X134364000Y-64553333D01*
X134364000Y-64553323D01*
X134367676Y-64516000D01*
X134364000Y-64478677D01*
X134364000Y-64203711D01*
X134407937Y-64159774D01*
X134521205Y-63990256D01*
X134599226Y-63801898D01*
X134639000Y-63601939D01*
X134639000Y-63398061D01*
X134599226Y-63198102D01*
X134521205Y-63009744D01*
X134407937Y-62840226D01*
X134263774Y-62696063D01*
X134094256Y-62582795D01*
X133905898Y-62504774D01*
X133705939Y-62465000D01*
X133502061Y-62465000D01*
X133302102Y-62504774D01*
X133113744Y-62582795D01*
X132969000Y-62679510D01*
X132824256Y-62582795D01*
X132635898Y-62504774D01*
X132435939Y-62465000D01*
X132232061Y-62465000D01*
X132032102Y-62504774D01*
X131843744Y-62582795D01*
X131674226Y-62696063D01*
X131530063Y-62840226D01*
X131416795Y-63009744D01*
X131338774Y-63198102D01*
X131299000Y-63398061D01*
X131299000Y-63601939D01*
X131338774Y-63801898D01*
X131416795Y-63990256D01*
X131462516Y-64058682D01*
X130495199Y-65026000D01*
X126687711Y-65026000D01*
X126643774Y-64982063D01*
X126474256Y-64868795D01*
X126458524Y-64862279D01*
X126552803Y-64768000D01*
X128486678Y-64768000D01*
X128524000Y-64771676D01*
X128561322Y-64768000D01*
X128561333Y-64768000D01*
X128672986Y-64757003D01*
X128816247Y-64713546D01*
X128948276Y-64642974D01*
X129064001Y-64548001D01*
X129074671Y-64535000D01*
X129133939Y-64535000D01*
X129333898Y-64495226D01*
X129522256Y-64417205D01*
X129691774Y-64303937D01*
X129835937Y-64159774D01*
X129949205Y-63990256D01*
X130027226Y-63801898D01*
X130067000Y-63601939D01*
X130067000Y-63398061D01*
X130027226Y-63198102D01*
X129949205Y-63009744D01*
X129835937Y-62840226D01*
X129691774Y-62696063D01*
X129522256Y-62582795D01*
X129333898Y-62504774D01*
X129133939Y-62465000D01*
X128930061Y-62465000D01*
X128730102Y-62504774D01*
X128687730Y-62522325D01*
X128679205Y-62501744D01*
X128565937Y-62332226D01*
X128421774Y-62188063D01*
X128252256Y-62074795D01*
X128063898Y-61996774D01*
X127863939Y-61957000D01*
X127660061Y-61957000D01*
X127460102Y-61996774D01*
X127271744Y-62074795D01*
X127102226Y-62188063D01*
X127058289Y-62232000D01*
X126275323Y-62232000D01*
X126238000Y-62228324D01*
X126200677Y-62232000D01*
X126200667Y-62232000D01*
X126089014Y-62242997D01*
X125945753Y-62286454D01*
X125813723Y-62357026D01*
X125749127Y-62410039D01*
X125697999Y-62451999D01*
X125674201Y-62480997D01*
X120647003Y-67508196D01*
X120617999Y-67531999D01*
X120574688Y-67584774D01*
X120523026Y-67647724D01*
X120490729Y-67708147D01*
X120452454Y-67779754D01*
X120408997Y-67923015D01*
X120398000Y-68034668D01*
X120398000Y-68034678D01*
X120394324Y-68072000D01*
X120398000Y-68109323D01*
X120398001Y-70409956D01*
X120243241Y-70513363D01*
X120043363Y-70713241D01*
X119888000Y-70945759D01*
X119732637Y-70713241D01*
X119532759Y-70513363D01*
X119297727Y-70356320D01*
X119036574Y-70248147D01*
X118759335Y-70193000D01*
X118476665Y-70193000D01*
X118199426Y-70248147D01*
X117938273Y-70356320D01*
X117703241Y-70513363D01*
X117503363Y-70713241D01*
X117348000Y-70945759D01*
X117192637Y-70713241D01*
X116992759Y-70513363D01*
X116757727Y-70356320D01*
X116496574Y-70248147D01*
X116219335Y-70193000D01*
X115936665Y-70193000D01*
X115659426Y-70248147D01*
X115398273Y-70356320D01*
X115163241Y-70513363D01*
X114963363Y-70713241D01*
X114808000Y-70945759D01*
X114652637Y-70713241D01*
X114452759Y-70513363D01*
X114217727Y-70356320D01*
X113956574Y-70248147D01*
X113679335Y-70193000D01*
X113396665Y-70193000D01*
X113119426Y-70248147D01*
X112858273Y-70356320D01*
X112623241Y-70513363D01*
X112423363Y-70713241D01*
X112268000Y-70945759D01*
X112112637Y-70713241D01*
X111912759Y-70513363D01*
X111677727Y-70356320D01*
X111416574Y-70248147D01*
X111139335Y-70193000D01*
X110856665Y-70193000D01*
X110579426Y-70248147D01*
X110318273Y-70356320D01*
X110083241Y-70513363D01*
X109883363Y-70713241D01*
X109728000Y-70945759D01*
X109572637Y-70713241D01*
X109372759Y-70513363D01*
X109137727Y-70356320D01*
X108876574Y-70248147D01*
X108599335Y-70193000D01*
X108316665Y-70193000D01*
X108039426Y-70248147D01*
X107778273Y-70356320D01*
X107543241Y-70513363D01*
X107343363Y-70713241D01*
X107188000Y-70945759D01*
X107032637Y-70713241D01*
X106832759Y-70513363D01*
X106597727Y-70356320D01*
X106336574Y-70248147D01*
X106059335Y-70193000D01*
X105776665Y-70193000D01*
X105499426Y-70248147D01*
X105238273Y-70356320D01*
X105003241Y-70513363D01*
X104803363Y-70713241D01*
X104648000Y-70945759D01*
X104492637Y-70713241D01*
X104292759Y-70513363D01*
X104060241Y-70358000D01*
X104292759Y-70202637D01*
X104492637Y-70002759D01*
X104649680Y-69767727D01*
X104757853Y-69506574D01*
X104813000Y-69229335D01*
X104813000Y-68946665D01*
X104757853Y-68669426D01*
X104649680Y-68408273D01*
X104492637Y-68173241D01*
X104292759Y-67973363D01*
X104060241Y-67818000D01*
X104292759Y-67662637D01*
X104492637Y-67462759D01*
X104649680Y-67227727D01*
X104757853Y-66966574D01*
X104813000Y-66689335D01*
X104813000Y-66406665D01*
X104757853Y-66129426D01*
X104649680Y-65868273D01*
X104492637Y-65633241D01*
X104292759Y-65433363D01*
X104060241Y-65278000D01*
X104261665Y-65143413D01*
X106740192Y-65143413D01*
X106835956Y-65407814D01*
X107125571Y-65548704D01*
X107437108Y-65630384D01*
X107758595Y-65649718D01*
X108077675Y-65605961D01*
X108382088Y-65500795D01*
X108556044Y-65407814D01*
X108651808Y-65143413D01*
X107696000Y-64187605D01*
X106740192Y-65143413D01*
X104261665Y-65143413D01*
X104292759Y-65122637D01*
X104492637Y-64922759D01*
X104649680Y-64687727D01*
X104757853Y-64426574D01*
X104813000Y-64149335D01*
X104813000Y-64070595D01*
X106054282Y-64070595D01*
X106098039Y-64389675D01*
X106203205Y-64694088D01*
X106296186Y-64868044D01*
X106560587Y-64963808D01*
X107516395Y-64008000D01*
X107875605Y-64008000D01*
X108831413Y-64963808D01*
X108893280Y-64941400D01*
X108966013Y-65050252D01*
X109193748Y-65277987D01*
X109461537Y-65456918D01*
X109759088Y-65580168D01*
X110074967Y-65643000D01*
X110397033Y-65643000D01*
X110712912Y-65580168D01*
X111010463Y-65456918D01*
X111278252Y-65277987D01*
X111505987Y-65050252D01*
X111684918Y-64782463D01*
X111690909Y-64768000D01*
X118811199Y-64768000D01*
X118853000Y-64809801D01*
X118853000Y-64871939D01*
X118892774Y-65071898D01*
X118970795Y-65260256D01*
X119084063Y-65429774D01*
X119228226Y-65573937D01*
X119397744Y-65687205D01*
X119586102Y-65765226D01*
X119786061Y-65805000D01*
X119989939Y-65805000D01*
X120189898Y-65765226D01*
X120378256Y-65687205D01*
X120547774Y-65573937D01*
X120691937Y-65429774D01*
X120805205Y-65260256D01*
X120883226Y-65071898D01*
X120923000Y-64871939D01*
X120923000Y-64668061D01*
X120883226Y-64468102D01*
X120805205Y-64279744D01*
X120691937Y-64110226D01*
X120547774Y-63966063D01*
X120527574Y-63952566D01*
X120632256Y-63909205D01*
X120801774Y-63795937D01*
X120945937Y-63651774D01*
X121059205Y-63482256D01*
X121137226Y-63293898D01*
X121177000Y-63093939D01*
X121177000Y-62890061D01*
X121137226Y-62690102D01*
X121059205Y-62501744D01*
X120945937Y-62332226D01*
X120801774Y-62188063D01*
X120632256Y-62074795D01*
X120443898Y-61996774D01*
X120243939Y-61957000D01*
X120040061Y-61957000D01*
X119840102Y-61996774D01*
X119651744Y-62074795D01*
X119482226Y-62188063D01*
X119338063Y-62332226D01*
X119224795Y-62501744D01*
X119146774Y-62690102D01*
X119107000Y-62890061D01*
X119107000Y-62952198D01*
X118811199Y-63248000D01*
X111690909Y-63248000D01*
X111684918Y-63233537D01*
X111505987Y-62965748D01*
X111278252Y-62738013D01*
X111010463Y-62559082D01*
X110712912Y-62435832D01*
X110397033Y-62373000D01*
X110074967Y-62373000D01*
X109759088Y-62435832D01*
X109461537Y-62559082D01*
X109193748Y-62738013D01*
X108966013Y-62965748D01*
X108893280Y-63074600D01*
X108831413Y-63052192D01*
X107875605Y-64008000D01*
X107516395Y-64008000D01*
X106560587Y-63052192D01*
X106296186Y-63147956D01*
X106155296Y-63437571D01*
X106073616Y-63749108D01*
X106054282Y-64070595D01*
X104813000Y-64070595D01*
X104813000Y-63866665D01*
X104757853Y-63589426D01*
X104649680Y-63328273D01*
X104492637Y-63093241D01*
X104292759Y-62893363D01*
X104261666Y-62872587D01*
X106740192Y-62872587D01*
X107696000Y-63828395D01*
X108651808Y-62872587D01*
X108556044Y-62608186D01*
X108266429Y-62467296D01*
X107954892Y-62385616D01*
X107633405Y-62366282D01*
X107314325Y-62410039D01*
X107009912Y-62515205D01*
X106835956Y-62608186D01*
X106740192Y-62872587D01*
X104261666Y-62872587D01*
X104060241Y-62738000D01*
X104292759Y-62582637D01*
X104492637Y-62382759D01*
X104649680Y-62147727D01*
X104757853Y-61886574D01*
X104813000Y-61609335D01*
X104813000Y-61326665D01*
X104757853Y-61049426D01*
X104649680Y-60788273D01*
X104492637Y-60553241D01*
X104292759Y-60353363D01*
X104060241Y-60198000D01*
X104292759Y-60042637D01*
X104492637Y-59842759D01*
X104649680Y-59607727D01*
X104757853Y-59346574D01*
X104813000Y-59069335D01*
X104813000Y-58786665D01*
X104757853Y-58509426D01*
X104649680Y-58248273D01*
X104492637Y-58013241D01*
X104292759Y-57813363D01*
X104060241Y-57658000D01*
X104292759Y-57502637D01*
X104492637Y-57302759D01*
X104648000Y-57070241D01*
X104803363Y-57302759D01*
X105003241Y-57502637D01*
X105238273Y-57659680D01*
X105499426Y-57767853D01*
X105776665Y-57823000D01*
X106059335Y-57823000D01*
X106336574Y-57767853D01*
X106597727Y-57659680D01*
X106832759Y-57502637D01*
X107032637Y-57302759D01*
X107188000Y-57070241D01*
X107343363Y-57302759D01*
X107543241Y-57502637D01*
X107778273Y-57659680D01*
X108039426Y-57767853D01*
X108316665Y-57823000D01*
X108599335Y-57823000D01*
X108876574Y-57767853D01*
X109137727Y-57659680D01*
X109372759Y-57502637D01*
X109572637Y-57302759D01*
X109728000Y-57070241D01*
X109883363Y-57302759D01*
X110083241Y-57502637D01*
X110318273Y-57659680D01*
X110579426Y-57767853D01*
X110856665Y-57823000D01*
X111139335Y-57823000D01*
X111416574Y-57767853D01*
X111677727Y-57659680D01*
X111912759Y-57502637D01*
X112112637Y-57302759D01*
X112268000Y-57070241D01*
X112423363Y-57302759D01*
X112623241Y-57502637D01*
X112858273Y-57659680D01*
X113119426Y-57767853D01*
X113396665Y-57823000D01*
X113679335Y-57823000D01*
X113956574Y-57767853D01*
X114217727Y-57659680D01*
X114452759Y-57502637D01*
X114652637Y-57302759D01*
X114808000Y-57070241D01*
X114963363Y-57302759D01*
X115163241Y-57502637D01*
X115398273Y-57659680D01*
X115659426Y-57767853D01*
X115936665Y-57823000D01*
X116219335Y-57823000D01*
X116496574Y-57767853D01*
X116757727Y-57659680D01*
X116992759Y-57502637D01*
X117192637Y-57302759D01*
X117348000Y-57070241D01*
X117503363Y-57302759D01*
%TA.AperFunction,Conductor*%
D25*
G36*
X117503363Y-57302759D02*
G01*
X117703241Y-57502637D01*
X117938273Y-57659680D01*
X118199426Y-57767853D01*
X118476665Y-57823000D01*
X118759335Y-57823000D01*
X119036574Y-57767853D01*
X119104623Y-57739666D01*
X119084063Y-57760226D01*
X118970795Y-57929744D01*
X118892774Y-58118102D01*
X118853000Y-58318061D01*
X118853000Y-58521939D01*
X118892774Y-58721898D01*
X118970795Y-58910256D01*
X119084063Y-59079774D01*
X119228226Y-59223937D01*
X119397744Y-59337205D01*
X119586102Y-59415226D01*
X119786061Y-59455000D01*
X119989939Y-59455000D01*
X120189898Y-59415226D01*
X120378256Y-59337205D01*
X120547774Y-59223937D01*
X120591711Y-59180000D01*
X132646289Y-59180000D01*
X132690226Y-59223937D01*
X132859744Y-59337205D01*
X133048102Y-59415226D01*
X133248061Y-59455000D01*
X133451939Y-59455000D01*
X133651898Y-59415226D01*
X133840256Y-59337205D01*
X134009774Y-59223937D01*
X134153937Y-59079774D01*
X134267205Y-58910256D01*
X134345226Y-58721898D01*
X134385000Y-58521939D01*
X134385000Y-58318061D01*
X134345226Y-58118102D01*
X134267205Y-57929744D01*
X134172823Y-57788491D01*
X134276574Y-57767853D01*
X134537727Y-57659680D01*
X134772759Y-57502637D01*
X134971357Y-57304039D01*
X134972188Y-57312482D01*
X135008498Y-57432180D01*
X135067463Y-57542494D01*
X135146815Y-57639185D01*
X135243506Y-57718537D01*
X135353820Y-57777502D01*
X135473518Y-57813812D01*
X135598000Y-57826072D01*
X136271000Y-57826072D01*
X136271000Y-70193000D01*
X136256665Y-70193000D01*
X135979426Y-70248147D01*
X135718273Y-70356320D01*
X135483241Y-70513363D01*
X135283363Y-70713241D01*
X135127085Y-70947128D01*
X135094671Y-70886486D01*
X134850702Y-70814903D01*
X134160278Y-71505327D01*
X133555722Y-71505327D01*
X132865298Y-70814903D01*
X132621329Y-70886486D01*
X132590806Y-70950992D01*
X132589680Y-70948273D01*
X132432637Y-70713241D01*
X132354694Y-70635298D01*
X133044903Y-70635298D01*
X133858000Y-71448395D01*
X134671097Y-70635298D01*
X134599514Y-70391329D01*
X134344004Y-70270429D01*
X134069816Y-70201700D01*
X133787488Y-70187783D01*
X133507870Y-70229213D01*
X133241708Y-70324397D01*
X133116486Y-70391329D01*
X133044903Y-70635298D01*
X132354694Y-70635298D01*
X132232759Y-70513363D01*
X131997727Y-70356320D01*
X131736574Y-70248147D01*
X131459335Y-70193000D01*
X131176665Y-70193000D01*
X130899426Y-70248147D01*
X130638273Y-70356320D01*
X130403241Y-70513363D01*
X130203363Y-70713241D01*
X130048000Y-70945759D01*
X129892637Y-70713241D01*
X129692759Y-70513363D01*
X129457727Y-70356320D01*
X129196574Y-70248147D01*
X128919335Y-70193000D01*
X128636665Y-70193000D01*
X128359426Y-70248147D01*
X128098273Y-70356320D01*
X127863241Y-70513363D01*
X127663363Y-70713241D01*
X127508000Y-70945759D01*
X127352637Y-70713241D01*
X127152759Y-70513363D01*
X126917727Y-70356320D01*
X126656574Y-70248147D01*
X126379335Y-70193000D01*
X126096665Y-70193000D01*
X125819426Y-70248147D01*
X125558273Y-70356320D01*
X125323241Y-70513363D01*
X125123363Y-70713241D01*
X124968000Y-70945759D01*
X124812637Y-70713241D01*
X124612759Y-70513363D01*
X124458000Y-70409957D01*
X124458000Y-66862801D01*
X125060278Y-66260523D01*
X125066795Y-66276256D01*
X125180063Y-66445774D01*
X125324226Y-66589937D01*
X125493744Y-66703205D01*
X125682102Y-66781226D01*
X125882061Y-66821000D01*
X126085939Y-66821000D01*
X126285898Y-66781226D01*
X126474256Y-66703205D01*
X126643774Y-66589937D01*
X126687711Y-66546000D01*
X130499199Y-66546000D01*
X129500199Y-67545000D01*
X129438061Y-67545000D01*
X129238102Y-67584774D01*
X129049744Y-67662795D01*
X128880226Y-67776063D01*
X128736063Y-67920226D01*
X128622795Y-68089744D01*
X128544774Y-68278102D01*
X128505000Y-68478061D01*
X128505000Y-68681939D01*
X128544774Y-68881898D01*
X128622795Y-69070256D01*
X128736063Y-69239774D01*
X128880226Y-69383937D01*
X129049744Y-69497205D01*
X129238102Y-69575226D01*
X129438061Y-69615000D01*
X129641939Y-69615000D01*
X129841898Y-69575226D01*
X130030256Y-69497205D01*
X130199774Y-69383937D01*
X130343937Y-69239774D01*
X130457205Y-69070256D01*
X130535226Y-68881898D01*
X130575000Y-68681939D01*
X130575000Y-68619801D01*
X134115003Y-65079799D01*
X134144001Y-65056001D01*
X134180930Y-65011003D01*
X134238974Y-64940277D01*
X134309546Y-64808247D01*
X134317367Y-64782463D01*
X134353003Y-64664986D01*
X134364000Y-64553333D01*
X134364000Y-64553323D01*
X134367676Y-64516000D01*
X134364000Y-64478677D01*
X134364000Y-64203711D01*
X134407937Y-64159774D01*
X134521205Y-63990256D01*
X134599226Y-63801898D01*
X134639000Y-63601939D01*
X134639000Y-63398061D01*
X134599226Y-63198102D01*
X134521205Y-63009744D01*
X134407937Y-62840226D01*
X134263774Y-62696063D01*
X134094256Y-62582795D01*
X133905898Y-62504774D01*
X133705939Y-62465000D01*
X133502061Y-62465000D01*
X133302102Y-62504774D01*
X133113744Y-62582795D01*
X132969000Y-62679510D01*
X132824256Y-62582795D01*
X132635898Y-62504774D01*
X132435939Y-62465000D01*
X132232061Y-62465000D01*
X132032102Y-62504774D01*
X131843744Y-62582795D01*
X131674226Y-62696063D01*
X131530063Y-62840226D01*
X131416795Y-63009744D01*
X131338774Y-63198102D01*
X131299000Y-63398061D01*
X131299000Y-63601939D01*
X131338774Y-63801898D01*
X131416795Y-63990256D01*
X131462516Y-64058682D01*
X130495199Y-65026000D01*
X126687711Y-65026000D01*
X126643774Y-64982063D01*
X126474256Y-64868795D01*
X126458524Y-64862279D01*
X126552803Y-64768000D01*
X128486678Y-64768000D01*
X128524000Y-64771676D01*
X128561322Y-64768000D01*
X128561333Y-64768000D01*
X128672986Y-64757003D01*
X128816247Y-64713546D01*
X128948276Y-64642974D01*
X129064001Y-64548001D01*
X129074671Y-64535000D01*
X129133939Y-64535000D01*
X129333898Y-64495226D01*
X129522256Y-64417205D01*
X129691774Y-64303937D01*
X129835937Y-64159774D01*
X129949205Y-63990256D01*
X130027226Y-63801898D01*
X130067000Y-63601939D01*
X130067000Y-63398061D01*
X130027226Y-63198102D01*
X129949205Y-63009744D01*
X129835937Y-62840226D01*
X129691774Y-62696063D01*
X129522256Y-62582795D01*
X129333898Y-62504774D01*
X129133939Y-62465000D01*
X128930061Y-62465000D01*
X128730102Y-62504774D01*
X128687730Y-62522325D01*
X128679205Y-62501744D01*
X128565937Y-62332226D01*
X128421774Y-62188063D01*
X128252256Y-62074795D01*
X128063898Y-61996774D01*
X127863939Y-61957000D01*
X127660061Y-61957000D01*
X127460102Y-61996774D01*
X127271744Y-62074795D01*
X127102226Y-62188063D01*
X127058289Y-62232000D01*
X126275323Y-62232000D01*
X126238000Y-62228324D01*
X126200677Y-62232000D01*
X126200667Y-62232000D01*
X126089014Y-62242997D01*
X125945753Y-62286454D01*
X125813723Y-62357026D01*
X125749127Y-62410039D01*
X125697999Y-62451999D01*
X125674201Y-62480997D01*
X120647003Y-67508196D01*
X120617999Y-67531999D01*
X120574688Y-67584774D01*
X120523026Y-67647724D01*
X120490729Y-67708147D01*
X120452454Y-67779754D01*
X120408997Y-67923015D01*
X120398000Y-68034668D01*
X120398000Y-68034678D01*
X120394324Y-68072000D01*
X120398000Y-68109323D01*
X120398001Y-70409956D01*
X120243241Y-70513363D01*
X120043363Y-70713241D01*
X119888000Y-70945759D01*
X119732637Y-70713241D01*
X119532759Y-70513363D01*
X119297727Y-70356320D01*
X119036574Y-70248147D01*
X118759335Y-70193000D01*
X118476665Y-70193000D01*
X118199426Y-70248147D01*
X117938273Y-70356320D01*
X117703241Y-70513363D01*
X117503363Y-70713241D01*
X117348000Y-70945759D01*
X117192637Y-70713241D01*
X116992759Y-70513363D01*
X116757727Y-70356320D01*
X116496574Y-70248147D01*
X116219335Y-70193000D01*
X115936665Y-70193000D01*
X115659426Y-70248147D01*
X115398273Y-70356320D01*
X115163241Y-70513363D01*
X114963363Y-70713241D01*
X114808000Y-70945759D01*
X114652637Y-70713241D01*
X114452759Y-70513363D01*
X114217727Y-70356320D01*
X113956574Y-70248147D01*
X113679335Y-70193000D01*
X113396665Y-70193000D01*
X113119426Y-70248147D01*
X112858273Y-70356320D01*
X112623241Y-70513363D01*
X112423363Y-70713241D01*
X112268000Y-70945759D01*
X112112637Y-70713241D01*
X111912759Y-70513363D01*
X111677727Y-70356320D01*
X111416574Y-70248147D01*
X111139335Y-70193000D01*
X110856665Y-70193000D01*
X110579426Y-70248147D01*
X110318273Y-70356320D01*
X110083241Y-70513363D01*
X109883363Y-70713241D01*
X109728000Y-70945759D01*
X109572637Y-70713241D01*
X109372759Y-70513363D01*
X109137727Y-70356320D01*
X108876574Y-70248147D01*
X108599335Y-70193000D01*
X108316665Y-70193000D01*
X108039426Y-70248147D01*
X107778273Y-70356320D01*
X107543241Y-70513363D01*
X107343363Y-70713241D01*
X107188000Y-70945759D01*
X107032637Y-70713241D01*
X106832759Y-70513363D01*
X106597727Y-70356320D01*
X106336574Y-70248147D01*
X106059335Y-70193000D01*
X105776665Y-70193000D01*
X105499426Y-70248147D01*
X105238273Y-70356320D01*
X105003241Y-70513363D01*
X104803363Y-70713241D01*
X104648000Y-70945759D01*
X104492637Y-70713241D01*
X104292759Y-70513363D01*
X104060241Y-70358000D01*
X104292759Y-70202637D01*
X104492637Y-70002759D01*
X104649680Y-69767727D01*
X104757853Y-69506574D01*
X104813000Y-69229335D01*
X104813000Y-68946665D01*
X104757853Y-68669426D01*
X104649680Y-68408273D01*
X104492637Y-68173241D01*
X104292759Y-67973363D01*
X104060241Y-67818000D01*
X104292759Y-67662637D01*
X104492637Y-67462759D01*
X104649680Y-67227727D01*
X104757853Y-66966574D01*
X104813000Y-66689335D01*
X104813000Y-66406665D01*
X104757853Y-66129426D01*
X104649680Y-65868273D01*
X104492637Y-65633241D01*
X104292759Y-65433363D01*
X104060241Y-65278000D01*
X104261665Y-65143413D01*
X106740192Y-65143413D01*
X106835956Y-65407814D01*
X107125571Y-65548704D01*
X107437108Y-65630384D01*
X107758595Y-65649718D01*
X108077675Y-65605961D01*
X108382088Y-65500795D01*
X108556044Y-65407814D01*
X108651808Y-65143413D01*
X107696000Y-64187605D01*
X106740192Y-65143413D01*
X104261665Y-65143413D01*
X104292759Y-65122637D01*
X104492637Y-64922759D01*
X104649680Y-64687727D01*
X104757853Y-64426574D01*
X104813000Y-64149335D01*
X104813000Y-64070595D01*
X106054282Y-64070595D01*
X106098039Y-64389675D01*
X106203205Y-64694088D01*
X106296186Y-64868044D01*
X106560587Y-64963808D01*
X107516395Y-64008000D01*
X107875605Y-64008000D01*
X108831413Y-64963808D01*
X108893280Y-64941400D01*
X108966013Y-65050252D01*
X109193748Y-65277987D01*
X109461537Y-65456918D01*
X109759088Y-65580168D01*
X110074967Y-65643000D01*
X110397033Y-65643000D01*
X110712912Y-65580168D01*
X111010463Y-65456918D01*
X111278252Y-65277987D01*
X111505987Y-65050252D01*
X111684918Y-64782463D01*
X111690909Y-64768000D01*
X118811199Y-64768000D01*
X118853000Y-64809801D01*
X118853000Y-64871939D01*
X118892774Y-65071898D01*
X118970795Y-65260256D01*
X119084063Y-65429774D01*
X119228226Y-65573937D01*
X119397744Y-65687205D01*
X119586102Y-65765226D01*
X119786061Y-65805000D01*
X119989939Y-65805000D01*
X120189898Y-65765226D01*
X120378256Y-65687205D01*
X120547774Y-65573937D01*
X120691937Y-65429774D01*
X120805205Y-65260256D01*
X120883226Y-65071898D01*
X120923000Y-64871939D01*
X120923000Y-64668061D01*
X120883226Y-64468102D01*
X120805205Y-64279744D01*
X120691937Y-64110226D01*
X120547774Y-63966063D01*
X120527574Y-63952566D01*
X120632256Y-63909205D01*
X120801774Y-63795937D01*
X120945937Y-63651774D01*
X121059205Y-63482256D01*
X121137226Y-63293898D01*
X121177000Y-63093939D01*
X121177000Y-62890061D01*
X121137226Y-62690102D01*
X121059205Y-62501744D01*
X120945937Y-62332226D01*
X120801774Y-62188063D01*
X120632256Y-62074795D01*
X120443898Y-61996774D01*
X120243939Y-61957000D01*
X120040061Y-61957000D01*
X119840102Y-61996774D01*
X119651744Y-62074795D01*
X119482226Y-62188063D01*
X119338063Y-62332226D01*
X119224795Y-62501744D01*
X119146774Y-62690102D01*
X119107000Y-62890061D01*
X119107000Y-62952198D01*
X118811199Y-63248000D01*
X111690909Y-63248000D01*
X111684918Y-63233537D01*
X111505987Y-62965748D01*
X111278252Y-62738013D01*
X111010463Y-62559082D01*
X110712912Y-62435832D01*
X110397033Y-62373000D01*
X110074967Y-62373000D01*
X109759088Y-62435832D01*
X109461537Y-62559082D01*
X109193748Y-62738013D01*
X108966013Y-62965748D01*
X108893280Y-63074600D01*
X108831413Y-63052192D01*
X107875605Y-64008000D01*
X107516395Y-64008000D01*
X106560587Y-63052192D01*
X106296186Y-63147956D01*
X106155296Y-63437571D01*
X106073616Y-63749108D01*
X106054282Y-64070595D01*
X104813000Y-64070595D01*
X104813000Y-63866665D01*
X104757853Y-63589426D01*
X104649680Y-63328273D01*
X104492637Y-63093241D01*
X104292759Y-62893363D01*
X104261666Y-62872587D01*
X106740192Y-62872587D01*
X107696000Y-63828395D01*
X108651808Y-62872587D01*
X108556044Y-62608186D01*
X108266429Y-62467296D01*
X107954892Y-62385616D01*
X107633405Y-62366282D01*
X107314325Y-62410039D01*
X107009912Y-62515205D01*
X106835956Y-62608186D01*
X106740192Y-62872587D01*
X104261666Y-62872587D01*
X104060241Y-62738000D01*
X104292759Y-62582637D01*
X104492637Y-62382759D01*
X104649680Y-62147727D01*
X104757853Y-61886574D01*
X104813000Y-61609335D01*
X104813000Y-61326665D01*
X104757853Y-61049426D01*
X104649680Y-60788273D01*
X104492637Y-60553241D01*
X104292759Y-60353363D01*
X104060241Y-60198000D01*
X104292759Y-60042637D01*
X104492637Y-59842759D01*
X104649680Y-59607727D01*
X104757853Y-59346574D01*
X104813000Y-59069335D01*
X104813000Y-58786665D01*
X104757853Y-58509426D01*
X104649680Y-58248273D01*
X104492637Y-58013241D01*
X104292759Y-57813363D01*
X104060241Y-57658000D01*
X104292759Y-57502637D01*
X104492637Y-57302759D01*
X104648000Y-57070241D01*
X104803363Y-57302759D01*
X105003241Y-57502637D01*
X105238273Y-57659680D01*
X105499426Y-57767853D01*
X105776665Y-57823000D01*
X106059335Y-57823000D01*
X106336574Y-57767853D01*
X106597727Y-57659680D01*
X106832759Y-57502637D01*
X107032637Y-57302759D01*
X107188000Y-57070241D01*
X107343363Y-57302759D01*
X107543241Y-57502637D01*
X107778273Y-57659680D01*
X108039426Y-57767853D01*
X108316665Y-57823000D01*
X108599335Y-57823000D01*
X108876574Y-57767853D01*
X109137727Y-57659680D01*
X109372759Y-57502637D01*
X109572637Y-57302759D01*
X109728000Y-57070241D01*
X109883363Y-57302759D01*
X110083241Y-57502637D01*
X110318273Y-57659680D01*
X110579426Y-57767853D01*
X110856665Y-57823000D01*
X111139335Y-57823000D01*
X111416574Y-57767853D01*
X111677727Y-57659680D01*
X111912759Y-57502637D01*
X112112637Y-57302759D01*
X112268000Y-57070241D01*
X112423363Y-57302759D01*
X112623241Y-57502637D01*
X112858273Y-57659680D01*
X113119426Y-57767853D01*
X113396665Y-57823000D01*
X113679335Y-57823000D01*
X113956574Y-57767853D01*
X114217727Y-57659680D01*
X114452759Y-57502637D01*
X114652637Y-57302759D01*
X114808000Y-57070241D01*
X114963363Y-57302759D01*
X115163241Y-57502637D01*
X115398273Y-57659680D01*
X115659426Y-57767853D01*
X115936665Y-57823000D01*
X116219335Y-57823000D01*
X116496574Y-57767853D01*
X116757727Y-57659680D01*
X116992759Y-57502637D01*
X117192637Y-57302759D01*
X117348000Y-57070241D01*
X117503363Y-57302759D01*
G37*
%TD.AperFunction*%
%TD*%
D24*
%TO.N,GND*%
X123365717Y-33925088D02*
X123466353Y-33935000D01*
X123500000Y-33938314D01*
X123533647Y-33935000D01*
X125176524Y-33935000D01*
X125169564Y-33945017D01*
X125045051Y-34230779D01*
X125017414Y-34347412D01*
X125137416Y-34593000D01*
X127381000Y-34593000D01*
X127381000Y-34573000D01*
X127635000Y-34573000D01*
X127635000Y-34593000D01*
X129878584Y-34593000D01*
X129998586Y-34347412D01*
X129970949Y-34230779D01*
X129846436Y-33945017D01*
X129839476Y-33935000D01*
X137315001Y-33935000D01*
X137315000Y-54961451D01*
X137198000Y-54949928D01*
X136683750Y-54953000D01*
X136525000Y-55111750D01*
X136525000Y-56261000D01*
X136271000Y-56261000D01*
X136271000Y-55111750D01*
X136112250Y-54953000D01*
X135598000Y-54949928D01*
X135473518Y-54962188D01*
X135353820Y-54998498D01*
X135243506Y-55057463D01*
X135146815Y-55136815D01*
X135067463Y-55233506D01*
X135008498Y-55343820D01*
X134972188Y-55463518D01*
X134971357Y-55471961D01*
X134772759Y-55273363D01*
X134537727Y-55116320D01*
X134276574Y-55008147D01*
X133999335Y-54953000D01*
X133716665Y-54953000D01*
X133439426Y-55008147D01*
X133178273Y-55116320D01*
X132943241Y-55273363D01*
X132743363Y-55473241D01*
X132588000Y-55705759D01*
X132432637Y-55473241D01*
X132232759Y-55273363D01*
X131997727Y-55116320D01*
X131736574Y-55008147D01*
X131459335Y-54953000D01*
X131176665Y-54953000D01*
X130899426Y-55008147D01*
X130638273Y-55116320D01*
X130403241Y-55273363D01*
X130203363Y-55473241D01*
X130048000Y-55705759D01*
X129892637Y-55473241D01*
X129692759Y-55273363D01*
X129457727Y-55116320D01*
X129196574Y-55008147D01*
X128919335Y-54953000D01*
X128747801Y-54953000D01*
X130813008Y-52887795D01*
X130842001Y-52864001D01*
X130865795Y-52835008D01*
X130865799Y-52835004D01*
X130936973Y-52748277D01*
X130990945Y-52647304D01*
X131007546Y-52616247D01*
X131051003Y-52472986D01*
X131062000Y-52361333D01*
X131062000Y-52361324D01*
X131065676Y-52324001D01*
X131062000Y-52286678D01*
X131062000Y-49844801D01*
X131103801Y-49803000D01*
X131165939Y-49803000D01*
X131365898Y-49763226D01*
X131554256Y-49685205D01*
X131723774Y-49571937D01*
X131867937Y-49427774D01*
X131981205Y-49258256D01*
X132059226Y-49069898D01*
X132099000Y-48869939D01*
X132099000Y-48666061D01*
X132059226Y-48466102D01*
X131981205Y-48277744D01*
X131867937Y-48108226D01*
X131763711Y-48004000D01*
X131765199Y-48004000D01*
X132569000Y-48807802D01*
X132569000Y-48869939D01*
X132608774Y-49069898D01*
X132686795Y-49258256D01*
X132800063Y-49427774D01*
X132944226Y-49571937D01*
X133113744Y-49685205D01*
X133302102Y-49763226D01*
X133502061Y-49803000D01*
X133705939Y-49803000D01*
X133905898Y-49763226D01*
X134094256Y-49685205D01*
X134263774Y-49571937D01*
X134407937Y-49427774D01*
X134521205Y-49258256D01*
X134599226Y-49069898D01*
X134639000Y-48869939D01*
X134639000Y-48666061D01*
X134599226Y-48466102D01*
X134521205Y-48277744D01*
X134407937Y-48108226D01*
X134263774Y-47964063D01*
X134094256Y-47850795D01*
X133905898Y-47772774D01*
X133705939Y-47733000D01*
X133643802Y-47733000D01*
X132643803Y-46733002D01*
X132620001Y-46703999D01*
X132504276Y-46609026D01*
X132372247Y-46538454D01*
X132228986Y-46494997D01*
X132117333Y-46484000D01*
X132117322Y-46484000D01*
X132080000Y-46480324D01*
X132042678Y-46484000D01*
X127818802Y-46484000D01*
X128838803Y-45464000D01*
X131884289Y-45464000D01*
X131928226Y-45507937D01*
X132097744Y-45621205D01*
X132286102Y-45699226D01*
X132486061Y-45739000D01*
X132689939Y-45739000D01*
X132889898Y-45699226D01*
X133078256Y-45621205D01*
X133247774Y-45507937D01*
X133391937Y-45363774D01*
X133505205Y-45194256D01*
X133583226Y-45005898D01*
X133623000Y-44805939D01*
X133623000Y-44602061D01*
X133583226Y-44402102D01*
X133505205Y-44213744D01*
X133391937Y-44044226D01*
X133247774Y-43900063D01*
X133078256Y-43786795D01*
X132889898Y-43708774D01*
X132689939Y-43669000D01*
X132486061Y-43669000D01*
X132286102Y-43708774D01*
X132097744Y-43786795D01*
X131928226Y-43900063D01*
X131884289Y-43944000D01*
X128561322Y-43944000D01*
X128523999Y-43940324D01*
X128486676Y-43944000D01*
X128486667Y-43944000D01*
X128375014Y-43954997D01*
X128231753Y-43998454D01*
X128099724Y-44069026D01*
X128099722Y-44069027D01*
X128099723Y-44069027D01*
X128012996Y-44140201D01*
X128012992Y-44140205D01*
X127983999Y-44163999D01*
X127960205Y-44192992D01*
X125472998Y-46680201D01*
X125444000Y-46703999D01*
X125420202Y-46732997D01*
X125420201Y-46732998D01*
X125349026Y-46819724D01*
X125278454Y-46951754D01*
X125249728Y-47046454D01*
X125236980Y-47088482D01*
X125234998Y-47095015D01*
X125220324Y-47244000D01*
X125224001Y-47281332D01*
X125224000Y-48664289D01*
X125180063Y-48708226D01*
X125066795Y-48877744D01*
X124988774Y-49066102D01*
X124949000Y-49266061D01*
X124949000Y-49469939D01*
X124988774Y-49669898D01*
X125066795Y-49858256D01*
X125180063Y-50027774D01*
X125324226Y-50171937D01*
X125493744Y-50285205D01*
X125682102Y-50363226D01*
X125882061Y-50403000D01*
X126085939Y-50403000D01*
X126285898Y-50363226D01*
X126474256Y-50285205D01*
X126494000Y-50272012D01*
X126494000Y-50556849D01*
X126444102Y-50566774D01*
X126255744Y-50644795D01*
X126086226Y-50758063D01*
X125942063Y-50902226D01*
X125828795Y-51071744D01*
X125750774Y-51260102D01*
X125711000Y-51460061D01*
X125711000Y-51663939D01*
X125750774Y-51863898D01*
X125828795Y-52052256D01*
X125942063Y-52221774D01*
X126086226Y-52365937D01*
X126255744Y-52479205D01*
X126444102Y-52557226D01*
X126644061Y-52597000D01*
X126847939Y-52597000D01*
X127047898Y-52557226D01*
X127236256Y-52479205D01*
X127405774Y-52365937D01*
X127549937Y-52221774D01*
X127663205Y-52052256D01*
X127741226Y-51863898D01*
X127781000Y-51663939D01*
X127781000Y-51604671D01*
X127794001Y-51594001D01*
X127888974Y-51478276D01*
X127959546Y-51346247D01*
X128003003Y-51202986D01*
X128014000Y-51091333D01*
X128014000Y-51091324D01*
X128017676Y-51054001D01*
X128014000Y-51016678D01*
X128014000Y-48066801D01*
X128076802Y-48004000D01*
X128889987Y-48004000D01*
X128876795Y-48023744D01*
X128798774Y-48212102D01*
X128759000Y-48412061D01*
X128759000Y-48471329D01*
X128745999Y-48481999D01*
X128690871Y-48549174D01*
X128651026Y-48597724D01*
X128616142Y-48662987D01*
X128580454Y-48729754D01*
X128536997Y-48873015D01*
X128526000Y-48984668D01*
X128526000Y-48984678D01*
X128522324Y-49022000D01*
X128526000Y-49059323D01*
X128526001Y-52009197D01*
X126939199Y-53596000D01*
X120687323Y-53596000D01*
X120650000Y-53592324D01*
X120612677Y-53596000D01*
X120612667Y-53596000D01*
X120501014Y-53606997D01*
X120357753Y-53650454D01*
X120225723Y-53721026D01*
X120142083Y-53789668D01*
X120109999Y-53815999D01*
X120086201Y-53844997D01*
X118941886Y-54989312D01*
X118759335Y-54953000D01*
X118476665Y-54953000D01*
X118199426Y-55008147D01*
X117938273Y-55116320D01*
X117703241Y-55273363D01*
X117503363Y-55473241D01*
X117348000Y-55705759D01*
X117192637Y-55473241D01*
X116992759Y-55273363D01*
X116757727Y-55116320D01*
X116496574Y-55008147D01*
X116219335Y-54953000D01*
X115936665Y-54953000D01*
X115659426Y-55008147D01*
X115398273Y-55116320D01*
X115163241Y-55273363D01*
X114963363Y-55473241D01*
X114808000Y-55705759D01*
X114652637Y-55473241D01*
X114452759Y-55273363D01*
X114217727Y-55116320D01*
X113956574Y-55008147D01*
X113679335Y-54953000D01*
X113396665Y-54953000D01*
X113119426Y-55008147D01*
X112858273Y-55116320D01*
X112623241Y-55273363D01*
X112423363Y-55473241D01*
X112268000Y-55705759D01*
X112112637Y-55473241D01*
X111912759Y-55273363D01*
X111677727Y-55116320D01*
X111416574Y-55008147D01*
X111139335Y-54953000D01*
X110856665Y-54953000D01*
X110579426Y-55008147D01*
X110318273Y-55116320D01*
X110083241Y-55273363D01*
X109883363Y-55473241D01*
X109728000Y-55705759D01*
X109572637Y-55473241D01*
X109372759Y-55273363D01*
X109137727Y-55116320D01*
X108876574Y-55008147D01*
X108599335Y-54953000D01*
X108316665Y-54953000D01*
X108039426Y-55008147D01*
X107778273Y-55116320D01*
X107543241Y-55273363D01*
X107343363Y-55473241D01*
X107188000Y-55705759D01*
X107032637Y-55473241D01*
X106832759Y-55273363D01*
X106597727Y-55116320D01*
X106336574Y-55008147D01*
X106059335Y-54953000D01*
X105776665Y-54953000D01*
X105499426Y-55008147D01*
X105238273Y-55116320D01*
X105003241Y-55273363D01*
X104803363Y-55473241D01*
X104648000Y-55705759D01*
X104492637Y-55473241D01*
X104292759Y-55273363D01*
X104057727Y-55116320D01*
X103796574Y-55008147D01*
X103519335Y-54953000D01*
X103236665Y-54953000D01*
X102959426Y-55008147D01*
X102698273Y-55116320D01*
X102463241Y-55273363D01*
X102435000Y-55301604D01*
X102435000Y-52826909D01*
X118294696Y-52826909D01*
X118369367Y-53073481D01*
X118629228Y-53196931D01*
X118908180Y-53267313D01*
X119195502Y-53281921D01*
X119480154Y-53240194D01*
X119751196Y-53143737D01*
X119882633Y-53073481D01*
X119957304Y-52826909D01*
X119126000Y-51995605D01*
X118294696Y-52826909D01*
X102435000Y-52826909D01*
X102435000Y-50974000D01*
X106089138Y-50974000D01*
X106120513Y-51292556D01*
X106213432Y-51598869D01*
X106364325Y-51881170D01*
X106567392Y-52128608D01*
X106814830Y-52331675D01*
X107097131Y-52482568D01*
X107403444Y-52575487D01*
X107642176Y-52599000D01*
X109781824Y-52599000D01*
X110020556Y-52575487D01*
X110326869Y-52482568D01*
X110609170Y-52331675D01*
X110856608Y-52128608D01*
X111056119Y-51885502D01*
X117660079Y-51885502D01*
X117701806Y-52170154D01*
X117798263Y-52441196D01*
X117868519Y-52572633D01*
X118115091Y-52647304D01*
X118946395Y-51816000D01*
X119305605Y-51816000D01*
X120136909Y-52647304D01*
X120383481Y-52572633D01*
X120506931Y-52312772D01*
X120577313Y-52033820D01*
X120591921Y-51746498D01*
X120550194Y-51461846D01*
X120453737Y-51190804D01*
X120383481Y-51059367D01*
X120136909Y-50984696D01*
X119305605Y-51816000D01*
X118946395Y-51816000D01*
X118115091Y-50984696D01*
X117868519Y-51059367D01*
X117745069Y-51319228D01*
X117674687Y-51598180D01*
X117660079Y-51885502D01*
X111056119Y-51885502D01*
X111059675Y-51881170D01*
X111210568Y-51598869D01*
X111303487Y-51292556D01*
X111334862Y-50974000D01*
X111303487Y-50655444D01*
X111210568Y-50349131D01*
X111059675Y-50066830D01*
X110856608Y-49819392D01*
X110609170Y-49616325D01*
X110326869Y-49465432D01*
X110020556Y-49372513D01*
X109781824Y-49349000D01*
X107642176Y-49349000D01*
X107403444Y-49372513D01*
X107097131Y-49465432D01*
X106814830Y-49616325D01*
X106567392Y-49819392D01*
X106364325Y-50066830D01*
X106213432Y-50349131D01*
X106120513Y-50655444D01*
X106089138Y-50974000D01*
X102435000Y-50974000D01*
X102435000Y-44984000D01*
X106093928Y-44984000D01*
X106093928Y-46964000D01*
X106106188Y-47088482D01*
X106142498Y-47208180D01*
X106201463Y-47318494D01*
X106280815Y-47415185D01*
X106377506Y-47494537D01*
X106487820Y-47553502D01*
X106607518Y-47589812D01*
X106732000Y-47602072D01*
X110692000Y-47602072D01*
X110816482Y-47589812D01*
X110936180Y-47553502D01*
X111046494Y-47494537D01*
X111143185Y-47415185D01*
X111222537Y-47318494D01*
X111281502Y-47208180D01*
X111317812Y-47088482D01*
X111330072Y-46964000D01*
X111330072Y-45910500D01*
X117662428Y-45910500D01*
X117662428Y-47561500D01*
X117674688Y-47685982D01*
X117710998Y-47805680D01*
X117769963Y-47915994D01*
X117849315Y-48012685D01*
X117946006Y-48092037D01*
X118056320Y-48151002D01*
X118155463Y-48181077D01*
X117991555Y-48344985D01*
X117831721Y-48584194D01*
X117721626Y-48849988D01*
X117665500Y-49132153D01*
X117665500Y-49419847D01*
X117721626Y-49702012D01*
X117831721Y-49967806D01*
X117991555Y-50207015D01*
X118194985Y-50410445D01*
X118395605Y-50544494D01*
X118369367Y-50558519D01*
X118294696Y-50805091D01*
X119126000Y-51636395D01*
X119957304Y-50805091D01*
X119882633Y-50558519D01*
X119855031Y-50545406D01*
X120057015Y-50410445D01*
X120260445Y-50207015D01*
X120420279Y-49967806D01*
X120530374Y-49702012D01*
X120586500Y-49419847D01*
X120586500Y-49132153D01*
X120530374Y-48849988D01*
X120420279Y-48584194D01*
X120260445Y-48344985D01*
X120096537Y-48181077D01*
X120195680Y-48151002D01*
X120305994Y-48092037D01*
X120402685Y-48012685D01*
X120482037Y-47915994D01*
X120541002Y-47805680D01*
X120577312Y-47685982D01*
X120589572Y-47561500D01*
X120589572Y-45910500D01*
X120577312Y-45786018D01*
X120541002Y-45666320D01*
X120482037Y-45556006D01*
X120402685Y-45459315D01*
X120305994Y-45379963D01*
X120195680Y-45320998D01*
X120075982Y-45284688D01*
X119951500Y-45272428D01*
X118300500Y-45272428D01*
X118176018Y-45284688D01*
X118056320Y-45320998D01*
X117946006Y-45379963D01*
X117849315Y-45459315D01*
X117769963Y-45556006D01*
X117710998Y-45666320D01*
X117674688Y-45786018D01*
X117662428Y-45910500D01*
X111330072Y-45910500D01*
X111330072Y-44984000D01*
X111317812Y-44859518D01*
X111281502Y-44739820D01*
X111222537Y-44629506D01*
X111143185Y-44532815D01*
X111046494Y-44453463D01*
X110936180Y-44394498D01*
X110816482Y-44358188D01*
X110692000Y-44345928D01*
X106732000Y-44345928D01*
X106607518Y-44358188D01*
X106487820Y-44394498D01*
X106377506Y-44453463D01*
X106280815Y-44532815D01*
X106201463Y-44629506D01*
X106142498Y-44739820D01*
X106106188Y-44859518D01*
X106093928Y-44984000D01*
X102435000Y-44984000D01*
X102435000Y-38447951D01*
X112421000Y-38447951D01*
X112421000Y-38768049D01*
X112483448Y-39081995D01*
X112605943Y-39377726D01*
X112783780Y-39643877D01*
X113010123Y-39870220D01*
X113276274Y-40048057D01*
X113572005Y-40170552D01*
X113885951Y-40233000D01*
X114206049Y-40233000D01*
X114519995Y-40170552D01*
X114815726Y-40048057D01*
X115081877Y-39870220D01*
X115308220Y-39643877D01*
X115384137Y-39530260D01*
X115457718Y-39556677D01*
X116406395Y-38608000D01*
X115457718Y-37659323D01*
X115384137Y-37685740D01*
X115308220Y-37572123D01*
X115215815Y-37479718D01*
X115637323Y-37479718D01*
X116586000Y-38428395D01*
X116600143Y-38414253D01*
X116779748Y-38593858D01*
X116765605Y-38608000D01*
X116779748Y-38622143D01*
X116600143Y-38801748D01*
X116586000Y-38787605D01*
X115637323Y-39736282D01*
X115731880Y-39999661D01*
X116019791Y-40139551D01*
X116329462Y-40220584D01*
X116648990Y-40239646D01*
X116966099Y-40196006D01*
X117268600Y-40091339D01*
X117440120Y-39999661D01*
X117523672Y-39766934D01*
X117546498Y-39842180D01*
X117605463Y-39952494D01*
X117684815Y-40049185D01*
X117781506Y-40128537D01*
X117891820Y-40187502D01*
X118011518Y-40223812D01*
X118136000Y-40236072D01*
X120116000Y-40236072D01*
X120240482Y-40223812D01*
X120360180Y-40187502D01*
X120470494Y-40128537D01*
X120567185Y-40049185D01*
X120646537Y-39952494D01*
X120705502Y-39842180D01*
X120741812Y-39722482D01*
X120754072Y-39598000D01*
X120754072Y-38342137D01*
X123243000Y-38342137D01*
X123243001Y-40397864D01*
X123265935Y-40630714D01*
X123356567Y-40929488D01*
X123503745Y-41204839D01*
X123701814Y-41446187D01*
X123943162Y-41644256D01*
X124218513Y-41791434D01*
X124517287Y-41882066D01*
X124828000Y-41912669D01*
X125138714Y-41882066D01*
X125437488Y-41791434D01*
X125712839Y-41644256D01*
X125954187Y-41446187D01*
X126152256Y-41204839D01*
X126299434Y-40929488D01*
X126390066Y-40630714D01*
X126413000Y-40397864D01*
X126413000Y-39497000D01*
X129173000Y-39497000D01*
X129173000Y-40447000D01*
X129228232Y-40753778D01*
X129342252Y-41043886D01*
X129510678Y-41306175D01*
X129727038Y-41530566D01*
X129983017Y-41708436D01*
X130268779Y-41832949D01*
X130385412Y-41860586D01*
X130631000Y-41740584D01*
X130631000Y-39497000D01*
X130885000Y-39497000D01*
X130885000Y-41740584D01*
X131130588Y-41860586D01*
X131247221Y-41832949D01*
X131532983Y-41708436D01*
X131788962Y-41530566D01*
X132005322Y-41306175D01*
X132173748Y-41043886D01*
X132287768Y-40753778D01*
X132343000Y-40447000D01*
X132343000Y-39497000D01*
X130885000Y-39497000D01*
X130631000Y-39497000D01*
X129173000Y-39497000D01*
X126413000Y-39497000D01*
X126413000Y-38342136D01*
X126408161Y-38293000D01*
X129173000Y-38293000D01*
X129173000Y-39243000D01*
X130631000Y-39243000D01*
X130631000Y-36999416D01*
X130885000Y-36999416D01*
X130885000Y-39243000D01*
X132343000Y-39243000D01*
X132343000Y-38293000D01*
X132287768Y-37986222D01*
X132173748Y-37696114D01*
X132005322Y-37433825D01*
X131788962Y-37209434D01*
X131532983Y-37031564D01*
X131247221Y-36907051D01*
X131130588Y-36879414D01*
X130885000Y-36999416D01*
X130631000Y-36999416D01*
X130385412Y-36879414D01*
X130268779Y-36907051D01*
X129983017Y-37031564D01*
X129727038Y-37209434D01*
X129510678Y-37433825D01*
X129342252Y-37696114D01*
X129228232Y-37986222D01*
X129173000Y-38293000D01*
X126408161Y-38293000D01*
X126390066Y-38109286D01*
X126299434Y-37810512D01*
X126152256Y-37535161D01*
X125954187Y-37293813D01*
X125712838Y-37095744D01*
X125437487Y-36948566D01*
X125138713Y-36857934D01*
X124828000Y-36827331D01*
X124517286Y-36857934D01*
X124218512Y-36948566D01*
X123943161Y-37095744D01*
X123701813Y-37293813D01*
X123503744Y-37535162D01*
X123356566Y-37810513D01*
X123265934Y-38109287D01*
X123243000Y-38342137D01*
X120754072Y-38342137D01*
X120754072Y-37618000D01*
X120741812Y-37493518D01*
X120705502Y-37373820D01*
X120646537Y-37263506D01*
X120567185Y-37166815D01*
X120470494Y-37087463D01*
X120360180Y-37028498D01*
X120240482Y-36992188D01*
X120116000Y-36979928D01*
X118136000Y-36979928D01*
X118011518Y-36992188D01*
X117891820Y-37028498D01*
X117781506Y-37087463D01*
X117684815Y-37166815D01*
X117605463Y-37263506D01*
X117546498Y-37373820D01*
X117523672Y-37449066D01*
X117440120Y-37216339D01*
X117152209Y-37076449D01*
X116842538Y-36995416D01*
X116523010Y-36976354D01*
X116205901Y-37019994D01*
X115903400Y-37124661D01*
X115731880Y-37216339D01*
X115637323Y-37479718D01*
X115215815Y-37479718D01*
X115081877Y-37345780D01*
X114815726Y-37167943D01*
X114519995Y-37045448D01*
X114206049Y-36983000D01*
X113885951Y-36983000D01*
X113572005Y-37045448D01*
X113276274Y-37167943D01*
X113010123Y-37345780D01*
X112783780Y-37572123D01*
X112605943Y-37838274D01*
X112483448Y-38134005D01*
X112421000Y-38447951D01*
X102435000Y-38447951D01*
X102435000Y-35092588D01*
X125017414Y-35092588D01*
X125045051Y-35209221D01*
X125169564Y-35494983D01*
X125347434Y-35750962D01*
X125571825Y-35967322D01*
X125834114Y-36135748D01*
X126124222Y-36249768D01*
X126431000Y-36305000D01*
X127381000Y-36305000D01*
X127381000Y-34847000D01*
X127635000Y-34847000D01*
X127635000Y-36305000D01*
X128585000Y-36305000D01*
X128891778Y-36249768D01*
X129181886Y-36135748D01*
X129444175Y-35967322D01*
X129668566Y-35750962D01*
X129846436Y-35494983D01*
X129970949Y-35209221D01*
X129998586Y-35092588D01*
X129878584Y-34847000D01*
X127635000Y-34847000D01*
X127381000Y-34847000D01*
X125137416Y-34847000D01*
X125017414Y-35092588D01*
X102435000Y-35092588D01*
X102435000Y-33935000D01*
X116465478Y-33935000D01*
X116498232Y-33938311D01*
X116532757Y-33935000D01*
X116533647Y-33935000D01*
X116566554Y-33931759D01*
X116632548Y-33925430D01*
X116633395Y-33925175D01*
X116634283Y-33925088D01*
X116687318Y-33909000D01*
X123312682Y-33909000D01*
X123365717Y-33925088D01*
%TA.AperFunction,Conductor*%
D25*
G36*
X123365717Y-33925088D02*
G01*
X123466353Y-33935000D01*
X123500000Y-33938314D01*
X123533647Y-33935000D01*
X125176524Y-33935000D01*
X125169564Y-33945017D01*
X125045051Y-34230779D01*
X125017414Y-34347412D01*
X125137416Y-34593000D01*
X127381000Y-34593000D01*
X127381000Y-34573000D01*
X127635000Y-34573000D01*
X127635000Y-34593000D01*
X129878584Y-34593000D01*
X129998586Y-34347412D01*
X129970949Y-34230779D01*
X129846436Y-33945017D01*
X129839476Y-33935000D01*
X137315001Y-33935000D01*
X137315000Y-54961451D01*
X137198000Y-54949928D01*
X136683750Y-54953000D01*
X136525000Y-55111750D01*
X136525000Y-56261000D01*
X136271000Y-56261000D01*
X136271000Y-55111750D01*
X136112250Y-54953000D01*
X135598000Y-54949928D01*
X135473518Y-54962188D01*
X135353820Y-54998498D01*
X135243506Y-55057463D01*
X135146815Y-55136815D01*
X135067463Y-55233506D01*
X135008498Y-55343820D01*
X134972188Y-55463518D01*
X134971357Y-55471961D01*
X134772759Y-55273363D01*
X134537727Y-55116320D01*
X134276574Y-55008147D01*
X133999335Y-54953000D01*
X133716665Y-54953000D01*
X133439426Y-55008147D01*
X133178273Y-55116320D01*
X132943241Y-55273363D01*
X132743363Y-55473241D01*
X132588000Y-55705759D01*
X132432637Y-55473241D01*
X132232759Y-55273363D01*
X131997727Y-55116320D01*
X131736574Y-55008147D01*
X131459335Y-54953000D01*
X131176665Y-54953000D01*
X130899426Y-55008147D01*
X130638273Y-55116320D01*
X130403241Y-55273363D01*
X130203363Y-55473241D01*
X130048000Y-55705759D01*
X129892637Y-55473241D01*
X129692759Y-55273363D01*
X129457727Y-55116320D01*
X129196574Y-55008147D01*
X128919335Y-54953000D01*
X128747801Y-54953000D01*
X130813008Y-52887795D01*
X130842001Y-52864001D01*
X130865795Y-52835008D01*
X130865799Y-52835004D01*
X130936973Y-52748277D01*
X130990945Y-52647304D01*
X131007546Y-52616247D01*
X131051003Y-52472986D01*
X131062000Y-52361333D01*
X131062000Y-52361324D01*
X131065676Y-52324001D01*
X131062000Y-52286678D01*
X131062000Y-49844801D01*
X131103801Y-49803000D01*
X131165939Y-49803000D01*
X131365898Y-49763226D01*
X131554256Y-49685205D01*
X131723774Y-49571937D01*
X131867937Y-49427774D01*
X131981205Y-49258256D01*
X132059226Y-49069898D01*
X132099000Y-48869939D01*
X132099000Y-48666061D01*
X132059226Y-48466102D01*
X131981205Y-48277744D01*
X131867937Y-48108226D01*
X131763711Y-48004000D01*
X131765199Y-48004000D01*
X132569000Y-48807802D01*
X132569000Y-48869939D01*
X132608774Y-49069898D01*
X132686795Y-49258256D01*
X132800063Y-49427774D01*
X132944226Y-49571937D01*
X133113744Y-49685205D01*
X133302102Y-49763226D01*
X133502061Y-49803000D01*
X133705939Y-49803000D01*
X133905898Y-49763226D01*
X134094256Y-49685205D01*
X134263774Y-49571937D01*
X134407937Y-49427774D01*
X134521205Y-49258256D01*
X134599226Y-49069898D01*
X134639000Y-48869939D01*
X134639000Y-48666061D01*
X134599226Y-48466102D01*
X134521205Y-48277744D01*
X134407937Y-48108226D01*
X134263774Y-47964063D01*
X134094256Y-47850795D01*
X133905898Y-47772774D01*
X133705939Y-47733000D01*
X133643802Y-47733000D01*
X132643803Y-46733002D01*
X132620001Y-46703999D01*
X132504276Y-46609026D01*
X132372247Y-46538454D01*
X132228986Y-46494997D01*
X132117333Y-46484000D01*
X132117322Y-46484000D01*
X132080000Y-46480324D01*
X132042678Y-46484000D01*
X127818802Y-46484000D01*
X128838803Y-45464000D01*
X131884289Y-45464000D01*
X131928226Y-45507937D01*
X132097744Y-45621205D01*
X132286102Y-45699226D01*
X132486061Y-45739000D01*
X132689939Y-45739000D01*
X132889898Y-45699226D01*
X133078256Y-45621205D01*
X133247774Y-45507937D01*
X133391937Y-45363774D01*
X133505205Y-45194256D01*
X133583226Y-45005898D01*
X133623000Y-44805939D01*
X133623000Y-44602061D01*
X133583226Y-44402102D01*
X133505205Y-44213744D01*
X133391937Y-44044226D01*
X133247774Y-43900063D01*
X133078256Y-43786795D01*
X132889898Y-43708774D01*
X132689939Y-43669000D01*
X132486061Y-43669000D01*
X132286102Y-43708774D01*
X132097744Y-43786795D01*
X131928226Y-43900063D01*
X131884289Y-43944000D01*
X128561322Y-43944000D01*
X128523999Y-43940324D01*
X128486676Y-43944000D01*
X128486667Y-43944000D01*
X128375014Y-43954997D01*
X128231753Y-43998454D01*
X128099724Y-44069026D01*
X128099722Y-44069027D01*
X128099723Y-44069027D01*
X128012996Y-44140201D01*
X128012992Y-44140205D01*
X127983999Y-44163999D01*
X127960205Y-44192992D01*
X125472998Y-46680201D01*
X125444000Y-46703999D01*
X125420202Y-46732997D01*
X125420201Y-46732998D01*
X125349026Y-46819724D01*
X125278454Y-46951754D01*
X125249728Y-47046454D01*
X125236980Y-47088482D01*
X125234998Y-47095015D01*
X125220324Y-47244000D01*
X125224001Y-47281332D01*
X125224000Y-48664289D01*
X125180063Y-48708226D01*
X125066795Y-48877744D01*
X124988774Y-49066102D01*
X124949000Y-49266061D01*
X124949000Y-49469939D01*
X124988774Y-49669898D01*
X125066795Y-49858256D01*
X125180063Y-50027774D01*
X125324226Y-50171937D01*
X125493744Y-50285205D01*
X125682102Y-50363226D01*
X125882061Y-50403000D01*
X126085939Y-50403000D01*
X126285898Y-50363226D01*
X126474256Y-50285205D01*
X126494000Y-50272012D01*
X126494000Y-50556849D01*
X126444102Y-50566774D01*
X126255744Y-50644795D01*
X126086226Y-50758063D01*
X125942063Y-50902226D01*
X125828795Y-51071744D01*
X125750774Y-51260102D01*
X125711000Y-51460061D01*
X125711000Y-51663939D01*
X125750774Y-51863898D01*
X125828795Y-52052256D01*
X125942063Y-52221774D01*
X126086226Y-52365937D01*
X126255744Y-52479205D01*
X126444102Y-52557226D01*
X126644061Y-52597000D01*
X126847939Y-52597000D01*
X127047898Y-52557226D01*
X127236256Y-52479205D01*
X127405774Y-52365937D01*
X127549937Y-52221774D01*
X127663205Y-52052256D01*
X127741226Y-51863898D01*
X127781000Y-51663939D01*
X127781000Y-51604671D01*
X127794001Y-51594001D01*
X127888974Y-51478276D01*
X127959546Y-51346247D01*
X128003003Y-51202986D01*
X128014000Y-51091333D01*
X128014000Y-51091324D01*
X128017676Y-51054001D01*
X128014000Y-51016678D01*
X128014000Y-48066801D01*
X128076802Y-48004000D01*
X128889987Y-48004000D01*
X128876795Y-48023744D01*
X128798774Y-48212102D01*
X128759000Y-48412061D01*
X128759000Y-48471329D01*
X128745999Y-48481999D01*
X128690871Y-48549174D01*
X128651026Y-48597724D01*
X128616142Y-48662987D01*
X128580454Y-48729754D01*
X128536997Y-48873015D01*
X128526000Y-48984668D01*
X128526000Y-48984678D01*
X128522324Y-49022000D01*
X128526000Y-49059323D01*
X128526001Y-52009197D01*
X126939199Y-53596000D01*
X120687323Y-53596000D01*
X120650000Y-53592324D01*
X120612677Y-53596000D01*
X120612667Y-53596000D01*
X120501014Y-53606997D01*
X120357753Y-53650454D01*
X120225723Y-53721026D01*
X120142083Y-53789668D01*
X120109999Y-53815999D01*
X120086201Y-53844997D01*
X118941886Y-54989312D01*
X118759335Y-54953000D01*
X118476665Y-54953000D01*
X118199426Y-55008147D01*
X117938273Y-55116320D01*
X117703241Y-55273363D01*
X117503363Y-55473241D01*
X117348000Y-55705759D01*
X117192637Y-55473241D01*
X116992759Y-55273363D01*
X116757727Y-55116320D01*
X116496574Y-55008147D01*
X116219335Y-54953000D01*
X115936665Y-54953000D01*
X115659426Y-55008147D01*
X115398273Y-55116320D01*
X115163241Y-55273363D01*
X114963363Y-55473241D01*
X114808000Y-55705759D01*
X114652637Y-55473241D01*
X114452759Y-55273363D01*
X114217727Y-55116320D01*
X113956574Y-55008147D01*
X113679335Y-54953000D01*
X113396665Y-54953000D01*
X113119426Y-55008147D01*
X112858273Y-55116320D01*
X112623241Y-55273363D01*
X112423363Y-55473241D01*
X112268000Y-55705759D01*
X112112637Y-55473241D01*
X111912759Y-55273363D01*
X111677727Y-55116320D01*
X111416574Y-55008147D01*
X111139335Y-54953000D01*
X110856665Y-54953000D01*
X110579426Y-55008147D01*
X110318273Y-55116320D01*
X110083241Y-55273363D01*
X109883363Y-55473241D01*
X109728000Y-55705759D01*
X109572637Y-55473241D01*
X109372759Y-55273363D01*
X109137727Y-55116320D01*
X108876574Y-55008147D01*
X108599335Y-54953000D01*
X108316665Y-54953000D01*
X108039426Y-55008147D01*
X107778273Y-55116320D01*
X107543241Y-55273363D01*
X107343363Y-55473241D01*
X107188000Y-55705759D01*
X107032637Y-55473241D01*
X106832759Y-55273363D01*
X106597727Y-55116320D01*
X106336574Y-55008147D01*
X106059335Y-54953000D01*
X105776665Y-54953000D01*
X105499426Y-55008147D01*
X105238273Y-55116320D01*
X105003241Y-55273363D01*
X104803363Y-55473241D01*
X104648000Y-55705759D01*
X104492637Y-55473241D01*
X104292759Y-55273363D01*
X104057727Y-55116320D01*
X103796574Y-55008147D01*
X103519335Y-54953000D01*
X103236665Y-54953000D01*
X102959426Y-55008147D01*
X102698273Y-55116320D01*
X102463241Y-55273363D01*
X102435000Y-55301604D01*
X102435000Y-52826909D01*
X118294696Y-52826909D01*
X118369367Y-53073481D01*
X118629228Y-53196931D01*
X118908180Y-53267313D01*
X119195502Y-53281921D01*
X119480154Y-53240194D01*
X119751196Y-53143737D01*
X119882633Y-53073481D01*
X119957304Y-52826909D01*
X119126000Y-51995605D01*
X118294696Y-52826909D01*
X102435000Y-52826909D01*
X102435000Y-50974000D01*
X106089138Y-50974000D01*
X106120513Y-51292556D01*
X106213432Y-51598869D01*
X106364325Y-51881170D01*
X106567392Y-52128608D01*
X106814830Y-52331675D01*
X107097131Y-52482568D01*
X107403444Y-52575487D01*
X107642176Y-52599000D01*
X109781824Y-52599000D01*
X110020556Y-52575487D01*
X110326869Y-52482568D01*
X110609170Y-52331675D01*
X110856608Y-52128608D01*
X111056119Y-51885502D01*
X117660079Y-51885502D01*
X117701806Y-52170154D01*
X117798263Y-52441196D01*
X117868519Y-52572633D01*
X118115091Y-52647304D01*
X118946395Y-51816000D01*
X119305605Y-51816000D01*
X120136909Y-52647304D01*
X120383481Y-52572633D01*
X120506931Y-52312772D01*
X120577313Y-52033820D01*
X120591921Y-51746498D01*
X120550194Y-51461846D01*
X120453737Y-51190804D01*
X120383481Y-51059367D01*
X120136909Y-50984696D01*
X119305605Y-51816000D01*
X118946395Y-51816000D01*
X118115091Y-50984696D01*
X117868519Y-51059367D01*
X117745069Y-51319228D01*
X117674687Y-51598180D01*
X117660079Y-51885502D01*
X111056119Y-51885502D01*
X111059675Y-51881170D01*
X111210568Y-51598869D01*
X111303487Y-51292556D01*
X111334862Y-50974000D01*
X111303487Y-50655444D01*
X111210568Y-50349131D01*
X111059675Y-50066830D01*
X110856608Y-49819392D01*
X110609170Y-49616325D01*
X110326869Y-49465432D01*
X110020556Y-49372513D01*
X109781824Y-49349000D01*
X107642176Y-49349000D01*
X107403444Y-49372513D01*
X107097131Y-49465432D01*
X106814830Y-49616325D01*
X106567392Y-49819392D01*
X106364325Y-50066830D01*
X106213432Y-50349131D01*
X106120513Y-50655444D01*
X106089138Y-50974000D01*
X102435000Y-50974000D01*
X102435000Y-44984000D01*
X106093928Y-44984000D01*
X106093928Y-46964000D01*
X106106188Y-47088482D01*
X106142498Y-47208180D01*
X106201463Y-47318494D01*
X106280815Y-47415185D01*
X106377506Y-47494537D01*
X106487820Y-47553502D01*
X106607518Y-47589812D01*
X106732000Y-47602072D01*
X110692000Y-47602072D01*
X110816482Y-47589812D01*
X110936180Y-47553502D01*
X111046494Y-47494537D01*
X111143185Y-47415185D01*
X111222537Y-47318494D01*
X111281502Y-47208180D01*
X111317812Y-47088482D01*
X111330072Y-46964000D01*
X111330072Y-45910500D01*
X117662428Y-45910500D01*
X117662428Y-47561500D01*
X117674688Y-47685982D01*
X117710998Y-47805680D01*
X117769963Y-47915994D01*
X117849315Y-48012685D01*
X117946006Y-48092037D01*
X118056320Y-48151002D01*
X118155463Y-48181077D01*
X117991555Y-48344985D01*
X117831721Y-48584194D01*
X117721626Y-48849988D01*
X117665500Y-49132153D01*
X117665500Y-49419847D01*
X117721626Y-49702012D01*
X117831721Y-49967806D01*
X117991555Y-50207015D01*
X118194985Y-50410445D01*
X118395605Y-50544494D01*
X118369367Y-50558519D01*
X118294696Y-50805091D01*
X119126000Y-51636395D01*
X119957304Y-50805091D01*
X119882633Y-50558519D01*
X119855031Y-50545406D01*
X120057015Y-50410445D01*
X120260445Y-50207015D01*
X120420279Y-49967806D01*
X120530374Y-49702012D01*
X120586500Y-49419847D01*
X120586500Y-49132153D01*
X120530374Y-48849988D01*
X120420279Y-48584194D01*
X120260445Y-48344985D01*
X120096537Y-48181077D01*
X120195680Y-48151002D01*
X120305994Y-48092037D01*
X120402685Y-48012685D01*
X120482037Y-47915994D01*
X120541002Y-47805680D01*
X120577312Y-47685982D01*
X120589572Y-47561500D01*
X120589572Y-45910500D01*
X120577312Y-45786018D01*
X120541002Y-45666320D01*
X120482037Y-45556006D01*
X120402685Y-45459315D01*
X120305994Y-45379963D01*
X120195680Y-45320998D01*
X120075982Y-45284688D01*
X119951500Y-45272428D01*
X118300500Y-45272428D01*
X118176018Y-45284688D01*
X118056320Y-45320998D01*
X117946006Y-45379963D01*
X117849315Y-45459315D01*
X117769963Y-45556006D01*
X117710998Y-45666320D01*
X117674688Y-45786018D01*
X117662428Y-45910500D01*
X111330072Y-45910500D01*
X111330072Y-44984000D01*
X111317812Y-44859518D01*
X111281502Y-44739820D01*
X111222537Y-44629506D01*
X111143185Y-44532815D01*
X111046494Y-44453463D01*
X110936180Y-44394498D01*
X110816482Y-44358188D01*
X110692000Y-44345928D01*
X106732000Y-44345928D01*
X106607518Y-44358188D01*
X106487820Y-44394498D01*
X106377506Y-44453463D01*
X106280815Y-44532815D01*
X106201463Y-44629506D01*
X106142498Y-44739820D01*
X106106188Y-44859518D01*
X106093928Y-44984000D01*
X102435000Y-44984000D01*
X102435000Y-38447951D01*
X112421000Y-38447951D01*
X112421000Y-38768049D01*
X112483448Y-39081995D01*
X112605943Y-39377726D01*
X112783780Y-39643877D01*
X113010123Y-39870220D01*
X113276274Y-40048057D01*
X113572005Y-40170552D01*
X113885951Y-40233000D01*
X114206049Y-40233000D01*
X114519995Y-40170552D01*
X114815726Y-40048057D01*
X115081877Y-39870220D01*
X115308220Y-39643877D01*
X115384137Y-39530260D01*
X115457718Y-39556677D01*
X116406395Y-38608000D01*
X115457718Y-37659323D01*
X115384137Y-37685740D01*
X115308220Y-37572123D01*
X115215815Y-37479718D01*
X115637323Y-37479718D01*
X116586000Y-38428395D01*
X116600143Y-38414253D01*
X116779748Y-38593858D01*
X116765605Y-38608000D01*
X116779748Y-38622143D01*
X116600143Y-38801748D01*
X116586000Y-38787605D01*
X115637323Y-39736282D01*
X115731880Y-39999661D01*
X116019791Y-40139551D01*
X116329462Y-40220584D01*
X116648990Y-40239646D01*
X116966099Y-40196006D01*
X117268600Y-40091339D01*
X117440120Y-39999661D01*
X117523672Y-39766934D01*
X117546498Y-39842180D01*
X117605463Y-39952494D01*
X117684815Y-40049185D01*
X117781506Y-40128537D01*
X117891820Y-40187502D01*
X118011518Y-40223812D01*
X118136000Y-40236072D01*
X120116000Y-40236072D01*
X120240482Y-40223812D01*
X120360180Y-40187502D01*
X120470494Y-40128537D01*
X120567185Y-40049185D01*
X120646537Y-39952494D01*
X120705502Y-39842180D01*
X120741812Y-39722482D01*
X120754072Y-39598000D01*
X120754072Y-38342137D01*
X123243000Y-38342137D01*
X123243001Y-40397864D01*
X123265935Y-40630714D01*
X123356567Y-40929488D01*
X123503745Y-41204839D01*
X123701814Y-41446187D01*
X123943162Y-41644256D01*
X124218513Y-41791434D01*
X124517287Y-41882066D01*
X124828000Y-41912669D01*
X125138714Y-41882066D01*
X125437488Y-41791434D01*
X125712839Y-41644256D01*
X125954187Y-41446187D01*
X126152256Y-41204839D01*
X126299434Y-40929488D01*
X126390066Y-40630714D01*
X126413000Y-40397864D01*
X126413000Y-39497000D01*
X129173000Y-39497000D01*
X129173000Y-40447000D01*
X129228232Y-40753778D01*
X129342252Y-41043886D01*
X129510678Y-41306175D01*
X129727038Y-41530566D01*
X129983017Y-41708436D01*
X130268779Y-41832949D01*
X130385412Y-41860586D01*
X130631000Y-41740584D01*
X130631000Y-39497000D01*
X130885000Y-39497000D01*
X130885000Y-41740584D01*
X131130588Y-41860586D01*
X131247221Y-41832949D01*
X131532983Y-41708436D01*
X131788962Y-41530566D01*
X132005322Y-41306175D01*
X132173748Y-41043886D01*
X132287768Y-40753778D01*
X132343000Y-40447000D01*
X132343000Y-39497000D01*
X130885000Y-39497000D01*
X130631000Y-39497000D01*
X129173000Y-39497000D01*
X126413000Y-39497000D01*
X126413000Y-38342136D01*
X126408161Y-38293000D01*
X129173000Y-38293000D01*
X129173000Y-39243000D01*
X130631000Y-39243000D01*
X130631000Y-36999416D01*
X130885000Y-36999416D01*
X130885000Y-39243000D01*
X132343000Y-39243000D01*
X132343000Y-38293000D01*
X132287768Y-37986222D01*
X132173748Y-37696114D01*
X132005322Y-37433825D01*
X131788962Y-37209434D01*
X131532983Y-37031564D01*
X131247221Y-36907051D01*
X131130588Y-36879414D01*
X130885000Y-36999416D01*
X130631000Y-36999416D01*
X130385412Y-36879414D01*
X130268779Y-36907051D01*
X129983017Y-37031564D01*
X129727038Y-37209434D01*
X129510678Y-37433825D01*
X129342252Y-37696114D01*
X129228232Y-37986222D01*
X129173000Y-38293000D01*
X126408161Y-38293000D01*
X126390066Y-38109286D01*
X126299434Y-37810512D01*
X126152256Y-37535161D01*
X125954187Y-37293813D01*
X125712838Y-37095744D01*
X125437487Y-36948566D01*
X125138713Y-36857934D01*
X124828000Y-36827331D01*
X124517286Y-36857934D01*
X124218512Y-36948566D01*
X123943161Y-37095744D01*
X123701813Y-37293813D01*
X123503744Y-37535162D01*
X123356566Y-37810513D01*
X123265934Y-38109287D01*
X123243000Y-38342137D01*
X120754072Y-38342137D01*
X120754072Y-37618000D01*
X120741812Y-37493518D01*
X120705502Y-37373820D01*
X120646537Y-37263506D01*
X120567185Y-37166815D01*
X120470494Y-37087463D01*
X120360180Y-37028498D01*
X120240482Y-36992188D01*
X120116000Y-36979928D01*
X118136000Y-36979928D01*
X118011518Y-36992188D01*
X117891820Y-37028498D01*
X117781506Y-37087463D01*
X117684815Y-37166815D01*
X117605463Y-37263506D01*
X117546498Y-37373820D01*
X117523672Y-37449066D01*
X117440120Y-37216339D01*
X117152209Y-37076449D01*
X116842538Y-36995416D01*
X116523010Y-36976354D01*
X116205901Y-37019994D01*
X115903400Y-37124661D01*
X115731880Y-37216339D01*
X115637323Y-37479718D01*
X115215815Y-37479718D01*
X115081877Y-37345780D01*
X114815726Y-37167943D01*
X114519995Y-37045448D01*
X114206049Y-36983000D01*
X113885951Y-36983000D01*
X113572005Y-37045448D01*
X113276274Y-37167943D01*
X113010123Y-37345780D01*
X112783780Y-37572123D01*
X112605943Y-37838274D01*
X112483448Y-38134005D01*
X112421000Y-38447951D01*
X102435000Y-38447951D01*
X102435000Y-35092588D01*
X125017414Y-35092588D01*
X125045051Y-35209221D01*
X125169564Y-35494983D01*
X125347434Y-35750962D01*
X125571825Y-35967322D01*
X125834114Y-36135748D01*
X126124222Y-36249768D01*
X126431000Y-36305000D01*
X127381000Y-36305000D01*
X127381000Y-34847000D01*
X127635000Y-34847000D01*
X127635000Y-36305000D01*
X128585000Y-36305000D01*
X128891778Y-36249768D01*
X129181886Y-36135748D01*
X129444175Y-35967322D01*
X129668566Y-35750962D01*
X129846436Y-35494983D01*
X129970949Y-35209221D01*
X129998586Y-35092588D01*
X129878584Y-34847000D01*
X127635000Y-34847000D01*
X127381000Y-34847000D01*
X125137416Y-34847000D01*
X125017414Y-35092588D01*
X102435000Y-35092588D01*
X102435000Y-33935000D01*
X116465478Y-33935000D01*
X116498232Y-33938311D01*
X116532757Y-33935000D01*
X116533647Y-33935000D01*
X116566554Y-33931759D01*
X116632548Y-33925430D01*
X116633395Y-33925175D01*
X116634283Y-33925088D01*
X116687318Y-33909000D01*
X123312682Y-33909000D01*
X123365717Y-33925088D01*
G37*
%TD.AperFunction*%
%TD*%
M02*
