%TF.GenerationSoftware,KiCad,Pcbnew,(6.0.7-1)-1*%
%TF.CreationDate,2022-10-05T22:32:42+11:00*%
%TF.ProjectId,open_jip,6f70656e-5f6a-4697-902e-6b696361645f,rev?*%
%TF.SameCoordinates,Original*%
%TF.FileFunction,Soldermask,Bot*%
%TF.FilePolarity,Negative*%
%FSLAX46Y46*%
G04 Gerber Fmt 4.6, Leading zero omitted, Abs format (unit mm)*
G04 Created by KiCad (PCBNEW (6.0.7-1)-1) date 2022-10-05 22:32:42*
%MOMM*%
%LPD*%
G01*
G04 APERTURE LIST*
%ADD10C,1.000000*%
%ADD11R,1.651000X1.651000*%
%ADD12C,1.651000*%
%ADD13R,1.980000X3.960000*%
%ADD14O,1.980000X3.960000*%
%ADD15R,1.980000X1.980000*%
%ADD16C,1.980000*%
%ADD17R,1.600000X1.600000*%
%ADD18C,1.600000*%
%ADD19O,1.900000X3.800000*%
%ADD20O,3.800000X1.900000*%
%ADD21C,5.700000*%
%ADD22R,1.574800X1.574800*%
%ADD23C,1.574800*%
G04 APERTURE END LIST*
D10*
%TO.C,D2*%
X150270000Y-82000000D02*
G75*
G03*
X150270000Y-82000000I-500000J0D01*
G01*
X147730000Y-82000000D02*
G75*
G03*
X147730000Y-82000000I-500000J0D01*
G01*
%TD*%
D11*
%TO.C,CR1*%
X147549000Y-101200000D03*
D12*
X150089000Y-101200000D03*
X152629000Y-101200000D03*
%TD*%
D13*
%TO.C,J2*%
X134500000Y-99250000D03*
D14*
X139500000Y-99250000D03*
%TD*%
D15*
%TO.C,U1*%
X163830000Y-105410000D03*
D16*
X161290000Y-105410000D03*
X158750000Y-105410000D03*
%TD*%
D17*
%TO.C,U3*%
X189435001Y-74645001D03*
D18*
X186895001Y-74645001D03*
X184355001Y-74645001D03*
X181815001Y-74645001D03*
X179275001Y-74645001D03*
X176735001Y-74645001D03*
X174195001Y-74645001D03*
X171655001Y-74645001D03*
X169115001Y-74645001D03*
X166575001Y-74645001D03*
X164035001Y-74645001D03*
X161495001Y-74645001D03*
X158955001Y-74645001D03*
X156415001Y-74645001D03*
X153875001Y-74645001D03*
X151335001Y-74645001D03*
X148795001Y-74645001D03*
X146255001Y-74645001D03*
X143715001Y-74645001D03*
X141175001Y-74645001D03*
X138635001Y-74645001D03*
X136095001Y-74645001D03*
X133555001Y-74645001D03*
X131015001Y-74645001D03*
X131015001Y-89885001D03*
X133555001Y-89885001D03*
X136095001Y-89885001D03*
X138635001Y-89885001D03*
X141175001Y-89885001D03*
X143715001Y-89885001D03*
X146255001Y-89885001D03*
X148795001Y-89885001D03*
X151335001Y-89885001D03*
X153875001Y-89885001D03*
X156415001Y-89885001D03*
X158955001Y-89885001D03*
X161495001Y-89885001D03*
X164035001Y-89885001D03*
X166575001Y-89885001D03*
X169115001Y-89885001D03*
X171655001Y-89885001D03*
X174195001Y-89885001D03*
X176735001Y-89885001D03*
X179275001Y-89885001D03*
X181815001Y-89885001D03*
X184355001Y-89885001D03*
X186895001Y-89885001D03*
X189435001Y-89885001D03*
%TD*%
D19*
%TO.C,J1*%
X178422000Y-100330000D03*
X184352000Y-100330000D03*
D20*
X181102000Y-95680000D03*
%TD*%
D21*
%TO.C,REF\u002A\u002A*%
X135382000Y-82000000D03*
%TD*%
%TO.C,REF\u002A\u002A*%
X184912000Y-82000000D03*
%TD*%
D22*
%TO.C,R6*%
X159218400Y-94107200D03*
D23*
X169353000Y-96647200D03*
X159218400Y-99187200D03*
%TD*%
M02*
