%TF.GenerationSoftware,KiCad,Pcbnew,(6.0.7-1)-1*%
%TF.CreationDate,2022-09-21T15:36:28+10:00*%
%TF.ProjectId,open_jip,6f70656e-5f6a-4697-902e-6b696361645f,rev?*%
%TF.SameCoordinates,Original*%
%TF.FileFunction,Copper,L2,Bot*%
%TF.FilePolarity,Positive*%
%FSLAX46Y46*%
G04 Gerber Fmt 4.6, Leading zero omitted, Abs format (unit mm)*
G04 Created by KiCad (PCBNEW (6.0.7-1)-1) date 2022-09-21 15:36:28*
%MOMM*%
%LPD*%
G01*
G04 APERTURE LIST*
%TA.AperFunction,ViaPad*%
%ADD10C,0.800000*%
%TD*%
%TA.AperFunction,Conductor*%
%ADD11C,0.250000*%
%TD*%
G04 APERTURE END LIST*
D10*
%TO.N,GND*%
X98600000Y-95700000D03*
X109900000Y-105800000D03*
X110300000Y-92000000D03*
X113900000Y-107600000D03*
X110600000Y-106700000D03*
X111600000Y-81600000D03*
X111800000Y-110100000D03*
X111800000Y-107200000D03*
X109100000Y-79600000D03*
X97700000Y-98500000D03*
X102800000Y-93700000D03*
X110400000Y-78000000D03*
X112800000Y-101100000D03*
X107137500Y-94312500D03*
X105366192Y-118494799D03*
X111800000Y-108100000D03*
X106300000Y-122500000D03*
X109100000Y-92000000D03*
X103800000Y-91600000D03*
X102000000Y-104200000D03*
X97700000Y-97100000D03*
X100300000Y-98500000D03*
X109100000Y-81600000D03*
X100800000Y-103600000D03*
X109100000Y-78000000D03*
X101300000Y-118500000D03*
X112800000Y-100000000D03*
X105200000Y-122500000D03*
X113900000Y-100000000D03*
X100300000Y-100800000D03*
X113900000Y-108700000D03*
X107900000Y-92000000D03*
X109300000Y-106700000D03*
X109500000Y-118200000D03*
X113900000Y-101100000D03*
X108137500Y-94312500D03*
X100300000Y-99600000D03*
X102800000Y-92500000D03*
X113200000Y-106000000D03*
X102000000Y-105300000D03*
X101800000Y-91600000D03*
X111800000Y-109100000D03*
%TO.N,+3.3V*%
X110400000Y-79600000D03*
X101650000Y-99900000D03*
X103900000Y-103400000D03*
X102800000Y-94900000D03*
X114200000Y-98900000D03*
%TO.N,Net-(Q1-Pad2)*%
X108900000Y-114900000D03*
X105000000Y-114400000D03*
%TO.N,SCL*%
X106295759Y-120204241D03*
X96800000Y-95900000D03*
%TO.N,SDA*%
X101500000Y-93700000D03*
X106400000Y-121300000D03*
%TO.N,SHDN*%
X108000000Y-118000000D03*
X103887500Y-100250000D03*
X103900000Y-96400000D03*
%TD*%
D11*
%TO.N,+3.3V*%
X101600000Y-99950000D02*
X101600000Y-103100000D01*
X114500000Y-92500000D02*
X114500000Y-98600000D01*
X101600000Y-103100000D02*
X101900000Y-103400000D01*
X101650000Y-99900000D02*
X101600000Y-99950000D01*
X114500000Y-98600000D02*
X114200000Y-98900000D01*
X101900000Y-103400000D02*
X103900000Y-103400000D01*
X103900000Y-94900000D02*
X102800000Y-94900000D01*
X110400000Y-79600000D02*
X110400000Y-87600000D01*
X110400000Y-88400000D02*
X103900000Y-94900000D01*
X110400000Y-87600000D02*
X110400000Y-88400000D01*
X110400000Y-88400000D02*
X114500000Y-92500000D01*
%TO.N,Net-(Q1-Pad2)*%
X105500000Y-114900000D02*
X108900000Y-114900000D01*
X105000000Y-114400000D02*
X105500000Y-114900000D01*
%TO.N,SCL*%
X106300000Y-120200000D02*
X106300000Y-118400000D01*
X106300000Y-118400000D02*
X104800000Y-116900000D01*
X96800000Y-108900000D02*
X96800000Y-95900000D01*
X104800000Y-116900000D02*
X96800000Y-108900000D01*
X106295759Y-120204241D02*
X106300000Y-120200000D01*
%TO.N,SDA*%
X107100000Y-120600000D02*
X107100000Y-118100000D01*
X107100000Y-118100000D02*
X98700000Y-109700000D01*
X101500000Y-94400000D02*
X101500000Y-93700000D01*
X98700000Y-97200000D02*
X101500000Y-94400000D01*
X106400000Y-121300000D02*
X107100000Y-120600000D01*
X98700000Y-109700000D02*
X98700000Y-97200000D01*
%TO.N,SHDN*%
X104800000Y-102100000D02*
X103887500Y-101187500D01*
X103887500Y-101187500D02*
X103887500Y-100250000D01*
X103887500Y-100250000D02*
X103887500Y-96412500D01*
X103887500Y-96412500D02*
X103900000Y-96400000D01*
X108500000Y-118000000D02*
X113000000Y-113500000D01*
X113000000Y-113500000D02*
X113000000Y-107200000D01*
X108000000Y-118000000D02*
X108500000Y-118000000D01*
X107900000Y-102100000D02*
X104800000Y-102100000D01*
X113000000Y-107200000D02*
X107900000Y-102100000D01*
%TD*%
%TA.AperFunction,Conductor*%
%TO.N,GND*%
G36*
X110444032Y-89356038D02*
G01*
X110489095Y-89384999D01*
X113829595Y-92725499D01*
X113863621Y-92787811D01*
X113866500Y-92814594D01*
X113866500Y-97972181D01*
X113846498Y-98040302D01*
X113791749Y-98087288D01*
X113749278Y-98106197D01*
X113749276Y-98106198D01*
X113743248Y-98108882D01*
X113588747Y-98221134D01*
X113460960Y-98363056D01*
X113365473Y-98528444D01*
X113306458Y-98710072D01*
X113286496Y-98900000D01*
X113306458Y-99089928D01*
X113365473Y-99271556D01*
X113460960Y-99436944D01*
X113588747Y-99578866D01*
X113743248Y-99691118D01*
X113749276Y-99693802D01*
X113749278Y-99693803D01*
X113911681Y-99766109D01*
X113917712Y-99768794D01*
X114011112Y-99788647D01*
X114098056Y-99807128D01*
X114098061Y-99807128D01*
X114104513Y-99808500D01*
X114295487Y-99808500D01*
X114301939Y-99807128D01*
X114301944Y-99807128D01*
X114388887Y-99788647D01*
X114482288Y-99768794D01*
X114488319Y-99766109D01*
X114650722Y-99693803D01*
X114650724Y-99693802D01*
X114656752Y-99691118D01*
X114784333Y-99598425D01*
X114851199Y-99574567D01*
X114920351Y-99590647D01*
X114969831Y-99641561D01*
X114984393Y-99700361D01*
X114984393Y-123650633D01*
X114982893Y-123670018D01*
X114980583Y-123684851D01*
X114980583Y-123684855D01*
X114979202Y-123693724D01*
X114980366Y-123702626D01*
X114980366Y-123702631D01*
X114980382Y-123702750D01*
X114980653Y-123733187D01*
X114973659Y-123795261D01*
X114967380Y-123822769D01*
X114940407Y-123899853D01*
X114928165Y-123925274D01*
X114884718Y-123994420D01*
X114867126Y-124016479D01*
X114809377Y-124074228D01*
X114787323Y-124091816D01*
X114718168Y-124135269D01*
X114692752Y-124147508D01*
X114615664Y-124174482D01*
X114588157Y-124180761D01*
X114571717Y-124182613D01*
X114532624Y-124187017D01*
X114516975Y-124187800D01*
X114508044Y-124187691D01*
X114499173Y-124186309D01*
X114490270Y-124187473D01*
X114490264Y-124187473D01*
X114467603Y-124190436D01*
X114451267Y-124191500D01*
X96849367Y-124191500D01*
X96829982Y-124190000D01*
X96815148Y-124187690D01*
X96815145Y-124187690D01*
X96806276Y-124186309D01*
X96797374Y-124187473D01*
X96797250Y-124187489D01*
X96766808Y-124187760D01*
X96746130Y-124185430D01*
X96704736Y-124180766D01*
X96677229Y-124174487D01*
X96600147Y-124147515D01*
X96574726Y-124135273D01*
X96505574Y-124091822D01*
X96483515Y-124074230D01*
X96425770Y-124016485D01*
X96408178Y-123994426D01*
X96364727Y-123925274D01*
X96352485Y-123899853D01*
X96325513Y-123822772D01*
X96319234Y-123795266D01*
X96313170Y-123741451D01*
X96312888Y-123716640D01*
X96313576Y-123712552D01*
X96313729Y-123700000D01*
X96309773Y-123672376D01*
X96308500Y-123654514D01*
X96308500Y-109608594D01*
X96328502Y-109540473D01*
X96382158Y-109493980D01*
X96452432Y-109483876D01*
X96517012Y-109513370D01*
X96523595Y-109519499D01*
X105629595Y-118625499D01*
X105663621Y-118687811D01*
X105666500Y-118714594D01*
X105666500Y-119497006D01*
X105646498Y-119565127D01*
X105634137Y-119581316D01*
X105556719Y-119667297D01*
X105461232Y-119832685D01*
X105402217Y-120014313D01*
X105382255Y-120204241D01*
X105402217Y-120394169D01*
X105461232Y-120575797D01*
X105464535Y-120581519D01*
X105464536Y-120581520D01*
X105525846Y-120687711D01*
X105556719Y-120741185D01*
X105561139Y-120746094D01*
X105566672Y-120752239D01*
X105597389Y-120816247D01*
X105588625Y-120886701D01*
X105582156Y-120899548D01*
X105565473Y-120928444D01*
X105506458Y-121110072D01*
X105486496Y-121300000D01*
X105506458Y-121489928D01*
X105565473Y-121671556D01*
X105660960Y-121836944D01*
X105788747Y-121978866D01*
X105943248Y-122091118D01*
X105949276Y-122093802D01*
X105949278Y-122093803D01*
X106111681Y-122166109D01*
X106117712Y-122168794D01*
X106211113Y-122188647D01*
X106298056Y-122207128D01*
X106298061Y-122207128D01*
X106304513Y-122208500D01*
X106495487Y-122208500D01*
X106501939Y-122207128D01*
X106501944Y-122207128D01*
X106588887Y-122188647D01*
X106682288Y-122168794D01*
X106688319Y-122166109D01*
X106850722Y-122093803D01*
X106850724Y-122093802D01*
X106856752Y-122091118D01*
X107011253Y-121978866D01*
X107139040Y-121836944D01*
X107234527Y-121671556D01*
X107293542Y-121489928D01*
X107310907Y-121324706D01*
X107337920Y-121259050D01*
X107347122Y-121248782D01*
X107492247Y-121103657D01*
X107500537Y-121096113D01*
X107507018Y-121092000D01*
X107553659Y-121042332D01*
X107556413Y-121039491D01*
X107576134Y-121019770D01*
X107578612Y-121016575D01*
X107586318Y-121007553D01*
X107611158Y-120981101D01*
X107616586Y-120975321D01*
X107626346Y-120957568D01*
X107637199Y-120941045D01*
X107644753Y-120931306D01*
X107649613Y-120925041D01*
X107667176Y-120884457D01*
X107672383Y-120873827D01*
X107693695Y-120835060D01*
X107695666Y-120827383D01*
X107695668Y-120827378D01*
X107698732Y-120815442D01*
X107705138Y-120796730D01*
X107710034Y-120785417D01*
X107713181Y-120778145D01*
X107718258Y-120746094D01*
X107720097Y-120734481D01*
X107722504Y-120722860D01*
X107731528Y-120687711D01*
X107731528Y-120687710D01*
X107733500Y-120680030D01*
X107733500Y-120659769D01*
X107735051Y-120640058D01*
X107736979Y-120627885D01*
X107738219Y-120620057D01*
X107734059Y-120576046D01*
X107733500Y-120564189D01*
X107733500Y-119027748D01*
X107753502Y-118959627D01*
X107807158Y-118913134D01*
X107877432Y-118903030D01*
X107885694Y-118904501D01*
X107898049Y-118907127D01*
X107898058Y-118907128D01*
X107904513Y-118908500D01*
X108095487Y-118908500D01*
X108101939Y-118907128D01*
X108101944Y-118907128D01*
X108188888Y-118888647D01*
X108282288Y-118868794D01*
X108288319Y-118866109D01*
X108450722Y-118793803D01*
X108450724Y-118793802D01*
X108456752Y-118791118D01*
X108611253Y-118678866D01*
X108649642Y-118636231D01*
X108696898Y-118603389D01*
X108699914Y-118602195D01*
X108711142Y-118598351D01*
X108720384Y-118595666D01*
X108753593Y-118586018D01*
X108760412Y-118581985D01*
X108760417Y-118581983D01*
X108771028Y-118575707D01*
X108788776Y-118567012D01*
X108807617Y-118559552D01*
X108843387Y-118533564D01*
X108853307Y-118527048D01*
X108884535Y-118508580D01*
X108884538Y-118508578D01*
X108891362Y-118504542D01*
X108905683Y-118490221D01*
X108920717Y-118477380D01*
X108930694Y-118470131D01*
X108937107Y-118465472D01*
X108965298Y-118431395D01*
X108973288Y-118422616D01*
X113392253Y-114003652D01*
X113400539Y-113996112D01*
X113407018Y-113992000D01*
X113453644Y-113942348D01*
X113456398Y-113939507D01*
X113476135Y-113919770D01*
X113478615Y-113916573D01*
X113486320Y-113907551D01*
X113511159Y-113881100D01*
X113516586Y-113875321D01*
X113520405Y-113868375D01*
X113520407Y-113868372D01*
X113526348Y-113857566D01*
X113537199Y-113841047D01*
X113544758Y-113831301D01*
X113549614Y-113825041D01*
X113552759Y-113817772D01*
X113552762Y-113817768D01*
X113567174Y-113784463D01*
X113572391Y-113773813D01*
X113593695Y-113735060D01*
X113598733Y-113715437D01*
X113605137Y-113696734D01*
X113610033Y-113685420D01*
X113610033Y-113685419D01*
X113613181Y-113678145D01*
X113614420Y-113670322D01*
X113614423Y-113670312D01*
X113620099Y-113634476D01*
X113622505Y-113622856D01*
X113631528Y-113587711D01*
X113631528Y-113587710D01*
X113633500Y-113580030D01*
X113633500Y-113559776D01*
X113635051Y-113540065D01*
X113636980Y-113527886D01*
X113638220Y-113520057D01*
X113634059Y-113476038D01*
X113633500Y-113464181D01*
X113633500Y-107278767D01*
X113634027Y-107267584D01*
X113635702Y-107260091D01*
X113633562Y-107192014D01*
X113633500Y-107188055D01*
X113633500Y-107160144D01*
X113632995Y-107156144D01*
X113632062Y-107144301D01*
X113630922Y-107108029D01*
X113630673Y-107100110D01*
X113625022Y-107080658D01*
X113621014Y-107061306D01*
X113619467Y-107049063D01*
X113618474Y-107041203D01*
X113615556Y-107033832D01*
X113602200Y-107000097D01*
X113598355Y-106988870D01*
X113597721Y-106986687D01*
X113586018Y-106946407D01*
X113581984Y-106939585D01*
X113581981Y-106939579D01*
X113575706Y-106928968D01*
X113567010Y-106911218D01*
X113562472Y-106899756D01*
X113562469Y-106899751D01*
X113559552Y-106892383D01*
X113533573Y-106856625D01*
X113527057Y-106846707D01*
X113508575Y-106815457D01*
X113504542Y-106808637D01*
X113490218Y-106794313D01*
X113477376Y-106779278D01*
X113465472Y-106762893D01*
X113431406Y-106734711D01*
X113422627Y-106726722D01*
X108403652Y-101707747D01*
X108396112Y-101699461D01*
X108392000Y-101692982D01*
X108342348Y-101646356D01*
X108339507Y-101643602D01*
X108319770Y-101623865D01*
X108316573Y-101621385D01*
X108307551Y-101613680D01*
X108275321Y-101583414D01*
X108268375Y-101579595D01*
X108268372Y-101579593D01*
X108257566Y-101573652D01*
X108241047Y-101562801D01*
X108240583Y-101562441D01*
X108225041Y-101550386D01*
X108217772Y-101547241D01*
X108217768Y-101547238D01*
X108184463Y-101532826D01*
X108173813Y-101527609D01*
X108135060Y-101506305D01*
X108115437Y-101501267D01*
X108096734Y-101494863D01*
X108085420Y-101489967D01*
X108085419Y-101489967D01*
X108078145Y-101486819D01*
X108070322Y-101485580D01*
X108070312Y-101485577D01*
X108034476Y-101479901D01*
X108022856Y-101477495D01*
X107987711Y-101468472D01*
X107987710Y-101468472D01*
X107980030Y-101466500D01*
X107959776Y-101466500D01*
X107940065Y-101464949D01*
X107927886Y-101463020D01*
X107920057Y-101461780D01*
X107912165Y-101462526D01*
X107876039Y-101465941D01*
X107864181Y-101466500D01*
X105114595Y-101466500D01*
X105046474Y-101446498D01*
X105025499Y-101429595D01*
X104595628Y-100999723D01*
X104561603Y-100937411D01*
X104566668Y-100866595D01*
X104591087Y-100826318D01*
X104622125Y-100791847D01*
X104626540Y-100786944D01*
X104722027Y-100621556D01*
X104781042Y-100439928D01*
X104801004Y-100250000D01*
X104781042Y-100060072D01*
X104722027Y-99878444D01*
X104626540Y-99713056D01*
X104553363Y-99631785D01*
X104522647Y-99567779D01*
X104521000Y-99547476D01*
X104521000Y-97116407D01*
X104541002Y-97048286D01*
X104553364Y-97032097D01*
X104634621Y-96941852D01*
X104634622Y-96941851D01*
X104639040Y-96936944D01*
X104707193Y-96818900D01*
X104731223Y-96777279D01*
X104731224Y-96777278D01*
X104734527Y-96771556D01*
X104793542Y-96589928D01*
X104801080Y-96518213D01*
X104812814Y-96406565D01*
X104813504Y-96400000D01*
X104793542Y-96210072D01*
X104734527Y-96028444D01*
X104639040Y-95863056D01*
X104511253Y-95721134D01*
X104356752Y-95608882D01*
X104350724Y-95606198D01*
X104350722Y-95606197D01*
X104337598Y-95600354D01*
X104283502Y-95554373D01*
X104262853Y-95486446D01*
X104282206Y-95418138D01*
X104299752Y-95396152D01*
X104305683Y-95390221D01*
X104320717Y-95377380D01*
X104330694Y-95370131D01*
X104337107Y-95365472D01*
X104365298Y-95331395D01*
X104373288Y-95322616D01*
X110310905Y-89384999D01*
X110373217Y-89350973D01*
X110444032Y-89356038D01*
G37*
%TD.AperFunction*%
%TA.AperFunction,Conductor*%
G36*
X101845029Y-95055041D02*
G01*
X101901865Y-95097588D01*
X101920830Y-95134160D01*
X101965473Y-95271556D01*
X102060960Y-95436944D01*
X102188747Y-95578866D01*
X102343248Y-95691118D01*
X102349276Y-95693802D01*
X102349278Y-95693803D01*
X102511681Y-95766109D01*
X102517712Y-95768794D01*
X102611112Y-95788647D01*
X102698056Y-95807128D01*
X102698061Y-95807128D01*
X102704513Y-95808500D01*
X102895487Y-95808500D01*
X102901939Y-95807128D01*
X102901944Y-95807128D01*
X102957183Y-95795386D01*
X103027974Y-95800788D01*
X103084606Y-95843605D01*
X103109100Y-95910242D01*
X103092500Y-95981632D01*
X103065473Y-96028444D01*
X103006458Y-96210072D01*
X102986496Y-96400000D01*
X102987186Y-96406565D01*
X102998921Y-96518213D01*
X103006458Y-96589928D01*
X103065473Y-96771556D01*
X103068776Y-96777278D01*
X103068777Y-96777279D01*
X103092807Y-96818900D01*
X103160960Y-96936944D01*
X103221638Y-97004334D01*
X103252354Y-97068340D01*
X103254000Y-97088642D01*
X103254000Y-99547476D01*
X103233998Y-99615597D01*
X103221642Y-99631779D01*
X103148460Y-99713056D01*
X103052973Y-99878444D01*
X102993958Y-100060072D01*
X102973996Y-100250000D01*
X102993958Y-100439928D01*
X103052973Y-100621556D01*
X103148460Y-100786944D01*
X103221637Y-100868215D01*
X103252353Y-100932221D01*
X103254000Y-100952524D01*
X103254000Y-101108733D01*
X103253473Y-101119916D01*
X103251798Y-101127409D01*
X103252047Y-101135335D01*
X103252047Y-101135336D01*
X103253938Y-101195486D01*
X103254000Y-101199445D01*
X103254000Y-101227356D01*
X103254497Y-101231290D01*
X103254497Y-101231291D01*
X103254505Y-101231356D01*
X103255438Y-101243193D01*
X103256827Y-101287389D01*
X103262478Y-101306839D01*
X103266487Y-101326200D01*
X103269026Y-101346297D01*
X103271945Y-101353668D01*
X103271945Y-101353670D01*
X103285304Y-101387412D01*
X103289149Y-101398642D01*
X103299271Y-101433483D01*
X103301482Y-101441093D01*
X103305515Y-101447912D01*
X103305517Y-101447917D01*
X103311793Y-101458528D01*
X103320488Y-101476276D01*
X103327948Y-101495117D01*
X103332610Y-101501533D01*
X103332610Y-101501534D01*
X103353936Y-101530887D01*
X103360452Y-101540807D01*
X103382958Y-101578862D01*
X103397279Y-101593183D01*
X103410119Y-101608216D01*
X103422028Y-101624607D01*
X103428133Y-101629658D01*
X103428138Y-101629663D01*
X103456104Y-101652799D01*
X103464882Y-101660787D01*
X104080500Y-102276405D01*
X104114526Y-102338717D01*
X104109461Y-102409532D01*
X104066914Y-102466368D01*
X104000394Y-102491179D01*
X103991405Y-102491500D01*
X103804513Y-102491500D01*
X103798061Y-102492872D01*
X103798056Y-102492872D01*
X103711112Y-102511353D01*
X103617712Y-102531206D01*
X103611682Y-102533891D01*
X103611681Y-102533891D01*
X103449278Y-102606197D01*
X103449276Y-102606198D01*
X103443248Y-102608882D01*
X103288747Y-102721134D01*
X103284332Y-102726037D01*
X103279420Y-102730460D01*
X103278295Y-102729211D01*
X103224986Y-102762051D01*
X103191800Y-102766500D01*
X102359500Y-102766500D01*
X102291379Y-102746498D01*
X102244886Y-102692842D01*
X102233500Y-102640500D01*
X102233500Y-100658055D01*
X102253502Y-100589934D01*
X102265864Y-100573745D01*
X102384621Y-100441852D01*
X102384622Y-100441851D01*
X102389040Y-100436944D01*
X102484527Y-100271556D01*
X102543542Y-100089928D01*
X102563504Y-99900000D01*
X102543542Y-99710072D01*
X102484527Y-99528444D01*
X102389040Y-99363056D01*
X102261253Y-99221134D01*
X102106752Y-99108882D01*
X102100724Y-99106198D01*
X102100722Y-99106197D01*
X101938319Y-99033891D01*
X101938318Y-99033891D01*
X101932288Y-99031206D01*
X101838888Y-99011353D01*
X101751944Y-98992872D01*
X101751939Y-98992872D01*
X101745487Y-98991500D01*
X101554513Y-98991500D01*
X101548061Y-98992872D01*
X101548056Y-98992872D01*
X101461113Y-99011353D01*
X101367712Y-99031206D01*
X101361682Y-99033891D01*
X101361681Y-99033891D01*
X101199278Y-99106197D01*
X101199276Y-99106198D01*
X101193248Y-99108882D01*
X101038747Y-99221134D01*
X100910960Y-99363056D01*
X100815473Y-99528444D01*
X100756458Y-99710072D01*
X100736496Y-99900000D01*
X100756458Y-100089928D01*
X100815473Y-100271556D01*
X100910960Y-100436944D01*
X100915379Y-100441852D01*
X100915383Y-100441857D01*
X100934135Y-100462683D01*
X100964853Y-100526690D01*
X100966500Y-100546994D01*
X100966500Y-103021233D01*
X100965973Y-103032416D01*
X100964298Y-103039909D01*
X100964547Y-103047835D01*
X100964547Y-103047836D01*
X100966438Y-103107986D01*
X100966500Y-103111945D01*
X100966500Y-103139856D01*
X100966997Y-103143790D01*
X100966997Y-103143791D01*
X100967005Y-103143856D01*
X100967938Y-103155693D01*
X100969327Y-103199889D01*
X100974978Y-103219339D01*
X100978987Y-103238700D01*
X100981526Y-103258797D01*
X100984445Y-103266168D01*
X100984445Y-103266170D01*
X100997804Y-103299912D01*
X101001649Y-103311142D01*
X101013982Y-103353593D01*
X101018015Y-103360412D01*
X101018017Y-103360417D01*
X101024293Y-103371028D01*
X101032988Y-103388776D01*
X101040448Y-103407617D01*
X101045110Y-103414033D01*
X101045110Y-103414034D01*
X101066436Y-103443387D01*
X101072952Y-103453307D01*
X101095458Y-103491362D01*
X101101064Y-103496969D01*
X101109780Y-103505685D01*
X101122620Y-103520718D01*
X101134528Y-103537107D01*
X101140635Y-103542159D01*
X101168593Y-103565288D01*
X101177374Y-103573278D01*
X101396353Y-103792258D01*
X101403887Y-103800537D01*
X101408000Y-103807018D01*
X101457652Y-103853644D01*
X101460494Y-103856399D01*
X101480230Y-103876135D01*
X101483427Y-103878615D01*
X101492447Y-103886318D01*
X101524679Y-103916586D01*
X101531625Y-103920405D01*
X101531628Y-103920407D01*
X101542434Y-103926348D01*
X101558953Y-103937199D01*
X101574959Y-103949614D01*
X101582228Y-103952759D01*
X101582232Y-103952762D01*
X101615537Y-103967174D01*
X101626187Y-103972391D01*
X101664940Y-103993695D01*
X101672615Y-103995666D01*
X101672616Y-103995666D01*
X101684562Y-103998733D01*
X101703267Y-104005137D01*
X101721855Y-104013181D01*
X101729678Y-104014420D01*
X101729688Y-104014423D01*
X101765524Y-104020099D01*
X101777144Y-104022505D01*
X101812289Y-104031528D01*
X101819970Y-104033500D01*
X101840224Y-104033500D01*
X101859934Y-104035051D01*
X101879943Y-104038220D01*
X101887835Y-104037474D01*
X101923961Y-104034059D01*
X101935819Y-104033500D01*
X103191800Y-104033500D01*
X103259921Y-104053502D01*
X103279147Y-104069843D01*
X103279420Y-104069540D01*
X103284332Y-104073963D01*
X103288747Y-104078866D01*
X103443248Y-104191118D01*
X103449276Y-104193802D01*
X103449278Y-104193803D01*
X103611681Y-104266109D01*
X103617712Y-104268794D01*
X103711112Y-104288647D01*
X103798056Y-104307128D01*
X103798061Y-104307128D01*
X103804513Y-104308500D01*
X103995487Y-104308500D01*
X104001939Y-104307128D01*
X104001944Y-104307128D01*
X104088888Y-104288647D01*
X104182288Y-104268794D01*
X104188319Y-104266109D01*
X104350722Y-104193803D01*
X104350724Y-104193802D01*
X104356752Y-104191118D01*
X104511253Y-104078866D01*
X104547851Y-104038220D01*
X104634621Y-103941852D01*
X104634622Y-103941851D01*
X104639040Y-103936944D01*
X104734527Y-103771556D01*
X104793542Y-103589928D01*
X104813504Y-103400000D01*
X104809344Y-103360417D01*
X104794232Y-103216635D01*
X104794232Y-103216633D01*
X104793542Y-103210072D01*
X104734527Y-103028444D01*
X104675635Y-102926440D01*
X104658897Y-102857445D01*
X104682117Y-102790353D01*
X104737925Y-102746466D01*
X104780020Y-102739035D01*
X104779943Y-102738220D01*
X104823962Y-102734059D01*
X104835819Y-102733500D01*
X107585406Y-102733500D01*
X107653527Y-102753502D01*
X107674501Y-102770405D01*
X112329595Y-107425499D01*
X112363621Y-107487811D01*
X112366500Y-107514594D01*
X112366500Y-113185406D01*
X112346498Y-113253527D01*
X112329595Y-113274501D01*
X108475405Y-117128690D01*
X108413093Y-117162716D01*
X108342277Y-117157651D01*
X108335061Y-117154702D01*
X108288319Y-117133891D01*
X108288318Y-117133891D01*
X108282288Y-117131206D01*
X108188888Y-117111353D01*
X108101944Y-117092872D01*
X108101939Y-117092872D01*
X108095487Y-117091500D01*
X107904513Y-117091500D01*
X107898061Y-117092872D01*
X107898056Y-117092872D01*
X107811112Y-117111353D01*
X107717712Y-117131206D01*
X107711682Y-117133891D01*
X107711681Y-117133891D01*
X107549278Y-117206197D01*
X107549276Y-117206198D01*
X107543248Y-117208882D01*
X107388747Y-117321134D01*
X107386605Y-117323513D01*
X107323739Y-117353687D01*
X107253285Y-117344927D01*
X107214334Y-117318430D01*
X105644499Y-115748595D01*
X105610473Y-115686283D01*
X105615538Y-115615468D01*
X105658085Y-115558632D01*
X105724605Y-115533821D01*
X105733594Y-115533500D01*
X108191800Y-115533500D01*
X108259921Y-115553502D01*
X108279147Y-115569843D01*
X108279420Y-115569540D01*
X108284332Y-115573963D01*
X108288747Y-115578866D01*
X108443248Y-115691118D01*
X108449276Y-115693802D01*
X108449278Y-115693803D01*
X108572344Y-115748595D01*
X108617712Y-115768794D01*
X108711113Y-115788647D01*
X108798056Y-115807128D01*
X108798061Y-115807128D01*
X108804513Y-115808500D01*
X108995487Y-115808500D01*
X109001939Y-115807128D01*
X109001944Y-115807128D01*
X109088887Y-115788647D01*
X109182288Y-115768794D01*
X109227656Y-115748595D01*
X109350722Y-115693803D01*
X109350724Y-115693802D01*
X109356752Y-115691118D01*
X109511253Y-115578866D01*
X109639040Y-115436944D01*
X109734527Y-115271556D01*
X109793542Y-115089928D01*
X109813504Y-114900000D01*
X109793542Y-114710072D01*
X109734527Y-114528444D01*
X109639040Y-114363056D01*
X109511253Y-114221134D01*
X109356752Y-114108882D01*
X109350724Y-114106198D01*
X109350722Y-114106197D01*
X109188319Y-114033891D01*
X109188318Y-114033891D01*
X109182288Y-114031206D01*
X109088888Y-114011353D01*
X109001944Y-113992872D01*
X109001939Y-113992872D01*
X108995487Y-113991500D01*
X108804513Y-113991500D01*
X108798061Y-113992872D01*
X108798056Y-113992872D01*
X108711112Y-114011353D01*
X108617712Y-114031206D01*
X108611682Y-114033891D01*
X108611681Y-114033891D01*
X108449278Y-114106197D01*
X108449276Y-114106198D01*
X108443248Y-114108882D01*
X108288747Y-114221134D01*
X108284332Y-114226037D01*
X108279420Y-114230460D01*
X108278295Y-114229211D01*
X108224986Y-114262051D01*
X108191800Y-114266500D01*
X106003421Y-114266500D01*
X105935300Y-114246498D01*
X105888807Y-114192842D01*
X105883588Y-114179437D01*
X105836568Y-114034726D01*
X105834527Y-114028444D01*
X105813990Y-113992872D01*
X105769943Y-113916581D01*
X105739040Y-113863056D01*
X105658676Y-113773802D01*
X105615675Y-113726045D01*
X105615674Y-113726044D01*
X105611253Y-113721134D01*
X105483907Y-113628611D01*
X105462094Y-113612763D01*
X105462093Y-113612762D01*
X105456752Y-113608882D01*
X105450724Y-113606198D01*
X105450722Y-113606197D01*
X105288319Y-113533891D01*
X105288318Y-113533891D01*
X105282288Y-113531206D01*
X105188888Y-113511353D01*
X105101944Y-113492872D01*
X105101939Y-113492872D01*
X105095487Y-113491500D01*
X104904513Y-113491500D01*
X104898061Y-113492872D01*
X104898056Y-113492872D01*
X104811112Y-113511353D01*
X104717712Y-113531206D01*
X104711682Y-113533891D01*
X104711681Y-113533891D01*
X104549278Y-113606197D01*
X104549276Y-113606198D01*
X104543248Y-113608882D01*
X104537907Y-113612762D01*
X104537906Y-113612763D01*
X104516093Y-113628611D01*
X104388747Y-113721134D01*
X104384326Y-113726044D01*
X104384325Y-113726045D01*
X104341325Y-113773802D01*
X104260960Y-113863056D01*
X104165473Y-114028444D01*
X104165035Y-114029791D01*
X104120306Y-114082421D01*
X104052380Y-114103074D01*
X103984071Y-114083725D01*
X103962079Y-114066175D01*
X99370405Y-109474500D01*
X99336379Y-109412188D01*
X99333500Y-109385405D01*
X99333500Y-97514594D01*
X99353502Y-97446473D01*
X99370405Y-97425499D01*
X100592110Y-96203794D01*
X101711904Y-95084001D01*
X101774214Y-95049976D01*
X101845029Y-95055041D01*
G37*
%TD.AperFunction*%
%TA.AperFunction,Conductor*%
G36*
X114462915Y-70317107D02*
G01*
X114477748Y-70319417D01*
X114477752Y-70319417D01*
X114486621Y-70320798D01*
X114495646Y-70319618D01*
X114526081Y-70319346D01*
X114588158Y-70326340D01*
X114615664Y-70332618D01*
X114692752Y-70359592D01*
X114718168Y-70371831D01*
X114787325Y-70415286D01*
X114809380Y-70432875D01*
X114867125Y-70490620D01*
X114884714Y-70512675D01*
X114928169Y-70581832D01*
X114940408Y-70607248D01*
X114967382Y-70684336D01*
X114973661Y-70711844D01*
X114979912Y-70767325D01*
X114979245Y-70782964D01*
X114980694Y-70782982D01*
X114980584Y-70791953D01*
X114979202Y-70800827D01*
X114980366Y-70809730D01*
X114980366Y-70809737D01*
X114983329Y-70832397D01*
X114984393Y-70848733D01*
X114984393Y-91784299D01*
X114964391Y-91852420D01*
X114910735Y-91898913D01*
X114840461Y-91909017D01*
X114775881Y-91879523D01*
X114769298Y-91873394D01*
X111070405Y-88174500D01*
X111036379Y-88112188D01*
X111033500Y-88085405D01*
X111033500Y-80302524D01*
X111053502Y-80234403D01*
X111065858Y-80218221D01*
X111139040Y-80136944D01*
X111234527Y-79971556D01*
X111293542Y-79789928D01*
X111313504Y-79600000D01*
X111293542Y-79410072D01*
X111234527Y-79228444D01*
X111139040Y-79063056D01*
X111011253Y-78921134D01*
X110856752Y-78808882D01*
X110850724Y-78806198D01*
X110850722Y-78806197D01*
X110688319Y-78733891D01*
X110688318Y-78733891D01*
X110682288Y-78731206D01*
X110588887Y-78711353D01*
X110501944Y-78692872D01*
X110501939Y-78692872D01*
X110495487Y-78691500D01*
X110304513Y-78691500D01*
X110298061Y-78692872D01*
X110298056Y-78692872D01*
X110211113Y-78711353D01*
X110117712Y-78731206D01*
X110111682Y-78733891D01*
X110111681Y-78733891D01*
X109949278Y-78806197D01*
X109949276Y-78806198D01*
X109943248Y-78808882D01*
X109788747Y-78921134D01*
X109660960Y-79063056D01*
X109565473Y-79228444D01*
X109506458Y-79410072D01*
X109486496Y-79600000D01*
X109506458Y-79789928D01*
X109565473Y-79971556D01*
X109660960Y-80136944D01*
X109734137Y-80218215D01*
X109764853Y-80282221D01*
X109766500Y-80302524D01*
X109766500Y-88085405D01*
X109746498Y-88153526D01*
X109729595Y-88174500D01*
X103674500Y-94229595D01*
X103612188Y-94263621D01*
X103585405Y-94266500D01*
X103508200Y-94266500D01*
X103440079Y-94246498D01*
X103420853Y-94230157D01*
X103420580Y-94230460D01*
X103415668Y-94226037D01*
X103411253Y-94221134D01*
X103256752Y-94108882D01*
X103250724Y-94106198D01*
X103250722Y-94106197D01*
X103088319Y-94033891D01*
X103088318Y-94033891D01*
X103082288Y-94031206D01*
X102988887Y-94011353D01*
X102901944Y-93992872D01*
X102901939Y-93992872D01*
X102895487Y-93991500D01*
X102704513Y-93991500D01*
X102698061Y-93992872D01*
X102698056Y-93992872D01*
X102611500Y-94011271D01*
X102545150Y-94025374D01*
X102474360Y-94019972D01*
X102417728Y-93977155D01*
X102393234Y-93910518D01*
X102393644Y-93888957D01*
X102412814Y-93706565D01*
X102413504Y-93700000D01*
X102393542Y-93510072D01*
X102334527Y-93328444D01*
X102239040Y-93163056D01*
X102111253Y-93021134D01*
X101956752Y-92908882D01*
X101950724Y-92906198D01*
X101950722Y-92906197D01*
X101788319Y-92833891D01*
X101788318Y-92833891D01*
X101782288Y-92831206D01*
X101688887Y-92811353D01*
X101601944Y-92792872D01*
X101601939Y-92792872D01*
X101595487Y-92791500D01*
X101404513Y-92791500D01*
X101398061Y-92792872D01*
X101398056Y-92792872D01*
X101311112Y-92811353D01*
X101217712Y-92831206D01*
X101211682Y-92833891D01*
X101211681Y-92833891D01*
X101049278Y-92906197D01*
X101049276Y-92906198D01*
X101043248Y-92908882D01*
X100888747Y-93021134D01*
X100760960Y-93163056D01*
X100665473Y-93328444D01*
X100606458Y-93510072D01*
X100586496Y-93700000D01*
X100606458Y-93889928D01*
X100665473Y-94071556D01*
X100668776Y-94077278D01*
X100668777Y-94077279D01*
X100714885Y-94157140D01*
X100731623Y-94226135D01*
X100708403Y-94293227D01*
X100694861Y-94309235D01*
X99494416Y-95509679D01*
X98307747Y-96696348D01*
X98299461Y-96703888D01*
X98292982Y-96708000D01*
X98287557Y-96713777D01*
X98246357Y-96757651D01*
X98243602Y-96760493D01*
X98223865Y-96780230D01*
X98221385Y-96783427D01*
X98213682Y-96792447D01*
X98183414Y-96824679D01*
X98179595Y-96831625D01*
X98179593Y-96831628D01*
X98173652Y-96842434D01*
X98162801Y-96858953D01*
X98150386Y-96874959D01*
X98147241Y-96882228D01*
X98147238Y-96882232D01*
X98132826Y-96915537D01*
X98127609Y-96926187D01*
X98106305Y-96964940D01*
X98104334Y-96972615D01*
X98104334Y-96972616D01*
X98101267Y-96984562D01*
X98094863Y-97003266D01*
X98086819Y-97021855D01*
X98085580Y-97029678D01*
X98085577Y-97029688D01*
X98079901Y-97065524D01*
X98077495Y-97077144D01*
X98066500Y-97119970D01*
X98066500Y-97140224D01*
X98064949Y-97159934D01*
X98061780Y-97179943D01*
X98062526Y-97187835D01*
X98065941Y-97223961D01*
X98066500Y-97235819D01*
X98066500Y-108966405D01*
X98046498Y-109034526D01*
X97992842Y-109081019D01*
X97922568Y-109091123D01*
X97857988Y-109061629D01*
X97851405Y-109055500D01*
X97470405Y-108674500D01*
X97436379Y-108612188D01*
X97433500Y-108585405D01*
X97433500Y-96602524D01*
X97453502Y-96534403D01*
X97465858Y-96518221D01*
X97539040Y-96436944D01*
X97634527Y-96271556D01*
X97693542Y-96089928D01*
X97713504Y-95900000D01*
X97693542Y-95710072D01*
X97634527Y-95528444D01*
X97539040Y-95363056D01*
X97510533Y-95331395D01*
X97415675Y-95226045D01*
X97415674Y-95226044D01*
X97411253Y-95221134D01*
X97256752Y-95108882D01*
X97250724Y-95106198D01*
X97250722Y-95106197D01*
X97088319Y-95033891D01*
X97088318Y-95033891D01*
X97082288Y-95031206D01*
X96988888Y-95011353D01*
X96901944Y-94992872D01*
X96901939Y-94992872D01*
X96895487Y-94991500D01*
X96704513Y-94991500D01*
X96698061Y-94992872D01*
X96698056Y-94992872D01*
X96611112Y-95011353D01*
X96517712Y-95031206D01*
X96485748Y-95045437D01*
X96415382Y-95054871D01*
X96351085Y-95024765D01*
X96313272Y-94964676D01*
X96308500Y-94930330D01*
X96308500Y-70902115D01*
X96310000Y-70882731D01*
X96319417Y-70822252D01*
X96319417Y-70822248D01*
X96320798Y-70813379D01*
X96319618Y-70804354D01*
X96319346Y-70773916D01*
X96320871Y-70760386D01*
X96326340Y-70711842D01*
X96332618Y-70684336D01*
X96359592Y-70607248D01*
X96371831Y-70581832D01*
X96415286Y-70512675D01*
X96432875Y-70490620D01*
X96490620Y-70432875D01*
X96512675Y-70415286D01*
X96581832Y-70371831D01*
X96607248Y-70359592D01*
X96684336Y-70332618D01*
X96711841Y-70326340D01*
X96767327Y-70320088D01*
X96782964Y-70320755D01*
X96782982Y-70319306D01*
X96791953Y-70319416D01*
X96800827Y-70320798D01*
X96809730Y-70319634D01*
X96809737Y-70319634D01*
X96832397Y-70316671D01*
X96848733Y-70315607D01*
X114443530Y-70315607D01*
X114462915Y-70317107D01*
G37*
%TD.AperFunction*%
%TD*%
M02*
