M48
; DRILL file {KiCad (6.0.7-1)-1} date Thursday, 13 October 2022 at 09:49:38 pm
; FORMAT={-:-/ absolute / metric / decimal}
; #@! TF.CreationDate,2022-10-13T21:49:38+11:00
; #@! TF.GenerationSoftware,Kicad,Pcbnew,(6.0.7-1)-1
; #@! TF.FileFunction,Plated,1,2,PTH
FMAT,2
METRIC
; #@! TA.AperFunction,Plated,PTH,ViaDrill
T1C0.400
; #@! TA.AperFunction,Plated,PTH,ComponentDrill
T2C1.000
%
G90
G05
T1
X97.0Y-90.0
X97.0Y-98.5
X97.0Y-105.73
X97.0Y-107.73
X97.0Y-109.73
X97.0Y-111.73
X97.0Y-113.73
X98.5Y-98.5
X98.75Y-95.7
X99.0Y-113.73
X99.48Y-104.34
X100.0Y-72.5
X100.0Y-75.0
X100.0Y-77.5
X100.0Y-82.5
X100.0Y-98.5
X101.0Y-113.73
X102.0Y-92.0
X102.5Y-77.5
X102.5Y-80.0
X102.5Y-85.0
X102.5Y-87.5
X103.0Y-113.73
X104.0Y-99.0
X104.19Y-109.24
X104.2Y-111.18
X105.0Y-77.5
X105.0Y-80.0
X105.0Y-82.5
X105.18Y-97.03
X105.2Y-100.62
X105.58Y-93.859
X107.5Y-77.5
X107.5Y-80.0
X107.5Y-85.0
X107.5Y-87.5
X109.96Y-80.55
X110.0Y-77.5
X110.0Y-82.5
X110.0Y-85.0
X110.0Y-87.5
X111.16Y-79.15
X113.23Y-90.14
X114.0Y-97.0
X114.0Y-99.0
X114.0Y-101.0
X114.0Y-103.0
X114.0Y-105.0
T2
X107.16Y-103.1
X109.7Y-103.1
T0
M30
