M48
; DRILL file {KiCad (6.0.7-1)-1} date Wednesday, 21 September 2022 at 03:36:24 pm
; FORMAT={-:-/ absolute / metric / decimal}
; #@! TF.CreationDate,2022-09-21T15:36:24+10:00
; #@! TF.GenerationSoftware,Kicad,Pcbnew,(6.0.7-1)-1
; #@! TF.FileFunction,Plated,1,2,PTH
FMAT,2
METRIC
; #@! TA.AperFunction,Plated,PTH,ViaDrill
T1C0.400
%
G90
G05
T1
X96.8Y-95.9
X97.7Y-97.1
X97.7Y-98.5
X98.6Y-95.7
X100.3Y-98.5
X100.3Y-99.6
X100.3Y-100.8
X100.8Y-103.6
X101.3Y-118.5
X101.5Y-93.7
X101.65Y-99.9
X101.8Y-91.6
X102.0Y-104.2
X102.0Y-105.3
X102.8Y-92.5
X102.8Y-93.7
X102.8Y-94.9
X103.8Y-91.6
X103.887Y-100.25
X103.9Y-96.4
X103.9Y-103.4
X105.0Y-114.4
X105.2Y-122.5
X105.366Y-118.495
X106.296Y-120.204
X106.3Y-122.5
X106.4Y-121.3
X107.137Y-94.312
X107.9Y-92.0
X108.0Y-118.0
X108.137Y-94.312
X108.9Y-114.9
X109.1Y-78.0
X109.1Y-79.6
X109.1Y-81.6
X109.1Y-92.0
X109.3Y-106.7
X109.5Y-118.2
X109.9Y-105.8
X110.3Y-92.0
X110.4Y-78.0
X110.4Y-79.6
X110.6Y-106.7
X111.6Y-81.6
X111.8Y-107.2
X111.8Y-108.1
X111.8Y-109.1
X111.8Y-110.1
X112.8Y-100.0
X112.8Y-101.1
X113.2Y-106.0
X113.9Y-100.0
X113.9Y-101.1
X113.9Y-107.6
X113.9Y-108.7
X114.2Y-98.9
T0
M30
