%TF.GenerationSoftware,KiCad,Pcbnew,(6.0.7-1)-1*%
%TF.CreationDate,2022-09-21T15:36:28+10:00*%
%TF.ProjectId,open_jip,6f70656e-5f6a-4697-902e-6b696361645f,rev?*%
%TF.SameCoordinates,Original*%
%TF.FileFunction,Paste,Top*%
%TF.FilePolarity,Positive*%
%FSLAX46Y46*%
G04 Gerber Fmt 4.6, Leading zero omitted, Abs format (unit mm)*
G04 Created by KiCad (PCBNEW (6.0.7-1)-1) date 2022-09-21 15:36:28*
%MOMM*%
%LPD*%
G01*
G04 APERTURE LIST*
G04 Aperture macros list*
%AMRoundRect*
0 Rectangle with rounded corners*
0 $1 Rounding radius*
0 $2 $3 $4 $5 $6 $7 $8 $9 X,Y pos of 4 corners*
0 Add a 4 corners polygon primitive as box body*
4,1,4,$2,$3,$4,$5,$6,$7,$8,$9,$2,$3,0*
0 Add four circle primitives for the rounded corners*
1,1,$1+$1,$2,$3*
1,1,$1+$1,$4,$5*
1,1,$1+$1,$6,$7*
1,1,$1+$1,$8,$9*
0 Add four rect primitives between the rounded corners*
20,1,$1+$1,$2,$3,$4,$5,0*
20,1,$1+$1,$4,$5,$6,$7,0*
20,1,$1+$1,$6,$7,$8,$9,0*
20,1,$1+$1,$8,$9,$2,$3,0*%
G04 Aperture macros list end*
%ADD10C,0.010000*%
%ADD11RoundRect,0.250000X-0.450000X0.262500X-0.450000X-0.262500X0.450000X-0.262500X0.450000X0.262500X0*%
%ADD12RoundRect,0.250000X0.475000X-0.250000X0.475000X0.250000X-0.475000X0.250000X-0.475000X-0.250000X0*%
%ADD13RoundRect,0.250000X0.250000X0.475000X-0.250000X0.475000X-0.250000X-0.475000X0.250000X-0.475000X0*%
%ADD14RoundRect,0.250000X-0.262500X-0.450000X0.262500X-0.450000X0.262500X0.450000X-0.262500X0.450000X0*%
%ADD15RoundRect,0.150000X0.512500X0.150000X-0.512500X0.150000X-0.512500X-0.150000X0.512500X-0.150000X0*%
%ADD16R,3.300000X0.500000*%
%ADD17R,1.270000X0.482600*%
%ADD18O,2.748280X1.998980*%
%ADD19O,1.016000X2.032000*%
%ADD20C,1.143000*%
%ADD21RoundRect,0.040600X-0.564400X-0.249400X0.564400X-0.249400X0.564400X0.249400X-0.564400X0.249400X0*%
%ADD22RoundRect,0.250000X0.450000X-0.262500X0.450000X0.262500X-0.450000X0.262500X-0.450000X-0.262500X0*%
%ADD23RoundRect,0.150000X-0.512500X-0.150000X0.512500X-0.150000X0.512500X0.150000X-0.512500X0.150000X0*%
%ADD24RoundRect,0.250000X-0.250000X-0.475000X0.250000X-0.475000X0.250000X0.475000X-0.250000X0.475000X0*%
%ADD25R,0.450000X0.700000*%
%ADD26RoundRect,0.250000X-0.362500X-1.425000X0.362500X-1.425000X0.362500X1.425000X-0.362500X1.425000X0*%
%ADD27RoundRect,0.250000X-0.475000X0.250000X-0.475000X-0.250000X0.475000X-0.250000X0.475000X0.250000X0*%
%ADD28RoundRect,0.247000X0.653000X0.403000X-0.653000X0.403000X-0.653000X-0.403000X0.653000X-0.403000X0*%
%ADD29RoundRect,0.250000X0.650000X0.250000X-0.650000X0.250000X-0.650000X-0.250000X0.650000X-0.250000X0*%
G04 APERTURE END LIST*
%TO.C,D2*%
G36*
X107875364Y-113005490D02*
G01*
X107125000Y-113005490D01*
X107125000Y-111995000D01*
X107875364Y-111995000D01*
X107875364Y-113005490D01*
G37*
D10*
X107875364Y-113005490D02*
X107125000Y-113005490D01*
X107125000Y-111995000D01*
X107875364Y-111995000D01*
X107875364Y-113005490D01*
G36*
X106873339Y-113006342D02*
G01*
X106125000Y-113006342D01*
X106125000Y-111995000D01*
X106873339Y-111995000D01*
X106873339Y-113006342D01*
G37*
X106873339Y-113006342D02*
X106125000Y-113006342D01*
X106125000Y-111995000D01*
X106873339Y-111995000D01*
X106873339Y-113006342D01*
G36*
X108877330Y-113005858D02*
G01*
X108125000Y-113005858D01*
X108125000Y-111995000D01*
X108877330Y-111995000D01*
X108877330Y-113005858D01*
G37*
X108877330Y-113005858D02*
X108125000Y-113005858D01*
X108125000Y-111995000D01*
X108877330Y-111995000D01*
X108877330Y-113005858D01*
%TD*%
D11*
%TO.C,R4*%
X112187500Y-92100000D03*
X112187500Y-93925000D03*
%TD*%
D12*
%TO.C,C5*%
X109887500Y-96662500D03*
X109887500Y-94762500D03*
%TD*%
D13*
%TO.C,C7*%
X100050000Y-120500000D03*
X98150000Y-120500000D03*
%TD*%
D14*
%TO.C,R8*%
X110750000Y-116400000D03*
X112575000Y-116400000D03*
%TD*%
D15*
%TO.C,U1*%
X107725000Y-101400000D03*
X107725000Y-100450000D03*
X107725000Y-99500000D03*
X105450000Y-99500000D03*
X105450000Y-100450000D03*
X105450000Y-101400000D03*
%TD*%
D16*
%TO.C,D2*%
X107500000Y-113900000D03*
X107500000Y-111100000D03*
%TD*%
D17*
%TO.C,R10*%
X110912400Y-111512500D03*
X110912400Y-113417500D03*
X113147600Y-112465000D03*
%TD*%
D18*
%TO.C,U5*%
X97571120Y-72939800D03*
X97571120Y-75479800D03*
X97571120Y-78019800D03*
X97571120Y-80559800D03*
X97571120Y-83099800D03*
X97571120Y-85639800D03*
X97571120Y-88179800D03*
X113735680Y-88179800D03*
X113735680Y-85639800D03*
X113735680Y-83099800D03*
X113735680Y-80559800D03*
X113735680Y-78019800D03*
X113735680Y-75479800D03*
X113735680Y-72939800D03*
D19*
X104438000Y-89257620D03*
X106988000Y-89257620D03*
D20*
X104436803Y-72253433D03*
X106976803Y-72253433D03*
X104436803Y-74793433D03*
X106976803Y-74793433D03*
%TD*%
D21*
%TO.C,U3*%
X102351500Y-119450000D03*
X102351500Y-120400000D03*
X102351500Y-121350000D03*
X104861500Y-121350000D03*
X104861500Y-120400000D03*
X104861500Y-119450000D03*
%TD*%
D22*
%TO.C,R7*%
X99800000Y-93975000D03*
X99800000Y-92150000D03*
%TD*%
D23*
%TO.C,U4*%
X102425000Y-115650000D03*
X102425000Y-116600000D03*
X102425000Y-117550000D03*
X104700000Y-117550000D03*
X104700000Y-116600000D03*
X104700000Y-115650000D03*
%TD*%
D24*
%TO.C,C3*%
X101687500Y-101850000D03*
X103587500Y-101850000D03*
%TD*%
D25*
%TO.C,Q1*%
X103050000Y-113100000D03*
X104350000Y-113100000D03*
X103700000Y-111100000D03*
%TD*%
D26*
%TO.C,R9*%
X107837500Y-120800000D03*
X113762500Y-120800000D03*
%TD*%
D24*
%TO.C,C10*%
X98200000Y-116000000D03*
X100100000Y-116000000D03*
%TD*%
D22*
%TO.C,R3*%
X107687500Y-105004000D03*
X107687500Y-103179000D03*
%TD*%
D27*
%TO.C,C1*%
X109937500Y-102512500D03*
X109937500Y-104412500D03*
%TD*%
D15*
%TO.C,U2*%
X107675000Y-97612500D03*
X107675000Y-96662500D03*
X107675000Y-95712500D03*
X105400000Y-95712500D03*
X105400000Y-96662500D03*
X105400000Y-97612500D03*
%TD*%
D22*
%TO.C,R5*%
X112187500Y-97637500D03*
X112187500Y-95812500D03*
%TD*%
D24*
%TO.C,C4*%
X101700000Y-97950000D03*
X103600000Y-97950000D03*
%TD*%
D13*
%TO.C,C8*%
X100100000Y-122700000D03*
X98200000Y-122700000D03*
%TD*%
%TO.C,C6*%
X100100000Y-118200000D03*
X98200000Y-118200000D03*
%TD*%
D28*
%TO.C,D1*%
X105600000Y-108700000D03*
D29*
X109800000Y-108050000D03*
X109800000Y-109350000D03*
%TD*%
D22*
%TO.C,R6*%
X97700000Y-93950000D03*
X97700000Y-92125000D03*
%TD*%
D13*
%TO.C,C9*%
X108762500Y-116400000D03*
X106862500Y-116400000D03*
%TD*%
D12*
%TO.C,C2*%
X105537500Y-105050000D03*
X105537500Y-103150000D03*
%TD*%
D22*
%TO.C,R2*%
X112137500Y-104362500D03*
X112137500Y-102537500D03*
%TD*%
%TO.C,R1*%
X109937500Y-100762500D03*
X109937500Y-98937500D03*
%TD*%
M02*
