%TF.GenerationSoftware,KiCad,Pcbnew,(6.0.7-1)-1*%
%TF.CreationDate,2022-10-13T21:49:40+11:00*%
%TF.ProjectId,open_jip,6f70656e-5f6a-4697-902e-6b696361645f,rev?*%
%TF.SameCoordinates,Original*%
%TF.FileFunction,Soldermask,Top*%
%TF.FilePolarity,Negative*%
%FSLAX46Y46*%
G04 Gerber Fmt 4.6, Leading zero omitted, Abs format (unit mm)*
G04 Created by KiCad (PCBNEW (6.0.7-1)-1) date 2022-10-13 21:49:40*
%MOMM*%
%LPD*%
G01*
G04 APERTURE LIST*
G04 Aperture macros list*
%AMRoundRect*
0 Rectangle with rounded corners*
0 $1 Rounding radius*
0 $2 $3 $4 $5 $6 $7 $8 $9 X,Y pos of 4 corners*
0 Add a 4 corners polygon primitive as box body*
4,1,4,$2,$3,$4,$5,$6,$7,$8,$9,$2,$3,0*
0 Add four circle primitives for the rounded corners*
1,1,$1+$1,$2,$3*
1,1,$1+$1,$4,$5*
1,1,$1+$1,$6,$7*
1,1,$1+$1,$8,$9*
0 Add four rect primitives between the rounded corners*
20,1,$1+$1,$2,$3,$4,$5,0*
20,1,$1+$1,$4,$5,$6,$7,0*
20,1,$1+$1,$6,$7,$8,$9,0*
20,1,$1+$1,$8,$9,$2,$3,0*%
G04 Aperture macros list end*
%ADD10C,1.000000*%
%ADD11RoundRect,0.250000X0.250000X0.475000X-0.250000X0.475000X-0.250000X-0.475000X0.250000X-0.475000X0*%
%ADD12RoundRect,0.150000X0.512500X0.150000X-0.512500X0.150000X-0.512500X-0.150000X0.512500X-0.150000X0*%
%ADD13R,1.300000X3.300000*%
%ADD14R,0.500000X3.300000*%
%ADD15O,2.748280X1.998980*%
%ADD16O,1.016000X2.032000*%
%ADD17C,1.143000*%
%ADD18RoundRect,0.040600X0.249400X-0.564400X0.249400X0.564400X-0.249400X0.564400X-0.249400X-0.564400X0*%
%ADD19RoundRect,0.250000X0.450000X-0.262500X0.450000X0.262500X-0.450000X0.262500X-0.450000X-0.262500X0*%
%ADD20RoundRect,0.250000X-0.250000X-0.475000X0.250000X-0.475000X0.250000X0.475000X-0.250000X0.475000X0*%
%ADD21R,0.700000X0.450000*%
%ADD22RoundRect,0.250000X-1.425000X0.362500X-1.425000X-0.362500X1.425000X-0.362500X1.425000X0.362500X0*%
%ADD23RoundRect,0.250000X0.475000X-0.250000X0.475000X0.250000X-0.475000X0.250000X-0.475000X-0.250000X0*%
%ADD24RoundRect,0.250000X-0.262500X-0.450000X0.262500X-0.450000X0.262500X0.450000X-0.262500X0.450000X0*%
G04 APERTURE END LIST*
D10*
%TO.C,D2*%
X110200000Y-103100000D02*
G75*
G03*
X110200000Y-103100000I-500000J0D01*
G01*
X107660000Y-103100000D02*
G75*
G03*
X107660000Y-103100000I-500000J0D01*
G01*
%TD*%
D11*
%TO.C,C2*%
X100610000Y-108030000D03*
X102510000Y-108030000D03*
%TD*%
D12*
%TO.C,U3*%
X109327500Y-94910000D03*
X109327500Y-93960000D03*
X109327500Y-93010000D03*
X107052500Y-93010000D03*
X107052500Y-93960000D03*
X107052500Y-94910000D03*
%TD*%
D13*
%TO.C,D1*%
X107487500Y-108680000D03*
D14*
X108887500Y-108680000D03*
X106087500Y-108680000D03*
%TD*%
D15*
%TO.C,U2*%
X97571120Y-72939800D03*
X97571120Y-75479800D03*
X97571120Y-78019800D03*
X97571120Y-80559800D03*
X97571120Y-83099800D03*
X97571120Y-85639800D03*
X97571120Y-88179800D03*
X113735680Y-88179800D03*
X113735680Y-85639800D03*
X113735680Y-83099800D03*
X113735680Y-80559800D03*
X113735680Y-78019800D03*
X113735680Y-75479800D03*
X113735680Y-72939800D03*
D16*
X104438000Y-89257620D03*
X106988000Y-89257620D03*
D17*
X104436803Y-72253433D03*
X106976803Y-72253433D03*
X104436803Y-74793433D03*
X106976803Y-74793433D03*
%TD*%
D18*
%TO.C,U1*%
X100630000Y-100765000D03*
X101580000Y-100765000D03*
X102530000Y-100765000D03*
X102530000Y-103275000D03*
X101580000Y-103275000D03*
X100630000Y-103275000D03*
%TD*%
D19*
%TO.C,R2*%
X99800000Y-93975000D03*
X99800000Y-92150000D03*
%TD*%
D20*
%TO.C,C5*%
X103290000Y-95360000D03*
X105190000Y-95360000D03*
%TD*%
D21*
%TO.C,Q1*%
X108420000Y-113040000D03*
X106420000Y-113690000D03*
X106420000Y-112390000D03*
%TD*%
D22*
%TO.C,R4*%
X112420000Y-113482500D03*
X112420000Y-107557500D03*
%TD*%
D19*
%TO.C,R7*%
X109290000Y-96689000D03*
X109290000Y-98514000D03*
%TD*%
%TO.C,R3*%
X98000000Y-101887500D03*
X98000000Y-103712500D03*
%TD*%
D11*
%TO.C,C3*%
X100660000Y-110230000D03*
X102560000Y-110230000D03*
%TD*%
%TO.C,C1*%
X100660000Y-105730000D03*
X102560000Y-105730000D03*
%TD*%
D19*
%TO.C,R1*%
X97700000Y-93950000D03*
X97700000Y-92125000D03*
%TD*%
D23*
%TO.C,C4*%
X107140000Y-98560000D03*
X107140000Y-96660000D03*
%TD*%
D24*
%TO.C,R6*%
X111375000Y-94600000D03*
X113200000Y-94600000D03*
%TD*%
%TO.C,R5*%
X111415000Y-92520000D03*
X113240000Y-92520000D03*
%TD*%
M02*
