%TF.GenerationSoftware,KiCad,Pcbnew,(6.0.7-1)-1*%
%TF.CreationDate,2022-09-21T15:36:28+10:00*%
%TF.ProjectId,open_jip,6f70656e-5f6a-4697-902e-6b696361645f,rev?*%
%TF.SameCoordinates,Original*%
%TF.FileFunction,Copper,L1,Top*%
%TF.FilePolarity,Positive*%
%FSLAX46Y46*%
G04 Gerber Fmt 4.6, Leading zero omitted, Abs format (unit mm)*
G04 Created by KiCad (PCBNEW (6.0.7-1)-1) date 2022-09-21 15:36:28*
%MOMM*%
%LPD*%
G01*
G04 APERTURE LIST*
G04 Aperture macros list*
%AMRoundRect*
0 Rectangle with rounded corners*
0 $1 Rounding radius*
0 $2 $3 $4 $5 $6 $7 $8 $9 X,Y pos of 4 corners*
0 Add a 4 corners polygon primitive as box body*
4,1,4,$2,$3,$4,$5,$6,$7,$8,$9,$2,$3,0*
0 Add four circle primitives for the rounded corners*
1,1,$1+$1,$2,$3*
1,1,$1+$1,$4,$5*
1,1,$1+$1,$6,$7*
1,1,$1+$1,$8,$9*
0 Add four rect primitives between the rounded corners*
20,1,$1+$1,$2,$3,$4,$5,0*
20,1,$1+$1,$4,$5,$6,$7,0*
20,1,$1+$1,$6,$7,$8,$9,0*
20,1,$1+$1,$8,$9,$2,$3,0*%
G04 Aperture macros list end*
%TA.AperFunction,SMDPad,CuDef*%
%ADD10RoundRect,0.250000X-0.450000X0.262500X-0.450000X-0.262500X0.450000X-0.262500X0.450000X0.262500X0*%
%TD*%
%TA.AperFunction,SMDPad,CuDef*%
%ADD11RoundRect,0.250000X0.475000X-0.250000X0.475000X0.250000X-0.475000X0.250000X-0.475000X-0.250000X0*%
%TD*%
%TA.AperFunction,SMDPad,CuDef*%
%ADD12RoundRect,0.250000X0.250000X0.475000X-0.250000X0.475000X-0.250000X-0.475000X0.250000X-0.475000X0*%
%TD*%
%TA.AperFunction,SMDPad,CuDef*%
%ADD13RoundRect,0.250000X-0.262500X-0.450000X0.262500X-0.450000X0.262500X0.450000X-0.262500X0.450000X0*%
%TD*%
%TA.AperFunction,SMDPad,CuDef*%
%ADD14RoundRect,0.150000X0.512500X0.150000X-0.512500X0.150000X-0.512500X-0.150000X0.512500X-0.150000X0*%
%TD*%
%TA.AperFunction,SMDPad,CuDef*%
%ADD15R,3.300000X0.500000*%
%TD*%
%TA.AperFunction,SMDPad,CuDef*%
%ADD16R,3.300000X1.300000*%
%TD*%
%TA.AperFunction,SMDPad,CuDef*%
%ADD17R,1.270000X0.482600*%
%TD*%
%TA.AperFunction,SMDPad,CuDef*%
%ADD18O,2.748280X1.998980*%
%TD*%
%TA.AperFunction,SMDPad,CuDef*%
%ADD19O,1.016000X2.032000*%
%TD*%
%TA.AperFunction,SMDPad,CuDef*%
%ADD20C,1.143000*%
%TD*%
%TA.AperFunction,SMDPad,CuDef*%
%ADD21RoundRect,0.040600X-0.564400X-0.249400X0.564400X-0.249400X0.564400X0.249400X-0.564400X0.249400X0*%
%TD*%
%TA.AperFunction,SMDPad,CuDef*%
%ADD22RoundRect,0.250000X0.450000X-0.262500X0.450000X0.262500X-0.450000X0.262500X-0.450000X-0.262500X0*%
%TD*%
%TA.AperFunction,SMDPad,CuDef*%
%ADD23RoundRect,0.150000X-0.512500X-0.150000X0.512500X-0.150000X0.512500X0.150000X-0.512500X0.150000X0*%
%TD*%
%TA.AperFunction,SMDPad,CuDef*%
%ADD24RoundRect,0.250000X-0.250000X-0.475000X0.250000X-0.475000X0.250000X0.475000X-0.250000X0.475000X0*%
%TD*%
%TA.AperFunction,SMDPad,CuDef*%
%ADD25R,0.450000X0.700000*%
%TD*%
%TA.AperFunction,SMDPad,CuDef*%
%ADD26RoundRect,0.250000X-0.362500X-1.425000X0.362500X-1.425000X0.362500X1.425000X-0.362500X1.425000X0*%
%TD*%
%TA.AperFunction,SMDPad,CuDef*%
%ADD27RoundRect,0.250000X-0.475000X0.250000X-0.475000X-0.250000X0.475000X-0.250000X0.475000X0.250000X0*%
%TD*%
%TA.AperFunction,SMDPad,CuDef*%
%ADD28RoundRect,0.247000X0.653000X0.403000X-0.653000X0.403000X-0.653000X-0.403000X0.653000X-0.403000X0*%
%TD*%
%TA.AperFunction,SMDPad,CuDef*%
%ADD29RoundRect,0.250000X0.650000X0.250000X-0.650000X0.250000X-0.650000X-0.250000X0.650000X-0.250000X0*%
%TD*%
%TA.AperFunction,ViaPad*%
%ADD30C,0.800000*%
%TD*%
%TA.AperFunction,Conductor*%
%ADD31C,0.250000*%
%TD*%
%TA.AperFunction,Conductor*%
%ADD32C,0.500000*%
%TD*%
%TA.AperFunction,Conductor*%
%ADD33C,1.500000*%
%TD*%
G04 APERTURE END LIST*
D10*
%TO.P,R4,1*%
%TO.N,GND*%
X112187500Y-92100000D03*
%TO.P,R4,2*%
%TO.N,Net-(R4-Pad2)*%
X112187500Y-93925000D03*
%TD*%
D11*
%TO.P,C5,1*%
%TO.N,GND*%
X109887500Y-96662500D03*
%TO.P,C5,2*%
X109887500Y-94762500D03*
%TD*%
D12*
%TO.P,C7,1*%
%TO.N,+3.3V*%
X100050000Y-120500000D03*
%TO.P,C7,2*%
%TO.N,GND*%
X98150000Y-120500000D03*
%TD*%
D13*
%TO.P,R8,1*%
%TO.N,Net-(Q1-Pad2)*%
X110750000Y-116400000D03*
%TO.P,R8,2*%
%TO.N,Net-(R10-Pad3)*%
X112575000Y-116400000D03*
%TD*%
D14*
%TO.P,U1,1*%
%TO.N,Net-(C2-Pad2)*%
X107725000Y-101400000D03*
%TO.P,U1,2,V-*%
%TO.N,GND*%
X107725000Y-100450000D03*
%TO.P,U1,3,+*%
%TO.N,Net-(R1-Pad1)*%
X107725000Y-99500000D03*
%TO.P,U1,4,-*%
%TO.N,Net-(C2-Pad1)*%
X105450000Y-99500000D03*
%TO.P,U1,5,ENABLE*%
%TO.N,SHDN*%
X105450000Y-100450000D03*
%TO.P,U1,6,V+*%
%TO.N,+3.3V*%
X105450000Y-101400000D03*
%TD*%
D15*
%TO.P,D2,1*%
%TO.N,+3.3V*%
X107500000Y-113900000D03*
%TO.P,D2,2*%
%TO.N,Net-(D2-Pad2)*%
X107500000Y-111100000D03*
D16*
%TO.P,D2,3*%
%TO.N,N/C*%
X107500000Y-112500000D03*
%TD*%
D17*
%TO.P,R10,1*%
%TO.N,Net-(D2-Pad2)*%
X110912400Y-111512500D03*
%TO.P,R10,2*%
%TO.N,Net-(Q1-Pad2)*%
X110912400Y-113417500D03*
%TO.P,R10,3*%
%TO.N,Net-(R10-Pad3)*%
X113147600Y-112465000D03*
%TD*%
D18*
%TO.P,U5,1,PA02_A0_D0*%
%TO.N,unconnected-(U5-Pad1)*%
X97571120Y-72939800D03*
%TO.P,U5,2,PA4_A1_D1*%
%TO.N,unconnected-(U5-Pad2)*%
X97571120Y-75479800D03*
%TO.P,U5,3,PA10_A2_D2*%
%TO.N,unconnected-(U5-Pad3)*%
X97571120Y-78019800D03*
%TO.P,U5,4,PA11_A3_D3*%
%TO.N,unconnected-(U5-Pad4)*%
X97571120Y-80559800D03*
%TO.P,U5,5,PA8_A4_D4_SDA*%
%TO.N,SDA*%
X97571120Y-83099800D03*
%TO.P,U5,6,PA9_A5_D5_SCL*%
%TO.N,SCL*%
X97571120Y-85639800D03*
%TO.P,U5,7,PB08_A6_D6_TX*%
%TO.N,unconnected-(U5-Pad7)*%
X97571120Y-88179800D03*
%TO.P,U5,8,PB09_A7_D7_RX*%
%TO.N,D(out)*%
X113735680Y-88179800D03*
%TO.P,U5,9,PA7_A8_D8_SCK*%
%TO.N,unconnected-(U5-Pad9)*%
X113735680Y-85639800D03*
%TO.P,U5,10,PA5_A9_D9_MISO*%
%TO.N,unconnected-(U5-Pad10)*%
X113735680Y-83099800D03*
%TO.P,U5,11,PA6_A10_D10_MOSI*%
%TO.N,SHDN*%
X113735680Y-80559800D03*
%TO.P,U5,12,3V3*%
%TO.N,+3.3V*%
X113735680Y-78019800D03*
%TO.P,U5,13,GND*%
%TO.N,GND*%
X113735680Y-75479800D03*
%TO.P,U5,14,5V*%
%TO.N,+5V*%
X113735680Y-72939800D03*
D19*
%TO.P,U5,15,5V*%
%TO.N,unconnected-(U5-Pad15)*%
X104438000Y-89257620D03*
%TO.P,U5,16,GND*%
%TO.N,GND*%
X106988000Y-89257620D03*
D20*
%TO.P,U5,17,PA31_SWDIO*%
%TO.N,unconnected-(U5-Pad17)*%
X104436803Y-72253433D03*
%TO.P,U5,18,PA30_SWCLK*%
%TO.N,unconnected-(U5-Pad18)*%
X106976803Y-72253433D03*
%TO.P,U5,19,RESET*%
%TO.N,unconnected-(U5-Pad19)*%
X104436803Y-74793433D03*
%TO.P,U5,20,GND*%
%TO.N,GND*%
X106976803Y-74793433D03*
%TD*%
D21*
%TO.P,U3,1,VOUT*%
%TO.N,Net-(U3-Pad1)*%
X102351500Y-119450000D03*
%TO.P,U3,2,GND*%
%TO.N,GND*%
X102351500Y-120400000D03*
%TO.P,U3,3,VDD*%
%TO.N,+3.3V*%
X102351500Y-121350000D03*
%TO.P,U3,4,SDA*%
%TO.N,SDA*%
X104861500Y-121350000D03*
%TO.P,U3,5,SCL*%
%TO.N,SCL*%
X104861500Y-120400000D03*
%TO.P,U3,6,A0*%
%TO.N,GND*%
X104861500Y-119450000D03*
%TD*%
D22*
%TO.P,R7,1*%
%TO.N,+3.3V*%
X99800000Y-93975000D03*
%TO.P,R7,2*%
%TO.N,SDA*%
X99800000Y-92150000D03*
%TD*%
D23*
%TO.P,U4,1*%
%TO.N,Net-(Q1-Pad1)*%
X102425000Y-115650000D03*
%TO.P,U4,2,V-*%
%TO.N,GND*%
X102425000Y-116600000D03*
%TO.P,U4,3,+*%
%TO.N,Net-(U3-Pad1)*%
X102425000Y-117550000D03*
%TO.P,U4,4,-*%
%TO.N,Net-(R10-Pad3)*%
X104700000Y-117550000D03*
%TO.P,U4,5,ENABLE*%
%TO.N,SHDN*%
X104700000Y-116600000D03*
%TO.P,U4,6,V+*%
%TO.N,+3.3V*%
X104700000Y-115650000D03*
%TD*%
D24*
%TO.P,C3,1*%
%TO.N,GND*%
X101687500Y-101850000D03*
%TO.P,C3,2*%
%TO.N,+3.3V*%
X103587500Y-101850000D03*
%TD*%
D25*
%TO.P,Q1,1,G*%
%TO.N,Net-(Q1-Pad1)*%
X103050000Y-113100000D03*
%TO.P,Q1,2,S*%
%TO.N,Net-(Q1-Pad2)*%
X104350000Y-113100000D03*
%TO.P,Q1,3,D*%
%TO.N,Net-(D2-Pad2)*%
X103700000Y-111100000D03*
%TD*%
D26*
%TO.P,R9,1*%
%TO.N,Net-(R10-Pad3)*%
X107837500Y-120800000D03*
%TO.P,R9,2*%
%TO.N,GND*%
X113762500Y-120800000D03*
%TD*%
D24*
%TO.P,C10,1*%
%TO.N,GND*%
X98200000Y-116000000D03*
%TO.P,C10,2*%
X100100000Y-116000000D03*
%TD*%
D22*
%TO.P,R3,1*%
%TO.N,Net-(C2-Pad1)*%
X107687500Y-105004000D03*
%TO.P,R3,2*%
%TO.N,Net-(C2-Pad2)*%
X107687500Y-103179000D03*
%TD*%
D27*
%TO.P,C1,1*%
%TO.N,GND*%
X109937500Y-102512500D03*
%TO.P,C1,2*%
X109937500Y-104412500D03*
%TD*%
D14*
%TO.P,U2,1*%
%TO.N,D(out)*%
X107675000Y-97612500D03*
%TO.P,U2,2,V-*%
%TO.N,GND*%
X107675000Y-96662500D03*
%TO.P,U2,3,+*%
%TO.N,Net-(C2-Pad2)*%
X107675000Y-95712500D03*
%TO.P,U2,4,-*%
%TO.N,Net-(R4-Pad2)*%
X105400000Y-95712500D03*
%TO.P,U2,5,ENABLE*%
%TO.N,SHDN*%
X105400000Y-96662500D03*
%TO.P,U2,6,V+*%
%TO.N,+3.3V*%
X105400000Y-97612500D03*
%TD*%
D22*
%TO.P,R5,1*%
%TO.N,D(out)*%
X112187500Y-97637500D03*
%TO.P,R5,2*%
%TO.N,Net-(R4-Pad2)*%
X112187500Y-95812500D03*
%TD*%
D24*
%TO.P,C4,1*%
%TO.N,GND*%
X101700000Y-97950000D03*
%TO.P,C4,2*%
%TO.N,+3.3V*%
X103600000Y-97950000D03*
%TD*%
D12*
%TO.P,C8,1*%
%TO.N,+3.3V*%
X100100000Y-122700000D03*
%TO.P,C8,2*%
%TO.N,GND*%
X98200000Y-122700000D03*
%TD*%
%TO.P,C6,1*%
%TO.N,+3.3V*%
X100100000Y-118200000D03*
%TO.P,C6,2*%
%TO.N,GND*%
X98200000Y-118200000D03*
%TD*%
D28*
%TO.P,D1,1,K*%
%TO.N,Net-(C2-Pad1)*%
X105600000Y-108700000D03*
D29*
%TO.P,D1,2,A*%
%TO.N,GND*%
X109800000Y-108050000D03*
%TO.P,D1,3*%
%TO.N,N/C*%
X109800000Y-109350000D03*
%TD*%
D22*
%TO.P,R6,1*%
%TO.N,+3.3V*%
X97700000Y-93950000D03*
%TO.P,R6,2*%
%TO.N,SCL*%
X97700000Y-92125000D03*
%TD*%
D12*
%TO.P,C9,1*%
%TO.N,GND*%
X108762500Y-116400000D03*
%TO.P,C9,2*%
%TO.N,+3.3V*%
X106862500Y-116400000D03*
%TD*%
D11*
%TO.P,C2,1*%
%TO.N,Net-(C2-Pad1)*%
X105537500Y-105050000D03*
%TO.P,C2,2*%
%TO.N,Net-(C2-Pad2)*%
X105537500Y-103150000D03*
%TD*%
D22*
%TO.P,R2,1*%
%TO.N,GND*%
X112137500Y-104362500D03*
%TO.P,R2,2*%
%TO.N,Net-(R1-Pad1)*%
X112137500Y-102537500D03*
%TD*%
%TO.P,R1,1*%
%TO.N,Net-(R1-Pad1)*%
X109937500Y-100762500D03*
%TO.P,R1,2*%
%TO.N,+3.3V*%
X109937500Y-98937500D03*
%TD*%
D30*
%TO.N,GND*%
X98600000Y-95700000D03*
X109900000Y-105800000D03*
X110300000Y-92000000D03*
X113900000Y-107600000D03*
X110600000Y-106700000D03*
X111600000Y-81600000D03*
X111800000Y-110100000D03*
X111800000Y-107200000D03*
X109100000Y-79600000D03*
X97700000Y-98500000D03*
X102800000Y-93700000D03*
X110400000Y-78000000D03*
X112800000Y-101100000D03*
X107137500Y-94312500D03*
X105366192Y-118494799D03*
X111800000Y-108100000D03*
X106300000Y-122500000D03*
X109100000Y-92000000D03*
X103800000Y-91600000D03*
X102000000Y-104200000D03*
X97700000Y-97100000D03*
X100300000Y-98500000D03*
X109100000Y-81600000D03*
X100800000Y-103600000D03*
X109100000Y-78000000D03*
X101300000Y-118500000D03*
X112800000Y-100000000D03*
X105200000Y-122500000D03*
X113900000Y-100000000D03*
X100300000Y-100800000D03*
X113900000Y-108700000D03*
X107900000Y-92000000D03*
X109300000Y-106700000D03*
X109500000Y-118200000D03*
X113900000Y-101100000D03*
X108137500Y-94312500D03*
X100300000Y-99600000D03*
X102800000Y-92500000D03*
X113200000Y-106000000D03*
X102000000Y-105300000D03*
X101800000Y-91600000D03*
X111800000Y-109100000D03*
%TO.N,+3.3V*%
X110400000Y-79600000D03*
X101650000Y-99900000D03*
X103900000Y-103400000D03*
X102800000Y-94900000D03*
X114200000Y-98900000D03*
%TO.N,Net-(Q1-Pad2)*%
X108900000Y-114900000D03*
X105000000Y-114400000D03*
%TO.N,SCL*%
X106295759Y-120204241D03*
X96800000Y-95900000D03*
%TO.N,SDA*%
X101500000Y-93700000D03*
X106400000Y-121300000D03*
%TO.N,SHDN*%
X108000000Y-118000000D03*
X103887500Y-100250000D03*
X103900000Y-96400000D03*
%TD*%
D31*
%TO.N,GND*%
X108637500Y-100450000D02*
X108837500Y-100650000D01*
X108762500Y-116400000D02*
X108762500Y-117462500D01*
X108837500Y-101412500D02*
X109937500Y-102512500D01*
X102351500Y-120400000D02*
X101970664Y-120400000D01*
X108762500Y-117462500D02*
X109500000Y-118200000D01*
X108837500Y-100650000D02*
X108837500Y-101412500D01*
X104861500Y-119450000D02*
X104861500Y-118999491D01*
X101970664Y-120400000D02*
X101300000Y-119729336D01*
X101300000Y-119729336D02*
X101300000Y-118500000D01*
X100700000Y-116600000D02*
X102425000Y-116600000D01*
X107725000Y-100450000D02*
X108637500Y-100450000D01*
X100100000Y-116000000D02*
X100700000Y-116600000D01*
X107675000Y-96662500D02*
X109887500Y-96662500D01*
X104861500Y-118999491D02*
X105366192Y-118494799D01*
%TO.N,Net-(C2-Pad1)*%
X103337500Y-99500000D02*
X102687500Y-100150000D01*
X105537500Y-105050000D02*
X107641500Y-105050000D01*
X107641500Y-105050000D02*
X107687500Y-105004000D01*
X105537500Y-108637500D02*
X105600000Y-108700000D01*
X105537500Y-105050000D02*
X105537500Y-108637500D01*
X105450000Y-99500000D02*
X103337500Y-99500000D01*
X102687500Y-103325305D02*
X104412195Y-105050000D01*
X104412195Y-105050000D02*
X105537500Y-105050000D01*
X102687500Y-100150000D02*
X102687500Y-103325305D01*
%TO.N,Net-(C2-Pad2)*%
X107725000Y-101400000D02*
X107725000Y-103141500D01*
X107658500Y-103150000D02*
X107687500Y-103179000D01*
X106587500Y-96415749D02*
X107290749Y-95712500D01*
X107340749Y-101400000D02*
X106587500Y-100646751D01*
X106587500Y-96415749D02*
X106587500Y-100646751D01*
X107290749Y-95712500D02*
X107675000Y-95712500D01*
X107725000Y-103141500D02*
X107687500Y-103179000D01*
X105537500Y-103150000D02*
X107658500Y-103150000D01*
X107725000Y-101400000D02*
X107340749Y-101400000D01*
%TO.N,+3.3V*%
X100100000Y-118200000D02*
X100100000Y-122700000D01*
X104037500Y-101400000D02*
X103587500Y-101850000D01*
X103600000Y-120482336D02*
X103600000Y-116365749D01*
X107500000Y-115762500D02*
X107500000Y-113900000D01*
X110300000Y-112500000D02*
X111600000Y-112500000D01*
X106112500Y-115650000D02*
X106862500Y-116400000D01*
X111600000Y-112500000D02*
X113000000Y-111100000D01*
X114162500Y-98937500D02*
X109937500Y-98937500D01*
X103600000Y-97300000D02*
X103600000Y-97950000D01*
X106862500Y-116400000D02*
X107500000Y-115762500D01*
X104700000Y-115650000D02*
X106112500Y-115650000D01*
X103600000Y-97950000D02*
X101650000Y-99900000D01*
X104300000Y-103000000D02*
X104300000Y-102562500D01*
X107500000Y-113900000D02*
X108900000Y-113900000D01*
X99800000Y-93975000D02*
X100275000Y-93975000D01*
X100900000Y-121350000D02*
X102351500Y-121350000D01*
X114200000Y-98900000D02*
X114162500Y-98937500D01*
X102732336Y-121350000D02*
X103600000Y-120482336D01*
X105400000Y-97612500D02*
X103937500Y-97612500D01*
D32*
X114800000Y-99500000D02*
X114200000Y-98900000D01*
D31*
X102300000Y-96000000D02*
X103600000Y-97300000D01*
X102800000Y-94900000D02*
X102300000Y-95400000D01*
X103937500Y-97612500D02*
X103600000Y-97950000D01*
X108900000Y-113900000D02*
X110300000Y-112500000D01*
X104300000Y-102562500D02*
X103587500Y-101850000D01*
X102300000Y-95400000D02*
X102300000Y-96000000D01*
X105450000Y-101400000D02*
X104037500Y-101400000D01*
X100050000Y-120500000D02*
X100900000Y-121350000D01*
X111580200Y-78019800D02*
X110400000Y-79200000D01*
X113000000Y-111100000D02*
X113800000Y-111100000D01*
X103600000Y-116365749D02*
X104315749Y-115650000D01*
D32*
X113800000Y-111100000D02*
X114800000Y-110100000D01*
D31*
X97700000Y-93950000D02*
X99775000Y-93950000D01*
X100275000Y-93975000D02*
X102300000Y-96000000D01*
X99775000Y-93950000D02*
X99800000Y-93975000D01*
X104315749Y-115650000D02*
X104700000Y-115650000D01*
X103900000Y-103400000D02*
X104300000Y-103000000D01*
X110400000Y-79200000D02*
X110400000Y-79600000D01*
X113735680Y-78019800D02*
X111580200Y-78019800D01*
D32*
X114800000Y-110100000D02*
X114800000Y-99500000D01*
D31*
%TO.N,Net-(D2-Pad2)*%
X109600000Y-111100000D02*
X107500000Y-111100000D01*
X110912400Y-111512500D02*
X110012500Y-111512500D01*
X107500000Y-111100000D02*
X103700000Y-111100000D01*
X110012500Y-111512500D02*
X109600000Y-111100000D01*
%TO.N,Net-(Q1-Pad1)*%
X103050000Y-115025000D02*
X103050000Y-113100000D01*
X102425000Y-115650000D02*
X103050000Y-115025000D01*
%TO.N,Net-(Q1-Pad2)*%
X110912400Y-116237600D02*
X110750000Y-116400000D01*
X104350000Y-113750000D02*
X105000000Y-114400000D01*
X108900000Y-114900000D02*
X109429900Y-114900000D01*
X104350000Y-113100000D02*
X104350000Y-113750000D01*
X108900000Y-114900000D02*
X109250000Y-114900000D01*
X109429900Y-114900000D02*
X110912400Y-113417500D01*
X110912400Y-113417500D02*
X110912400Y-116237600D01*
X109250000Y-114900000D02*
X110750000Y-116400000D01*
%TO.N,Net-(R1-Pad1)*%
X108675000Y-99500000D02*
X109937500Y-100762500D01*
X107725000Y-99500000D02*
X108675000Y-99500000D01*
X110362500Y-100762500D02*
X112137500Y-102537500D01*
X109937500Y-100762500D02*
X110362500Y-100762500D01*
%TO.N,Net-(R4-Pad2)*%
X112187500Y-95812500D02*
X112187500Y-93925000D01*
X111775000Y-93512500D02*
X112187500Y-93925000D01*
X105400000Y-94950000D02*
X106837500Y-93512500D01*
X106837500Y-93512500D02*
X111775000Y-93512500D01*
X105400000Y-95712500D02*
X105400000Y-94950000D01*
%TO.N,D(out)*%
X113262500Y-97637500D02*
X113735680Y-97164320D01*
X112162500Y-97612500D02*
X112187500Y-97637500D01*
X113735680Y-97164320D02*
X113735680Y-88179800D01*
X112187500Y-97637500D02*
X113262500Y-97637500D01*
X107675000Y-97612500D02*
X112162500Y-97612500D01*
%TO.N,SCL*%
X96800000Y-95900000D02*
X96800000Y-95800000D01*
X104861500Y-120400000D02*
X106100000Y-120400000D01*
X96975000Y-92125000D02*
X97700000Y-92125000D01*
D32*
X100000000Y-86900000D02*
X100000000Y-88800000D01*
X97571120Y-85639800D02*
X98739800Y-85639800D01*
D31*
X96300000Y-95300000D02*
X96300000Y-92800000D01*
X96800000Y-95800000D02*
X96300000Y-95300000D01*
X96300000Y-92800000D02*
X96975000Y-92125000D01*
D32*
X97700000Y-91100000D02*
X97700000Y-92125000D01*
D31*
X106100000Y-120400000D02*
X106295759Y-120204241D01*
D32*
X98739800Y-85639800D02*
X100000000Y-86900000D01*
X100000000Y-88800000D02*
X97700000Y-91100000D01*
D31*
%TO.N,SDA*%
X101500000Y-92700000D02*
X101500000Y-93700000D01*
X99800000Y-92150000D02*
X100950000Y-92150000D01*
D32*
X97599800Y-83099800D02*
X100900000Y-86400000D01*
X97571120Y-83099800D02*
X97599800Y-83099800D01*
X100900000Y-89900000D02*
X99800000Y-91000000D01*
X100900000Y-86400000D02*
X100900000Y-89900000D01*
D31*
X106350000Y-121350000D02*
X106400000Y-121300000D01*
D32*
X99800000Y-91000000D02*
X99800000Y-92150000D01*
D31*
X104861500Y-121350000D02*
X106350000Y-121350000D01*
X100950000Y-92150000D02*
X101500000Y-92700000D01*
D33*
%TO.N,Net-(R10-Pad3)*%
X109300000Y-120800000D02*
X111600000Y-118500000D01*
D31*
X105550000Y-117550000D02*
X106700000Y-118700000D01*
X113147600Y-115827400D02*
X112575000Y-116400000D01*
X112575000Y-117525000D02*
X111600000Y-118500000D01*
D33*
X107837500Y-120800000D02*
X107837500Y-119837500D01*
D31*
X113147600Y-112465000D02*
X113147600Y-115827400D01*
D33*
X107837500Y-119837500D02*
X106700000Y-118700000D01*
D31*
X112575000Y-116400000D02*
X112575000Y-117525000D01*
X104700000Y-117550000D02*
X105550000Y-117550000D01*
D33*
X107837500Y-120800000D02*
X109300000Y-120800000D01*
D31*
%TO.N,SHDN*%
X103900000Y-93600000D02*
X105600000Y-91900000D01*
X104087500Y-100450000D02*
X103887500Y-100250000D01*
X108540200Y-80559800D02*
X113735680Y-80559800D01*
X104200000Y-96700000D02*
X105362500Y-96700000D01*
X105600000Y-83500000D02*
X108540200Y-80559800D01*
X106250000Y-117450000D02*
X107450000Y-117450000D01*
X105400000Y-116600000D02*
X106250000Y-117450000D01*
X103900000Y-96400000D02*
X103900000Y-93600000D01*
X105600000Y-91900000D02*
X105600000Y-83500000D01*
X104700000Y-116600000D02*
X105400000Y-116600000D01*
X107450000Y-117450000D02*
X108000000Y-118000000D01*
X105362500Y-96700000D02*
X105400000Y-96662500D01*
X105450000Y-100450000D02*
X104087500Y-100450000D01*
X103900000Y-96400000D02*
X104200000Y-96700000D01*
%TO.N,Net-(U3-Pad1)*%
X102351500Y-119450000D02*
X102351500Y-117623500D01*
X102351500Y-117623500D02*
X102425000Y-117550000D01*
%TD*%
%TA.AperFunction,Conductor*%
%TO.N,GND*%
G36*
X98781473Y-94757837D02*
G01*
X98826561Y-94786757D01*
X98861254Y-94821389D01*
X98876697Y-94836805D01*
X98882927Y-94840645D01*
X98882928Y-94840646D01*
X98999487Y-94912494D01*
X99027262Y-94929615D01*
X99092167Y-94951143D01*
X99188611Y-94983132D01*
X99188613Y-94983132D01*
X99195139Y-94985297D01*
X99201975Y-94985997D01*
X99201978Y-94985998D01*
X99245031Y-94990409D01*
X99299600Y-94996000D01*
X100300400Y-94996000D01*
X100303644Y-94995663D01*
X100303652Y-94995663D01*
X100331050Y-94992820D01*
X100400871Y-95005685D01*
X100433148Y-95029052D01*
X101809779Y-96405683D01*
X101822619Y-96420716D01*
X101834528Y-96437107D01*
X101840634Y-96442158D01*
X101868605Y-96465298D01*
X101877384Y-96473288D01*
X101952240Y-96548144D01*
X101986266Y-96610456D01*
X101981201Y-96681271D01*
X101958369Y-96719752D01*
X101955671Y-96722865D01*
X101954000Y-96730548D01*
X101954000Y-98078000D01*
X101933998Y-98146121D01*
X101880342Y-98192614D01*
X101828000Y-98204000D01*
X100710116Y-98204000D01*
X100694877Y-98208475D01*
X100693672Y-98209865D01*
X100692001Y-98217548D01*
X100692001Y-98472095D01*
X100692338Y-98478614D01*
X100702257Y-98574206D01*
X100705149Y-98587600D01*
X100756588Y-98741784D01*
X100762761Y-98754962D01*
X100848063Y-98892807D01*
X100857099Y-98904208D01*
X100971829Y-99018739D01*
X100983243Y-99027753D01*
X101002287Y-99039492D01*
X101049781Y-99092264D01*
X101061205Y-99162335D01*
X101029808Y-99231062D01*
X100910960Y-99363056D01*
X100815473Y-99528444D01*
X100756458Y-99710072D01*
X100736496Y-99900000D01*
X100756458Y-100089928D01*
X100815473Y-100271556D01*
X100910960Y-100436944D01*
X100915378Y-100441851D01*
X100915379Y-100441852D01*
X101025405Y-100564048D01*
X101056122Y-100628055D01*
X101047358Y-100698509D01*
X100998071Y-100755503D01*
X100969690Y-100773065D01*
X100958292Y-100782099D01*
X100843761Y-100896829D01*
X100834749Y-100908240D01*
X100749684Y-101046243D01*
X100743537Y-101059424D01*
X100692362Y-101213710D01*
X100689495Y-101227086D01*
X100679828Y-101321438D01*
X100679500Y-101327855D01*
X100679500Y-101577885D01*
X100683975Y-101593124D01*
X100685365Y-101594329D01*
X100693048Y-101596000D01*
X101815500Y-101596000D01*
X101883621Y-101616002D01*
X101930114Y-101669658D01*
X101941500Y-101722000D01*
X101941500Y-103064884D01*
X101945975Y-103080123D01*
X101947365Y-103081328D01*
X101954782Y-103082941D01*
X102017094Y-103116965D01*
X102051120Y-103179277D01*
X102054000Y-103206062D01*
X102054000Y-103246538D01*
X102053473Y-103257721D01*
X102051798Y-103265214D01*
X102052047Y-103273140D01*
X102052047Y-103273141D01*
X102053938Y-103333291D01*
X102054000Y-103337250D01*
X102054000Y-103365161D01*
X102054497Y-103369095D01*
X102054497Y-103369096D01*
X102054505Y-103369161D01*
X102055438Y-103380998D01*
X102056827Y-103425194D01*
X102062478Y-103444644D01*
X102066487Y-103464005D01*
X102069026Y-103484102D01*
X102071945Y-103491473D01*
X102071945Y-103491475D01*
X102085304Y-103525217D01*
X102089149Y-103536447D01*
X102095556Y-103558500D01*
X102101482Y-103578898D01*
X102105515Y-103585717D01*
X102105517Y-103585722D01*
X102111793Y-103596333D01*
X102120488Y-103614081D01*
X102127948Y-103632922D01*
X102132610Y-103639338D01*
X102132610Y-103639339D01*
X102153936Y-103668692D01*
X102160452Y-103678612D01*
X102182958Y-103716667D01*
X102197279Y-103730988D01*
X102210119Y-103746021D01*
X102222028Y-103762412D01*
X102247176Y-103783216D01*
X102256105Y-103790603D01*
X102264884Y-103798593D01*
X103908543Y-105442253D01*
X103916083Y-105450539D01*
X103920195Y-105457018D01*
X103925972Y-105462443D01*
X103969846Y-105503643D01*
X103972688Y-105506398D01*
X103992425Y-105526135D01*
X103995622Y-105528615D01*
X104004642Y-105536318D01*
X104036874Y-105566586D01*
X104043820Y-105570405D01*
X104043823Y-105570407D01*
X104054629Y-105576348D01*
X104071148Y-105587199D01*
X104087154Y-105599614D01*
X104094423Y-105602759D01*
X104094427Y-105602762D01*
X104127732Y-105617174D01*
X104138382Y-105622391D01*
X104177135Y-105643695D01*
X104184810Y-105645666D01*
X104184811Y-105645666D01*
X104196757Y-105648733D01*
X104215462Y-105655137D01*
X104234050Y-105663181D01*
X104241873Y-105664420D01*
X104241883Y-105664423D01*
X104277719Y-105670099D01*
X104289339Y-105672505D01*
X104324484Y-105681528D01*
X104332165Y-105683500D01*
X104340094Y-105683500D01*
X104347955Y-105684493D01*
X104347706Y-105686467D01*
X104405722Y-105703502D01*
X104444745Y-105743197D01*
X104464022Y-105774348D01*
X104589197Y-105899305D01*
X104595427Y-105903145D01*
X104595428Y-105903146D01*
X104732590Y-105987694D01*
X104739762Y-105992115D01*
X104797449Y-106011249D01*
X104817667Y-106017955D01*
X104876027Y-106058386D01*
X104903264Y-106123950D01*
X104904000Y-106137548D01*
X104904000Y-107427201D01*
X104883998Y-107495322D01*
X104830342Y-107541815D01*
X104804595Y-107550362D01*
X104798307Y-107551720D01*
X104791452Y-107552431D01*
X104784919Y-107554611D01*
X104784917Y-107554611D01*
X104645099Y-107601258D01*
X104624336Y-107608185D01*
X104474528Y-107700889D01*
X104350065Y-107825569D01*
X104257623Y-107975538D01*
X104202161Y-108142751D01*
X104191500Y-108246804D01*
X104191500Y-109153196D01*
X104191837Y-109156442D01*
X104191837Y-109156446D01*
X104201587Y-109250410D01*
X104202431Y-109258548D01*
X104258185Y-109425664D01*
X104350889Y-109575472D01*
X104475569Y-109699935D01*
X104481799Y-109703775D01*
X104481800Y-109703776D01*
X104618371Y-109787959D01*
X104625538Y-109792377D01*
X104792751Y-109847839D01*
X104799587Y-109848539D01*
X104799590Y-109848540D01*
X104851457Y-109853854D01*
X104896804Y-109858500D01*
X106303196Y-109858500D01*
X106306442Y-109858163D01*
X106306446Y-109858163D01*
X106401690Y-109848281D01*
X106401694Y-109848280D01*
X106408548Y-109847569D01*
X106415084Y-109845388D01*
X106415086Y-109845388D01*
X106554947Y-109798727D01*
X106575664Y-109791815D01*
X106725472Y-109699111D01*
X106849935Y-109574431D01*
X106942377Y-109424462D01*
X106997839Y-109257249D01*
X107008500Y-109153196D01*
X107008500Y-108246804D01*
X107008163Y-108243554D01*
X106998281Y-108148310D01*
X106998280Y-108148306D01*
X106997569Y-108141452D01*
X106941815Y-107974336D01*
X106849111Y-107824528D01*
X106802387Y-107777885D01*
X108392000Y-107777885D01*
X108396475Y-107793124D01*
X108397865Y-107794329D01*
X108405548Y-107796000D01*
X109527885Y-107796000D01*
X109543124Y-107791525D01*
X109544329Y-107790135D01*
X109546000Y-107782452D01*
X109546000Y-107777885D01*
X110054000Y-107777885D01*
X110058475Y-107793124D01*
X110059865Y-107794329D01*
X110067548Y-107796000D01*
X111189884Y-107796000D01*
X111205123Y-107791525D01*
X111206328Y-107790135D01*
X111207999Y-107782452D01*
X111207999Y-107752905D01*
X111207662Y-107746386D01*
X111197743Y-107650794D01*
X111194851Y-107637400D01*
X111143412Y-107483216D01*
X111137239Y-107470038D01*
X111051937Y-107332193D01*
X111042901Y-107320792D01*
X110928171Y-107206261D01*
X110916760Y-107197249D01*
X110778757Y-107112184D01*
X110765576Y-107106037D01*
X110611290Y-107054862D01*
X110597914Y-107051995D01*
X110503562Y-107042328D01*
X110497145Y-107042000D01*
X110072115Y-107042000D01*
X110056876Y-107046475D01*
X110055671Y-107047865D01*
X110054000Y-107055548D01*
X110054000Y-107777885D01*
X109546000Y-107777885D01*
X109546000Y-107060116D01*
X109541525Y-107044877D01*
X109540135Y-107043672D01*
X109532452Y-107042001D01*
X109102905Y-107042001D01*
X109096386Y-107042338D01*
X109000794Y-107052257D01*
X108987400Y-107055149D01*
X108833216Y-107106588D01*
X108820038Y-107112761D01*
X108682193Y-107198063D01*
X108670792Y-107207099D01*
X108556261Y-107321829D01*
X108547249Y-107333240D01*
X108462184Y-107471243D01*
X108456037Y-107484424D01*
X108404862Y-107638710D01*
X108401995Y-107652086D01*
X108392328Y-107746438D01*
X108392000Y-107752854D01*
X108392000Y-107777885D01*
X106802387Y-107777885D01*
X106724431Y-107700065D01*
X106718200Y-107696224D01*
X106580692Y-107611463D01*
X106580691Y-107611462D01*
X106574462Y-107607623D01*
X106407249Y-107552161D01*
X106400413Y-107551461D01*
X106400410Y-107551460D01*
X106348543Y-107546146D01*
X106303196Y-107541500D01*
X106297000Y-107541500D01*
X106228879Y-107521498D01*
X106182386Y-107467842D01*
X106171000Y-107415500D01*
X106171000Y-106137538D01*
X106191002Y-106069417D01*
X106244658Y-106022924D01*
X106257124Y-106018014D01*
X106318153Y-105997653D01*
X106336446Y-105991550D01*
X106486848Y-105898478D01*
X106515630Y-105869646D01*
X106552600Y-105832612D01*
X106614883Y-105798533D01*
X106685703Y-105803536D01*
X106730790Y-105832457D01*
X106764197Y-105865805D01*
X106770427Y-105869645D01*
X106770428Y-105869646D01*
X106907590Y-105954194D01*
X106914762Y-105958615D01*
X106994505Y-105985064D01*
X107076111Y-106012132D01*
X107076113Y-106012132D01*
X107082639Y-106014297D01*
X107089475Y-106014997D01*
X107089478Y-106014998D01*
X107132531Y-106019409D01*
X107187100Y-106025000D01*
X108187900Y-106025000D01*
X108191146Y-106024663D01*
X108191150Y-106024663D01*
X108286808Y-106014738D01*
X108286812Y-106014737D01*
X108293666Y-106014026D01*
X108300202Y-106011845D01*
X108300204Y-106011845D01*
X108432306Y-105967772D01*
X108461446Y-105958050D01*
X108611848Y-105864978D01*
X108736805Y-105739803D01*
X108740646Y-105733572D01*
X108825775Y-105595468D01*
X108825776Y-105595466D01*
X108829615Y-105589238D01*
X108876296Y-105448498D01*
X108883132Y-105427889D01*
X108883132Y-105427887D01*
X108885297Y-105421361D01*
X108886430Y-105410303D01*
X108887424Y-105407869D01*
X108887441Y-105407790D01*
X108887455Y-105407793D01*
X108913273Y-105344576D01*
X108971389Y-105303795D01*
X109042326Y-105300908D01*
X109077890Y-105315888D01*
X109133743Y-105350316D01*
X109146924Y-105356463D01*
X109301210Y-105407638D01*
X109314586Y-105410505D01*
X109408938Y-105420172D01*
X109415354Y-105420500D01*
X109665385Y-105420500D01*
X109680624Y-105416025D01*
X109681829Y-105414635D01*
X109683500Y-105406952D01*
X109683500Y-105402384D01*
X110191500Y-105402384D01*
X110195975Y-105417623D01*
X110197365Y-105418828D01*
X110205048Y-105420499D01*
X110459595Y-105420499D01*
X110466114Y-105420162D01*
X110561706Y-105410243D01*
X110575100Y-105407351D01*
X110729284Y-105355912D01*
X110742462Y-105349739D01*
X110880307Y-105264437D01*
X110891708Y-105255401D01*
X110979555Y-105167401D01*
X111041838Y-105133322D01*
X111112658Y-105138325D01*
X111157746Y-105167246D01*
X111209329Y-105218739D01*
X111220740Y-105227751D01*
X111358743Y-105312816D01*
X111371924Y-105318963D01*
X111526210Y-105370138D01*
X111539586Y-105373005D01*
X111633938Y-105382672D01*
X111640354Y-105383000D01*
X111865385Y-105383000D01*
X111880624Y-105378525D01*
X111881829Y-105377135D01*
X111883500Y-105369452D01*
X111883500Y-105364884D01*
X112391500Y-105364884D01*
X112395975Y-105380123D01*
X112397365Y-105381328D01*
X112405048Y-105382999D01*
X112634595Y-105382999D01*
X112641114Y-105382662D01*
X112736706Y-105372743D01*
X112750100Y-105369851D01*
X112904284Y-105318412D01*
X112917462Y-105312239D01*
X113055307Y-105226937D01*
X113066708Y-105217901D01*
X113181239Y-105103171D01*
X113190251Y-105091760D01*
X113275316Y-104953757D01*
X113281463Y-104940576D01*
X113332638Y-104786290D01*
X113335505Y-104772914D01*
X113345172Y-104678562D01*
X113345500Y-104672146D01*
X113345500Y-104634615D01*
X113341025Y-104619376D01*
X113339635Y-104618171D01*
X113331952Y-104616500D01*
X112409615Y-104616500D01*
X112394376Y-104620975D01*
X112393171Y-104622365D01*
X112391500Y-104630048D01*
X112391500Y-105364884D01*
X111883500Y-105364884D01*
X111883500Y-104634615D01*
X111879025Y-104619376D01*
X111877635Y-104618171D01*
X111869952Y-104616500D01*
X111228615Y-104616500D01*
X111213376Y-104620974D01*
X111211611Y-104623012D01*
X111151885Y-104661396D01*
X111116386Y-104666500D01*
X110209615Y-104666500D01*
X110194376Y-104670975D01*
X110193171Y-104672365D01*
X110191500Y-104680048D01*
X110191500Y-105402384D01*
X109683500Y-105402384D01*
X109683500Y-102384500D01*
X109703502Y-102316379D01*
X109757158Y-102269886D01*
X109809500Y-102258500D01*
X110065500Y-102258500D01*
X110133621Y-102278502D01*
X110180114Y-102332158D01*
X110191500Y-102384500D01*
X110191500Y-104140385D01*
X110195975Y-104155624D01*
X110197365Y-104156829D01*
X110205048Y-104158500D01*
X110871385Y-104158500D01*
X110886624Y-104154026D01*
X110888389Y-104151988D01*
X110948115Y-104113604D01*
X110983614Y-104108500D01*
X113327384Y-104108500D01*
X113342623Y-104104025D01*
X113343828Y-104102635D01*
X113345499Y-104094952D01*
X113345499Y-104052905D01*
X113345162Y-104046386D01*
X113335243Y-103950794D01*
X113332351Y-103937400D01*
X113280912Y-103783216D01*
X113274739Y-103770038D01*
X113189437Y-103632193D01*
X113180401Y-103620792D01*
X113099038Y-103539570D01*
X113064959Y-103477287D01*
X113069962Y-103406467D01*
X113098883Y-103361380D01*
X113181630Y-103278488D01*
X113181634Y-103278483D01*
X113186805Y-103273303D01*
X113195993Y-103258398D01*
X113275775Y-103128968D01*
X113275776Y-103128966D01*
X113279615Y-103122738D01*
X113306064Y-103042995D01*
X113333132Y-102961389D01*
X113333132Y-102961387D01*
X113335297Y-102954861D01*
X113346000Y-102850400D01*
X113346000Y-102224600D01*
X113343537Y-102200862D01*
X113335738Y-102125692D01*
X113335737Y-102125688D01*
X113335026Y-102118834D01*
X113331037Y-102106876D01*
X113281368Y-101958002D01*
X113279050Y-101951054D01*
X113185978Y-101800652D01*
X113060803Y-101675695D01*
X113025333Y-101653831D01*
X112916468Y-101586725D01*
X112916466Y-101586724D01*
X112910238Y-101582885D01*
X112830495Y-101556436D01*
X112748889Y-101529368D01*
X112748887Y-101529368D01*
X112742361Y-101527203D01*
X112735525Y-101526503D01*
X112735522Y-101526502D01*
X112692469Y-101522091D01*
X112637900Y-101516500D01*
X112064595Y-101516500D01*
X111996474Y-101496498D01*
X111975499Y-101479595D01*
X111182904Y-100686999D01*
X111148879Y-100624687D01*
X111146000Y-100597904D01*
X111146000Y-100449600D01*
X111144094Y-100431226D01*
X111135738Y-100350692D01*
X111135737Y-100350688D01*
X111135026Y-100343834D01*
X111122258Y-100305562D01*
X111081368Y-100183002D01*
X111079050Y-100176054D01*
X110985978Y-100025652D01*
X110899391Y-99939216D01*
X110865312Y-99876934D01*
X110870315Y-99806114D01*
X110899236Y-99761025D01*
X110981634Y-99678483D01*
X110986805Y-99673303D01*
X110990648Y-99667069D01*
X111012954Y-99630883D01*
X111065726Y-99583390D01*
X111120213Y-99571000D01*
X113536981Y-99571000D01*
X113605102Y-99591002D01*
X113611042Y-99595064D01*
X113710148Y-99667069D01*
X113743248Y-99691118D01*
X113749276Y-99693802D01*
X113749278Y-99693803D01*
X113800560Y-99716635D01*
X113917712Y-99768794D01*
X113924167Y-99770166D01*
X113924170Y-99770167D01*
X113941696Y-99773892D01*
X114004170Y-99807620D01*
X114038491Y-99869769D01*
X114041500Y-99897139D01*
X114041500Y-109733629D01*
X114021498Y-109801750D01*
X114004595Y-109822724D01*
X113397724Y-110429595D01*
X113335412Y-110463621D01*
X113308629Y-110466500D01*
X113078767Y-110466500D01*
X113067584Y-110465973D01*
X113060091Y-110464298D01*
X113052165Y-110464547D01*
X113052164Y-110464547D01*
X112992014Y-110466438D01*
X112988055Y-110466500D01*
X112960144Y-110466500D01*
X112956210Y-110466997D01*
X112956209Y-110466997D01*
X112956144Y-110467005D01*
X112944307Y-110467938D01*
X112912049Y-110468952D01*
X112908030Y-110469078D01*
X112900111Y-110469327D01*
X112880657Y-110474979D01*
X112861300Y-110478987D01*
X112849070Y-110480532D01*
X112849069Y-110480532D01*
X112841203Y-110481526D01*
X112833832Y-110484445D01*
X112833830Y-110484445D01*
X112800088Y-110497804D01*
X112788858Y-110501649D01*
X112754017Y-110511771D01*
X112754016Y-110511771D01*
X112746407Y-110513982D01*
X112739588Y-110518015D01*
X112739583Y-110518017D01*
X112728972Y-110524293D01*
X112711224Y-110532988D01*
X112692383Y-110540448D01*
X112685967Y-110545110D01*
X112685966Y-110545110D01*
X112656613Y-110566436D01*
X112646693Y-110572952D01*
X112615465Y-110591420D01*
X112615462Y-110591422D01*
X112608638Y-110595458D01*
X112594317Y-110609779D01*
X112579284Y-110622619D01*
X112562893Y-110634528D01*
X112557843Y-110640632D01*
X112557838Y-110640637D01*
X112534707Y-110668598D01*
X112526717Y-110677379D01*
X112178568Y-111025527D01*
X112116256Y-111059552D01*
X112045440Y-111054487D01*
X111988648Y-111011997D01*
X111910661Y-110907939D01*
X111794105Y-110820585D01*
X111657716Y-110769455D01*
X111599262Y-110763105D01*
X111598931Y-110763069D01*
X111595534Y-110762700D01*
X110229266Y-110762700D01*
X110225860Y-110763070D01*
X110225533Y-110763105D01*
X110225457Y-110763091D01*
X110222472Y-110763253D01*
X110222434Y-110762549D01*
X110155651Y-110750571D01*
X110122841Y-110726936D01*
X110103652Y-110707747D01*
X110096112Y-110699461D01*
X110092000Y-110692982D01*
X110042347Y-110646355D01*
X110039506Y-110643601D01*
X110019770Y-110623865D01*
X110016573Y-110621385D01*
X110007551Y-110613680D01*
X109981097Y-110588838D01*
X109975321Y-110583414D01*
X109975397Y-110583333D01*
X109934435Y-110530209D01*
X109928363Y-110459473D01*
X109961497Y-110396682D01*
X110023318Y-110361773D01*
X110051852Y-110358500D01*
X110500400Y-110358500D01*
X110503646Y-110358163D01*
X110503650Y-110358163D01*
X110599308Y-110348238D01*
X110599312Y-110348237D01*
X110606166Y-110347526D01*
X110612702Y-110345345D01*
X110612704Y-110345345D01*
X110766998Y-110293868D01*
X110773946Y-110291550D01*
X110924348Y-110198478D01*
X111049305Y-110073303D01*
X111142115Y-109922738D01*
X111182245Y-109801750D01*
X111195632Y-109761389D01*
X111195632Y-109761387D01*
X111197797Y-109754861D01*
X111199973Y-109733629D01*
X111208172Y-109653598D01*
X111208500Y-109650400D01*
X111208500Y-109049600D01*
X111197526Y-108943834D01*
X111141550Y-108776054D01*
X111137700Y-108769832D01*
X111135142Y-108765698D01*
X111116306Y-108697246D01*
X111135025Y-108633286D01*
X111137816Y-108628758D01*
X111143963Y-108615576D01*
X111195138Y-108461290D01*
X111198005Y-108447914D01*
X111207672Y-108353562D01*
X111208000Y-108347146D01*
X111208000Y-108322115D01*
X111203525Y-108306876D01*
X111202135Y-108305671D01*
X111194452Y-108304000D01*
X108410116Y-108304000D01*
X108394877Y-108308475D01*
X108393672Y-108309865D01*
X108392001Y-108317548D01*
X108392001Y-108347095D01*
X108392338Y-108353614D01*
X108402257Y-108449206D01*
X108405149Y-108462600D01*
X108456588Y-108616784D01*
X108462761Y-108629962D01*
X108464856Y-108633347D01*
X108465581Y-108635980D01*
X108465863Y-108636583D01*
X108465760Y-108636631D01*
X108483694Y-108701798D01*
X108464971Y-108765767D01*
X108457885Y-108777262D01*
X108402203Y-108945139D01*
X108391500Y-109049600D01*
X108391500Y-109650400D01*
X108391837Y-109653646D01*
X108391837Y-109653650D01*
X108400136Y-109733629D01*
X108402474Y-109756166D01*
X108404655Y-109762702D01*
X108404655Y-109762704D01*
X108433059Y-109847839D01*
X108458450Y-109923946D01*
X108551522Y-110074348D01*
X108556704Y-110079521D01*
X108556708Y-110079526D01*
X108603591Y-110126327D01*
X108637671Y-110188609D01*
X108632668Y-110259429D01*
X108590171Y-110316302D01*
X108523673Y-110341171D01*
X108514574Y-110341500D01*
X105801866Y-110341500D01*
X105739684Y-110348255D01*
X105603295Y-110399385D01*
X105596110Y-110404770D01*
X105596108Y-110404771D01*
X105547333Y-110441326D01*
X105480826Y-110466174D01*
X105471768Y-110466500D01*
X104411066Y-110466500D01*
X104342945Y-110446498D01*
X104310242Y-110416068D01*
X104288261Y-110386739D01*
X104171705Y-110299385D01*
X104035316Y-110248255D01*
X103973134Y-110241500D01*
X103426866Y-110241500D01*
X103364684Y-110248255D01*
X103228295Y-110299385D01*
X103111739Y-110386739D01*
X103024385Y-110503295D01*
X102973255Y-110639684D01*
X102966500Y-110701866D01*
X102966500Y-111498134D01*
X102973255Y-111560316D01*
X103024385Y-111696705D01*
X103111739Y-111813261D01*
X103228295Y-111900615D01*
X103364684Y-111951745D01*
X103426866Y-111958500D01*
X103973134Y-111958500D01*
X104035316Y-111951745D01*
X104171705Y-111900615D01*
X104288261Y-111813261D01*
X104310241Y-111783933D01*
X104367100Y-111741420D01*
X104411066Y-111733500D01*
X105215500Y-111733500D01*
X105283621Y-111753502D01*
X105330114Y-111807158D01*
X105341500Y-111859500D01*
X105341500Y-113198134D01*
X105348255Y-113260316D01*
X105366417Y-113308761D01*
X105383608Y-113354619D01*
X105388791Y-113425426D01*
X105354870Y-113487795D01*
X105292615Y-113521925D01*
X105239429Y-113522096D01*
X105183303Y-113510166D01*
X105120830Y-113476437D01*
X105086508Y-113414288D01*
X105083500Y-113386919D01*
X105083500Y-112701866D01*
X105076745Y-112639684D01*
X105025615Y-112503295D01*
X104938261Y-112386739D01*
X104821705Y-112299385D01*
X104685316Y-112248255D01*
X104623134Y-112241500D01*
X104076866Y-112241500D01*
X104014684Y-112248255D01*
X103878295Y-112299385D01*
X103775565Y-112376377D01*
X103709059Y-112401225D01*
X103639676Y-112386172D01*
X103624435Y-112376377D01*
X103521705Y-112299385D01*
X103385316Y-112248255D01*
X103323134Y-112241500D01*
X102776866Y-112241500D01*
X102714684Y-112248255D01*
X102578295Y-112299385D01*
X102461739Y-112386739D01*
X102374385Y-112503295D01*
X102323255Y-112639684D01*
X102316500Y-112701866D01*
X102316500Y-113498134D01*
X102323255Y-113560316D01*
X102374385Y-113696705D01*
X102391327Y-113719311D01*
X102416174Y-113785815D01*
X102416500Y-113794874D01*
X102416500Y-114710405D01*
X102396498Y-114778526D01*
X102379595Y-114799500D01*
X102374500Y-114804595D01*
X102312188Y-114838621D01*
X102285405Y-114841500D01*
X101845998Y-114841500D01*
X101843550Y-114841693D01*
X101843542Y-114841693D01*
X101815079Y-114843933D01*
X101815074Y-114843934D01*
X101808669Y-114844438D01*
X101711844Y-114872568D01*
X101656512Y-114888643D01*
X101656510Y-114888644D01*
X101648899Y-114890855D01*
X101642072Y-114894892D01*
X101642073Y-114894892D01*
X101512520Y-114971509D01*
X101512517Y-114971511D01*
X101505693Y-114975547D01*
X101388047Y-115093193D01*
X101384011Y-115100017D01*
X101384009Y-115100020D01*
X101364260Y-115133414D01*
X101303355Y-115236399D01*
X101301143Y-115244013D01*
X101299426Y-115249923D01*
X101261216Y-115309760D01*
X101196720Y-115339440D01*
X101126417Y-115329540D01*
X101072628Y-115283202D01*
X101058904Y-115254651D01*
X101043412Y-115208216D01*
X101037239Y-115195038D01*
X100951937Y-115057193D01*
X100942901Y-115045792D01*
X100828171Y-114931261D01*
X100816760Y-114922249D01*
X100678757Y-114837184D01*
X100665576Y-114831037D01*
X100511290Y-114779862D01*
X100497914Y-114776995D01*
X100403562Y-114767328D01*
X100397145Y-114767000D01*
X100372115Y-114767000D01*
X100356876Y-114771475D01*
X100355671Y-114772865D01*
X100354000Y-114780548D01*
X100354000Y-116128000D01*
X100333998Y-116196121D01*
X100280342Y-116242614D01*
X100228000Y-116254000D01*
X98472115Y-116254000D01*
X98456876Y-116258475D01*
X98455671Y-116259865D01*
X98454000Y-116267548D01*
X98454000Y-119376095D01*
X98433998Y-119444216D01*
X98423225Y-119458607D01*
X98405671Y-119478865D01*
X98404000Y-119486548D01*
X98404000Y-121408885D01*
X98408474Y-121424124D01*
X98410512Y-121425889D01*
X98448896Y-121485615D01*
X98454000Y-121521114D01*
X98454000Y-123914884D01*
X98458475Y-123930123D01*
X98459865Y-123931328D01*
X98467548Y-123932999D01*
X98497095Y-123932999D01*
X98503614Y-123932662D01*
X98599206Y-123922743D01*
X98612600Y-123919851D01*
X98766784Y-123868412D01*
X98779962Y-123862239D01*
X98917807Y-123776937D01*
X98929208Y-123767901D01*
X99043738Y-123653172D01*
X99050794Y-123644238D01*
X99108712Y-123603177D01*
X99179635Y-123599947D01*
X99241046Y-123635574D01*
X99247846Y-123643407D01*
X99251522Y-123649348D01*
X99376697Y-123774305D01*
X99382927Y-123778145D01*
X99382928Y-123778146D01*
X99520288Y-123862816D01*
X99527262Y-123867115D01*
X99607005Y-123893564D01*
X99688611Y-123920632D01*
X99688613Y-123920632D01*
X99695139Y-123922797D01*
X99701975Y-123923497D01*
X99701978Y-123923498D01*
X99745031Y-123927909D01*
X99799600Y-123933500D01*
X100400400Y-123933500D01*
X100403646Y-123933163D01*
X100403650Y-123933163D01*
X100499308Y-123923238D01*
X100499312Y-123923237D01*
X100506166Y-123922526D01*
X100512702Y-123920345D01*
X100512704Y-123920345D01*
X100644806Y-123876272D01*
X100673946Y-123866550D01*
X100824348Y-123773478D01*
X100949305Y-123648303D01*
X101042115Y-123497738D01*
X101097797Y-123329861D01*
X101108500Y-123225400D01*
X101108500Y-122174600D01*
X101107619Y-122166109D01*
X101103095Y-122122503D01*
X101115960Y-122052682D01*
X101164531Y-122000900D01*
X101228422Y-121983500D01*
X101342470Y-121983500D01*
X101410591Y-122003502D01*
X101418644Y-122009134D01*
X101515011Y-122082281D01*
X101654890Y-122137663D01*
X101662928Y-122138636D01*
X101662929Y-122138636D01*
X101694499Y-122142456D01*
X101744443Y-122148500D01*
X102351099Y-122148500D01*
X102958556Y-122148499D01*
X102962314Y-122148044D01*
X102962319Y-122148044D01*
X103040080Y-122138635D01*
X103040083Y-122138634D01*
X103048110Y-122137663D01*
X103187989Y-122082281D01*
X103194831Y-122077088D01*
X103194834Y-122077086D01*
X103300982Y-121996514D01*
X103307822Y-121991322D01*
X103341216Y-121947328D01*
X103393586Y-121878334D01*
X103393588Y-121878331D01*
X103398781Y-121871489D01*
X103454163Y-121731610D01*
X103456248Y-121714385D01*
X103464544Y-121645823D01*
X103465000Y-121642057D01*
X103465000Y-121565430D01*
X103485002Y-121497309D01*
X103501905Y-121476335D01*
X103532906Y-121445334D01*
X103595218Y-121411308D01*
X103666033Y-121416373D01*
X103722869Y-121458920D01*
X103747680Y-121525440D01*
X103748001Y-121534422D01*
X103748001Y-121642056D01*
X103748456Y-121645814D01*
X103748456Y-121645819D01*
X103756753Y-121714385D01*
X103758837Y-121731610D01*
X103761815Y-121739131D01*
X103761815Y-121739132D01*
X103772991Y-121767358D01*
X103814219Y-121871489D01*
X103819412Y-121878331D01*
X103819414Y-121878334D01*
X103871784Y-121947328D01*
X103905178Y-121991322D01*
X103912018Y-121996514D01*
X104018166Y-122077086D01*
X104018169Y-122077088D01*
X104025011Y-122082281D01*
X104164890Y-122137663D01*
X104172928Y-122138636D01*
X104172929Y-122138636D01*
X104204499Y-122142456D01*
X104254443Y-122148500D01*
X104861099Y-122148500D01*
X105468556Y-122148499D01*
X105472314Y-122148044D01*
X105472319Y-122148044D01*
X105550080Y-122138635D01*
X105550083Y-122138634D01*
X105558110Y-122137663D01*
X105697989Y-122082281D01*
X105729319Y-122058500D01*
X105737452Y-122052327D01*
X105803806Y-122027074D01*
X105873279Y-122041703D01*
X105887691Y-122050754D01*
X105898009Y-122058250D01*
X105923935Y-122077086D01*
X105943248Y-122091118D01*
X105949276Y-122093802D01*
X105949278Y-122093803D01*
X106083500Y-122153562D01*
X106117712Y-122168794D01*
X106191603Y-122184500D01*
X106298056Y-122207128D01*
X106298061Y-122207128D01*
X106304513Y-122208500D01*
X106495487Y-122208500D01*
X106501939Y-122207128D01*
X106501944Y-122207128D01*
X106567877Y-122193113D01*
X106638668Y-122198515D01*
X106695300Y-122241332D01*
X106719401Y-122303356D01*
X106727474Y-122381166D01*
X106783450Y-122548946D01*
X106876522Y-122699348D01*
X107001697Y-122824305D01*
X107007927Y-122828145D01*
X107007928Y-122828146D01*
X107145288Y-122912816D01*
X107152262Y-122917115D01*
X107232005Y-122943564D01*
X107313611Y-122970632D01*
X107313613Y-122970632D01*
X107320139Y-122972797D01*
X107326975Y-122973497D01*
X107326978Y-122973498D01*
X107370031Y-122977909D01*
X107424600Y-122983500D01*
X108250400Y-122983500D01*
X108253646Y-122983163D01*
X108253650Y-122983163D01*
X108349308Y-122973238D01*
X108349312Y-122973237D01*
X108356166Y-122972526D01*
X108362702Y-122970345D01*
X108362704Y-122970345D01*
X108494806Y-122926272D01*
X108523946Y-122916550D01*
X108674348Y-122823478D01*
X108799305Y-122698303D01*
X108892115Y-122547738D01*
X108927805Y-122440135D01*
X108945632Y-122386389D01*
X108945632Y-122386387D01*
X108947797Y-122379861D01*
X108958500Y-122275400D01*
X108958500Y-122272095D01*
X112642001Y-122272095D01*
X112642338Y-122278614D01*
X112652257Y-122374206D01*
X112655149Y-122387600D01*
X112706588Y-122541784D01*
X112712761Y-122554962D01*
X112798063Y-122692807D01*
X112807099Y-122704208D01*
X112921829Y-122818739D01*
X112933240Y-122827751D01*
X113071243Y-122912816D01*
X113084424Y-122918963D01*
X113238710Y-122970138D01*
X113252086Y-122973005D01*
X113346438Y-122982672D01*
X113352854Y-122983000D01*
X113490385Y-122983000D01*
X113505624Y-122978525D01*
X113506829Y-122977135D01*
X113508500Y-122969452D01*
X113508500Y-121072115D01*
X113504025Y-121056876D01*
X113502635Y-121055671D01*
X113494952Y-121054000D01*
X112660116Y-121054000D01*
X112644877Y-121058475D01*
X112643672Y-121059865D01*
X112642001Y-121067548D01*
X112642001Y-122272095D01*
X108958500Y-122272095D01*
X108958500Y-122184500D01*
X108978502Y-122116379D01*
X109032158Y-122069886D01*
X109084500Y-122058500D01*
X109208604Y-122058500D01*
X109225051Y-122059578D01*
X109241516Y-122061746D01*
X109241520Y-122061746D01*
X109247086Y-122062479D01*
X109328489Y-122058640D01*
X109334424Y-122058500D01*
X109356999Y-122058500D01*
X109382989Y-122056181D01*
X109388248Y-122055822D01*
X109471488Y-122051896D01*
X109476947Y-122050646D01*
X109476952Y-122050645D01*
X109488970Y-122047892D01*
X109505899Y-122045211D01*
X109523762Y-122043617D01*
X109529178Y-122042135D01*
X109529180Y-122042135D01*
X109604133Y-122021630D01*
X109609251Y-122020344D01*
X109685000Y-122002995D01*
X109685002Y-122002994D01*
X109690470Y-122001742D01*
X109700970Y-121997263D01*
X109706967Y-121994706D01*
X109723142Y-121989073D01*
X109735039Y-121985818D01*
X109735043Y-121985817D01*
X109740451Y-121984337D01*
X109815667Y-121948461D01*
X109820476Y-121946290D01*
X109891949Y-121915804D01*
X109891950Y-121915804D01*
X109897109Y-121913603D01*
X109912110Y-121903749D01*
X109927025Y-121895346D01*
X109943218Y-121887622D01*
X109947769Y-121884352D01*
X109947772Y-121884350D01*
X110010881Y-121839001D01*
X110015232Y-121836011D01*
X110081010Y-121792804D01*
X110081018Y-121792798D01*
X110084874Y-121790265D01*
X110105662Y-121771743D01*
X110115939Y-121763510D01*
X110125654Y-121756529D01*
X110200062Y-121679746D01*
X110201451Y-121678336D01*
X112426905Y-119452883D01*
X112489217Y-119418857D01*
X112560033Y-119423922D01*
X112616868Y-119466469D01*
X112641679Y-119532989D01*
X112642000Y-119541978D01*
X112642000Y-120527885D01*
X112646475Y-120543124D01*
X112647865Y-120544329D01*
X112655548Y-120546000D01*
X113490385Y-120546000D01*
X113505624Y-120541525D01*
X113506829Y-120540135D01*
X113508500Y-120532452D01*
X113508500Y-118635116D01*
X113504025Y-118619877D01*
X113502635Y-118618672D01*
X113494952Y-118617001D01*
X113352905Y-118617001D01*
X113346386Y-118617338D01*
X113250794Y-118627257D01*
X113237400Y-118630149D01*
X113083216Y-118681588D01*
X113070042Y-118687759D01*
X113052411Y-118698670D01*
X112983959Y-118717508D01*
X112916189Y-118696347D01*
X112870618Y-118641907D01*
X112862198Y-118592512D01*
X112860194Y-118592543D01*
X112859407Y-118542447D01*
X112856665Y-118367919D01*
X112832083Y-118242625D01*
X112838596Y-118171929D01*
X112866631Y-118129273D01*
X112967247Y-118028657D01*
X112975537Y-118021113D01*
X112982018Y-118017000D01*
X113028659Y-117967332D01*
X113031413Y-117964491D01*
X113051134Y-117944770D01*
X113053612Y-117941575D01*
X113061318Y-117932553D01*
X113086158Y-117906101D01*
X113091586Y-117900321D01*
X113101346Y-117882568D01*
X113112199Y-117866045D01*
X113119753Y-117856306D01*
X113124613Y-117850041D01*
X113142176Y-117809457D01*
X113147383Y-117798827D01*
X113168695Y-117760060D01*
X113170666Y-117752383D01*
X113170668Y-117752378D01*
X113173732Y-117740442D01*
X113180138Y-117721730D01*
X113185033Y-117710419D01*
X113188181Y-117703145D01*
X113189421Y-117695317D01*
X113189423Y-117695310D01*
X113195099Y-117659476D01*
X113197505Y-117647856D01*
X113206528Y-117612711D01*
X113206528Y-117612710D01*
X113208500Y-117605030D01*
X113208500Y-117584776D01*
X113210051Y-117565065D01*
X113210427Y-117562691D01*
X113240839Y-117498538D01*
X113268573Y-117475258D01*
X113305622Y-117452331D01*
X113305623Y-117452330D01*
X113311848Y-117448478D01*
X113436805Y-117323303D01*
X113481588Y-117250652D01*
X113525775Y-117178968D01*
X113525776Y-117178966D01*
X113529615Y-117172738D01*
X113562777Y-117072758D01*
X113583132Y-117011389D01*
X113583132Y-117011387D01*
X113585297Y-117004861D01*
X113586493Y-116993193D01*
X113592438Y-116935165D01*
X113596000Y-116900400D01*
X113596000Y-116325863D01*
X113616002Y-116257742D01*
X113623907Y-116247277D01*
X113623747Y-116247153D01*
X113626219Y-116243967D01*
X113633917Y-116234955D01*
X113658761Y-116208498D01*
X113664186Y-116202721D01*
X113673947Y-116184966D01*
X113684798Y-116168447D01*
X113697214Y-116152441D01*
X113714774Y-116111863D01*
X113719991Y-116101213D01*
X113741295Y-116062460D01*
X113746333Y-116042837D01*
X113752737Y-116024134D01*
X113757633Y-116012820D01*
X113757633Y-116012819D01*
X113760781Y-116005545D01*
X113762020Y-115997722D01*
X113762023Y-115997712D01*
X113767699Y-115961876D01*
X113770105Y-115950256D01*
X113779128Y-115915111D01*
X113779128Y-115915110D01*
X113781100Y-115907430D01*
X113781100Y-115887176D01*
X113782651Y-115867465D01*
X113784580Y-115855286D01*
X113785820Y-115847457D01*
X113781659Y-115803438D01*
X113781100Y-115791581D01*
X113781100Y-113333171D01*
X113801102Y-113265050D01*
X113854758Y-113218557D01*
X113877954Y-113210588D01*
X113885059Y-113208898D01*
X113892916Y-113208045D01*
X114029305Y-113156915D01*
X114145861Y-113069561D01*
X114233215Y-112953005D01*
X114284345Y-112816616D01*
X114291100Y-112754434D01*
X114291100Y-112175566D01*
X114284345Y-112113384D01*
X114233215Y-111976995D01*
X114219078Y-111958131D01*
X114186410Y-111914543D01*
X114161562Y-111848036D01*
X114176615Y-111778654D01*
X114221871Y-111731259D01*
X114264309Y-111705507D01*
X114264313Y-111705504D01*
X114269107Y-111702595D01*
X114273306Y-111698886D01*
X114273311Y-111698883D01*
X114276019Y-111696491D01*
X114276023Y-111696488D01*
X114277484Y-111695197D01*
X114769298Y-111203383D01*
X114831610Y-111169357D01*
X114902425Y-111174422D01*
X114959261Y-111216969D01*
X114984072Y-111283489D01*
X114984393Y-111292478D01*
X114984393Y-118880177D01*
X114964391Y-118948298D01*
X114910735Y-118994791D01*
X114840461Y-119004895D01*
X114775881Y-118975401D01*
X114751249Y-118946481D01*
X114726934Y-118907190D01*
X114717901Y-118895792D01*
X114603171Y-118781261D01*
X114591760Y-118772249D01*
X114453757Y-118687184D01*
X114440576Y-118681037D01*
X114286290Y-118629862D01*
X114272914Y-118626995D01*
X114178562Y-118617328D01*
X114172145Y-118617000D01*
X114034615Y-118617000D01*
X114019376Y-118621475D01*
X114018171Y-118622865D01*
X114016500Y-118630548D01*
X114016500Y-122964884D01*
X114020975Y-122980123D01*
X114022365Y-122981328D01*
X114030048Y-122982999D01*
X114172095Y-122982999D01*
X114178614Y-122982662D01*
X114274206Y-122972743D01*
X114287600Y-122969851D01*
X114441784Y-122918412D01*
X114454962Y-122912239D01*
X114592807Y-122826937D01*
X114604208Y-122817901D01*
X114718739Y-122703171D01*
X114727751Y-122691760D01*
X114751133Y-122653827D01*
X114803905Y-122606334D01*
X114873977Y-122594910D01*
X114939101Y-122623184D01*
X114978600Y-122682178D01*
X114984393Y-122719943D01*
X114984393Y-123650633D01*
X114982893Y-123670018D01*
X114980583Y-123684851D01*
X114980583Y-123684855D01*
X114979202Y-123693724D01*
X114980366Y-123702626D01*
X114980366Y-123702631D01*
X114980382Y-123702750D01*
X114980653Y-123733187D01*
X114973659Y-123795261D01*
X114967380Y-123822769D01*
X114940407Y-123899853D01*
X114928165Y-123925274D01*
X114884718Y-123994420D01*
X114867126Y-124016479D01*
X114809377Y-124074228D01*
X114787323Y-124091816D01*
X114718168Y-124135269D01*
X114692752Y-124147508D01*
X114615664Y-124174482D01*
X114588157Y-124180761D01*
X114571717Y-124182613D01*
X114532624Y-124187017D01*
X114516975Y-124187800D01*
X114508044Y-124187691D01*
X114499173Y-124186309D01*
X114490270Y-124187473D01*
X114490264Y-124187473D01*
X114467603Y-124190436D01*
X114451267Y-124191500D01*
X96849367Y-124191500D01*
X96829982Y-124190000D01*
X96815148Y-124187690D01*
X96815145Y-124187690D01*
X96806276Y-124186309D01*
X96797374Y-124187473D01*
X96797250Y-124187489D01*
X96766808Y-124187760D01*
X96746130Y-124185430D01*
X96704736Y-124180766D01*
X96677229Y-124174487D01*
X96600147Y-124147515D01*
X96574726Y-124135273D01*
X96505574Y-124091822D01*
X96483515Y-124074230D01*
X96425770Y-124016485D01*
X96408178Y-123994426D01*
X96364727Y-123925274D01*
X96352485Y-123899853D01*
X96325513Y-123822772D01*
X96319234Y-123795266D01*
X96316779Y-123773478D01*
X96313170Y-123741447D01*
X96312888Y-123716640D01*
X96313576Y-123712552D01*
X96313729Y-123700000D01*
X96309773Y-123672376D01*
X96308500Y-123654514D01*
X96308500Y-123222095D01*
X97192001Y-123222095D01*
X97192338Y-123228614D01*
X97202257Y-123324206D01*
X97205149Y-123337600D01*
X97256588Y-123491784D01*
X97262761Y-123504962D01*
X97348063Y-123642807D01*
X97357099Y-123654208D01*
X97471829Y-123768739D01*
X97483240Y-123777751D01*
X97621243Y-123862816D01*
X97634424Y-123868963D01*
X97788710Y-123920138D01*
X97802086Y-123923005D01*
X97896438Y-123932672D01*
X97902854Y-123933000D01*
X97927885Y-123933000D01*
X97943124Y-123928525D01*
X97944329Y-123927135D01*
X97946000Y-123919452D01*
X97946000Y-122972115D01*
X97941525Y-122956876D01*
X97940135Y-122955671D01*
X97932452Y-122954000D01*
X97210116Y-122954000D01*
X97194877Y-122958475D01*
X97193672Y-122959865D01*
X97192001Y-122967548D01*
X97192001Y-123222095D01*
X96308500Y-123222095D01*
X96308500Y-121022095D01*
X97142001Y-121022095D01*
X97142338Y-121028614D01*
X97152257Y-121124206D01*
X97155149Y-121137600D01*
X97206588Y-121291784D01*
X97212761Y-121304962D01*
X97298063Y-121442807D01*
X97307099Y-121454208D01*
X97388860Y-121535827D01*
X97422939Y-121598110D01*
X97417936Y-121668930D01*
X97389015Y-121714018D01*
X97356261Y-121746829D01*
X97347249Y-121758240D01*
X97262184Y-121896243D01*
X97256037Y-121909424D01*
X97204862Y-122063710D01*
X97201995Y-122077086D01*
X97192328Y-122171438D01*
X97192000Y-122177855D01*
X97192000Y-122427885D01*
X97196475Y-122443124D01*
X97197865Y-122444329D01*
X97205548Y-122446000D01*
X97927885Y-122446000D01*
X97943124Y-122441525D01*
X97944329Y-122440135D01*
X97946000Y-122432452D01*
X97946000Y-121791115D01*
X97941526Y-121775876D01*
X97939488Y-121774111D01*
X97901104Y-121714385D01*
X97896000Y-121678886D01*
X97896000Y-120772115D01*
X97891525Y-120756876D01*
X97890135Y-120755671D01*
X97882452Y-120754000D01*
X97160116Y-120754000D01*
X97144877Y-120758475D01*
X97143672Y-120759865D01*
X97142001Y-120767548D01*
X97142001Y-121022095D01*
X96308500Y-121022095D01*
X96308500Y-120227885D01*
X97142000Y-120227885D01*
X97146475Y-120243124D01*
X97147865Y-120244329D01*
X97155548Y-120246000D01*
X97877885Y-120246000D01*
X97893124Y-120241525D01*
X97894329Y-120240135D01*
X97896000Y-120232452D01*
X97896000Y-119323905D01*
X97916002Y-119255784D01*
X97926775Y-119241393D01*
X97944329Y-119221135D01*
X97946000Y-119213452D01*
X97946000Y-118472115D01*
X97941525Y-118456876D01*
X97940135Y-118455671D01*
X97932452Y-118454000D01*
X97210116Y-118454000D01*
X97194877Y-118458475D01*
X97193672Y-118459865D01*
X97192001Y-118467548D01*
X97192001Y-118722095D01*
X97192338Y-118728614D01*
X97202257Y-118824206D01*
X97205149Y-118837600D01*
X97256588Y-118991784D01*
X97262761Y-119004962D01*
X97348062Y-119142806D01*
X97357099Y-119154208D01*
X97440287Y-119237252D01*
X97474366Y-119299535D01*
X97469363Y-119370355D01*
X97429532Y-119425171D01*
X97420797Y-119432094D01*
X97306261Y-119546829D01*
X97297249Y-119558240D01*
X97212184Y-119696243D01*
X97206037Y-119709424D01*
X97154862Y-119863710D01*
X97151995Y-119877086D01*
X97142328Y-119971438D01*
X97142000Y-119977855D01*
X97142000Y-120227885D01*
X96308500Y-120227885D01*
X96308500Y-117927885D01*
X97192000Y-117927885D01*
X97196475Y-117943124D01*
X97197865Y-117944329D01*
X97205548Y-117946000D01*
X97927885Y-117946000D01*
X97943124Y-117941525D01*
X97944329Y-117940135D01*
X97946000Y-117932452D01*
X97946000Y-116272115D01*
X97941525Y-116256876D01*
X97940135Y-116255671D01*
X97932452Y-116254000D01*
X97210116Y-116254000D01*
X97194877Y-116258475D01*
X97193672Y-116259865D01*
X97192001Y-116267548D01*
X97192001Y-116522095D01*
X97192338Y-116528614D01*
X97202257Y-116624206D01*
X97205149Y-116637600D01*
X97256588Y-116791784D01*
X97262761Y-116804962D01*
X97348063Y-116942807D01*
X97357099Y-116954208D01*
X97413817Y-117010827D01*
X97447896Y-117073109D01*
X97442893Y-117143929D01*
X97413972Y-117189018D01*
X97356261Y-117246829D01*
X97347249Y-117258240D01*
X97262184Y-117396243D01*
X97256037Y-117409424D01*
X97204862Y-117563710D01*
X97201995Y-117577086D01*
X97192328Y-117671438D01*
X97192000Y-117677855D01*
X97192000Y-117927885D01*
X96308500Y-117927885D01*
X96308500Y-115727885D01*
X97192000Y-115727885D01*
X97196475Y-115743124D01*
X97197865Y-115744329D01*
X97205548Y-115746000D01*
X97927885Y-115746000D01*
X97943124Y-115741525D01*
X97944329Y-115740135D01*
X97946000Y-115732452D01*
X97946000Y-115727885D01*
X98454000Y-115727885D01*
X98458475Y-115743124D01*
X98459865Y-115744329D01*
X98467548Y-115746000D01*
X99827885Y-115746000D01*
X99843124Y-115741525D01*
X99844329Y-115740135D01*
X99846000Y-115732452D01*
X99846000Y-114785116D01*
X99841525Y-114769877D01*
X99840135Y-114768672D01*
X99832452Y-114767001D01*
X99802905Y-114767001D01*
X99796386Y-114767338D01*
X99700794Y-114777257D01*
X99687400Y-114780149D01*
X99533216Y-114831588D01*
X99520038Y-114837761D01*
X99382193Y-114923063D01*
X99370792Y-114932099D01*
X99256260Y-115046830D01*
X99248886Y-115056167D01*
X99190969Y-115097229D01*
X99120046Y-115100461D01*
X99058635Y-115064835D01*
X99051257Y-115056335D01*
X99042903Y-115045794D01*
X98928171Y-114931261D01*
X98916760Y-114922249D01*
X98778757Y-114837184D01*
X98765576Y-114831037D01*
X98611290Y-114779862D01*
X98597914Y-114776995D01*
X98503562Y-114767328D01*
X98497145Y-114767000D01*
X98472115Y-114767000D01*
X98456876Y-114771475D01*
X98455671Y-114772865D01*
X98454000Y-114780548D01*
X98454000Y-115727885D01*
X97946000Y-115727885D01*
X97946000Y-114785116D01*
X97941525Y-114769877D01*
X97940135Y-114768672D01*
X97932452Y-114767001D01*
X97902905Y-114767001D01*
X97896386Y-114767338D01*
X97800794Y-114777257D01*
X97787400Y-114780149D01*
X97633216Y-114831588D01*
X97620038Y-114837761D01*
X97482193Y-114923063D01*
X97470792Y-114932099D01*
X97356261Y-115046829D01*
X97347249Y-115058240D01*
X97262184Y-115196243D01*
X97256037Y-115209424D01*
X97204862Y-115363710D01*
X97201995Y-115377086D01*
X97192328Y-115471438D01*
X97192000Y-115477855D01*
X97192000Y-115727885D01*
X96308500Y-115727885D01*
X96308500Y-102372095D01*
X100679501Y-102372095D01*
X100679838Y-102378614D01*
X100689757Y-102474206D01*
X100692649Y-102487600D01*
X100744088Y-102641784D01*
X100750261Y-102654962D01*
X100835563Y-102792807D01*
X100844599Y-102804208D01*
X100959329Y-102918739D01*
X100970740Y-102927751D01*
X101108743Y-103012816D01*
X101121924Y-103018963D01*
X101276210Y-103070138D01*
X101289586Y-103073005D01*
X101383938Y-103082672D01*
X101390354Y-103083000D01*
X101415385Y-103083000D01*
X101430624Y-103078525D01*
X101431829Y-103077135D01*
X101433500Y-103069452D01*
X101433500Y-102122115D01*
X101429025Y-102106876D01*
X101427635Y-102105671D01*
X101419952Y-102104000D01*
X100697616Y-102104000D01*
X100682377Y-102108475D01*
X100681172Y-102109865D01*
X100679501Y-102117548D01*
X100679501Y-102372095D01*
X96308500Y-102372095D01*
X96308500Y-97677885D01*
X100692000Y-97677885D01*
X100696475Y-97693124D01*
X100697865Y-97694329D01*
X100705548Y-97696000D01*
X101427885Y-97696000D01*
X101443124Y-97691525D01*
X101444329Y-97690135D01*
X101446000Y-97682452D01*
X101446000Y-96735116D01*
X101441525Y-96719877D01*
X101440135Y-96718672D01*
X101432452Y-96717001D01*
X101402905Y-96717001D01*
X101396386Y-96717338D01*
X101300794Y-96727257D01*
X101287400Y-96730149D01*
X101133216Y-96781588D01*
X101120038Y-96787761D01*
X100982193Y-96873063D01*
X100970792Y-96882099D01*
X100856261Y-96996829D01*
X100847249Y-97008240D01*
X100762184Y-97146243D01*
X100756037Y-97159424D01*
X100704862Y-97313710D01*
X100701995Y-97327086D01*
X100692328Y-97421438D01*
X100692000Y-97427855D01*
X100692000Y-97677885D01*
X96308500Y-97677885D01*
X96308500Y-96869670D01*
X96328502Y-96801549D01*
X96382158Y-96755056D01*
X96452432Y-96744952D01*
X96485748Y-96754563D01*
X96517712Y-96768794D01*
X96589241Y-96783998D01*
X96698056Y-96807128D01*
X96698061Y-96807128D01*
X96704513Y-96808500D01*
X96895487Y-96808500D01*
X96901939Y-96807128D01*
X96901944Y-96807128D01*
X97010759Y-96783998D01*
X97082288Y-96768794D01*
X97088319Y-96766109D01*
X97250722Y-96693803D01*
X97250724Y-96693802D01*
X97256752Y-96691118D01*
X97272797Y-96679461D01*
X97367773Y-96610456D01*
X97411253Y-96578866D01*
X97463530Y-96520807D01*
X97534621Y-96441852D01*
X97534622Y-96441851D01*
X97539040Y-96436944D01*
X97634527Y-96271556D01*
X97693542Y-96089928D01*
X97713504Y-95900000D01*
X97693542Y-95710072D01*
X97634527Y-95528444D01*
X97539040Y-95363056D01*
X97530412Y-95353473D01*
X97415675Y-95226045D01*
X97415674Y-95226044D01*
X97411253Y-95221134D01*
X97380700Y-95198936D01*
X97337346Y-95142714D01*
X97331271Y-95071978D01*
X97364402Y-95009186D01*
X97426222Y-94974275D01*
X97454761Y-94971000D01*
X98200400Y-94971000D01*
X98203646Y-94970663D01*
X98203650Y-94970663D01*
X98299308Y-94960738D01*
X98299312Y-94960737D01*
X98306166Y-94960026D01*
X98312702Y-94957845D01*
X98312704Y-94957845D01*
X98466998Y-94906368D01*
X98473946Y-94904050D01*
X98624348Y-94810978D01*
X98648371Y-94786913D01*
X98710653Y-94752834D01*
X98781473Y-94757837D01*
G37*
%TD.AperFunction*%
%TA.AperFunction,Conductor*%
G36*
X101196601Y-119021410D02*
G01*
X101236101Y-119080404D01*
X101240982Y-119133302D01*
X101238000Y-119157943D01*
X101238001Y-119444216D01*
X101238001Y-119663956D01*
X101217999Y-119732077D01*
X101164344Y-119778570D01*
X101094070Y-119788674D01*
X101029489Y-119759181D01*
X100999047Y-119713659D01*
X100996973Y-119714630D01*
X100993869Y-119708004D01*
X100991550Y-119701054D01*
X100898478Y-119550652D01*
X100810467Y-119462794D01*
X100776388Y-119400511D01*
X100781391Y-119329691D01*
X100820510Y-119275853D01*
X100824348Y-119273478D01*
X100949305Y-119148303D01*
X101008635Y-119052052D01*
X101061406Y-119004560D01*
X101131477Y-118993136D01*
X101196601Y-119021410D01*
G37*
%TD.AperFunction*%
%TA.AperFunction,Conductor*%
G36*
X105316428Y-118356789D02*
G01*
X105380394Y-118363528D01*
X105435770Y-118407957D01*
X105458336Y-118475272D01*
X105457348Y-118496487D01*
X105451297Y-118542447D01*
X105422574Y-118607374D01*
X105363309Y-118646465D01*
X105326375Y-118652000D01*
X105133615Y-118652000D01*
X105118376Y-118656475D01*
X105117171Y-118657865D01*
X105115500Y-118665548D01*
X105115500Y-119475500D01*
X105095498Y-119543621D01*
X105041842Y-119590114D01*
X104989500Y-119601500D01*
X104861500Y-119601501D01*
X104733499Y-119601501D01*
X104665380Y-119581499D01*
X104618887Y-119527844D01*
X104607500Y-119475501D01*
X104607500Y-118670115D01*
X104603025Y-118654876D01*
X104601635Y-118653671D01*
X104593952Y-118652000D01*
X104359500Y-118652000D01*
X104291379Y-118631998D01*
X104244886Y-118578342D01*
X104233500Y-118526000D01*
X104233500Y-118484500D01*
X104253502Y-118416379D01*
X104307158Y-118369886D01*
X104359500Y-118358500D01*
X105279002Y-118358500D01*
X105281450Y-118358307D01*
X105281458Y-118358307D01*
X105316331Y-118355562D01*
X105316428Y-118356789D01*
G37*
%TD.AperFunction*%
%TA.AperFunction,Conductor*%
G36*
X109838164Y-117254426D02*
G01*
X109864598Y-117284880D01*
X109889022Y-117324348D01*
X110014197Y-117449305D01*
X110020427Y-117453145D01*
X110020428Y-117453146D01*
X110115057Y-117511476D01*
X110164762Y-117542115D01*
X110225434Y-117562239D01*
X110326111Y-117595632D01*
X110326113Y-117595632D01*
X110332639Y-117597797D01*
X110339477Y-117598498D01*
X110339479Y-117598498D01*
X110422515Y-117607006D01*
X110488242Y-117633848D01*
X110529024Y-117691963D01*
X110531912Y-117762901D01*
X110498767Y-117821445D01*
X109130131Y-119190081D01*
X109067819Y-119224107D01*
X108997004Y-119219042D01*
X108940168Y-119176495D01*
X108921512Y-119140862D01*
X108918991Y-119133304D01*
X108891550Y-119051054D01*
X108798478Y-118900652D01*
X108679404Y-118781786D01*
X108645326Y-118719505D01*
X108650329Y-118648685D01*
X108674785Y-118608307D01*
X108739040Y-118536944D01*
X108834527Y-118371556D01*
X108893542Y-118189928D01*
X108894928Y-118176746D01*
X108912814Y-118006565D01*
X108913504Y-118000000D01*
X108906405Y-117932452D01*
X108894232Y-117816635D01*
X108894232Y-117816633D01*
X108893542Y-117810072D01*
X108889599Y-117797937D01*
X108887569Y-117726972D01*
X108924230Y-117666172D01*
X108987941Y-117634845D01*
X109009431Y-117632999D01*
X109059595Y-117632999D01*
X109066114Y-117632662D01*
X109161706Y-117622743D01*
X109175100Y-117619851D01*
X109329284Y-117568412D01*
X109342462Y-117562239D01*
X109480307Y-117476937D01*
X109491708Y-117467901D01*
X109606239Y-117353171D01*
X109615251Y-117341760D01*
X109650196Y-117285069D01*
X109702969Y-117237575D01*
X109773040Y-117226152D01*
X109838164Y-117254426D01*
G37*
%TD.AperFunction*%
%TA.AperFunction,Conductor*%
G36*
X101317012Y-117999472D02*
G01*
X101342950Y-118030552D01*
X101388047Y-118106807D01*
X101505693Y-118224453D01*
X101512517Y-118228489D01*
X101512520Y-118228491D01*
X101648899Y-118309145D01*
X101648243Y-118310255D01*
X101696615Y-118350505D01*
X101718000Y-118420731D01*
X101718000Y-118551720D01*
X101697998Y-118619841D01*
X101638384Y-118668872D01*
X101592134Y-118687184D01*
X101515011Y-118717719D01*
X101508169Y-118722912D01*
X101508166Y-118722914D01*
X101500657Y-118728614D01*
X101395178Y-118808678D01*
X101389986Y-118815518D01*
X101325372Y-118900643D01*
X101268254Y-118942810D01*
X101197406Y-118947402D01*
X101135322Y-118912962D01*
X101101714Y-118850425D01*
X101099666Y-118811620D01*
X101102723Y-118781787D01*
X101108500Y-118725400D01*
X101108500Y-118094696D01*
X101128502Y-118026575D01*
X101182158Y-117980082D01*
X101252432Y-117969978D01*
X101317012Y-117999472D01*
G37*
%TD.AperFunction*%
%TA.AperFunction,Conductor*%
G36*
X108629006Y-94166002D02*
G01*
X108675499Y-94219658D01*
X108685603Y-94289932D01*
X108680478Y-94311668D01*
X108667362Y-94351210D01*
X108664495Y-94364586D01*
X108654828Y-94458938D01*
X108654500Y-94465354D01*
X108654500Y-94490385D01*
X108658975Y-94505624D01*
X108660365Y-94506829D01*
X108668048Y-94508500D01*
X110015500Y-94508500D01*
X110083621Y-94528502D01*
X110130114Y-94582158D01*
X110141500Y-94634500D01*
X110141500Y-96790500D01*
X110121498Y-96858621D01*
X110067842Y-96905114D01*
X110015500Y-96916500D01*
X108592342Y-96916500D01*
X108528203Y-96898953D01*
X108457927Y-96857392D01*
X108457928Y-96857392D01*
X108451101Y-96853355D01*
X108443490Y-96851144D01*
X108443488Y-96851143D01*
X108391269Y-96835972D01*
X108291331Y-96806938D01*
X108284926Y-96806434D01*
X108284921Y-96806433D01*
X108256458Y-96804193D01*
X108256450Y-96804193D01*
X108254002Y-96804000D01*
X107547000Y-96804000D01*
X107478879Y-96783998D01*
X107432386Y-96730342D01*
X107421000Y-96678000D01*
X107421000Y-96647000D01*
X107441002Y-96578879D01*
X107494658Y-96532386D01*
X107547000Y-96521000D01*
X108254002Y-96521000D01*
X108256450Y-96520807D01*
X108256458Y-96520807D01*
X108284921Y-96518567D01*
X108284926Y-96518566D01*
X108291331Y-96518062D01*
X108391269Y-96489028D01*
X108443488Y-96473857D01*
X108443490Y-96473856D01*
X108451101Y-96471645D01*
X108501478Y-96441852D01*
X108528203Y-96426047D01*
X108592342Y-96408500D01*
X109615385Y-96408500D01*
X109630624Y-96404025D01*
X109631829Y-96402635D01*
X109633500Y-96394952D01*
X109633500Y-95034615D01*
X109629025Y-95019376D01*
X109627635Y-95018171D01*
X109619952Y-95016500D01*
X108672615Y-95016500D01*
X108648461Y-95023592D01*
X108577465Y-95023592D01*
X108548825Y-95011149D01*
X108545506Y-95009186D01*
X108451101Y-94953355D01*
X108443490Y-94951144D01*
X108443488Y-94951143D01*
X108377317Y-94931919D01*
X108291331Y-94906938D01*
X108284926Y-94906434D01*
X108284921Y-94906433D01*
X108256458Y-94904193D01*
X108256450Y-94904193D01*
X108254002Y-94904000D01*
X107095998Y-94904000D01*
X107093550Y-94904193D01*
X107093542Y-94904193D01*
X107065079Y-94906433D01*
X107065074Y-94906434D01*
X107058669Y-94906938D01*
X106972683Y-94931919D01*
X106906512Y-94951143D01*
X106906510Y-94951144D01*
X106898899Y-94953355D01*
X106892072Y-94957392D01*
X106892073Y-94957392D01*
X106762520Y-95034009D01*
X106762517Y-95034011D01*
X106755693Y-95038047D01*
X106638047Y-95155693D01*
X106635794Y-95159502D01*
X106579504Y-95200155D01*
X106508612Y-95204006D01*
X106446891Y-95168918D01*
X106440224Y-95161224D01*
X106436953Y-95155693D01*
X106352678Y-95071418D01*
X106318652Y-95009106D01*
X106323717Y-94938291D01*
X106352677Y-94893228D01*
X107063001Y-94182904D01*
X107125312Y-94148880D01*
X107152095Y-94146000D01*
X108560885Y-94146000D01*
X108629006Y-94166002D01*
G37*
%TD.AperFunction*%
%TA.AperFunction,Conductor*%
G36*
X111980367Y-81213302D02*
G01*
X112026441Y-81266050D01*
X112045575Y-81307083D01*
X112048417Y-81311264D01*
X112048417Y-81311265D01*
X112179127Y-81503599D01*
X112179130Y-81503603D01*
X112181973Y-81507786D01*
X112348705Y-81684101D01*
X112407743Y-81729239D01*
X112449709Y-81786501D01*
X112454054Y-81857365D01*
X112414537Y-81923847D01*
X112276541Y-82045506D01*
X112276538Y-82045509D01*
X112272744Y-82048854D01*
X112118717Y-82236370D01*
X111996651Y-82446099D01*
X111994837Y-82450825D01*
X111994835Y-82450829D01*
X111948151Y-82572447D01*
X111909688Y-82672647D01*
X111860064Y-82910184D01*
X111859835Y-82915233D01*
X111859834Y-82915239D01*
X111855622Y-83008000D01*
X111849056Y-83152599D01*
X111849637Y-83157619D01*
X111849637Y-83157623D01*
X111856338Y-83215537D01*
X111876947Y-83393656D01*
X111878326Y-83398530D01*
X111878327Y-83398534D01*
X111914666Y-83526953D01*
X111943020Y-83627153D01*
X111945154Y-83631728D01*
X111945156Y-83631735D01*
X112023514Y-83799774D01*
X112045575Y-83847083D01*
X112048417Y-83851264D01*
X112048417Y-83851265D01*
X112179127Y-84043599D01*
X112179130Y-84043603D01*
X112181973Y-84047786D01*
X112348705Y-84224101D01*
X112407743Y-84269239D01*
X112449709Y-84326501D01*
X112454054Y-84397365D01*
X112414537Y-84463847D01*
X112276541Y-84585506D01*
X112276538Y-84585509D01*
X112272744Y-84588854D01*
X112118717Y-84776370D01*
X111996651Y-84986099D01*
X111909688Y-85212647D01*
X111860064Y-85450184D01*
X111849056Y-85692599D01*
X111876947Y-85933656D01*
X111878326Y-85938530D01*
X111878327Y-85938534D01*
X111941642Y-86162284D01*
X111943020Y-86167153D01*
X111945154Y-86171728D01*
X111945156Y-86171735D01*
X112039466Y-86373982D01*
X112045575Y-86387083D01*
X112048417Y-86391264D01*
X112048417Y-86391265D01*
X112179127Y-86583599D01*
X112179130Y-86583603D01*
X112181973Y-86587786D01*
X112348705Y-86764101D01*
X112407743Y-86809239D01*
X112449709Y-86866501D01*
X112454054Y-86937365D01*
X112414537Y-87003847D01*
X112276541Y-87125506D01*
X112276538Y-87125509D01*
X112272744Y-87128854D01*
X112118717Y-87316370D01*
X111996651Y-87526099D01*
X111994837Y-87530825D01*
X111994835Y-87530829D01*
X111912123Y-87746304D01*
X111909688Y-87752647D01*
X111860064Y-87990184D01*
X111859835Y-87995233D01*
X111859834Y-87995239D01*
X111858423Y-88026319D01*
X111849056Y-88232599D01*
X111876947Y-88473656D01*
X111878326Y-88478530D01*
X111878327Y-88478534D01*
X111897254Y-88545421D01*
X111943020Y-88707153D01*
X111945154Y-88711728D01*
X111945156Y-88711735D01*
X112043438Y-88922501D01*
X112045575Y-88927083D01*
X112048417Y-88931264D01*
X112048417Y-88931265D01*
X112179127Y-89123599D01*
X112179130Y-89123603D01*
X112181973Y-89127786D01*
X112348705Y-89304101D01*
X112352731Y-89307179D01*
X112352732Y-89307180D01*
X112537462Y-89448417D01*
X112537466Y-89448420D01*
X112541482Y-89451490D01*
X112755344Y-89566162D01*
X112984788Y-89645166D01*
X112997625Y-89647383D01*
X113061345Y-89678684D01*
X113098029Y-89739469D01*
X113102180Y-89771544D01*
X113102180Y-91018450D01*
X113082178Y-91086571D01*
X113028522Y-91133064D01*
X112958248Y-91143168D01*
X112936512Y-91138043D01*
X112798790Y-91092362D01*
X112785414Y-91089495D01*
X112691062Y-91079828D01*
X112684645Y-91079500D01*
X112459615Y-91079500D01*
X112444376Y-91083975D01*
X112443171Y-91085365D01*
X112441500Y-91093048D01*
X112441500Y-92228000D01*
X112421498Y-92296121D01*
X112367842Y-92342614D01*
X112315500Y-92354000D01*
X110997616Y-92354000D01*
X110982377Y-92358475D01*
X110981172Y-92359865D01*
X110979501Y-92367548D01*
X110979501Y-92409595D01*
X110979838Y-92416114D01*
X110989757Y-92511706D01*
X110992649Y-92525100D01*
X111044088Y-92679284D01*
X111053363Y-92699083D01*
X111050468Y-92700439D01*
X111065532Y-92755100D01*
X111044398Y-92822878D01*
X110989975Y-92868470D01*
X110939550Y-92879000D01*
X106916267Y-92879000D01*
X106905084Y-92878473D01*
X106897591Y-92876798D01*
X106889665Y-92877047D01*
X106889664Y-92877047D01*
X106829514Y-92878938D01*
X106825555Y-92879000D01*
X106797644Y-92879000D01*
X106793710Y-92879497D01*
X106793709Y-92879497D01*
X106793644Y-92879505D01*
X106781807Y-92880438D01*
X106749549Y-92881452D01*
X106745530Y-92881578D01*
X106737611Y-92881827D01*
X106718157Y-92887479D01*
X106698800Y-92891487D01*
X106686570Y-92893032D01*
X106686569Y-92893032D01*
X106678703Y-92894026D01*
X106671332Y-92896945D01*
X106671330Y-92896945D01*
X106637588Y-92910304D01*
X106626358Y-92914149D01*
X106591517Y-92924271D01*
X106591516Y-92924271D01*
X106583907Y-92926482D01*
X106577088Y-92930515D01*
X106577083Y-92930517D01*
X106566472Y-92936793D01*
X106548724Y-92945488D01*
X106529883Y-92952948D01*
X106523467Y-92957610D01*
X106523466Y-92957610D01*
X106494113Y-92978936D01*
X106484193Y-92985452D01*
X106452965Y-93003920D01*
X106452962Y-93003922D01*
X106446138Y-93007958D01*
X106431817Y-93022279D01*
X106416784Y-93035119D01*
X106400393Y-93047028D01*
X106387601Y-93062491D01*
X106372202Y-93081105D01*
X106364212Y-93089884D01*
X105007747Y-94446348D01*
X104999461Y-94453888D01*
X104992982Y-94458000D01*
X104987557Y-94463777D01*
X104946357Y-94507651D01*
X104943602Y-94510493D01*
X104923865Y-94530230D01*
X104921385Y-94533427D01*
X104913682Y-94542447D01*
X104883414Y-94574679D01*
X104879595Y-94581625D01*
X104879593Y-94581628D01*
X104873652Y-94592434D01*
X104862801Y-94608953D01*
X104850386Y-94624959D01*
X104847241Y-94632228D01*
X104847238Y-94632232D01*
X104832826Y-94665537D01*
X104827609Y-94676187D01*
X104806305Y-94714940D01*
X104804334Y-94722615D01*
X104804334Y-94722616D01*
X104801267Y-94734562D01*
X104794863Y-94753266D01*
X104786819Y-94771855D01*
X104785579Y-94779680D01*
X104785577Y-94779689D01*
X104783948Y-94789974D01*
X104753535Y-94854127D01*
X104693267Y-94891653D01*
X104622277Y-94890638D01*
X104563106Y-94851405D01*
X104534539Y-94786409D01*
X104533500Y-94770262D01*
X104533500Y-93914594D01*
X104553502Y-93846473D01*
X104570405Y-93825499D01*
X105992253Y-92403652D01*
X106000539Y-92396112D01*
X106007018Y-92392000D01*
X106053644Y-92342348D01*
X106056398Y-92339507D01*
X106076135Y-92319770D01*
X106078615Y-92316573D01*
X106086320Y-92307551D01*
X106090565Y-92303031D01*
X106116586Y-92275321D01*
X106120405Y-92268375D01*
X106120407Y-92268372D01*
X106126348Y-92257566D01*
X106137199Y-92241047D01*
X106137559Y-92240583D01*
X106149614Y-92225041D01*
X106152759Y-92217772D01*
X106152762Y-92217768D01*
X106167174Y-92184463D01*
X106172391Y-92173813D01*
X106193695Y-92135060D01*
X106198733Y-92115437D01*
X106205137Y-92096734D01*
X106210033Y-92085420D01*
X106210033Y-92085419D01*
X106213181Y-92078145D01*
X106214420Y-92070322D01*
X106214423Y-92070312D01*
X106220099Y-92034476D01*
X106222505Y-92022856D01*
X106231528Y-91987711D01*
X106231528Y-91987710D01*
X106233500Y-91980030D01*
X106233500Y-91959776D01*
X106235051Y-91940065D01*
X106236980Y-91927886D01*
X106238220Y-91920057D01*
X106234059Y-91876038D01*
X106233500Y-91864181D01*
X106233500Y-91827885D01*
X110979500Y-91827885D01*
X110983975Y-91843124D01*
X110985365Y-91844329D01*
X110993048Y-91846000D01*
X111915385Y-91846000D01*
X111930624Y-91841525D01*
X111931829Y-91840135D01*
X111933500Y-91832452D01*
X111933500Y-91097616D01*
X111929025Y-91082377D01*
X111927635Y-91081172D01*
X111919952Y-91079501D01*
X111690405Y-91079501D01*
X111683886Y-91079838D01*
X111588294Y-91089757D01*
X111574900Y-91092649D01*
X111420716Y-91144088D01*
X111407538Y-91150261D01*
X111269693Y-91235563D01*
X111258292Y-91244599D01*
X111143761Y-91359329D01*
X111134749Y-91370740D01*
X111049684Y-91508743D01*
X111043537Y-91521924D01*
X110992362Y-91676210D01*
X110989495Y-91689586D01*
X110979828Y-91783938D01*
X110979500Y-91790355D01*
X110979500Y-91827885D01*
X106233500Y-91827885D01*
X106233500Y-90724087D01*
X106253502Y-90655966D01*
X106307158Y-90609473D01*
X106377432Y-90599369D01*
X106419429Y-90613251D01*
X106586961Y-90703835D01*
X106598266Y-90708587D01*
X106716692Y-90745246D01*
X106730795Y-90745452D01*
X106734000Y-90738697D01*
X106734000Y-90731885D01*
X107242000Y-90731885D01*
X107245973Y-90745416D01*
X107253768Y-90746536D01*
X107364523Y-90713939D01*
X107375907Y-90709340D01*
X107541556Y-90622741D01*
X107551817Y-90616026D01*
X107697497Y-90498896D01*
X107706257Y-90490318D01*
X107826414Y-90347121D01*
X107833338Y-90337010D01*
X107923394Y-90173197D01*
X107928222Y-90161933D01*
X107984743Y-89983758D01*
X107987294Y-89971752D01*
X108003607Y-89826313D01*
X108004000Y-89819286D01*
X108004000Y-89529735D01*
X107999525Y-89514496D01*
X107998135Y-89513291D01*
X107990452Y-89511620D01*
X107260115Y-89511620D01*
X107244876Y-89516095D01*
X107243671Y-89517485D01*
X107242000Y-89525168D01*
X107242000Y-90731885D01*
X106734000Y-90731885D01*
X106734000Y-88985505D01*
X107242000Y-88985505D01*
X107246475Y-89000744D01*
X107247865Y-89001949D01*
X107255548Y-89003620D01*
X107985885Y-89003620D01*
X108001124Y-88999145D01*
X108002329Y-88997755D01*
X108004000Y-88990072D01*
X108004000Y-88702565D01*
X108003699Y-88696417D01*
X107990074Y-88557456D01*
X107987691Y-88545421D01*
X107933665Y-88366478D01*
X107928990Y-88355137D01*
X107841237Y-88190096D01*
X107834450Y-88179880D01*
X107716307Y-88035023D01*
X107707663Y-88026319D01*
X107563638Y-87907171D01*
X107553470Y-87900312D01*
X107389039Y-87811405D01*
X107377734Y-87806653D01*
X107259308Y-87769994D01*
X107245205Y-87769788D01*
X107242000Y-87776543D01*
X107242000Y-88985505D01*
X106734000Y-88985505D01*
X106734000Y-87783355D01*
X106730027Y-87769824D01*
X106722232Y-87768704D01*
X106611477Y-87801301D01*
X106600093Y-87805900D01*
X106434443Y-87892500D01*
X106428489Y-87896396D01*
X106360535Y-87916957D01*
X106292253Y-87897515D01*
X106245320Y-87844243D01*
X106233500Y-87790961D01*
X106233500Y-83814594D01*
X106253502Y-83746473D01*
X106270405Y-83725499D01*
X108765699Y-81230205D01*
X108828011Y-81196179D01*
X108854794Y-81193300D01*
X111912246Y-81193300D01*
X111980367Y-81213302D01*
G37*
%TD.AperFunction*%
%TA.AperFunction,Conductor*%
G36*
X114462915Y-70317107D02*
G01*
X114477748Y-70319417D01*
X114477752Y-70319417D01*
X114486621Y-70320798D01*
X114495646Y-70319618D01*
X114526081Y-70319346D01*
X114588158Y-70326340D01*
X114615664Y-70332618D01*
X114692752Y-70359592D01*
X114718168Y-70371831D01*
X114787325Y-70415286D01*
X114809380Y-70432875D01*
X114867125Y-70490620D01*
X114884714Y-70512675D01*
X114928169Y-70581832D01*
X114940408Y-70607248D01*
X114967382Y-70684336D01*
X114973661Y-70711844D01*
X114979912Y-70767325D01*
X114979245Y-70782964D01*
X114980694Y-70782982D01*
X114980584Y-70791953D01*
X114979202Y-70800827D01*
X114980366Y-70809730D01*
X114980366Y-70809737D01*
X114983329Y-70832397D01*
X114984393Y-70848733D01*
X114984393Y-71486810D01*
X114964391Y-71554931D01*
X114910735Y-71601424D01*
X114840461Y-71611528D01*
X114798852Y-71597854D01*
X114720477Y-71555830D01*
X114716016Y-71553438D01*
X114486572Y-71474434D01*
X114247448Y-71433130D01*
X114243489Y-71432950D01*
X114243487Y-71432950D01*
X114219797Y-71431874D01*
X114219776Y-71431874D01*
X114218377Y-71431810D01*
X113300053Y-71431810D01*
X113297545Y-71432012D01*
X113297540Y-71432012D01*
X113124187Y-71445959D01*
X113124182Y-71445960D01*
X113119146Y-71446365D01*
X113114238Y-71447570D01*
X113114235Y-71447571D01*
X112954484Y-71486810D01*
X112883486Y-71504249D01*
X112878834Y-71506224D01*
X112878830Y-71506225D01*
X112761969Y-71555830D01*
X112660111Y-71599066D01*
X112583807Y-71647117D01*
X112459049Y-71725682D01*
X112459046Y-71725684D01*
X112454770Y-71728377D01*
X112450976Y-71731722D01*
X112276541Y-71885506D01*
X112276538Y-71885509D01*
X112272744Y-71888854D01*
X112118717Y-72076370D01*
X111996651Y-72286099D01*
X111994837Y-72290825D01*
X111994835Y-72290829D01*
X111911996Y-72506634D01*
X111909688Y-72512647D01*
X111860064Y-72750184D01*
X111849056Y-72992599D01*
X111876947Y-73233656D01*
X111878326Y-73238530D01*
X111878327Y-73238534D01*
X111914666Y-73366953D01*
X111943020Y-73467153D01*
X111945154Y-73471728D01*
X111945156Y-73471735D01*
X112043438Y-73682501D01*
X112045575Y-73687083D01*
X112048417Y-73691264D01*
X112048417Y-73691265D01*
X112179127Y-73883599D01*
X112179130Y-73883603D01*
X112181973Y-73887786D01*
X112348705Y-74064101D01*
X112352731Y-74067179D01*
X112352732Y-74067180D01*
X112408146Y-74109547D01*
X112450114Y-74166811D01*
X112454459Y-74237675D01*
X112414942Y-74304157D01*
X112276898Y-74425859D01*
X112269895Y-74433111D01*
X112122341Y-74612746D01*
X112116587Y-74621024D01*
X111999648Y-74821945D01*
X111995291Y-74831040D01*
X111911981Y-75048068D01*
X111909134Y-75057740D01*
X111877730Y-75208064D01*
X111878853Y-75222125D01*
X111888961Y-75225800D01*
X113863680Y-75225800D01*
X113931801Y-75245802D01*
X113978294Y-75299458D01*
X113989680Y-75351800D01*
X113989680Y-75607800D01*
X113969678Y-75675921D01*
X113916022Y-75722414D01*
X113863680Y-75733800D01*
X111890954Y-75733800D01*
X111876868Y-75737936D01*
X111874819Y-75750914D01*
X111876857Y-75768527D01*
X111878819Y-75778435D01*
X111942112Y-76002109D01*
X111945626Y-76011560D01*
X112043874Y-76222253D01*
X112048853Y-76231017D01*
X112179516Y-76423281D01*
X112185848Y-76431156D01*
X112345559Y-76600046D01*
X112353062Y-76606802D01*
X112408124Y-76648900D01*
X112450091Y-76706165D01*
X112454436Y-76777029D01*
X112414919Y-76843510D01*
X112276541Y-76965506D01*
X112276538Y-76965509D01*
X112272744Y-76968854D01*
X112118717Y-77156370D01*
X112051117Y-77272517D01*
X112021339Y-77323681D01*
X111969786Y-77372494D01*
X111912441Y-77386300D01*
X111658967Y-77386300D01*
X111647784Y-77385773D01*
X111640291Y-77384098D01*
X111632365Y-77384347D01*
X111632364Y-77384347D01*
X111572201Y-77386238D01*
X111568243Y-77386300D01*
X111540344Y-77386300D01*
X111536354Y-77386804D01*
X111524520Y-77387736D01*
X111480311Y-77389126D01*
X111472697Y-77391338D01*
X111472692Y-77391339D01*
X111460859Y-77394777D01*
X111441496Y-77398788D01*
X111421403Y-77401326D01*
X111414036Y-77404243D01*
X111414031Y-77404244D01*
X111380292Y-77417602D01*
X111369065Y-77421446D01*
X111326607Y-77433782D01*
X111319781Y-77437819D01*
X111309172Y-77444093D01*
X111291424Y-77452788D01*
X111272583Y-77460248D01*
X111266167Y-77464910D01*
X111266166Y-77464910D01*
X111236813Y-77486236D01*
X111226893Y-77492752D01*
X111195665Y-77511220D01*
X111195662Y-77511222D01*
X111188838Y-77515258D01*
X111174517Y-77529579D01*
X111159484Y-77542419D01*
X111143093Y-77554328D01*
X111138042Y-77560434D01*
X111114902Y-77588405D01*
X111106912Y-77597184D01*
X110007747Y-78696348D01*
X109999461Y-78703888D01*
X109992982Y-78708000D01*
X109987557Y-78713777D01*
X109946357Y-78757651D01*
X109943602Y-78760493D01*
X109923865Y-78780230D01*
X109921385Y-78783427D01*
X109913682Y-78792447D01*
X109883414Y-78824679D01*
X109879595Y-78831625D01*
X109879593Y-78831628D01*
X109873652Y-78842434D01*
X109862805Y-78858947D01*
X109858905Y-78863976D01*
X109833405Y-78888688D01*
X109794092Y-78917250D01*
X109794088Y-78917253D01*
X109788747Y-78921134D01*
X109784326Y-78926044D01*
X109784325Y-78926045D01*
X109743431Y-78971463D01*
X109660960Y-79063056D01*
X109565473Y-79228444D01*
X109506458Y-79410072D01*
X109505768Y-79416633D01*
X109505768Y-79416635D01*
X109496076Y-79508854D01*
X109486496Y-79600000D01*
X109487186Y-79606565D01*
X109506164Y-79787130D01*
X109493392Y-79856968D01*
X109444890Y-79908815D01*
X109380854Y-79926300D01*
X108618968Y-79926300D01*
X108607785Y-79925773D01*
X108600292Y-79924098D01*
X108592366Y-79924347D01*
X108592365Y-79924347D01*
X108532202Y-79926238D01*
X108528244Y-79926300D01*
X108500344Y-79926300D01*
X108496354Y-79926804D01*
X108484520Y-79927736D01*
X108440311Y-79929126D01*
X108432697Y-79931338D01*
X108432692Y-79931339D01*
X108420859Y-79934777D01*
X108401496Y-79938788D01*
X108381403Y-79941326D01*
X108374036Y-79944243D01*
X108374031Y-79944244D01*
X108340292Y-79957602D01*
X108329065Y-79961446D01*
X108286607Y-79973782D01*
X108279781Y-79977819D01*
X108269172Y-79984093D01*
X108251424Y-79992788D01*
X108232583Y-80000248D01*
X108226167Y-80004910D01*
X108226166Y-80004910D01*
X108196813Y-80026236D01*
X108186893Y-80032752D01*
X108155665Y-80051220D01*
X108155662Y-80051222D01*
X108148838Y-80055258D01*
X108134517Y-80069579D01*
X108119484Y-80082419D01*
X108103093Y-80094328D01*
X108098042Y-80100434D01*
X108074902Y-80128405D01*
X108066912Y-80137184D01*
X105207747Y-82996348D01*
X105199461Y-83003888D01*
X105192982Y-83008000D01*
X105187557Y-83013777D01*
X105146357Y-83057651D01*
X105143602Y-83060493D01*
X105123865Y-83080230D01*
X105121385Y-83083427D01*
X105113682Y-83092447D01*
X105083414Y-83124679D01*
X105079595Y-83131625D01*
X105079593Y-83131628D01*
X105073652Y-83142434D01*
X105062801Y-83158953D01*
X105050386Y-83174959D01*
X105047241Y-83182228D01*
X105047238Y-83182232D01*
X105032826Y-83215537D01*
X105027609Y-83226187D01*
X105006305Y-83264940D01*
X105004334Y-83272615D01*
X105004334Y-83272616D01*
X105001267Y-83284562D01*
X104994863Y-83303266D01*
X104986819Y-83321855D01*
X104985580Y-83329678D01*
X104985577Y-83329688D01*
X104979901Y-83365524D01*
X104977495Y-83377144D01*
X104968472Y-83412289D01*
X104966500Y-83419970D01*
X104966500Y-83440224D01*
X104964949Y-83459934D01*
X104961780Y-83479943D01*
X104962526Y-83487835D01*
X104965941Y-83523961D01*
X104966500Y-83535819D01*
X104966500Y-87678183D01*
X104946498Y-87746304D01*
X104892842Y-87792797D01*
X104822568Y-87802901D01*
X104803244Y-87798549D01*
X104643385Y-87749064D01*
X104637260Y-87748420D01*
X104637259Y-87748420D01*
X104451260Y-87728871D01*
X104451258Y-87728871D01*
X104445131Y-87728227D01*
X104322252Y-87739410D01*
X104252746Y-87745735D01*
X104252745Y-87745735D01*
X104246605Y-87746294D01*
X104240691Y-87748035D01*
X104240689Y-87748035D01*
X104120684Y-87783355D01*
X104055370Y-87802578D01*
X103878709Y-87894934D01*
X103723351Y-88019845D01*
X103595214Y-88172553D01*
X103499179Y-88347241D01*
X103497318Y-88353108D01*
X103497317Y-88353110D01*
X103457530Y-88478534D01*
X103438902Y-88537255D01*
X103421500Y-88692404D01*
X103421500Y-89815777D01*
X103436035Y-89964014D01*
X103437816Y-89969913D01*
X103437817Y-89969918D01*
X103467909Y-90069588D01*
X103493652Y-90154852D01*
X103534260Y-90231225D01*
X103583438Y-90323715D01*
X103587239Y-90330864D01*
X103591129Y-90335634D01*
X103591132Y-90335638D01*
X103709337Y-90480571D01*
X103709340Y-90480574D01*
X103713232Y-90485346D01*
X103866830Y-90612414D01*
X104042185Y-90707228D01*
X104232615Y-90766176D01*
X104238740Y-90766820D01*
X104238741Y-90766820D01*
X104424740Y-90786369D01*
X104424742Y-90786369D01*
X104430869Y-90787013D01*
X104553748Y-90775830D01*
X104623254Y-90769505D01*
X104623255Y-90769505D01*
X104629395Y-90768946D01*
X104635309Y-90767205D01*
X104635311Y-90767205D01*
X104755316Y-90731885D01*
X104804926Y-90717284D01*
X104875921Y-90717238D01*
X104935672Y-90755584D01*
X104965206Y-90820146D01*
X104966500Y-90838157D01*
X104966500Y-91585406D01*
X104946498Y-91653527D01*
X104929595Y-91674501D01*
X103507747Y-93096348D01*
X103499461Y-93103888D01*
X103492982Y-93108000D01*
X103487557Y-93113777D01*
X103446357Y-93157651D01*
X103443602Y-93160493D01*
X103423865Y-93180230D01*
X103421385Y-93183427D01*
X103413682Y-93192447D01*
X103383414Y-93224679D01*
X103379595Y-93231625D01*
X103379593Y-93231628D01*
X103373652Y-93242434D01*
X103362801Y-93258953D01*
X103350386Y-93274959D01*
X103347241Y-93282228D01*
X103347238Y-93282232D01*
X103332826Y-93315537D01*
X103327609Y-93326187D01*
X103306305Y-93364940D01*
X103304334Y-93372615D01*
X103304334Y-93372616D01*
X103301267Y-93384562D01*
X103294863Y-93403266D01*
X103286819Y-93421855D01*
X103285580Y-93429678D01*
X103285577Y-93429688D01*
X103279901Y-93465524D01*
X103277495Y-93477144D01*
X103266500Y-93519970D01*
X103266500Y-93540224D01*
X103264949Y-93559934D01*
X103261780Y-93579943D01*
X103262526Y-93587835D01*
X103265941Y-93623961D01*
X103266500Y-93635819D01*
X103266500Y-93919199D01*
X103246498Y-93987320D01*
X103192842Y-94033813D01*
X103122568Y-94043917D01*
X103094625Y-94035856D01*
X103094600Y-94035932D01*
X103092335Y-94035196D01*
X103089253Y-94034307D01*
X103088319Y-94033891D01*
X103088318Y-94033891D01*
X103082288Y-94031206D01*
X102988887Y-94011353D01*
X102901944Y-93992872D01*
X102901939Y-93992872D01*
X102895487Y-93991500D01*
X102704513Y-93991500D01*
X102698061Y-93992872D01*
X102698056Y-93992872D01*
X102611500Y-94011271D01*
X102545150Y-94025374D01*
X102474360Y-94019972D01*
X102417728Y-93977155D01*
X102393234Y-93910518D01*
X102393644Y-93888957D01*
X102412814Y-93706565D01*
X102413504Y-93700000D01*
X102398783Y-93559935D01*
X102394232Y-93516635D01*
X102394232Y-93516633D01*
X102393542Y-93510072D01*
X102334527Y-93328444D01*
X102239040Y-93163056D01*
X102165863Y-93081785D01*
X102135147Y-93017779D01*
X102133500Y-92997476D01*
X102133500Y-92778763D01*
X102134027Y-92767579D01*
X102135701Y-92760091D01*
X102133562Y-92692032D01*
X102133500Y-92688075D01*
X102133500Y-92660144D01*
X102132994Y-92656138D01*
X102132061Y-92644292D01*
X102130922Y-92608037D01*
X102130673Y-92600110D01*
X102125022Y-92580658D01*
X102121014Y-92561306D01*
X102119468Y-92549068D01*
X102119467Y-92549066D01*
X102118474Y-92541203D01*
X102102194Y-92500086D01*
X102098359Y-92488885D01*
X102086018Y-92446406D01*
X102081985Y-92439587D01*
X102081983Y-92439582D01*
X102075707Y-92428971D01*
X102067010Y-92411221D01*
X102059552Y-92392383D01*
X102033571Y-92356623D01*
X102027053Y-92346701D01*
X102008578Y-92315460D01*
X102008574Y-92315455D01*
X102004542Y-92308637D01*
X101990218Y-92294313D01*
X101977376Y-92279278D01*
X101974501Y-92275321D01*
X101965472Y-92262893D01*
X101931406Y-92234711D01*
X101922627Y-92226722D01*
X101453652Y-91757747D01*
X101446112Y-91749461D01*
X101442000Y-91742982D01*
X101392348Y-91696356D01*
X101389507Y-91693602D01*
X101369770Y-91673865D01*
X101366573Y-91671385D01*
X101357551Y-91663680D01*
X101331100Y-91638841D01*
X101325321Y-91633414D01*
X101318375Y-91629595D01*
X101318372Y-91629593D01*
X101307566Y-91623652D01*
X101291047Y-91612801D01*
X101286861Y-91609554D01*
X101275041Y-91600386D01*
X101267772Y-91597241D01*
X101267768Y-91597238D01*
X101234463Y-91582826D01*
X101223813Y-91577609D01*
X101185060Y-91556305D01*
X101165437Y-91551267D01*
X101146734Y-91544863D01*
X101135420Y-91539967D01*
X101135419Y-91539967D01*
X101128145Y-91536819D01*
X101120322Y-91535580D01*
X101120312Y-91535577D01*
X101084476Y-91529901D01*
X101072856Y-91527495D01*
X101037711Y-91518472D01*
X101037710Y-91518472D01*
X101030030Y-91516500D01*
X101009776Y-91516500D01*
X100990065Y-91514949D01*
X100977887Y-91513020D01*
X100977886Y-91513020D01*
X100970057Y-91511780D01*
X100970197Y-91510897D01*
X100909082Y-91490850D01*
X100873349Y-91453343D01*
X100852332Y-91419380D01*
X100848478Y-91413152D01*
X100743083Y-91307941D01*
X100709005Y-91245660D01*
X100714008Y-91174840D01*
X100743007Y-91129674D01*
X101388911Y-90483770D01*
X101403323Y-90471384D01*
X101414918Y-90462851D01*
X101414923Y-90462846D01*
X101420818Y-90458508D01*
X101425557Y-90452930D01*
X101425560Y-90452927D01*
X101455035Y-90418232D01*
X101461965Y-90410716D01*
X101467660Y-90405021D01*
X101485281Y-90382749D01*
X101488072Y-90379345D01*
X101530591Y-90329297D01*
X101530592Y-90329295D01*
X101535333Y-90323715D01*
X101538661Y-90317199D01*
X101542028Y-90312150D01*
X101545195Y-90307021D01*
X101549734Y-90301284D01*
X101580655Y-90235125D01*
X101582561Y-90231225D01*
X101615769Y-90166192D01*
X101617508Y-90159084D01*
X101619607Y-90153441D01*
X101621524Y-90147678D01*
X101624622Y-90141050D01*
X101639487Y-90069583D01*
X101640457Y-90065299D01*
X101656473Y-89999845D01*
X101657808Y-89994390D01*
X101658500Y-89983236D01*
X101658536Y-89983238D01*
X101658775Y-89979245D01*
X101659149Y-89975053D01*
X101660640Y-89967885D01*
X101658546Y-89890479D01*
X101658500Y-89887072D01*
X101658500Y-86467070D01*
X101659933Y-86448120D01*
X101662099Y-86433885D01*
X101662099Y-86433881D01*
X101663199Y-86426651D01*
X101658915Y-86373982D01*
X101658500Y-86363767D01*
X101658500Y-86355707D01*
X101655209Y-86327480D01*
X101654778Y-86323121D01*
X101649454Y-86257662D01*
X101649453Y-86257659D01*
X101648860Y-86250364D01*
X101646604Y-86243400D01*
X101645417Y-86237461D01*
X101644030Y-86231590D01*
X101643182Y-86224319D01*
X101640686Y-86217443D01*
X101640684Y-86217434D01*
X101618275Y-86155702D01*
X101616865Y-86151598D01*
X101594352Y-86082101D01*
X101590556Y-86075846D01*
X101588057Y-86070387D01*
X101585329Y-86064939D01*
X101582833Y-86058063D01*
X101542805Y-85997010D01*
X101540481Y-85993327D01*
X101505500Y-85935680D01*
X101505499Y-85935679D01*
X101502595Y-85930893D01*
X101495198Y-85922517D01*
X101495225Y-85922493D01*
X101492570Y-85919499D01*
X101489868Y-85916268D01*
X101485856Y-85910148D01*
X101429617Y-85856872D01*
X101427175Y-85854494D01*
X99372455Y-83799774D01*
X99338429Y-83737462D01*
X99343919Y-83665526D01*
X99397112Y-83526953D01*
X99446736Y-83289416D01*
X99447848Y-83264940D01*
X99453901Y-83131628D01*
X99457744Y-83047001D01*
X99453232Y-83008000D01*
X99430435Y-82810977D01*
X99429853Y-82805944D01*
X99393538Y-82677607D01*
X99365158Y-82577316D01*
X99365157Y-82577314D01*
X99363780Y-82572447D01*
X99361646Y-82567872D01*
X99361644Y-82567865D01*
X99263362Y-82357099D01*
X99263360Y-82357095D01*
X99261225Y-82352517D01*
X99258383Y-82348335D01*
X99127673Y-82156001D01*
X99127670Y-82155997D01*
X99124827Y-82151814D01*
X98958095Y-81975499D01*
X98899057Y-81930361D01*
X98857091Y-81873099D01*
X98852746Y-81802235D01*
X98892263Y-81735753D01*
X99030259Y-81614094D01*
X99030262Y-81614091D01*
X99034056Y-81610746D01*
X99188083Y-81423230D01*
X99310149Y-81213501D01*
X99316799Y-81196179D01*
X99395297Y-80991682D01*
X99395298Y-80991679D01*
X99397112Y-80986953D01*
X99446736Y-80749416D01*
X99457744Y-80507001D01*
X99429853Y-80265944D01*
X99390934Y-80128405D01*
X99365158Y-80037316D01*
X99365157Y-80037314D01*
X99363780Y-80032447D01*
X99361646Y-80027872D01*
X99361644Y-80027865D01*
X99263362Y-79817099D01*
X99263360Y-79817095D01*
X99261225Y-79812517D01*
X99258383Y-79808335D01*
X99127673Y-79616001D01*
X99127670Y-79615997D01*
X99124827Y-79611814D01*
X98958095Y-79435499D01*
X98899057Y-79390361D01*
X98857091Y-79333099D01*
X98852746Y-79262235D01*
X98892263Y-79195753D01*
X99030259Y-79074094D01*
X99030262Y-79074091D01*
X99034056Y-79070746D01*
X99188083Y-78883230D01*
X99310149Y-78673501D01*
X99316799Y-78656179D01*
X99395297Y-78451682D01*
X99395298Y-78451679D01*
X99397112Y-78446953D01*
X99446736Y-78209416D01*
X99457744Y-77967001D01*
X99429853Y-77725944D01*
X99390934Y-77588405D01*
X99365158Y-77497316D01*
X99365157Y-77497314D01*
X99363780Y-77492447D01*
X99361646Y-77487872D01*
X99361644Y-77487865D01*
X99263362Y-77277099D01*
X99263360Y-77277095D01*
X99261225Y-77272517D01*
X99258383Y-77268335D01*
X99127673Y-77076001D01*
X99127670Y-77075997D01*
X99124827Y-77071814D01*
X98958095Y-76895499D01*
X98899057Y-76850361D01*
X98857091Y-76793099D01*
X98852746Y-76722235D01*
X98892263Y-76655753D01*
X99030259Y-76534094D01*
X99030262Y-76534091D01*
X99034056Y-76530746D01*
X99188083Y-76343230D01*
X99310149Y-76133501D01*
X99356958Y-76011560D01*
X99395297Y-75911682D01*
X99395298Y-75911679D01*
X99397112Y-75906953D01*
X99446736Y-75669416D01*
X99457744Y-75427001D01*
X99429853Y-75185944D01*
X99424056Y-75165455D01*
X99365158Y-74957316D01*
X99365157Y-74957314D01*
X99363780Y-74952447D01*
X99361646Y-74947872D01*
X99361644Y-74947865D01*
X99276392Y-74765041D01*
X103352548Y-74765041D01*
X103365530Y-74963106D01*
X103414389Y-75155489D01*
X103497488Y-75335746D01*
X103508356Y-75351124D01*
X103561981Y-75427001D01*
X103612046Y-75497842D01*
X103754225Y-75636346D01*
X103919264Y-75746622D01*
X103924567Y-75748900D01*
X103924570Y-75748902D01*
X103999306Y-75781011D01*
X104101635Y-75824975D01*
X104172708Y-75841057D01*
X104289594Y-75867506D01*
X104289599Y-75867507D01*
X104295231Y-75868781D01*
X104301002Y-75869008D01*
X104301004Y-75869008D01*
X104360065Y-75871328D01*
X104493568Y-75876574D01*
X104591786Y-75862333D01*
X104684290Y-75848921D01*
X104684295Y-75848920D01*
X104690004Y-75848092D01*
X104877961Y-75784289D01*
X105003151Y-75714179D01*
X106420417Y-75714179D01*
X106430297Y-75726666D01*
X106454703Y-75742974D01*
X106464810Y-75748461D01*
X106636487Y-75822219D01*
X106647420Y-75825771D01*
X106829659Y-75867008D01*
X106841069Y-75868510D01*
X107027774Y-75875845D01*
X107039256Y-75875243D01*
X107224166Y-75848434D01*
X107235361Y-75845746D01*
X107412292Y-75785685D01*
X107422789Y-75781011D01*
X107523895Y-75724390D01*
X107533758Y-75714313D01*
X107530803Y-75706643D01*
X106989615Y-75165455D01*
X106975671Y-75157841D01*
X106973838Y-75157972D01*
X106967223Y-75162223D01*
X106426614Y-75702832D01*
X106420417Y-75714179D01*
X105003151Y-75714179D01*
X105051142Y-75687303D01*
X105203750Y-75560380D01*
X105330673Y-75407772D01*
X105427659Y-75234591D01*
X105491462Y-75046634D01*
X105492290Y-75040925D01*
X105492291Y-75040920D01*
X105519411Y-74853871D01*
X105519944Y-74850198D01*
X105521430Y-74793433D01*
X105519352Y-74770820D01*
X105893428Y-74770820D01*
X105905647Y-74957261D01*
X105907447Y-74968627D01*
X105953441Y-75149726D01*
X105957279Y-75160564D01*
X106035506Y-75330253D01*
X106041255Y-75340210D01*
X106043040Y-75342736D01*
X106053629Y-75351124D01*
X106066930Y-75344096D01*
X106604781Y-74806245D01*
X106611159Y-74794565D01*
X107341211Y-74794565D01*
X107341342Y-74796398D01*
X107345593Y-74803013D01*
X107886097Y-75343517D01*
X107898477Y-75350277D01*
X107905057Y-75345351D01*
X107964381Y-75239419D01*
X107969055Y-75228922D01*
X108029116Y-75051991D01*
X108031804Y-75040796D01*
X108058909Y-74853846D01*
X108059539Y-74846464D01*
X108060831Y-74797137D01*
X108060588Y-74789738D01*
X108043303Y-74601624D01*
X108041205Y-74590303D01*
X107990490Y-74410481D01*
X107986365Y-74399734D01*
X107909612Y-74244093D01*
X107900065Y-74233716D01*
X107893632Y-74235814D01*
X107348825Y-74780621D01*
X107341211Y-74794565D01*
X106611159Y-74794565D01*
X106612395Y-74792301D01*
X106612264Y-74790468D01*
X106608013Y-74783853D01*
X106066448Y-74242288D01*
X106054068Y-74235528D01*
X106048102Y-74239994D01*
X105977891Y-74373446D01*
X105973490Y-74384070D01*
X105918082Y-74562514D01*
X105915690Y-74573768D01*
X105893729Y-74759319D01*
X105893428Y-74770820D01*
X105519352Y-74770820D01*
X105503268Y-74595775D01*
X105497062Y-74573768D01*
X105457392Y-74433111D01*
X105449390Y-74404737D01*
X105361600Y-74226717D01*
X105242838Y-74067676D01*
X105234990Y-74060421D01*
X105101323Y-73936861D01*
X105101321Y-73936859D01*
X105097082Y-73932941D01*
X105001925Y-73872901D01*
X106420383Y-73872901D01*
X106423870Y-73881290D01*
X106963991Y-74421411D01*
X106977935Y-74429025D01*
X106979768Y-74428894D01*
X106986383Y-74424643D01*
X107526420Y-73884606D01*
X107533180Y-73872226D01*
X107527150Y-73864171D01*
X107473871Y-73830554D01*
X107463620Y-73825330D01*
X107290080Y-73756095D01*
X107279043Y-73752826D01*
X107095791Y-73716374D01*
X107084346Y-73715171D01*
X106897526Y-73712726D01*
X106886046Y-73713629D01*
X106701908Y-73745270D01*
X106690788Y-73748250D01*
X106515490Y-73812920D01*
X106505116Y-73817868D01*
X106429980Y-73862569D01*
X106420383Y-73872901D01*
X105001925Y-73872901D01*
X104929213Y-73827023D01*
X104923853Y-73824885D01*
X104923850Y-73824883D01*
X104837033Y-73790247D01*
X104744854Y-73753471D01*
X104739197Y-73752346D01*
X104739191Y-73752344D01*
X104555844Y-73715875D01*
X104555842Y-73715875D01*
X104550177Y-73714748D01*
X104544402Y-73714672D01*
X104544398Y-73714672D01*
X104445441Y-73713377D01*
X104351704Y-73712150D01*
X104346007Y-73713129D01*
X104346006Y-73713129D01*
X104161778Y-73744785D01*
X104156081Y-73745764D01*
X103969859Y-73814465D01*
X103799275Y-73915951D01*
X103650042Y-74046825D01*
X103646467Y-74051360D01*
X103646466Y-74051361D01*
X103636423Y-74064101D01*
X103527158Y-74202703D01*
X103524469Y-74207814D01*
X103524467Y-74207817D01*
X103500643Y-74253099D01*
X103434738Y-74378364D01*
X103375878Y-74567926D01*
X103352548Y-74765041D01*
X99276392Y-74765041D01*
X99263362Y-74737099D01*
X99263360Y-74737095D01*
X99261225Y-74732517D01*
X99258383Y-74728335D01*
X99127673Y-74536001D01*
X99127670Y-74535997D01*
X99124827Y-74531814D01*
X98958095Y-74355499D01*
X98899057Y-74310361D01*
X98857091Y-74253099D01*
X98852746Y-74182235D01*
X98892263Y-74115753D01*
X99030259Y-73994094D01*
X99030262Y-73994091D01*
X99034056Y-73990746D01*
X99188083Y-73803230D01*
X99310149Y-73593501D01*
X99356891Y-73471735D01*
X99395297Y-73371682D01*
X99395298Y-73371679D01*
X99397112Y-73366953D01*
X99446736Y-73129416D01*
X99457744Y-72887001D01*
X99429853Y-72645944D01*
X99419651Y-72609889D01*
X99365158Y-72417316D01*
X99365157Y-72417314D01*
X99363780Y-72412447D01*
X99361646Y-72407872D01*
X99361644Y-72407865D01*
X99276392Y-72225041D01*
X103352548Y-72225041D01*
X103365530Y-72423106D01*
X103414389Y-72615489D01*
X103497488Y-72795746D01*
X103500821Y-72800462D01*
X103561981Y-72887001D01*
X103612046Y-72957842D01*
X103616188Y-72961877D01*
X103671688Y-73015942D01*
X103754225Y-73096346D01*
X103919264Y-73206622D01*
X103924567Y-73208900D01*
X103924570Y-73208902D01*
X104000372Y-73241469D01*
X104101635Y-73284975D01*
X104172708Y-73301057D01*
X104289594Y-73327506D01*
X104289599Y-73327507D01*
X104295231Y-73328781D01*
X104301002Y-73329008D01*
X104301004Y-73329008D01*
X104360065Y-73331328D01*
X104493568Y-73336574D01*
X104591786Y-73322333D01*
X104684290Y-73308921D01*
X104684295Y-73308920D01*
X104690004Y-73308092D01*
X104877961Y-73244289D01*
X105051142Y-73147303D01*
X105203750Y-73020380D01*
X105330673Y-72867772D01*
X105427659Y-72694591D01*
X105491462Y-72506634D01*
X105492290Y-72500925D01*
X105492291Y-72500920D01*
X105519411Y-72313871D01*
X105519944Y-72310198D01*
X105521430Y-72253433D01*
X105518821Y-72225041D01*
X105892548Y-72225041D01*
X105905530Y-72423106D01*
X105954389Y-72615489D01*
X106037488Y-72795746D01*
X106040821Y-72800462D01*
X106101981Y-72887001D01*
X106152046Y-72957842D01*
X106156188Y-72961877D01*
X106211688Y-73015942D01*
X106294225Y-73096346D01*
X106459264Y-73206622D01*
X106464567Y-73208900D01*
X106464570Y-73208902D01*
X106540372Y-73241469D01*
X106641635Y-73284975D01*
X106712708Y-73301057D01*
X106829594Y-73327506D01*
X106829599Y-73327507D01*
X106835231Y-73328781D01*
X106841002Y-73329008D01*
X106841004Y-73329008D01*
X106900065Y-73331328D01*
X107033568Y-73336574D01*
X107131786Y-73322333D01*
X107224290Y-73308921D01*
X107224295Y-73308920D01*
X107230004Y-73308092D01*
X107417961Y-73244289D01*
X107591142Y-73147303D01*
X107743750Y-73020380D01*
X107870673Y-72867772D01*
X107967659Y-72694591D01*
X108031462Y-72506634D01*
X108032290Y-72500925D01*
X108032291Y-72500920D01*
X108059411Y-72313871D01*
X108059944Y-72310198D01*
X108061430Y-72253433D01*
X108043268Y-72055775D01*
X107989390Y-71864737D01*
X107901600Y-71686717D01*
X107803190Y-71554931D01*
X107786291Y-71532300D01*
X107786291Y-71532299D01*
X107782838Y-71527676D01*
X107778602Y-71523760D01*
X107641323Y-71396861D01*
X107641321Y-71396859D01*
X107637082Y-71392941D01*
X107469213Y-71287023D01*
X107463853Y-71284885D01*
X107463850Y-71284883D01*
X107377033Y-71250247D01*
X107284854Y-71213471D01*
X107279197Y-71212346D01*
X107279191Y-71212344D01*
X107095844Y-71175875D01*
X107095842Y-71175875D01*
X107090177Y-71174748D01*
X107084402Y-71174672D01*
X107084398Y-71174672D01*
X106985441Y-71173377D01*
X106891704Y-71172150D01*
X106886007Y-71173129D01*
X106886006Y-71173129D01*
X106701778Y-71204785D01*
X106696081Y-71205764D01*
X106509859Y-71274465D01*
X106339275Y-71375951D01*
X106190042Y-71506825D01*
X106186467Y-71511360D01*
X106186466Y-71511361D01*
X106173604Y-71527676D01*
X106067158Y-71662703D01*
X106064469Y-71667814D01*
X106064467Y-71667817D01*
X106042384Y-71709790D01*
X105974738Y-71838364D01*
X105915878Y-72027926D01*
X105892548Y-72225041D01*
X105518821Y-72225041D01*
X105503268Y-72055775D01*
X105449390Y-71864737D01*
X105361600Y-71686717D01*
X105263190Y-71554931D01*
X105246291Y-71532300D01*
X105246291Y-71532299D01*
X105242838Y-71527676D01*
X105238602Y-71523760D01*
X105101323Y-71396861D01*
X105101321Y-71396859D01*
X105097082Y-71392941D01*
X104929213Y-71287023D01*
X104923853Y-71284885D01*
X104923850Y-71284883D01*
X104837033Y-71250247D01*
X104744854Y-71213471D01*
X104739197Y-71212346D01*
X104739191Y-71212344D01*
X104555844Y-71175875D01*
X104555842Y-71175875D01*
X104550177Y-71174748D01*
X104544402Y-71174672D01*
X104544398Y-71174672D01*
X104445441Y-71173377D01*
X104351704Y-71172150D01*
X104346007Y-71173129D01*
X104346006Y-71173129D01*
X104161778Y-71204785D01*
X104156081Y-71205764D01*
X103969859Y-71274465D01*
X103799275Y-71375951D01*
X103650042Y-71506825D01*
X103646467Y-71511360D01*
X103646466Y-71511361D01*
X103633604Y-71527676D01*
X103527158Y-71662703D01*
X103524469Y-71667814D01*
X103524467Y-71667817D01*
X103502384Y-71709790D01*
X103434738Y-71838364D01*
X103375878Y-72027926D01*
X103352548Y-72225041D01*
X99276392Y-72225041D01*
X99263362Y-72197099D01*
X99263360Y-72197095D01*
X99261225Y-72192517D01*
X99258383Y-72188335D01*
X99127673Y-71996001D01*
X99127670Y-71995997D01*
X99124827Y-71991814D01*
X98958095Y-71815499D01*
X98954068Y-71812420D01*
X98769338Y-71671183D01*
X98769334Y-71671180D01*
X98765318Y-71668110D01*
X98551456Y-71553438D01*
X98322012Y-71474434D01*
X98082888Y-71433130D01*
X98078929Y-71432950D01*
X98078927Y-71432950D01*
X98055237Y-71431874D01*
X98055216Y-71431874D01*
X98053817Y-71431810D01*
X97135493Y-71431810D01*
X97132985Y-71432012D01*
X97132980Y-71432012D01*
X96959627Y-71445959D01*
X96959622Y-71445960D01*
X96954586Y-71446365D01*
X96949678Y-71447570D01*
X96949675Y-71447571D01*
X96789924Y-71486810D01*
X96718926Y-71504249D01*
X96714274Y-71506224D01*
X96714270Y-71506225D01*
X96597409Y-71555830D01*
X96495551Y-71599066D01*
X96492478Y-71601001D01*
X96423241Y-71614757D01*
X96357180Y-71588748D01*
X96315668Y-71531152D01*
X96308500Y-71489261D01*
X96308500Y-70902115D01*
X96310000Y-70882731D01*
X96319417Y-70822252D01*
X96319417Y-70822248D01*
X96320798Y-70813379D01*
X96319618Y-70804354D01*
X96319346Y-70773916D01*
X96320871Y-70760386D01*
X96326340Y-70711842D01*
X96332618Y-70684336D01*
X96359592Y-70607248D01*
X96371831Y-70581832D01*
X96415286Y-70512675D01*
X96432875Y-70490620D01*
X96490620Y-70432875D01*
X96512675Y-70415286D01*
X96581832Y-70371831D01*
X96607248Y-70359592D01*
X96684336Y-70332618D01*
X96711841Y-70326340D01*
X96767327Y-70320088D01*
X96782964Y-70320755D01*
X96782982Y-70319306D01*
X96791953Y-70319416D01*
X96800827Y-70320798D01*
X96809730Y-70319634D01*
X96809737Y-70319634D01*
X96832397Y-70316671D01*
X96848733Y-70315607D01*
X114443530Y-70315607D01*
X114462915Y-70317107D01*
G37*
%TD.AperFunction*%
%TD*%
M02*
