%TF.GenerationSoftware,KiCad,Pcbnew,(6.0.7-1)-1*%
%TF.CreationDate,2022-10-05T22:11:01+11:00*%
%TF.ProjectId,Open-JIP,4f70656e-2d4a-4495-902e-6b696361645f,rev?*%
%TF.SameCoordinates,Original*%
%TF.FileFunction,Copper,L2,Bot*%
%TF.FilePolarity,Positive*%
%FSLAX46Y46*%
G04 Gerber Fmt 4.6, Leading zero omitted, Abs format (unit mm)*
G04 Created by KiCad (PCBNEW (6.0.7-1)-1) date 2022-10-05 22:11:01*
%MOMM*%
%LPD*%
G01*
G04 APERTURE LIST*
%TA.AperFunction,ComponentPad*%
%ADD10R,1.651000X1.651000*%
%TD*%
%TA.AperFunction,ComponentPad*%
%ADD11C,1.651000*%
%TD*%
%TA.AperFunction,ComponentPad*%
%ADD12C,2.000000*%
%TD*%
%TA.AperFunction,ComponentPad*%
%ADD13R,1.980000X3.960000*%
%TD*%
%TA.AperFunction,ComponentPad*%
%ADD14O,1.980000X3.960000*%
%TD*%
%TA.AperFunction,ComponentPad*%
%ADD15R,1.980000X1.980000*%
%TD*%
%TA.AperFunction,ComponentPad*%
%ADD16C,1.980000*%
%TD*%
%TA.AperFunction,ComponentPad*%
%ADD17R,1.600000X1.600000*%
%TD*%
%TA.AperFunction,ComponentPad*%
%ADD18C,1.600000*%
%TD*%
%TA.AperFunction,ComponentPad*%
%ADD19O,1.900000X3.800000*%
%TD*%
%TA.AperFunction,ComponentPad*%
%ADD20O,3.800000X1.900000*%
%TD*%
%TA.AperFunction,ComponentPad*%
%ADD21C,5.700000*%
%TD*%
%TA.AperFunction,ComponentPad*%
%ADD22R,1.574800X1.574800*%
%TD*%
%TA.AperFunction,ComponentPad*%
%ADD23C,1.574800*%
%TD*%
%TA.AperFunction,ViaPad*%
%ADD24C,0.800000*%
%TD*%
%TA.AperFunction,Conductor*%
%ADD25C,0.600000*%
%TD*%
%TA.AperFunction,Conductor*%
%ADD26C,0.250000*%
%TD*%
G04 APERTURE END LIST*
D10*
%TO.P,CR1,1,B*%
%TO.N,Net-(CR1-Pad1)*%
X147549000Y-101200000D03*
D11*
%TO.P,CR1,2,C*%
%TO.N,Net-(CR1-Pad2)*%
X150089000Y-101200000D03*
%TO.P,CR1,3,E*%
%TO.N,GND*%
X152629000Y-101200000D03*
%TD*%
D12*
%TO.P,D2,1*%
%TO.N,GNDA*%
X147230000Y-82000000D03*
%TO.P,D2,2*%
%TO.N,Net-(C3-Pad2)*%
X149770000Y-82000000D03*
%TD*%
D13*
%TO.P,J2,1,Pin_1*%
%TO.N,Net-(C4-Pad2)*%
X134500000Y-99250000D03*
D14*
%TO.P,J2,2,Pin_2*%
%TO.N,Net-(C6-Pad2)*%
X139500000Y-99250000D03*
%TD*%
D15*
%TO.P,U1,1,INPUT*%
%TO.N,+15V*%
X163830000Y-105410000D03*
D16*
%TO.P,U1,2,GND*%
%TO.N,GND*%
X161290000Y-105410000D03*
%TO.P,U1,3,OUTPUT*%
%TO.N,Net-(C4-Pad2)*%
X158750000Y-105410000D03*
%TD*%
D17*
%TO.P,U3,1,GND*%
%TO.N,unconnected-(U3-Pad1)*%
X189435001Y-74645001D03*
D18*
%TO.P,U3,2,0_RX1_MOSI1_TOUCH*%
%TO.N,unconnected-(U3-Pad2)*%
X186895001Y-74645001D03*
%TO.P,U3,3,1_TX1_MISO1_TOUCH*%
%TO.N,unconnected-(U3-Pad3)*%
X184355001Y-74645001D03*
%TO.P,U3,4,2_PWM*%
%TO.N,unconnected-(U3-Pad4)*%
X181815001Y-74645001D03*
%TO.P,U3,5,3_PWM_CAN0TX_SCL2*%
%TO.N,unconnected-(U3-Pad5)*%
X179275001Y-74645001D03*
%TO.P,U3,6,4_PWM_CAN0RX_SDA2*%
%TO.N,unconnected-(U3-Pad6)*%
X176735001Y-74645001D03*
%TO.P,U3,7,5_PWM_TX1_MISO1*%
%TO.N,unconnected-(U3-Pad7)*%
X174195001Y-74645001D03*
%TO.P,U3,8,6_PWM*%
%TO.N,unconnected-(U3-Pad8)*%
X171655001Y-74645001D03*
%TO.P,U3,9,7_RX3_MISO0_SCL0*%
%TO.N,unconnected-(U3-Pad9)*%
X169115001Y-74645001D03*
%TO.P,U3,10,8_TX3_MISO0_SDA0*%
%TO.N,unconnected-(U3-Pad10)*%
X166575001Y-74645001D03*
%TO.P,U3,11,9_PWM_RX2_CS0*%
%TO.N,unconnected-(U3-Pad11)*%
X164035001Y-74645001D03*
%TO.P,U3,12,10_PWM_TX2_CS0*%
%TO.N,unconnected-(U3-Pad12)*%
X161495001Y-74645001D03*
%TO.P,U3,13,11_MOSI0*%
%TO.N,unconnected-(U3-Pad13)*%
X158955001Y-74645001D03*
%TO.P,U3,14,12_MISO0*%
%TO.N,unconnected-(U3-Pad14)*%
X156415001Y-74645001D03*
%TO.P,U3,15,3.3V*%
%TO.N,+3V3*%
X153875001Y-74645001D03*
%TO.P,U3,16,24*%
%TO.N,unconnected-(U3-Pad16)*%
X151335001Y-74645001D03*
%TO.P,U3,17,25*%
%TO.N,unconnected-(U3-Pad17)*%
X148795001Y-74645001D03*
%TO.P,U3,18,26_TX1*%
%TO.N,unconnected-(U3-Pad18)*%
X146255001Y-74645001D03*
%TO.P,U3,19,27_RX1*%
%TO.N,unconnected-(U3-Pad19)*%
X143715001Y-74645001D03*
%TO.P,U3,20,28*%
%TO.N,unconnected-(U3-Pad20)*%
X141175001Y-74645001D03*
%TO.P,U3,21,29_PWM_CAN0TX_TOUCH*%
%TO.N,unconnected-(U3-Pad21)*%
X138635001Y-74645001D03*
%TO.P,U3,22,30_PWM_CAN0RX_TOUCH*%
%TO.N,unconnected-(U3-Pad22)*%
X136095001Y-74645001D03*
%TO.P,U3,23,31_A12_RX4_CS1*%
%TO.N,unconnected-(U3-Pad23)*%
X133555001Y-74645001D03*
%TO.P,U3,24,32_A13_TX4_SCK1*%
%TO.N,unconnected-(U3-Pad24)*%
X131015001Y-74645001D03*
%TO.P,U3,30,33_A14_TX5_CAN1TX_SCL0*%
%TO.N,unconnected-(U3-Pad30)*%
X131015001Y-89885001D03*
%TO.P,U3,31,34_A15_RX5_CAN1TX_SDA0*%
%TO.N,unconnected-(U3-Pad31)*%
X133555001Y-89885001D03*
%TO.P,U3,32,35_A16_PWM*%
%TO.N,unconnected-(U3-Pad32)*%
X136095001Y-89885001D03*
%TO.P,U3,33,36_A17_PWM*%
%TO.N,unconnected-(U3-Pad33)*%
X138635001Y-89885001D03*
%TO.P,U3,34,37_A18_PWM_SCL1*%
%TO.N,unconnected-(U3-Pad34)*%
X141175001Y-89885001D03*
%TO.P,U3,35,38_A19_PWM_SDA1*%
%TO.N,unconnected-(U3-Pad35)*%
X143715001Y-89885001D03*
%TO.P,U3,36,39_A20*%
%TO.N,unconnected-(U3-Pad36)*%
X146255001Y-89885001D03*
%TO.P,U3,37,A21_DAC0*%
%TO.N,unconnected-(U3-Pad37)*%
X148795001Y-89885001D03*
%TO.P,U3,38,A22_DAC1*%
%TO.N,unconnected-(U3-Pad38)*%
X151335001Y-89885001D03*
%TO.P,U3,39,GND*%
%TO.N,GND*%
X153875001Y-89885001D03*
%TO.P,U3,40,13_SCK0_LED*%
%TO.N,unconnected-(U3-Pad40)*%
X156415001Y-89885001D03*
%TO.P,U3,41,14_A0_PWM_SCK0*%
%TO.N,FluoroRead*%
X158955001Y-89885001D03*
%TO.P,U3,42,15_A1_CS0_TOUCH*%
%TO.N,unconnected-(U3-Pad42)*%
X161495001Y-89885001D03*
%TO.P,U3,43,16_A2_SCL0_TOUCH*%
%TO.N,unconnected-(U3-Pad43)*%
X164035001Y-89885001D03*
%TO.P,U3,44,17_A3_SDA0_TOUCH*%
%TO.N,unconnected-(U3-Pad44)*%
X166575001Y-89885001D03*
%TO.P,U3,45,18_A4_SDA0_TOUCH*%
%TO.N,unconnected-(U3-Pad45)*%
X169115001Y-89885001D03*
%TO.P,U3,46,19_A5_SCL0_TOUCH*%
%TO.N,unconnected-(U3-Pad46)*%
X171655001Y-89885001D03*
%TO.P,U3,47,20_A6_PWM_CS0_SCK1*%
%TO.N,ActinicTrigger*%
X174195001Y-89885001D03*
%TO.P,U3,48,21_A7_PWM_CS0_SCK1*%
%TO.N,unconnected-(U3-Pad48)*%
X176735001Y-89885001D03*
%TO.P,U3,49,22_A8_PWM_TOUCH*%
%TO.N,unconnected-(U3-Pad49)*%
X179275001Y-89885001D03*
%TO.P,U3,50,23_A9_PWM_TOUCH*%
%TO.N,unconnected-(U3-Pad50)*%
X181815001Y-89885001D03*
%TO.P,U3,51,3.3V*%
%TO.N,unconnected-(U3-Pad51)*%
X184355001Y-89885001D03*
%TO.P,U3,52,AGND*%
%TO.N,GNDA*%
X186895001Y-89885001D03*
%TO.P,U3,53,VIN*%
%TO.N,+5V*%
X189435001Y-89885001D03*
%TD*%
D19*
%TO.P,J1,1*%
%TO.N,+15V*%
X178422000Y-100330000D03*
%TO.P,J1,2*%
%TO.N,GND*%
X184352000Y-100330000D03*
D20*
%TO.P,J1,3*%
X181102000Y-95680000D03*
%TD*%
D21*
%TO.P,REF\u002A\u002A,1*%
%TO.N,N/C*%
X135382000Y-82000000D03*
%TD*%
%TO.P,REF\u002A\u002A,1*%
%TO.N,N/C*%
X184912000Y-82000000D03*
%TD*%
D22*
%TO.P,R6,1,1*%
%TO.N,Net-(R5-Pad1)*%
X159218400Y-94107200D03*
D23*
%TO.P,R6,2,2*%
X169353000Y-96647200D03*
%TO.P,R6,3,3*%
%TO.N,Net-(CR1-Pad1)*%
X159218400Y-99187200D03*
%TD*%
D24*
%TO.N,GNDA*%
X165200000Y-78900000D03*
X164100000Y-77700000D03*
X155100000Y-78500000D03*
X161300000Y-78500000D03*
X150400000Y-85800000D03*
X159100000Y-85700000D03*
X152700000Y-78200000D03*
X149400000Y-85800000D03*
X156500000Y-84500000D03*
X156200000Y-77500000D03*
X155100000Y-79400000D03*
X158600000Y-82900000D03*
X156500000Y-86700000D03*
X155300000Y-84500000D03*
X174200000Y-87900000D03*
X152600000Y-85800000D03*
X151500000Y-85800000D03*
X150500000Y-78200000D03*
X153800000Y-76600000D03*
X160400000Y-77700000D03*
X156500000Y-87800000D03*
X175400000Y-88300000D03*
X149500000Y-78200000D03*
X163100000Y-76600000D03*
X159100000Y-84500000D03*
X156500000Y-85600000D03*
X152800000Y-79400000D03*
X154800000Y-77500000D03*
X152900000Y-84700000D03*
X151600000Y-78200000D03*
X163000000Y-84200000D03*
X159100000Y-86800000D03*
X159100000Y-87900000D03*
X160100000Y-79600000D03*
X173000000Y-88300000D03*
X154000000Y-84500000D03*
X161400000Y-79600000D03*
X152600000Y-76200000D03*
%TO.N,GND*%
X167300000Y-94900000D03*
X161600000Y-94300000D03*
X160900000Y-97900000D03*
X165300000Y-94900000D03*
X174800000Y-92600000D03*
X159400000Y-102400000D03*
X171000000Y-91800000D03*
X163200000Y-98300000D03*
X163200000Y-94900000D03*
X158200000Y-102400000D03*
X155000000Y-101100000D03*
X159200000Y-96300000D03*
X175600000Y-91800000D03*
X167400000Y-98300000D03*
X165400000Y-98300000D03*
X155000000Y-100000000D03*
X156100000Y-100000000D03*
%TO.N,FluoroRead*%
X157800000Y-81700000D03*
%TD*%
D25*
%TO.N,Net-(CR1-Pad1)*%
X154605600Y-103800000D02*
X150149000Y-103800000D01*
X150149000Y-103800000D02*
X147549000Y-101200000D01*
X159218400Y-99187200D02*
X154605600Y-103800000D01*
D26*
%TO.N,FluoroRead*%
X157800000Y-88730000D02*
X158955001Y-89885001D01*
X157800000Y-81700000D02*
X157800000Y-88730000D01*
%TD*%
%TA.AperFunction,Conductor*%
%TO.N,GNDA*%
G36*
X185693960Y-75210340D02*
G01*
X185739196Y-75262544D01*
X185755152Y-75296763D01*
X185755155Y-75296768D01*
X185757478Y-75301750D01*
X185888803Y-75489301D01*
X186050701Y-75651199D01*
X186055209Y-75654356D01*
X186055212Y-75654358D01*
X186096543Y-75683298D01*
X186238252Y-75782524D01*
X186243234Y-75784847D01*
X186243239Y-75784850D01*
X186440776Y-75876962D01*
X186445758Y-75879285D01*
X186451066Y-75880707D01*
X186451068Y-75880708D01*
X186661599Y-75937120D01*
X186661601Y-75937120D01*
X186666914Y-75938544D01*
X186895001Y-75958499D01*
X187123088Y-75938544D01*
X187128401Y-75937120D01*
X187128403Y-75937120D01*
X187338934Y-75880708D01*
X187338936Y-75880707D01*
X187344244Y-75879285D01*
X187349226Y-75876962D01*
X187546763Y-75784850D01*
X187546768Y-75784847D01*
X187551750Y-75782524D01*
X187693459Y-75683298D01*
X187734790Y-75654358D01*
X187734793Y-75654356D01*
X187739301Y-75651199D01*
X187901199Y-75489301D01*
X187904358Y-75484790D01*
X187907893Y-75480577D01*
X187909027Y-75481528D01*
X187959072Y-75441530D01*
X188029691Y-75434225D01*
X188093050Y-75466259D01*
X188129031Y-75527463D01*
X188132083Y-75544518D01*
X188133256Y-75555317D01*
X188184386Y-75691706D01*
X188271740Y-75808262D01*
X188388296Y-75895616D01*
X188524685Y-75946746D01*
X188586867Y-75953501D01*
X189358000Y-75953501D01*
X189426121Y-75973503D01*
X189472614Y-76027159D01*
X189484000Y-76079501D01*
X189484000Y-88451758D01*
X189463998Y-88519879D01*
X189410342Y-88566372D01*
X189368983Y-88577279D01*
X189206914Y-88591458D01*
X189201601Y-88592882D01*
X189201599Y-88592882D01*
X188991068Y-88649294D01*
X188991066Y-88649295D01*
X188985758Y-88650717D01*
X188980777Y-88653040D01*
X188980776Y-88653040D01*
X188783239Y-88745152D01*
X188783234Y-88745155D01*
X188778252Y-88747478D01*
X188721081Y-88787510D01*
X188595212Y-88875644D01*
X188595209Y-88875646D01*
X188590701Y-88878803D01*
X188428803Y-89040701D01*
X188297478Y-89228252D01*
X188295155Y-89233234D01*
X188295152Y-89233239D01*
X188278920Y-89268050D01*
X188232003Y-89321335D01*
X188163726Y-89340796D01*
X188095766Y-89320254D01*
X188050530Y-89268050D01*
X188034415Y-89233490D01*
X188028932Y-89223995D01*
X187992492Y-89171953D01*
X187982013Y-89163577D01*
X187968567Y-89170645D01*
X187223212Y-89916000D01*
X186566790Y-89916000D01*
X185820714Y-89169924D01*
X185808939Y-89163494D01*
X185796924Y-89172790D01*
X185761070Y-89223995D01*
X185755587Y-89233490D01*
X185739472Y-89268050D01*
X185692555Y-89321335D01*
X185624278Y-89340796D01*
X185556318Y-89320254D01*
X185511082Y-89268050D01*
X185494850Y-89233239D01*
X185494847Y-89233234D01*
X185492524Y-89228252D01*
X185361199Y-89040701D01*
X185199301Y-88878803D01*
X185194793Y-88875646D01*
X185194790Y-88875644D01*
X185083887Y-88797989D01*
X186173577Y-88797989D01*
X186180645Y-88811435D01*
X186882189Y-89512979D01*
X186896133Y-89520593D01*
X186897966Y-89520462D01*
X186904581Y-89516211D01*
X187610078Y-88810714D01*
X187616508Y-88798939D01*
X187607212Y-88786924D01*
X187556007Y-88751070D01*
X187546512Y-88745587D01*
X187349054Y-88653511D01*
X187338762Y-88649765D01*
X187128313Y-88593376D01*
X187117520Y-88591473D01*
X186900476Y-88572484D01*
X186889526Y-88572484D01*
X186672482Y-88591473D01*
X186661689Y-88593376D01*
X186451240Y-88649765D01*
X186440948Y-88653511D01*
X186243490Y-88745587D01*
X186233995Y-88751070D01*
X186181953Y-88787510D01*
X186173577Y-88797989D01*
X185083887Y-88797989D01*
X185068921Y-88787510D01*
X185011750Y-88747478D01*
X185006768Y-88745155D01*
X185006763Y-88745152D01*
X184809226Y-88653040D01*
X184809225Y-88653040D01*
X184804244Y-88650717D01*
X184798936Y-88649295D01*
X184798934Y-88649294D01*
X184588403Y-88592882D01*
X184588401Y-88592882D01*
X184583088Y-88591458D01*
X184355001Y-88571503D01*
X184126914Y-88591458D01*
X184121601Y-88592882D01*
X184121599Y-88592882D01*
X183911068Y-88649294D01*
X183911066Y-88649295D01*
X183905758Y-88650717D01*
X183900777Y-88653040D01*
X183900776Y-88653040D01*
X183703239Y-88745152D01*
X183703234Y-88745155D01*
X183698252Y-88747478D01*
X183641081Y-88787510D01*
X183515212Y-88875644D01*
X183515209Y-88875646D01*
X183510701Y-88878803D01*
X183348803Y-89040701D01*
X183217478Y-89228252D01*
X183215155Y-89233234D01*
X183215152Y-89233239D01*
X183199196Y-89267458D01*
X183152279Y-89320743D01*
X183084002Y-89340204D01*
X183016042Y-89319662D01*
X182970806Y-89267458D01*
X182954850Y-89233239D01*
X182954847Y-89233234D01*
X182952524Y-89228252D01*
X182821199Y-89040701D01*
X182659301Y-88878803D01*
X182654793Y-88875646D01*
X182654790Y-88875644D01*
X182528921Y-88787510D01*
X182471750Y-88747478D01*
X182466768Y-88745155D01*
X182466763Y-88745152D01*
X182269226Y-88653040D01*
X182269225Y-88653040D01*
X182264244Y-88650717D01*
X182258936Y-88649295D01*
X182258934Y-88649294D01*
X182048403Y-88592882D01*
X182048401Y-88592882D01*
X182043088Y-88591458D01*
X181815001Y-88571503D01*
X181586914Y-88591458D01*
X181581601Y-88592882D01*
X181581599Y-88592882D01*
X181371068Y-88649294D01*
X181371066Y-88649295D01*
X181365758Y-88650717D01*
X181360777Y-88653040D01*
X181360776Y-88653040D01*
X181163239Y-88745152D01*
X181163234Y-88745155D01*
X181158252Y-88747478D01*
X181101081Y-88787510D01*
X180975212Y-88875644D01*
X180975209Y-88875646D01*
X180970701Y-88878803D01*
X180808803Y-89040701D01*
X180677478Y-89228252D01*
X180675155Y-89233234D01*
X180675152Y-89233239D01*
X180659196Y-89267458D01*
X180612279Y-89320743D01*
X180544002Y-89340204D01*
X180476042Y-89319662D01*
X180430806Y-89267458D01*
X180414850Y-89233239D01*
X180414847Y-89233234D01*
X180412524Y-89228252D01*
X180281199Y-89040701D01*
X180119301Y-88878803D01*
X180114793Y-88875646D01*
X180114790Y-88875644D01*
X179988921Y-88787510D01*
X179931750Y-88747478D01*
X179926768Y-88745155D01*
X179926763Y-88745152D01*
X179729226Y-88653040D01*
X179729225Y-88653040D01*
X179724244Y-88650717D01*
X179718936Y-88649295D01*
X179718934Y-88649294D01*
X179508403Y-88592882D01*
X179508401Y-88592882D01*
X179503088Y-88591458D01*
X179275001Y-88571503D01*
X179046914Y-88591458D01*
X179041601Y-88592882D01*
X179041599Y-88592882D01*
X178831068Y-88649294D01*
X178831066Y-88649295D01*
X178825758Y-88650717D01*
X178820777Y-88653040D01*
X178820776Y-88653040D01*
X178623239Y-88745152D01*
X178623234Y-88745155D01*
X178618252Y-88747478D01*
X178561081Y-88787510D01*
X178435212Y-88875644D01*
X178435209Y-88875646D01*
X178430701Y-88878803D01*
X178268803Y-89040701D01*
X178137478Y-89228252D01*
X178135155Y-89233234D01*
X178135152Y-89233239D01*
X178119196Y-89267458D01*
X178072279Y-89320743D01*
X178004002Y-89340204D01*
X177936042Y-89319662D01*
X177890806Y-89267458D01*
X177874850Y-89233239D01*
X177874847Y-89233234D01*
X177872524Y-89228252D01*
X177741199Y-89040701D01*
X177579301Y-88878803D01*
X177574793Y-88875646D01*
X177574790Y-88875644D01*
X177448921Y-88787510D01*
X177391750Y-88747478D01*
X177386768Y-88745155D01*
X177386763Y-88745152D01*
X177189226Y-88653040D01*
X177189225Y-88653040D01*
X177184244Y-88650717D01*
X177178936Y-88649295D01*
X177178934Y-88649294D01*
X176968403Y-88592882D01*
X176968401Y-88592882D01*
X176963088Y-88591458D01*
X176735001Y-88571503D01*
X176506914Y-88591458D01*
X176501601Y-88592882D01*
X176501599Y-88592882D01*
X176291068Y-88649294D01*
X176291066Y-88649295D01*
X176285758Y-88650717D01*
X176280777Y-88653040D01*
X176280776Y-88653040D01*
X176083239Y-88745152D01*
X176083234Y-88745155D01*
X176078252Y-88747478D01*
X176021081Y-88787510D01*
X175895212Y-88875644D01*
X175895209Y-88875646D01*
X175890701Y-88878803D01*
X175728803Y-89040701D01*
X175597478Y-89228252D01*
X175595155Y-89233234D01*
X175595152Y-89233239D01*
X175579196Y-89267458D01*
X175532279Y-89320743D01*
X175464002Y-89340204D01*
X175396042Y-89319662D01*
X175350806Y-89267458D01*
X175334850Y-89233239D01*
X175334847Y-89233234D01*
X175332524Y-89228252D01*
X175201199Y-89040701D01*
X175039301Y-88878803D01*
X175034793Y-88875646D01*
X175034790Y-88875644D01*
X174908921Y-88787510D01*
X174851750Y-88747478D01*
X174846768Y-88745155D01*
X174846763Y-88745152D01*
X174649226Y-88653040D01*
X174649225Y-88653040D01*
X174644244Y-88650717D01*
X174638936Y-88649295D01*
X174638934Y-88649294D01*
X174428403Y-88592882D01*
X174428401Y-88592882D01*
X174423088Y-88591458D01*
X174195001Y-88571503D01*
X173966914Y-88591458D01*
X173961601Y-88592882D01*
X173961599Y-88592882D01*
X173751068Y-88649294D01*
X173751066Y-88649295D01*
X173745758Y-88650717D01*
X173740777Y-88653040D01*
X173740776Y-88653040D01*
X173543239Y-88745152D01*
X173543234Y-88745155D01*
X173538252Y-88747478D01*
X173481081Y-88787510D01*
X173355212Y-88875644D01*
X173355209Y-88875646D01*
X173350701Y-88878803D01*
X173188803Y-89040701D01*
X173057478Y-89228252D01*
X173055155Y-89233234D01*
X173055152Y-89233239D01*
X173039196Y-89267458D01*
X172992279Y-89320743D01*
X172924002Y-89340204D01*
X172856042Y-89319662D01*
X172810806Y-89267458D01*
X172794850Y-89233239D01*
X172794847Y-89233234D01*
X172792524Y-89228252D01*
X172661199Y-89040701D01*
X172499301Y-88878803D01*
X172494793Y-88875646D01*
X172494790Y-88875644D01*
X172368921Y-88787510D01*
X172311750Y-88747478D01*
X172306768Y-88745155D01*
X172306763Y-88745152D01*
X172109226Y-88653040D01*
X172109225Y-88653040D01*
X172104244Y-88650717D01*
X172098936Y-88649295D01*
X172098934Y-88649294D01*
X171888403Y-88592882D01*
X171888401Y-88592882D01*
X171883088Y-88591458D01*
X171655001Y-88571503D01*
X171426914Y-88591458D01*
X171421601Y-88592882D01*
X171421599Y-88592882D01*
X171211068Y-88649294D01*
X171211066Y-88649295D01*
X171205758Y-88650717D01*
X171200777Y-88653040D01*
X171200776Y-88653040D01*
X171003239Y-88745152D01*
X171003234Y-88745155D01*
X170998252Y-88747478D01*
X170941081Y-88787510D01*
X170815212Y-88875644D01*
X170815209Y-88875646D01*
X170810701Y-88878803D01*
X170648803Y-89040701D01*
X170517478Y-89228252D01*
X170515155Y-89233234D01*
X170515152Y-89233239D01*
X170499196Y-89267458D01*
X170452279Y-89320743D01*
X170384002Y-89340204D01*
X170316042Y-89319662D01*
X170270806Y-89267458D01*
X170254850Y-89233239D01*
X170254847Y-89233234D01*
X170252524Y-89228252D01*
X170121199Y-89040701D01*
X169959301Y-88878803D01*
X169954793Y-88875646D01*
X169954790Y-88875644D01*
X169828921Y-88787510D01*
X169771750Y-88747478D01*
X169766768Y-88745155D01*
X169766763Y-88745152D01*
X169569226Y-88653040D01*
X169569225Y-88653040D01*
X169564244Y-88650717D01*
X169558936Y-88649295D01*
X169558934Y-88649294D01*
X169348403Y-88592882D01*
X169348401Y-88592882D01*
X169343088Y-88591458D01*
X169115001Y-88571503D01*
X168886914Y-88591458D01*
X168881601Y-88592882D01*
X168881599Y-88592882D01*
X168671068Y-88649294D01*
X168671066Y-88649295D01*
X168665758Y-88650717D01*
X168660777Y-88653040D01*
X168660776Y-88653040D01*
X168463239Y-88745152D01*
X168463234Y-88745155D01*
X168458252Y-88747478D01*
X168401081Y-88787510D01*
X168275212Y-88875644D01*
X168275209Y-88875646D01*
X168270701Y-88878803D01*
X168108803Y-89040701D01*
X167977478Y-89228252D01*
X167975155Y-89233234D01*
X167975152Y-89233239D01*
X167959196Y-89267458D01*
X167912279Y-89320743D01*
X167844002Y-89340204D01*
X167776042Y-89319662D01*
X167730806Y-89267458D01*
X167714850Y-89233239D01*
X167714847Y-89233234D01*
X167712524Y-89228252D01*
X167581199Y-89040701D01*
X167419301Y-88878803D01*
X167414793Y-88875646D01*
X167414790Y-88875644D01*
X167288921Y-88787510D01*
X167231750Y-88747478D01*
X167226768Y-88745155D01*
X167226763Y-88745152D01*
X167029226Y-88653040D01*
X167029225Y-88653040D01*
X167024244Y-88650717D01*
X167018936Y-88649295D01*
X167018934Y-88649294D01*
X166808403Y-88592882D01*
X166808401Y-88592882D01*
X166803088Y-88591458D01*
X166575001Y-88571503D01*
X166346914Y-88591458D01*
X166341601Y-88592882D01*
X166341599Y-88592882D01*
X166131068Y-88649294D01*
X166131066Y-88649295D01*
X166125758Y-88650717D01*
X166120777Y-88653040D01*
X166120776Y-88653040D01*
X165923239Y-88745152D01*
X165923234Y-88745155D01*
X165918252Y-88747478D01*
X165861081Y-88787510D01*
X165735212Y-88875644D01*
X165735209Y-88875646D01*
X165730701Y-88878803D01*
X165568803Y-89040701D01*
X165437478Y-89228252D01*
X165435155Y-89233234D01*
X165435152Y-89233239D01*
X165419196Y-89267458D01*
X165372279Y-89320743D01*
X165304002Y-89340204D01*
X165236042Y-89319662D01*
X165190806Y-89267458D01*
X165174850Y-89233239D01*
X165174847Y-89233234D01*
X165172524Y-89228252D01*
X165041199Y-89040701D01*
X164879301Y-88878803D01*
X164874793Y-88875646D01*
X164874790Y-88875644D01*
X164748921Y-88787510D01*
X164691750Y-88747478D01*
X164686768Y-88745155D01*
X164686763Y-88745152D01*
X164489226Y-88653040D01*
X164489225Y-88653040D01*
X164484244Y-88650717D01*
X164478936Y-88649295D01*
X164478934Y-88649294D01*
X164268403Y-88592882D01*
X164268401Y-88592882D01*
X164263088Y-88591458D01*
X164035001Y-88571503D01*
X163806914Y-88591458D01*
X163801601Y-88592882D01*
X163801599Y-88592882D01*
X163591068Y-88649294D01*
X163591066Y-88649295D01*
X163585758Y-88650717D01*
X163580777Y-88653040D01*
X163580776Y-88653040D01*
X163383239Y-88745152D01*
X163383234Y-88745155D01*
X163378252Y-88747478D01*
X163321081Y-88787510D01*
X163195212Y-88875644D01*
X163195209Y-88875646D01*
X163190701Y-88878803D01*
X163028803Y-89040701D01*
X162897478Y-89228252D01*
X162895155Y-89233234D01*
X162895152Y-89233239D01*
X162879196Y-89267458D01*
X162832279Y-89320743D01*
X162764002Y-89340204D01*
X162696042Y-89319662D01*
X162650806Y-89267458D01*
X162634850Y-89233239D01*
X162634847Y-89233234D01*
X162632524Y-89228252D01*
X162501199Y-89040701D01*
X162339301Y-88878803D01*
X162334793Y-88875646D01*
X162334790Y-88875644D01*
X162208921Y-88787510D01*
X162151750Y-88747478D01*
X162146768Y-88745155D01*
X162146763Y-88745152D01*
X161949226Y-88653040D01*
X161949225Y-88653040D01*
X161944244Y-88650717D01*
X161938936Y-88649295D01*
X161938934Y-88649294D01*
X161728403Y-88592882D01*
X161728401Y-88592882D01*
X161723088Y-88591458D01*
X161495001Y-88571503D01*
X161266914Y-88591458D01*
X161261601Y-88592882D01*
X161261599Y-88592882D01*
X161051068Y-88649294D01*
X161051066Y-88649295D01*
X161045758Y-88650717D01*
X161040777Y-88653040D01*
X161040776Y-88653040D01*
X160843239Y-88745152D01*
X160843234Y-88745155D01*
X160838252Y-88747478D01*
X160781081Y-88787510D01*
X160655212Y-88875644D01*
X160655209Y-88875646D01*
X160650701Y-88878803D01*
X160488803Y-89040701D01*
X160357478Y-89228252D01*
X160355155Y-89233234D01*
X160355152Y-89233239D01*
X160339196Y-89267458D01*
X160292279Y-89320743D01*
X160224002Y-89340204D01*
X160156042Y-89319662D01*
X160110806Y-89267458D01*
X160094850Y-89233239D01*
X160094847Y-89233234D01*
X160092524Y-89228252D01*
X159961199Y-89040701D01*
X159799301Y-88878803D01*
X159794793Y-88875646D01*
X159794790Y-88875644D01*
X159668921Y-88787510D01*
X159611750Y-88747478D01*
X159606768Y-88745155D01*
X159606763Y-88745152D01*
X159409226Y-88653040D01*
X159409225Y-88653040D01*
X159404244Y-88650717D01*
X159398936Y-88649295D01*
X159398934Y-88649294D01*
X159188403Y-88592882D01*
X159188401Y-88592882D01*
X159183088Y-88591458D01*
X158955001Y-88571503D01*
X158726914Y-88591458D01*
X158721601Y-88592882D01*
X158721599Y-88592882D01*
X158663460Y-88608460D01*
X158592483Y-88606770D01*
X158541754Y-88575848D01*
X158470405Y-88504499D01*
X158436379Y-88442187D01*
X158433500Y-88415404D01*
X158433500Y-82402524D01*
X158453502Y-82334403D01*
X158465858Y-82318221D01*
X158539040Y-82236944D01*
X158634527Y-82071556D01*
X158661592Y-81988259D01*
X181548587Y-81988259D01*
X181548759Y-81991654D01*
X181548759Y-81991655D01*
X181549667Y-82009580D01*
X181566992Y-82351574D01*
X181567529Y-82354929D01*
X181567530Y-82354935D01*
X181585575Y-82467594D01*
X181624527Y-82710777D01*
X181720519Y-83061664D01*
X181853845Y-83400133D01*
X181855428Y-83403148D01*
X182021362Y-83719206D01*
X182021367Y-83719214D01*
X182022946Y-83722222D01*
X182024840Y-83725040D01*
X182024845Y-83725049D01*
X182217419Y-84011628D01*
X182225843Y-84024165D01*
X182460163Y-84302428D01*
X182486899Y-84327977D01*
X182720702Y-84551405D01*
X182720709Y-84551411D01*
X182723165Y-84553758D01*
X183011771Y-84775214D01*
X183014689Y-84776988D01*
X183319692Y-84962433D01*
X183319697Y-84962436D01*
X183322607Y-84964205D01*
X183325695Y-84965651D01*
X183325694Y-84965651D01*
X183648952Y-85117077D01*
X183648962Y-85117081D01*
X183652036Y-85118521D01*
X183655254Y-85119623D01*
X183655257Y-85119624D01*
X183992981Y-85235253D01*
X183992989Y-85235255D01*
X183996204Y-85236356D01*
X184351084Y-85316332D01*
X184404123Y-85322375D01*
X184709144Y-85357128D01*
X184709152Y-85357128D01*
X184712527Y-85357513D01*
X184715931Y-85357531D01*
X184715934Y-85357531D01*
X184914058Y-85358568D01*
X185076303Y-85359418D01*
X185079689Y-85359068D01*
X185079691Y-85359068D01*
X185434765Y-85322375D01*
X185434774Y-85322374D01*
X185438157Y-85322024D01*
X185441490Y-85321310D01*
X185441493Y-85321309D01*
X185551895Y-85297641D01*
X185793856Y-85245768D01*
X186139239Y-85131544D01*
X186142323Y-85130138D01*
X186142332Y-85130135D01*
X186467171Y-84982096D01*
X186470265Y-84980686D01*
X186514276Y-84954554D01*
X186780128Y-84796704D01*
X186780132Y-84796701D01*
X186783063Y-84794961D01*
X187073973Y-84576539D01*
X187339592Y-84327977D01*
X187576813Y-84052182D01*
X187684983Y-83894794D01*
X187780931Y-83755190D01*
X187780936Y-83755182D01*
X187782861Y-83752381D01*
X187784473Y-83749387D01*
X187784478Y-83749379D01*
X187921488Y-83494923D01*
X187955325Y-83432080D01*
X188092188Y-83095027D01*
X188191850Y-82745164D01*
X188238514Y-82472167D01*
X188252571Y-82389930D01*
X188252571Y-82389928D01*
X188253143Y-82386583D01*
X188254232Y-82368790D01*
X188275241Y-82025278D01*
X188275351Y-82023481D01*
X188275433Y-82000000D01*
X188255760Y-81636751D01*
X188196972Y-81277752D01*
X188099756Y-80927202D01*
X188095331Y-80916081D01*
X187966508Y-80592365D01*
X187965249Y-80589201D01*
X187911049Y-80486835D01*
X187796624Y-80270723D01*
X187796620Y-80270716D01*
X187795025Y-80267704D01*
X187793118Y-80264888D01*
X187793113Y-80264879D01*
X187592985Y-79969292D01*
X187591075Y-79966471D01*
X187355785Y-79689027D01*
X187091908Y-79438617D01*
X186802530Y-79218170D01*
X186799618Y-79216413D01*
X186799613Y-79216410D01*
X186493951Y-79032023D01*
X186493945Y-79032020D01*
X186491036Y-79030265D01*
X186161071Y-78877100D01*
X185816494Y-78760467D01*
X185807234Y-78758414D01*
X185732485Y-78741843D01*
X185461336Y-78681731D01*
X185332217Y-78667476D01*
X185103133Y-78642184D01*
X185103128Y-78642184D01*
X185099752Y-78641811D01*
X185096353Y-78641805D01*
X185096352Y-78641805D01*
X184924763Y-78641506D01*
X184735972Y-78641176D01*
X184600831Y-78655618D01*
X184377634Y-78679471D01*
X184377628Y-78679472D01*
X184374250Y-78679833D01*
X184018820Y-78757330D01*
X183673838Y-78872759D01*
X183343340Y-79024771D01*
X183031192Y-79211588D01*
X182741046Y-79431023D01*
X182476296Y-79680511D01*
X182240040Y-79957132D01*
X182035040Y-80257651D01*
X182033439Y-80260650D01*
X181872111Y-80562789D01*
X181863694Y-80578552D01*
X181862419Y-80581724D01*
X181862417Y-80581728D01*
X181784392Y-80775824D01*
X181728009Y-80916081D01*
X181727090Y-80919349D01*
X181727088Y-80919356D01*
X181630490Y-81263012D01*
X181629569Y-81266290D01*
X181629007Y-81269647D01*
X181629007Y-81269648D01*
X181585037Y-81532406D01*
X181569528Y-81625082D01*
X181548587Y-81988259D01*
X158661592Y-81988259D01*
X158693542Y-81889928D01*
X158713504Y-81700000D01*
X158705276Y-81621717D01*
X158694232Y-81516635D01*
X158694232Y-81516633D01*
X158693542Y-81510072D01*
X158634527Y-81328444D01*
X158539040Y-81163056D01*
X158495589Y-81114798D01*
X158415675Y-81026045D01*
X158415674Y-81026044D01*
X158411253Y-81021134D01*
X158256752Y-80908882D01*
X158250724Y-80906198D01*
X158250722Y-80906197D01*
X158088319Y-80833891D01*
X158088318Y-80833891D01*
X158082288Y-80831206D01*
X157988888Y-80811353D01*
X157901944Y-80792872D01*
X157901939Y-80792872D01*
X157895487Y-80791500D01*
X157704513Y-80791500D01*
X157698061Y-80792872D01*
X157698056Y-80792872D01*
X157611113Y-80811353D01*
X157517712Y-80831206D01*
X157511682Y-80833891D01*
X157511681Y-80833891D01*
X157349278Y-80906197D01*
X157349276Y-80906198D01*
X157343248Y-80908882D01*
X157188747Y-81021134D01*
X157184326Y-81026044D01*
X157184325Y-81026045D01*
X157104412Y-81114798D01*
X157060960Y-81163056D01*
X156965473Y-81328444D01*
X156906458Y-81510072D01*
X156905768Y-81516633D01*
X156905768Y-81516635D01*
X156894724Y-81621717D01*
X156886496Y-81700000D01*
X156906458Y-81889928D01*
X156965473Y-82071556D01*
X157060960Y-82236944D01*
X157134137Y-82318215D01*
X157164853Y-82382221D01*
X157166500Y-82402524D01*
X157166500Y-88593880D01*
X157146498Y-88662001D01*
X157092842Y-88708494D01*
X157022568Y-88718598D01*
X156987251Y-88708075D01*
X156869231Y-88653042D01*
X156869226Y-88653040D01*
X156864244Y-88650717D01*
X156858936Y-88649295D01*
X156858934Y-88649294D01*
X156648403Y-88592882D01*
X156648401Y-88592882D01*
X156643088Y-88591458D01*
X156415001Y-88571503D01*
X156186914Y-88591458D01*
X156181601Y-88592882D01*
X156181599Y-88592882D01*
X155971068Y-88649294D01*
X155971066Y-88649295D01*
X155965758Y-88650717D01*
X155960777Y-88653040D01*
X155960776Y-88653040D01*
X155763239Y-88745152D01*
X155763234Y-88745155D01*
X155758252Y-88747478D01*
X155701081Y-88787510D01*
X155575212Y-88875644D01*
X155575209Y-88875646D01*
X155570701Y-88878803D01*
X155408803Y-89040701D01*
X155277478Y-89228252D01*
X155275155Y-89233234D01*
X155275152Y-89233239D01*
X155259196Y-89267458D01*
X155212279Y-89320743D01*
X155144002Y-89340204D01*
X155076042Y-89319662D01*
X155030806Y-89267458D01*
X155014850Y-89233239D01*
X155014847Y-89233234D01*
X155012524Y-89228252D01*
X154881199Y-89040701D01*
X154719301Y-88878803D01*
X154714793Y-88875646D01*
X154714790Y-88875644D01*
X154588921Y-88787510D01*
X154531750Y-88747478D01*
X154526768Y-88745155D01*
X154526763Y-88745152D01*
X154329226Y-88653040D01*
X154329225Y-88653040D01*
X154324244Y-88650717D01*
X154318936Y-88649295D01*
X154318934Y-88649294D01*
X154108403Y-88592882D01*
X154108401Y-88592882D01*
X154103088Y-88591458D01*
X153875001Y-88571503D01*
X153646914Y-88591458D01*
X153641601Y-88592882D01*
X153641599Y-88592882D01*
X153431068Y-88649294D01*
X153431066Y-88649295D01*
X153425758Y-88650717D01*
X153420777Y-88653040D01*
X153420776Y-88653040D01*
X153223239Y-88745152D01*
X153223234Y-88745155D01*
X153218252Y-88747478D01*
X153161081Y-88787510D01*
X153035212Y-88875644D01*
X153035209Y-88875646D01*
X153030701Y-88878803D01*
X152868803Y-89040701D01*
X152737478Y-89228252D01*
X152735155Y-89233234D01*
X152735152Y-89233239D01*
X152719196Y-89267458D01*
X152672279Y-89320743D01*
X152604002Y-89340204D01*
X152536042Y-89319662D01*
X152490806Y-89267458D01*
X152474850Y-89233239D01*
X152474847Y-89233234D01*
X152472524Y-89228252D01*
X152341199Y-89040701D01*
X152179301Y-88878803D01*
X152174793Y-88875646D01*
X152174790Y-88875644D01*
X152048921Y-88787510D01*
X151991750Y-88747478D01*
X151986768Y-88745155D01*
X151986763Y-88745152D01*
X151789226Y-88653040D01*
X151789225Y-88653040D01*
X151784244Y-88650717D01*
X151778936Y-88649295D01*
X151778934Y-88649294D01*
X151568403Y-88592882D01*
X151568401Y-88592882D01*
X151563088Y-88591458D01*
X151335001Y-88571503D01*
X151106914Y-88591458D01*
X151101601Y-88592882D01*
X151101599Y-88592882D01*
X150891068Y-88649294D01*
X150891066Y-88649295D01*
X150885758Y-88650717D01*
X150880777Y-88653040D01*
X150880776Y-88653040D01*
X150683239Y-88745152D01*
X150683234Y-88745155D01*
X150678252Y-88747478D01*
X150621081Y-88787510D01*
X150495212Y-88875644D01*
X150495209Y-88875646D01*
X150490701Y-88878803D01*
X150328803Y-89040701D01*
X150197478Y-89228252D01*
X150195155Y-89233234D01*
X150195152Y-89233239D01*
X150179196Y-89267458D01*
X150132279Y-89320743D01*
X150064002Y-89340204D01*
X149996042Y-89319662D01*
X149950806Y-89267458D01*
X149934850Y-89233239D01*
X149934847Y-89233234D01*
X149932524Y-89228252D01*
X149801199Y-89040701D01*
X149639301Y-88878803D01*
X149634793Y-88875646D01*
X149634790Y-88875644D01*
X149508921Y-88787510D01*
X149451750Y-88747478D01*
X149446768Y-88745155D01*
X149446763Y-88745152D01*
X149249226Y-88653040D01*
X149249225Y-88653040D01*
X149244244Y-88650717D01*
X149238936Y-88649295D01*
X149238934Y-88649294D01*
X149028403Y-88592882D01*
X149028401Y-88592882D01*
X149023088Y-88591458D01*
X148795001Y-88571503D01*
X148566914Y-88591458D01*
X148561601Y-88592882D01*
X148561599Y-88592882D01*
X148351068Y-88649294D01*
X148351066Y-88649295D01*
X148345758Y-88650717D01*
X148340777Y-88653040D01*
X148340776Y-88653040D01*
X148143239Y-88745152D01*
X148143234Y-88745155D01*
X148138252Y-88747478D01*
X148081081Y-88787510D01*
X147955212Y-88875644D01*
X147955209Y-88875646D01*
X147950701Y-88878803D01*
X147788803Y-89040701D01*
X147657478Y-89228252D01*
X147655155Y-89233234D01*
X147655152Y-89233239D01*
X147639196Y-89267458D01*
X147592279Y-89320743D01*
X147524002Y-89340204D01*
X147456042Y-89319662D01*
X147410806Y-89267458D01*
X147394850Y-89233239D01*
X147394847Y-89233234D01*
X147392524Y-89228252D01*
X147261199Y-89040701D01*
X147099301Y-88878803D01*
X147094793Y-88875646D01*
X147094790Y-88875644D01*
X146968921Y-88787510D01*
X146911750Y-88747478D01*
X146906768Y-88745155D01*
X146906763Y-88745152D01*
X146709226Y-88653040D01*
X146709225Y-88653040D01*
X146704244Y-88650717D01*
X146698936Y-88649295D01*
X146698934Y-88649294D01*
X146488403Y-88592882D01*
X146488401Y-88592882D01*
X146483088Y-88591458D01*
X146255001Y-88571503D01*
X146026914Y-88591458D01*
X146021601Y-88592882D01*
X146021599Y-88592882D01*
X145811068Y-88649294D01*
X145811066Y-88649295D01*
X145805758Y-88650717D01*
X145800777Y-88653040D01*
X145800776Y-88653040D01*
X145603239Y-88745152D01*
X145603234Y-88745155D01*
X145598252Y-88747478D01*
X145541081Y-88787510D01*
X145415212Y-88875644D01*
X145415209Y-88875646D01*
X145410701Y-88878803D01*
X145248803Y-89040701D01*
X145117478Y-89228252D01*
X145115155Y-89233234D01*
X145115152Y-89233239D01*
X145099196Y-89267458D01*
X145052279Y-89320743D01*
X144984002Y-89340204D01*
X144916042Y-89319662D01*
X144870806Y-89267458D01*
X144854850Y-89233239D01*
X144854847Y-89233234D01*
X144852524Y-89228252D01*
X144721199Y-89040701D01*
X144559301Y-88878803D01*
X144554793Y-88875646D01*
X144554790Y-88875644D01*
X144428921Y-88787510D01*
X144371750Y-88747478D01*
X144366768Y-88745155D01*
X144366763Y-88745152D01*
X144169226Y-88653040D01*
X144169225Y-88653040D01*
X144164244Y-88650717D01*
X144158936Y-88649295D01*
X144158934Y-88649294D01*
X143948403Y-88592882D01*
X143948401Y-88592882D01*
X143943088Y-88591458D01*
X143715001Y-88571503D01*
X143486914Y-88591458D01*
X143481601Y-88592882D01*
X143481599Y-88592882D01*
X143271068Y-88649294D01*
X143271066Y-88649295D01*
X143265758Y-88650717D01*
X143260777Y-88653040D01*
X143260776Y-88653040D01*
X143063239Y-88745152D01*
X143063234Y-88745155D01*
X143058252Y-88747478D01*
X143001081Y-88787510D01*
X142875212Y-88875644D01*
X142875209Y-88875646D01*
X142870701Y-88878803D01*
X142708803Y-89040701D01*
X142577478Y-89228252D01*
X142575155Y-89233234D01*
X142575152Y-89233239D01*
X142559196Y-89267458D01*
X142512279Y-89320743D01*
X142444002Y-89340204D01*
X142376042Y-89319662D01*
X142330806Y-89267458D01*
X142314850Y-89233239D01*
X142314847Y-89233234D01*
X142312524Y-89228252D01*
X142181199Y-89040701D01*
X142019301Y-88878803D01*
X142014793Y-88875646D01*
X142014790Y-88875644D01*
X141888921Y-88787510D01*
X141831750Y-88747478D01*
X141826768Y-88745155D01*
X141826763Y-88745152D01*
X141629226Y-88653040D01*
X141629225Y-88653040D01*
X141624244Y-88650717D01*
X141618936Y-88649295D01*
X141618934Y-88649294D01*
X141408403Y-88592882D01*
X141408401Y-88592882D01*
X141403088Y-88591458D01*
X141175001Y-88571503D01*
X140946914Y-88591458D01*
X140941601Y-88592882D01*
X140941599Y-88592882D01*
X140731068Y-88649294D01*
X140731066Y-88649295D01*
X140725758Y-88650717D01*
X140720777Y-88653040D01*
X140720776Y-88653040D01*
X140523239Y-88745152D01*
X140523234Y-88745155D01*
X140518252Y-88747478D01*
X140461081Y-88787510D01*
X140335212Y-88875644D01*
X140335209Y-88875646D01*
X140330701Y-88878803D01*
X140168803Y-89040701D01*
X140037478Y-89228252D01*
X140035155Y-89233234D01*
X140035152Y-89233239D01*
X140019196Y-89267458D01*
X139972279Y-89320743D01*
X139904002Y-89340204D01*
X139836042Y-89319662D01*
X139790806Y-89267458D01*
X139774850Y-89233239D01*
X139774847Y-89233234D01*
X139772524Y-89228252D01*
X139641199Y-89040701D01*
X139479301Y-88878803D01*
X139474793Y-88875646D01*
X139474790Y-88875644D01*
X139348921Y-88787510D01*
X139291750Y-88747478D01*
X139286768Y-88745155D01*
X139286763Y-88745152D01*
X139089226Y-88653040D01*
X139089225Y-88653040D01*
X139084244Y-88650717D01*
X139078936Y-88649295D01*
X139078934Y-88649294D01*
X138868403Y-88592882D01*
X138868401Y-88592882D01*
X138863088Y-88591458D01*
X138635001Y-88571503D01*
X138406914Y-88591458D01*
X138401601Y-88592882D01*
X138401599Y-88592882D01*
X138191068Y-88649294D01*
X138191066Y-88649295D01*
X138185758Y-88650717D01*
X138180777Y-88653040D01*
X138180776Y-88653040D01*
X137983239Y-88745152D01*
X137983234Y-88745155D01*
X137978252Y-88747478D01*
X137921081Y-88787510D01*
X137795212Y-88875644D01*
X137795209Y-88875646D01*
X137790701Y-88878803D01*
X137628803Y-89040701D01*
X137497478Y-89228252D01*
X137495155Y-89233234D01*
X137495152Y-89233239D01*
X137479196Y-89267458D01*
X137432279Y-89320743D01*
X137364002Y-89340204D01*
X137296042Y-89319662D01*
X137250806Y-89267458D01*
X137234850Y-89233239D01*
X137234847Y-89233234D01*
X137232524Y-89228252D01*
X137101199Y-89040701D01*
X136939301Y-88878803D01*
X136934793Y-88875646D01*
X136934790Y-88875644D01*
X136808921Y-88787510D01*
X136751750Y-88747478D01*
X136746768Y-88745155D01*
X136746763Y-88745152D01*
X136549226Y-88653040D01*
X136549225Y-88653040D01*
X136544244Y-88650717D01*
X136538936Y-88649295D01*
X136538934Y-88649294D01*
X136328403Y-88592882D01*
X136328401Y-88592882D01*
X136323088Y-88591458D01*
X136095001Y-88571503D01*
X135866914Y-88591458D01*
X135861601Y-88592882D01*
X135861599Y-88592882D01*
X135651068Y-88649294D01*
X135651066Y-88649295D01*
X135645758Y-88650717D01*
X135640777Y-88653040D01*
X135640776Y-88653040D01*
X135443239Y-88745152D01*
X135443234Y-88745155D01*
X135438252Y-88747478D01*
X135381081Y-88787510D01*
X135255212Y-88875644D01*
X135255209Y-88875646D01*
X135250701Y-88878803D01*
X135088803Y-89040701D01*
X134957478Y-89228252D01*
X134955155Y-89233234D01*
X134955152Y-89233239D01*
X134939196Y-89267458D01*
X134892279Y-89320743D01*
X134824002Y-89340204D01*
X134756042Y-89319662D01*
X134710806Y-89267458D01*
X134694850Y-89233239D01*
X134694847Y-89233234D01*
X134692524Y-89228252D01*
X134561199Y-89040701D01*
X134399301Y-88878803D01*
X134394793Y-88875646D01*
X134394790Y-88875644D01*
X134268921Y-88787510D01*
X134211750Y-88747478D01*
X134206768Y-88745155D01*
X134206763Y-88745152D01*
X134009226Y-88653040D01*
X134009225Y-88653040D01*
X134004244Y-88650717D01*
X133998936Y-88649295D01*
X133998934Y-88649294D01*
X133788403Y-88592882D01*
X133788401Y-88592882D01*
X133783088Y-88591458D01*
X133555001Y-88571503D01*
X133326914Y-88591458D01*
X133321601Y-88592882D01*
X133321599Y-88592882D01*
X133111068Y-88649294D01*
X133111066Y-88649295D01*
X133105758Y-88650717D01*
X133100777Y-88653040D01*
X133100776Y-88653040D01*
X132903239Y-88745152D01*
X132903234Y-88745155D01*
X132898252Y-88747478D01*
X132841081Y-88787510D01*
X132715212Y-88875644D01*
X132715209Y-88875646D01*
X132710701Y-88878803D01*
X132548803Y-89040701D01*
X132417478Y-89228252D01*
X132415155Y-89233234D01*
X132415152Y-89233239D01*
X132399196Y-89267458D01*
X132352279Y-89320743D01*
X132284002Y-89340204D01*
X132216042Y-89319662D01*
X132170806Y-89267458D01*
X132154850Y-89233239D01*
X132154847Y-89233234D01*
X132152524Y-89228252D01*
X132021199Y-89040701D01*
X131859301Y-88878803D01*
X131854793Y-88875646D01*
X131854790Y-88875644D01*
X131728921Y-88787510D01*
X131671750Y-88747478D01*
X131666768Y-88745155D01*
X131666763Y-88745152D01*
X131469226Y-88653040D01*
X131469225Y-88653040D01*
X131464244Y-88650717D01*
X131458936Y-88649295D01*
X131458934Y-88649294D01*
X131248403Y-88592882D01*
X131248401Y-88592882D01*
X131243088Y-88591458D01*
X131237612Y-88590979D01*
X131237607Y-88590978D01*
X131201859Y-88587851D01*
X131179018Y-88585853D01*
X131112901Y-88559990D01*
X131071261Y-88502487D01*
X131064000Y-88460332D01*
X131064000Y-81988259D01*
X132018587Y-81988259D01*
X132018759Y-81991654D01*
X132018759Y-81991655D01*
X132019667Y-82009580D01*
X132036992Y-82351574D01*
X132037529Y-82354929D01*
X132037530Y-82354935D01*
X132055575Y-82467594D01*
X132094527Y-82710777D01*
X132190519Y-83061664D01*
X132323845Y-83400133D01*
X132325428Y-83403148D01*
X132491362Y-83719206D01*
X132491367Y-83719214D01*
X132492946Y-83722222D01*
X132494840Y-83725040D01*
X132494845Y-83725049D01*
X132687419Y-84011628D01*
X132695843Y-84024165D01*
X132930163Y-84302428D01*
X132956899Y-84327977D01*
X133190702Y-84551405D01*
X133190709Y-84551411D01*
X133193165Y-84553758D01*
X133481771Y-84775214D01*
X133484689Y-84776988D01*
X133789692Y-84962433D01*
X133789697Y-84962436D01*
X133792607Y-84964205D01*
X133795695Y-84965651D01*
X133795694Y-84965651D01*
X134118952Y-85117077D01*
X134118962Y-85117081D01*
X134122036Y-85118521D01*
X134125254Y-85119623D01*
X134125257Y-85119624D01*
X134462981Y-85235253D01*
X134462989Y-85235255D01*
X134466204Y-85236356D01*
X134821084Y-85316332D01*
X134874123Y-85322375D01*
X135179144Y-85357128D01*
X135179152Y-85357128D01*
X135182527Y-85357513D01*
X135185931Y-85357531D01*
X135185934Y-85357531D01*
X135384058Y-85358568D01*
X135546303Y-85359418D01*
X135549689Y-85359068D01*
X135549691Y-85359068D01*
X135904765Y-85322375D01*
X135904774Y-85322374D01*
X135908157Y-85322024D01*
X135911490Y-85321310D01*
X135911493Y-85321309D01*
X136021895Y-85297641D01*
X136263856Y-85245768D01*
X136609239Y-85131544D01*
X136612323Y-85130138D01*
X136612332Y-85130135D01*
X136937171Y-84982096D01*
X136940265Y-84980686D01*
X136984276Y-84954554D01*
X137250128Y-84796704D01*
X137250132Y-84796701D01*
X137253063Y-84794961D01*
X137543973Y-84576539D01*
X137809592Y-84327977D01*
X138046813Y-84052182D01*
X138154983Y-83894794D01*
X138250931Y-83755190D01*
X138250936Y-83755182D01*
X138252861Y-83752381D01*
X138254473Y-83749387D01*
X138254478Y-83749379D01*
X138391488Y-83494923D01*
X138425325Y-83432080D01*
X138506297Y-83232670D01*
X146362160Y-83232670D01*
X146367887Y-83240320D01*
X146539042Y-83345205D01*
X146547837Y-83349687D01*
X146757988Y-83436734D01*
X146767373Y-83439783D01*
X146988554Y-83492885D01*
X146998301Y-83494428D01*
X147225070Y-83512275D01*
X147234930Y-83512275D01*
X147461699Y-83494428D01*
X147471446Y-83492885D01*
X147692627Y-83439783D01*
X147702012Y-83436734D01*
X147912163Y-83349687D01*
X147920958Y-83345205D01*
X148088445Y-83242568D01*
X148097907Y-83232110D01*
X148094124Y-83223334D01*
X147242812Y-82372022D01*
X147228868Y-82364408D01*
X147227035Y-82364539D01*
X147220420Y-82368790D01*
X146368920Y-83220290D01*
X146362160Y-83232670D01*
X138506297Y-83232670D01*
X138562188Y-83095027D01*
X138661850Y-82745164D01*
X138708514Y-82472167D01*
X138722571Y-82389930D01*
X138722571Y-82389928D01*
X138723143Y-82386583D01*
X138724232Y-82368790D01*
X138745241Y-82025278D01*
X138745351Y-82023481D01*
X138745416Y-82004930D01*
X145717725Y-82004930D01*
X145735572Y-82231699D01*
X145737115Y-82241446D01*
X145790217Y-82462627D01*
X145793266Y-82472012D01*
X145880313Y-82682163D01*
X145884795Y-82690958D01*
X145987432Y-82858445D01*
X145997890Y-82867907D01*
X146006666Y-82864124D01*
X146857978Y-82012812D01*
X146864356Y-82001132D01*
X147594408Y-82001132D01*
X147594539Y-82002965D01*
X147598790Y-82009580D01*
X148450290Y-82861080D01*
X148467102Y-82870260D01*
X148530350Y-82884020D01*
X148565775Y-82912776D01*
X148700031Y-83069969D01*
X148880584Y-83224176D01*
X148884792Y-83226755D01*
X148884798Y-83226759D01*
X149078084Y-83345205D01*
X149083037Y-83348240D01*
X149087607Y-83350133D01*
X149087611Y-83350135D01*
X149297833Y-83437211D01*
X149302406Y-83439105D01*
X149382609Y-83458360D01*
X149528476Y-83493380D01*
X149528482Y-83493381D01*
X149533289Y-83494535D01*
X149770000Y-83513165D01*
X150006711Y-83494535D01*
X150011518Y-83493381D01*
X150011524Y-83493380D01*
X150157391Y-83458360D01*
X150237594Y-83439105D01*
X150242167Y-83437211D01*
X150452389Y-83350135D01*
X150452393Y-83350133D01*
X150456963Y-83348240D01*
X150461916Y-83345205D01*
X150655202Y-83226759D01*
X150655208Y-83226755D01*
X150659416Y-83224176D01*
X150839969Y-83069969D01*
X150994176Y-82889416D01*
X150996755Y-82885208D01*
X150996759Y-82885202D01*
X151115654Y-82691183D01*
X151118240Y-82686963D01*
X151120229Y-82682163D01*
X151207211Y-82472167D01*
X151207212Y-82472165D01*
X151209105Y-82467594D01*
X151264535Y-82236711D01*
X151283165Y-82000000D01*
X151264535Y-81763289D01*
X151231355Y-81625082D01*
X151210260Y-81537218D01*
X151209105Y-81532406D01*
X151207211Y-81527833D01*
X151120135Y-81317611D01*
X151120133Y-81317607D01*
X151118240Y-81313037D01*
X151089593Y-81266290D01*
X150996759Y-81114798D01*
X150996755Y-81114792D01*
X150994176Y-81110584D01*
X150839969Y-80930031D01*
X150659416Y-80775824D01*
X150655208Y-80773245D01*
X150655202Y-80773241D01*
X150461183Y-80654346D01*
X150456963Y-80651760D01*
X150452393Y-80649867D01*
X150452389Y-80649865D01*
X150242167Y-80562789D01*
X150242165Y-80562788D01*
X150237594Y-80560895D01*
X150157391Y-80541640D01*
X150011524Y-80506620D01*
X150011518Y-80506619D01*
X150006711Y-80505465D01*
X149770000Y-80486835D01*
X149533289Y-80505465D01*
X149528482Y-80506619D01*
X149528476Y-80506620D01*
X149382609Y-80541640D01*
X149302406Y-80560895D01*
X149297835Y-80562788D01*
X149297833Y-80562789D01*
X149087611Y-80649865D01*
X149087607Y-80649867D01*
X149083037Y-80651760D01*
X149078817Y-80654346D01*
X148884798Y-80773241D01*
X148884792Y-80773245D01*
X148880584Y-80775824D01*
X148700031Y-80930031D01*
X148696823Y-80933787D01*
X148696818Y-80933792D01*
X148566294Y-81086616D01*
X148506844Y-81125426D01*
X148472442Y-81127640D01*
X148453333Y-81135877D01*
X147602022Y-81987188D01*
X147594408Y-82001132D01*
X146864356Y-82001132D01*
X146865592Y-81998868D01*
X146865461Y-81997035D01*
X146861210Y-81990420D01*
X146009710Y-81138920D01*
X145997330Y-81132160D01*
X145989680Y-81137887D01*
X145884795Y-81309042D01*
X145880313Y-81317837D01*
X145793266Y-81527988D01*
X145790217Y-81537373D01*
X145737115Y-81758554D01*
X145735572Y-81768301D01*
X145717725Y-81995070D01*
X145717725Y-82004930D01*
X138745416Y-82004930D01*
X138745433Y-82000000D01*
X138725760Y-81636751D01*
X138666972Y-81277752D01*
X138569756Y-80927202D01*
X138565331Y-80916081D01*
X138506358Y-80767890D01*
X146362093Y-80767890D01*
X146365876Y-80776666D01*
X147217188Y-81627978D01*
X147231132Y-81635592D01*
X147232965Y-81635461D01*
X147239580Y-81631210D01*
X148091080Y-80779710D01*
X148097840Y-80767330D01*
X148092113Y-80759680D01*
X147920958Y-80654795D01*
X147912163Y-80650313D01*
X147702012Y-80563266D01*
X147692627Y-80560217D01*
X147471446Y-80507115D01*
X147461699Y-80505572D01*
X147234930Y-80487725D01*
X147225070Y-80487725D01*
X146998301Y-80505572D01*
X146988554Y-80507115D01*
X146767373Y-80560217D01*
X146757988Y-80563266D01*
X146547837Y-80650313D01*
X146539042Y-80654795D01*
X146371555Y-80757432D01*
X146362093Y-80767890D01*
X138506358Y-80767890D01*
X138436508Y-80592365D01*
X138435249Y-80589201D01*
X138381049Y-80486835D01*
X138266624Y-80270723D01*
X138266620Y-80270716D01*
X138265025Y-80267704D01*
X138263118Y-80264888D01*
X138263113Y-80264879D01*
X138062985Y-79969292D01*
X138061075Y-79966471D01*
X137825785Y-79689027D01*
X137561908Y-79438617D01*
X137272530Y-79218170D01*
X137269618Y-79216413D01*
X137269613Y-79216410D01*
X136963951Y-79032023D01*
X136963945Y-79032020D01*
X136961036Y-79030265D01*
X136631071Y-78877100D01*
X136286494Y-78760467D01*
X136277234Y-78758414D01*
X136202485Y-78741843D01*
X135931336Y-78681731D01*
X135802217Y-78667476D01*
X135573133Y-78642184D01*
X135573128Y-78642184D01*
X135569752Y-78641811D01*
X135566353Y-78641805D01*
X135566352Y-78641805D01*
X135394763Y-78641506D01*
X135205972Y-78641176D01*
X135070831Y-78655618D01*
X134847634Y-78679471D01*
X134847628Y-78679472D01*
X134844250Y-78679833D01*
X134488820Y-78757330D01*
X134143838Y-78872759D01*
X133813340Y-79024771D01*
X133501192Y-79211588D01*
X133211046Y-79431023D01*
X132946296Y-79680511D01*
X132710040Y-79957132D01*
X132505040Y-80257651D01*
X132503439Y-80260650D01*
X132342111Y-80562789D01*
X132333694Y-80578552D01*
X132332419Y-80581724D01*
X132332417Y-80581728D01*
X132254392Y-80775824D01*
X132198009Y-80916081D01*
X132197090Y-80919349D01*
X132197088Y-80919356D01*
X132100490Y-81263012D01*
X132099569Y-81266290D01*
X132099007Y-81269647D01*
X132099007Y-81269648D01*
X132055037Y-81532406D01*
X132039528Y-81625082D01*
X132018587Y-81988259D01*
X131064000Y-81988259D01*
X131064000Y-76069670D01*
X131084002Y-76001549D01*
X131137658Y-75955056D01*
X131179017Y-75944149D01*
X131201859Y-75942151D01*
X131237607Y-75939024D01*
X131237612Y-75939023D01*
X131243088Y-75938544D01*
X131248401Y-75937120D01*
X131248403Y-75937120D01*
X131458934Y-75880708D01*
X131458936Y-75880707D01*
X131464244Y-75879285D01*
X131469226Y-75876962D01*
X131666763Y-75784850D01*
X131666768Y-75784847D01*
X131671750Y-75782524D01*
X131813459Y-75683298D01*
X131854790Y-75654358D01*
X131854793Y-75654356D01*
X131859301Y-75651199D01*
X132021199Y-75489301D01*
X132152524Y-75301750D01*
X132154847Y-75296768D01*
X132154850Y-75296763D01*
X132170806Y-75262544D01*
X132217723Y-75209259D01*
X132286000Y-75189798D01*
X132353960Y-75210340D01*
X132399196Y-75262544D01*
X132415152Y-75296763D01*
X132415155Y-75296768D01*
X132417478Y-75301750D01*
X132548803Y-75489301D01*
X132710701Y-75651199D01*
X132715209Y-75654356D01*
X132715212Y-75654358D01*
X132756543Y-75683298D01*
X132898252Y-75782524D01*
X132903234Y-75784847D01*
X132903239Y-75784850D01*
X133100776Y-75876962D01*
X133105758Y-75879285D01*
X133111066Y-75880707D01*
X133111068Y-75880708D01*
X133321599Y-75937120D01*
X133321601Y-75937120D01*
X133326914Y-75938544D01*
X133555001Y-75958499D01*
X133783088Y-75938544D01*
X133788401Y-75937120D01*
X133788403Y-75937120D01*
X133998934Y-75880708D01*
X133998936Y-75880707D01*
X134004244Y-75879285D01*
X134009226Y-75876962D01*
X134206763Y-75784850D01*
X134206768Y-75784847D01*
X134211750Y-75782524D01*
X134353459Y-75683298D01*
X134394790Y-75654358D01*
X134394793Y-75654356D01*
X134399301Y-75651199D01*
X134561199Y-75489301D01*
X134692524Y-75301750D01*
X134694847Y-75296768D01*
X134694850Y-75296763D01*
X134710806Y-75262544D01*
X134757723Y-75209259D01*
X134826000Y-75189798D01*
X134893960Y-75210340D01*
X134939196Y-75262544D01*
X134955152Y-75296763D01*
X134955155Y-75296768D01*
X134957478Y-75301750D01*
X135088803Y-75489301D01*
X135250701Y-75651199D01*
X135255209Y-75654356D01*
X135255212Y-75654358D01*
X135296543Y-75683298D01*
X135438252Y-75782524D01*
X135443234Y-75784847D01*
X135443239Y-75784850D01*
X135640776Y-75876962D01*
X135645758Y-75879285D01*
X135651066Y-75880707D01*
X135651068Y-75880708D01*
X135861599Y-75937120D01*
X135861601Y-75937120D01*
X135866914Y-75938544D01*
X136095001Y-75958499D01*
X136323088Y-75938544D01*
X136328401Y-75937120D01*
X136328403Y-75937120D01*
X136538934Y-75880708D01*
X136538936Y-75880707D01*
X136544244Y-75879285D01*
X136549226Y-75876962D01*
X136746763Y-75784850D01*
X136746768Y-75784847D01*
X136751750Y-75782524D01*
X136893459Y-75683298D01*
X136934790Y-75654358D01*
X136934793Y-75654356D01*
X136939301Y-75651199D01*
X137101199Y-75489301D01*
X137232524Y-75301750D01*
X137234847Y-75296768D01*
X137234850Y-75296763D01*
X137250806Y-75262544D01*
X137297723Y-75209259D01*
X137366000Y-75189798D01*
X137433960Y-75210340D01*
X137479196Y-75262544D01*
X137495152Y-75296763D01*
X137495155Y-75296768D01*
X137497478Y-75301750D01*
X137628803Y-75489301D01*
X137790701Y-75651199D01*
X137795209Y-75654356D01*
X137795212Y-75654358D01*
X137836543Y-75683298D01*
X137978252Y-75782524D01*
X137983234Y-75784847D01*
X137983239Y-75784850D01*
X138180776Y-75876962D01*
X138185758Y-75879285D01*
X138191066Y-75880707D01*
X138191068Y-75880708D01*
X138401599Y-75937120D01*
X138401601Y-75937120D01*
X138406914Y-75938544D01*
X138635001Y-75958499D01*
X138863088Y-75938544D01*
X138868401Y-75937120D01*
X138868403Y-75937120D01*
X139078934Y-75880708D01*
X139078936Y-75880707D01*
X139084244Y-75879285D01*
X139089226Y-75876962D01*
X139286763Y-75784850D01*
X139286768Y-75784847D01*
X139291750Y-75782524D01*
X139433459Y-75683298D01*
X139474790Y-75654358D01*
X139474793Y-75654356D01*
X139479301Y-75651199D01*
X139641199Y-75489301D01*
X139772524Y-75301750D01*
X139774847Y-75296768D01*
X139774850Y-75296763D01*
X139790806Y-75262544D01*
X139837723Y-75209259D01*
X139906000Y-75189798D01*
X139973960Y-75210340D01*
X140019196Y-75262544D01*
X140035152Y-75296763D01*
X140035155Y-75296768D01*
X140037478Y-75301750D01*
X140168803Y-75489301D01*
X140330701Y-75651199D01*
X140335209Y-75654356D01*
X140335212Y-75654358D01*
X140376543Y-75683298D01*
X140518252Y-75782524D01*
X140523234Y-75784847D01*
X140523239Y-75784850D01*
X140720776Y-75876962D01*
X140725758Y-75879285D01*
X140731066Y-75880707D01*
X140731068Y-75880708D01*
X140941599Y-75937120D01*
X140941601Y-75937120D01*
X140946914Y-75938544D01*
X141175001Y-75958499D01*
X141403088Y-75938544D01*
X141408401Y-75937120D01*
X141408403Y-75937120D01*
X141618934Y-75880708D01*
X141618936Y-75880707D01*
X141624244Y-75879285D01*
X141629226Y-75876962D01*
X141826763Y-75784850D01*
X141826768Y-75784847D01*
X141831750Y-75782524D01*
X141973459Y-75683298D01*
X142014790Y-75654358D01*
X142014793Y-75654356D01*
X142019301Y-75651199D01*
X142181199Y-75489301D01*
X142312524Y-75301750D01*
X142314847Y-75296768D01*
X142314850Y-75296763D01*
X142330806Y-75262544D01*
X142377723Y-75209259D01*
X142446000Y-75189798D01*
X142513960Y-75210340D01*
X142559196Y-75262544D01*
X142575152Y-75296763D01*
X142575155Y-75296768D01*
X142577478Y-75301750D01*
X142708803Y-75489301D01*
X142870701Y-75651199D01*
X142875209Y-75654356D01*
X142875212Y-75654358D01*
X142916543Y-75683298D01*
X143058252Y-75782524D01*
X143063234Y-75784847D01*
X143063239Y-75784850D01*
X143260776Y-75876962D01*
X143265758Y-75879285D01*
X143271066Y-75880707D01*
X143271068Y-75880708D01*
X143481599Y-75937120D01*
X143481601Y-75937120D01*
X143486914Y-75938544D01*
X143715001Y-75958499D01*
X143943088Y-75938544D01*
X143948401Y-75937120D01*
X143948403Y-75937120D01*
X144158934Y-75880708D01*
X144158936Y-75880707D01*
X144164244Y-75879285D01*
X144169226Y-75876962D01*
X144366763Y-75784850D01*
X144366768Y-75784847D01*
X144371750Y-75782524D01*
X144513459Y-75683298D01*
X144554790Y-75654358D01*
X144554793Y-75654356D01*
X144559301Y-75651199D01*
X144721199Y-75489301D01*
X144852524Y-75301750D01*
X144854847Y-75296768D01*
X144854850Y-75296763D01*
X144870806Y-75262544D01*
X144917723Y-75209259D01*
X144986000Y-75189798D01*
X145053960Y-75210340D01*
X145099196Y-75262544D01*
X145115152Y-75296763D01*
X145115155Y-75296768D01*
X145117478Y-75301750D01*
X145248803Y-75489301D01*
X145410701Y-75651199D01*
X145415209Y-75654356D01*
X145415212Y-75654358D01*
X145456543Y-75683298D01*
X145598252Y-75782524D01*
X145603234Y-75784847D01*
X145603239Y-75784850D01*
X145800776Y-75876962D01*
X145805758Y-75879285D01*
X145811066Y-75880707D01*
X145811068Y-75880708D01*
X146021599Y-75937120D01*
X146021601Y-75937120D01*
X146026914Y-75938544D01*
X146255001Y-75958499D01*
X146483088Y-75938544D01*
X146488401Y-75937120D01*
X146488403Y-75937120D01*
X146698934Y-75880708D01*
X146698936Y-75880707D01*
X146704244Y-75879285D01*
X146709226Y-75876962D01*
X146906763Y-75784850D01*
X146906768Y-75784847D01*
X146911750Y-75782524D01*
X147053459Y-75683298D01*
X147094790Y-75654358D01*
X147094793Y-75654356D01*
X147099301Y-75651199D01*
X147261199Y-75489301D01*
X147392524Y-75301750D01*
X147394847Y-75296768D01*
X147394850Y-75296763D01*
X147410806Y-75262544D01*
X147457723Y-75209259D01*
X147526000Y-75189798D01*
X147593960Y-75210340D01*
X147639196Y-75262544D01*
X147655152Y-75296763D01*
X147655155Y-75296768D01*
X147657478Y-75301750D01*
X147788803Y-75489301D01*
X147950701Y-75651199D01*
X147955209Y-75654356D01*
X147955212Y-75654358D01*
X147996543Y-75683298D01*
X148138252Y-75782524D01*
X148143234Y-75784847D01*
X148143239Y-75784850D01*
X148340776Y-75876962D01*
X148345758Y-75879285D01*
X148351066Y-75880707D01*
X148351068Y-75880708D01*
X148561599Y-75937120D01*
X148561601Y-75937120D01*
X148566914Y-75938544D01*
X148795001Y-75958499D01*
X149023088Y-75938544D01*
X149028401Y-75937120D01*
X149028403Y-75937120D01*
X149238934Y-75880708D01*
X149238936Y-75880707D01*
X149244244Y-75879285D01*
X149249226Y-75876962D01*
X149446763Y-75784850D01*
X149446768Y-75784847D01*
X149451750Y-75782524D01*
X149593459Y-75683298D01*
X149634790Y-75654358D01*
X149634793Y-75654356D01*
X149639301Y-75651199D01*
X149801199Y-75489301D01*
X149932524Y-75301750D01*
X149934847Y-75296768D01*
X149934850Y-75296763D01*
X149950806Y-75262544D01*
X149997723Y-75209259D01*
X150066000Y-75189798D01*
X150133960Y-75210340D01*
X150179196Y-75262544D01*
X150195152Y-75296763D01*
X150195155Y-75296768D01*
X150197478Y-75301750D01*
X150328803Y-75489301D01*
X150490701Y-75651199D01*
X150495209Y-75654356D01*
X150495212Y-75654358D01*
X150536543Y-75683298D01*
X150678252Y-75782524D01*
X150683234Y-75784847D01*
X150683239Y-75784850D01*
X150880776Y-75876962D01*
X150885758Y-75879285D01*
X150891066Y-75880707D01*
X150891068Y-75880708D01*
X151101599Y-75937120D01*
X151101601Y-75937120D01*
X151106914Y-75938544D01*
X151335001Y-75958499D01*
X151563088Y-75938544D01*
X151568401Y-75937120D01*
X151568403Y-75937120D01*
X151778934Y-75880708D01*
X151778936Y-75880707D01*
X151784244Y-75879285D01*
X151789226Y-75876962D01*
X151986763Y-75784850D01*
X151986768Y-75784847D01*
X151991750Y-75782524D01*
X152133459Y-75683298D01*
X152174790Y-75654358D01*
X152174793Y-75654356D01*
X152179301Y-75651199D01*
X152341199Y-75489301D01*
X152472524Y-75301750D01*
X152474847Y-75296768D01*
X152474850Y-75296763D01*
X152490806Y-75262544D01*
X152537723Y-75209259D01*
X152606000Y-75189798D01*
X152673960Y-75210340D01*
X152719196Y-75262544D01*
X152735152Y-75296763D01*
X152735155Y-75296768D01*
X152737478Y-75301750D01*
X152868803Y-75489301D01*
X153030701Y-75651199D01*
X153035209Y-75654356D01*
X153035212Y-75654358D01*
X153076543Y-75683298D01*
X153218252Y-75782524D01*
X153223234Y-75784847D01*
X153223239Y-75784850D01*
X153420776Y-75876962D01*
X153425758Y-75879285D01*
X153431066Y-75880707D01*
X153431068Y-75880708D01*
X153641599Y-75937120D01*
X153641601Y-75937120D01*
X153646914Y-75938544D01*
X153875001Y-75958499D01*
X154103088Y-75938544D01*
X154108401Y-75937120D01*
X154108403Y-75937120D01*
X154318934Y-75880708D01*
X154318936Y-75880707D01*
X154324244Y-75879285D01*
X154329226Y-75876962D01*
X154526763Y-75784850D01*
X154526768Y-75784847D01*
X154531750Y-75782524D01*
X154673459Y-75683298D01*
X154714790Y-75654358D01*
X154714793Y-75654356D01*
X154719301Y-75651199D01*
X154881199Y-75489301D01*
X155012524Y-75301750D01*
X155014847Y-75296768D01*
X155014850Y-75296763D01*
X155030806Y-75262544D01*
X155077723Y-75209259D01*
X155146000Y-75189798D01*
X155213960Y-75210340D01*
X155259196Y-75262544D01*
X155275152Y-75296763D01*
X155275155Y-75296768D01*
X155277478Y-75301750D01*
X155408803Y-75489301D01*
X155570701Y-75651199D01*
X155575209Y-75654356D01*
X155575212Y-75654358D01*
X155616543Y-75683298D01*
X155758252Y-75782524D01*
X155763234Y-75784847D01*
X155763239Y-75784850D01*
X155960776Y-75876962D01*
X155965758Y-75879285D01*
X155971066Y-75880707D01*
X155971068Y-75880708D01*
X156181599Y-75937120D01*
X156181601Y-75937120D01*
X156186914Y-75938544D01*
X156415001Y-75958499D01*
X156643088Y-75938544D01*
X156648401Y-75937120D01*
X156648403Y-75937120D01*
X156858934Y-75880708D01*
X156858936Y-75880707D01*
X156864244Y-75879285D01*
X156869226Y-75876962D01*
X157066763Y-75784850D01*
X157066768Y-75784847D01*
X157071750Y-75782524D01*
X157213459Y-75683298D01*
X157254790Y-75654358D01*
X157254793Y-75654356D01*
X157259301Y-75651199D01*
X157421199Y-75489301D01*
X157552524Y-75301750D01*
X157554847Y-75296768D01*
X157554850Y-75296763D01*
X157570806Y-75262544D01*
X157617723Y-75209259D01*
X157686000Y-75189798D01*
X157753960Y-75210340D01*
X157799196Y-75262544D01*
X157815152Y-75296763D01*
X157815155Y-75296768D01*
X157817478Y-75301750D01*
X157948803Y-75489301D01*
X158110701Y-75651199D01*
X158115209Y-75654356D01*
X158115212Y-75654358D01*
X158156543Y-75683298D01*
X158298252Y-75782524D01*
X158303234Y-75784847D01*
X158303239Y-75784850D01*
X158500776Y-75876962D01*
X158505758Y-75879285D01*
X158511066Y-75880707D01*
X158511068Y-75880708D01*
X158721599Y-75937120D01*
X158721601Y-75937120D01*
X158726914Y-75938544D01*
X158955001Y-75958499D01*
X159183088Y-75938544D01*
X159188401Y-75937120D01*
X159188403Y-75937120D01*
X159398934Y-75880708D01*
X159398936Y-75880707D01*
X159404244Y-75879285D01*
X159409226Y-75876962D01*
X159606763Y-75784850D01*
X159606768Y-75784847D01*
X159611750Y-75782524D01*
X159753459Y-75683298D01*
X159794790Y-75654358D01*
X159794793Y-75654356D01*
X159799301Y-75651199D01*
X159961199Y-75489301D01*
X160092524Y-75301750D01*
X160094847Y-75296768D01*
X160094850Y-75296763D01*
X160110806Y-75262544D01*
X160157723Y-75209259D01*
X160226000Y-75189798D01*
X160293960Y-75210340D01*
X160339196Y-75262544D01*
X160355152Y-75296763D01*
X160355155Y-75296768D01*
X160357478Y-75301750D01*
X160488803Y-75489301D01*
X160650701Y-75651199D01*
X160655209Y-75654356D01*
X160655212Y-75654358D01*
X160696543Y-75683298D01*
X160838252Y-75782524D01*
X160843234Y-75784847D01*
X160843239Y-75784850D01*
X161040776Y-75876962D01*
X161045758Y-75879285D01*
X161051066Y-75880707D01*
X161051068Y-75880708D01*
X161261599Y-75937120D01*
X161261601Y-75937120D01*
X161266914Y-75938544D01*
X161495001Y-75958499D01*
X161723088Y-75938544D01*
X161728401Y-75937120D01*
X161728403Y-75937120D01*
X161938934Y-75880708D01*
X161938936Y-75880707D01*
X161944244Y-75879285D01*
X161949226Y-75876962D01*
X162146763Y-75784850D01*
X162146768Y-75784847D01*
X162151750Y-75782524D01*
X162293459Y-75683298D01*
X162334790Y-75654358D01*
X162334793Y-75654356D01*
X162339301Y-75651199D01*
X162501199Y-75489301D01*
X162632524Y-75301750D01*
X162634847Y-75296768D01*
X162634850Y-75296763D01*
X162650806Y-75262544D01*
X162697723Y-75209259D01*
X162766000Y-75189798D01*
X162833960Y-75210340D01*
X162879196Y-75262544D01*
X162895152Y-75296763D01*
X162895155Y-75296768D01*
X162897478Y-75301750D01*
X163028803Y-75489301D01*
X163190701Y-75651199D01*
X163195209Y-75654356D01*
X163195212Y-75654358D01*
X163236543Y-75683298D01*
X163378252Y-75782524D01*
X163383234Y-75784847D01*
X163383239Y-75784850D01*
X163580776Y-75876962D01*
X163585758Y-75879285D01*
X163591066Y-75880707D01*
X163591068Y-75880708D01*
X163801599Y-75937120D01*
X163801601Y-75937120D01*
X163806914Y-75938544D01*
X164035001Y-75958499D01*
X164263088Y-75938544D01*
X164268401Y-75937120D01*
X164268403Y-75937120D01*
X164478934Y-75880708D01*
X164478936Y-75880707D01*
X164484244Y-75879285D01*
X164489226Y-75876962D01*
X164686763Y-75784850D01*
X164686768Y-75784847D01*
X164691750Y-75782524D01*
X164833459Y-75683298D01*
X164874790Y-75654358D01*
X164874793Y-75654356D01*
X164879301Y-75651199D01*
X165041199Y-75489301D01*
X165172524Y-75301750D01*
X165174847Y-75296768D01*
X165174850Y-75296763D01*
X165190806Y-75262544D01*
X165237723Y-75209259D01*
X165306000Y-75189798D01*
X165373960Y-75210340D01*
X165419196Y-75262544D01*
X165435152Y-75296763D01*
X165435155Y-75296768D01*
X165437478Y-75301750D01*
X165568803Y-75489301D01*
X165730701Y-75651199D01*
X165735209Y-75654356D01*
X165735212Y-75654358D01*
X165776543Y-75683298D01*
X165918252Y-75782524D01*
X165923234Y-75784847D01*
X165923239Y-75784850D01*
X166120776Y-75876962D01*
X166125758Y-75879285D01*
X166131066Y-75880707D01*
X166131068Y-75880708D01*
X166341599Y-75937120D01*
X166341601Y-75937120D01*
X166346914Y-75938544D01*
X166575001Y-75958499D01*
X166803088Y-75938544D01*
X166808401Y-75937120D01*
X166808403Y-75937120D01*
X167018934Y-75880708D01*
X167018936Y-75880707D01*
X167024244Y-75879285D01*
X167029226Y-75876962D01*
X167226763Y-75784850D01*
X167226768Y-75784847D01*
X167231750Y-75782524D01*
X167373459Y-75683298D01*
X167414790Y-75654358D01*
X167414793Y-75654356D01*
X167419301Y-75651199D01*
X167581199Y-75489301D01*
X167712524Y-75301750D01*
X167714847Y-75296768D01*
X167714850Y-75296763D01*
X167730806Y-75262544D01*
X167777723Y-75209259D01*
X167846000Y-75189798D01*
X167913960Y-75210340D01*
X167959196Y-75262544D01*
X167975152Y-75296763D01*
X167975155Y-75296768D01*
X167977478Y-75301750D01*
X168108803Y-75489301D01*
X168270701Y-75651199D01*
X168275209Y-75654356D01*
X168275212Y-75654358D01*
X168316543Y-75683298D01*
X168458252Y-75782524D01*
X168463234Y-75784847D01*
X168463239Y-75784850D01*
X168660776Y-75876962D01*
X168665758Y-75879285D01*
X168671066Y-75880707D01*
X168671068Y-75880708D01*
X168881599Y-75937120D01*
X168881601Y-75937120D01*
X168886914Y-75938544D01*
X169115001Y-75958499D01*
X169343088Y-75938544D01*
X169348401Y-75937120D01*
X169348403Y-75937120D01*
X169558934Y-75880708D01*
X169558936Y-75880707D01*
X169564244Y-75879285D01*
X169569226Y-75876962D01*
X169766763Y-75784850D01*
X169766768Y-75784847D01*
X169771750Y-75782524D01*
X169913459Y-75683298D01*
X169954790Y-75654358D01*
X169954793Y-75654356D01*
X169959301Y-75651199D01*
X170121199Y-75489301D01*
X170252524Y-75301750D01*
X170254847Y-75296768D01*
X170254850Y-75296763D01*
X170270806Y-75262544D01*
X170317723Y-75209259D01*
X170386000Y-75189798D01*
X170453960Y-75210340D01*
X170499196Y-75262544D01*
X170515152Y-75296763D01*
X170515155Y-75296768D01*
X170517478Y-75301750D01*
X170648803Y-75489301D01*
X170810701Y-75651199D01*
X170815209Y-75654356D01*
X170815212Y-75654358D01*
X170856543Y-75683298D01*
X170998252Y-75782524D01*
X171003234Y-75784847D01*
X171003239Y-75784850D01*
X171200776Y-75876962D01*
X171205758Y-75879285D01*
X171211066Y-75880707D01*
X171211068Y-75880708D01*
X171421599Y-75937120D01*
X171421601Y-75937120D01*
X171426914Y-75938544D01*
X171655001Y-75958499D01*
X171883088Y-75938544D01*
X171888401Y-75937120D01*
X171888403Y-75937120D01*
X172098934Y-75880708D01*
X172098936Y-75880707D01*
X172104244Y-75879285D01*
X172109226Y-75876962D01*
X172306763Y-75784850D01*
X172306768Y-75784847D01*
X172311750Y-75782524D01*
X172453459Y-75683298D01*
X172494790Y-75654358D01*
X172494793Y-75654356D01*
X172499301Y-75651199D01*
X172661199Y-75489301D01*
X172792524Y-75301750D01*
X172794847Y-75296768D01*
X172794850Y-75296763D01*
X172810806Y-75262544D01*
X172857723Y-75209259D01*
X172926000Y-75189798D01*
X172993960Y-75210340D01*
X173039196Y-75262544D01*
X173055152Y-75296763D01*
X173055155Y-75296768D01*
X173057478Y-75301750D01*
X173188803Y-75489301D01*
X173350701Y-75651199D01*
X173355209Y-75654356D01*
X173355212Y-75654358D01*
X173396543Y-75683298D01*
X173538252Y-75782524D01*
X173543234Y-75784847D01*
X173543239Y-75784850D01*
X173740776Y-75876962D01*
X173745758Y-75879285D01*
X173751066Y-75880707D01*
X173751068Y-75880708D01*
X173961599Y-75937120D01*
X173961601Y-75937120D01*
X173966914Y-75938544D01*
X174195001Y-75958499D01*
X174423088Y-75938544D01*
X174428401Y-75937120D01*
X174428403Y-75937120D01*
X174638934Y-75880708D01*
X174638936Y-75880707D01*
X174644244Y-75879285D01*
X174649226Y-75876962D01*
X174846763Y-75784850D01*
X174846768Y-75784847D01*
X174851750Y-75782524D01*
X174993459Y-75683298D01*
X175034790Y-75654358D01*
X175034793Y-75654356D01*
X175039301Y-75651199D01*
X175201199Y-75489301D01*
X175332524Y-75301750D01*
X175334847Y-75296768D01*
X175334850Y-75296763D01*
X175350806Y-75262544D01*
X175397723Y-75209259D01*
X175466000Y-75189798D01*
X175533960Y-75210340D01*
X175579196Y-75262544D01*
X175595152Y-75296763D01*
X175595155Y-75296768D01*
X175597478Y-75301750D01*
X175728803Y-75489301D01*
X175890701Y-75651199D01*
X175895209Y-75654356D01*
X175895212Y-75654358D01*
X175936543Y-75683298D01*
X176078252Y-75782524D01*
X176083234Y-75784847D01*
X176083239Y-75784850D01*
X176280776Y-75876962D01*
X176285758Y-75879285D01*
X176291066Y-75880707D01*
X176291068Y-75880708D01*
X176501599Y-75937120D01*
X176501601Y-75937120D01*
X176506914Y-75938544D01*
X176735001Y-75958499D01*
X176963088Y-75938544D01*
X176968401Y-75937120D01*
X176968403Y-75937120D01*
X177178934Y-75880708D01*
X177178936Y-75880707D01*
X177184244Y-75879285D01*
X177189226Y-75876962D01*
X177386763Y-75784850D01*
X177386768Y-75784847D01*
X177391750Y-75782524D01*
X177533459Y-75683298D01*
X177574790Y-75654358D01*
X177574793Y-75654356D01*
X177579301Y-75651199D01*
X177741199Y-75489301D01*
X177872524Y-75301750D01*
X177874847Y-75296768D01*
X177874850Y-75296763D01*
X177890806Y-75262544D01*
X177937723Y-75209259D01*
X178006000Y-75189798D01*
X178073960Y-75210340D01*
X178119196Y-75262544D01*
X178135152Y-75296763D01*
X178135155Y-75296768D01*
X178137478Y-75301750D01*
X178268803Y-75489301D01*
X178430701Y-75651199D01*
X178435209Y-75654356D01*
X178435212Y-75654358D01*
X178476543Y-75683298D01*
X178618252Y-75782524D01*
X178623234Y-75784847D01*
X178623239Y-75784850D01*
X178820776Y-75876962D01*
X178825758Y-75879285D01*
X178831066Y-75880707D01*
X178831068Y-75880708D01*
X179041599Y-75937120D01*
X179041601Y-75937120D01*
X179046914Y-75938544D01*
X179275001Y-75958499D01*
X179503088Y-75938544D01*
X179508401Y-75937120D01*
X179508403Y-75937120D01*
X179718934Y-75880708D01*
X179718936Y-75880707D01*
X179724244Y-75879285D01*
X179729226Y-75876962D01*
X179926763Y-75784850D01*
X179926768Y-75784847D01*
X179931750Y-75782524D01*
X180073459Y-75683298D01*
X180114790Y-75654358D01*
X180114793Y-75654356D01*
X180119301Y-75651199D01*
X180281199Y-75489301D01*
X180412524Y-75301750D01*
X180414847Y-75296768D01*
X180414850Y-75296763D01*
X180430806Y-75262544D01*
X180477723Y-75209259D01*
X180546000Y-75189798D01*
X180613960Y-75210340D01*
X180659196Y-75262544D01*
X180675152Y-75296763D01*
X180675155Y-75296768D01*
X180677478Y-75301750D01*
X180808803Y-75489301D01*
X180970701Y-75651199D01*
X180975209Y-75654356D01*
X180975212Y-75654358D01*
X181016543Y-75683298D01*
X181158252Y-75782524D01*
X181163234Y-75784847D01*
X181163239Y-75784850D01*
X181360776Y-75876962D01*
X181365758Y-75879285D01*
X181371066Y-75880707D01*
X181371068Y-75880708D01*
X181581599Y-75937120D01*
X181581601Y-75937120D01*
X181586914Y-75938544D01*
X181815001Y-75958499D01*
X182043088Y-75938544D01*
X182048401Y-75937120D01*
X182048403Y-75937120D01*
X182258934Y-75880708D01*
X182258936Y-75880707D01*
X182264244Y-75879285D01*
X182269226Y-75876962D01*
X182466763Y-75784850D01*
X182466768Y-75784847D01*
X182471750Y-75782524D01*
X182613459Y-75683298D01*
X182654790Y-75654358D01*
X182654793Y-75654356D01*
X182659301Y-75651199D01*
X182821199Y-75489301D01*
X182952524Y-75301750D01*
X182954847Y-75296768D01*
X182954850Y-75296763D01*
X182970806Y-75262544D01*
X183017723Y-75209259D01*
X183086000Y-75189798D01*
X183153960Y-75210340D01*
X183199196Y-75262544D01*
X183215152Y-75296763D01*
X183215155Y-75296768D01*
X183217478Y-75301750D01*
X183348803Y-75489301D01*
X183510701Y-75651199D01*
X183515209Y-75654356D01*
X183515212Y-75654358D01*
X183556543Y-75683298D01*
X183698252Y-75782524D01*
X183703234Y-75784847D01*
X183703239Y-75784850D01*
X183900776Y-75876962D01*
X183905758Y-75879285D01*
X183911066Y-75880707D01*
X183911068Y-75880708D01*
X184121599Y-75937120D01*
X184121601Y-75937120D01*
X184126914Y-75938544D01*
X184355001Y-75958499D01*
X184583088Y-75938544D01*
X184588401Y-75937120D01*
X184588403Y-75937120D01*
X184798934Y-75880708D01*
X184798936Y-75880707D01*
X184804244Y-75879285D01*
X184809226Y-75876962D01*
X185006763Y-75784850D01*
X185006768Y-75784847D01*
X185011750Y-75782524D01*
X185153459Y-75683298D01*
X185194790Y-75654358D01*
X185194793Y-75654356D01*
X185199301Y-75651199D01*
X185361199Y-75489301D01*
X185492524Y-75301750D01*
X185494847Y-75296768D01*
X185494850Y-75296763D01*
X185510806Y-75262544D01*
X185557723Y-75209259D01*
X185626000Y-75189798D01*
X185693960Y-75210340D01*
G37*
%TD.AperFunction*%
%TD*%
%TA.AperFunction,Conductor*%
%TO.N,GND*%
G36*
X153159924Y-90959288D02*
G01*
X153153494Y-90971063D01*
X153162790Y-90983078D01*
X153213995Y-91018932D01*
X153223490Y-91024415D01*
X153420948Y-91116491D01*
X153431240Y-91120237D01*
X153641689Y-91176626D01*
X153652482Y-91178529D01*
X153869526Y-91197518D01*
X153880476Y-91197518D01*
X154097520Y-91178529D01*
X154108313Y-91176626D01*
X154318762Y-91120237D01*
X154329054Y-91116491D01*
X154526512Y-91024415D01*
X154536007Y-91018932D01*
X154588049Y-90982492D01*
X154596425Y-90972013D01*
X154589357Y-90958567D01*
X154054790Y-90424000D01*
X154773210Y-90424000D01*
X154949288Y-90600078D01*
X154961063Y-90606508D01*
X154973078Y-90597212D01*
X155008932Y-90546007D01*
X155014415Y-90536512D01*
X155030530Y-90501952D01*
X155077447Y-90448667D01*
X155145724Y-90429206D01*
X155213684Y-90449748D01*
X155258919Y-90501951D01*
X155275035Y-90536512D01*
X155277478Y-90541750D01*
X155408803Y-90729301D01*
X155570701Y-90891199D01*
X155575209Y-90894356D01*
X155575212Y-90894358D01*
X155653390Y-90949099D01*
X155758252Y-91022524D01*
X155763234Y-91024847D01*
X155763239Y-91024850D01*
X155959766Y-91116491D01*
X155965758Y-91119285D01*
X155971066Y-91120707D01*
X155971068Y-91120708D01*
X156181599Y-91177120D01*
X156181601Y-91177120D01*
X156186914Y-91178544D01*
X156415001Y-91198499D01*
X156643088Y-91178544D01*
X156648401Y-91177120D01*
X156648403Y-91177120D01*
X156858934Y-91120708D01*
X156858936Y-91120707D01*
X156864244Y-91119285D01*
X156870236Y-91116491D01*
X157066763Y-91024850D01*
X157066768Y-91024847D01*
X157071750Y-91022524D01*
X157176612Y-90949099D01*
X157254790Y-90894358D01*
X157254793Y-90894356D01*
X157259301Y-90891199D01*
X157421199Y-90729301D01*
X157552524Y-90541750D01*
X157570807Y-90502542D01*
X157617723Y-90449258D01*
X157686000Y-90429797D01*
X157753960Y-90450339D01*
X157799195Y-90502542D01*
X157817478Y-90541750D01*
X157948803Y-90729301D01*
X158110701Y-90891199D01*
X158115209Y-90894356D01*
X158115212Y-90894358D01*
X158193390Y-90949099D01*
X158298252Y-91022524D01*
X158303234Y-91024847D01*
X158303239Y-91024850D01*
X158499766Y-91116491D01*
X158505758Y-91119285D01*
X158511066Y-91120707D01*
X158511068Y-91120708D01*
X158721599Y-91177120D01*
X158721601Y-91177120D01*
X158726914Y-91178544D01*
X158955001Y-91198499D01*
X159183088Y-91178544D01*
X159188401Y-91177120D01*
X159188403Y-91177120D01*
X159398934Y-91120708D01*
X159398936Y-91120707D01*
X159404244Y-91119285D01*
X159410236Y-91116491D01*
X159606763Y-91024850D01*
X159606768Y-91024847D01*
X159611750Y-91022524D01*
X159716612Y-90949099D01*
X159794790Y-90894358D01*
X159794793Y-90894356D01*
X159799301Y-90891199D01*
X159961199Y-90729301D01*
X160092524Y-90541750D01*
X160110807Y-90502542D01*
X160157723Y-90449258D01*
X160226000Y-90429797D01*
X160293960Y-90450339D01*
X160339195Y-90502542D01*
X160357478Y-90541750D01*
X160488803Y-90729301D01*
X160650701Y-90891199D01*
X160655209Y-90894356D01*
X160655212Y-90894358D01*
X160733390Y-90949099D01*
X160838252Y-91022524D01*
X160843234Y-91024847D01*
X160843239Y-91024850D01*
X161039766Y-91116491D01*
X161045758Y-91119285D01*
X161051066Y-91120707D01*
X161051068Y-91120708D01*
X161261599Y-91177120D01*
X161261601Y-91177120D01*
X161266914Y-91178544D01*
X161495001Y-91198499D01*
X161723088Y-91178544D01*
X161728401Y-91177120D01*
X161728403Y-91177120D01*
X161938934Y-91120708D01*
X161938936Y-91120707D01*
X161944244Y-91119285D01*
X161950236Y-91116491D01*
X162146763Y-91024850D01*
X162146768Y-91024847D01*
X162151750Y-91022524D01*
X162256612Y-90949099D01*
X162334790Y-90894358D01*
X162334793Y-90894356D01*
X162339301Y-90891199D01*
X162501199Y-90729301D01*
X162632524Y-90541750D01*
X162650807Y-90502542D01*
X162697723Y-90449258D01*
X162766000Y-90429797D01*
X162833960Y-90450339D01*
X162879195Y-90502542D01*
X162897478Y-90541750D01*
X163028803Y-90729301D01*
X163190701Y-90891199D01*
X163195209Y-90894356D01*
X163195212Y-90894358D01*
X163273390Y-90949099D01*
X163378252Y-91022524D01*
X163383234Y-91024847D01*
X163383239Y-91024850D01*
X163579766Y-91116491D01*
X163585758Y-91119285D01*
X163591066Y-91120707D01*
X163591068Y-91120708D01*
X163801599Y-91177120D01*
X163801601Y-91177120D01*
X163806914Y-91178544D01*
X164035001Y-91198499D01*
X164263088Y-91178544D01*
X164268401Y-91177120D01*
X164268403Y-91177120D01*
X164478934Y-91120708D01*
X164478936Y-91120707D01*
X164484244Y-91119285D01*
X164490236Y-91116491D01*
X164686763Y-91024850D01*
X164686768Y-91024847D01*
X164691750Y-91022524D01*
X164796612Y-90949099D01*
X164874790Y-90894358D01*
X164874793Y-90894356D01*
X164879301Y-90891199D01*
X165041199Y-90729301D01*
X165172524Y-90541750D01*
X165190807Y-90502542D01*
X165237723Y-90449258D01*
X165306000Y-90429797D01*
X165373960Y-90450339D01*
X165419195Y-90502542D01*
X165437478Y-90541750D01*
X165568803Y-90729301D01*
X165730701Y-90891199D01*
X165735209Y-90894356D01*
X165735212Y-90894358D01*
X165813390Y-90949099D01*
X165918252Y-91022524D01*
X165923234Y-91024847D01*
X165923239Y-91024850D01*
X166119766Y-91116491D01*
X166125758Y-91119285D01*
X166131066Y-91120707D01*
X166131068Y-91120708D01*
X166341599Y-91177120D01*
X166341601Y-91177120D01*
X166346914Y-91178544D01*
X166575001Y-91198499D01*
X166803088Y-91178544D01*
X166808401Y-91177120D01*
X166808403Y-91177120D01*
X167018934Y-91120708D01*
X167018936Y-91120707D01*
X167024244Y-91119285D01*
X167030236Y-91116491D01*
X167226763Y-91024850D01*
X167226768Y-91024847D01*
X167231750Y-91022524D01*
X167336612Y-90949099D01*
X167414790Y-90894358D01*
X167414793Y-90894356D01*
X167419301Y-90891199D01*
X167581199Y-90729301D01*
X167712524Y-90541750D01*
X167730807Y-90502542D01*
X167777723Y-90449258D01*
X167846000Y-90429797D01*
X167913960Y-90450339D01*
X167959195Y-90502542D01*
X167977478Y-90541750D01*
X168108803Y-90729301D01*
X168270701Y-90891199D01*
X168275209Y-90894356D01*
X168275212Y-90894358D01*
X168353390Y-90949099D01*
X168458252Y-91022524D01*
X168463234Y-91024847D01*
X168463239Y-91024850D01*
X168659766Y-91116491D01*
X168665758Y-91119285D01*
X168671066Y-91120707D01*
X168671068Y-91120708D01*
X168881599Y-91177120D01*
X168881601Y-91177120D01*
X168886914Y-91178544D01*
X169115001Y-91198499D01*
X169343088Y-91178544D01*
X169348401Y-91177120D01*
X169348403Y-91177120D01*
X169558934Y-91120708D01*
X169558936Y-91120707D01*
X169564244Y-91119285D01*
X169570236Y-91116491D01*
X169766763Y-91024850D01*
X169766768Y-91024847D01*
X169771750Y-91022524D01*
X169876612Y-90949099D01*
X169954790Y-90894358D01*
X169954793Y-90894356D01*
X169959301Y-90891199D01*
X170121199Y-90729301D01*
X170252524Y-90541750D01*
X170270807Y-90502542D01*
X170317723Y-90449258D01*
X170386000Y-90429797D01*
X170453960Y-90450339D01*
X170499195Y-90502542D01*
X170517478Y-90541750D01*
X170648803Y-90729301D01*
X170810701Y-90891199D01*
X170815209Y-90894356D01*
X170815212Y-90894358D01*
X170893390Y-90949099D01*
X170998252Y-91022524D01*
X171003234Y-91024847D01*
X171003239Y-91024850D01*
X171199766Y-91116491D01*
X171205758Y-91119285D01*
X171211066Y-91120707D01*
X171211068Y-91120708D01*
X171421599Y-91177120D01*
X171421601Y-91177120D01*
X171426914Y-91178544D01*
X171655001Y-91198499D01*
X171883088Y-91178544D01*
X171888401Y-91177120D01*
X171888403Y-91177120D01*
X172098934Y-91120708D01*
X172098936Y-91120707D01*
X172104244Y-91119285D01*
X172110236Y-91116491D01*
X172306763Y-91024850D01*
X172306768Y-91024847D01*
X172311750Y-91022524D01*
X172416612Y-90949099D01*
X172494790Y-90894358D01*
X172494793Y-90894356D01*
X172499301Y-90891199D01*
X172661199Y-90729301D01*
X172792524Y-90541750D01*
X172810807Y-90502542D01*
X172857723Y-90449258D01*
X172926000Y-90429797D01*
X172993960Y-90450339D01*
X173039195Y-90502542D01*
X173057478Y-90541750D01*
X173188803Y-90729301D01*
X173350701Y-90891199D01*
X173355209Y-90894356D01*
X173355212Y-90894358D01*
X173433390Y-90949099D01*
X173538252Y-91022524D01*
X173543234Y-91024847D01*
X173543239Y-91024850D01*
X173739766Y-91116491D01*
X173745758Y-91119285D01*
X173751066Y-91120707D01*
X173751068Y-91120708D01*
X173961599Y-91177120D01*
X173961601Y-91177120D01*
X173966914Y-91178544D01*
X174195001Y-91198499D01*
X174423088Y-91178544D01*
X174428401Y-91177120D01*
X174428403Y-91177120D01*
X174638934Y-91120708D01*
X174638936Y-91120707D01*
X174644244Y-91119285D01*
X174650236Y-91116491D01*
X174846763Y-91024850D01*
X174846768Y-91024847D01*
X174851750Y-91022524D01*
X174956612Y-90949099D01*
X175034790Y-90894358D01*
X175034793Y-90894356D01*
X175039301Y-90891199D01*
X175201199Y-90729301D01*
X175332524Y-90541750D01*
X175350807Y-90502542D01*
X175397723Y-90449258D01*
X175466000Y-90429797D01*
X175533960Y-90450339D01*
X175579195Y-90502542D01*
X175597478Y-90541750D01*
X175728803Y-90729301D01*
X175890701Y-90891199D01*
X175895209Y-90894356D01*
X175895212Y-90894358D01*
X175973390Y-90949099D01*
X176078252Y-91022524D01*
X176083234Y-91024847D01*
X176083239Y-91024850D01*
X176279766Y-91116491D01*
X176285758Y-91119285D01*
X176291066Y-91120707D01*
X176291068Y-91120708D01*
X176501599Y-91177120D01*
X176501601Y-91177120D01*
X176506914Y-91178544D01*
X176735001Y-91198499D01*
X176963088Y-91178544D01*
X176968401Y-91177120D01*
X176968403Y-91177120D01*
X177178934Y-91120708D01*
X177178936Y-91120707D01*
X177184244Y-91119285D01*
X177190236Y-91116491D01*
X177386763Y-91024850D01*
X177386768Y-91024847D01*
X177391750Y-91022524D01*
X177496612Y-90949099D01*
X177574790Y-90894358D01*
X177574793Y-90894356D01*
X177579301Y-90891199D01*
X177741199Y-90729301D01*
X177872524Y-90541750D01*
X177890807Y-90502542D01*
X177937723Y-90449258D01*
X178006000Y-90429797D01*
X178073960Y-90450339D01*
X178119195Y-90502542D01*
X178137478Y-90541750D01*
X178268803Y-90729301D01*
X178430701Y-90891199D01*
X178435209Y-90894356D01*
X178435212Y-90894358D01*
X178513390Y-90949099D01*
X178618252Y-91022524D01*
X178623234Y-91024847D01*
X178623239Y-91024850D01*
X178819766Y-91116491D01*
X178825758Y-91119285D01*
X178831066Y-91120707D01*
X178831068Y-91120708D01*
X179041599Y-91177120D01*
X179041601Y-91177120D01*
X179046914Y-91178544D01*
X179275001Y-91198499D01*
X179503088Y-91178544D01*
X179508401Y-91177120D01*
X179508403Y-91177120D01*
X179718934Y-91120708D01*
X179718936Y-91120707D01*
X179724244Y-91119285D01*
X179730236Y-91116491D01*
X179926763Y-91024850D01*
X179926768Y-91024847D01*
X179931750Y-91022524D01*
X180036612Y-90949099D01*
X180114790Y-90894358D01*
X180114793Y-90894356D01*
X180119301Y-90891199D01*
X180281199Y-90729301D01*
X180412524Y-90541750D01*
X180430807Y-90502542D01*
X180477723Y-90449258D01*
X180546000Y-90429797D01*
X180613960Y-90450339D01*
X180659195Y-90502542D01*
X180677478Y-90541750D01*
X180808803Y-90729301D01*
X180970701Y-90891199D01*
X180975209Y-90894356D01*
X180975212Y-90894358D01*
X181053390Y-90949099D01*
X181158252Y-91022524D01*
X181163234Y-91024847D01*
X181163239Y-91024850D01*
X181359766Y-91116491D01*
X181365758Y-91119285D01*
X181371066Y-91120707D01*
X181371068Y-91120708D01*
X181581599Y-91177120D01*
X181581601Y-91177120D01*
X181586914Y-91178544D01*
X181815001Y-91198499D01*
X182043088Y-91178544D01*
X182048401Y-91177120D01*
X182048403Y-91177120D01*
X182258934Y-91120708D01*
X182258936Y-91120707D01*
X182264244Y-91119285D01*
X182270236Y-91116491D01*
X182466763Y-91024850D01*
X182466768Y-91024847D01*
X182471750Y-91022524D01*
X182576612Y-90949099D01*
X182654790Y-90894358D01*
X182654793Y-90894356D01*
X182659301Y-90891199D01*
X182821199Y-90729301D01*
X182952524Y-90541750D01*
X182970807Y-90502542D01*
X183017723Y-90449258D01*
X183086000Y-90429797D01*
X183153960Y-90450339D01*
X183199195Y-90502542D01*
X183217478Y-90541750D01*
X183348803Y-90729301D01*
X183510701Y-90891199D01*
X183515209Y-90894356D01*
X183515212Y-90894358D01*
X183593390Y-90949099D01*
X183698252Y-91022524D01*
X183703234Y-91024847D01*
X183703239Y-91024850D01*
X183899766Y-91116491D01*
X183905758Y-91119285D01*
X183911066Y-91120707D01*
X183911068Y-91120708D01*
X184121599Y-91177120D01*
X184121601Y-91177120D01*
X184126914Y-91178544D01*
X184355001Y-91198499D01*
X184583088Y-91178544D01*
X184588401Y-91177120D01*
X184588403Y-91177120D01*
X184798934Y-91120708D01*
X184798936Y-91120707D01*
X184804244Y-91119285D01*
X184810236Y-91116491D01*
X185006763Y-91024850D01*
X185006768Y-91024847D01*
X185011750Y-91022524D01*
X185116612Y-90949099D01*
X185194790Y-90894358D01*
X185194793Y-90894356D01*
X185199301Y-90891199D01*
X185361199Y-90729301D01*
X185492524Y-90541750D01*
X185510807Y-90502542D01*
X185557723Y-90449258D01*
X185626000Y-90429797D01*
X185693960Y-90450339D01*
X185739195Y-90502542D01*
X185757478Y-90541750D01*
X185888803Y-90729301D01*
X186050701Y-90891199D01*
X186055209Y-90894356D01*
X186055212Y-90894358D01*
X186133390Y-90949099D01*
X186238252Y-91022524D01*
X186243234Y-91024847D01*
X186243239Y-91024850D01*
X186439766Y-91116491D01*
X186445758Y-91119285D01*
X186451066Y-91120707D01*
X186451068Y-91120708D01*
X186661599Y-91177120D01*
X186661601Y-91177120D01*
X186666914Y-91178544D01*
X186895001Y-91198499D01*
X187123088Y-91178544D01*
X187128401Y-91177120D01*
X187128403Y-91177120D01*
X187338934Y-91120708D01*
X187338936Y-91120707D01*
X187344244Y-91119285D01*
X187350236Y-91116491D01*
X187546763Y-91024850D01*
X187546768Y-91024847D01*
X187551750Y-91022524D01*
X187656612Y-90949099D01*
X187734790Y-90894358D01*
X187734793Y-90894356D01*
X187739301Y-90891199D01*
X187901199Y-90729301D01*
X188032524Y-90541750D01*
X188050807Y-90502542D01*
X188097723Y-90449258D01*
X188166000Y-90429797D01*
X188233960Y-90450339D01*
X188279195Y-90502542D01*
X188297478Y-90541750D01*
X188428803Y-90729301D01*
X188590701Y-90891199D01*
X188595209Y-90894356D01*
X188595212Y-90894358D01*
X188673390Y-90949099D01*
X188778252Y-91022524D01*
X188783234Y-91024847D01*
X188783239Y-91024850D01*
X188979766Y-91116491D01*
X188985758Y-91119285D01*
X188991066Y-91120707D01*
X188991068Y-91120708D01*
X189201599Y-91177120D01*
X189201601Y-91177120D01*
X189206914Y-91178544D01*
X189368982Y-91192723D01*
X189435100Y-91218586D01*
X189476739Y-91276090D01*
X189484000Y-91318244D01*
X189484000Y-107569500D01*
X189463998Y-107637621D01*
X189410342Y-107684114D01*
X189358000Y-107695500D01*
X131190000Y-107695500D01*
X131121879Y-107675498D01*
X131075386Y-107621842D01*
X131064000Y-107569500D01*
X131064000Y-105373263D01*
X157246813Y-105373263D01*
X157260997Y-105619266D01*
X157262134Y-105624312D01*
X157262135Y-105624318D01*
X157285446Y-105727756D01*
X157315170Y-105859649D01*
X157317112Y-105864431D01*
X157317113Y-105864435D01*
X157405932Y-106083169D01*
X157407876Y-106087956D01*
X157536625Y-106298056D01*
X157540009Y-106301962D01*
X157540010Y-106301964D01*
X157577811Y-106345602D01*
X157697961Y-106484307D01*
X157701936Y-106487607D01*
X157701940Y-106487611D01*
X157719826Y-106502460D01*
X157887550Y-106641707D01*
X158100300Y-106766028D01*
X158105120Y-106767868D01*
X158105125Y-106767871D01*
X158258147Y-106826304D01*
X158330499Y-106853932D01*
X158335567Y-106854963D01*
X158335570Y-106854964D01*
X158452733Y-106878801D01*
X158571964Y-106903059D01*
X158577137Y-106903249D01*
X158577140Y-106903249D01*
X158813045Y-106911899D01*
X158813049Y-106911899D01*
X158818209Y-106912088D01*
X158823329Y-106911432D01*
X158823331Y-106911432D01*
X159057496Y-106881435D01*
X159057497Y-106881435D01*
X159062624Y-106880778D01*
X159069214Y-106878801D01*
X159293687Y-106811456D01*
X159293692Y-106811454D01*
X159298642Y-106809969D01*
X159384575Y-106767871D01*
X159515275Y-106703842D01*
X159515280Y-106703839D01*
X159519926Y-106701563D01*
X159524136Y-106698560D01*
X159524141Y-106698557D01*
X159610056Y-106637274D01*
X160427970Y-106637274D01*
X160432943Y-106644278D01*
X160636059Y-106762970D01*
X160645342Y-106767417D01*
X160865808Y-106851605D01*
X160875706Y-106854481D01*
X161106962Y-106901530D01*
X161117190Y-106902749D01*
X161353023Y-106911398D01*
X161363309Y-106910931D01*
X161597388Y-106880944D01*
X161607474Y-106878801D01*
X161833509Y-106810987D01*
X161843104Y-106807226D01*
X162055020Y-106703410D01*
X162063878Y-106698130D01*
X162203722Y-106598380D01*
X162270796Y-106575107D01*
X162339804Y-106591790D01*
X162386810Y-106639835D01*
X162389385Y-106646705D01*
X162476739Y-106763261D01*
X162593295Y-106850615D01*
X162729684Y-106901745D01*
X162791866Y-106908500D01*
X164868134Y-106908500D01*
X164930316Y-106901745D01*
X165066705Y-106850615D01*
X165183261Y-106763261D01*
X165270615Y-106646705D01*
X165321745Y-106510316D01*
X165328500Y-106448134D01*
X165328500Y-104371866D01*
X165321745Y-104309684D01*
X165270615Y-104173295D01*
X165183261Y-104056739D01*
X165066705Y-103969385D01*
X164930316Y-103918255D01*
X164868134Y-103911500D01*
X162791866Y-103911500D01*
X162729684Y-103918255D01*
X162593295Y-103969385D01*
X162476739Y-104056739D01*
X162471358Y-104063919D01*
X162394771Y-104166108D01*
X162394770Y-104166110D01*
X162389385Y-104173295D01*
X162386652Y-104180587D01*
X162336819Y-104230308D01*
X162267428Y-104245323D01*
X162198464Y-104218536D01*
X162125880Y-104161213D01*
X162117293Y-104155508D01*
X161910703Y-104041464D01*
X161901291Y-104037234D01*
X161678844Y-103958461D01*
X161668873Y-103955827D01*
X161436546Y-103914443D01*
X161426294Y-103913474D01*
X161190317Y-103910591D01*
X161180033Y-103911311D01*
X160946765Y-103947006D01*
X160936737Y-103949395D01*
X160712430Y-104022709D01*
X160702921Y-104026706D01*
X160493605Y-104135669D01*
X160484880Y-104141163D01*
X160439678Y-104175102D01*
X160431224Y-104186429D01*
X160437969Y-104198759D01*
X161560115Y-105320905D01*
X161594141Y-105383217D01*
X161589076Y-105454032D01*
X161560115Y-105499095D01*
X160435228Y-106623982D01*
X160427970Y-106637274D01*
X159610056Y-106637274D01*
X159716321Y-106561476D01*
X159716326Y-106561472D01*
X159720533Y-106558471D01*
X159761432Y-106517715D01*
X159891420Y-106388179D01*
X159895076Y-106384536D01*
X159939957Y-106322078D01*
X159995952Y-106278431D01*
X160062878Y-106271300D01*
X160063468Y-106271398D01*
X160073880Y-106266910D01*
X160917978Y-105422812D01*
X160925592Y-105408868D01*
X160925461Y-105407035D01*
X160921210Y-105400420D01*
X160079097Y-104558307D01*
X160065152Y-104550692D01*
X160057046Y-104551272D01*
X159987672Y-104536180D01*
X159948635Y-104499957D01*
X159947278Y-104501002D01*
X159944125Y-104496908D01*
X159941315Y-104492564D01*
X159937596Y-104488476D01*
X159880269Y-104425475D01*
X159775477Y-104310310D01*
X159771426Y-104307111D01*
X159771422Y-104307107D01*
X159618616Y-104186429D01*
X159582099Y-104157590D01*
X159412416Y-104063919D01*
X159370906Y-104041004D01*
X159370903Y-104041003D01*
X159366375Y-104038503D01*
X159134097Y-103956250D01*
X159083847Y-103947299D01*
X158896593Y-103913943D01*
X158896589Y-103913943D01*
X158891505Y-103913037D01*
X158812086Y-103912067D01*
X158650282Y-103910090D01*
X158650280Y-103910090D01*
X158645112Y-103910027D01*
X158401536Y-103947299D01*
X158167318Y-104023853D01*
X158162730Y-104026241D01*
X158162726Y-104026243D01*
X157953337Y-104135244D01*
X157948748Y-104137633D01*
X157944615Y-104140736D01*
X157944612Y-104140738D01*
X157825317Y-104230308D01*
X157751697Y-104285584D01*
X157724415Y-104314133D01*
X157590768Y-104453986D01*
X157581455Y-104463731D01*
X157578541Y-104468003D01*
X157578540Y-104468004D01*
X157445515Y-104663011D01*
X157445512Y-104663016D01*
X157442596Y-104667291D01*
X157440420Y-104671980D01*
X157440416Y-104671986D01*
X157341025Y-104886106D01*
X157338848Y-104890797D01*
X157337468Y-104895775D01*
X157337466Y-104895779D01*
X157274377Y-105123274D01*
X157272998Y-105128247D01*
X157246813Y-105373263D01*
X131064000Y-105373263D01*
X131064000Y-102073634D01*
X146215000Y-102073634D01*
X146221755Y-102135816D01*
X146272885Y-102272205D01*
X146360239Y-102388761D01*
X146476795Y-102476115D01*
X146613184Y-102527245D01*
X146675366Y-102534000D01*
X147687418Y-102534000D01*
X147755539Y-102554002D01*
X147776513Y-102570905D01*
X149570766Y-104365158D01*
X149571694Y-104366095D01*
X149611021Y-104406254D01*
X149634771Y-104430507D01*
X149671221Y-104453998D01*
X149681546Y-104461417D01*
X149715443Y-104488476D01*
X149721784Y-104491541D01*
X149721785Y-104491542D01*
X149745637Y-104503072D01*
X149759054Y-104510601D01*
X149787238Y-104528765D01*
X149793855Y-104531173D01*
X149793860Y-104531176D01*
X149827973Y-104543592D01*
X149839716Y-104548553D01*
X149872403Y-104564354D01*
X149872408Y-104564356D01*
X149878749Y-104567421D01*
X149885607Y-104569004D01*
X149885609Y-104569005D01*
X149911426Y-104574965D01*
X149926169Y-104579332D01*
X149957685Y-104590803D01*
X149964675Y-104591686D01*
X149964683Y-104591688D01*
X150000701Y-104596238D01*
X150013253Y-104598474D01*
X150048614Y-104606638D01*
X150048617Y-104606638D01*
X150055485Y-104608224D01*
X150062531Y-104608249D01*
X150062534Y-104608249D01*
X150096056Y-104608366D01*
X150096938Y-104608395D01*
X150097769Y-104608500D01*
X150134419Y-104608500D01*
X150134859Y-104608501D01*
X150233343Y-104608845D01*
X150233348Y-104608845D01*
X150236870Y-104608857D01*
X150238070Y-104608589D01*
X150239707Y-104608500D01*
X154596386Y-104608500D01*
X154597706Y-104608507D01*
X154687821Y-104609451D01*
X154730197Y-104600289D01*
X154742763Y-104598231D01*
X154785855Y-104593397D01*
X154792506Y-104591081D01*
X154792510Y-104591080D01*
X154817530Y-104582367D01*
X154832342Y-104578204D01*
X154858219Y-104572609D01*
X154865110Y-104571119D01*
X154904413Y-104552792D01*
X154916189Y-104548010D01*
X154957152Y-104533745D01*
X154963127Y-104530011D01*
X154963130Y-104530010D01*
X154985595Y-104515973D01*
X154999112Y-104508634D01*
X155023114Y-104497441D01*
X155023115Y-104497440D01*
X155029502Y-104494462D01*
X155063753Y-104467894D01*
X155074212Y-104460598D01*
X155105004Y-104441358D01*
X155105007Y-104441356D01*
X155110976Y-104437626D01*
X155139779Y-104409024D01*
X155140404Y-104408439D01*
X155141070Y-104407922D01*
X155167060Y-104381932D01*
X155239682Y-104309815D01*
X155240340Y-104308778D01*
X155241443Y-104307549D01*
X158208189Y-101340803D01*
X176963500Y-101340803D01*
X176963712Y-101343376D01*
X176963712Y-101343387D01*
X176977729Y-101513876D01*
X176977730Y-101513882D01*
X176978153Y-101519027D01*
X176994996Y-101586081D01*
X177033635Y-101739910D01*
X177036580Y-101751636D01*
X177038636Y-101756366D01*
X177038639Y-101756373D01*
X177114725Y-101931358D01*
X177132213Y-101971578D01*
X177135017Y-101975912D01*
X177135019Y-101975916D01*
X177243250Y-102143215D01*
X177262485Y-102172947D01*
X177265964Y-102176770D01*
X177265966Y-102176773D01*
X177420087Y-102346149D01*
X177423896Y-102350335D01*
X177427947Y-102353534D01*
X177427951Y-102353538D01*
X177479365Y-102394142D01*
X177612112Y-102498979D01*
X177822078Y-102614887D01*
X177944542Y-102658254D01*
X178043280Y-102693219D01*
X178043284Y-102693220D01*
X178048155Y-102694945D01*
X178053248Y-102695852D01*
X178053251Y-102695853D01*
X178279184Y-102736098D01*
X178279190Y-102736099D01*
X178284273Y-102737004D01*
X178371540Y-102738070D01*
X178518919Y-102739871D01*
X178518921Y-102739871D01*
X178524089Y-102739934D01*
X178761163Y-102703657D01*
X178989129Y-102629146D01*
X179163998Y-102538115D01*
X179197275Y-102520792D01*
X179197276Y-102520791D01*
X179201864Y-102518403D01*
X179205997Y-102515300D01*
X179206000Y-102515298D01*
X179389520Y-102377507D01*
X179389523Y-102377505D01*
X179393655Y-102374402D01*
X179472520Y-102291875D01*
X179555781Y-102204747D01*
X179555782Y-102204746D01*
X179559352Y-102201010D01*
X179694505Y-102002883D01*
X179795484Y-101785344D01*
X179847260Y-101598642D01*
X179858197Y-101559205D01*
X179858197Y-101559204D01*
X179859576Y-101554232D01*
X179870660Y-101450521D01*
X179880144Y-101361778D01*
X179880144Y-101361770D01*
X179880500Y-101358443D01*
X179880500Y-101338190D01*
X182894000Y-101338190D01*
X182894212Y-101343363D01*
X182908224Y-101513794D01*
X182909907Y-101523956D01*
X182965796Y-101746461D01*
X182969117Y-101756216D01*
X183060591Y-101966590D01*
X183065469Y-101975688D01*
X183190075Y-102168301D01*
X183196359Y-102176461D01*
X183350763Y-102346149D01*
X183358293Y-102353170D01*
X183538332Y-102495356D01*
X183546919Y-102501061D01*
X183747750Y-102611926D01*
X183757162Y-102616156D01*
X183973416Y-102692736D01*
X183983366Y-102695365D01*
X184080164Y-102712607D01*
X184093460Y-102711148D01*
X184097540Y-102698067D01*
X184606000Y-102698067D01*
X184609918Y-102711411D01*
X184624194Y-102713398D01*
X184685933Y-102703950D01*
X184695961Y-102701561D01*
X184914016Y-102630290D01*
X184923525Y-102626293D01*
X185127007Y-102520367D01*
X185135732Y-102514873D01*
X185319187Y-102377131D01*
X185326894Y-102370288D01*
X185485391Y-102204431D01*
X185491874Y-102196425D01*
X185621155Y-102006906D01*
X185626244Y-101997947D01*
X185722837Y-101789855D01*
X185726394Y-101780187D01*
X185787701Y-101559121D01*
X185789632Y-101549001D01*
X185809644Y-101361748D01*
X185810000Y-101355056D01*
X185810000Y-100602115D01*
X185805525Y-100586876D01*
X185804135Y-100585671D01*
X185796452Y-100584000D01*
X184624115Y-100584000D01*
X184608876Y-100588475D01*
X184607671Y-100589865D01*
X184606000Y-100597548D01*
X184606000Y-102698067D01*
X184097540Y-102698067D01*
X184098000Y-102696592D01*
X184098000Y-100602115D01*
X184093525Y-100586876D01*
X184092135Y-100585671D01*
X184084452Y-100584000D01*
X182912115Y-100584000D01*
X182896876Y-100588475D01*
X182895671Y-100589865D01*
X182894000Y-100597548D01*
X182894000Y-101338190D01*
X179880500Y-101338190D01*
X179880500Y-100057885D01*
X182894000Y-100057885D01*
X182898475Y-100073124D01*
X182899865Y-100074329D01*
X182907548Y-100076000D01*
X184079885Y-100076000D01*
X184095124Y-100071525D01*
X184096329Y-100070135D01*
X184098000Y-100062452D01*
X184098000Y-100057885D01*
X184606000Y-100057885D01*
X184610475Y-100073124D01*
X184611865Y-100074329D01*
X184619548Y-100076000D01*
X185791885Y-100076000D01*
X185807124Y-100071525D01*
X185808329Y-100070135D01*
X185810000Y-100062452D01*
X185810000Y-99321810D01*
X185809788Y-99316637D01*
X185795776Y-99146206D01*
X185794093Y-99136044D01*
X185738204Y-98913539D01*
X185734883Y-98903784D01*
X185643409Y-98693410D01*
X185638531Y-98684312D01*
X185513925Y-98491699D01*
X185507641Y-98483539D01*
X185353237Y-98313851D01*
X185345707Y-98306830D01*
X185165668Y-98164644D01*
X185157081Y-98158939D01*
X184956250Y-98048074D01*
X184946838Y-98043844D01*
X184730584Y-97967264D01*
X184720634Y-97964635D01*
X184623836Y-97947393D01*
X184610540Y-97948852D01*
X184606000Y-97963408D01*
X184606000Y-100057885D01*
X184098000Y-100057885D01*
X184098000Y-97961933D01*
X184094082Y-97948589D01*
X184079806Y-97946602D01*
X184018067Y-97956050D01*
X184008039Y-97958439D01*
X183789984Y-98029710D01*
X183780475Y-98033707D01*
X183576993Y-98139633D01*
X183568268Y-98145127D01*
X183384813Y-98282869D01*
X183377106Y-98289712D01*
X183218609Y-98455569D01*
X183212126Y-98463575D01*
X183082845Y-98653094D01*
X183077756Y-98662053D01*
X182981163Y-98870145D01*
X182977606Y-98879813D01*
X182916299Y-99100879D01*
X182914368Y-99110999D01*
X182894356Y-99298252D01*
X182894000Y-99304944D01*
X182894000Y-100057885D01*
X179880500Y-100057885D01*
X179880500Y-99319197D01*
X179880288Y-99316613D01*
X179866271Y-99146124D01*
X179866270Y-99146118D01*
X179865847Y-99140973D01*
X179807420Y-98908364D01*
X179805364Y-98903634D01*
X179805361Y-98903627D01*
X179713847Y-98693159D01*
X179713845Y-98693156D01*
X179711787Y-98688422D01*
X179694574Y-98661814D01*
X179584325Y-98491396D01*
X179584323Y-98491393D01*
X179581515Y-98487053D01*
X179552580Y-98455253D01*
X179423582Y-98313487D01*
X179423580Y-98313486D01*
X179420104Y-98309665D01*
X179416053Y-98306466D01*
X179416049Y-98306462D01*
X179255167Y-98179406D01*
X179231888Y-98161021D01*
X179021922Y-98045113D01*
X178899458Y-98001746D01*
X178800720Y-97966781D01*
X178800716Y-97966780D01*
X178795845Y-97965055D01*
X178790752Y-97964148D01*
X178790749Y-97964147D01*
X178564816Y-97923902D01*
X178564810Y-97923901D01*
X178559727Y-97922996D01*
X178472460Y-97921930D01*
X178325081Y-97920129D01*
X178325079Y-97920129D01*
X178319911Y-97920066D01*
X178082837Y-97956343D01*
X177854871Y-98030854D01*
X177642136Y-98141597D01*
X177638003Y-98144700D01*
X177638000Y-98144702D01*
X177454480Y-98282493D01*
X177450345Y-98285598D01*
X177284648Y-98458990D01*
X177281734Y-98463262D01*
X177281733Y-98463263D01*
X177231587Y-98536775D01*
X177149495Y-98657117D01*
X177048516Y-98874656D01*
X176984424Y-99105768D01*
X176975721Y-99187200D01*
X176966503Y-99273460D01*
X176963500Y-99301557D01*
X176963500Y-101340803D01*
X158208189Y-101340803D01*
X159032064Y-100516928D01*
X159094376Y-100482902D01*
X159132141Y-100480503D01*
X159218400Y-100488050D01*
X159223875Y-100487571D01*
X159223878Y-100487571D01*
X159305473Y-100480432D01*
X159444290Y-100468287D01*
X159449603Y-100466863D01*
X159449605Y-100466863D01*
X159658007Y-100411022D01*
X159658009Y-100411021D01*
X159663317Y-100409599D01*
X159668299Y-100407276D01*
X159863838Y-100316095D01*
X159863843Y-100316092D01*
X159868825Y-100313769D01*
X159888661Y-100299880D01*
X160050059Y-100186868D01*
X160050062Y-100186866D01*
X160054570Y-100183709D01*
X160214909Y-100023370D01*
X160223404Y-100011239D01*
X160341812Y-99842134D01*
X160341813Y-99842132D01*
X160344969Y-99837625D01*
X160347292Y-99832643D01*
X160347295Y-99832638D01*
X160438476Y-99637099D01*
X160438477Y-99637098D01*
X160440799Y-99632117D01*
X160499487Y-99413090D01*
X160519250Y-99187200D01*
X160499487Y-98961310D01*
X160476268Y-98874656D01*
X160442222Y-98747593D01*
X160442221Y-98747591D01*
X160440799Y-98742283D01*
X160413767Y-98684312D01*
X160347295Y-98541762D01*
X160347292Y-98541757D01*
X160344969Y-98536775D01*
X160341812Y-98532266D01*
X160218068Y-98355541D01*
X160218066Y-98355538D01*
X160214909Y-98351030D01*
X160054570Y-98190691D01*
X160050062Y-98187534D01*
X160050059Y-98187532D01*
X159873334Y-98063788D01*
X159873332Y-98063787D01*
X159868825Y-98060631D01*
X159863843Y-98058308D01*
X159863838Y-98058305D01*
X159668299Y-97967124D01*
X159668298Y-97967123D01*
X159663317Y-97964801D01*
X159658009Y-97963379D01*
X159658007Y-97963378D01*
X159449605Y-97907537D01*
X159449603Y-97907537D01*
X159444290Y-97906113D01*
X159218400Y-97886350D01*
X158992510Y-97906113D01*
X158987197Y-97907537D01*
X158987195Y-97907537D01*
X158778793Y-97963378D01*
X158778791Y-97963379D01*
X158773483Y-97964801D01*
X158768502Y-97967123D01*
X158768501Y-97967124D01*
X158572962Y-98058305D01*
X158572957Y-98058308D01*
X158567975Y-98060631D01*
X158563468Y-98063787D01*
X158563466Y-98063788D01*
X158386741Y-98187532D01*
X158386738Y-98187534D01*
X158382230Y-98190691D01*
X158221891Y-98351030D01*
X158218734Y-98355538D01*
X158218732Y-98355541D01*
X158094988Y-98532266D01*
X158091831Y-98536775D01*
X158089508Y-98541757D01*
X158089505Y-98541762D01*
X158023033Y-98684312D01*
X157996001Y-98742283D01*
X157994579Y-98747591D01*
X157994578Y-98747593D01*
X157960532Y-98874656D01*
X157937313Y-98961310D01*
X157936834Y-98966790D01*
X157921137Y-99146206D01*
X157917550Y-99187200D01*
X157925097Y-99273463D01*
X157911109Y-99343065D01*
X157888672Y-99373537D01*
X154307613Y-102954595D01*
X154245301Y-102988621D01*
X154218518Y-102991500D01*
X150536081Y-102991500D01*
X150467960Y-102971498D01*
X150446986Y-102954595D01*
X150227180Y-102734789D01*
X150193154Y-102672477D01*
X150198219Y-102601662D01*
X150240766Y-102544826D01*
X150305291Y-102520174D01*
X150316042Y-102519233D01*
X150316050Y-102519232D01*
X150321532Y-102518752D01*
X150326845Y-102517328D01*
X150326847Y-102517328D01*
X150541688Y-102459762D01*
X150541690Y-102459761D01*
X150546998Y-102458339D01*
X150552992Y-102455544D01*
X150753561Y-102362017D01*
X150753566Y-102362014D01*
X150758548Y-102359691D01*
X150763675Y-102356101D01*
X150837553Y-102304371D01*
X151889183Y-102304371D01*
X151898480Y-102316387D01*
X151955198Y-102356101D01*
X151964684Y-102361579D01*
X152166192Y-102455544D01*
X152176484Y-102459290D01*
X152391241Y-102516834D01*
X152402036Y-102518737D01*
X152623525Y-102538115D01*
X152634475Y-102538115D01*
X152855964Y-102518737D01*
X152866759Y-102516834D01*
X153081516Y-102459290D01*
X153091808Y-102455544D01*
X153293316Y-102361579D01*
X153302802Y-102356101D01*
X153360358Y-102315801D01*
X153368733Y-102305323D01*
X153361665Y-102291875D01*
X152641812Y-101572022D01*
X152627868Y-101564408D01*
X152626035Y-101564539D01*
X152619420Y-101568790D01*
X151895613Y-102292597D01*
X151889183Y-102304371D01*
X150837553Y-102304371D01*
X150945243Y-102228966D01*
X150945246Y-102228964D01*
X150949754Y-102225807D01*
X151114807Y-102060754D01*
X151248691Y-101869548D01*
X151250463Y-101865747D01*
X151301553Y-101817033D01*
X151371267Y-101803597D01*
X151437178Y-101829983D01*
X151468408Y-101866023D01*
X151472905Y-101873811D01*
X151513199Y-101931358D01*
X151523677Y-101939733D01*
X151537125Y-101932665D01*
X152256978Y-101212812D01*
X152263356Y-101201132D01*
X152993408Y-101201132D01*
X152993539Y-101202965D01*
X152997790Y-101209580D01*
X153721597Y-101933387D01*
X153733371Y-101939817D01*
X153745387Y-101930520D01*
X153785101Y-101873802D01*
X153790579Y-101864316D01*
X153884544Y-101662808D01*
X153888290Y-101652516D01*
X153945834Y-101437759D01*
X153947737Y-101426964D01*
X153967115Y-101205475D01*
X153967115Y-101194525D01*
X153947737Y-100973036D01*
X153945834Y-100962241D01*
X153888290Y-100747484D01*
X153884544Y-100737192D01*
X153790579Y-100535684D01*
X153785101Y-100526198D01*
X153744801Y-100468642D01*
X153734323Y-100460267D01*
X153720875Y-100467335D01*
X153001022Y-101187188D01*
X152993408Y-101201132D01*
X152263356Y-101201132D01*
X152264592Y-101198868D01*
X152264461Y-101197035D01*
X152260210Y-101190420D01*
X151536403Y-100466613D01*
X151524629Y-100460183D01*
X151512613Y-100469480D01*
X151472905Y-100526189D01*
X151468408Y-100533977D01*
X151417024Y-100582969D01*
X151347310Y-100596403D01*
X151281399Y-100570015D01*
X151250523Y-100534380D01*
X151248691Y-100530452D01*
X151114807Y-100339246D01*
X150949754Y-100174193D01*
X150945246Y-100171036D01*
X150945243Y-100171034D01*
X150836194Y-100094677D01*
X151889267Y-100094677D01*
X151896335Y-100108125D01*
X152616188Y-100827978D01*
X152630132Y-100835592D01*
X152631965Y-100835461D01*
X152638580Y-100831210D01*
X153362387Y-100107403D01*
X153368817Y-100095629D01*
X153359520Y-100083613D01*
X153302802Y-100043899D01*
X153293316Y-100038421D01*
X153091808Y-99944456D01*
X153081516Y-99940710D01*
X152866759Y-99883166D01*
X152855964Y-99881263D01*
X152634475Y-99861885D01*
X152623525Y-99861885D01*
X152402036Y-99881263D01*
X152391241Y-99883166D01*
X152176484Y-99940710D01*
X152166192Y-99944456D01*
X151964684Y-100038421D01*
X151955198Y-100043899D01*
X151897642Y-100084199D01*
X151889267Y-100094677D01*
X150836194Y-100094677D01*
X150763057Y-100043466D01*
X150763055Y-100043465D01*
X150758548Y-100040309D01*
X150753566Y-100037986D01*
X150753561Y-100037983D01*
X150551980Y-99943984D01*
X150551978Y-99943983D01*
X150546998Y-99941661D01*
X150541690Y-99940239D01*
X150541688Y-99940238D01*
X150326847Y-99882672D01*
X150326845Y-99882672D01*
X150321532Y-99881248D01*
X150089000Y-99860904D01*
X149856468Y-99881248D01*
X149851155Y-99882672D01*
X149851153Y-99882672D01*
X149636312Y-99940238D01*
X149636310Y-99940239D01*
X149631002Y-99941661D01*
X149626022Y-99943983D01*
X149626020Y-99943984D01*
X149424439Y-100037983D01*
X149424434Y-100037986D01*
X149419452Y-100040309D01*
X149414945Y-100043465D01*
X149414943Y-100043466D01*
X149232757Y-100171034D01*
X149232754Y-100171036D01*
X149228246Y-100174193D01*
X149085256Y-100317183D01*
X149022944Y-100351209D01*
X148952129Y-100346144D01*
X148895293Y-100303597D01*
X148876745Y-100263996D01*
X148876245Y-100264184D01*
X148873886Y-100257892D01*
X148825115Y-100127795D01*
X148737761Y-100011239D01*
X148621205Y-99923885D01*
X148484816Y-99872755D01*
X148422634Y-99866000D01*
X146675366Y-99866000D01*
X146613184Y-99872755D01*
X146476795Y-99923885D01*
X146360239Y-100011239D01*
X146272885Y-100127795D01*
X146221755Y-100264184D01*
X146215000Y-100326366D01*
X146215000Y-102073634D01*
X131064000Y-102073634D01*
X131064000Y-101278134D01*
X133001500Y-101278134D01*
X133008255Y-101340316D01*
X133059385Y-101476705D01*
X133146739Y-101593261D01*
X133263295Y-101680615D01*
X133399684Y-101731745D01*
X133461866Y-101738500D01*
X135538134Y-101738500D01*
X135600316Y-101731745D01*
X135736705Y-101680615D01*
X135853261Y-101593261D01*
X135940615Y-101476705D01*
X135991745Y-101340316D01*
X135998500Y-101278134D01*
X135998500Y-100302469D01*
X138001500Y-100302469D01*
X138001712Y-100305042D01*
X138001712Y-100305053D01*
X138016131Y-100480432D01*
X138016132Y-100480438D01*
X138016555Y-100485583D01*
X138076584Y-100724570D01*
X138078642Y-100729303D01*
X138078643Y-100729306D01*
X138124858Y-100835592D01*
X138174840Y-100950544D01*
X138177644Y-100954878D01*
X138177646Y-100954882D01*
X138305874Y-101153092D01*
X138305879Y-101153098D01*
X138308685Y-101157436D01*
X138474523Y-101339690D01*
X138478574Y-101342889D01*
X138478578Y-101342893D01*
X138592082Y-101432532D01*
X138667901Y-101492410D01*
X138716117Y-101519027D01*
X138850591Y-101593261D01*
X138883625Y-101611497D01*
X139115903Y-101693750D01*
X139120995Y-101694657D01*
X139353407Y-101736057D01*
X139353411Y-101736057D01*
X139358495Y-101736963D01*
X139437914Y-101737933D01*
X139599718Y-101739910D01*
X139599720Y-101739910D01*
X139604888Y-101739973D01*
X139848464Y-101702701D01*
X140082682Y-101626147D01*
X140087270Y-101623759D01*
X140087274Y-101623757D01*
X140296663Y-101514756D01*
X140296664Y-101514755D01*
X140301252Y-101512367D01*
X140305385Y-101509264D01*
X140305388Y-101509262D01*
X140494168Y-101367521D01*
X140494170Y-101367519D01*
X140498303Y-101364416D01*
X140643180Y-101212812D01*
X140664974Y-101190006D01*
X140664975Y-101190005D01*
X140668545Y-101186269D01*
X140691177Y-101153092D01*
X140804485Y-100986989D01*
X140804488Y-100986984D01*
X140807404Y-100982709D01*
X140809580Y-100978020D01*
X140809584Y-100978014D01*
X140908975Y-100763894D01*
X140908977Y-100763889D01*
X140911152Y-100759203D01*
X140915923Y-100742002D01*
X140975623Y-100526726D01*
X140975623Y-100526725D01*
X140977002Y-100521753D01*
X140995228Y-100351209D01*
X140998144Y-100323929D01*
X140998144Y-100323921D01*
X140998500Y-100320594D01*
X140998500Y-98197531D01*
X140996736Y-98176071D01*
X140983869Y-98019568D01*
X140983868Y-98019562D01*
X140983445Y-98014417D01*
X140947427Y-97871022D01*
X140924675Y-97780441D01*
X140924674Y-97780437D01*
X140923416Y-97775430D01*
X140921321Y-97770612D01*
X140827220Y-97554193D01*
X140827218Y-97554190D01*
X140825160Y-97549456D01*
X140807389Y-97521986D01*
X140694126Y-97346908D01*
X140694121Y-97346902D01*
X140691315Y-97342564D01*
X140525477Y-97160310D01*
X140521426Y-97157111D01*
X140521422Y-97157107D01*
X140384357Y-97048861D01*
X140332099Y-97007590D01*
X140162416Y-96913919D01*
X140120906Y-96891004D01*
X140120903Y-96891003D01*
X140116375Y-96888503D01*
X139884097Y-96806250D01*
X139829457Y-96796517D01*
X139646593Y-96763943D01*
X139646589Y-96763943D01*
X139641505Y-96763037D01*
X139562086Y-96762067D01*
X139400282Y-96760090D01*
X139400280Y-96760090D01*
X139395112Y-96760027D01*
X139151536Y-96797299D01*
X138917318Y-96873853D01*
X138912730Y-96876241D01*
X138912726Y-96876243D01*
X138729914Y-96971409D01*
X138698748Y-96987633D01*
X138694615Y-96990736D01*
X138694612Y-96990738D01*
X138505832Y-97132479D01*
X138501697Y-97135584D01*
X138331455Y-97313731D01*
X138328541Y-97318003D01*
X138328540Y-97318004D01*
X138195515Y-97513011D01*
X138195512Y-97513016D01*
X138192596Y-97517291D01*
X138190420Y-97521980D01*
X138190416Y-97521986D01*
X138132448Y-97646868D01*
X138088848Y-97740797D01*
X138087468Y-97745775D01*
X138087466Y-97745779D01*
X138053128Y-97869599D01*
X138022998Y-97978247D01*
X138015536Y-98048074D01*
X138003078Y-98164644D01*
X138001500Y-98179406D01*
X138001500Y-100302469D01*
X135998500Y-100302469D01*
X135998500Y-97221866D01*
X135991745Y-97159684D01*
X135940615Y-97023295D01*
X135853261Y-96906739D01*
X135736705Y-96819385D01*
X135600316Y-96768255D01*
X135538134Y-96761500D01*
X133461866Y-96761500D01*
X133399684Y-96768255D01*
X133263295Y-96819385D01*
X133146739Y-96906739D01*
X133059385Y-97023295D01*
X133008255Y-97159684D01*
X133001500Y-97221866D01*
X133001500Y-101278134D01*
X131064000Y-101278134D01*
X131064000Y-96647200D01*
X168052150Y-96647200D01*
X168071913Y-96873090D01*
X168073337Y-96878403D01*
X168073337Y-96878405D01*
X168123658Y-97066204D01*
X168130601Y-97092117D01*
X168132923Y-97097098D01*
X168132924Y-97097099D01*
X168224105Y-97292638D01*
X168224108Y-97292643D01*
X168226431Y-97297625D01*
X168229587Y-97302132D01*
X168229588Y-97302134D01*
X168257898Y-97342564D01*
X168356491Y-97483370D01*
X168516830Y-97643709D01*
X168521338Y-97646866D01*
X168521341Y-97646868D01*
X168655486Y-97740797D01*
X168702575Y-97773769D01*
X168707557Y-97776092D01*
X168707562Y-97776095D01*
X168903101Y-97867276D01*
X168908083Y-97869599D01*
X168913391Y-97871021D01*
X168913393Y-97871022D01*
X169121795Y-97926863D01*
X169121797Y-97926863D01*
X169127110Y-97928287D01*
X169353000Y-97948050D01*
X169578890Y-97928287D01*
X169584203Y-97926863D01*
X169584205Y-97926863D01*
X169792607Y-97871022D01*
X169792609Y-97871021D01*
X169797917Y-97869599D01*
X169802899Y-97867276D01*
X169998438Y-97776095D01*
X169998443Y-97776092D01*
X170003425Y-97773769D01*
X170050514Y-97740797D01*
X170184659Y-97646868D01*
X170184662Y-97646866D01*
X170189170Y-97643709D01*
X170349509Y-97483370D01*
X170448103Y-97342564D01*
X170476412Y-97302134D01*
X170476413Y-97302132D01*
X170479569Y-97297625D01*
X170481892Y-97292643D01*
X170481895Y-97292638D01*
X170573076Y-97097099D01*
X170573077Y-97097098D01*
X170575399Y-97092117D01*
X170582343Y-97066204D01*
X170632663Y-96878405D01*
X170632663Y-96878403D01*
X170634087Y-96873090D01*
X170653850Y-96647200D01*
X170634087Y-96421310D01*
X170594840Y-96274838D01*
X170576822Y-96207593D01*
X170576821Y-96207591D01*
X170575399Y-96202283D01*
X170508391Y-96058584D01*
X170481895Y-96001762D01*
X170481892Y-96001757D01*
X170479569Y-95996775D01*
X170448353Y-95952194D01*
X178718602Y-95952194D01*
X178728050Y-96013933D01*
X178730439Y-96023961D01*
X178801710Y-96242016D01*
X178805707Y-96251525D01*
X178911633Y-96455007D01*
X178917127Y-96463732D01*
X179054869Y-96647187D01*
X179061712Y-96654894D01*
X179227569Y-96813391D01*
X179235575Y-96819874D01*
X179425094Y-96949155D01*
X179434053Y-96954244D01*
X179642145Y-97050837D01*
X179651813Y-97054394D01*
X179872879Y-97115701D01*
X179882999Y-97117632D01*
X180070252Y-97137644D01*
X180076944Y-97138000D01*
X180829885Y-97138000D01*
X180845124Y-97133525D01*
X180846329Y-97132135D01*
X180848000Y-97124452D01*
X180848000Y-97119885D01*
X181356000Y-97119885D01*
X181360475Y-97135124D01*
X181361865Y-97136329D01*
X181369548Y-97138000D01*
X182110190Y-97138000D01*
X182115363Y-97137788D01*
X182285794Y-97123776D01*
X182295956Y-97122093D01*
X182518461Y-97066204D01*
X182528216Y-97062883D01*
X182738590Y-96971409D01*
X182747688Y-96966531D01*
X182940301Y-96841925D01*
X182948461Y-96835641D01*
X183118149Y-96681237D01*
X183125170Y-96673707D01*
X183267356Y-96493668D01*
X183273061Y-96485081D01*
X183383926Y-96284250D01*
X183388156Y-96274838D01*
X183464736Y-96058584D01*
X183467365Y-96048634D01*
X183484607Y-95951836D01*
X183483148Y-95938540D01*
X183468592Y-95934000D01*
X181374115Y-95934000D01*
X181358876Y-95938475D01*
X181357671Y-95939865D01*
X181356000Y-95947548D01*
X181356000Y-97119885D01*
X180848000Y-97119885D01*
X180848000Y-95952115D01*
X180843525Y-95936876D01*
X180842135Y-95935671D01*
X180834452Y-95934000D01*
X178733933Y-95934000D01*
X178720589Y-95937918D01*
X178718602Y-95952194D01*
X170448353Y-95952194D01*
X170448298Y-95952115D01*
X170352668Y-95815541D01*
X170352666Y-95815538D01*
X170349509Y-95811030D01*
X170189170Y-95650691D01*
X170184662Y-95647534D01*
X170184659Y-95647532D01*
X170007934Y-95523788D01*
X170007932Y-95523787D01*
X170003425Y-95520631D01*
X169998443Y-95518308D01*
X169998438Y-95518305D01*
X169802899Y-95427124D01*
X169802898Y-95427123D01*
X169797917Y-95424801D01*
X169792609Y-95423379D01*
X169792607Y-95423378D01*
X169735827Y-95408164D01*
X178719393Y-95408164D01*
X178720852Y-95421460D01*
X178735408Y-95426000D01*
X180829885Y-95426000D01*
X180845124Y-95421525D01*
X180846329Y-95420135D01*
X180848000Y-95412452D01*
X180848000Y-95407885D01*
X181356000Y-95407885D01*
X181360475Y-95423124D01*
X181361865Y-95424329D01*
X181369548Y-95426000D01*
X183470067Y-95426000D01*
X183483411Y-95422082D01*
X183485398Y-95407806D01*
X183475950Y-95346067D01*
X183473561Y-95336039D01*
X183402290Y-95117984D01*
X183398293Y-95108475D01*
X183292367Y-94904993D01*
X183286873Y-94896268D01*
X183149131Y-94712813D01*
X183142288Y-94705106D01*
X182976431Y-94546609D01*
X182968425Y-94540126D01*
X182778906Y-94410845D01*
X182769947Y-94405756D01*
X182561855Y-94309163D01*
X182552187Y-94305606D01*
X182331121Y-94244299D01*
X182321001Y-94242368D01*
X182133748Y-94222356D01*
X182127056Y-94222000D01*
X181374115Y-94222000D01*
X181358876Y-94226475D01*
X181357671Y-94227865D01*
X181356000Y-94235548D01*
X181356000Y-95407885D01*
X180848000Y-95407885D01*
X180848000Y-94240115D01*
X180843525Y-94224876D01*
X180842135Y-94223671D01*
X180834452Y-94222000D01*
X180093810Y-94222000D01*
X180088637Y-94222212D01*
X179918206Y-94236224D01*
X179908044Y-94237907D01*
X179685539Y-94293796D01*
X179675784Y-94297117D01*
X179465410Y-94388591D01*
X179456312Y-94393469D01*
X179263699Y-94518075D01*
X179255539Y-94524359D01*
X179085851Y-94678763D01*
X179078830Y-94686293D01*
X178936644Y-94866332D01*
X178930939Y-94874919D01*
X178820074Y-95075750D01*
X178815844Y-95085162D01*
X178739264Y-95301416D01*
X178736635Y-95311366D01*
X178719393Y-95408164D01*
X169735827Y-95408164D01*
X169584205Y-95367537D01*
X169584203Y-95367537D01*
X169578890Y-95366113D01*
X169353000Y-95346350D01*
X169127110Y-95366113D01*
X169121797Y-95367537D01*
X169121795Y-95367537D01*
X168913393Y-95423378D01*
X168913391Y-95423379D01*
X168908083Y-95424801D01*
X168903102Y-95427123D01*
X168903101Y-95427124D01*
X168707562Y-95518305D01*
X168707557Y-95518308D01*
X168702575Y-95520631D01*
X168698068Y-95523787D01*
X168698066Y-95523788D01*
X168521341Y-95647532D01*
X168521338Y-95647534D01*
X168516830Y-95650691D01*
X168356491Y-95811030D01*
X168353334Y-95815538D01*
X168353332Y-95815541D01*
X168257702Y-95952115D01*
X168226431Y-95996775D01*
X168224108Y-96001757D01*
X168224105Y-96001762D01*
X168197609Y-96058584D01*
X168130601Y-96202283D01*
X168129179Y-96207591D01*
X168129178Y-96207593D01*
X168111160Y-96274838D01*
X168071913Y-96421310D01*
X168052150Y-96647200D01*
X131064000Y-96647200D01*
X131064000Y-94942734D01*
X157922500Y-94942734D01*
X157929255Y-95004916D01*
X157980385Y-95141305D01*
X158067739Y-95257861D01*
X158184295Y-95345215D01*
X158320684Y-95396345D01*
X158382866Y-95403100D01*
X160053934Y-95403100D01*
X160116116Y-95396345D01*
X160252505Y-95345215D01*
X160369061Y-95257861D01*
X160456415Y-95141305D01*
X160507545Y-95004916D01*
X160514300Y-94942734D01*
X160514300Y-93271666D01*
X160507545Y-93209484D01*
X160456415Y-93073095D01*
X160369061Y-92956539D01*
X160252505Y-92869185D01*
X160116116Y-92818055D01*
X160053934Y-92811300D01*
X158382866Y-92811300D01*
X158320684Y-92818055D01*
X158184295Y-92869185D01*
X158067739Y-92956539D01*
X157980385Y-93073095D01*
X157929255Y-93209484D01*
X157922500Y-93271666D01*
X157922500Y-94942734D01*
X131064000Y-94942734D01*
X131064000Y-91309670D01*
X131084002Y-91241549D01*
X131137658Y-91195056D01*
X131179017Y-91184149D01*
X131201859Y-91182151D01*
X131237607Y-91179024D01*
X131237612Y-91179023D01*
X131243088Y-91178544D01*
X131248401Y-91177120D01*
X131248403Y-91177120D01*
X131458934Y-91120708D01*
X131458936Y-91120707D01*
X131464244Y-91119285D01*
X131470236Y-91116491D01*
X131666763Y-91024850D01*
X131666768Y-91024847D01*
X131671750Y-91022524D01*
X131776612Y-90949099D01*
X131854790Y-90894358D01*
X131854793Y-90894356D01*
X131859301Y-90891199D01*
X132021199Y-90729301D01*
X132152524Y-90541750D01*
X132170807Y-90502542D01*
X132217723Y-90449258D01*
X132286000Y-90429797D01*
X132353960Y-90450339D01*
X132399195Y-90502542D01*
X132417478Y-90541750D01*
X132548803Y-90729301D01*
X132710701Y-90891199D01*
X132715209Y-90894356D01*
X132715212Y-90894358D01*
X132793390Y-90949099D01*
X132898252Y-91022524D01*
X132903234Y-91024847D01*
X132903239Y-91024850D01*
X133099766Y-91116491D01*
X133105758Y-91119285D01*
X133111066Y-91120707D01*
X133111068Y-91120708D01*
X133321599Y-91177120D01*
X133321601Y-91177120D01*
X133326914Y-91178544D01*
X133555001Y-91198499D01*
X133783088Y-91178544D01*
X133788401Y-91177120D01*
X133788403Y-91177120D01*
X133998934Y-91120708D01*
X133998936Y-91120707D01*
X134004244Y-91119285D01*
X134010236Y-91116491D01*
X134206763Y-91024850D01*
X134206768Y-91024847D01*
X134211750Y-91022524D01*
X134316612Y-90949099D01*
X134394790Y-90894358D01*
X134394793Y-90894356D01*
X134399301Y-90891199D01*
X134561199Y-90729301D01*
X134692524Y-90541750D01*
X134710807Y-90502542D01*
X134757723Y-90449258D01*
X134826000Y-90429797D01*
X134893960Y-90450339D01*
X134939195Y-90502542D01*
X134957478Y-90541750D01*
X135088803Y-90729301D01*
X135250701Y-90891199D01*
X135255209Y-90894356D01*
X135255212Y-90894358D01*
X135333390Y-90949099D01*
X135438252Y-91022524D01*
X135443234Y-91024847D01*
X135443239Y-91024850D01*
X135639766Y-91116491D01*
X135645758Y-91119285D01*
X135651066Y-91120707D01*
X135651068Y-91120708D01*
X135861599Y-91177120D01*
X135861601Y-91177120D01*
X135866914Y-91178544D01*
X136095001Y-91198499D01*
X136323088Y-91178544D01*
X136328401Y-91177120D01*
X136328403Y-91177120D01*
X136538934Y-91120708D01*
X136538936Y-91120707D01*
X136544244Y-91119285D01*
X136550236Y-91116491D01*
X136746763Y-91024850D01*
X136746768Y-91024847D01*
X136751750Y-91022524D01*
X136856612Y-90949099D01*
X136934790Y-90894358D01*
X136934793Y-90894356D01*
X136939301Y-90891199D01*
X137101199Y-90729301D01*
X137232524Y-90541750D01*
X137250807Y-90502542D01*
X137297723Y-90449258D01*
X137366000Y-90429797D01*
X137433960Y-90450339D01*
X137479195Y-90502542D01*
X137497478Y-90541750D01*
X137628803Y-90729301D01*
X137790701Y-90891199D01*
X137795209Y-90894356D01*
X137795212Y-90894358D01*
X137873390Y-90949099D01*
X137978252Y-91022524D01*
X137983234Y-91024847D01*
X137983239Y-91024850D01*
X138179766Y-91116491D01*
X138185758Y-91119285D01*
X138191066Y-91120707D01*
X138191068Y-91120708D01*
X138401599Y-91177120D01*
X138401601Y-91177120D01*
X138406914Y-91178544D01*
X138635001Y-91198499D01*
X138863088Y-91178544D01*
X138868401Y-91177120D01*
X138868403Y-91177120D01*
X139078934Y-91120708D01*
X139078936Y-91120707D01*
X139084244Y-91119285D01*
X139090236Y-91116491D01*
X139286763Y-91024850D01*
X139286768Y-91024847D01*
X139291750Y-91022524D01*
X139396612Y-90949099D01*
X139474790Y-90894358D01*
X139474793Y-90894356D01*
X139479301Y-90891199D01*
X139641199Y-90729301D01*
X139772524Y-90541750D01*
X139790807Y-90502542D01*
X139837723Y-90449258D01*
X139906000Y-90429797D01*
X139973960Y-90450339D01*
X140019195Y-90502542D01*
X140037478Y-90541750D01*
X140168803Y-90729301D01*
X140330701Y-90891199D01*
X140335209Y-90894356D01*
X140335212Y-90894358D01*
X140413390Y-90949099D01*
X140518252Y-91022524D01*
X140523234Y-91024847D01*
X140523239Y-91024850D01*
X140719766Y-91116491D01*
X140725758Y-91119285D01*
X140731066Y-91120707D01*
X140731068Y-91120708D01*
X140941599Y-91177120D01*
X140941601Y-91177120D01*
X140946914Y-91178544D01*
X141175001Y-91198499D01*
X141403088Y-91178544D01*
X141408401Y-91177120D01*
X141408403Y-91177120D01*
X141618934Y-91120708D01*
X141618936Y-91120707D01*
X141624244Y-91119285D01*
X141630236Y-91116491D01*
X141826763Y-91024850D01*
X141826768Y-91024847D01*
X141831750Y-91022524D01*
X141936612Y-90949099D01*
X142014790Y-90894358D01*
X142014793Y-90894356D01*
X142019301Y-90891199D01*
X142181199Y-90729301D01*
X142312524Y-90541750D01*
X142330807Y-90502542D01*
X142377723Y-90449258D01*
X142446000Y-90429797D01*
X142513960Y-90450339D01*
X142559195Y-90502542D01*
X142577478Y-90541750D01*
X142708803Y-90729301D01*
X142870701Y-90891199D01*
X142875209Y-90894356D01*
X142875212Y-90894358D01*
X142953390Y-90949099D01*
X143058252Y-91022524D01*
X143063234Y-91024847D01*
X143063239Y-91024850D01*
X143259766Y-91116491D01*
X143265758Y-91119285D01*
X143271066Y-91120707D01*
X143271068Y-91120708D01*
X143481599Y-91177120D01*
X143481601Y-91177120D01*
X143486914Y-91178544D01*
X143715001Y-91198499D01*
X143943088Y-91178544D01*
X143948401Y-91177120D01*
X143948403Y-91177120D01*
X144158934Y-91120708D01*
X144158936Y-91120707D01*
X144164244Y-91119285D01*
X144170236Y-91116491D01*
X144366763Y-91024850D01*
X144366768Y-91024847D01*
X144371750Y-91022524D01*
X144476612Y-90949099D01*
X144554790Y-90894358D01*
X144554793Y-90894356D01*
X144559301Y-90891199D01*
X144721199Y-90729301D01*
X144852524Y-90541750D01*
X144870807Y-90502542D01*
X144917723Y-90449258D01*
X144986000Y-90429797D01*
X145053960Y-90450339D01*
X145099195Y-90502542D01*
X145117478Y-90541750D01*
X145248803Y-90729301D01*
X145410701Y-90891199D01*
X145415209Y-90894356D01*
X145415212Y-90894358D01*
X145493390Y-90949099D01*
X145598252Y-91022524D01*
X145603234Y-91024847D01*
X145603239Y-91024850D01*
X145799766Y-91116491D01*
X145805758Y-91119285D01*
X145811066Y-91120707D01*
X145811068Y-91120708D01*
X146021599Y-91177120D01*
X146021601Y-91177120D01*
X146026914Y-91178544D01*
X146255001Y-91198499D01*
X146483088Y-91178544D01*
X146488401Y-91177120D01*
X146488403Y-91177120D01*
X146698934Y-91120708D01*
X146698936Y-91120707D01*
X146704244Y-91119285D01*
X146710236Y-91116491D01*
X146906763Y-91024850D01*
X146906768Y-91024847D01*
X146911750Y-91022524D01*
X147016612Y-90949099D01*
X147094790Y-90894358D01*
X147094793Y-90894356D01*
X147099301Y-90891199D01*
X147261199Y-90729301D01*
X147392524Y-90541750D01*
X147410807Y-90502542D01*
X147457723Y-90449258D01*
X147526000Y-90429797D01*
X147593960Y-90450339D01*
X147639195Y-90502542D01*
X147657478Y-90541750D01*
X147788803Y-90729301D01*
X147950701Y-90891199D01*
X147955209Y-90894356D01*
X147955212Y-90894358D01*
X148033390Y-90949099D01*
X148138252Y-91022524D01*
X148143234Y-91024847D01*
X148143239Y-91024850D01*
X148339766Y-91116491D01*
X148345758Y-91119285D01*
X148351066Y-91120707D01*
X148351068Y-91120708D01*
X148561599Y-91177120D01*
X148561601Y-91177120D01*
X148566914Y-91178544D01*
X148795001Y-91198499D01*
X149023088Y-91178544D01*
X149028401Y-91177120D01*
X149028403Y-91177120D01*
X149238934Y-91120708D01*
X149238936Y-91120707D01*
X149244244Y-91119285D01*
X149250236Y-91116491D01*
X149446763Y-91024850D01*
X149446768Y-91024847D01*
X149451750Y-91022524D01*
X149556612Y-90949099D01*
X149634790Y-90894358D01*
X149634793Y-90894356D01*
X149639301Y-90891199D01*
X149801199Y-90729301D01*
X149932524Y-90541750D01*
X149950807Y-90502542D01*
X149997723Y-90449258D01*
X150066000Y-90429797D01*
X150133960Y-90450339D01*
X150179195Y-90502542D01*
X150197478Y-90541750D01*
X150328803Y-90729301D01*
X150490701Y-90891199D01*
X150495209Y-90894356D01*
X150495212Y-90894358D01*
X150573390Y-90949099D01*
X150678252Y-91022524D01*
X150683234Y-91024847D01*
X150683239Y-91024850D01*
X150879766Y-91116491D01*
X150885758Y-91119285D01*
X150891066Y-91120707D01*
X150891068Y-91120708D01*
X151101599Y-91177120D01*
X151101601Y-91177120D01*
X151106914Y-91178544D01*
X151335001Y-91198499D01*
X151563088Y-91178544D01*
X151568401Y-91177120D01*
X151568403Y-91177120D01*
X151778934Y-91120708D01*
X151778936Y-91120707D01*
X151784244Y-91119285D01*
X151790236Y-91116491D01*
X151986763Y-91024850D01*
X151986768Y-91024847D01*
X151991750Y-91022524D01*
X152096612Y-90949099D01*
X152174790Y-90894358D01*
X152174793Y-90894356D01*
X152179301Y-90891199D01*
X152341199Y-90729301D01*
X152472524Y-90541750D01*
X152474967Y-90536512D01*
X152491083Y-90501951D01*
X152538000Y-90448666D01*
X152606278Y-90429206D01*
X152674237Y-90449748D01*
X152719472Y-90501952D01*
X152735587Y-90536512D01*
X152741070Y-90546007D01*
X152777510Y-90598049D01*
X152787989Y-90606425D01*
X152801435Y-90599357D01*
X152976792Y-90424000D01*
X153695212Y-90424000D01*
X153159924Y-90959288D01*
G37*
%TD.AperFunction*%
%TD*%
M02*
