M48
; DRILL file {KiCad (6.0.7-1)-1} date Wednesday, 05 October 2022 at 10:10:59 pm
; FORMAT={-:-/ absolute / metric / decimal}
; #@! TF.CreationDate,2022-10-05T22:10:59+11:00
; #@! TF.GenerationSoftware,Kicad,Pcbnew,(6.0.7-1)-1
; #@! TF.FileFunction,Plated,1,2,PTH
FMAT,2
METRIC
; #@! TA.AperFunction,Plated,PTH,ViaDrill
T1C0.400
; #@! TA.AperFunction,Plated,PTH,ComponentDrill
T2C0.760
; #@! TA.AperFunction,Plated,PTH,ComponentDrill
T3C1.000
; #@! TA.AperFunction,Plated,PTH,ComponentDrill
T4C1.067
; #@! TA.AperFunction,Plated,PTH,ComponentDrill
T5C1.100
; #@! TA.AperFunction,Plated,PTH,ComponentDrill
T6C1.143
; #@! TA.AperFunction,Plated,PTH,ComponentDrill
T7C1.320
; #@! TA.AperFunction,Plated,PTH,ComponentDrill
T8C3.200
%
G90
G05
T1
X149.4Y-85.8
X149.5Y-78.2
X150.4Y-85.8
X150.5Y-78.2
X151.5Y-85.8
X151.6Y-78.2
X152.6Y-76.2
X152.6Y-85.8
X152.7Y-78.2
X152.8Y-79.4
X152.9Y-84.7
X153.8Y-76.6
X154.0Y-84.5
X154.8Y-77.5
X155.0Y-100.0
X155.0Y-101.1
X155.1Y-78.5
X155.1Y-79.4
X155.3Y-84.5
X156.1Y-100.0
X156.2Y-77.5
X156.5Y-84.5
X156.5Y-85.6
X156.5Y-86.7
X156.5Y-87.8
X157.8Y-81.7
X158.2Y-102.4
X158.6Y-82.9
X159.1Y-84.5
X159.1Y-85.7
X159.1Y-86.8
X159.1Y-87.9
X159.2Y-96.3
X159.4Y-102.4
X160.1Y-79.6
X160.4Y-77.7
X160.9Y-97.9
X161.3Y-78.5
X161.4Y-79.6
X161.6Y-94.3
X163.0Y-84.2
X163.1Y-76.6
X163.2Y-94.9
X163.2Y-98.3
X164.1Y-77.7
X165.2Y-78.9
X165.3Y-94.9
X165.4Y-98.3
X167.3Y-94.9
X167.4Y-98.3
X171.0Y-91.8
X173.0Y-88.3
X174.2Y-87.9
X174.8Y-92.6
X175.4Y-88.3
X175.6Y-91.8
T3
X147.23Y-82.0
X149.77Y-82.0
T4
X159.218Y-94.107
X159.218Y-99.187
X169.353Y-96.647
T5
X131.015Y-74.645
X131.015Y-89.885
X133.555Y-74.645
X133.555Y-89.885
X136.095Y-74.645
X136.095Y-89.885
X138.635Y-74.645
X138.635Y-89.885
X141.175Y-74.645
X141.175Y-89.885
X143.715Y-74.645
X143.715Y-89.885
X146.255Y-74.645
X146.255Y-89.885
X148.795Y-74.645
X148.795Y-89.885
X151.335Y-74.645
X151.335Y-89.885
X153.875Y-74.645
X153.875Y-89.885
X156.415Y-74.645
X156.415Y-89.885
X158.955Y-74.645
X158.955Y-89.885
X161.495Y-74.645
X161.495Y-89.885
X164.035Y-74.645
X164.035Y-89.885
X166.575Y-74.645
X166.575Y-89.885
X169.115Y-74.645
X169.115Y-89.885
X171.655Y-74.645
X171.655Y-89.885
X174.195Y-74.645
X174.195Y-89.885
X176.735Y-74.645
X176.735Y-89.885
X179.275Y-74.645
X179.275Y-89.885
X181.815Y-74.645
X181.815Y-89.885
X184.355Y-74.645
X184.355Y-89.885
X186.895Y-74.645
X186.895Y-89.885
X189.435Y-74.645
X189.435Y-89.885
T6
X147.549Y-101.2
X150.089Y-101.2
X152.629Y-101.2
T7
X134.5Y-99.25
X139.5Y-99.25
X158.75Y-105.41
X161.29Y-105.41
X163.83Y-105.41
T8
X135.382Y-82.0
X184.912Y-82.0
T2
G00X178.422Y-101.475
M15
G01X178.422Y-99.185
M16
G05
G00X179.957Y-95.68
M15
G01X182.247Y-95.68
M16
G05
G00X184.352Y-101.475
M15
G01X184.352Y-99.185
M16
G05
T0
M30
