%TF.GenerationSoftware,KiCad,Pcbnew,(6.0.7-1)-1*%
%TF.CreationDate,2022-10-05T22:11:01+11:00*%
%TF.ProjectId,Open-JIP,4f70656e-2d4a-4495-902e-6b696361645f,rev?*%
%TF.SameCoordinates,Original*%
%TF.FileFunction,Legend,Top*%
%TF.FilePolarity,Positive*%
%FSLAX46Y46*%
G04 Gerber Fmt 4.6, Leading zero omitted, Abs format (unit mm)*
G04 Created by KiCad (PCBNEW (6.0.7-1)-1) date 2022-10-05 22:11:01*
%MOMM*%
%LPD*%
G01*
G04 APERTURE LIST*
%ADD10C,0.300000*%
%ADD11C,0.150000*%
%ADD12C,0.100000*%
%ADD13C,0.120000*%
%ADD14C,0.152400*%
%ADD15C,0.127000*%
%ADD16C,0.200000*%
%ADD17C,0.010000*%
G04 APERTURE END LIST*
D10*
X143178571Y-99357142D02*
X144321428Y-99357142D01*
D11*
X187747619Y-92542857D02*
X187747619Y-91971428D01*
X187747619Y-92257142D02*
X188747619Y-92257142D01*
X188604761Y-92161904D01*
X188509523Y-92066666D01*
X188461904Y-91971428D01*
X187842857Y-92971428D02*
X187795238Y-93019047D01*
X187747619Y-92971428D01*
X187795238Y-92923809D01*
X187842857Y-92971428D01*
X187747619Y-92971428D01*
X188652380Y-93400000D02*
X188700000Y-93447619D01*
X188747619Y-93542857D01*
X188747619Y-93780952D01*
X188700000Y-93876190D01*
X188652380Y-93923809D01*
X188557142Y-93971428D01*
X188461904Y-93971428D01*
X188319047Y-93923809D01*
X187747619Y-93352380D01*
X187747619Y-93971428D01*
X188033333Y-94352380D02*
X188033333Y-94828571D01*
X187747619Y-94257142D02*
X188747619Y-94590476D01*
X187747619Y-94923809D01*
X144058285Y-79695428D02*
X143391619Y-79933523D01*
X144058285Y-80171619D01*
X144391619Y-80743047D02*
X144391619Y-80838285D01*
X144344000Y-80933523D01*
X144296380Y-80981142D01*
X144201142Y-81028761D01*
X144010666Y-81076380D01*
X143772571Y-81076380D01*
X143582095Y-81028761D01*
X143486857Y-80981142D01*
X143439238Y-80933523D01*
X143391619Y-80838285D01*
X143391619Y-80743047D01*
X143439238Y-80647809D01*
X143486857Y-80600190D01*
X143582095Y-80552571D01*
X143772571Y-80504952D01*
X144010666Y-80504952D01*
X144201142Y-80552571D01*
X144296380Y-80600190D01*
X144344000Y-80647809D01*
X144391619Y-80743047D01*
X143486857Y-81504952D02*
X143439238Y-81552571D01*
X143391619Y-81504952D01*
X143439238Y-81457333D01*
X143486857Y-81504952D01*
X143391619Y-81504952D01*
X144391619Y-81885904D02*
X144391619Y-82504952D01*
X144010666Y-82171619D01*
X144010666Y-82314476D01*
X143963047Y-82409714D01*
X143915428Y-82457333D01*
X143820190Y-82504952D01*
X143582095Y-82504952D01*
X143486857Y-82457333D01*
X143439238Y-82409714D01*
X143391619Y-82314476D01*
X143391619Y-82028761D01*
X143439238Y-81933523D01*
X143486857Y-81885904D01*
X175903714Y-106608571D02*
X176046571Y-106656190D01*
X176094190Y-106703809D01*
X176141809Y-106799047D01*
X176141809Y-106941904D01*
X176094190Y-107037142D01*
X176046571Y-107084761D01*
X175951333Y-107132380D01*
X175570380Y-107132380D01*
X175570380Y-106132380D01*
X175903714Y-106132380D01*
X175998952Y-106180000D01*
X176046571Y-106227619D01*
X176094190Y-106322857D01*
X176094190Y-106418095D01*
X176046571Y-106513333D01*
X175998952Y-106560952D01*
X175903714Y-106608571D01*
X175570380Y-106608571D01*
X176998952Y-107132380D02*
X176998952Y-106608571D01*
X176951333Y-106513333D01*
X176856095Y-106465714D01*
X176665619Y-106465714D01*
X176570380Y-106513333D01*
X176998952Y-107084761D02*
X176903714Y-107132380D01*
X176665619Y-107132380D01*
X176570380Y-107084761D01*
X176522761Y-106989523D01*
X176522761Y-106894285D01*
X176570380Y-106799047D01*
X176665619Y-106751428D01*
X176903714Y-106751428D01*
X176998952Y-106703809D01*
X177332285Y-106465714D02*
X177713238Y-106465714D01*
X177475142Y-106132380D02*
X177475142Y-106989523D01*
X177522761Y-107084761D01*
X177618000Y-107132380D01*
X177713238Y-107132380D01*
X178427523Y-107084761D02*
X178332285Y-107132380D01*
X178141809Y-107132380D01*
X178046571Y-107084761D01*
X177998952Y-106989523D01*
X177998952Y-106608571D01*
X178046571Y-106513333D01*
X178141809Y-106465714D01*
X178332285Y-106465714D01*
X178427523Y-106513333D01*
X178475142Y-106608571D01*
X178475142Y-106703809D01*
X177998952Y-106799047D01*
X178856095Y-107084761D02*
X178951333Y-107132380D01*
X179141809Y-107132380D01*
X179237047Y-107084761D01*
X179284666Y-106989523D01*
X179284666Y-106941904D01*
X179237047Y-106846666D01*
X179141809Y-106799047D01*
X178998952Y-106799047D01*
X178903714Y-106751428D01*
X178856095Y-106656190D01*
X178856095Y-106608571D01*
X178903714Y-106513333D01*
X178998952Y-106465714D01*
X179141809Y-106465714D01*
X179237047Y-106513333D01*
X180856095Y-107084761D02*
X180760857Y-107132380D01*
X180570380Y-107132380D01*
X180475142Y-107084761D01*
X180427523Y-106989523D01*
X180427523Y-106608571D01*
X180475142Y-106513333D01*
X180570380Y-106465714D01*
X180760857Y-106465714D01*
X180856095Y-106513333D01*
X180903714Y-106608571D01*
X180903714Y-106703809D01*
X180427523Y-106799047D01*
X181189428Y-106465714D02*
X181570380Y-106465714D01*
X181332285Y-106132380D02*
X181332285Y-106989523D01*
X181379904Y-107084761D01*
X181475142Y-107132380D01*
X181570380Y-107132380D01*
X183094190Y-107132380D02*
X183094190Y-106608571D01*
X183046571Y-106513333D01*
X182951333Y-106465714D01*
X182760857Y-106465714D01*
X182665619Y-106513333D01*
X183094190Y-107084761D02*
X182998952Y-107132380D01*
X182760857Y-107132380D01*
X182665619Y-107084761D01*
X182618000Y-106989523D01*
X182618000Y-106894285D01*
X182665619Y-106799047D01*
X182760857Y-106751428D01*
X182998952Y-106751428D01*
X183094190Y-106703809D01*
X183713238Y-107132380D02*
X183618000Y-107084761D01*
X183570380Y-106989523D01*
X183570380Y-106132380D01*
X184094190Y-107037142D02*
X184141809Y-107084761D01*
X184094190Y-107132380D01*
X184046571Y-107084761D01*
X184094190Y-107037142D01*
X184094190Y-107132380D01*
X185284666Y-106227619D02*
X185332285Y-106180000D01*
X185427523Y-106132380D01*
X185665619Y-106132380D01*
X185760857Y-106180000D01*
X185808476Y-106227619D01*
X185856095Y-106322857D01*
X185856095Y-106418095D01*
X185808476Y-106560952D01*
X185237047Y-107132380D01*
X185856095Y-107132380D01*
X186475142Y-106132380D02*
X186570380Y-106132380D01*
X186665619Y-106180000D01*
X186713238Y-106227619D01*
X186760857Y-106322857D01*
X186808476Y-106513333D01*
X186808476Y-106751428D01*
X186760857Y-106941904D01*
X186713238Y-107037142D01*
X186665619Y-107084761D01*
X186570380Y-107132380D01*
X186475142Y-107132380D01*
X186379904Y-107084761D01*
X186332285Y-107037142D01*
X186284666Y-106941904D01*
X186237047Y-106751428D01*
X186237047Y-106513333D01*
X186284666Y-106322857D01*
X186332285Y-106227619D01*
X186379904Y-106180000D01*
X186475142Y-106132380D01*
X187760857Y-107132380D02*
X187189428Y-107132380D01*
X187475142Y-107132380D02*
X187475142Y-106132380D01*
X187379904Y-106275238D01*
X187284666Y-106370476D01*
X187189428Y-106418095D01*
X188237047Y-107132380D02*
X188427523Y-107132380D01*
X188522761Y-107084761D01*
X188570380Y-107037142D01*
X188665619Y-106894285D01*
X188713238Y-106703809D01*
X188713238Y-106322857D01*
X188665619Y-106227619D01*
X188617999Y-106180000D01*
X188522761Y-106132380D01*
X188332285Y-106132380D01*
X188237047Y-106180000D01*
X188189428Y-106227619D01*
X188141809Y-106322857D01*
X188141809Y-106560952D01*
X188189428Y-106656190D01*
X188237047Y-106703809D01*
X188332285Y-106751428D01*
X188522761Y-106751428D01*
X188617999Y-106703809D01*
X188665619Y-106656190D01*
X188713238Y-106560952D01*
D10*
X129678571Y-99357142D02*
X130821428Y-99357142D01*
X130250000Y-99928571D02*
X130250000Y-98785714D01*
D11*
X171852380Y-99119047D02*
X171852380Y-99690476D01*
X171852380Y-99404761D02*
X170852380Y-99404761D01*
X170995238Y-99500000D01*
X171090476Y-99595238D01*
X171138095Y-99690476D01*
X170852380Y-98214285D02*
X170852380Y-98690476D01*
X171328571Y-98738095D01*
X171280952Y-98690476D01*
X171233333Y-98595238D01*
X171233333Y-98357142D01*
X171280952Y-98261904D01*
X171328571Y-98214285D01*
X171423809Y-98166666D01*
X171661904Y-98166666D01*
X171757142Y-98214285D01*
X171804761Y-98261904D01*
X171852380Y-98357142D01*
X171852380Y-98595238D01*
X171804761Y-98690476D01*
X171757142Y-98738095D01*
X170852380Y-97880952D02*
X171852380Y-97547619D01*
X170852380Y-97214285D01*
X189247619Y-92530952D02*
X189247619Y-91959523D01*
X189247619Y-92245238D02*
X190247619Y-92245238D01*
X190104761Y-92150000D01*
X190009523Y-92054761D01*
X189961904Y-91959523D01*
X190247619Y-93435714D02*
X190247619Y-92959523D01*
X189771428Y-92911904D01*
X189819047Y-92959523D01*
X189866666Y-93054761D01*
X189866666Y-93292857D01*
X189819047Y-93388095D01*
X189771428Y-93435714D01*
X189676190Y-93483333D01*
X189438095Y-93483333D01*
X189342857Y-93435714D01*
X189295238Y-93388095D01*
X189247619Y-93292857D01*
X189247619Y-93054761D01*
X189295238Y-92959523D01*
X189342857Y-92911904D01*
X190247619Y-93769047D02*
X189247619Y-94102380D01*
X190247619Y-94435714D01*
%TO.C,D1*%
X173361904Y-97252380D02*
X173361904Y-96252380D01*
X173600000Y-96252380D01*
X173742857Y-96300000D01*
X173838095Y-96395238D01*
X173885714Y-96490476D01*
X173933333Y-96680952D01*
X173933333Y-96823809D01*
X173885714Y-97014285D01*
X173838095Y-97109523D01*
X173742857Y-97204761D01*
X173600000Y-97252380D01*
X173361904Y-97252380D01*
X174885714Y-97252380D02*
X174314285Y-97252380D01*
X174600000Y-97252380D02*
X174600000Y-96252380D01*
X174504761Y-96395238D01*
X174409523Y-96490476D01*
X174314285Y-96538095D01*
%TO.C,R1*%
X174033333Y-103152380D02*
X173700000Y-102676190D01*
X173461904Y-103152380D02*
X173461904Y-102152380D01*
X173842857Y-102152380D01*
X173938095Y-102200000D01*
X173985714Y-102247619D01*
X174033333Y-102342857D01*
X174033333Y-102485714D01*
X173985714Y-102580952D01*
X173938095Y-102628571D01*
X173842857Y-102676190D01*
X173461904Y-102676190D01*
X174985714Y-103152380D02*
X174414285Y-103152380D01*
X174700000Y-103152380D02*
X174700000Y-102152380D01*
X174604761Y-102295238D01*
X174509523Y-102390476D01*
X174414285Y-102438095D01*
%TO.C,C2*%
X168857142Y-105576666D02*
X168904761Y-105624285D01*
X168952380Y-105767142D01*
X168952380Y-105862380D01*
X168904761Y-106005238D01*
X168809523Y-106100476D01*
X168714285Y-106148095D01*
X168523809Y-106195714D01*
X168380952Y-106195714D01*
X168190476Y-106148095D01*
X168095238Y-106100476D01*
X168000000Y-106005238D01*
X167952380Y-105862380D01*
X167952380Y-105767142D01*
X168000000Y-105624285D01*
X168047619Y-105576666D01*
X168047619Y-105195714D02*
X168000000Y-105148095D01*
X167952380Y-105052857D01*
X167952380Y-104814761D01*
X168000000Y-104719523D01*
X168047619Y-104671904D01*
X168142857Y-104624285D01*
X168238095Y-104624285D01*
X168380952Y-104671904D01*
X168952380Y-105243333D01*
X168952380Y-104624285D01*
%TO.C,C4*%
X155237142Y-105766666D02*
X155284761Y-105814285D01*
X155332380Y-105957142D01*
X155332380Y-106052380D01*
X155284761Y-106195238D01*
X155189523Y-106290476D01*
X155094285Y-106338095D01*
X154903809Y-106385714D01*
X154760952Y-106385714D01*
X154570476Y-106338095D01*
X154475238Y-106290476D01*
X154380000Y-106195238D01*
X154332380Y-106052380D01*
X154332380Y-105957142D01*
X154380000Y-105814285D01*
X154427619Y-105766666D01*
X154665714Y-104909523D02*
X155332380Y-104909523D01*
X154284761Y-105147619D02*
X154999047Y-105385714D01*
X154999047Y-104766666D01*
%TO.C,C6*%
X143157142Y-107166666D02*
X143204761Y-107214285D01*
X143252380Y-107357142D01*
X143252380Y-107452380D01*
X143204761Y-107595238D01*
X143109523Y-107690476D01*
X143014285Y-107738095D01*
X142823809Y-107785714D01*
X142680952Y-107785714D01*
X142490476Y-107738095D01*
X142395238Y-107690476D01*
X142300000Y-107595238D01*
X142252380Y-107452380D01*
X142252380Y-107357142D01*
X142300000Y-107214285D01*
X142347619Y-107166666D01*
X142252380Y-106309523D02*
X142252380Y-106500000D01*
X142300000Y-106595238D01*
X142347619Y-106642857D01*
X142490476Y-106738095D01*
X142680952Y-106785714D01*
X143061904Y-106785714D01*
X143157142Y-106738095D01*
X143204761Y-106690476D01*
X143252380Y-106595238D01*
X143252380Y-106404761D01*
X143204761Y-106309523D01*
X143157142Y-106261904D01*
X143061904Y-106214285D01*
X142823809Y-106214285D01*
X142728571Y-106261904D01*
X142680952Y-106309523D01*
X142633333Y-106404761D01*
X142633333Y-106595238D01*
X142680952Y-106690476D01*
X142728571Y-106738095D01*
X142823809Y-106785714D01*
%TO.C,CR1*%
X145606142Y-101916666D02*
X145653761Y-101964285D01*
X145701380Y-102107142D01*
X145701380Y-102202380D01*
X145653761Y-102345238D01*
X145558523Y-102440476D01*
X145463285Y-102488095D01*
X145272809Y-102535714D01*
X145129952Y-102535714D01*
X144939476Y-102488095D01*
X144844238Y-102440476D01*
X144749000Y-102345238D01*
X144701380Y-102202380D01*
X144701380Y-102107142D01*
X144749000Y-101964285D01*
X144796619Y-101916666D01*
X145701380Y-100916666D02*
X145225190Y-101250000D01*
X145701380Y-101488095D02*
X144701380Y-101488095D01*
X144701380Y-101107142D01*
X144749000Y-101011904D01*
X144796619Y-100964285D01*
X144891857Y-100916666D01*
X145034714Y-100916666D01*
X145129952Y-100964285D01*
X145177571Y-101011904D01*
X145225190Y-101107142D01*
X145225190Y-101488095D01*
X145701380Y-99964285D02*
X145701380Y-100535714D01*
X145701380Y-100250000D02*
X144701380Y-100250000D01*
X144844238Y-100345238D01*
X144939476Y-100440476D01*
X144987095Y-100535714D01*
X147549000Y-100652380D02*
X147549000Y-100890476D01*
X147310904Y-100795238D02*
X147549000Y-100890476D01*
X147787095Y-100795238D01*
X147406142Y-101080952D02*
X147549000Y-100890476D01*
X147691857Y-101080952D01*
D12*
%TO.C,D2*%
X144803904Y-79700380D02*
X144803904Y-78700380D01*
X145042000Y-78700380D01*
X145184857Y-78748000D01*
X145280095Y-78843238D01*
X145327714Y-78938476D01*
X145375333Y-79128952D01*
X145375333Y-79271809D01*
X145327714Y-79462285D01*
X145280095Y-79557523D01*
X145184857Y-79652761D01*
X145042000Y-79700380D01*
X144803904Y-79700380D01*
X145756285Y-78795619D02*
X145803904Y-78748000D01*
X145899142Y-78700380D01*
X146137238Y-78700380D01*
X146232476Y-78748000D01*
X146280095Y-78795619D01*
X146327714Y-78890857D01*
X146327714Y-78986095D01*
X146280095Y-79128952D01*
X145708666Y-79700380D01*
X146327714Y-79700380D01*
D11*
%TO.C,J2*%
X130354380Y-94405333D02*
X131068666Y-94405333D01*
X131211523Y-94452952D01*
X131306761Y-94548190D01*
X131354380Y-94691047D01*
X131354380Y-94786285D01*
X130449619Y-93976761D02*
X130402000Y-93929142D01*
X130354380Y-93833904D01*
X130354380Y-93595809D01*
X130402000Y-93500571D01*
X130449619Y-93452952D01*
X130544857Y-93405333D01*
X130640095Y-93405333D01*
X130782952Y-93452952D01*
X131354380Y-94024380D01*
X131354380Y-93405333D01*
D12*
%TO.C,U1*%
X167132023Y-102576329D02*
X167132023Y-103385929D01*
X167179647Y-103481176D01*
X167227270Y-103528799D01*
X167322517Y-103576423D01*
X167513011Y-103576423D01*
X167608258Y-103528799D01*
X167655882Y-103481176D01*
X167703505Y-103385929D01*
X167703505Y-102576329D01*
X168703599Y-103576423D02*
X168132117Y-103576423D01*
X168417858Y-103576423D02*
X168417858Y-102576329D01*
X168322611Y-102719200D01*
X168227364Y-102814447D01*
X168132117Y-102862070D01*
%TO.C,U2*%
X162190476Y-79161904D02*
X162190476Y-79809523D01*
X162228571Y-79885714D01*
X162266666Y-79923809D01*
X162342857Y-79961904D01*
X162495238Y-79961904D01*
X162571428Y-79923809D01*
X162609523Y-79885714D01*
X162647619Y-79809523D01*
X162647619Y-79161904D01*
X162990476Y-79238095D02*
X163028571Y-79200000D01*
X163104761Y-79161904D01*
X163295238Y-79161904D01*
X163371428Y-79200000D01*
X163409523Y-79238095D01*
X163447619Y-79314285D01*
X163447619Y-79390476D01*
X163409523Y-79504761D01*
X162952380Y-79961904D01*
X163447619Y-79961904D01*
D11*
%TO.C,U3*%
X183538095Y-76252380D02*
X183538095Y-77061904D01*
X183585714Y-77157142D01*
X183633333Y-77204761D01*
X183728571Y-77252380D01*
X183919047Y-77252380D01*
X184014285Y-77204761D01*
X184061904Y-77157142D01*
X184109523Y-77061904D01*
X184109523Y-76252380D01*
X184490476Y-76252380D02*
X185109523Y-76252380D01*
X184776190Y-76633333D01*
X184919047Y-76633333D01*
X185014285Y-76680952D01*
X185061904Y-76728571D01*
X185109523Y-76823809D01*
X185109523Y-77061904D01*
X185061904Y-77157142D01*
X185014285Y-77204761D01*
X184919047Y-77252380D01*
X184633333Y-77252380D01*
X184538095Y-77204761D01*
X184490476Y-77157142D01*
X188887381Y-85407858D02*
X189696905Y-85407858D01*
X189792143Y-85360239D01*
X189839762Y-85312620D01*
X189887381Y-85217381D01*
X189887381Y-85026905D01*
X189839762Y-84931667D01*
X189792143Y-84884048D01*
X189696905Y-84836429D01*
X188887381Y-84836429D01*
X189839762Y-84407858D02*
X189887381Y-84265001D01*
X189887381Y-84026905D01*
X189839762Y-83931667D01*
X189792143Y-83884048D01*
X189696905Y-83836429D01*
X189601667Y-83836429D01*
X189506429Y-83884048D01*
X189458810Y-83931667D01*
X189411191Y-84026905D01*
X189363572Y-84217381D01*
X189315953Y-84312620D01*
X189268334Y-84360239D01*
X189173096Y-84407858D01*
X189077858Y-84407858D01*
X188982620Y-84360239D01*
X188935001Y-84312620D01*
X188887381Y-84217381D01*
X188887381Y-83979286D01*
X188935001Y-83836429D01*
X189363572Y-83074524D02*
X189411191Y-82931667D01*
X189458810Y-82884048D01*
X189554048Y-82836429D01*
X189696905Y-82836429D01*
X189792143Y-82884048D01*
X189839762Y-82931667D01*
X189887381Y-83026905D01*
X189887381Y-83407858D01*
X188887381Y-83407858D01*
X188887381Y-83074524D01*
X188935001Y-82979286D01*
X188982620Y-82931667D01*
X189077858Y-82884048D01*
X189173096Y-82884048D01*
X189268334Y-82931667D01*
X189315953Y-82979286D01*
X189363572Y-83074524D01*
X189363572Y-83407858D01*
X189887381Y-82407858D02*
X188887381Y-82407858D01*
X189220715Y-81931667D02*
X189887381Y-81931667D01*
X189315953Y-81931667D02*
X189268334Y-81884048D01*
X189220715Y-81788810D01*
X189220715Y-81645953D01*
X189268334Y-81550715D01*
X189363572Y-81503096D01*
X189887381Y-81503096D01*
X189220715Y-81026905D02*
X190220715Y-81026905D01*
X189268334Y-81026905D02*
X189220715Y-80931667D01*
X189220715Y-80741191D01*
X189268334Y-80645953D01*
X189315953Y-80598334D01*
X189411191Y-80550715D01*
X189696905Y-80550715D01*
X189792143Y-80598334D01*
X189839762Y-80645953D01*
X189887381Y-80741191D01*
X189887381Y-80931667D01*
X189839762Y-81026905D01*
X189220715Y-79693572D02*
X189887381Y-79693572D01*
X189220715Y-80122143D02*
X189744524Y-80122143D01*
X189839762Y-80074524D01*
X189887381Y-79979286D01*
X189887381Y-79836429D01*
X189839762Y-79741191D01*
X189792143Y-79693572D01*
X189220715Y-79360239D02*
X189220715Y-78979286D01*
X188887381Y-79217381D02*
X189744524Y-79217381D01*
X189839762Y-79169762D01*
X189887381Y-79074524D01*
X189887381Y-78979286D01*
D12*
%TO.C,J1*%
X175728380Y-103457333D02*
X176442666Y-103457333D01*
X176585523Y-103504952D01*
X176680761Y-103600190D01*
X176728380Y-103743047D01*
X176728380Y-103838285D01*
X176728380Y-102457333D02*
X176728380Y-103028761D01*
X176728380Y-102743047D02*
X175728380Y-102743047D01*
X175871238Y-102838285D01*
X175966476Y-102933523D01*
X176014095Y-103028761D01*
D11*
%TO.C,C3*%
X154357142Y-79066666D02*
X154404761Y-79114285D01*
X154452380Y-79257142D01*
X154452380Y-79352380D01*
X154404761Y-79495238D01*
X154309523Y-79590476D01*
X154214285Y-79638095D01*
X154023809Y-79685714D01*
X153880952Y-79685714D01*
X153690476Y-79638095D01*
X153595238Y-79590476D01*
X153500000Y-79495238D01*
X153452380Y-79352380D01*
X153452380Y-79257142D01*
X153500000Y-79114285D01*
X153547619Y-79066666D01*
X153452380Y-78733333D02*
X153452380Y-78114285D01*
X153833333Y-78447619D01*
X153833333Y-78304761D01*
X153880952Y-78209523D01*
X153928571Y-78161904D01*
X154023809Y-78114285D01*
X154261904Y-78114285D01*
X154357142Y-78161904D01*
X154404761Y-78209523D01*
X154452380Y-78304761D01*
X154452380Y-78590476D01*
X154404761Y-78685714D01*
X154357142Y-78733333D01*
%TO.C,R5*%
X171702380Y-93766666D02*
X171226190Y-94100000D01*
X171702380Y-94338095D02*
X170702380Y-94338095D01*
X170702380Y-93957142D01*
X170750000Y-93861904D01*
X170797619Y-93814285D01*
X170892857Y-93766666D01*
X171035714Y-93766666D01*
X171130952Y-93814285D01*
X171178571Y-93861904D01*
X171226190Y-93957142D01*
X171226190Y-94338095D01*
X170702380Y-92861904D02*
X170702380Y-93338095D01*
X171178571Y-93385714D01*
X171130952Y-93338095D01*
X171083333Y-93242857D01*
X171083333Y-93004761D01*
X171130952Y-92909523D01*
X171178571Y-92861904D01*
X171273809Y-92814285D01*
X171511904Y-92814285D01*
X171607142Y-92861904D01*
X171654761Y-92909523D01*
X171702380Y-93004761D01*
X171702380Y-93242857D01*
X171654761Y-93338095D01*
X171607142Y-93385714D01*
%TO.C,R4*%
X156752380Y-79066666D02*
X156276190Y-79400000D01*
X156752380Y-79638095D02*
X155752380Y-79638095D01*
X155752380Y-79257142D01*
X155800000Y-79161904D01*
X155847619Y-79114285D01*
X155942857Y-79066666D01*
X156085714Y-79066666D01*
X156180952Y-79114285D01*
X156228571Y-79161904D01*
X156276190Y-79257142D01*
X156276190Y-79638095D01*
X156085714Y-78209523D02*
X156752380Y-78209523D01*
X155704761Y-78447619D02*
X156419047Y-78685714D01*
X156419047Y-78066666D01*
%TO.C,C5*%
X160357142Y-78466666D02*
X160404761Y-78514285D01*
X160452380Y-78657142D01*
X160452380Y-78752380D01*
X160404761Y-78895238D01*
X160309523Y-78990476D01*
X160214285Y-79038095D01*
X160023809Y-79085714D01*
X159880952Y-79085714D01*
X159690476Y-79038095D01*
X159595238Y-78990476D01*
X159500000Y-78895238D01*
X159452380Y-78752380D01*
X159452380Y-78657142D01*
X159500000Y-78514285D01*
X159547619Y-78466666D01*
X159452380Y-77561904D02*
X159452380Y-78038095D01*
X159928571Y-78085714D01*
X159880952Y-78038095D01*
X159833333Y-77942857D01*
X159833333Y-77704761D01*
X159880952Y-77609523D01*
X159928571Y-77561904D01*
X160023809Y-77514285D01*
X160261904Y-77514285D01*
X160357142Y-77561904D01*
X160404761Y-77609523D01*
X160452380Y-77704761D01*
X160452380Y-77942857D01*
X160404761Y-78038095D01*
X160357142Y-78085714D01*
%TO.C,R7*%
X149788933Y-94952380D02*
X149455600Y-94476190D01*
X149217504Y-94952380D02*
X149217504Y-93952380D01*
X149598457Y-93952380D01*
X149693695Y-94000000D01*
X149741314Y-94047619D01*
X149788933Y-94142857D01*
X149788933Y-94285714D01*
X149741314Y-94380952D01*
X149693695Y-94428571D01*
X149598457Y-94476190D01*
X149217504Y-94476190D01*
X150122266Y-93952380D02*
X150788933Y-93952380D01*
X150360361Y-94952380D01*
X148693695Y-95647619D02*
X148741314Y-95600000D01*
X148836552Y-95552380D01*
X149074647Y-95552380D01*
X149169885Y-95600000D01*
X149217504Y-95647619D01*
X149265123Y-95742857D01*
X149265123Y-95838095D01*
X149217504Y-95980952D01*
X148646076Y-96552380D01*
X149265123Y-96552380D01*
X150265123Y-96552380D02*
X149931790Y-96076190D01*
X149693695Y-96552380D02*
X149693695Y-95552380D01*
X150074647Y-95552380D01*
X150169885Y-95600000D01*
X150217504Y-95647619D01*
X150265123Y-95742857D01*
X150265123Y-95885714D01*
X150217504Y-95980952D01*
X150169885Y-96028571D01*
X150074647Y-96076190D01*
X149693695Y-96076190D01*
X150646076Y-95647619D02*
X150693695Y-95600000D01*
X150788933Y-95552380D01*
X151027028Y-95552380D01*
X151122266Y-95600000D01*
X151169885Y-95647619D01*
X151217504Y-95742857D01*
X151217504Y-95838095D01*
X151169885Y-95980952D01*
X150598457Y-96552380D01*
X151217504Y-96552380D01*
%TO.C,R3*%
X168533333Y-87452380D02*
X168200000Y-86976190D01*
X167961904Y-87452380D02*
X167961904Y-86452380D01*
X168342857Y-86452380D01*
X168438095Y-86500000D01*
X168485714Y-86547619D01*
X168533333Y-86642857D01*
X168533333Y-86785714D01*
X168485714Y-86880952D01*
X168438095Y-86928571D01*
X168342857Y-86976190D01*
X167961904Y-86976190D01*
X168866666Y-86452380D02*
X169485714Y-86452380D01*
X169152380Y-86833333D01*
X169295238Y-86833333D01*
X169390476Y-86880952D01*
X169438095Y-86928571D01*
X169485714Y-87023809D01*
X169485714Y-87261904D01*
X169438095Y-87357142D01*
X169390476Y-87404761D01*
X169295238Y-87452380D01*
X169009523Y-87452380D01*
X168914285Y-87404761D01*
X168866666Y-87357142D01*
%TO.C,C1*%
X161833333Y-88157142D02*
X161785714Y-88204761D01*
X161642857Y-88252380D01*
X161547619Y-88252380D01*
X161404761Y-88204761D01*
X161309523Y-88109523D01*
X161261904Y-88014285D01*
X161214285Y-87823809D01*
X161214285Y-87680952D01*
X161261904Y-87490476D01*
X161309523Y-87395238D01*
X161404761Y-87300000D01*
X161547619Y-87252380D01*
X161642857Y-87252380D01*
X161785714Y-87300000D01*
X161833333Y-87347619D01*
X162785714Y-88252380D02*
X162214285Y-88252380D01*
X162500000Y-88252380D02*
X162500000Y-87252380D01*
X162404761Y-87395238D01*
X162309523Y-87490476D01*
X162214285Y-87538095D01*
%TO.C,R6*%
X163952380Y-96866666D02*
X163476190Y-97200000D01*
X163952380Y-97438095D02*
X162952380Y-97438095D01*
X162952380Y-97057142D01*
X163000000Y-96961904D01*
X163047619Y-96914285D01*
X163142857Y-96866666D01*
X163285714Y-96866666D01*
X163380952Y-96914285D01*
X163428571Y-96961904D01*
X163476190Y-97057142D01*
X163476190Y-97438095D01*
X162952380Y-96009523D02*
X162952380Y-96200000D01*
X163000000Y-96295238D01*
X163047619Y-96342857D01*
X163190476Y-96438095D01*
X163380952Y-96485714D01*
X163761904Y-96485714D01*
X163857142Y-96438095D01*
X163904761Y-96390476D01*
X163952380Y-96295238D01*
X163952380Y-96104761D01*
X163904761Y-96009523D01*
X163857142Y-95961904D01*
X163761904Y-95914285D01*
X163523809Y-95914285D01*
X163428571Y-95961904D01*
X163380952Y-96009523D01*
X163333333Y-96104761D01*
X163333333Y-96295238D01*
X163380952Y-96390476D01*
X163428571Y-96438095D01*
X163523809Y-96485714D01*
X164985714Y-97485714D02*
X165652380Y-97485714D01*
X164604761Y-97723809D02*
X165319047Y-97961904D01*
X165319047Y-97342857D01*
X165652380Y-96961904D02*
X164652380Y-96961904D01*
X165652380Y-96390476D02*
X165080952Y-96819047D01*
X164652380Y-96390476D02*
X165223809Y-96961904D01*
X164652380Y-96057142D02*
X164652380Y-95390476D01*
X165652380Y-95819047D01*
X168500580Y-99161800D02*
X168738676Y-99161800D01*
X168643438Y-99399895D02*
X168738676Y-99161800D01*
X168643438Y-98923704D01*
X168929152Y-99304657D02*
X168738676Y-99161800D01*
X168929152Y-99018942D01*
%TO.C,R2*%
X168633333Y-85352380D02*
X168300000Y-84876190D01*
X168061904Y-85352380D02*
X168061904Y-84352380D01*
X168442857Y-84352380D01*
X168538095Y-84400000D01*
X168585714Y-84447619D01*
X168633333Y-84542857D01*
X168633333Y-84685714D01*
X168585714Y-84780952D01*
X168538095Y-84828571D01*
X168442857Y-84876190D01*
X168061904Y-84876190D01*
X169014285Y-84447619D02*
X169061904Y-84400000D01*
X169157142Y-84352380D01*
X169395238Y-84352380D01*
X169490476Y-84400000D01*
X169538095Y-84447619D01*
X169585714Y-84542857D01*
X169585714Y-84638095D01*
X169538095Y-84780952D01*
X168966666Y-85352380D01*
X169585714Y-85352380D01*
%TO.C,C7*%
X169033333Y-81357142D02*
X168985714Y-81404761D01*
X168842857Y-81452380D01*
X168747619Y-81452380D01*
X168604761Y-81404761D01*
X168509523Y-81309523D01*
X168461904Y-81214285D01*
X168414285Y-81023809D01*
X168414285Y-80880952D01*
X168461904Y-80690476D01*
X168509523Y-80595238D01*
X168604761Y-80500000D01*
X168747619Y-80452380D01*
X168842857Y-80452380D01*
X168985714Y-80500000D01*
X169033333Y-80547619D01*
X169366666Y-80452380D02*
X170033333Y-80452380D01*
X169604761Y-81452380D01*
D13*
%TO.C,D1*%
X172265000Y-99560000D02*
X175125000Y-99560000D01*
X175125000Y-97640000D02*
X172265000Y-97640000D01*
X172265000Y-97640000D02*
X172265000Y-99560000D01*
%TO.C,R1*%
X174327064Y-101635000D02*
X173872936Y-101635000D01*
X174327064Y-100165000D02*
X173872936Y-100165000D01*
%TO.C,C2*%
X169445000Y-105671252D02*
X169445000Y-105148748D01*
X170915000Y-105671252D02*
X170915000Y-105148748D01*
%TO.C,C4*%
X153935000Y-105338748D02*
X153935000Y-105861252D01*
X152465000Y-105338748D02*
X152465000Y-105861252D01*
%TO.C,C6*%
X145854437Y-107760000D02*
X149310000Y-107760000D01*
X144790000Y-104304437D02*
X144790000Y-104440000D01*
X145854437Y-103240000D02*
X149310000Y-103240000D01*
X144790000Y-106695563D02*
X145854437Y-107760000D01*
X149310000Y-103240000D02*
X149310000Y-104440000D01*
X144790000Y-106695563D02*
X144790000Y-106560000D01*
X144050000Y-103940000D02*
X144550000Y-103940000D01*
X149310000Y-107760000D02*
X149310000Y-106560000D01*
X144790000Y-104304437D02*
X145854437Y-103240000D01*
X144300000Y-103690000D02*
X144300000Y-104190000D01*
D14*
%TO.C,CR1*%
X151246125Y-101149200D02*
X151471875Y-101149200D01*
X153786125Y-101149200D02*
X153987900Y-101149200D01*
X154114900Y-99625200D02*
X146063100Y-99625200D01*
X146063100Y-99625200D02*
X146063100Y-102774800D01*
X146063100Y-102774800D02*
X154114900Y-102774800D01*
X148707240Y-101149200D02*
X148931875Y-101149200D01*
X146190100Y-101149200D02*
X146390760Y-101149200D01*
X154114900Y-102774800D02*
X154114900Y-99625200D01*
X144412100Y-101200000D02*
G75*
G03*
X144412100Y-101200000I-127000J0D01*
G01*
D15*
%TO.C,D2*%
X150850000Y-80230000D02*
X150850000Y-81000000D01*
X150850000Y-83000000D02*
X150850000Y-83770000D01*
X150850000Y-80230000D02*
G75*
G03*
X150850000Y-83770000I-2359991J-1770000D01*
G01*
D16*
X145083178Y-82020000D02*
G75*
G03*
X145083178Y-82020000I-143178J0D01*
G01*
D13*
%TO.C,J2*%
X142700000Y-104850000D02*
X142700000Y-102950000D01*
X142700000Y-102950000D02*
X142700000Y-102900000D01*
X142200000Y-103150000D02*
X142200000Y-97750000D01*
X142200000Y-97750000D02*
X142700000Y-98050000D01*
X131850000Y-105550000D02*
X142200000Y-105550000D01*
X142700000Y-98050000D02*
X142700000Y-92950000D01*
X142200000Y-105550000D02*
X142200000Y-104600000D01*
X131850000Y-92950000D02*
X131850000Y-105550000D01*
X142200000Y-104600000D02*
X142700000Y-104850000D01*
X142700000Y-92950000D02*
X131850000Y-92950000D01*
X142700000Y-102900000D02*
X142200000Y-103150000D01*
D15*
%TO.C,U1*%
X166630000Y-107890000D02*
X155950000Y-107890000D01*
X166630000Y-103190000D02*
X166630000Y-107890000D01*
X155950000Y-103190000D02*
X166630000Y-103190000D01*
X155950000Y-107890000D02*
X155950000Y-103190000D01*
D10*
X167571419Y-105410000D02*
G75*
G03*
X167571419Y-105410000I-141419J0D01*
G01*
D15*
%TO.C,U2*%
X161730000Y-83350000D02*
X161070000Y-83350000D01*
X161070000Y-80450000D02*
X161730000Y-80450000D01*
X162200000Y-81565000D02*
X162200000Y-82235000D01*
D16*
X159090000Y-80850000D02*
G75*
G03*
X159090000Y-80850000I-100000J0D01*
G01*
D11*
%TO.C,U3*%
X131015001Y-78455001D02*
X129745001Y-78455001D01*
X131015001Y-77185001D02*
X129745001Y-77185001D01*
X129745001Y-91155001D02*
X129745001Y-73375001D01*
X131015001Y-77185001D02*
X131015001Y-87345001D01*
X131015001Y-84805001D02*
X129745001Y-84805001D01*
X191975001Y-78455001D02*
X191975001Y-86075001D01*
X131015001Y-86075001D02*
X129745001Y-86075001D01*
X131015001Y-82265001D02*
X129745001Y-82265001D01*
X129745001Y-75915001D02*
X131015001Y-77185001D01*
X131015001Y-87345001D02*
X129745001Y-88615001D01*
X131015001Y-87345001D02*
X129745001Y-87345001D01*
X131015001Y-80995001D02*
X129745001Y-80995001D01*
X191975001Y-86075001D02*
X190705001Y-86075001D01*
X190705001Y-73375001D02*
X129745001Y-73375001D01*
X190705001Y-78455001D02*
X191975001Y-78455001D01*
X131015001Y-79725001D02*
X129745001Y-79725001D01*
X190705001Y-73375001D02*
X190705001Y-91155001D01*
X129745001Y-91155001D02*
X190705001Y-91155001D01*
X131015001Y-83535001D02*
X129745001Y-83535001D01*
D15*
%TO.C,J1*%
X177652000Y-102550000D02*
X177652000Y-104830000D01*
X191842000Y-104830000D02*
X191842000Y-95830000D01*
X177652000Y-95830000D02*
X178882000Y-95830000D01*
X177652000Y-98110000D02*
X177652000Y-95830000D01*
X177652000Y-104830000D02*
X191842000Y-104830000D01*
X191842000Y-95830000D02*
X183322000Y-95830000D01*
D16*
X177052000Y-100330000D02*
G75*
G03*
X177052000Y-100330000I-100000J0D01*
G01*
%TO.C,G\u002A\u002A\u002A*%
G36*
X142656428Y-81432925D02*
G01*
X142788642Y-81546909D01*
X142884519Y-81690687D01*
X142939712Y-81860068D01*
X142949659Y-81937079D01*
X142942630Y-82113846D01*
X142894390Y-82262024D01*
X142807304Y-82379140D01*
X142683733Y-82462720D01*
X142526041Y-82510291D01*
X142391928Y-82520858D01*
X142320426Y-82520843D01*
X142268474Y-82515951D01*
X142232957Y-82499205D01*
X142210759Y-82463628D01*
X142198768Y-82402245D01*
X142193867Y-82308078D01*
X142193057Y-82190800D01*
X142396200Y-82190800D01*
X142486255Y-82190800D01*
X142582071Y-82169377D01*
X142652749Y-82112771D01*
X142693204Y-82032472D01*
X142698350Y-81939970D01*
X142663102Y-81846757D01*
X142647958Y-81825417D01*
X142589246Y-81767789D01*
X142516060Y-81717490D01*
X142447896Y-81686876D01*
X142422862Y-81682800D01*
X142409664Y-81707403D01*
X142400720Y-81778313D01*
X142396486Y-81891178D01*
X142396200Y-81936800D01*
X142396200Y-82190800D01*
X142193057Y-82190800D01*
X142192942Y-82174152D01*
X142193000Y-82075281D01*
X142191431Y-81913007D01*
X142186931Y-81784383D01*
X142179812Y-81694589D01*
X142170384Y-81648803D01*
X142167104Y-81644393D01*
X142120074Y-81639962D01*
X142052190Y-81658719D01*
X141982852Y-81692864D01*
X141931459Y-81734596D01*
X141926379Y-81741195D01*
X141889564Y-81835137D01*
X141895218Y-81940393D01*
X141941685Y-82043110D01*
X141966328Y-82074814D01*
X142010988Y-82130115D01*
X142031722Y-82176892D01*
X142034108Y-82236275D01*
X142026902Y-82304298D01*
X142011472Y-82386699D01*
X141991510Y-82435824D01*
X141978746Y-82444800D01*
X141930972Y-82425548D01*
X141866613Y-82375463D01*
X141797155Y-82306053D01*
X141734084Y-82228824D01*
X141688888Y-82155283D01*
X141688124Y-82153671D01*
X141646903Y-82018939D01*
X141634384Y-81865447D01*
X141650805Y-81715090D01*
X141682278Y-81617503D01*
X141768032Y-81487057D01*
X141888597Y-81389744D01*
X142037864Y-81328592D01*
X142209725Y-81306629D01*
X142300369Y-81311095D01*
X142422862Y-81337801D01*
X142492222Y-81352923D01*
X142656428Y-81432925D01*
G37*
D17*
X142656428Y-81432925D02*
X142788642Y-81546909D01*
X142884519Y-81690687D01*
X142939712Y-81860068D01*
X142949659Y-81937079D01*
X142942630Y-82113846D01*
X142894390Y-82262024D01*
X142807304Y-82379140D01*
X142683733Y-82462720D01*
X142526041Y-82510291D01*
X142391928Y-82520858D01*
X142320426Y-82520843D01*
X142268474Y-82515951D01*
X142232957Y-82499205D01*
X142210759Y-82463628D01*
X142198768Y-82402245D01*
X142193867Y-82308078D01*
X142193057Y-82190800D01*
X142396200Y-82190800D01*
X142486255Y-82190800D01*
X142582071Y-82169377D01*
X142652749Y-82112771D01*
X142693204Y-82032472D01*
X142698350Y-81939970D01*
X142663102Y-81846757D01*
X142647958Y-81825417D01*
X142589246Y-81767789D01*
X142516060Y-81717490D01*
X142447896Y-81686876D01*
X142422862Y-81682800D01*
X142409664Y-81707403D01*
X142400720Y-81778313D01*
X142396486Y-81891178D01*
X142396200Y-81936800D01*
X142396200Y-82190800D01*
X142193057Y-82190800D01*
X142192942Y-82174152D01*
X142193000Y-82075281D01*
X142191431Y-81913007D01*
X142186931Y-81784383D01*
X142179812Y-81694589D01*
X142170384Y-81648803D01*
X142167104Y-81644393D01*
X142120074Y-81639962D01*
X142052190Y-81658719D01*
X141982852Y-81692864D01*
X141931459Y-81734596D01*
X141926379Y-81741195D01*
X141889564Y-81835137D01*
X141895218Y-81940393D01*
X141941685Y-82043110D01*
X141966328Y-82074814D01*
X142010988Y-82130115D01*
X142031722Y-82176892D01*
X142034108Y-82236275D01*
X142026902Y-82304298D01*
X142011472Y-82386699D01*
X141991510Y-82435824D01*
X141978746Y-82444800D01*
X141930972Y-82425548D01*
X141866613Y-82375463D01*
X141797155Y-82306053D01*
X141734084Y-82228824D01*
X141688888Y-82155283D01*
X141688124Y-82153671D01*
X141646903Y-82018939D01*
X141634384Y-81865447D01*
X141650805Y-81715090D01*
X141682278Y-81617503D01*
X141768032Y-81487057D01*
X141888597Y-81389744D01*
X142037864Y-81328592D01*
X142209725Y-81306629D01*
X142300369Y-81311095D01*
X142422862Y-81337801D01*
X142492222Y-81352923D01*
X142656428Y-81432925D01*
G36*
X143081261Y-76190049D02*
G01*
X143106604Y-76321162D01*
X143126172Y-76412066D01*
X143144888Y-76472215D01*
X143167676Y-76511061D01*
X143199459Y-76538056D01*
X143245161Y-76562654D01*
X143285555Y-76582271D01*
X143368362Y-76619323D01*
X143439063Y-76644751D01*
X143473940Y-76652121D01*
X143515958Y-76638907D01*
X143586469Y-76602335D01*
X143673046Y-76549148D01*
X143711616Y-76523195D01*
X143900253Y-76392790D01*
X144250406Y-76742943D01*
X144110408Y-76952050D01*
X143970410Y-77161156D01*
X144034461Y-77318787D01*
X144071295Y-77401845D01*
X144105147Y-77465311D01*
X144127669Y-77494438D01*
X144165352Y-77506845D01*
X144238898Y-77523470D01*
X144333911Y-77541135D01*
X144356013Y-77544805D01*
X144555200Y-77577152D01*
X144555200Y-78095097D01*
X144104544Y-78182631D01*
X144037441Y-78351565D01*
X143970337Y-78520500D01*
X144248379Y-78926900D01*
X144073358Y-79102713D01*
X143898336Y-79278526D01*
X143692029Y-79143081D01*
X143485721Y-79007636D01*
X143316630Y-79082131D01*
X143227291Y-79123761D01*
X143174129Y-79157246D01*
X143145824Y-79192458D01*
X143131056Y-79239267D01*
X143129888Y-79244963D01*
X143114627Y-79320949D01*
X143094777Y-79419301D01*
X143082617Y-79479350D01*
X143052999Y-79625400D01*
X142553190Y-79625400D01*
X142522282Y-79441250D01*
X142500569Y-79319292D01*
X142479051Y-79236308D01*
X142450059Y-79181082D01*
X142405925Y-79142402D01*
X142338979Y-79109052D01*
X142278225Y-79084377D01*
X142104146Y-79015310D01*
X141921899Y-79142555D01*
X141837617Y-79199771D01*
X141768541Y-79243649D01*
X141725507Y-79267429D01*
X141717942Y-79269800D01*
X141691174Y-79252742D01*
X141640307Y-79208352D01*
X141575507Y-79146802D01*
X141506938Y-79078267D01*
X141444764Y-79012919D01*
X141399151Y-78960931D01*
X141380262Y-78932477D01*
X141380200Y-78931769D01*
X141393458Y-78903075D01*
X141428669Y-78843876D01*
X141478994Y-78765516D01*
X141494500Y-78742223D01*
X141556840Y-78646559D01*
X141592359Y-78580383D01*
X141603893Y-78531940D01*
X141594279Y-78489475D01*
X141566925Y-78442102D01*
X141542793Y-78388087D01*
X141547875Y-78356394D01*
X141575322Y-78342128D01*
X141639958Y-78312791D01*
X141732085Y-78272475D01*
X141842007Y-78225272D01*
X141960027Y-78175273D01*
X142076449Y-78126571D01*
X142181575Y-78083256D01*
X142265710Y-78049421D01*
X142319156Y-78029157D01*
X142332768Y-78025200D01*
X142348878Y-78044299D01*
X142383054Y-78092751D01*
X142403849Y-78123722D01*
X142500475Y-78227928D01*
X142620695Y-78294615D01*
X142754573Y-78324423D01*
X142892171Y-78317996D01*
X143023552Y-78275975D01*
X143138780Y-78199001D01*
X143227917Y-78087717D01*
X143237527Y-78069870D01*
X143287614Y-77920511D01*
X143289900Y-77770237D01*
X143245832Y-77627833D01*
X143156858Y-77502082D01*
X143141418Y-77486797D01*
X143010675Y-77392250D01*
X142872397Y-77346834D01*
X142731079Y-77350324D01*
X142591218Y-77402495D01*
X142457309Y-77503124D01*
X142438514Y-77521868D01*
X142315728Y-77648463D01*
X141924469Y-77487581D01*
X141773937Y-77424485D01*
X141666058Y-77376128D01*
X141595770Y-77339831D01*
X141558008Y-77312911D01*
X141547707Y-77292686D01*
X141548730Y-77288600D01*
X141582932Y-77202990D01*
X141598217Y-77145286D01*
X141592500Y-77097738D01*
X141563696Y-77042595D01*
X141510515Y-76963280D01*
X141457058Y-76882744D01*
X141415031Y-76816068D01*
X141392757Y-76776501D01*
X141391905Y-76774463D01*
X141403467Y-76743665D01*
X141444763Y-76687526D01*
X141508430Y-76615411D01*
X141552612Y-76570047D01*
X141725809Y-76398177D01*
X141911096Y-76528300D01*
X142096384Y-76658422D01*
X142282685Y-76587293D01*
X142468987Y-76516163D01*
X142513452Y-76280081D01*
X142557917Y-76044000D01*
X142805458Y-76043999D01*
X143052999Y-76043999D01*
X143081261Y-76190049D01*
G37*
X143081261Y-76190049D02*
X143106604Y-76321162D01*
X143126172Y-76412066D01*
X143144888Y-76472215D01*
X143167676Y-76511061D01*
X143199459Y-76538056D01*
X143245161Y-76562654D01*
X143285555Y-76582271D01*
X143368362Y-76619323D01*
X143439063Y-76644751D01*
X143473940Y-76652121D01*
X143515958Y-76638907D01*
X143586469Y-76602335D01*
X143673046Y-76549148D01*
X143711616Y-76523195D01*
X143900253Y-76392790D01*
X144250406Y-76742943D01*
X144110408Y-76952050D01*
X143970410Y-77161156D01*
X144034461Y-77318787D01*
X144071295Y-77401845D01*
X144105147Y-77465311D01*
X144127669Y-77494438D01*
X144165352Y-77506845D01*
X144238898Y-77523470D01*
X144333911Y-77541135D01*
X144356013Y-77544805D01*
X144555200Y-77577152D01*
X144555200Y-78095097D01*
X144104544Y-78182631D01*
X144037441Y-78351565D01*
X143970337Y-78520500D01*
X144248379Y-78926900D01*
X144073358Y-79102713D01*
X143898336Y-79278526D01*
X143692029Y-79143081D01*
X143485721Y-79007636D01*
X143316630Y-79082131D01*
X143227291Y-79123761D01*
X143174129Y-79157246D01*
X143145824Y-79192458D01*
X143131056Y-79239267D01*
X143129888Y-79244963D01*
X143114627Y-79320949D01*
X143094777Y-79419301D01*
X143082617Y-79479350D01*
X143052999Y-79625400D01*
X142553190Y-79625400D01*
X142522282Y-79441250D01*
X142500569Y-79319292D01*
X142479051Y-79236308D01*
X142450059Y-79181082D01*
X142405925Y-79142402D01*
X142338979Y-79109052D01*
X142278225Y-79084377D01*
X142104146Y-79015310D01*
X141921899Y-79142555D01*
X141837617Y-79199771D01*
X141768541Y-79243649D01*
X141725507Y-79267429D01*
X141717942Y-79269800D01*
X141691174Y-79252742D01*
X141640307Y-79208352D01*
X141575507Y-79146802D01*
X141506938Y-79078267D01*
X141444764Y-79012919D01*
X141399151Y-78960931D01*
X141380262Y-78932477D01*
X141380200Y-78931769D01*
X141393458Y-78903075D01*
X141428669Y-78843876D01*
X141478994Y-78765516D01*
X141494500Y-78742223D01*
X141556840Y-78646559D01*
X141592359Y-78580383D01*
X141603893Y-78531940D01*
X141594279Y-78489475D01*
X141566925Y-78442102D01*
X141542793Y-78388087D01*
X141547875Y-78356394D01*
X141575322Y-78342128D01*
X141639958Y-78312791D01*
X141732085Y-78272475D01*
X141842007Y-78225272D01*
X141960027Y-78175273D01*
X142076449Y-78126571D01*
X142181575Y-78083256D01*
X142265710Y-78049421D01*
X142319156Y-78029157D01*
X142332768Y-78025200D01*
X142348878Y-78044299D01*
X142383054Y-78092751D01*
X142403849Y-78123722D01*
X142500475Y-78227928D01*
X142620695Y-78294615D01*
X142754573Y-78324423D01*
X142892171Y-78317996D01*
X143023552Y-78275975D01*
X143138780Y-78199001D01*
X143227917Y-78087717D01*
X143237527Y-78069870D01*
X143287614Y-77920511D01*
X143289900Y-77770237D01*
X143245832Y-77627833D01*
X143156858Y-77502082D01*
X143141418Y-77486797D01*
X143010675Y-77392250D01*
X142872397Y-77346834D01*
X142731079Y-77350324D01*
X142591218Y-77402495D01*
X142457309Y-77503124D01*
X142438514Y-77521868D01*
X142315728Y-77648463D01*
X141924469Y-77487581D01*
X141773937Y-77424485D01*
X141666058Y-77376128D01*
X141595770Y-77339831D01*
X141558008Y-77312911D01*
X141547707Y-77292686D01*
X141548730Y-77288600D01*
X141582932Y-77202990D01*
X141598217Y-77145286D01*
X141592500Y-77097738D01*
X141563696Y-77042595D01*
X141510515Y-76963280D01*
X141457058Y-76882744D01*
X141415031Y-76816068D01*
X141392757Y-76776501D01*
X141391905Y-76774463D01*
X141403467Y-76743665D01*
X141444763Y-76687526D01*
X141508430Y-76615411D01*
X141552612Y-76570047D01*
X141725809Y-76398177D01*
X141911096Y-76528300D01*
X142096384Y-76658422D01*
X142282685Y-76587293D01*
X142468987Y-76516163D01*
X142513452Y-76280081D01*
X142557917Y-76044000D01*
X142805458Y-76043999D01*
X143052999Y-76043999D01*
X143081261Y-76190049D01*
G36*
X142173209Y-84209538D02*
G01*
X142236437Y-84223364D01*
X142317728Y-84240086D01*
X142332700Y-84243061D01*
X142434300Y-84263104D01*
X142441397Y-84599843D01*
X142448493Y-84936581D01*
X142352497Y-84918633D01*
X142263486Y-84902637D01*
X142201777Y-84887898D01*
X142162217Y-84865744D01*
X142139650Y-84827502D01*
X142128923Y-84764498D01*
X142124880Y-84668060D01*
X142122409Y-84531487D01*
X142115317Y-84196059D01*
X142173209Y-84209538D01*
G37*
X142173209Y-84209538D02*
X142236437Y-84223364D01*
X142317728Y-84240086D01*
X142332700Y-84243061D01*
X142434300Y-84263104D01*
X142441397Y-84599843D01*
X142448493Y-84936581D01*
X142352497Y-84918633D01*
X142263486Y-84902637D01*
X142201777Y-84887898D01*
X142162217Y-84865744D01*
X142139650Y-84827502D01*
X142128923Y-84764498D01*
X142124880Y-84668060D01*
X142122409Y-84531487D01*
X142115317Y-84196059D01*
X142173209Y-84209538D01*
G36*
X141704050Y-86467233D02*
G01*
X141738879Y-86475274D01*
X141817283Y-86492272D01*
X141933086Y-86516924D01*
X142080111Y-86547926D01*
X142252182Y-86583973D01*
X142443121Y-86623762D01*
X142580350Y-86652241D01*
X143412200Y-86824592D01*
X143412200Y-87012313D01*
X143409834Y-87113139D01*
X143401949Y-87169856D01*
X143387372Y-87188968D01*
X143380450Y-87187968D01*
X143348800Y-87180115D01*
X143273397Y-87163317D01*
X143160249Y-87138853D01*
X143015362Y-87108006D01*
X142844745Y-87072057D01*
X142654403Y-87032286D01*
X142504152Y-87001101D01*
X141659604Y-86826300D01*
X141659602Y-86640438D01*
X141660890Y-86544859D01*
X141666407Y-86490393D01*
X141678632Y-86467384D01*
X141700042Y-86466174D01*
X141704050Y-86467233D01*
G37*
X141704050Y-86467233D02*
X141738879Y-86475274D01*
X141817283Y-86492272D01*
X141933086Y-86516924D01*
X142080111Y-86547926D01*
X142252182Y-86583973D01*
X142443121Y-86623762D01*
X142580350Y-86652241D01*
X143412200Y-86824592D01*
X143412200Y-87012313D01*
X143409834Y-87113139D01*
X143401949Y-87169856D01*
X143387372Y-87188968D01*
X143380450Y-87187968D01*
X143348800Y-87180115D01*
X143273397Y-87163317D01*
X143160249Y-87138853D01*
X143015362Y-87108006D01*
X142844745Y-87072057D01*
X142654403Y-87032286D01*
X142504152Y-87001101D01*
X141659604Y-86826300D01*
X141659602Y-86640438D01*
X141660890Y-86544859D01*
X141666407Y-86490393D01*
X141678632Y-86467384D01*
X141700042Y-86466174D01*
X141704050Y-86467233D01*
G36*
X141696742Y-82678408D02*
G01*
X141766252Y-82692480D01*
X141871656Y-82714190D01*
X142006048Y-82742110D01*
X142162522Y-82774812D01*
X142284421Y-82800400D01*
X142453167Y-82835712D01*
X142605435Y-82867248D01*
X142734168Y-82893575D01*
X142832306Y-82913256D01*
X142892793Y-82924856D01*
X142908991Y-82927400D01*
X142919399Y-82950589D01*
X142926808Y-83011356D01*
X142929600Y-83095675D01*
X142929600Y-83263950D01*
X142855049Y-83249039D01*
X142780498Y-83234129D01*
X142861399Y-83364272D01*
X142906561Y-83444039D01*
X142931066Y-83513502D01*
X142940914Y-83595347D01*
X142942300Y-83670190D01*
X142940651Y-83764947D01*
X142932103Y-83825272D01*
X142911259Y-83867512D01*
X142872720Y-83908012D01*
X142859946Y-83919550D01*
X142791372Y-83970580D01*
X142723570Y-84005724D01*
X142709007Y-84010347D01*
X142657178Y-84011487D01*
X142561056Y-84001344D01*
X142425707Y-83980650D01*
X142256196Y-83950141D01*
X142150011Y-83929397D01*
X141659600Y-83831232D01*
X141659600Y-83658716D01*
X141661560Y-83572537D01*
X141666706Y-83510690D01*
X141673936Y-83486220D01*
X141674161Y-83486200D01*
X141702600Y-83491089D01*
X141772471Y-83504654D01*
X141875467Y-83525236D01*
X142003281Y-83551178D01*
X142125011Y-83576159D01*
X142271023Y-83604834D01*
X142402975Y-83628073D01*
X142511515Y-83644437D01*
X142587289Y-83652490D01*
X142618064Y-83651972D01*
X142673812Y-83616305D01*
X142698281Y-83552369D01*
X142692436Y-83471149D01*
X142657243Y-83383631D01*
X142593669Y-83300798D01*
X142586564Y-83293926D01*
X142525993Y-83248878D01*
X142440960Y-83207342D01*
X142325578Y-83167407D01*
X142173961Y-83127163D01*
X141980220Y-83084698D01*
X141881850Y-83065155D01*
X141659600Y-83022048D01*
X141659600Y-82847724D01*
X141660991Y-82761039D01*
X141664643Y-82698621D01*
X141669782Y-82673449D01*
X141670030Y-82673400D01*
X141696742Y-82678408D01*
G37*
X141696742Y-82678408D02*
X141766252Y-82692480D01*
X141871656Y-82714190D01*
X142006048Y-82742110D01*
X142162522Y-82774812D01*
X142284421Y-82800400D01*
X142453167Y-82835712D01*
X142605435Y-82867248D01*
X142734168Y-82893575D01*
X142832306Y-82913256D01*
X142892793Y-82924856D01*
X142908991Y-82927400D01*
X142919399Y-82950589D01*
X142926808Y-83011356D01*
X142929600Y-83095675D01*
X142929600Y-83263950D01*
X142855049Y-83249039D01*
X142780498Y-83234129D01*
X142861399Y-83364272D01*
X142906561Y-83444039D01*
X142931066Y-83513502D01*
X142940914Y-83595347D01*
X142942300Y-83670190D01*
X142940651Y-83764947D01*
X142932103Y-83825272D01*
X142911259Y-83867512D01*
X142872720Y-83908012D01*
X142859946Y-83919550D01*
X142791372Y-83970580D01*
X142723570Y-84005724D01*
X142709007Y-84010347D01*
X142657178Y-84011487D01*
X142561056Y-84001344D01*
X142425707Y-83980650D01*
X142256196Y-83950141D01*
X142150011Y-83929397D01*
X141659600Y-83831232D01*
X141659600Y-83658716D01*
X141661560Y-83572537D01*
X141666706Y-83510690D01*
X141673936Y-83486220D01*
X141674161Y-83486200D01*
X141702600Y-83491089D01*
X141772471Y-83504654D01*
X141875467Y-83525236D01*
X142003281Y-83551178D01*
X142125011Y-83576159D01*
X142271023Y-83604834D01*
X142402975Y-83628073D01*
X142511515Y-83644437D01*
X142587289Y-83652490D01*
X142618064Y-83651972D01*
X142673812Y-83616305D01*
X142698281Y-83552369D01*
X142692436Y-83471149D01*
X142657243Y-83383631D01*
X142593669Y-83300798D01*
X142586564Y-83293926D01*
X142525993Y-83248878D01*
X142440960Y-83207342D01*
X142325578Y-83167407D01*
X142173961Y-83127163D01*
X141980220Y-83084698D01*
X141881850Y-83065155D01*
X141659600Y-83022048D01*
X141659600Y-82847724D01*
X141660991Y-82761039D01*
X141664643Y-82698621D01*
X141669782Y-82673449D01*
X141670030Y-82673400D01*
X141696742Y-82678408D01*
G36*
X142924363Y-80139387D02*
G01*
X142927260Y-80228578D01*
X142923922Y-80277389D01*
X142911373Y-80296134D01*
X142886636Y-80295127D01*
X142879913Y-80293450D01*
X142846675Y-80285702D01*
X142833121Y-80290998D01*
X142840083Y-80318569D01*
X142868390Y-80377643D01*
X142891607Y-80423454D01*
X142944310Y-80572557D01*
X142952231Y-80716783D01*
X142916898Y-80848571D01*
X142839838Y-80960358D01*
X142771864Y-81016246D01*
X142704170Y-81053597D01*
X142628546Y-81076524D01*
X142527187Y-81089648D01*
X142475226Y-81093200D01*
X142269907Y-81086504D01*
X142084625Y-81044030D01*
X141924573Y-80969300D01*
X141794945Y-80865832D01*
X141700934Y-80737147D01*
X141647732Y-80586765D01*
X141639465Y-80526744D01*
X141637182Y-80450763D01*
X141893276Y-80450763D01*
X141929712Y-80543783D01*
X141936191Y-80554687D01*
X142008870Y-80631700D01*
X142116102Y-80694719D01*
X142242757Y-80739478D01*
X142373707Y-80761706D01*
X142493823Y-80757136D01*
X142568571Y-80733107D01*
X142655901Y-80666548D01*
X142699321Y-80585277D01*
X142700829Y-80496334D01*
X142662423Y-80406757D01*
X142586101Y-80323585D01*
X142473862Y-80253855D01*
X142426896Y-80234091D01*
X142268977Y-80192089D01*
X142132006Y-80191682D01*
X142019573Y-80232495D01*
X141959559Y-80282937D01*
X141902871Y-80367932D01*
X141893276Y-80450763D01*
X141637182Y-80450763D01*
X141635737Y-80402658D01*
X141651870Y-80309503D01*
X141692668Y-80229696D01*
X141735248Y-80176009D01*
X141810162Y-80090687D01*
X141538031Y-80034042D01*
X141422582Y-80009714D01*
X141322560Y-79988091D01*
X141250349Y-79971884D01*
X141221450Y-79964786D01*
X141197107Y-79949200D01*
X141183446Y-79912272D01*
X141177741Y-79842713D01*
X141177000Y-79780854D01*
X141177000Y-79609531D01*
X142046950Y-79790639D01*
X142132006Y-79808346D01*
X142916900Y-79971748D01*
X142924363Y-80139387D01*
G37*
X142924363Y-80139387D02*
X142927260Y-80228578D01*
X142923922Y-80277389D01*
X142911373Y-80296134D01*
X142886636Y-80295127D01*
X142879913Y-80293450D01*
X142846675Y-80285702D01*
X142833121Y-80290998D01*
X142840083Y-80318569D01*
X142868390Y-80377643D01*
X142891607Y-80423454D01*
X142944310Y-80572557D01*
X142952231Y-80716783D01*
X142916898Y-80848571D01*
X142839838Y-80960358D01*
X142771864Y-81016246D01*
X142704170Y-81053597D01*
X142628546Y-81076524D01*
X142527187Y-81089648D01*
X142475226Y-81093200D01*
X142269907Y-81086504D01*
X142084625Y-81044030D01*
X141924573Y-80969300D01*
X141794945Y-80865832D01*
X141700934Y-80737147D01*
X141647732Y-80586765D01*
X141639465Y-80526744D01*
X141637182Y-80450763D01*
X141893276Y-80450763D01*
X141929712Y-80543783D01*
X141936191Y-80554687D01*
X142008870Y-80631700D01*
X142116102Y-80694719D01*
X142242757Y-80739478D01*
X142373707Y-80761706D01*
X142493823Y-80757136D01*
X142568571Y-80733107D01*
X142655901Y-80666548D01*
X142699321Y-80585277D01*
X142700829Y-80496334D01*
X142662423Y-80406757D01*
X142586101Y-80323585D01*
X142473862Y-80253855D01*
X142426896Y-80234091D01*
X142268977Y-80192089D01*
X142132006Y-80191682D01*
X142019573Y-80232495D01*
X141959559Y-80282937D01*
X141902871Y-80367932D01*
X141893276Y-80450763D01*
X141637182Y-80450763D01*
X141635737Y-80402658D01*
X141651870Y-80309503D01*
X141692668Y-80229696D01*
X141735248Y-80176009D01*
X141810162Y-80090687D01*
X141538031Y-80034042D01*
X141422582Y-80009714D01*
X141322560Y-79988091D01*
X141250349Y-79971884D01*
X141221450Y-79964786D01*
X141197107Y-79949200D01*
X141183446Y-79912272D01*
X141177741Y-79842713D01*
X141177000Y-79780854D01*
X141177000Y-79609531D01*
X142046950Y-79790639D01*
X142132006Y-79808346D01*
X142916900Y-79971748D01*
X142924363Y-80139387D01*
G36*
X142928098Y-87465725D02*
G01*
X143056600Y-87492719D01*
X143399500Y-87564895D01*
X143399500Y-88033797D01*
X143399022Y-88202450D01*
X143397068Y-88328773D01*
X143392865Y-88421232D01*
X143385635Y-88488291D01*
X143374604Y-88538417D01*
X143358996Y-88580075D01*
X143347229Y-88604300D01*
X143268420Y-88707665D01*
X143162323Y-88776161D01*
X143037299Y-88811103D01*
X142901712Y-88813812D01*
X142763923Y-88785605D01*
X142632295Y-88727800D01*
X142515191Y-88641715D01*
X142420973Y-88528669D01*
X142380380Y-88451900D01*
X142357367Y-88376644D01*
X142340675Y-88268939D01*
X142329363Y-88121540D01*
X142325354Y-88028542D01*
X142322535Y-87947763D01*
X142623254Y-87947763D01*
X142628065Y-88045780D01*
X142639436Y-88143770D01*
X142656867Y-88229209D01*
X142673141Y-88276484D01*
X142731277Y-88360731D01*
X142809948Y-88418182D01*
X142897418Y-88446262D01*
X142981950Y-88442395D01*
X143051808Y-88404004D01*
X143080456Y-88365885D01*
X143092696Y-88318350D01*
X143102031Y-88235142D01*
X143106978Y-88131371D01*
X143107400Y-88090992D01*
X143107400Y-87866445D01*
X142894503Y-87822622D01*
X142794171Y-87802619D01*
X142711863Y-87787405D01*
X142661054Y-87779429D01*
X142653203Y-87778800D01*
X142635321Y-87801748D01*
X142625506Y-87862244D01*
X142623254Y-87947763D01*
X142322535Y-87947763D01*
X142314124Y-87706784D01*
X142145612Y-87668926D01*
X142025810Y-87642787D01*
X141896016Y-87615626D01*
X141818350Y-87600029D01*
X141659600Y-87568990D01*
X141659600Y-87200987D01*
X142186650Y-87310765D01*
X142372372Y-87349487D01*
X142567912Y-87390326D01*
X142653203Y-87408165D01*
X142758183Y-87430123D01*
X142928098Y-87465725D01*
G37*
X142928098Y-87465725D02*
X143056600Y-87492719D01*
X143399500Y-87564895D01*
X143399500Y-88033797D01*
X143399022Y-88202450D01*
X143397068Y-88328773D01*
X143392865Y-88421232D01*
X143385635Y-88488291D01*
X143374604Y-88538417D01*
X143358996Y-88580075D01*
X143347229Y-88604300D01*
X143268420Y-88707665D01*
X143162323Y-88776161D01*
X143037299Y-88811103D01*
X142901712Y-88813812D01*
X142763923Y-88785605D01*
X142632295Y-88727800D01*
X142515191Y-88641715D01*
X142420973Y-88528669D01*
X142380380Y-88451900D01*
X142357367Y-88376644D01*
X142340675Y-88268939D01*
X142329363Y-88121540D01*
X142325354Y-88028542D01*
X142322535Y-87947763D01*
X142623254Y-87947763D01*
X142628065Y-88045780D01*
X142639436Y-88143770D01*
X142656867Y-88229209D01*
X142673141Y-88276484D01*
X142731277Y-88360731D01*
X142809948Y-88418182D01*
X142897418Y-88446262D01*
X142981950Y-88442395D01*
X143051808Y-88404004D01*
X143080456Y-88365885D01*
X143092696Y-88318350D01*
X143102031Y-88235142D01*
X143106978Y-88131371D01*
X143107400Y-88090992D01*
X143107400Y-87866445D01*
X142894503Y-87822622D01*
X142794171Y-87802619D01*
X142711863Y-87787405D01*
X142661054Y-87779429D01*
X142653203Y-87778800D01*
X142635321Y-87801748D01*
X142625506Y-87862244D01*
X142623254Y-87947763D01*
X142322535Y-87947763D01*
X142314124Y-87706784D01*
X142145612Y-87668926D01*
X142025810Y-87642787D01*
X141896016Y-87615626D01*
X141818350Y-87600029D01*
X141659600Y-87568990D01*
X141659600Y-87200987D01*
X142186650Y-87310765D01*
X142372372Y-87349487D01*
X142567912Y-87390326D01*
X142653203Y-87408165D01*
X142758183Y-87430123D01*
X142928098Y-87465725D01*
G36*
X142103195Y-85037463D02*
G01*
X142145990Y-85049984D01*
X142150068Y-85054650D01*
X142158407Y-85088379D01*
X142169016Y-85156585D01*
X142177653Y-85227370D01*
X142194374Y-85381040D01*
X142101811Y-85381040D01*
X142014464Y-85398416D01*
X141961065Y-85452067D01*
X141939628Y-85544274D01*
X141939000Y-85568203D01*
X141958950Y-85676115D01*
X142019113Y-85753013D01*
X142111199Y-85797139D01*
X142153278Y-85807484D01*
X142234518Y-85826075D01*
X142346756Y-85851146D01*
X142481828Y-85880931D01*
X142631571Y-85913663D01*
X142787822Y-85947576D01*
X142942418Y-85980902D01*
X143087194Y-86011876D01*
X143213987Y-86038730D01*
X143314634Y-86059698D01*
X143380972Y-86073014D01*
X143404445Y-86077000D01*
X143408268Y-86100256D01*
X143411038Y-86161459D01*
X143412194Y-86247754D01*
X143412200Y-86254800D01*
X143410514Y-86342441D01*
X143406075Y-86405945D01*
X143399817Y-86432460D01*
X143399305Y-86432600D01*
X143357901Y-86427028D01*
X143275399Y-86411557D01*
X143160117Y-86388050D01*
X143020377Y-86358372D01*
X142864496Y-86324384D01*
X142700797Y-86287953D01*
X142537599Y-86250941D01*
X142383221Y-86215213D01*
X142245984Y-86182632D01*
X142134208Y-86155063D01*
X142056213Y-86134368D01*
X142026260Y-86125004D01*
X141866723Y-86047624D01*
X141751776Y-85949056D01*
X141677982Y-85824280D01*
X141641904Y-85668275D01*
X141636942Y-85556300D01*
X141640917Y-85454388D01*
X141649702Y-85362836D01*
X141660475Y-85305330D01*
X141715282Y-85201310D01*
X141805717Y-85113345D01*
X141881035Y-85070426D01*
X141953132Y-85048715D01*
X142033047Y-85037383D01*
X142103195Y-85037463D01*
G37*
X142103195Y-85037463D02*
X142145990Y-85049984D01*
X142150068Y-85054650D01*
X142158407Y-85088379D01*
X142169016Y-85156585D01*
X142177653Y-85227370D01*
X142194374Y-85381040D01*
X142101811Y-85381040D01*
X142014464Y-85398416D01*
X141961065Y-85452067D01*
X141939628Y-85544274D01*
X141939000Y-85568203D01*
X141958950Y-85676115D01*
X142019113Y-85753013D01*
X142111199Y-85797139D01*
X142153278Y-85807484D01*
X142234518Y-85826075D01*
X142346756Y-85851146D01*
X142481828Y-85880931D01*
X142631571Y-85913663D01*
X142787822Y-85947576D01*
X142942418Y-85980902D01*
X143087194Y-86011876D01*
X143213987Y-86038730D01*
X143314634Y-86059698D01*
X143380972Y-86073014D01*
X143404445Y-86077000D01*
X143408268Y-86100256D01*
X143411038Y-86161459D01*
X143412194Y-86247754D01*
X143412200Y-86254800D01*
X143410514Y-86342441D01*
X143406075Y-86405945D01*
X143399817Y-86432460D01*
X143399305Y-86432600D01*
X143357901Y-86427028D01*
X143275399Y-86411557D01*
X143160117Y-86388050D01*
X143020377Y-86358372D01*
X142864496Y-86324384D01*
X142700797Y-86287953D01*
X142537599Y-86250941D01*
X142383221Y-86215213D01*
X142245984Y-86182632D01*
X142134208Y-86155063D01*
X142056213Y-86134368D01*
X142026260Y-86125004D01*
X141866723Y-86047624D01*
X141751776Y-85949056D01*
X141677982Y-85824280D01*
X141641904Y-85668275D01*
X141636942Y-85556300D01*
X141640917Y-85454388D01*
X141649702Y-85362836D01*
X141660475Y-85305330D01*
X141715282Y-85201310D01*
X141805717Y-85113345D01*
X141881035Y-85070426D01*
X141953132Y-85048715D01*
X142033047Y-85037383D01*
X142103195Y-85037463D01*
D13*
%TO.C,C3*%
X154835000Y-81601248D02*
X154835000Y-82123752D01*
X153365000Y-81601248D02*
X153365000Y-82123752D01*
%TO.C,R5*%
X173635000Y-93827064D02*
X173635000Y-93372936D01*
X172165000Y-93827064D02*
X172165000Y-93372936D01*
%TO.C,R4*%
X156935000Y-81672936D02*
X156935000Y-82127064D01*
X155465000Y-81672936D02*
X155465000Y-82127064D01*
%TO.C,C5*%
X157465000Y-78301248D02*
X157465000Y-78823752D01*
X158935000Y-78301248D02*
X158935000Y-78823752D01*
%TO.C,R7*%
X146999250Y-98983000D02*
X152911950Y-98983000D01*
X152911950Y-91617000D02*
X146999250Y-91617000D01*
%TO.C,R3*%
X166027064Y-86265000D02*
X165572936Y-86265000D01*
X166027064Y-87735000D02*
X165572936Y-87735000D01*
%TO.C,C1*%
X161601248Y-85165000D02*
X162123752Y-85165000D01*
X161601248Y-86635000D02*
X162123752Y-86635000D01*
%TO.C,R6*%
X169048200Y-95527060D02*
X169048200Y-91872000D01*
X169048200Y-101397000D02*
X169048200Y-97767340D01*
X159523200Y-91872000D02*
X159523200Y-92987060D01*
X159523200Y-101397000D02*
X169048200Y-101397000D01*
X169048200Y-91872000D02*
X159523200Y-91872000D01*
X159523200Y-100307340D02*
X159523200Y-101397000D01*
X159523200Y-95227340D02*
X159523200Y-98067060D01*
X158380200Y-94107200D02*
G75*
G03*
X158380200Y-94107200I-127000J0D01*
G01*
%TO.C,R2*%
X165572936Y-84165000D02*
X166027064Y-84165000D01*
X165572936Y-85635000D02*
X166027064Y-85635000D01*
%TO.C,C7*%
X166261252Y-81735000D02*
X165738748Y-81735000D01*
X166261252Y-80265000D02*
X165738748Y-80265000D01*
%TD*%
M02*
